<?xml version="1.0" encoding="utf-8"?>
<!-- Generator: Adobe Illustrator 27.3.1, SVG Export Plug-In . SVG Version: 6.00 Build 0)  -->
<svg version="1.1" xmlns="http://www.w3.org/2000/svg" xmlns:xlink="http://www.w3.org/1999/xlink" x="0px" y="0px"
	 viewBox="0 0 141.73 141.73" style="enable-background:new 0 0 141.73 141.73;" xml:space="preserve">
<style type="text/css">
	.st0{opacity:0.25;fill:#FFFFFF;}
	.st1{opacity:0.35;fill:#FFFFFF;}
	.st2{opacity:0.45;fill:#FFFFFF;}
	.st3{opacity:0.65;fill:#FFFFFF;}
	.st4{opacity:0.8;fill:#FFFFFF;}
	.st5{opacity:0.15;fill:#FFFFFF;}
	.st6{opacity:0.55;fill:#FFFFFF;}
	.st7{fill:#FFFFFF;}
</style>
<g id="Layer_1">
</g>
<g id="GUIDE">
	<polygon class="st0" points="22.39,56.07 26.45,56.07 26.45,103.38 65.42,103.38 65.42,111.25 22.39,111.25 	"/>
	<polygon class="st1" points="27.96,42.34 32.02,42.34 32.02,96.7 57.07,96.7 57.07,101.88 27.96,101.88 	"/>
	<polygon class="st2" points="40.37,90.02 48.72,90.02 48.72,95.2 33.52,95.2 33.52,35.66 40.37,35.66 	"/>
	<polygon class="st3" points="57.07,40.83 57.07,95.2 50.22,95.2 50.22,35.66 104.38,35.66 104.38,40.83 	"/>
	<polygon class="st4" points="65.42,47.88 65.42,101.88 58.57,101.88 58.57,42.34 118.3,42.34 118.3,47.88 	"/>
	<rect x="16.82" y="69.43" class="st5" width="4.06" height="41.82"/>
	<polygon class="st6" points="41.87,31.67 90.47,31.67 90.47,34.15 48.72,34.15 48.72,88.52 41.87,88.52 	"/>
	<polygon class="st7" points="66.92,49.39 125.34,49.39 125.34,55.94 125.34,62.49 125.34,69.04 125.34,82.14 125.34,88.7 
		125.34,95.25 125.34,101.8 125.34,111.25 66.92,111.25 66.92,101.8 66.92,95.25 66.92,88.7 66.92,82.14 66.92,69.04 66.92,62.49 
		66.92,55.94 	"/>
</g>
</svg>
