<?xml version="1.0" encoding="utf-8"?>
<!-- Generator: Adobe Illustrator 26.3.1, SVG Export Plug-In . SVG Version: 6.00 Build 0)  -->
<svg version="1.1" xmlns="http://www.w3.org/2000/svg" xmlns:xlink="http://www.w3.org/1999/xlink" x="0px" y="0px"
	 viewBox="0 0 708.661 708.661" enable-background="new 0 0 708.661 708.661" xml:space="preserve">
<g id="GUIDE">
</g>
<g id="Layer_1">
</g>
<g id="ICON">
	<g>
		<path fill="#FFFFFF" d="M143.371,335.125l-22.25,7.15l-22.35,6.8l-22.5,6.35l-11.3,2.9l-11.4,2.75l-11.4,2.5l-12,2.3v44.8h136.2
			v-83.6L143.371,335.125z M163.472,404.225h-76.5v-33l76.5-2.7V404.225z M163.472,346.825l-24.9,3.9l-53.9,9.6l-0.6,0.1v43.8
			h-51.05v-35.35l10.65-1.85l12.55-2.5l24.8-5.75l82.45-21.2V346.825z"/>
		<path fill="#FFFFFF" d="M284.721,299.775l-7.8,0.75l-7.85,0.85l-9.7,1.3l-9.85,1.55l-9.75,1.8l-9.65,2l-9.6,2.3l-9.4,2.45
			l-19.2,5.6v92.3h109.25v-112L284.721,299.775z M298.271,404.225h-76.5v-30.85l76.5-1V404.225z M298.271,356.375l-68,3.05
			l-11.4,0.6v44.2h-24.05v-65.9l16.6-2.2l18.9-1.9l17.3-1.25l17.5-0.8l17.6-0.45l15.55-0.1V356.375z"/>
		<path fill="#FFFFFF" d="M662.471,369.625l-15-2.1l-29.1-4.95l-22.05-4.15v52.25h82.3v-39.3L662.471,369.625z M675.722,404.225
			h-76.5v-29.5l19,1.35l57.5,4.6V404.225z"/>
		<path fill="#FFFFFF" d="M490.372,327.725l-27.95-7.95l-32.15-8.55l-10.1-2.4l-10.15-2.2l-10.2-2l-10.25-1.75l-10.3-1.45
			l-10.35-1.25l-10.35-0.9l-10.35-0.65l-10.4-0.4l-11.1-0.15v112.6h244.05v-60.15L490.372,327.725z M433.071,404.225h-103.45v-36
			l103.45,3.1V404.225z M461.521,404.225h-25.55v-71.35l-24.2-3.05l-23.7-2.45l-30.3-2.15l-28.15-1.15v-19.6l8.15,0.15l10.35,0.4
			l10.35,0.65l10.3,0.9l10.3,1.2l10.25,1.5l10.25,1.75l10.15,1.95l10.15,2.2l10.05,2.4l20.1,5.25l11.5,3.15V404.225z
			 M567.872,404.225h-103.45v-25.95l78.35,4.2l25.1,1.05V404.225z M567.872,374.225l-103.45-6.6v-12.55l103.45,11.45V374.225z"/>
	</g>
</g>
<g id="ROOF_MODEL_x24_ADDITIONAL_BEAM">
</g>
</svg>
