<?xml version="1.0" encoding="utf-8"?>
<!-- Generator: Adobe Illustrator 26.3.1, SVG Export Plug-In . SVG Version: 6.00 Build 0)  -->
<svg version="1.1" xmlns="http://www.w3.org/2000/svg" xmlns:xlink="http://www.w3.org/1999/xlink" x="0px" y="0px"
	 viewBox="0 0 1417.323 1417.323" enable-background="new 0 0 1417.323 1417.323" xml:space="preserve">
<g id="Layer_1">
</g>
<g id="Layer_3">
</g>
<g id="GUIDE">
</g>
<g id="Layer_4">
	<g id="SPLINE_218_">
		<path fill="none" stroke="#FFFFFF" stroke-width="10" stroke-miterlimit="10" d="M1125.227,810.027"/>
	</g>
	<g id="SPLINE_217_">
		<path fill="none" stroke="#FFFFFF" stroke-width="10" stroke-miterlimit="10" d="M1124.011,818.029
			c-0.002,0.01-0.004,0.024-0.009,0.056"/>
	</g>
	<g id="SPLINE_216_">
		<path fill="none" stroke="#FFFFFF" stroke-width="10" stroke-miterlimit="10" d="M1121.867,830.489
			c-0.005,0.025-0.006,0.031-0.007,0.038"/>
	</g>
	<g id="SPLINE_215_">
		<path fill="none" stroke="#FFFFFF" stroke-width="10" stroke-miterlimit="10" d="M1100.201,910.671
			c-0.006,0.016-0.011,0.03-0.016,0.044"/>
	</g>
	<g id="SPLINE_214_">
		<path fill="none" stroke="#FFFFFF" stroke-width="10" stroke-miterlimit="10" d="M1097.998,916.624
			c-0.009,0.024-0.018,0.047-0.026,0.069"/>
	</g>
	<g id="SPLINE_213_">
		<path fill="none" stroke="#FFFFFF" stroke-width="10" stroke-miterlimit="10" d="M700.128,989.193
			c-0.016-0.004-0.015-0.016-0.016-0.037"/>
	</g>
	<g id="SPLINE_212_">
		<path fill="none" stroke="#FFFFFF" stroke-width="10" stroke-miterlimit="10" d="M700.112,989.156c0-0.013,0-0.028,0-0.046"/>
	</g>
	<g id="SPLINE_211_">
		<path fill="none" stroke="#FFFFFF" stroke-width="10" stroke-miterlimit="10" d="M700.112,989.11c0-0.023,0-0.051,0-0.085"/>
	</g>
	<g id="SPLINE_210_">
		<path fill="none" stroke="#FFFFFF" stroke-width="10" stroke-miterlimit="10" d="M700.112,989.025
			c-0.001,0.033-0.001,0.061,0,0.085"/>
	</g>
	<g id="SPLINE_209_">
		<path fill="none" stroke="#FFFFFF" stroke-width="10" stroke-miterlimit="10" d="M700.111,989.11c0,0.018,0,0.034,0,0.046"/>
	</g>
	<g id="SPLINE_208_">
		<path fill="none" stroke="#FFFFFF" stroke-width="10" stroke-miterlimit="10" d="M700.111,989.156c0,0.021,0,0.033-0.016,0.037"/>
	</g>
	<g id="SPLINE_207_">
		<path fill="none" stroke="#FFFFFF" stroke-width="10" stroke-miterlimit="10" d="M354.719,1015.699
			c-0.015-0.021-0.02-0.028-0.026-0.036"/>
	</g>
	<g id="SPLINE_111_">
		<path fill="none" stroke="#FFFFFF" stroke-width="10" stroke-miterlimit="10" d="M300.038,910.714
			c-0.005-0.014-0.01-0.028-0.016-0.044"/>
	</g>
	<g>
		<g>
			<path fill="#FFFFFF" d="M708.996,1253.859c-234.902,0-426.011-191.108-426.011-426.011V588.972
				c0-234.902,191.108-426.011,426.011-426.011s426.016,191.108,426.016,426.011v238.877
				C1135.011,1062.751,943.898,1253.859,708.996,1253.859z M708.996,192.961c-218.359,0-396.011,177.651-396.011,396.011v238.877
				c0,218.359,177.651,396.011,396.011,396.011s396.016-177.651,396.016-396.011V588.972
				C1105.011,370.612,927.355,192.961,708.996,192.961z"/>
		</g>
		<g>
			<path fill="#FFFFFF" d="M708.996,988.713c-160.874,0-291.758-130.884-291.758-291.763V533.2
				c0-160.874,130.884-291.758,291.758-291.758c77.93-0.005,151.201,30.347,206.309,85.454
				c55.098,55.103,85.449,128.369,85.449,206.304v163.75C1000.754,857.829,869.875,988.713,708.996,988.713z M708.996,261.443
				c-149.849,0-271.758,121.909-271.758,271.758v163.75c0,149.849,121.909,271.763,271.758,271.763
				c149.844,0,271.758-121.914,271.758-271.763V533.2c0-72.588-28.271-140.835-79.59-192.163
				C849.836,289.709,781.584,261.443,708.996,261.443z"/>
		</g>
		<g>
			<path fill="#FFFFFF" d="M708.996,813.318c-124.57,0-225.913-101.343-225.913-225.913v-56.978
				c0-124.57,101.343-225.913,225.913-225.913s225.918,101.343,225.918,225.913v56.978
				C934.914,711.975,833.566,813.318,708.996,813.318z M708.996,324.514c-113.54,0-205.913,92.373-205.913,205.913v56.978
				c0,113.54,92.373,205.913,205.913,205.913c113.545,0,205.918-92.373,205.918-205.913v-56.978
				C914.914,416.887,822.541,324.514,708.996,324.514z"/>
		</g>
		<circle fill="#FFFFFF" cx="708.998" cy="528.399" r="135.917"/>
	</g>
</g>
<g id="Layer_5">
</g>
<g id="Layer_6">
</g>
</svg>
