<?xml version="1.0" encoding="utf-8"?>
<!-- Generator: Adobe Illustrator 26.3.1, SVG Export Plug-In . SVG Version: 6.00 Build 0)  -->
<svg version="1.1" id="Layer_1" xmlns="http://www.w3.org/2000/svg" xmlns:xlink="http://www.w3.org/1999/xlink" x="0px" y="0px"
	 viewBox="0 0 545.114 545.114" enable-background="new 0 0 545.114 545.114" xml:space="preserve">
<g>
	<polygon fill="#FFFFFF" points="184.652,487.013 210.621,487.013 210.621,478.23 210.621,122.017 184.652,122.017 	"/>
	<polygon fill="#FFFFFF" points="214.621,118.017 214.621,474.23 240.589,474.23 240.589,465.446 240.589,109.234 214.621,109.234 	
		"/>
	<polygon fill="#FFFFFF" points="244.589,105.234 244.589,461.446 270.557,461.446 270.557,452.663 270.557,96.45 244.589,96.45 	
		"/>
	<polygon fill="#FFFFFF" points="274.557,92.45 274.558,92.45 274.558,448.663 300.525,448.663 300.525,439.88 300.525,83.667 
		274.557,83.667 	"/>
	<rect x="274.557" y="92.45" fill="#FFFFFF" width="0.001" height="356.213"/>
	<polygon fill="#FFFFFF" points="304.525,79.667 304.525,435.88 330.493,435.88 330.493,427.098 330.493,70.884 304.525,70.884 	"/>
	<polygon fill="#FFFFFF" points="360.462,58.101 334.493,58.101 334.493,66.884 334.493,423.098 360.462,423.098 	"/>
</g>
</svg>
