<?xml version="1.0" encoding="utf-8"?>
<!-- Generator: Adobe Illustrator 26.3.1, SVG Export Plug-In . SVG Version: 6.00 Build 0)  -->
<svg version="1.1" xmlns="http://www.w3.org/2000/svg" xmlns:xlink="http://www.w3.org/1999/xlink" x="0px" y="0px"
	 viewBox="0 0 708.661 708.661" enable-background="new 0 0 708.661 708.661" xml:space="preserve">
<g id="Layer_1">
</g>
<g id="GUIDE">
	<g>
		<path fill="#FFFFFF" d="M516.936,350.941c-1.18-78.59-7.39-167.17-66.65-223.69c-32.66-29.11-79.81-41.24-126.23-32.52
			c-42.15,7.95-76.47,32.53-94.13,67.32c-38.01,70-39.48,154.32-37.85,227.82c0.69,39.26,8.39,136.35,65.06,190.35
			c25.43,24.23,57.32,36.48,94.89,36.48c1.76,0,3.54-0.01,5.33-0.07c37.95,0.61,70.19-11.56,95.28-36.49
			C510.556,522.511,517.786,411.801,516.936,350.941z M362.367,104.187l1.347,0.099c3.571,0.263,7.119,0.772,10.619,1.524
			l7.683,1.651l6.24,2.12l6.01,2.6l5.78,3.07l5.51,3.53l5.2,3.94l8.82,8.25c21.1,22.57,25.93,55.11,12.59,84.92
			c-13.45,30.09-41.52,48.31-72.67,47.66c-54.56-1.7-79.55-42.42-79.68-79.54c-0.136-36.072,23.176-75.711,74.527-79.827
			C357.011,103.97,359.697,103.99,362.367,104.187z M269.666,171.161c-1.26,10.67-0.62,21.86,2.08,33.24
			c10.01,42.12,44.41,69.42,87.55,69.54c29.05,0.35,56.05-13.6,73.45-37.7c9.12-12.64,14.76-27.04,16.68-41.73
			c1.74,10.4,2.32,20.91,1.68,30.97c-1.16,13.25-3.94,26.6-7.79,37.46l-1.42,3.6c-1.96,5-6.56,16.68-7.25,18.04l-3.16,5.76
			l-4.69,6.83l-4.1,5.12l-7.94,8.23l-10.26,8.06l-5.59,3.4l-5.87,2.93l-6.11,2.44l-6.31,1.94l-6.47,1.43l-6.55,0.94l-8.58,0.5
			c-2.21,0.16-7.82-0.22-9.82-0.33l-11.44-1.68l-6.4-1.62l-6.23-2.13l-6.02-2.6l-5.78-3.08l-5.5-3.52l-10.09-8.22l-5.7-5.88
			l-4.19-5.01l-7.42-10.81l-6.21-11.74C259.576,243.171,258.046,204.841,269.666,171.161z M251.676,220.241
			c0.34,20.64,4.74,41.14,13.15,59.71l6.7,12.67l8.14,11.85l9.63,10.78l6.74,6.05l5.84,4.41l6.19,3.96l6.52,3.47l6.78,2.93l7.02,2.4
			l7.18,1.82l7.32,1.29l9.16,0.84l7.34,0.13l12.92-1.02l7.33-1.33l7.19-1.89l7.02-2.46l6.78-3.05l6.49-3.58l6.13-4.09l5.76-4.52
			l5.41-4.95l6.16-6.61l4.49-5.61l7.39-11.37l2.53-5.98c3.75-8.77,8.89-20.77,10.28-26.32c2.62-8.63,4.78-19.79,5.93-30.66
			c1.13-12.53,0.45-25.6-1.91-38.5c10.75,36.27,11.23,76.48,1.12,115.38l-1.96,6.63c-2.57,8.78-6.87,23.47-9.18,28.31l-3.05,6.27
			c-3.68,6.74-8.4,13.95-12.25,18.74l-5.33,6.18l-8.82,8.39l-9.86,7.12l-10.8,5.67l-11.58,4.08l-12.1,2.51l-14.62,1.03
			c-2.58-0.06-7.93-0.23-10.26-0.38l-12.28-1.67l-11.91-3.16l-11.32-4.66l-10.51-6.15l-9.57-7.53l-9.93-10.28
			c-5.66-6.76-11.35-15.44-15.59-23.71l-3.58-7.49c-10.88-24.6-16.54-54.22-16.37-85.64
			C249.636,239.991,250.356,229.961,251.676,220.241z M247.196,190.091c-5.08,18.62-7.82,38.93-8.04,60.08
			c-0.23,36.36,7.04,70.18,21.05,97.87c4.52,8.72,10.17,17.48,15.6,24.14l5.84,6.66l4.77,4.74l10.43,8.58l11.59,7.14l12.51,5.52
			l13.12,3.77l13.34,2.1c7.64,0.74,17.39,0.74,24.98,0.01l6.77-0.89l13.37-3.06l12.85-4.87l6.11-3.12l11.43-7.45l10.2-8.89
			l10.27-11.69c3.23-4.32,8.02-11.37,10.95-16.74l5.63-11.75l4.49-13.32c2.81-9.21,6.65-21.82,8-28.65
			c2.71-12.52,4.74-27.91,5.56-42.36c0.04-2.19,0.07-4.36,0.07-6.53c0.27,2.71,0.51,5.44,0.72,8.22
			c2.59,34.22-0.56,70.48-9.11,104.87c-3.15,12.98-7.03,27.63-12.02,38c-4.43,9.42-9.86,18.73-14.83,25.43l-9.38,11.26l-5.21,5.11
			l-5.67,4.81c-1.93,1.5-5.93,4.32-7.89,5.56l-4.28,2.53c-2.12,1.19-6.52,3.36-8.76,4.3c-3.96,1.68-9.69,3.63-13.79,4.7l-7.23,1.61
			l-7.33,1.11l-14.9,0.85l-14.9-0.79l-14.63-2.47l-7.13-1.95l-7.09-2.46c-10.34-4.05-20.66-10.32-28.94-17.6l-5.33-4.97l-4.99-5.37
			l-8.98-11.66c-22.81-34.51-33.83-79.95-33.67-138.86C233.416,247.281,238.186,216.301,247.196,190.091z M259.376,430.521
			l9.96,12.41l5.59,5.76l5.89,5.27c9.45,7.88,21.03,14.53,32.72,18.78l7.68,2.47l13.17,2.97l7.99,1.09l16.03,0.85l16.11-0.94
			l8.01-1.21l7.79-1.71c4.63-1.19,10.82-3.28,15.51-5.25l4.93-2.28l9.39-5.25c4.17-2.64,9.4-6.52,13.09-9.75l5.88-5.5l5.44-5.86
			l9.65-12.58c3.49-5.27,8.65-13.94,11.79-20.62l3.47-7.85l5.91-17.15c14.12-49.46,18.15-99.98,11.64-146.08
			c-0.07-0.48-0.13-0.94-0.2-1.41c2.43,12.8,4.26,26.62,5.56,41.59c4.12,51.64-0.11,104.54-12.23,152.9
			c-5.97,22.17-14.37,41.38-24.89,57.02l-5.1,7.08c-4.49,5.82-10.3,12.07-15.47,16.61l-4.35,3.65l-9.3,6.55l-9.98,5.47l-10.67,4.37
			c-15.58,5.46-34.31,7.56-54.11,6.14c-15.19-1.22-29.64-4.71-41.79-10.11c-2.61-1.14-7.72-3.74-10.09-5.1l-9.66-6.26
			c-8.72-6.35-17.34-14.85-24.21-23.87l-5-6.99l-4.6-7.34c-29.33-51.41-32.93-113.34-32.8-161.51c0.4-30.21,3.1-58.02,8.07-82.92
			c-2.26,15.37-3.52,31.86-3.83,49.54C222.216,346.041,234.296,394.081,259.376,430.521z M506.206,373.291
			c-4.05,81.35-14,171.8-81.16,215.61c-39.98,23.31-95.79,23.41-138.7,0.39c-85.32-52.78-84.61-173.75-84.15-253.64
			c1.99-47.18,7.18-98.92,23.97-141.74c-14.62,41.92-17.67,86.37-18.42,122.88c-0.12,51.79,4.02,118.15,37.4,172.05
			c9.99,15.56,22.46,28.68,36.13,38.02l10.57,6.45c16.18,8.8,35.8,14.08,56.72,15.3c18.93,1.02,36.98-0.98,52.37-5.91l5.93-2.08
			l11.47-5.1l10.81-6.33l9.95-7.4c10.96-9.12,21.2-21.38,29.62-35.47c8.63-14.45,16.05-32.61,21.48-52.56
			c12.41-49.48,16.74-103.54,12.53-156.34c-0.12-1.36-0.24-2.7-0.36-4.04C506.566,308.761,506.366,343.911,506.206,373.291z"/>
	</g>
</g>
</svg>
