<?xml version="1.0" encoding="utf-8"?>
<!-- Generator: Adobe Illustrator 26.3.1, SVG Export Plug-In . SVG Version: 6.00 Build 0)  -->
<svg version="1.1" xmlns="http://www.w3.org/2000/svg" xmlns:xlink="http://www.w3.org/1999/xlink" x="0px" y="0px"
	 viewBox="0 0 708.661 708.661" enable-background="new 0 0 708.661 708.661" xml:space="preserve">
<g id="Layer_3">
</g>
<g id="Layer_1">
</g>
<g id="GUIDE">
	<g>
		<rect x="90.485" y="463.064" fill="#FFFFFF" width="32.982" height="32.982"/>
		<rect x="588.286" y="466.158" fill="#FFFFFF" width="26.796" height="26.796"/>
		<rect x="417.199" y="88.939" fill="#FFFFFF" width="39.165" height="39.165"/>
		<rect x="293.522" y="88.939" fill="#FFFFFF" width="39.165" height="39.165"/>
		<rect x="169.846" y="253.843" fill="#FFFFFF" width="39.165" height="39.165"/>
		<rect x="128.618" y="336.295" fill="#FFFFFF" width="39.165" height="39.165"/>
		<rect x="211.07" y="459.972" fill="#FFFFFF" width="39.165" height="39.165"/>
		<rect x="417.199" y="377.52" fill="#FFFFFF" width="39.165" height="39.165"/>
		<rect x="540.876" y="418.747" fill="#FFFFFF" width="39.165" height="39.165"/>
		<rect x="211.07" y="212.619" fill="#FFFFFF" width="39.165" height="39.165"/>
		<rect x="293.522" y="212.619" fill="#FFFFFF" width="39.165" height="39.165"/>
		<rect x="87.393" y="212.616" fill="#FFFFFF" width="39.165" height="39.165"/>
		<rect x="375.974" y="130.167" fill="#FFFFFF" width="39.165" height="39.165"/>
		<rect x="458.427" y="212.619" fill="#FFFFFF" width="39.165" height="39.165"/>
		<rect x="375.974" y="171.391" fill="#FFFFFF" width="39.165" height="39.165"/>
		<rect x="169.846" y="542.424" fill="#FFFFFF" width="39.165" height="39.165"/>
		<rect x="375.974" y="253.843" fill="#FFFFFF" width="39.165" height="39.165"/>
		<rect x="293.522" y="171.391" fill="#FFFFFF" width="39.165" height="39.165"/>
		<rect x="417.199" y="253.843" fill="#FFFFFF" width="39.165" height="39.165"/>
		<rect x="458.427" y="459.972" fill="#FFFFFF" width="39.165" height="39.165"/>
		<rect x="211.07" y="130.167" fill="#FFFFFF" width="39.165" height="39.165"/>
		<rect x="334.747" y="336.295" fill="#FFFFFF" width="39.165" height="39.165"/>
		<rect x="458.427" y="130.167" fill="#FFFFFF" width="39.165" height="39.165"/>
		<rect x="458.427" y="253.843" fill="#FFFFFF" width="39.165" height="39.165"/>
		<rect x="417.199" y="501.197" fill="#FFFFFF" width="39.165" height="39.165"/>
		<rect x="128.618" y="501.197" fill="#FFFFFF" width="39.165" height="39.165"/>
		<rect x="128.618" y="377.52" fill="#FFFFFF" width="39.165" height="39.165"/>
		<rect x="293.522" y="295.068" fill="#FFFFFF" width="39.165" height="39.165"/>
		<rect x="334.747" y="542.424" fill="#FFFFFF" width="39.165" height="39.165"/>
		<rect x="582.103" y="418.747" fill="#FFFFFF" width="39.165" height="39.165"/>
		<rect x="375.974" y="295.068" fill="#FFFFFF" width="39.165" height="39.165"/>
		<rect x="420.29" y="133.255" fill="#FFFFFF" width="32.982" height="32.982"/>
		<rect x="420.29" y="174.483" fill="#FFFFFF" width="32.982" height="32.982"/>
		<rect x="255.389" y="174.483" fill="#FFFFFF" width="32.982" height="32.982"/>
		<rect x="255.389" y="545.516" fill="#FFFFFF" width="32.982" height="32.982"/>
		<rect x="172.937" y="463.064" fill="#FFFFFF" width="32.982" height="32.982"/>
		<rect x="379.066" y="463.064" fill="#FFFFFF" width="32.982" height="32.982"/>
		<rect x="502.743" y="463.064" fill="#FFFFFF" width="32.982" height="32.982"/>
		<rect x="296.614" y="545.516" fill="#FFFFFF" width="32.982" height="32.982"/>
		<rect x="172.937" y="339.387" fill="#FFFFFF" width="32.982" height="32.982"/>
		<rect x="379.066" y="421.836" fill="#FFFFFF" width="32.982" height="32.982"/>
		<rect x="255.389" y="339.387" fill="#FFFFFF" width="32.982" height="32.982"/>
		<rect x="502.743" y="421.836" fill="#FFFFFF" width="32.982" height="32.982"/>
		<rect x="379.066" y="380.611" fill="#FFFFFF" width="32.982" height="32.982"/>
		<rect x="337.841" y="504.288" fill="#FFFFFF" width="32.982" height="32.982"/>
		<rect x="420.29" y="339.387" fill="#FFFFFF" width="32.982" height="32.982"/>
		<rect x="420.29" y="421.836" fill="#FFFFFF" width="32.982" height="32.982"/>
		<rect x="502.743" y="298.159" fill="#FFFFFF" width="32.982" height="32.982"/>
		<rect x="337.841" y="256.935" fill="#FFFFFF" width="32.982" height="32.982"/>
		<rect x="172.937" y="298.159" fill="#FFFFFF" width="32.982" height="32.982"/>
		<rect x="255.389" y="256.935" fill="#FFFFFF" width="32.982" height="32.982"/>
		<rect x="420.29" y="298.159" fill="#FFFFFF" width="32.982" height="32.982"/>
		<rect x="255.389" y="298.159" fill="#FFFFFF" width="32.982" height="32.982"/>
		<rect x="379.066" y="215.707" fill="#FFFFFF" width="32.982" height="32.982"/>
		<rect x="131.712" y="421.836" fill="#FFFFFF" width="32.982" height="32.982"/>
		<rect x="337.841" y="586.743" fill="#FFFFFF" width="32.979" height="32.979"/>
		<rect x="214.162" y="174.483" fill="#FFFFFF" width="32.982" height="32.982"/>
		<rect x="172.937" y="174.483" fill="#FFFFFF" width="32.982" height="32.982"/>
		<rect x="423.385" y="589.834" fill="#FFFFFF" width="26.796" height="26.796"/>
		<rect x="217.256" y="548.607" fill="#FFFFFF" width="26.796" height="26.796"/>
		<rect x="382.157" y="548.607" fill="#FFFFFF" width="26.796" height="26.796"/>
		<rect x="464.609" y="548.607" fill="#FFFFFF" width="26.796" height="26.796"/>
		<rect x="93.576" y="383.706" fill="#FFFFFF" width="26.796" height="26.796"/>
		<rect x="464.609" y="507.382" fill="#FFFFFF" width="26.796" height="26.796"/>
		<rect x="340.932" y="383.706" fill="#FFFFFF" width="26.796" height="26.796"/>
		<rect x="382.157" y="507.382" fill="#FFFFFF" width="26.796" height="26.796"/>
		<rect x="340.932" y="136.349" fill="#FFFFFF" width="26.796" height="26.796"/>
		<rect x="217.256" y="507.382" fill="#FFFFFF" width="26.796" height="26.796"/>
		<rect x="588.286" y="301.253" fill="#FFFFFF" width="26.796" height="26.796"/>
		<rect x="547.061" y="218.801" fill="#FFFFFF" width="26.796" height="26.796"/>
		<rect x="93.576" y="342.478" fill="#FFFFFF" width="26.796" height="26.796"/>
		<rect x="217.256" y="260.029" fill="#FFFFFF" width="26.796" height="26.796"/>
		<rect x="547.061" y="177.577" fill="#FFFFFF" width="26.796" height="26.796"/>
		<rect x="505.837" y="383.706" fill="#FFFFFF" width="26.796" height="26.796"/>
		<rect x="505.837" y="218.801" fill="#FFFFFF" width="26.796" height="26.796"/>
		<rect x="176.028" y="507.382" fill="#FFFFFF" width="26.796" height="26.796"/>
		<rect x="217.256" y="383.706" fill="#FFFFFF" width="26.796" height="26.796"/>
		<rect x="340.932" y="218.801" fill="#FFFFFF" width="26.796" height="26.796"/>
		<rect x="547.061" y="260.029" fill="#FFFFFF" width="26.796" height="26.796"/>
		<rect x="588.286" y="218.801" fill="#FFFFFF" width="26.796" height="26.796"/>
		<rect x="423.385" y="466.158" fill="#FFFFFF" width="26.796" height="26.796"/>
		<rect x="299.705" y="383.706" fill="#FFFFFF" width="26.796" height="26.796"/>
		<rect x="464.609" y="424.93" fill="#FFFFFF" width="26.796" height="26.796"/>
		<rect x="176.028" y="136.349" fill="#FFFFFF" width="26.796" height="26.796"/>
		<rect x="299.705" y="466.158" fill="#FFFFFF" width="26.796" height="26.796"/>
		<rect x="217.256" y="342.478" fill="#FFFFFF" width="26.796" height="26.796"/>
		<rect x="344.024" y="98.216" fill="#FFFFFF" width="20.614" height="20.614"/>
		<rect x="261.572" y="98.216" fill="#FFFFFF" width="20.614" height="20.614"/>
		<rect x="426.476" y="221.893" fill="#FFFFFF" width="20.614" height="20.614"/>
		<rect x="385.249" y="592.926" fill="#FFFFFF" width="20.614" height="20.614"/>
		<rect x="261.572" y="510.474" fill="#FFFFFF" width="20.614" height="20.614"/>
		<rect x="591.38" y="263.117" fill="#FFFFFF" width="20.614" height="20.614"/>
		<rect x="96.67" y="304.345" fill="#FFFFFF" width="20.614" height="20.614"/>
		<rect x="591.38" y="345.57" fill="#FFFFFF" width="20.614" height="20.614"/>
		<rect x="550.153" y="345.57" fill="#FFFFFF" width="20.614" height="20.614"/>
		<rect x="179.12" y="428.022" fill="#FFFFFF" width="20.614" height="20.614"/>
		<rect x="96.67" y="263.117" fill="#FFFFFF" width="20.614" height="20.614"/>
		<rect x="550.153" y="386.797" fill="#FFFFFF" width="20.614" height="20.614"/>
		<rect x="220.347" y="304.345" fill="#FFFFFF" width="20.614" height="20.614"/>
		<rect x="96.67" y="428.022" fill="#FFFFFF" width="20.614" height="20.614"/>
		<rect x="344.024" y="469.246" fill="#FFFFFF" width="20.614" height="20.614"/>
		<rect x="261.572" y="221.893" fill="#FFFFFF" width="20.614" height="20.614"/>
		<rect x="385.249" y="345.57" fill="#FFFFFF" width="20.614" height="20.614"/>
		<rect x="264.663" y="142.535" fill="#FFFFFF" width="14.428" height="14.428"/>
		<rect x="264.663" y="431.116" fill="#FFFFFF" width="14.428" height="14.428"/>
		<rect x="305.891" y="596.017" fill="#FFFFFF" width="14.428" height="14.428"/>
		<rect x="305.891" y="266.212" fill="#FFFFFF" width="14.428" height="14.428"/>
		<rect x="264.663" y="389.888" fill="#FFFFFF" width="14.428" height="14.428"/>
		<rect x="512.019" y="554.792" fill="#FFFFFF" width="14.428" height="14.428"/>
		<rect x="305.891" y="513.568" fill="#FFFFFF" width="14.428" height="14.428"/>
		<rect x="470.795" y="348.664" fill="#FFFFFF" width="14.428" height="14.428"/>
		<rect x="470.795" y="307.439" fill="#FFFFFF" width="14.428" height="14.428"/>
		<rect x="347.115" y="307.439" fill="#FFFFFF" width="14.428" height="14.428"/>
		<rect x="553.244" y="307.439" fill="#FFFFFF" width="14.428" height="14.428"/>
		<rect x="512.019" y="183.759" fill="#FFFFFF" width="14.428" height="14.428"/>
		<rect x="594.471" y="389.888" fill="#FFFFFF" width="14.428" height="14.428"/>
		<rect x="140.986" y="183.759" fill="#FFFFFF" width="14.428" height="14.428"/>
		<rect x="140.986" y="224.987" fill="#FFFFFF" width="14.428" height="14.428"/>
		<rect x="512.019" y="513.568" fill="#FFFFFF" width="14.428" height="14.428"/>
		<rect x="305.891" y="348.664" fill="#FFFFFF" width="14.428" height="14.428"/>
		<rect x="470.795" y="389.888" fill="#FFFFFF" width="14.428" height="14.428"/>
		<rect x="512.019" y="348.664" fill="#FFFFFF" width="14.428" height="14.428"/>
		<rect x="140.986" y="307.439" fill="#FFFFFF" width="14.428" height="14.428"/>
		<rect x="347.115" y="431.116" fill="#FFFFFF" width="14.428" height="14.428"/>
		<rect x="182.214" y="389.888" fill="#FFFFFF" width="14.428" height="14.428"/>
		<rect x="391.434" y="104.399" fill="#FFFFFF" width="8.245" height="8.245"/>
		<rect x="515.111" y="145.626" fill="#FFFFFF" width="8.245" height="8.245"/>
		<rect x="308.982" y="145.626" fill="#FFFFFF" width="8.245" height="8.245"/>
		<rect x="308.982" y="434.207" fill="#FFFFFF" width="8.245" height="8.245"/>
		<rect x="473.886" y="186.851" fill="#FFFFFF" width="8.245" height="8.245"/>
		<rect x="350.207" y="186.851" fill="#FFFFFF" width="8.245" height="8.245"/>
		<rect x="144.078" y="269.303" fill="#FFFFFF" width="8.245" height="8.245"/>
		<rect x="432.659" y="557.884" fill="#FFFFFF" width="8.245" height="8.245"/>
		<rect x="185.305" y="228.076" fill="#FFFFFF" width="8.245" height="8.245"/>
		<rect x="226.53" y="434.207" fill="#FFFFFF" width="8.245" height="8.245"/>
		<rect x="515.111" y="269.303" fill="#FFFFFF" width="8.245" height="8.245"/>
		<rect x="556.338" y="475.432" fill="#FFFFFF" width="8.245" height="8.245"/>
		<rect x="267.757" y="599.109" fill="#FFFFFF" width="8.245" height="8.245"/>
		<rect x="267.757" y="475.432" fill="#FFFFFF" width="8.245" height="8.245"/>
		<rect x="144.078" y="475.432" fill="#FFFFFF" width="8.245" height="8.245"/>
	</g>
</g>
</svg>
