<?xml version="1.0" encoding="utf-8"?>
<!-- Generator: Adobe Illustrator 26.3.1, SVG Export Plug-In . SVG Version: 6.00 Build 0)  -->
<svg version="1.1" id="Layer_1" xmlns="http://www.w3.org/2000/svg" xmlns:xlink="http://www.w3.org/1999/xlink" x="0px" y="0px"
	 viewBox="0 0 708.661 708.662" enable-background="new 0 0 708.661 708.662" xml:space="preserve">
<polygon fill="#FFFFFF" points="513.231,589.781 514.961,589.781 515.121,589.781 515.251,589.781 515.371,589.781 515.371,589.631 
	515.501,589.631 515.641,589.631 515.771,589.631 515.891,589.501 516.051,589.501 516.161,589.501 516.331,589.371 
	516.421,589.241 516.571,589.241 516.571,589.101 516.701,589.101 516.701,588.971 516.851,588.971 516.981,588.971 
	516.981,588.851 517.091,588.721 517.221,588.581 517.221,588.441 517.371,588.311 517.371,588.181 517.501,588.041 
	517.501,587.911 517.501,587.791 517.631,587.791 517.631,587.651 517.631,587.521 517.631,587.371 517.631,587.261 
	517.631,587.131 517.771,586.981 517.771,586.851 517.631,586.721 517.631,586.591 517.631,586.461 517.631,586.311 
	517.631,586.181 517.501,586.071 517.501,585.921 517.501,585.781 517.371,585.651 517.371,585.531 517.221,585.531 
	517.221,585.401 517.221,585.251 517.091,585.251 517.091,585.121 516.981,584.991 516.851,584.861 516.701,584.861 
	516.701,584.721 516.571,584.721 516.571,584.591 516.421,584.591 516.331,584.471 516.161,584.471 516.051,584.331 
	515.891,584.331 515.771,584.331 515.641,584.201 515.501,584.201 515.371,584.201 515.251,584.201 515.121,584.201 
	514.961,584.201 512.191,402.331 512.191,311.671 510.061,220.871 514.601,220.871 514.601,218.601 514.161,218.601 
	514.321,214.471 514.711,210.231 515.121,206.121 515.641,202.011 516.421,197.881 517.371,193.781 518.301,189.781 
	519.471,185.681 520.801,181.831 522.141,177.851 523.731,174.001 525.461,170.141 527.341,166.411 529.331,162.701 
	531.411,159.131 533.551,155.681 535.951,152.071 538.331,148.761 540.871,145.441 543.651,142.281 546.421,139.221 
	549.371,136.151 552.301,133.231 555.471,130.571 558.661,127.781 561.951,125.281 565.281,122.751 568.751,120.481 
	572.331,118.231 575.911,116.241 579.621,114.271 583.351,112.401 587.181,110.811 591.031,109.211 594.891,107.741 
	598.881,106.431 602.981,105.361 606.971,104.301 611.071,103.361 615.221,102.711 619.321,102.171 623.421,101.641 
	627.531,101.381 631.721,101.241 635.961,101.241 636.541,101.271 636.541,481.971 624.631,480.521 624.631,492.191 
	636.541,493.651 636.541,495.511 623.701,493.801 617.871,493.131 617.871,507.331 636.541,509.231 636.541,511.121 
	616.951,509.201 608.821,508.251 608.821,524.721 636.541,527.931 636.541,529.791 597.151,525.131 597.151,547.971 
	636.541,551.731 636.541,553.451 582.151,548.211 582.151,574.511 636.541,578.471 636.541,580.341 561.591,574.921 
	561.591,593.361 636.541,593.361 636.541,607.421 571.921,607.421 569.521,607.421 519.351,607.421 519.351,598.001 
	518.301,598.001 518.431,597.871 518.431,597.741 518.571,597.741 518.701,597.611 518.701,597.331 518.701,597.201 
	518.831,597.201 518.981,597.091 518.981,596.811 519.111,596.681 519.111,596.551 519.111,596.421 519.111,596.261 
	519.221,596.151 519.221,596.021 519.221,595.881 519.221,595.741 519.351,595.611 519.351,595.491 519.351,595.351 
	519.351,595.221 519.221,595.071 519.221,594.961 519.221,594.831 519.111,594.831 519.111,594.681 519.111,594.531 
	518.981,594.531 518.981,594.441 518.831,594.291 518.701,594.141 518.571,594.011 518.431,593.881 518.301,593.771 
	518.151,593.621 518.021,593.621 517.901,593.491 517.771,593.491 517.631,593.361 517.501,593.361 517.501,593.231 
	517.371,593.231 517.221,593.231 517.091,593.101 516.981,593.101 516.701,593.101 516.571,592.941 516.331,592.821 
	516.051,592.821 515.771,592.821 515.501,592.691 515.251,592.691 514.961,592.691 514.711,592.691 514.441,592.561 
	514.061,592.561 513.771,592.561 513.511,592.561 513.121,592.561 513.121,592.421 512.991,592.421 512.991,592.291 
	512.841,592.291 512.711,592.171 512.711,592.041 512.581,592.041 512.581,591.901 512.471,591.751 512.471,591.641 
	512.471,591.511 512.471,591.361 512.471,591.231 512.341,591.231 512.341,591.121 512.471,590.971 512.471,590.841 
	512.471,590.691 512.471,590.561 512.581,590.561 512.581,590.451 512.581,590.301 512.711,590.171 512.711,590.041 
	512.841,590.041 512.991,590.041 512.991,589.911 513.121,589.781 "/>
<path fill="#FFFFFF" d="M469.861,586.461l0.13-0.15v-0.39l0.11-0.14v-0.12l0.13-0.14l0.15-0.12v-0.16l0.13-0.12v-0.13h0.13v-0.13
	h0.11l0.17-0.14v-0.15h0.24v-0.1h0.28v-0.14h0.27l0.13-0.13h0.8l2.78-181.87l2.25-90.66l-0.13-90.8h-4.52v-2.27h0.27l-0.13-4.12
	l-0.28-4.25l-0.52-4.11l-0.52-4.11l-0.81-4.12l-0.8-4.11l-1.06-4l-1.04-4.1l-1.36-3.85l-1.45-3.98l-1.57-3.85l-1.74-3.86l-1.76-3.73
	l-1.96-3.72l-2.1-3.56l-2.27-3.46l-2.28-3.6l-2.53-3.32l-2.49-3.32l-2.79-3.16l-2.65-3.05l-2.93-3.07l-3.06-2.92l-3.06-2.66
	l-3.17-2.79l-3.31-2.5l-3.33-2.54l-3.59-2.26l-3.46-2.24l-3.73-2l-3.55-1.98l-3.86-1.86l-3.74-1.59l-3.82-1.6l-3.99-1.46l-3.97-1.32
	l-3.99-1.07l-4.13-1.06l-3.96-0.94l-4.13-0.65l-4.12-0.54l-4.25-0.52l-4.12-0.27l-3.97-0.14h-4.47l-4.02,0.14l-4.25,0.27l-4.12,0.52
	l-4.12,0.54l-4.12,0.65l-4.1,0.94l-3.99,1.06l-3.97,1.07l-4,1.32l-3.99,1.46l-3.84,1.6l-3.84,1.59l-3.71,1.86l-3.71,1.98l-3.6,2
	l-3.45,2.24l-3.58,2.26l-3.32,2.54l-3.32,2.5l-3.19,2.79l-3.06,2.66l-3.04,2.92l-2.92,3.07l-2.8,3.05l-2.65,3.16l-2.65,3.32
	l-2.4,3.32l-2.39,3.6l-2.13,3.46l-2.12,3.56l-1.98,3.72l-1.86,3.73l-1.72,3.86l-1.45,3.85l-1.48,3.98l-1.32,3.85l-1.19,4.1l-0.95,4
	l-0.94,4.11l-0.63,4.12l-0.67,4.11l-0.42,4.11l-0.25,4.25l-0.15,4.12h0.28v2.27h-4.51l2.12,90.8v90.66l2.78,181.87h0.82v0.13h0.26
	l0.13,0.14h0.14l0.1,0.1h0.16l0.12,0.15h0.14v0.14l0.13,0.13l0.13,0.13v0.12h0.15v0.16l0.11,0.12v0.14h0.14v0.26h0.13v0.28
	l0.14,0.11v1.21l-0.14,0.13v0.24l-0.13,0.15v0.14l-0.14,0.13v0.13l-0.11,0.14l-0.15,0.14l-0.13,0.13v0.13h-0.13v0.12h-0.14
	l-0.12,0.14h-0.16l-0.1,0.13l-0.14,0.15h-0.28l-0.11,0.11h-0.28l-0.13,0.15h-2.28v0.13h-0.1v0.13h-0.14v0.13h-0.13v0.13h-0.15v0.26
	h-0.11v1.08l0.11,0.11v0.29h0.15v0.12h0.13v0.14h0.14l0.1,0.12l0.16,0.14h1.19l0.25,0.13h0.81l0.28,0.15h0.53l0.26,0.1l0.26,0.16
	h0.26l0.15,0.13h0.25l0.13,0.13l0.14,0.13h0.13l0.13,0.13h0.13l0.15,0.15h0.13v0.11h0.13v0.13h0.11v0.13h0.15v0.15h0.13v0.24h0.13
	v0.15h0.13v0.39h0.15v0.81l-0.15,0.14v0.4l-0.13,0.13v0.13l-0.13,0.13v0.28l-0.13,0.11l-0.15,0.13v0.28l-0.11,0.13l-0.26,0.26h1.19
	v9.42h228.87v-9.42h1.04v-0.13l-0.14-0.13l-0.13-0.13l-0.12-0.28v-0.13h-0.13v-0.39l-0.14-0.13v-0.13l-0.13-0.13v-0.26l-0.12-0.14
	v-0.95l0.12-0.11v-0.28h0.13v-0.15h0.14v-0.24h0.13v-0.15l0.12-0.13h0.13v-0.13l0.14-0.11l0.13-0.15h0.15l0.1-0.13h0.16l0.15-0.13
	h0.13l0.11-0.13h0.28l0.37-0.13l0.41-0.16l0.28-0.1h0.4l0.39-0.15h0.28l0.37-0.13h1.49l0.13-0.14l0.11-0.12h0.16v-0.14l0.12-0.12
	v-0.14h0.13v-0.41h0.11v-0.65l-0.11-0.15v-0.24h-0.13v-0.28h-0.12v-0.13h-0.16l-0.11-0.13v-0.13h-2.27l-0.11-0.15h-0.41v-0.11h-0.27
	l-0.17-0.15h-0.11v-0.13h-0.24v-0.14l-0.17-0.12h-0.11l-0.13-0.13v-0.13h-0.13v-0.14l-0.15-0.14v-0.13h-0.13v-0.27h-0.11v-0.52
	h-0.13V586.461z M397.361,592.041h-86.67v-7.71h5.83v-0.67h2.91v-0.39h2.8v-1.47h2.92v-1.98h2.91v-2.93h2.93v-4.77h2.91v-13.67h2.8
	v-23.11h2.9v-37.44h2.95v-44.06h2.76v-43.96h2.93v-37.03h2.92v-29.2h2.93v-15.8h2.93v-5.99h2.78v5.99h2.93v15.8h2.9v29.2h2.93v37.03
	h2.91v43.96h2.8v44.06h2.91v37.44h2.9v23.11h2.93v13.67h2.81v8.61h2.9v2.93h2.93v1.46h2.91v0.54h2.8V592.041z"/>
<path fill="#FFFFFF" d="M198.501,220.861h-4.52v-2.26h0.26l-0.13-4.12l-0.25-4.26l-0.4-4.1l-0.67-4.11l-0.65-4.12l-0.93-4.11
	l-1.07-4l-1.06-4.1l-1.34-3.85l-1.45-3.98l-1.61-3.85l-1.71-3.86l-1.72-3.72l-2-3.73l-2.12-3.56l-2.28-3.46l-2.24-3.6l-2.53-3.32
	l-2.52-3.32l-2.67-3.16l-2.77-3.05l-2.92-3.07l-3.03-2.91l-3.06-2.67l-3.21-2.79l-3.3-2.5l-3.32-2.53l-3.58-2.26l-3.45-2.25
	l-3.6-2.01l-3.71-1.97l-3.88-1.87l-3.69-1.58l-3.84-1.6l-3.99-1.46l-4-1.33l-3.96-1.06l-3.99-1.06l-4.11-0.93l-4.12-0.66l-4.12-0.54
	l-4.25-0.53l-4.1-0.26l-3.97-0.14h-4.82v506.17h116.98v-9.41h1.19l-0.39-0.39l-0.15-0.26v-0.15h-0.11v-0.11l-0.15-0.28v-0.26
	l-0.13-0.13v-0.27l-0.15-0.13v-0.93l0.15-0.13v-0.28h0.13v-0.13l0.15-0.11v-0.15h0.11v-0.15l0.15-0.11h0.13v-0.15l0.13-0.11
	l0.13-0.15h0.13l0.14-0.13h0.13l0.12-0.13h0.14l0.13-0.13h0.26l0.41-0.13l0.41-0.16l0.26-0.1h0.39l0.41-0.15h0.26l0.4-0.13h1.45
	l0.13-0.14l0.15-0.12h0.13v-0.14l0.11-0.12v-0.16h0.17v-0.39h0.11v-0.65l-0.11-0.13v-0.26h-0.17v-0.28h-0.11v-0.13h-0.13v-0.13
	h-0.15v-0.13h-2.24l-0.17-0.15h-0.37v-0.11h-0.26l-0.13-0.15l-0.13-0.13h-0.28v-0.14l-0.13-0.12h-0.13l-0.15-0.13v-0.13h-0.13v-0.16
	h-0.11v-0.25h-0.15v-0.27h-0.13v-0.25l-0.14-0.14v-1.45h0.14v-0.28l0.13-0.14v-0.12l0.15-0.14v-0.12l0.11-0.16l0.13-0.1v-0.15h0.15
	v-0.13h0.13l0.13-0.14v-0.13h0.28l0.13-0.12h0.13v-0.14h0.26l0.13-0.13h0.8l2.76-181.87l0.95-38.09l1.33-52.57L198.501,220.861z
	 M150.961,224.841h20.05v21.51h-20.05V224.841z M143.411,313.381v20.46h-21.37v-20.46H143.411z M107.961,194.041h20.05v16.99h-20.05
	V194.041z M81.151,258.561h38.51v29.47h-38.51V258.561z M99.591,366.731h39.98v33.61h-39.98V366.731z M80.221,444.421h19.11v19.63
	h-19.11V444.421z M125.361,565.091h-32.52v-33.59h32.52V565.091z M133.841,460.471v-13.02h13.95v13.02H133.841z M152.311,522.201
	h-13.8v-9.81h13.8V522.201z M165.451,422.361h-9.04v-16.45h9.04V422.361z M164.371,363.691v-9.7h11.56v9.7H164.371z"/>
</svg>
