<?xml version="1.0" encoding="utf-8"?>
<!-- Generator: Adobe Illustrator 26.3.1, SVG Export Plug-In . SVG Version: 6.00 Build 0)  -->
<svg version="1.1" xmlns="http://www.w3.org/2000/svg" xmlns:xlink="http://www.w3.org/1999/xlink" x="0px" y="0px"
	 viewBox="0 0 708.661 708.661" enable-background="new 0 0 708.661 708.661" xml:space="preserve">
<g id="Layer_1">
	
		<line fill="none" stroke="#000000" stroke-width="10.0015" stroke-linecap="square" stroke-miterlimit="10" x1="709.68" y1="697.388" x2="709.68" y2="697.388"/>
	<g id="CIRCLE_754_">
		<path fill="#FFFFFF" d="M189.231,355.217c0-91.286,74.002-165.288,165.288-165.288s165.288,74.002,165.288,165.288
			s-74.002,165.288-165.288,165.288S189.231,446.503,189.231,355.217L189.231,355.217z"/>
	</g>
	<path fill="#FFFFFF" d="M607.461,355.215c-0.01,25.742-3.186,51.294-8.146,76.585c-0.511,2.585-1.032,5.16-1.583,7.746
		c-0.892,4.269-1.844,8.537-2.826,12.796c-1.303,5.611-2.675,11.213-4.108,16.794c-5.601,21.944-12.065,43.668-18.447,65.122
		c-0.912,3.056-1.824,6.122-2.725,9.189c-0.982,3.287-1.954,6.593-2.926,9.89c-1.112,3.778-2.215,7.555-3.297,11.343
		c-1.503,5.201-2.976,10.421-4.419,15.652c-5.702,20.632-10.852,41.454-14.67,62.396c-0.752,4.118-1.453,8.237-2.094,12.365
		c-0.521,3.377-1.012,6.764-1.453,10.151c-0.661,5.05-1.233,10.1-1.693,15.161c-0.852,9.409-1.353,18.828-1.403,28.257h-10.02
		c0.05-9.83,0.571-19.64,1.463-29.41c0.411-4.439,0.902-8.868,1.453-13.287c0.431-3.387,0.902-6.774,1.403-10.151
		c0.741-4.9,1.553-9.8,2.445-14.68c3.898-21.433,9.169-42.677,14.98-63.699c0.872-3.176,1.764-6.353,2.655-9.519
		c1.082-3.798,2.174-7.585,3.277-11.363c1.533-5.271,3.076-10.521,4.629-15.752c0.932-3.146,1.864-6.283,2.796-9.409
		c6.323-21.253,12.726-42.787,18.277-64.511c0.661-2.565,1.303-5.14,1.934-7.716c1.092-4.429,2.134-8.858,3.126-13.297
		c1.232-5.401,2.375-10.822,3.437-16.253c4.83-24.66,7.906-49.49,7.916-74.401c0-2.766,2.245-5.01,5.01-5.01
		c1.383,0,2.635,0.561,3.537,1.473C606.9,352.58,607.461,353.832,607.461,355.215z"/>
	<path fill="#FFFFFF" d="M673.575,355.055v0.321c-0.01,15.622-0.321,31.303-0.852,46.995c-0.11,3.447-0.241,6.894-0.371,10.341
		c-0.14,3.407-0.281,6.804-0.431,10.211c-0.26,5.832-0.551,11.664-0.852,17.485c-1.403,26.614-3.247,53.118-5.13,79.271
		c-0.301,4.098-0.591,8.197-0.892,12.275c-0.02,0.391-0.05,0.772-0.08,1.152c-0.22,3.016-0.441,6.032-0.661,9.058
		c-0.361,5.11-0.731,10.231-1.092,15.371c-1.814,25.532-3.537,51.354-4.8,77.237c-0.22,4.539-0.431,9.078-0.611,13.618
		c-0.15,3.347-0.281,6.694-0.401,10.04c-0.18,4.8-0.331,9.599-0.461,14.399c-0.341,11.964-0.531,23.918-0.551,35.833h-10.02
		c0.02-11.994,0.22-24.009,0.561-36.043c0.12-4.599,0.271-9.199,0.431-13.798c0.12-3.347,0.25-6.694,0.391-10.04
		c0.2-4.87,0.421-9.73,0.661-14.58c1.253-25.852,2.976-51.615,4.78-77.086c0.321-4.509,0.641-8.998,0.972-13.477
		c0.24-3.427,0.491-6.854,0.741-10.261c0.02-0.331,0.05-0.661,0.07-0.992c0.331-4.559,0.661-9.138,0.992-13.718
		c1.864-25.913,3.687-52.166,5.08-78.509c0.261-5.01,0.511-10.02,0.742-15.04c0.16-3.437,0.311-6.874,0.451-10.311
		c0.18-4.349,0.341-8.708,0.481-13.056c0.521-15.491,0.822-30.973,0.832-46.384v-0.301c0-2.766,2.245-5.01,5.01-5.01
		c1.383,0,2.635,0.561,3.537,1.463C673.014,352.43,673.575,353.672,673.575,355.055z"/>
	<path fill="#FFFFFF" d="M557.871,355.195v0.05c0.25,51.334-17.145,93.92-39.55,133.21c-3.677,6.443-7.485,12.796-11.373,19.089
		c-6.593,10.672-13.417,21.153-20.191,31.564c-8.287,12.736-16.463,25.301-24.109,37.957c-1.283,2.124-2.555,4.249-3.808,6.383
		c-2.325,3.948-4.589,7.916-6.784,11.904c-2.685,4.87-5.261,9.77-7.706,14.71c-6.643,13.417-12.355,27.175-16.664,41.554
		c-1.072,3.587-2.064,7.215-2.956,10.882c-0.822,3.337-1.553,6.704-2.204,10.12c-1.032,5.351-1.854,10.812-2.445,16.373
		c-0.691,6.403-1.072,12.956-1.132,19.67h-10.01c0.05-7.355,0.501-14.529,1.303-21.544c0.531-4.76,1.232-9.449,2.084-14.069
		c0.611-3.407,1.313-6.774,2.094-10.11c1.052-4.539,2.245-9.018,3.557-13.437c4.539-15.231,10.551-29.77,17.465-43.809
		c1.243-2.525,2.525-5.03,3.828-7.525c2.034-3.908,4.138-7.786,6.293-11.624c2.796-4.97,5.671-9.89,8.607-14.76
		c7.796-12.946,16.032-25.592,24.189-38.137c3.176-4.88,6.363-9.77,9.519-14.7c3.978-6.172,7.926-12.395,11.784-18.678
		c26.283-42.877,48.468-88.79,48.188-145.024v-0.05c0.02-2.746,2.245-4.97,4.99-4.99c0.01,0,0.02,0,0.02,0
		C555.616,350.205,557.86,352.43,557.871,355.195z"/>
	<path fill="#FFFFFF" d="M708.666,409.355v10.02c-7.666,0.02-15.101,0.481-22.355,1.333c-4.88,0.561-9.67,1.303-14.389,2.214
		c-3.417,0.641-6.794,1.373-10.13,2.194c-4.559,1.102-9.048,2.365-13.477,3.748c-13.417,4.199-26.283,9.61-38.849,15.842
		c-4.9,2.425-9.74,4.98-14.56,7.636c-3.998,2.214-7.986,4.489-11.944,6.824c-2.275,1.343-4.549,2.705-6.814,4.078
		c-12.575,7.636-25.061,15.802-37.706,24.069c-10.391,6.794-20.852,13.628-31.494,20.231v0.01
		c-6.283,3.888-12.626,7.716-19.069,11.393c0,0.01,0,0.01-0.01,0.01c-38.919,22.285-81.114,39.62-131.957,39.62h-1.122
		c-2.776-0.02-5-2.275-4.99-5.04c0.01-2.756,2.255-4.98,5.01-4.98h0.01c0.01,0,0.01,0,0.02,0h1.052
		c55.763,0,101.275-22.115,143.771-48.288v-0.01c6.283-3.858,12.485-7.816,18.658-11.804c4.9-3.166,9.78-6.353,14.64-9.529
		c12.565-8.217,25.241-16.493,38.207-24.339c4.92-2.976,9.89-5.892,14.92-8.718c3.848-2.164,7.726-4.279,11.644-6.323
		c2.335-1.223,4.679-2.415,7.044-3.577c13.517-6.694,27.486-12.535,42.105-17.014c5.04-1.553,10.161-2.946,15.361-4.148
		c3.337-0.782,6.704-1.473,10.111-2.094c3.667-0.671,7.385-1.253,11.153-1.723C691.662,409.946,700.039,409.385,708.666,409.355z"/>
	<path fill="#FFFFFF" d="M708.666,528.817v10.02c-10.02,0.11-20.021,0.691-30.011,1.663c-4.79,0.471-9.569,1.022-14.349,1.663
		c-3.387,0.451-6.764,0.942-10.141,1.463v0.01c-4.469,0.691-8.928,1.453-13.377,2.275c-20.572,3.788-41.023,8.798-61.284,14.299
		c-5.381,1.453-10.752,2.946-16.103,4.459v0.01c-3.788,1.062-7.575,2.144-11.353,3.237c-3.126,0.902-6.243,1.804-9.359,2.706
		c-3.046,0.892-6.092,1.784-9.128,2.665c-21.574,6.293-43.428,12.666-65.493,18.207c-5.331,1.343-10.662,2.635-16.012,3.858
		c-4.259,0.982-8.517,1.924-12.786,2.816c-2.826,0.591-5.651,1.162-8.477,1.703c-25.081,4.88-50.412,8.066-75.944,8.287h-0.08
		c-2.726-0.02-4.95-2.225-4.97-4.97c-0.02-2.766,2.204-5.03,4.97-5.05h0.08c24.66-0.22,49.26-3.307,73.689-8.036
		c5.681-1.102,11.363-2.295,17.024-3.557c4.429-0.992,8.858-2.024,13.277-3.096c2.365-0.571,4.73-1.152,7.094-1.743
		c21.824-5.491,43.458-11.804,64.821-18.037c3.056-0.892,6.122-1.784,9.199-2.675c5.11-1.483,10.231-2.966,15.371-4.439
		c3.778-1.082,7.575-2.154,11.373-3.217c3.357-0.942,6.724-1.864,10.09-2.776c20.662-5.611,41.534-10.722,62.577-14.58
		c5.171-0.952,10.351-1.824,15.542-2.605c3.377-0.511,6.754-0.992,10.141-1.423c4.068-0.521,8.146-0.982,12.225-1.383
		C687.704,529.538,698.165,528.927,708.666,528.817z"/>
	<path fill="#FFFFFF" d="M708.666,647.377v10.02c-12.315,0.03-24.68,0.23-37.055,0.581c-4.74,0.13-9.469,0.281-14.209,0.451
		c-3.347,0.12-6.694,0.25-10.04,0.391c-4.649,0.19-9.299,0.401-13.938,0.621c-26.013,1.263-51.965,2.966-77.617,4.75
		c-5.03,0.351-10.04,0.701-15.04,1.052c-2.736,0.19-5.461,0.391-8.187,0.581c-0.671,0.05-1.343,0.09-2.014,0.14
		c-4.349,0.311-8.708,0.621-13.077,0.922c-26.113,1.844-52.577,3.627-79.13,4.98c-5.271,0.271-10.551,0.521-15.832,0.752
		c-3.397,0.15-6.794,0.301-10.201,0.431c-4.299,0.16-8.597,0.321-12.886,0.451c-14.84,0.471-29.67,0.752-44.46,0.772
		c-0.01,0-0.01,0-0.02,0c-2.766,0-5.01-2.234-5.01-5s2.224-5,4.99-5.02c0.01,0,0.02,0,0.02,0c14.91-0.02,29.891-0.301,44.891-0.792
		c4.85-0.15,9.71-0.331,14.569-0.521c3.437-0.14,6.874-0.281,10.311-0.441c4.128-0.19,8.257-0.381,12.385-0.591
		c26.774-1.363,53.468-3.176,79.812-5.03c5-0.351,9.98-0.701,14.95-1.052c0.03,0,0.06,0,0.09-0.01
		c3.407-0.241,6.834-0.481,10.251-0.721c4.239-0.301,8.477-0.591,12.736-0.892c25.772-1.794,51.865-3.507,78.028-4.76
		c4.92-0.24,9.84-0.461,14.77-0.661c3.347-0.14,6.704-0.271,10.05-0.391c4.489-0.16,8.978-0.301,13.477-0.431
		C683.756,647.608,696.231,647.407,708.666,647.377z"/>
	<path fill="#FFFFFF" d="M708.666,290.785v10.01c-8.136-0.01-16.053-0.511-23.778-1.433c-4.239-0.501-8.417-1.132-12.545-1.874
		c-3.407-0.621-6.774-1.313-10.11-2.084c-5.241-1.202-10.381-2.595-15.451-4.148c-14.469-4.419-28.297-10.171-41.674-16.764
		c-2.485-1.222-4.95-2.475-7.405-3.758c-3.918-2.044-7.796-4.148-11.644-6.303c-4.97-2.796-9.89-5.681-14.77-8.617
		c-13.056-7.886-25.802-16.213-38.448-24.48c-4.85-3.166-9.72-6.353-14.61-9.519c-6.173-3.978-12.385-7.926-18.658-11.794
		c-42.446-26.133-87.928-48.208-143.681-48.208h-1.052c0,0-0.01,0-0.02,0c-2.746-0.01-4.97-2.235-4.99-4.99
		c-0.01-2.766,2.225-5.02,4.99-5.03h0.05c51.324-0.21,93.79,17.165,132.929,39.56c6.433,3.667,12.786,7.485,19.059,11.383
		c10.642,6.603,21.083,13.427,31.464,20.211c12.786,8.367,25.411,16.614,38.137,24.319c2.154,1.313,4.309,2.595,6.473,3.878
		c3.958,2.325,7.936,4.599,11.934,6.804c4.86,2.675,9.76,5.251,14.71,7.696c12.926,6.393,26.183,11.904,40.021,16.113
		c4.008,1.233,8.066,2.345,12.185,3.337c3.337,0.812,6.714,1.543,10.131,2.184c4.669,0.892,9.419,1.623,14.249,2.174
		C693.465,290.304,700.95,290.765,708.666,290.785z"/>
	<path fill="#FFFFFF" d="M708.666,174.529v10.02h-0.05c-10.01-0.09-19.991-0.651-29.921-1.613
		c-4.489-0.431-8.968-0.952-13.437-1.543c-3.387-0.441-6.764-0.922-10.141-1.453c-4.98-0.772-9.95-1.633-14.91-2.565
		c-21.193-3.998-42.195-9.339-62.978-15.221c-3.307-0.932-6.593-1.884-9.88-2.836c-3.818-1.112-7.625-2.245-11.423-3.377
		c-5.221-1.553-10.421-3.136-15.612-4.709c-3.347-1.022-6.684-2.034-10.02-3.056c-20.952-6.393-42.175-12.876-63.579-18.538
		c-2.485-0.661-4.97-1.313-7.455-1.934c-4.459-1.142-8.918-2.245-13.397-3.277c-5.441-1.283-10.892-2.485-16.343-3.607
		c-24.72-5.06-49.631-8.367-74.631-8.597h-0.08c-2.766-0.02-4.99-2.285-4.97-5.05c0.03-2.736,2.235-4.94,4.96-4.97h0.1
		c25.862,0.231,51.514,3.647,76.886,8.848c2.575,0.531,5.14,1.082,7.706,1.643c4.299,0.942,8.597,1.934,12.886,2.976
		c5.571,1.333,11.133,2.746,16.674,4.209c21.634,5.722,43.037,12.255,64.17,18.708c3.377,1.032,6.774,2.064,10.171,3.096
		c3.066,0.942,6.142,1.874,9.219,2.796c3.798,1.142,7.595,2.285,11.403,3.407c5.261,1.563,10.541,3.096,15.832,4.579
		c20.662,5.862,41.524,11.173,62.517,15.111c3.998,0.752,8.006,1.453,12.014,2.104c3.387,0.541,6.764,1.042,10.151,1.513
		c4.95,0.671,9.91,1.263,14.88,1.744C689.146,173.888,698.896,174.449,708.666,174.529z"/>
	<path fill="#FFFFFF" d="M708.666,53.033v10.02c-12.485-0.03-25.001-0.241-37.526-0.591c-4.439-0.13-8.888-0.271-13.337-0.441
		c-3.347-0.11-6.704-0.24-10.05-0.381c-5.16-0.21-10.311-0.451-15.461-0.701c-25.832-1.263-51.594-2.956-77.046-4.73
		c-4.359-0.301-8.698-0.611-13.036-0.912c-3.427-0.24-6.844-0.491-10.251-0.731h-0.03c-4.89-0.351-9.8-0.691-14.72-1.042
		c-26.173-1.844-52.697-3.637-79.291-5c-4.399-0.231-8.808-0.441-13.207-0.641c-3.437-0.16-6.864-0.301-10.301-0.441
		c-5.07-0.21-10.151-0.391-15.221-0.561c-14.76-0.461-29.5-0.752-44.18-0.772c-0.05,0-0.1,0-0.15-0.01h-0.01
		c-2.705-0.08-4.85-2.285-4.85-5c0.01-2.716,2.164-4.92,4.85-5c0.05-0.01,0.11-0.01,0.16-0.01c0.01,0,0.01,0,0.01,0
		c15.01,0.03,30.081,0.311,45.151,0.802c4.048,0.13,8.096,0.281,12.145,0.431c3.397,0.13,6.804,0.281,10.201,0.431
		c5.09,0.22,10.181,0.461,15.261,0.721c26.844,1.373,53.589,3.186,79.982,5.05c4.279,0.301,8.547,0.601,12.806,0.902
		c0.691,0.05,1.383,0.1,2.074,0.15c2.706,0.19,5.411,0.381,8.127,0.571c5.09,0.361,10.211,0.721,15.331,1.082
		c25.542,1.774,51.394,3.477,77.297,4.73c4.659,0.22,9.309,0.431,13.968,0.631c3.347,0.14,6.694,0.271,10.04,0.391
		c4.479,0.17,8.958,0.311,13.427,0.441C683.465,52.792,696.091,53.003,708.666,53.033z"/>
	<path fill="#FFFFFF" d="M181.388,708.661h-10.02c-0.05-9.139-0.521-18.267-1.333-27.386c-0.451-5.09-1.002-10.171-1.663-15.241
		c-0.431-3.377-0.912-6.754-1.433-10.13c-0.641-4.188-1.343-8.377-2.104-12.565c-3.687-20.371-8.648-40.632-14.149-60.723
		c-1.663-6.062-3.367-12.115-5.11-18.147c-1.082-3.788-2.184-7.565-3.297-11.333c-0.762-2.605-1.533-5.221-2.305-7.826
		c-1.092-3.687-2.194-7.375-3.287-11.052c-6.303-21.183-12.676-42.616-18.227-64.27c-1.553-6.002-3.026-12.024-4.429-18.067
		c-0.982-4.249-1.924-8.507-2.816-12.776c-0.461-2.184-0.902-4.369-1.333-6.553c-5.05-25.542-8.297-51.364-8.307-77.377
		c0-2.766,2.245-5.01,5.01-5.01c1.383,0,2.635,0.561,3.537,1.473c0.912,0.902,1.473,2.154,1.473,3.537
		c0.01,25.191,3.156,50.302,8.076,75.232c0.992,5.01,2.054,10.01,3.176,14.99c0.992,4.429,2.034,8.858,3.116,13.277
		c0.731,2.986,1.473,5.972,2.245,8.948c5.501,21.453,11.824,42.727,18.077,63.729c1.162,3.908,2.335,7.836,3.487,11.764
		c1.303,4.379,2.595,8.778,3.878,13.187h0.01c1.092,3.778,2.184,7.565,3.257,11.363h0.01c1.092,3.838,2.164,7.686,3.227,11.543
		c5.692,20.712,10.832,41.644,14.62,62.747c0.882,4.85,1.683,9.71,2.405,14.59c0.501,3.367,0.962,6.744,1.383,10.121
		c0.541,4.399,1.022,8.798,1.423,13.207C180.836,689.462,181.337,699.052,181.388,708.661z"/>
	<path fill="#FFFFFF" d="M62.667,708.661h-10.02c-0.02-11.443-0.2-22.906-0.521-34.4c-0.12-4.83-0.271-9.66-0.441-14.489
		c-0.12-3.347-0.251-6.684-0.391-10.03c-0.19-4.559-0.391-9.118-0.611-13.678c-1.263-26.323-3.016-52.587-4.86-78.549
		c-0.361-5.17-0.732-10.331-1.102-15.481c-0.22-2.976-0.441-5.952-0.651-8.928c-0.03-0.421-0.06-0.842-0.09-1.263
		c-0.311-4.219-0.611-8.457-0.922-12.696c-1.924-26.764-3.798-53.889-5.221-81.124c-0.251-5.08-0.501-10.181-0.721-15.271
		c-0.16-3.397-0.301-6.794-0.431-10.191c-0.17-4.118-0.311-8.247-0.451-12.365c-0.481-14.96-0.762-29.921-0.772-44.821v-0.321
		c0.01-2.766,2.245-5,5.01-5c1.383,0,2.635,0.561,3.537,1.463c0.912,0.912,1.473,2.164,1.473,3.547v0.301
		c0.01,14.63,0.281,29.309,0.752,44.009c0.16,5.08,0.351,10.161,0.561,15.241c0.13,3.437,0.281,6.874,0.441,10.311
		c0.2,4.359,0.411,8.708,0.631,13.056c1.413,27.055,3.287,54.029,5.201,80.633c0.331,4.599,0.661,9.189,0.992,13.768
		c0.02,0.291,0.04,0.571,0.06,0.862c0.251,3.407,0.501,6.824,0.741,10.251c0.321,4.359,0.631,8.728,0.942,13.107
		c1.854,26.103,3.617,52.526,4.89,79.02c0.231,4.81,0.451,9.629,0.651,14.459c0.13,3.337,0.261,6.684,0.381,10.03
		c0.16,4.609,0.301,9.209,0.421,13.818C62.467,685.525,62.647,697.108,62.667,708.661z"/>
	<path fill="#FFFFFF" d="M300.098,708.661h-10.01c-0.06-6.724-0.441-13.277-1.132-19.69c-0.591-5.461-1.393-10.812-2.395-16.073
		c-0.641-3.407-1.373-6.774-2.174-10.1c-0.912-3.728-1.914-7.415-3.006-11.062c-4.118-13.778-9.519-26.985-15.802-39.861
		c-2.746-5.621-5.651-11.183-8.698-16.704c-2.194-3.988-4.469-7.956-6.794-11.904c-0.992-1.693-1.994-3.377-3.006-5.06
		c-7.846-13.046-16.263-25.983-24.8-39.099c-6.914-10.621-13.868-21.313-20.582-32.195c-3.888-6.303-7.686-12.666-11.363-19.119
		c-22.215-39.109-39.41-81.505-39.169-132.549v-0.05c0.01-2.766,2.255-4.99,5.01-4.99c0,0,0.01,0,0.02,0
		c2.746,0.02,4.97,2.245,4.99,4.99v0.05c-0.281,55.963,21.684,101.696,47.807,144.393c3.858,6.303,7.806,12.545,11.794,18.738
		c3.287,5.12,6.593,10.201,9.89,15.271c8.527,13.107,17.125,26.313,25.231,39.861c2.545,4.259,5.04,8.547,7.475,12.876
		c2.154,3.838,4.259,7.716,6.303,11.624c1.553,2.966,3.066,5.962,4.539,8.968c6.653,13.638,12.425,27.746,16.824,42.516
		c1.343,4.499,2.555,9.068,3.627,13.698c0.772,3.327,1.463,6.694,2.074,10.1c0.842,4.579,1.533,9.229,2.054,13.948
		C299.607,694.212,300.048,701.347,300.098,708.661z"/>
	<path fill="#FFFFFF" d="M181.398-0.005v0.01c0,10.952-0.581,21.864-1.623,32.736c-0.381,3.908-0.812,7.806-1.303,11.704
		c-0.421,3.387-0.892,6.774-1.403,10.151c-0.822,5.491-1.744,10.962-2.756,16.423c-4.058,21.894-9.519,43.588-15.511,65.052
		c-0.802,2.866-1.603,5.732-2.425,8.587c-1.092,3.828-2.194,7.645-3.307,11.453c-1.663,5.661-3.327,11.313-5,16.934
		c-0.591,2.004-1.192,3.998-1.784,5.992c-6.373,21.423-12.826,43.127-18.407,65.022c-0.641,2.485-1.263,4.97-1.864,7.465h-0.01
		c-1.082,4.419-2.124,8.838-3.116,13.267c-1.243,5.541-2.415,11.092-3.497,16.654c-4.76,24.45-7.786,49.079-7.796,73.769
		c0,2.766-2.245,5.01-5.01,5.01c-2.766,0-5.01-2.245-5.01-5.01c0.01-25.562,3.146-50.943,8.046-76.054
		c0.521-2.695,1.072-5.401,1.643-8.096c0.892-4.259,1.834-8.517,2.816-12.766c1.273-5.471,2.605-10.932,3.998-16.383
		c5.641-22.155,12.165-44.079,18.608-65.733c0.611-2.054,1.222-4.108,1.834-6.172c1.042-3.497,2.084-7.014,3.116-10.531h0.01
		c1.112-3.798,2.224-7.595,3.327-11.413c1.403-4.84,2.786-9.69,4.138-14.549c5.932-21.263,11.343-42.727,15.341-64.33
		c0.862-4.619,1.653-9.239,2.365-13.868c0.531-3.377,1.012-6.764,1.453-10.151c0.591-4.459,1.102-8.928,1.533-13.397
		c1.012-10.571,1.573-21.173,1.573-31.774H181.398z"/>
	<path fill="#FFFFFF" d="M62.667-0.005v0.01c0,12.886-0.21,25.802-0.581,38.729c-0.12,4.279-0.261,8.557-0.411,12.846
		c-0.12,3.347-0.251,6.694-0.381,10.04c-0.231,5.311-0.471,10.612-0.732,15.922c-1.303,26.474-3.086,52.857-4.95,78.93
		c-0.311,4.429-0.631,8.848-0.952,13.257c-0.2,2.776-0.401,5.551-0.601,8.317c-0.05,0.651-0.09,1.293-0.14,1.944
		c-0.351,4.84-0.701,9.7-1.052,14.57c-1.864,25.923-3.667,52.176-5.03,78.509c-0.2,4.048-0.401,8.086-0.591,12.135
		c-0.16,3.427-0.301,6.864-0.441,10.301c-0.22,5.391-0.421,10.782-0.591,16.173c-0.461,14.489-0.721,28.969-0.731,43.388v0.301
		c0,2.766-2.245,5.01-5.01,5.01s-5-2.235-5.01-5v-0.331c0.01-14.69,0.281-29.44,0.752-44.19c0.14-4.429,0.301-8.868,0.481-13.307
		c0.13-3.397,0.281-6.794,0.431-10.191c0.21-4.77,0.441-9.549,0.681-14.309c1.373-26.554,3.186-53.007,5.06-79.12
		c0.301-4.168,0.601-8.337,0.902-12.485c0.1-1.373,0.2-2.746,0.301-4.118c0.15-2.024,0.291-4.058,0.441-6.092
		c0.371-5.17,0.752-10.361,1.112-15.572c1.874-26.143,3.657-52.617,4.96-79.15c0.23-4.84,0.451-9.68,0.661-14.509
		c0.14-3.347,0.271-6.694,0.391-10.04c0.16-4.329,0.301-8.658,0.421-12.986c0.371-13.016,0.591-26.023,0.591-38.979H62.667z"/>
	<path fill="#FFFFFF" d="M300.118-0.005c0,8.958-0.581,17.656-1.653,26.123c-0.481,3.788-1.062,7.525-1.744,11.223
		c-0.621,3.407-1.323,6.774-2.094,10.111c-1.263,5.451-2.726,10.812-4.369,16.083c-4.499,14.519-10.321,28.408-16.974,41.835
		c-1.242,2.505-2.515,4.99-3.808,7.465c-2.074,3.948-4.209,7.866-6.393,11.754h-0.01c-2.766,4.92-5.631,9.79-8.537,14.62
		c-7.706,12.746-15.812,25.211-23.858,37.576c-3.267,5.01-6.533,10.05-9.79,15.111c-3.978,6.183-7.926,12.425-11.784,18.718
		c-26.173,42.747-48.198,88.529-47.917,144.583v0.05c-0.02,2.746-2.245,4.97-4.99,4.98c-0.01,0-0.02,0-0.02,0
		c-2.756,0-5-2.224-5.01-4.98v-0.05c-0.241-51.134,17.014-93.6,39.28-132.759c0,0,0.01,0,0.01-0.01
		c3.667-6.443,7.465-12.786,11.343-19.079h0.01c6.673-10.822,13.598-21.463,20.471-32.025c8.147-12.525,16.193-24.89,23.738-37.346
		c1.232-2.034,2.455-4.068,3.657-6.102c2.365-3.998,4.659-8.016,6.894-12.044c2.725-4.93,5.351-9.9,7.846-14.91
		c6.363-12.786,11.874-25.882,16.143-39.53c1.393-4.429,2.645-8.928,3.758-13.487c0.812-3.337,1.553-6.714,2.204-10.141
		c0.862-4.509,1.583-9.088,2.144-13.738c0.932-7.786,1.433-15.782,1.433-24.029H300.118z"/>
	<path fill="#FFFFFF" d="M607.461,355.215c0,2.766-2.245,5.01-5.01,5.01s-5.01-2.245-5.01-5.01c-0.01-24.77-3.056-49.48-7.836-74.01
		c-1.092-5.601-2.275-11.193-3.547-16.774c-0.992-4.439-2.034-8.868-3.126-13.287c-0.591-2.415-1.192-4.83-1.814-7.245
		c-5.571-21.834-12.004-43.488-18.367-64.861c-0.691-2.315-1.373-4.629-2.064-6.944c-1.593-5.371-3.187-10.752-4.76-16.153
		c-1.122-3.808-2.225-7.635-3.317-11.463c-0.872-3.056-1.734-6.122-2.585-9.189c-6.072-21.794-11.583-43.829-15.622-66.054
		c-0.892-4.88-1.703-9.77-2.445-14.67c-0.501-3.377-0.972-6.754-1.393-10.141c-0.551-4.389-1.042-8.778-1.443-13.177
		c-0.952-10.381-1.483-20.792-1.483-31.243v-0.01h10.02c0,10,0.501,19.98,1.413,29.951c0.461,5.07,1.022,10.141,1.693,15.201
		c0.441,3.387,0.922,6.774,1.443,10.151c0.651,4.168,1.363,8.337,2.114,12.495c3.968,21.744,9.379,43.368,15.341,64.771
		c1.423,5.12,2.876,10.231,4.349,15.321c1.102,3.818,2.214,7.635,3.337,11.433c0.982,3.327,1.964,6.643,2.946,9.95
		c0.681,2.315,1.373,4.609,2.054,6.914c6.423,21.574,12.926,43.428,18.548,65.503c1.383,5.411,2.716,10.832,3.968,16.263h0.01
		c0.982,4.259,1.934,8.517,2.826,12.786c0.581,2.756,1.142,5.501,1.683,8.257C604.305,304.162,607.451,329.593,607.461,355.215z"/>
	<path fill="#FFFFFF" d="M673.575,355.045v0.331c-0.01,2.766-2.245,5-5.01,5s-5.01-2.245-5.01-5.01v-0.301
		c-0.01-14.519-0.281-29.089-0.741-43.679c-0.17-5.331-0.361-10.662-0.581-15.982c-0.14-3.437-0.291-6.874-0.451-10.311
		c-0.18-4.058-0.381-8.116-0.591-12.175c-1.333-25.782-3.096-51.504-4.92-76.906c-0.381-5.371-0.772-10.732-1.152-16.073
		c-0.05-0.631-0.09-1.263-0.14-1.894c-0.2-2.786-0.401-5.571-0.601-8.367c-0.291-3.918-0.571-7.856-0.852-11.794
		c-1.904-26.524-3.717-53.398-5.05-80.353c-0.261-5.301-0.501-10.591-0.721-15.892c-0.14-3.357-0.271-6.704-0.391-10.05
		c-0.15-4.239-0.291-8.477-0.411-12.716c-0.371-12.976-0.581-25.943-0.581-38.869v-0.01h10.02c0,12.946,0.21,25.933,0.581,38.939
		c0.13,4.349,0.271,8.698,0.431,13.046c0.12,3.347,0.251,6.694,0.401,10.04c0.2,4.89,0.421,9.78,0.661,14.67
		c1.323,26.965,3.146,53.869,5.05,80.433c0.331,4.7,0.671,9.389,1.012,14.069c0.14,2.044,0.291,4.088,0.441,6.132
		c0.1,1.353,0.2,2.716,0.291,4.068c0.341,4.629,0.671,9.279,1.012,13.938c1.824,25.552,3.597,51.434,4.94,77.407
		c0.25,4.84,0.481,9.69,0.701,14.539c0.15,3.397,0.291,6.804,0.431,10.211c0.17,4.409,0.331,8.818,0.471,13.227
		C673.284,325.515,673.565,340.305,673.575,355.045z"/>
	<path fill="#FFFFFF" d="M557.871,355.195v0.05c-0.01,2.756-2.255,4.98-5.01,4.98c0,0-0.01,0-0.02,0
		c-2.746-0.01-4.97-2.235-4.99-4.98v-0.05c0.291-56.304-21.955-102.257-48.278-145.174c-3.858-6.283-7.796-12.495-11.764-18.668
		h-0.01c-3.136-4.88-6.293-9.73-9.439-14.57c-8.016-12.325-16.103-24.74-23.778-37.446c-2.966-4.92-5.882-9.89-8.718-14.91
		c-2.174-3.878-4.309-7.786-6.373-11.734c-1.212-2.325-2.405-4.659-3.577-7.004c-6.714-13.527-12.596-27.506-17.135-42.135
		c-1.643-5.281-3.106-10.652-4.369-16.113c-0.782-3.337-1.483-6.714-2.094-10.121c-0.701-3.808-1.303-7.655-1.784-11.553
		c-1.052-8.357-1.613-16.934-1.613-25.772h10.02c0,8.257,0.501,16.273,1.443,24.069c0.551,4.639,1.273,9.199,2.134,13.688
		c0.651,3.417,1.383,6.794,2.194,10.131c1.092,4.449,2.305,8.838,3.657,13.157c4.299,13.818,9.87,27.055,16.313,39.991
		c2.445,4.92,5.02,9.79,7.696,14.64c2.225,4.028,4.529,8.036,6.884,12.034c1.303,2.204,2.615,4.409,3.958,6.603
		c7.485,12.345,15.461,24.6,23.538,37.015c6.744,10.361,13.537,20.802,20.101,31.414c3.888,6.293,7.696,12.636,11.373,19.079
		C540.676,261.145,558.121,303.781,557.871,355.195z"/>
	<path fill="#FFFFFF" d="M359.829,553.537c0.01,2.766-2.225,5.02-4.99,5.04h-1.092c-51.284,0-93.76-17.636-132.959-40.201
		c-6.443-3.708-12.796-7.545-19.089-11.463c-10.301-6.423-20.431-13.046-30.502-19.63c-12.585-8.227-25.011-16.353-37.516-23.949
		c-2.565-1.573-5.14-3.106-7.716-4.619c-3.968-2.335-7.936-4.599-11.934-6.794c-4.669-2.565-9.359-5.03-14.099-7.375
		c-12.876-6.373-26.063-11.884-39.831-16.103c-4.229-1.303-8.517-2.485-12.866-3.517c-3.337-0.812-6.704-1.533-10.12-2.174
		c-4.599-0.862-9.269-1.573-14.018-2.124c-7.445-0.862-15.081-1.313-22.947-1.313c-0.05,0-0.1,0-0.15-0.01v-10
		c0.05-0.01,0.1-0.01,0.15-0.01c8.427,0,16.614,0.511,24.6,1.483c4.028,0.471,8.006,1.072,11.934,1.784
		c3.407,0.601,6.784,1.293,10.11,2.054c5.351,1.232,10.612,2.645,15.782,4.239c11.183,3.417,21.985,7.635,32.496,12.415
		c3.367,1.533,6.704,3.126,10.01,4.77c2.054,1.012,4.098,2.054,6.132,3.106c3.908,2.034,7.786,4.138,11.634,6.293
		c5.18,2.896,10.301,5.892,15.371,8.958c13.056,7.896,25.812,16.233,38.458,24.5c4.539,2.966,9.088,5.942,13.658,8.898
		c6.173,3.998,12.385,7.966,18.658,11.844c42.777,26.454,88.58,48.919,144.773,48.919h1.052c0.01,0,0.01,0,0.02,0
		C357.585,548.567,359.809,550.792,359.829,553.537z"/>
	<path fill="#FFFFFF" d="M359.819,603.188c-0.02,2.746-2.245,4.95-4.97,4.97h-0.08c-25.492-0.22-50.793-3.407-75.844-8.287
		c-3.086-0.591-6.163-1.213-9.239-1.864c-4.279-0.892-8.547-1.844-12.806-2.836c-5.391-1.232-10.772-2.545-16.133-3.898
		c-21.804-5.501-43.378-11.794-64.681-18.006c-2.956-0.862-5.912-1.724-8.878-2.585c-3.417-1.002-6.844-1.994-10.271-2.976
		c-3.778-1.092-7.555-2.174-11.343-3.237c-5.371-1.523-10.752-3.016-16.143-4.479c-20.532-5.561-41.264-10.612-62.096-14.389
		c-4.158-0.761-8.317-1.463-12.475-2.104c-3.377-0.521-6.754-1.012-10.141-1.463c-5.09-0.671-10.191-1.253-15.291-1.724
		c-9.77-0.922-19.55-1.453-29.339-1.543c-0.03,0-0.06,0-0.09-0.01v-10c0.04-0.01,0.09-0.01,0.13-0.01h0.04
		c10.251,0.09,20.461,0.661,30.642,1.633c4.399,0.411,8.788,0.902,13.167,1.463c3.387,0.421,6.764,0.892,10.141,1.403
		c4.87,0.721,9.74,1.533,14.59,2.415c21.774,3.928,43.368,9.219,64.731,15.03c2.956,0.802,5.902,1.613,8.838,2.445
		c3.798,1.052,7.595,2.124,11.383,3.207c5.01,1.433,10,2.876,14.98,4.329c3.417,0.992,6.824,1.984,10.231,2.976
		c21.473,6.273,43.218,12.616,65.152,18.117c2.014,0.511,4.038,1.012,6.062,1.503c4.429,1.082,8.858,2.124,13.297,3.116
		c5.551,1.242,11.103,2.415,16.654,3.507c24.77,4.84,49.721,8.016,74.731,8.247h0.08
		C357.625,598.157,359.839,600.422,359.819,603.188z"/>
	<path fill="#FFFFFF" d="M359.849,156.823c-0.01,2.756-2.234,4.97-4.98,4.99h-0.03c0,0-0.01,0-0.02,0h-1.062
		c-56.184,0-101.927,22.415-144.653,48.799c-6.273,3.878-12.485,7.846-18.658,11.824c-4.559,2.956-9.088,5.912-13.608,8.868
		c-12.816,8.367-25.742,16.814-38.979,24.79c-4.94,2.976-9.93,5.882-14.97,8.698c-3.838,2.154-7.716,4.249-11.624,6.273
		c-2.405,1.243-4.82,2.465-7.245,3.657c-13.307,6.523-27.075,12.215-41.474,16.594c-5.16,1.573-10.411,2.976-15.742,4.188
		c-3.337,0.762-6.704,1.443-10.111,2.044c-4.058,0.721-8.167,1.333-12.335,1.814c-7.766,0.912-15.732,1.393-23.918,1.393
		c-0.15,0-0.301-0.01-0.441-0.03v-9.96c0.14-0.02,0.291-0.03,0.441-0.03c7.806,0,15.391-0.451,22.776-1.293
		c4.72-0.531,9.349-1.233,13.908-2.084c3.417-0.631,6.784-1.353,10.12-2.154c4.188-0.992,8.327-2.114,12.405-3.357
		c13.798-4.168,27.015-9.629,39.901-15.982c4.89-2.395,9.73-4.93,14.529-7.565c3.998-2.194,7.976-4.449,11.934-6.774
		c2.235-1.313,4.469-2.645,6.694-3.988c12.896-7.796,25.682-16.153,38.648-24.62c10.05-6.563,20.161-13.177,30.452-19.57
		c6.283-3.918,12.636-7.756,19.079-11.453c39.149-22.506,81.595-40.101,132.859-40.101h1.122
		C357.635,151.803,359.869,154.058,359.849,156.823z"/>
	<path fill="#FFFFFF" d="M359.849,107.173c0.03,2.766-2.194,5.03-4.96,5.05h-0.08c-25.041,0.22-50.001,3.537-74.772,8.618
		c-5.672,1.162-11.323,2.415-16.964,3.748c-4.479,1.052-8.938,2.144-13.397,3.287c-2.285,0.581-4.559,1.172-6.824,1.784
		c-21.373,5.641-42.536,12.115-63.459,18.487c-3.527,1.082-7.074,2.154-10.622,3.237c-5.211,1.583-10.451,3.166-15.702,4.73
		c-3.798,1.132-7.615,2.265-11.433,3.367c-3.367,0.982-6.744,1.954-10.121,2.906c-20.722,5.842-41.664,11.143-62.807,15.091
		c-4.92,0.912-9.85,1.764-14.79,2.515c-3.377,0.531-6.764,1.012-10.151,1.453c-4.289,0.551-8.597,1.042-12.906,1.453
		c-9.89,0.962-19.83,1.513-29.8,1.603h-0.04c-0.351,0-0.691-0.04-1.022-0.1v-9.81c0.311-0.07,0.641-0.11,0.982-0.11
		c9.489-0.08,18.968-0.611,28.428-1.513c5.04-0.471,10.07-1.062,15.101-1.734c3.387-0.461,6.764-0.962,10.151-1.503
		c4.229-0.671,8.447-1.403,12.666-2.194c20.812-3.908,41.504-9.159,61.996-14.95c5.231-1.473,10.451-2.986,15.652-4.519
		c3.808-1.122,7.615-2.255,11.403-3.407c2.976-0.892,5.952-1.794,8.918-2.686c3.738-1.142,7.455-2.275,11.173-3.407
		c21.103-6.443,42.456-12.966,64.04-18.668c5.341-1.413,10.692-2.776,16.063-4.068c4.289-1.042,8.597-2.044,12.906-2.996
		c2.766-0.611,5.531-1.202,8.307-1.774c25.411-5.221,51.104-8.637,77.016-8.858h0.1
		C357.615,102.233,359.829,104.437,359.849,107.173z"/>
	<path fill="#FFFFFF" d="M359.699,41.099c0.01,2.716-2.144,4.92-4.84,5c-0.05,0.01-0.11,0.01-0.16,0.01
		c-15.161,0.02-30.382,0.321-45.622,0.812c-4.82,0.16-9.629,0.341-14.449,0.531c-3.437,0.14-6.874,0.291-10.311,0.451
		c-4.659,0.21-9.309,0.431-13.968,0.681c-26.093,1.343-52.096,3.106-77.778,4.92c-4.95,0.341-9.88,0.691-14.8,1.042
		c-0.23,0.02-0.471,0.03-0.701,0.05c-3.407,0.24-6.824,0.481-10.251,0.721c-4.349,0.311-8.698,0.611-13.067,0.922
		c-25.321,1.754-50.953,3.437-76.655,4.669c-5.261,0.261-10.531,0.491-15.802,0.711c-3.347,0.13-6.704,0.261-10.05,0.381
		c-4.329,0.15-8.658,0.291-12.986,0.411c-12.716,0.361-25.432,0.561-38.097,0.581H0.15c-0.05,0-0.1,0-0.15-0.01v-10
		c0.05-0.01,0.1-0.01,0.15-0.01c12.776-0.02,25.592-0.231,38.418-0.591c4.359-0.12,8.708-0.261,13.066-0.421
		c3.347-0.12,6.694-0.251,10.04-0.381c4.78-0.2,9.559-0.411,14.339-0.641c26.073-1.263,52.076-2.966,77.788-4.76
		c4.84-0.331,9.66-0.671,14.469-1.012c2.936-0.21,5.872-0.411,8.798-0.621c0.471-0.03,0.932-0.07,1.403-0.1
		c4.199-0.301,8.417-0.591,12.646-0.892c26.173-1.844,52.707-3.647,79.341-5.01c5.351-0.281,10.702-0.541,16.062-0.782
		c3.397-0.15,6.804-0.291,10.201-0.421c3.798-0.15,7.585-0.291,11.383-0.411c15.551-0.511,31.093-0.822,46.574-0.842
		c0.01,0,0.01,0,0.01,0c0.05,0,0.11,0,0.16,0.01C357.545,36.179,359.699,38.383,359.699,41.099z"/>
	<path fill="#FFFFFF" d="M359.969,669.252c0.01,2.766-2.225,5.01-4.99,5.02c-0.01,0-0.01,0-0.02,0
		c-1.383,0.01-2.786,0.01-4.179,0.01c-13.618,0-27.275-0.21-40.933-0.601c-4.369-0.11-8.728-0.25-13.097-0.391
		c-3.397-0.13-6.794-0.25-10.191-0.391c-5.191-0.21-10.381-0.431-15.562-0.681c-26.764-1.243-53.418-2.936-79.722-4.669
		c-4.249-0.281-8.487-0.561-12.716-0.842c-0.411-0.03-0.832-0.05-1.243-0.08c-2.976-0.2-5.962-0.391-8.948-0.591
		c-5.14-0.341-10.291-0.681-15.461-1.012c-25.592-1.663-51.494-3.237-77.437-4.359c-4.579-0.2-9.169-0.381-13.748-0.551
		c-3.347-0.12-6.694-0.24-10.04-0.341c-4.82-0.15-9.629-0.281-14.439-0.391c-12.325-0.281-24.63-0.421-36.885-0.371h-0.01
		c-0.12,0-0.24,0-0.351-0.02v-9.98c0.11-0.02,0.22-0.02,0.331-0.02c12.385-0.04,24.8,0.1,37.225,0.371
		c4.579,0.11,9.159,0.23,13.738,0.381c3.347,0.1,6.704,0.21,10.05,0.341c4.83,0.17,9.66,0.361,14.479,0.571
		c26.123,1.122,52.176,2.716,77.928,4.389c4.399,0.281,8.798,0.571,13.187,0.862c3.417,0.23,6.834,0.451,10.241,0.681
		c0.271,0.01,0.541,0.03,0.812,0.05c4.579,0.301,9.169,0.611,13.768,0.912c26.494,1.744,53.368,3.447,80.303,4.7
		c4.108,0.19,8.217,0.381,12.325,0.551c3.427,0.14,6.864,0.271,10.291,0.391c4.95,0.18,9.91,0.341,14.86,0.481
		c15.171,0.421,30.321,0.641,45.402,0.581c0.01,0,0.02,0,0.02,0C357.715,664.251,359.959,666.486,359.969,669.252z"/>
	<g id="CIRCLE_755_">
		
			<path fill="none" stroke="#FFFFFF" stroke-width="10.0203" stroke-linecap="round" stroke-linejoin="round" stroke-miterlimit="10" d="
			M56.505,653.933"/>
	</g>
	<g id="CIRCLE_756_">
		<path fill="#FFFFFF" d="M36.745,654.969c0-10.925,8.856-19.781,19.781-19.781s19.781,8.856,19.781,19.781
			s-8.856,19.781-19.781,19.781S36.745,665.894,36.745,654.969L36.745,654.969z"/>
	</g>
	<g id="CIRCLE_1_">
		<path fill="#FFFFFF" d="M129.208,562.915c0-10.925,8.856-19.781,19.781-19.781c10.925,0,19.781,8.856,19.781,19.781
			c0,10.925-8.856,19.781-19.781,19.781C138.064,582.696,129.208,573.84,129.208,562.915L129.208,562.915z"/>
	</g>
	<g id="CIRCLE_2_">
		<path fill="#FFFFFF" d="M152.618,661.632c0-10.925,8.856-19.781,19.781-19.781c10.925,0,19.781,8.856,19.781,19.781
			c0,10.925-8.856,19.781-19.781,19.781C161.474,681.414,152.618,672.557,152.618,661.632L152.618,661.632z"/>
	</g>
	<g id="CIRCLE_3_">
		<path fill="#FFFFFF" d="M270.782,669.263c0-10.925,8.856-19.781,19.781-19.781s19.781,8.856,19.781,19.781
			c0,10.925-8.856,19.781-19.781,19.781S270.782,680.188,270.782,669.263L270.782,669.263z"/>
	</g>
	<g id="CIRCLE_10_">
		<path fill="#FFFFFF" d="M240.684,592.763c0-10.925,8.856-19.781,19.781-19.781s19.781,8.856,19.781,19.781
			c0,10.925-8.856,19.781-19.781,19.781S240.684,603.688,240.684,592.763L240.684,592.763z"/>
	</g>
	<g id="CIRCLE_11_">
		<path fill="#FFFFFF" d="M29.285,538c0-10.925,8.856-19.781,19.781-19.781S68.848,527.075,68.848,538
			c0,10.925-8.856,19.781-19.781,19.781S29.285,548.925,29.285,538L29.285,538z"/>
	</g>
	<g id="CIRCLE_12_">
		<path fill="#FFFFFF" d="M23.015,418.86c0-10.925,8.856-19.781,19.781-19.781s19.781,8.856,19.781,19.781
			s-8.856,19.781-19.781,19.781S23.015,429.785,23.015,418.86L23.015,418.86z"/>
	</g>
	<g id="CIRCLE_16_">
		<path fill="#FFFFFF" d="M23.015,292.195c0-10.925,8.856-19.781,19.781-19.781s19.781,8.856,19.781,19.781
			c0,10.925-8.856,19.781-19.781,19.781S23.015,303.12,23.015,292.195L23.015,292.195z"/>
	</g>
	<g id="CIRCLE_17_">
		<path fill="#FFFFFF" d="M99.097,261.679c0-10.925,8.856-19.781,19.781-19.781s19.781,8.856,19.781,19.781
			c0,10.925-8.856,19.781-19.781,19.781S99.097,272.604,99.097,261.679L99.097,261.679z"/>
	</g>
	<g id="CIRCLE_18_">
		<path fill="#FFFFFF" d="M29.285,175.145c0-10.925,8.856-19.781,19.781-19.781s19.781,8.856,19.781,19.781
			s-8.856,19.781-19.781,19.781S29.285,186.07,29.285,175.145L29.285,175.145z"/>
	</g>
	<g id="CIRCLE_19_">
		<path fill="#FFFFFF" d="M37.752,57.987c0-10.925,8.856-19.781,19.781-19.781s19.781,8.856,19.781,19.781
			s-8.856,19.781-19.781,19.781S37.752,68.912,37.752,57.987L37.752,57.987z"/>
	</g>
	<g id="CIRCLE_20_">
		<path fill="#FFFFFF" d="M153.13,51.299c0-10.925,8.856-19.781,19.781-19.781c10.925,0,19.781,8.856,19.781,19.781
			s-8.856,19.781-19.781,19.781C161.986,71.08,153.13,62.224,153.13,51.299L153.13,51.299z"/>
	</g>
	<g id="CIRCLE_21_">
		<path fill="#FFFFFF" d="M129.301,153.299c0-10.925,8.856-19.781,19.781-19.781c10.925,0,19.781,8.856,19.781,19.781
			c0,10.925-8.856,19.781-19.781,19.781C138.158,173.081,129.301,164.224,129.301,153.299L129.301,153.299z"/>
	</g>
	<g id="CIRCLE_22_">
		<path fill="#FFFFFF" d="M240.499,120.274c0-10.925,8.856-19.781,19.781-19.781s19.781,8.856,19.781,19.781
			s-8.856,19.781-19.781,19.781S240.499,131.199,240.499,120.274L240.499,120.274z"/>
	</g>
	<g id="CIRCLE_23_">
		<path fill="#FFFFFF" d="M269.761,43.774c0-10.925,8.856-19.781,19.781-19.781c10.925,0,19.781,8.856,19.781,19.781
			s-8.856,19.781-19.781,19.781C278.618,63.555,269.761,54.699,269.761,43.774L269.761,43.774z"/>
	</g>
	<g id="CIRCLE_24_">
		<path fill="#FFFFFF" d="M398.934,43.774c0-10.925,8.856-19.781,19.781-19.781s19.781,8.856,19.781,19.781
			s-8.856,19.781-19.781,19.781S398.934,54.699,398.934,43.774L398.934,43.774z"/>
	</g>
	<g id="CIRCLE_25_">
		<path fill="#FFFFFF" d="M516.82,49.571c0-10.925,8.856-19.781,19.781-19.781c10.925,0,19.781,8.856,19.781,19.781
			s-8.856,19.781-19.781,19.781C525.677,69.352,516.82,60.496,516.82,49.571L516.82,49.571z"/>
	</g>
	<g id="CIRCLE_26_">
		<path fill="#FFFFFF" d="M632.077,58.039c0-10.925,8.856-19.781,19.781-19.781c10.925,0,19.781,8.856,19.781,19.781
			s-8.856,19.781-19.781,19.781C640.934,77.821,632.077,68.964,632.077,58.039L632.077,58.039z"/>
	</g>
	<g id="CIRCLE_27_">
		<path fill="#FFFFFF" d="M640.189,176.582c0-10.925,8.856-19.781,19.781-19.781c10.925,0,19.781,8.856,19.781,19.781
			c0,10.925-8.856,19.781-19.781,19.781C649.046,196.363,640.189,187.507,640.189,176.582L640.189,176.582z"/>
	</g>
	<g id="CIRCLE_28_">
		<path fill="#FFFFFF" d="M540.279,152.336c0-10.925,8.856-19.781,19.781-19.781c10.925,0,19.781,8.856,19.781,19.781
			c0,10.925-8.856,19.781-19.781,19.781C549.135,172.117,540.279,163.261,540.279,152.336L540.279,152.336z"/>
	</g>
	<g id="CIRCLE_30_">
		<path fill="#FFFFFF" d="M570.465,261.443c0-10.925,8.856-19.781,19.781-19.781c10.925,0,19.781,8.856,19.781,19.781
			s-8.856,19.781-19.781,19.781C579.322,281.224,570.465,272.368,570.465,261.443L570.465,261.443z"/>
	</g>
	<g id="CIRCLE_31_">
		<path fill="#FFFFFF" d="M646.757,291.96c0-10.925,8.856-19.781,19.781-19.781c10.925,0,19.781,8.856,19.781,19.781
			s-8.856,19.781-19.781,19.781C655.613,311.741,646.757,302.885,646.757,291.96L646.757,291.96z"/>
	</g>
	<g id="CIRCLE_29_">
		<path fill="#FFFFFF" d="M429.499,120.274c0-10.925,8.856-19.781,19.781-19.781c10.925,0,19.781,8.856,19.781,19.781
			s-8.856,19.781-19.781,19.781C438.356,140.056,429.499,131.199,429.499,120.274L429.499,120.274z"/>
	</g>
	<g id="CIRCLE_13_">
		<path fill="#FFFFFF" d="M99.097,450.213c0-10.925,8.856-19.781,19.781-19.781s19.781,8.856,19.781,19.781
			s-8.856,19.781-19.781,19.781S99.097,461.138,99.097,450.213L99.097,450.213z"/>
	</g>
	<g id="CIRCLE_4_">
		<path fill="#FFFFFF" d="M398.98,669.263c0-10.925,8.856-19.781,19.781-19.781s19.781,8.856,19.781,19.781
			c0,10.925-8.856,19.781-19.781,19.781S398.98,680.188,398.98,669.263L398.98,669.263z"/>
	</g>
	<g id="CIRCLE_5_">
		<path fill="#FFFFFF" d="M428.521,590.673c0-10.925,8.856-19.781,19.781-19.781s19.781,8.856,19.781,19.781
			c0,10.925-8.856,19.781-19.781,19.781S428.521,601.598,428.521,590.673L428.521,590.673z"/>
	</g>
	<g id="CIRCLE_6_">
		<path fill="#FFFFFF" d="M539.949,560.574c0-10.925,8.856-19.781,19.781-19.781c10.925,0,19.781,8.856,19.781,19.781
			c0,10.925-8.856,19.781-19.781,19.781C548.805,580.355,539.949,571.499,539.949,560.574L539.949,560.574z"/>
	</g>
	<g id="CIRCLE_14_">
		<path fill="#FFFFFF" d="M570.465,449.377c0-10.925,8.856-19.781,19.781-19.781c10.925,0,19.781,8.856,19.781,19.781
			c0,10.925-8.856,19.781-19.781,19.781C579.322,469.158,570.465,460.302,570.465,449.377L570.465,449.377z"/>
	</g>
	<g id="CIRCLE_7_">
		<path fill="#FFFFFF" d="M639.232,538.209c0-10.925,8.856-19.781,19.781-19.781c10.925,0,19.781,8.856,19.781,19.781
			c0,10.925-8.856,19.781-19.781,19.781C648.088,557.991,639.232,549.134,639.232,538.209L639.232,538.209z"/>
	</g>
	<g id="CIRCLE_15_">
		<path fill="#FFFFFF" d="M646.757,421.159c0-10.925,8.856-19.781,19.781-19.781c10.925,0,19.781,8.856,19.781,19.781
			s-8.856,19.781-19.781,19.781C655.613,440.941,646.757,432.084,646.757,421.159L646.757,421.159z"/>
	</g>
	<g id="CIRCLE_8_">
		<path fill="#FFFFFF" d="M632.543,653.587c0-10.925,8.856-19.781,19.781-19.781c10.925,0,19.781,8.856,19.781,19.781
			c0,10.925-8.856,19.781-19.781,19.781C641.4,673.368,632.543,664.512,632.543,653.587L632.543,653.587z"/>
	</g>
	<g id="CIRCLE_9_">
		<path fill="#FFFFFF" d="M516.539,660.824c0-10.925,8.856-19.781,19.781-19.781s19.781,8.856,19.781,19.781
			c0,10.925-8.856,19.781-19.781,19.781S516.539,671.749,516.539,660.824L516.539,660.824z"/>
	</g>
</g>
<g id="GUIDE">
</g>
</svg>
