<?xml version="1.0" encoding="utf-8"?>
<!-- Generator: Adobe Illustrator 26.3.1, SVG Export Plug-In . SVG Version: 6.00 Build 0)  -->
<svg version="1.1" xmlns="http://www.w3.org/2000/svg" xmlns:xlink="http://www.w3.org/1999/xlink" x="0px" y="0px"
	 viewBox="0 0 708.661 708.662" enable-background="new 0 0 708.661 708.662" xml:space="preserve">
<g id="Layer_1">
</g>
<g id="GUIDE">
	<path fill="#FFFFFF" d="M587.558,350.737l-6.344-6.506c-5.539-5.655-11.063-11.288-16.711-16.811l-0.928-0.828
		c-7.706-7.427-16.339-13.755-26.443-19.411l-7.644-4.077c-10.475-5.23-26.227-12.734-41.746-17.454l-3.698-0.959
		c-14.359-3.613-32.725-4.448-54.558-2.553l-4.642,0.511c-6.282,0.805-12.549,1.741-18.815,2.677
		c-15.643,2.344-31.828,4.766-48.191,4.936l-5.694-0.101c-13.268-0.294-26.312-2.275-37.816-4.031l-3.768-0.464
		c-9.872-1.315-20.386-1.416-31.263-0.302l-4.41,0.364l-0.325-3.946l4.418-0.371c11.102-1.145,21.941-1.037,32.114,0.325
		l3.752,0.472c11.465,1.741,24.37,3.706,37.398,3.992l5.57,0.101c16.076-0.17,32.122-2.569,47.626-4.889
		c6.297-0.944,12.595-1.88,18.939-2.692l4.704-0.518c22.358-1.965,41.143-1.075,55.904,2.646l3.853,0.998
		c15.86,4.82,31.812,12.425,42.442,17.724l7.814,4.17c10.367,5.81,19.264,12.34,27.186,19.96l0.928,0.82
		c5.725,5.609,11.28,11.272,16.835,16.935l6.39,6.545L587.558,350.737z"/>
	<path fill="#FFFFFF" d="M535.77,354.675l-6.452-5.988c-2.166-1.988-4.317-4.023-6.483-6.05c-4.812-4.549-9.81-9.253-15.009-13.477
		l-1.95-1.601c-12.765-9.996-30.172-18.877-53.242-27.163l-7.551-2.36c-13.26-4.062-27.31-5.593-40.586-4.448l-3.744,0.309
		c-7.303,0.812-14.606,2.081-20.146,3.102l-16.881,3.009c-7.535,1.307-15.318,2.661-23.055,3.559l-1.88,0.209
		c-12.518,1.447-25.492,0.836-40.849-1.888l-7.574-1.416c-3.04-0.588-6.081-1.215-9.114-1.841
		c-8.069-1.671-16.409-3.396-24.695-4.325l-3.698-0.356c-8.851-0.696-17.353,0.116-26.35,0.975l-3.087,0.325l-1.23-3.791
		l2.669-0.356l1.269-0.124c8.781-0.836,17.879-1.71,27.047-0.975l3.814,0.371c8.471,0.944,16.904,2.685,25.058,4.371
		c3.025,0.627,6.042,1.253,9.075,1.841l7.497,1.4c14.978,2.661,27.596,3.265,39.719,1.857l1.888-0.217
		c7.613-0.882,15.341-2.228,22.815-3.528l16.881-3.009c5.57-1.021,12.966-2.305,20.44-3.133l3.791-0.317
		c13.848-1.168,28.362,0.41,42.071,4.603l7.675,2.398c23.534,8.448,41.313,17.539,54.418,27.797l2.042,1.663
		c5.276,4.301,10.32,9.052,15.194,13.655c2.135,2.011,4.286,4.031,6.452,6.011l6.452,5.996L535.77,354.675z"/>
	<path fill="#FFFFFF" d="M639.547,346.931l-2.244-2.027c-21.879-19.705-43.03-34.443-64.63-45.057l-11.326-5.439
		c-10.413-4.913-21.182-9.996-32.277-12.959l-3.775-0.975c-15.148-3.466-28.95-5.501-41.034-6.027l-3.698-0.155h-5.57
		c-21.91,0.642-43.897,1.717-65.157,2.754l-5.617,0.155c-13.709,0.317-26.227-0.774-40.787-3.574l-1.006-0.217
		c-9.261-1.694-18.328-2.638-26.134-3.396l-9.841-1.037l0.402-3.946l9.849,1.037c7.86,0.766,17.028,1.725,26.049,3.404l1.485,0.279
		c14.22,2.731,26.459,3.83,39.889,3.489l5.508-0.155c21.291-1.037,43.293-2.112,65.296-2.754l9.531,0.155
		c12.286,0.542,26.35,2.607,41.762,6.135l3.868,1.006c11.435,3.048,22.374,8.208,32.942,13.198l11.373,5.462
		c21.941,10.777,43.386,25.716,65.559,45.676l2.336,2.135L639.547,346.931z"/>
	<path fill="#FFFFFF" d="M225.824,414.076l-2.723-2.878l1.981-1.872c28.958-27.851,60.345-57.026,97.333-80.769l7.52-4.704
		c60.097-36.462,131.087-54.179,200.127-49.769l6.034,0.464l-0.34,3.946l-5.957-0.464c-68.127-4.294-138.39,13.152-197.799,49.204
		l-7.45,4.657c-36.686,23.55-67.903,52.585-96.737,80.297L225.824,414.076z"/>
	<path fill="#FFFFFF" d="M278.238,434.825l-2.862-2.754l2.259-2.398c5.16-5.508,10.32-11.125,15.527-16.788
		c30.961-33.654,62.975-68.46,102.408-90.432l5.648-3.033c39.441-20.633,83.461-27.526,113.448-29.677l7.535-0.426
		c23.302-0.859,45.382,1.006,65.513,5.516l0.913,0.201l-0.418,3.915l-1.346-0.248c-19.805-4.425-41.483-6.228-64.491-5.423
		l-7.427,0.41c-29.615,2.128-73.063,8.92-111.885,29.236l-5.57,2.994c-38.868,21.662-70.665,56.221-101.41,89.658
		c-5.214,5.663-10.382,11.28-15.535,16.788L278.238,434.825z"/>
	<path fill="#FFFFFF" d="M330.591,448.023l-2.785-2.816l2.406-2.569c16.641-17.949,34.861-35.851,54.109-53.165l0.959-0.851
		c20.347-18.072,45.552-38.087,78.247-49.56l15.148-4.82c18.057-5.369,36.996-8.1,54.774-10.251l7.504-0.89
		c12.889-1.269,27.341-2.553,41.607-2.615h2.847c21.198,0.031,38.094,1.478,53.165,4.565l2.599,0.603l-1.021,3.822l-2.414-0.549
		c-14.761-3.025-31.41-4.448-52.33-4.479h-2.862c-0.402,0-0.805,0-1.207,0c-13.554,0-27.573,1.369-39.967,2.592l-7.443,0.882
		c-17.608,2.128-36.346,4.835-54.171,10.127l-14.916,4.75c-32.06,11.241-56.879,30.969-76.932,48.794l-0.944,0.836
		c-19.156,17.221-37.29,35.046-53.869,52.933L330.591,448.023z"/>
	<path fill="#FFFFFF" d="M432.086,393.218l-10.676-7.721c-4.657-3.404-9.469-6.916-14.359-10.119l-3.868-2.414
		c-11.202-7.079-21.863-11.396-35.681-14.429l-4.704-1.044c-6.561-1.191-13.245-2.661-19.705-4.093
		c-6.212-1.369-12.641-2.785-18.985-3.953l-7.489-1.137c-10.251-1.416-20.842-2.019-31.077-2.599l-6.251-0.395
		c-15.164-0.959-26.946-3.009-38.218-6.653l-3.814-1.253c-8.526-2.979-17.051-6.305-25.291-9.516
		c-7.945-3.095-16.161-6.297-24.323-9.175l-11.357-3.613c-11.048-3.187-23.627-5.361-36.361-6.274l-2.723-0.093
		c-4.224-0.139-8.928,0.232-14.529,1.068l-3.42,0.48l-0.526-3.93l3.427-0.472c5.764-0.866,10.599-1.23,15.148-1.106l2.862,0.101
		c13.044,0.936,25.909,3.156,37.236,6.429l11.512,3.667c8.27,2.909,16.517,6.12,24.494,9.23c8.208,3.203,16.695,6.514,25.128,9.454
		l3.752,1.23c10.947,3.543,22.436,5.539,37.243,6.475l6.236,0.395c10.313,0.588,20.989,1.191,31.426,2.63l7.566,1.153
		c6.483,1.191,12.943,2.615,19.194,3.992c6.421,1.416,13.067,2.886,19.635,4.077l4.766,1.06
		c14.096,3.095,25.499,7.706,36.934,14.939l3.899,2.445c4.998,3.265,9.872,6.824,14.56,10.259l10.692,7.721L432.086,393.218z"/>
	<path fill="#FFFFFF" d="M120.963,365.282l-2.584-3.002l2.414-2.05c16.896-14.839,32.331-24.904,50.016-32.609l3.768-1.571
		c25.298-10.406,53.041-15.055,79.871-19.55l18.235-3.002c30.319-4.789,57.103-10.614,84.281-18.312l11.605-3.118
		c19.79-5.183,40.245-10.545,60.994-12.819l1.625-0.116v3.961l-1.191,0.093c-20.455,2.244-40.771,7.566-60.422,12.719L358.009,289
		c-27.302,7.744-54.225,13.593-84.691,18.413l-18.212,2.994c-26.613,4.456-54.14,9.067-79.013,19.303l-3.729,1.555
		c-17.268,7.52-32.385,17.392-48.995,31.975L120.963,365.282z"/>
	<path fill="#FFFFFF" d="M173.316,388.669l-2.507-3.064l2.63-2.275c10.816-9.624,22.219-17.995,34.806-25.561l5.64-3.296
		c22.057-12.579,46.055-21.747,69.257-30.613c4.487-1.71,8.974-3.427,13.446-5.168l15.032-5.717
		c32.64-12.262,64.654-23.968,97.735-32.594l7.504-1.926c24.989-5.973,45.738-8.897,65.327-9.222h1.346v3.961h-1.315
		c-19.248,0.317-39.735,3.211-64.414,9.106l-7.443,1.911c-32.911,8.587-64.816,20.254-97.325,32.462l-15.04,5.725
		c-4.448,1.733-8.943,3.45-13.438,5.168c-23.07,8.812-46.914,17.925-68.692,30.335l-5.601,3.273
		c-12.355,7.427-23.558,15.659-34.234,25.159L173.316,388.669z"/>
	<polygon fill="#FFFFFF" points="516.537,358.551 515.857,354.652 516.491,354.543 517.172,358.443 	"/>
	<path fill="#FFFFFF" d="M406.246,412.033l-3.002-1.841c-5.942-3.652-12.61-7.767-19.264-11.357l-3.806-2.027
		c-9.841-5.044-19.976-8.897-30.118-11.435l-1.926-0.542l-9.415-2.321c-8.27-1.733-16.556-3.992-24.563-6.158
		c-6.212-1.687-12.626-3.435-19.009-4.92l-3.768-0.882c-4.889-1.099-9.771-2.151-14.645-3.203c-6.475-1.4-12.951-2.801-19.419-4.294
		l-15.225-3.876c-10.816-2.94-21.206-6.708-32.694-11.852l-2.855-1.246c-12.819-5.818-24.958-10.839-37.135-15.357l-15.156-5.168
		c-11.411-3.698-21.801-6.004-31.766-7.048l-3.644-0.248c-7.466-0.279-15.225,0.015-22.97,0.921l-1.748,0.209l-0.983,0.062
		l-0.217-3.961l2.05-0.201c8.402-0.975,16.332-1.3,24.053-0.99l3.83,0.263c10.29,1.083,20.935,3.443,32.602,7.218l15.295,5.214
		c12.293,4.565,24.525,9.624,37.414,15.473l2.824,1.23c11.326,5.067,21.531,8.773,32.153,11.667l15.102,3.845
		c6.414,1.478,12.874,2.87,19.326,4.263c4.889,1.06,9.779,2.12,14.661,3.211l3.845,0.897c6.421,1.501,12.874,3.249,19.117,4.951
		c7.953,2.151,16.185,4.394,24.416,6.127l11.465,2.893c10.398,2.584,20.811,6.545,30.899,11.729l3.915,2.073
		c6.731,3.652,13.461,7.783,19.388,11.435l3.079,1.872L406.246,412.033z"/>
	<polygon fill="#FFFFFF" points="517.961,358.303 516.94,354.482 518.301,354.18 518.982,358.079 	"/>
	<path fill="#FFFFFF" d="M561.625,352.176l-6.112-6.019c-2.151-2.066-4.301-4.17-6.437-6.274c-4.425-4.34-8.99-8.82-13.694-12.966
		l-0.897-0.75c-13.059-11.605-30.946-20.362-48.337-28.114l-7.582-3.095c-13.972-5.454-26.01-8.092-39.023-8.541l-3.683-0.054
		c-12.022-0.209-24.509,1.493-35.031,3.095l-9.237,1.509l-7.504,1.331c-19.774,3.536-38.412,6.885-59.965,4.247l-9.446-1.145
		c-4.34-0.603-8.673-1.315-12.997-2.019c-6.205-1.013-12.618-2.066-18.954-2.77l-3.744-0.302
		c-9.887-0.789-19.914,0.224-27.526,1.191l-1.903,0.209l-1.083-3.868l2.522-0.271c7.752-1.006,18.018-2.019,28.316-1.207
		l3.799,0.309c6.491,0.719,12.959,1.772,19.217,2.801c4.294,0.696,8.587,1.4,12.897,1.996l9.361,1.145
		c21.012,2.569,38.512-0.565,58.813-4.216l16.866-2.855c10.645-1.625,23.318-3.18,35.619-3.141l3.791,0.054
		c13.492,0.464,25.933,3.187,40.369,8.827l7.659,3.126c17.747,7.907,35.959,16.835,49.328,28.718l1.006,0.836
		c4.75,4.201,9.361,8.719,13.817,13.09c2.135,2.097,4.255,4.185,6.421,6.251l6.174,6.073L561.625,352.176z"/>
	<path fill="#FFFFFF" d="M304.488,442.329l-2.924-2.661l4.224-4.595c4.464-4.889,8.905-9.825,13.345-14.746
		c12.169-13.508,24.757-27.48,37.855-40.57l1.872-1.872c20.974-20.819,44.957-41.87,78.224-54.821l9.5-3.567
		c22.513-7.613,46.759-11.349,71.686-14.815l7.566-0.936c11.837-1.424,22.08-2.004,32.23-1.888l2.832,0.054
		c18.614,0.248,35.928,2.839,51.479,7.69l2.677,0.774l-1.114,3.799l-2.677-0.774c-15.256-4.758-32.184-7.28-50.395-7.528
		l-2.832-0.054c-10.026-0.155-20.068,0.456-31.72,1.857l-7.52,0.936c-24.71,3.427-48.755,7.133-70.959,14.645l-9.284,3.481
		c-32.632,12.711-56.229,33.445-76.901,53.962l-1.865,1.872c-13.028,12.997-25.577,26.923-37.708,40.4
		c-4.448,4.936-8.897,9.872-13.376,14.777L304.488,442.329z"/>
	<path fill="#FFFFFF" d="M458.019,377.668l-1.362-1.083c-3.234-2.522-6.437-5.122-9.64-7.721
		c-14.173-11.465-28.826-23.333-46.806-28.354l-5.663-1.617c-4.982-1.277-10.212-2.275-15.287-3.234
		c-2.429-0.464-4.858-0.928-7.272-1.416l-1.903-0.426c-11.055-2.329-23.016-4.51-35.394-4.634l-3.721-0.054l-5.462,0.155
		c-4.603,0.224-9.206,0.58-13.817,0.936c-15.264,1.168-31.023,2.375-46.512-1.137l-5.717-1.315
		c-10.46-2.538-20.827-6.228-30.853-9.802c-7.35-2.623-14.955-5.33-22.498-7.543l-7.566-2.174c-14.8-4.1-27.426-5.81-40.787-5.392
		l-12.68,0.627l-0.248-3.961l12.819-0.627c13.887-0.302,26.768,1.338,41.947,5.532l7.636,2.197
		c7.644,2.236,15.303,4.967,22.707,7.613c9.934,3.536,20.2,7.195,30.474,9.686l5.64,1.292c14.893,3.396,30.358,2.213,45.336,1.052
		c4.642-0.356,9.284-0.712,13.91-0.944l7.543-0.155l1.926,0.054c12.68,0.132,24.873,2.344,36.153,4.727l1.903,0.418
		c2.352,0.48,4.766,0.936,7.179,1.4c5.122,0.975,10.429,1.981,15.566,3.296l5.74,1.64c18.738,5.23,33.716,17.361,48.198,29.089
		c3.187,2.576,6.375,5.16,9.593,7.667l0.99,0.774L458.019,377.668z"/>
	<path fill="#FFFFFF" d="M380.205,432.21l-0.155-0.108l-3.76-1.702c-9.593-4.503-18.003-7.767-26.474-10.29l-7.543-2.244
		c-4.518-1.207-9.09-2.383-13.663-3.543c-4.278-1.083-8.557-2.182-12.827-3.311l-15.249-4.332
		c-16.192-5.044-32.014-10.32-49.537-16.216l-7.659-2.816c-14.599-5.431-28.803-11.28-42.226-17.376l-9.624-4.557
		c-25.329-13.005-52.175-23.418-79.84-30.985l-2.816-0.735c-13.376-2.948-25.275-4.758-39.286-3.783l-2.313,0.17l-0.232-3.961
		l1.872-0.108c14.9-1.037,27.109,0.781,40.918,3.845l2.862,0.743c27.967,7.644,55.076,18.165,80.606,31.271l9.516,4.495
		c13.314,6.05,27.434,11.868,41.939,17.268l7.597,2.801c17.446,5.864,33.251,11.125,49.382,16.154l15.094,4.286
		c4.271,1.145,8.533,2.228,12.804,3.311c4.588,1.176,9.175,2.336,13.748,3.559l7.613,2.259c8.665,2.584,17.245,5.926,27.008,10.506
		l4.348,2.042L380.205,432.21z"/>
	<path fill="#FFFFFF" d="M68.642,348.455l-2.522-3.064l2.081-1.663c14.606-11.295,28.292-19.504,44.423-26.66l1.88-0.882
		c33.855-14.978,69.621-19.952,100.149-22.854l7.458-0.774c25.144-2.29,52.051-5.299,78.688-11.767l7.559-1.772
		c5.346-1.331,10.676-2.715,15.991-4.085c17.013-4.41,34.605-8.959,52.685-11.713l1.501-0.232l0.619,3.884l-1.393,0.24
		c-18.01,2.746-34.729,7.071-52.422,11.651c-5.323,1.377-10.669,2.762-16.053,4.1l-7.566,1.779
		c-26.869,6.53-53.954,9.555-79.214,11.852l-7.45,0.774c-30.234,2.87-65.613,7.791-98.95,22.536l-1.787,0.843
		c-15.914,7.056-29.352,15.117-43.641,26.173L68.642,348.455z"/>
	<path fill="#FFFFFF" d="M94.721,355.928l-2.445-3.126l2.298-1.826c14.637-11.875,31.077-24.084,51.865-32.687l3.744-1.547
		c29.538-11.69,61.683-15.604,92.776-19.388l11.048-1.307c29.399-3.195,59.339-8.471,88.985-15.674l1.903-0.426
		c5.949-1.3,11.914-2.715,17.887-4.131c12.332-2.924,25.082-5.949,37.646-7.961l4.271-0.634l0.526,3.93l-4.209,0.627
		c-12.378,1.973-25.051,4.982-37.321,7.891c-5.996,1.424-11.976,2.839-17.941,4.147l-1.865,0.418
		c-29.778,7.234-59.888,12.533-89.449,15.751l-11.009,1.307c-30.838,3.752-62.727,7.628-91.762,19.117l-3.714,1.54
		c-20.324,8.41-36.485,20.417-50.922,32.13L94.721,355.928z"/>
	<path fill="#FFFFFF" d="M483.92,366.496l-6.499-5.516c-2.522-2.104-5.013-4.255-7.504-6.414c-2.723-2.36-5.446-4.712-8.216-7.001
		l-3.806-3.033c-12.038-9.462-22.807-15.28-36.006-19.449l-11.589-3.211c-9.748-2.406-19.836-4.897-29.708-6.29l-3.683-0.464
		c-10.026-1.222-20.533-1.075-31.248,0.464l-8.216,1.253c-9.849,1.555-19.148,3.033-29.02,3.706l-3.729,0.209
		c-14.405,0.418-27.882-1.393-43.943-6.004l-17.144-5.106c-10.514-3.172-19.782-5.717-28.354-7.775l-3.714-0.828
		c-5.547-1.083-10.243-1.671-14.73-1.826l-2.739-0.054c-6.468,0.015-13.036,0.139-19.504,0.317l-3.52,0.093l-0.263-3.946
		l3.729-0.108c6.46-0.17,13.059-0.364,19.566-0.317l2.801,0.054c4.766,0.162,9.663,0.774,15.473,1.911l3.799,0.843
		c8.673,2.089,18.018,4.65,28.602,7.845l17.113,5.098c15.62,4.495,28.679,6.313,42.659,5.841l3.652-0.201
		c9.671-0.665,18.885-2.12,28.648-3.667l8.232-1.253c11.11-1.586,21.979-1.756,32.3-0.48l3.791,0.472
		c10.057,1.423,20.254,3.938,30.095,6.367l11.821,3.273c13.709,4.332,24.85,10.344,37.274,20.115l3.884,3.095
		c2.801,2.313,5.539,4.688,8.278,7.063c2.476,2.135,4.951,4.278,7.458,6.367l6.499,5.524L483.92,366.496z"/>
	<path fill="#FFFFFF" d="M147.206,376.244l-2.615-2.971l1.516-1.377c36.168-33.924,74.456-43.618,118.786-54.844
		c4.332-1.099,8.75-2.213,13.237-3.373l7.504-1.926c19.689-5.075,36.857-9.748,52.484-14.289l7.466-2.228
		c6.839-1.996,13.632-4.116,20.417-6.236c9.299-2.901,18.892-5.895,28.439-8.51l11.28-3.025c19.217-4.951,35.186-7.45,50.225-7.868
		l1.408-0.046v3.961l-1.253,0.046c-14.792,0.402-30.466,2.862-49.405,7.744l-11.202,3.009c-9.485,2.592-19.047,5.578-28.316,8.471
		c-6.808,2.128-13.616,4.255-20.455,6.251l-7.504,2.236c-15.659,4.549-32.865,9.23-52.6,14.32l-7.512,1.926
		c-4.479,1.16-8.897,2.275-13.245,3.381c-45.599,11.543-81.62,20.664-117.053,53.892L147.206,376.244z"/>
	<path fill="#FFFFFF" d="M613.522,349.383l-3.528-3.628c-14.622-15.349-32.493-32.478-54.186-43.262l-7.938-3.946
		c-13.523-6.305-27.511-12.827-41.39-16.572l-3.698-0.866c-12.966-2.615-28.13-4.062-42.643-4.062c-0.046,0-0.077,0-0.124,0
		l-8.294,0.309c-8.881,0.704-17.809,1.563-26.753,2.422c-12.843,1.23-26.134,2.507-39.239,3.303l-11.28,0.317
		c-12.115-0.062-22.722-1.277-35.998-3.458l-1.926-0.317c-10.994-1.965-21.244-2.213-33.352-2.004l-2.483,0.054v-3.961l2.329-0.054
		c12.409-0.186,22.892,0.046,34.18,2.058l1.895,0.309c13.059,2.158,23.318,3.427,35.309,3.412l11.125-0.317
		c13.013-0.781,26.258-2.058,39.054-3.288c8.974-0.859,17.933-1.717,26.892-2.429l8.541-0.317c0.046,0,0.077,0,0.124,0
		c14.777,0,30.203,1.47,43.448,4.147l3.884,0.913c14.251,3.837,29.027,10.73,42.071,16.811l8.061,4
		c22.204,11.048,40.384,28.462,55.254,44.044l3.543,3.644L613.522,349.383z"/>
	<path fill="#FFFFFF" d="M199.651,401.543l-2.723-2.878l2.808-2.553c19.032-17.144,38.365-31.836,59.107-44.887l7.45-4.634
		c20.927-12.579,43.688-24.401,67.663-35.139l15.032-6.522c34.775-14.498,67.733-24.61,97.967-30.041l7.52-1.307
		c20.471-3.102,37.027-4.147,52.175-3.141l3.187,0.147l-0.186,3.961l-3.234-0.155c-14.854-0.936-31.147,0.046-51.324,3.102
		l-7.427,1.292c-29.956,5.385-62.65,15.411-97.147,29.793l-14.947,6.491c-23.836,10.669-46.45,22.413-67.215,34.899l-7.412,4.611
		c-20.54,12.92-39.704,27.48-58.573,44.485L199.651,401.543z"/>
	<path fill="#FFFFFF" d="M509.807,359.147l-4.549-4.085c-2.12-1.872-4.224-3.775-6.344-5.679
		c-11.682-10.529-23.751-21.422-38.048-28.362l-5.74-2.685c-15.69-6.684-33.53-12.046-48.895-14.684l-3.714-0.503
		c-10.15-1.315-20.44-1.075-30.621,0.665l-2.445,0.379c-3.358,0.596-6.824,1.238-10.313,1.888
		c-21.082,3.899-42.876,7.953-64.569,4.712l-5.655-0.882c-9.145-1.671-18.281-3.969-27.116-6.189
		c-7.257-1.826-14.761-3.714-22.173-5.222l-3.729-0.665c-9.168-1.733-17.771-1.57-25.739-1.122l-13.167,0.627l-0.217-3.961
		l13.191-0.627c8.185-0.441,17.098-0.619,26.629,1.176l3.806,0.689c7.512,1.532,15.063,3.427,22.366,5.261
		c8.773,2.213,17.84,4.487,26.83,6.127l5.539,0.866c21.028,3.149,42.52-0.828,63.277-4.688c3.505-0.642,6.986-1.292,10.467-1.903
		l2.012-0.34c10.924-1.826,21.662-2.058,32.137-0.72l3.806,0.518c15.721,2.7,33.87,8.154,49.885,14.97l5.88,2.754
		c14.792,7.179,27.078,18.258,38.976,28.973c2.104,1.903,4.193,3.799,6.313,5.663l4.611,4.139L509.807,359.147z"/>
	<path fill="#FFFFFF" d="M252.027,425.386l-2.785-2.816l3.187-3.296c25.298-26.644,51.455-54.217,81.109-77.605l11.249-8.471
		c28.052-20.123,57.668-34.249,90.548-43.185l7.597-1.942c36.098-8.998,74.038-11.427,109.781-6.955l9.686,1.362l-0.619,3.915
		l-9.547-1.346c-35.325-4.41-72.738-2.027-108.342,6.87l-7.52,1.919c-32.4,8.812-61.613,22.738-89.263,42.574l-11.125,8.379
		c-29.422,23.209-54.326,49.436-80.684,77.226L252.027,425.386z"/>
	<path fill="#FFFFFF" d="M355.905,452.743l-3.891-0.588c-27.24-3.497-52.275-9.067-76.452-17.02l-2.391-0.774
		c-27.681-9.145-53.707-21.585-77.991-33.53l-6.437-3.234c-21.043-10.46-42.806-21.26-65.064-30.11l-2.445-0.975
		c-23.883-9.787-48.013-16.425-76.901-23.387l-8.943-2.251l7.381-3.505c35.642-16.602,68.004-30.93,103.096-38.071l1.246-0.217
		c17.322-3.373,35.193-4.65,52.469-5.887c7.133-0.511,14.258-1.021,21.376-1.679l1.787-0.162l0.201,3.961l-1.555,0.139
		c-7.21,0.665-14.367,1.176-21.523,1.687c-17.16,1.23-34.907,2.507-52.036,5.833l-1.23,0.217
		c-33.739,6.87-65.126,20.564-99.491,36.532c28.23,6.839,52.012,13.454,75.601,23.109l2.452,0.998
		c22.389,8.889,44.229,19.736,65.342,30.226l6.421,3.218c24.161,11.899,50.04,24.262,77.427,33.298l2.476,0.805
		c23.898,7.86,48.701,13.384,75.779,16.866l2.22,0.356l0.619-0.449c9.098-6.932,17.995-13.91,26.583-20.656
		c15.272-12.007,31.07-24.401,47.347-35.619l1.207-0.851c23.766-16.247,46.372-26.768,71.129-33.112l3.002-0.774
		c29.399-7.28,58.271-8.595,88.83-9.996l6.143-0.271c12.347-0.627,25.128-1.277,37.708-2.901l1.253-0.162
		c6.731-0.866,13.585-2.027,20.223-3.156l1.733-0.294c-17.453-8.951-33.762-18.119-49.653-27.905l-2.46-1.485
		c-15.798-9.439-30.141-17.771-45.846-24.177l-3.002-1.153c-23.287-9.083-53.119-13.222-89.294-12.332h-0.82
		c-28.083,0.603-49.142-0.186-68.143-2.569l-9.686-1.47c-12.255-1.872-24.602-4.75-37.793-8.796l-1.238-0.364
		c-1.408,0.526-2.832,1.013-4.255,1.501c-1.338,0.464-2.677,0.921-4,1.423l-6.12,2.12c-1.601,0.534-3.203,1.075-4.789,1.64
		l-19.341,6.483c-5.098,1.717-10.197,3.435-15.295,5.129l-6.383,2.128c-24.803,7.992-46.566,12.649-68.522,14.668l-0.704,0.062
		l-0.309-3.961l0.836-0.054c21.476-1.981,42.968-6.584,67.439-14.475l6.352-2.112c5.137-1.71,10.228-3.427,15.318-5.145
		l19.333-6.475c1.555-0.549,3.18-1.099,4.804-1.64l6.011-2.089c1.338-0.503,2.715-0.975,4.085-1.447
		c1.594-0.549,3.195-1.099,4.766-1.71l0.673-0.255l2.545,0.797c12.959,3.977,25.12,6.816,37.143,8.665l9.624,1.447
		c18.784,2.344,39.626,3.164,67.601,2.538h0.82c36.47-0.82,66.998,3.334,90.687,12.564l3.172,1.222
		c15.937,6.506,30.42,14.908,46.357,24.424l2.522,1.532c16.974,10.46,34.458,20.223,53.444,29.832l1.222,0.634l6.39,2.909
		l-9.624,1.323l-0.186-0.031l-4.75,0.805c-6.669,1.13-13.57,2.305-20.455,3.187l-1.114,0.147
		c-12.796,1.648-25.654,2.305-38.094,2.94l-6.143,0.263c-30.373,1.393-59.045,2.7-88.026,9.872l-2.986,0.774
		c-24.323,6.228-46.527,16.579-69.907,32.563l-1.145,0.789c-16.216,11.187-31.967,23.55-47.193,35.51
		c-8.603,6.762-17.515,13.755-26.405,20.455L355.905,452.743z"/>
	<path fill="#FFFFFF" d="M519.632,357.978l-0.712-3.899l7.04-1.253c21.77-3.559,44.129-4.588,65.745-5.578
		c4.487-0.209,8.99-0.41,13.477-0.642l3.729-0.209c19.666-0.75,39.441-3.853,56.182-6.785l0.913-0.116l0.495,3.93l-0.82,0.101
		c-16.773,2.94-36.702,6.065-56.585,6.831l-3.714,0.209c-4.503,0.224-9.005,0.433-13.492,0.642
		c-21.507,0.983-43.742,2.004-65.265,5.524L519.632,357.978z"/>
</g>
</svg>
