<?xml version="1.0" encoding="utf-8"?>
<!-- Generator: Adobe Illustrator 27.5.0, SVG Export Plug-In . SVG Version: 6.00 Build 0)  -->
<svg version="1.1" id="Layer_2_00000003068895022785429670000002216569966950433215_"
	 xmlns="http://www.w3.org/2000/svg" xmlns:xlink="http://www.w3.org/1999/xlink" x="0px" y="0px" viewBox="0 0 675 675"
	 style="enable-background:new 0 0 675 675;" xml:space="preserve">
<style type="text/css">
	.st0{fill:#FFFFFF;}
</style>
<path class="st0" d="M491.9,571c0,7.8-6,13.8-13.8,13.9H254.8c-6.2,0-10.1-2.7-12.2-8.5c-0.7-1.9-1.2-4-1.5-6
	c-1-6.3-0.7-12.7-0.4-19c0.1-2.5,0.2-4.9,0.4-7.6c0.3,0.3,0.4,0.5,0.6,0.6c3.2,4.8,7.8,6.6,13.4,6.4c0.5,0,1-0.1,1.6-0.1
	c19.8,0,39.6,0,59.4,0c12,0,24.1,0,36.1,0.1c10.2,0,20.4,0.1,30.6,0.1c21.6,0,43.3,0,64.9,0c8,0,16.1-0.1,24.1-0.2
	c8.2-0.1,15.8-7.6,15.5-15.8c-0.2-5.4-0.8-10.8-1.5-16.2c-0.2-1.9-0.5-3.7-0.7-5.6c0.3,0.9,0.6,1.8,0.8,2.7
	c3.1,10.4,4.9,21.2,5.4,32.1c0.1,3.1,0.3,6.1,0.4,9.2C491.9,561.6,491.9,566.3,491.9,571z"/>
<path class="st0" d="M472.3,547.6c-3,0.3-6,0.2-9,0.2c-22.3,0-44.6,0.1-67,0.1c-14.1,0-28.2,0-42.4-0.1c-5.8,0-11.5,0-17.3,0
	c-26.8,0-53.5,0-80.3,0c-1.8,0-3.6,0-5.4-0.3c-3.7-0.7-6.2-3.1-7.8-6.4c-1.8-3.9-2.6-8-2.6-12.2c-0.1-7.3,0.1-14.7,0.2-22
	c0.1,0,0.2,0,0.4-0.1c0.1,0.2,0.3,0.3,0.4,0.5c2.8,4.4,7,6.4,12.1,6.5c2.4,0,4.8-0.1,7.2-0.1c33,0,65.9,0.1,98.9,0.1
	c27.1,0,54.2,0,81.3,0c5.9,0,11.8-0.1,17.8-0.1c9.8,0,17.2-8,16.4-17.8c-0.4-5.2-1.6-10.3-2.9-15.4c0.2,0.4,0.4,0.8,0.5,1.2
	c4.4,10,7.5,20.6,9,31.5c0,0.1,0,0.1,0,0.2c0.9,6.4,1.6,12.8,2.3,19.2C485.3,540.8,479.1,547,472.3,547.6z"/>
<path class="st0" d="M461,510.4c-1.5,0.3-3.1,0.2-4.7,0.2c-31.4,0-62.7,0.1-94.1,0.1c-24.3,0-48.6,0-72.8-0.1
	c-11.4,0-22.8-0.2-34.2,0c-7.7,0.1-11.4-3.8-13.2-10c-1.3-4.3-1.7-8.8-1.6-13.3c0-5.8,0.3-11.5,0.5-17.3c0-0.1,0.1-0.3,0.1-0.5
	c0.8,0.8,1.4,1.6,2.1,2.3c3.3,3.1,7.4,4.6,11.9,4.6c62.2,0,124.3,0,186.5,0c9,0,15.7-6.3,16.4-15.3c0.3-4.6-0.8-8.9-2.8-13.1
	c-1.7-3.6-3-7.5-4.4-11.2c-0.1-0.3-0.2-0.6-0.4-1c2.3,4.2,4.5,8.4,6.7,12.5c5.8,11.1,10.3,22.8,13.1,34.9c0,0.1,0,0.1,0,0.2
	c0.9,3.7,1.6,7.5,2.2,11.3C473.4,502.7,468.8,509,461,510.4z"/>
<path class="st0" d="M453.6,465.8c-2.3,5.2-6.5,7.4-12,7.6c-0.4,0-0.9,0-1.3,0H256.6c-9.2,0-14.5-4.5-16-13.7
	c-1-5.7-0.7-11.5-0.4-17.2c0.2-3.2,0.3-6.4,0.5-9.7c0.3,0.3,0.5,0.5,0.7,0.7c3.5,3.9,7.9,5.7,13,5.7c55.2,0,110.4,0,165.6,0
	c9.3,0,16.4-7.1,16.6-16.3c0.1-3.8-0.7-7.4-2.2-10.8c-2.8-6.2-5.5-12.5-8.3-18.8c1.2,2,2.4,4,3.5,6c7,11.9,12.9,24.4,17.8,37.3
	c0.3,0.9,0.7,1.7,1,2.6c1.5,4.1,3.2,8.1,4.9,12.1C455.3,456.2,455.7,461,453.6,465.8z"/>
<path class="st0" d="M433.2,426c-1.4,6-6.6,10.2-12.8,10.3c-0.4,0-0.7,0-1.1,0H255.7c-8.5,0-13.9-4.2-15.5-12.6
	c-0.7-3.8-0.9-7.8-1-11.8c-0.2-5.2,0-10.5,0-15.7c2.3,1.5,4.2,3.1,6.3,4.2c2.4,1.3,5.1,1.8,7.9,1.8H398c10.2,0,17.6-7.7,17.1-17.9
	c-0.1-1.1-0.3-2.3-0.7-3.4c-3-7.7-6.2-15.2-9.6-22.7c0.4,0.7,0.8,1.3,1.2,2c5,9.5,9.9,18.9,14.9,28.4c0,0.1,0,0.1,0.1,0.2
	c3.7,8.6,7.4,17.1,11.1,25.7C433.6,418.1,434.1,422,433.2,426z"/>
<path class="st0" d="M401,398.9c-0.9,0.2-1.9,0.2-2.9,0.2c-48,0-96.1,0-144.1,0c-8.1,0-13.3-4.1-15.3-11.9c-1.2-4.6-1.4-9.3-1.5-14
	c0-4.3-0.1-8.6-0.1-13c0-0.3,0-0.5,0.1-1c0.6,0.6,1.1,1.1,1.7,1.6c3.5,2.9,7.5,4.2,12.1,4.2c29.3,0,58.6,0,87.9,0
	c12.4,0,24.7,0,37.1,0c7.5,0,13.5-3.9,16.2-10.4c2-4.8,1.3-9.6-0.9-14.1c-3.1-6.3-6.1-12.6-9.2-18.9c0,0,0.1,0.1,0.1,0.1
	c4.2,7.7,11.1,20.4,15.3,28.1c2.9,6.2,5.8,12.5,8.6,18.8c1.8,4,3.1,8.2,5.1,12.1C414.2,386.9,410.3,397.3,401,398.9z"/>
<path class="st0" d="M246.2,176.8c-3.5-0.1-9.9-0.1-16.3-0.4c-3.2-0.2-6.5-0.8-9.7-1.6c-4.3-1.1-7.2-4-8.8-8.1
	c-1.6-4.2-2.4-8.6-3.1-13c-2.7-17.9-5.9-35.7-10.7-53.2c-3.2-11.7,5.3-24.3,17.3-25.9c9.3-1.3,16.7,2.1,21.6,10
	c14.6,23.8,29.2,47.5,42.5,72c3.1,5.6,1.5,14.7-5.8,18.3c-1.9,1-3.9,1.4-6,1.4C261.3,176.3,255.2,176.6,246.2,176.8z"/>
<path class="st0" d="M367.1,297.6c4.1,8.2,8.2,16.4,12.2,24.6c3.2,6.5,6.3,13.1,9.3,19.7c2.2,4.7,2.6,9.4-0.5,13.9
	c-3,4.4-7.2,6.3-12.5,6.3c-9.5,0-19,0.1-28.6,0.1c-3.5,0-7-0.1-10.4-0.1c-23.2,0-46.5-0.1-69.7-0.1c-5.2,0-10.4,0-15.6,0
	c-9.4,0.1-13.6-5.5-15.3-11.5c-1.4-4.7-1.7-9.5-1.9-14.3c-0.2-4.4-0.2-8.9-0.4-13.3c0-0.1,0-0.2,0.1-0.5c0.3,0.2,0.5,0.4,0.7,0.6
	c3.4,3.2,7.5,4.9,12.2,4.9c31.2,0,62.4,0,93.6,0.1c5,0,10,0,15,0c11.1,0,19.2-11.8,15.3-22.2c-0.9-2.3-2.1-4.6-3.2-6.8
	c-0.2-0.4-0.4-0.8-0.5-1.2C367,297.7,367,297.6,367.1,297.6z"/>
<path class="st0" d="M349.5,270.5c1.2,2.3,2.4,4.6,3.6,6.9c4.7,9.3,9.3,18.6,14,27.8c4.5,9-2.1,19.8-12.6,19.8
	c-19.6-0.1-39.2,0-58.8,0c-15.9,0-31.8-0.1-47.6-0.1c-8.2,0-13.3-3.9-15.6-11.8c-1.2-4-1.6-8.1-1.8-12.3c-0.2-4.8-0.4-9.7-0.5-14.5
	c0-0.2,0-0.5,0-0.9c0.3,0.2,0.4,0.3,0.6,0.4c3.4,3.3,7.6,4.9,12.4,4.9c29.9,0,59.8,0,89.6,0c10.8,0,18.5-9,16.8-19.7
	c0-0.2,0-0.4,0-0.5C349.4,270.5,349.5,270.5,349.5,270.5z"/>
<path class="st0" d="M225.5,248.3c3.3,3.3,7,4.8,11.2,5.2c0.5,0,1,0,1.6,0c24.1,0,48.2,0,72.4,0c10.1,0,17.5-7.7,17.1-17.8
	c0-0.2,0-0.4,0-0.8c0.3,0.4,0.4,0.6,0.5,0.9c5.9,11.4,11.8,22.8,17.6,34.3c1.5,2.9,0.9,6-0.2,8.9c-2,5.3-7.1,8.8-12.7,8.8
	c-30.1,0-60.2,0-90.2,0c-6,0-10.4-2.9-13-8.3c-1.9-3.9-2.6-8.1-3-12.4C226.3,260.9,225.9,254.8,225.5,248.3z"/>
<path class="st0" d="M305.9,198.9c0.5,0.9,0.9,1.5,1.2,2.1c5.4,9.9,10.8,19.8,16.2,29.8c4.7,8.7-2,19.8-11.9,19.8
	c-24.5,0-49,0.1-73.5,0c-6.1,0-10.4-3.2-13-8.7c-1.8-3.9-2.7-8.1-3.1-12.4c-0.6-5.9-1.1-11.8-1.7-17.8c0.2,0.1,0.3,0.1,0.4,0.2
	c3.6,3.9,8.3,5.1,13.3,5.1c6.7,0.1,13.4-0.3,20.1-0.4c9.5-0.2,19-0.3,28.5-0.5c2.3,0,4.6,0.1,6.8,0.2c6.6,0.2,11.3-3,14.6-8.6
	c1.4-2.4,2-5,2-7.7C305.8,199.8,305.8,199.5,305.9,198.9z"/>
<path class="st0" d="M283.9,162.8c0.3,0.4,0.4,0.7,0.6,0.9c5.4,9.6,10.8,19.2,16.2,28.8c2.3,4,2.8,8.1,1.1,12.4
	c-2.2,5.6-7.5,8.6-13.8,8.5c-9.4-0.2-18.9-0.1-28.3,0c-8.2,0.1-16.4,0.5-24.6,0.7c-2.1,0-4.1-0.3-6.2-0.7c-4.6-0.9-7.5-4-9.3-8.2
	c-1.9-4.4-3-9.1-3.9-13.8c-1.1-5.7-2.1-11.4-3.2-17.3c6,4.9,13,5.5,20,5.6c10.1,0.2,20.3-0.1,30.4-0.2c2.6,0,5.2,0.1,7.6-0.4
	c7.3-1.5,12.4-7.5,13-15C283.8,163.6,283.8,163.3,283.9,162.8z"/>
</svg>
