<?xml version="1.0" encoding="utf-8"?>
<!-- Generator: Adobe Illustrator 26.3.1, SVG Export Plug-In . SVG Version: 6.00 Build 0)  -->
<svg version="1.1" xmlns="http://www.w3.org/2000/svg" xmlns:xlink="http://www.w3.org/1999/xlink" x="0px" y="0px"
	 viewBox="0 0 1417.323 1417.323" enable-background="new 0 0 1417.323 1417.323" xml:space="preserve">
<g id="Layer_1">
</g>
<g id="GUIDE">
</g>
<g id="Default">
	<polygon fill="#FFFFFF" points="612.387,1301.98 114.524,1301.98 114.524,695.06 	"/>
	<polygon fill="#FFFFFF" points="803.297,1301.98 1301.16,1301.98 1301.16,695.06 	"/>
	<path fill="#FFFFFF" d="M707.446,988.109c-45.108,0-89.719-6.989-133.124-20.895c-52.75-16.898-101.212-43.28-144.041-78.412
		c-42.825-35.13-78.171-77.496-105.058-125.921c-29.194-52.582-46.992-109.589-52.901-169.438
		c-5.909-59.852,0.398-119.241,18.749-176.52c16.898-52.75,43.28-101.211,78.412-144.04
		c35.131-42.825,77.498-78.171,125.922-105.058c52.581-29.193,109.588-46.992,169.438-52.901
		c59.854-5.907,119.244,0.399,176.52,18.748c52.754,16.901,101.216,43.283,144.041,78.414
		c42.821,35.128,78.168,77.494,105.058,125.921c29.193,52.582,46.992,109.589,52.9,169.438
		c5.909,59.853-0.398,119.243-18.747,176.519c-16.9,52.753-43.282,101.215-78.413,144.04
		c-35.127,42.823-77.493,78.17-125.922,105.059c-52.578,29.193-109.586,46.991-169.438,52.9
		C736.343,987.394,721.867,988.109,707.446,988.109z M708.197,160.34c-12.858,0-25.754,0.637-38.682,1.913
		c-53.345,5.267-104.157,21.131-151.024,47.152c-43.163,23.965-80.925,55.47-112.238,93.642
		c-31.313,38.173-54.828,81.369-69.891,128.386c-16.355,51.055-21.978,103.991-16.71,157.338
		c5.267,53.345,21.131,104.157,47.152,151.024c23.965,43.163,55.47,80.925,93.641,112.238
		c38.174,31.313,81.37,54.828,128.387,69.891c51.057,16.355,103.993,21.979,157.336,16.711
		c53.349-5.268,104.161-21.132,151.025-47.152c43.165-23.966,80.928-55.472,112.237-93.642c0.001,0,0.001,0,0.001-0.001
		c31.312-38.17,54.827-81.366,69.892-128.386c16.354-51.052,21.977-103.988,16.71-157.336
		c-5.267-53.346-21.131-104.158-47.152-151.025c-23.967-43.165-55.473-80.927-93.642-112.238
		c-38.171-31.312-81.366-54.828-128.387-69.892C788.172,166.571,748.402,160.34,708.197,160.34z"/>
</g>
</svg>
