<?xml version="1.0" encoding="utf-8"?>
<!-- Generator: Adobe Illustrator 26.3.1, SVG Export Plug-In . SVG Version: 6.00 Build 0)  -->
<svg version="1.1" xmlns="http://www.w3.org/2000/svg" xmlns:xlink="http://www.w3.org/1999/xlink" x="0px" y="0px"
	 viewBox="0 0 708.661 708.661" enable-background="new 0 0 708.661 708.661" xml:space="preserve">
<g id="Layer_3">
</g>
<g id="Layer_1">
	<g>
		<path fill="#FFFFFF" d="M207.779,352.006c0.498,0.37,0.786,0.611,1.099,0.813c12.164,7.83,21.304,18.389,28.054,31.096
			c4.336,8.163,7.436,16.798,9.694,25.745c1.831,7.253,3.079,14.61,3.93,22.042c1.245,10.872,1.649,21.777,1.329,32.708
			c-0.2,6.832-0.611,13.654-1.433,20.444c-1.424,11.763-3.848,23.296-8.021,34.419c-3.293,8.779-7.577,17.026-13.264,24.51
			c-9.401,12.37-21.448,21.214-35.883,26.871c-7.461,2.924-15.171,4.895-23.078,6.156c-9.94,1.586-19.943,2.093-29.989,1.76
			c-9.145-0.303-18.215-1.267-27.151-3.326c-8.503-1.959-16.666-4.835-24.377-8.942c-13.967-7.439-24.715-18.177-32.594-31.843
			c-5.042-8.746-8.56-18.105-11.089-27.85c-1.83-7.054-3.091-14.214-3.978-21.449c-1.552-12.652-1.794-25.35-1.336-38.066
			c0.308-8.558,1.14-17.074,2.592-25.521c1.965-11.436,5.026-22.547,9.945-33.095c4.162-8.924,9.471-17.077,16.344-24.171
			c2.94-3.035,6.111-5.807,9.483-8.352c0.496-0.374,0.966-0.783,1.589-1.29c-0.785-0.391-1.387-0.706-2.002-0.994
			c-4.533-2.117-8.79-4.68-12.659-7.863c-7.562-6.221-12.693-14.089-15.759-23.341c-1.814-5.476-2.933-11.103-3.546-16.834
			c-0.85-7.948-1.095-15.924-1.162-23.911c-0.059-7.025-0.226-14.049-0.265-21.074c-0.047-8.303-0.057-16.607,0.007-24.91
			c0.067-8.749,0.183-17.499,0.389-26.246c0.125-5.298,0.338-10.599,0.735-15.883c0.604-8.042,1.899-15.974,4.545-23.632
			c2.101-6.082,5-11.739,9.003-16.805c5.412-6.847,12.204-11.937,20.02-15.722c6.755-3.271,13.858-5.534,21.14-7.276
			c6.467-1.547,13.012-2.658,19.619-3.367c9.475-1.016,18.981-1.504,28.511-1.144c5.17,0.195,10.341,0.456,15.483,1.071
			c9.977,1.193,19.801,3.088,29.293,6.478c3.07,1.096,6.063,2.372,8.956,3.876c11.933,6.205,20.205,15.605,24.699,28.299
			c1.69,4.773,2.778,9.689,3.487,14.695c0.933,6.59,1.283,13.218,1.237,19.869c-0.063,9.198-0.112,18.396-0.192,27.593
			c-0.054,6.259-0.229,12.517-0.211,18.775c0.026,9.005,0.181,18.01,0.277,27.015c0.061,5.748,0.107,11.496,0.176,17.245
			c0.028,2.362,0.118,4.724,0.143,7.086c0.064,6.011-0.207,12.006-1.062,17.961c-0.811,5.647-2.175,11.149-4.563,16.36
			c-3.437,7.498-8.545,13.583-15.403,18.186C209.696,350.744,208.843,351.302,207.779,352.006z M91.458,310.318
			c0.8,0,1.493,0,2.187,0c10.924,0,21.848-0.013,32.772,0.005c5.948,0.01,11.869-0.318,17.771-1.083
			c6.353-0.824,12.563-2.244,18.599-4.378c6.423-2.271,12.429-5.351,17.79-9.59c8.281-6.548,14.057-14.908,17.711-24.766
			c3.119-8.415,4.323-17.178,4.603-26.094c0.161-5.113-0.083-10.211-0.68-15.295c-0.688-5.856-1.926-11.583-3.985-17.112
			c-4.3-11.545-11.597-20.615-22.323-26.821c-5.343-3.091-11.059-5.242-17.037-6.727c-7.788-1.934-15.714-2.788-23.719-2.82
			c-13.99-0.057-27.981-0.017-41.971-0.012c-0.559,0-1.118,0.068-1.757,0.11c-0.054,0.392-0.123,0.694-0.134,0.999
			C91.076,182.17,91.216,308.435,91.458,310.318z M131.417,438.494c0.248,0.922,0.154,1.75,0.154,2.564
			c0.005,34.237,0.004,68.474,0.004,102.712c0,0.639-0.018,1.278,0.01,1.916c0.016,0.36,0.11,0.716,0.171,1.089
			c0.356,0.038,0.604,0.088,0.853,0.088c9.838-0.013,19.677-0.031,29.515-0.05c0.062,0,0.132-0.014,0.185-0.044
			c0.053-0.03,0.089-0.089,0.256-0.266c0.139-0.668,0.066-1.494,0.066-2.311c0.004-34.237,0.003-68.474,0.003-102.712
			c0-0.639-0.022-1.279,0.013-1.916c0.019-0.357,0.134-0.708,0.224-1.151c0.791,0,1.487,0,2.184,0c7.476,0,14.952,0,22.427,0
			c4.728,0,9.457,0.006,14.185-0.008c0.552-0.002,1.154,0.168,1.674-0.291c0.026-0.231,0.078-0.482,0.078-0.732
			c0.004-8.048,0.004-16.097-0.004-24.145c0-0.301-0.089-0.603-0.142-0.939c-0.33-0.056-0.573-0.133-0.815-0.133
			c-36.995,0-73.99,0.006-110.985,0.019c-0.18,0-0.361,0.102-0.628,0.183c-0.05,0.417-0.145,0.848-0.146,1.28
			c-0.009,7.857-0.008,15.713,0.003,23.57c0.001,0.361,0.122,0.722,0.208,1.197c1.725,0,3.381,0,5.037,0c1.725,0,3.45,0,5.176,0
			c1.661,0,3.323,0,4.984,0c1.661,0,3.323,0,4.984,0c1.725,0,3.45,0,5.176,0c1.661,0,3.323,0,4.984,0
			c1.725,0,3.45-0.014,5.175,0.004C128.069,438.433,129.719,438.333,131.417,438.494z M79.948,354.633
			c0.597,0.277,0.935,0.448,1.283,0.594c3.245,1.351,6.567,2.483,9.95,3.433c12.352,3.467,24.971,5.291,37.753,6.076
			c5.294,0.325,10.596,0.465,15.902,0.408c5.69-0.062,11.368-0.379,17.033-0.865c4.581-0.393,9.139-1.006,13.677-1.766
			c6.053-1.014,12.031-2.335,17.867-4.246c4.252-1.393,8.428-2.978,12.343-5.174c0.541-0.303,1.198-0.472,1.532-1.073
			c-0.082-0.116-0.129-0.245-0.221-0.304c-0.591-0.379-1.185-0.755-1.79-1.109c-7.043-4.125-14.573-7.065-22.425-9.232
			c-10.656-2.941-21.551-4.183-32.561-4.527c-7.8-0.244-15.582,0.088-23.34,1.018c-6.734,0.808-13.377,2.038-19.894,3.92
			c-9.015,2.604-17.528,6.312-25.331,11.57C81.204,353.706,80.701,354.09,79.948,354.633z"/>
		<path fill="#FFFFFF" d="M642.194,526.307c0.522,0.544,0.631,1.168,0.361,1.874c0.004,0.35,0.004,0.69,0.004,1.03
			c0.058-0.003,0.116-0.007,0.173-0.01c-0.06-0.348-0.12-0.695-0.18-1.043c0.615,0.578,0.617,1.295,0.468,2.055
			c-0.057,0.344-0.378,0.69,0.103,1.064c-0.05-0.411-0.093-0.761-0.135-1.111c0.377,0.301,0.448,0.729,0.555,1.173
			c1.304,5.397,2.841,10.727,4.962,15.865c1.095,2.653,2.26,5.282,3.509,7.865c3.6,7.444,4.84,15.312,4.093,23.476
			c-0.799,8.729-3.844,16.626-9.46,23.435c-4.633,5.617-10.392,9.595-17.447,11.547c-7.642,2.115-15.067,1.365-22.183-2.074
			c-4.197-2.028-8.414-3.989-12.791-5.603c-6.952-2.564-14.035-4.692-21.227-6.457c-4.333-1.064-8.681-2.069-13.027-3.083
			c-0.45-0.105-0.863-0.217-1.139-0.601c0.637,0.22,1.373,0.001,1.945,0.478c0.69,0.088,1.369,0.183,2.057,0.272
			c0.667,0.1,1.326,0.206,1.989,0.309c0.552,0.363,1.15,0.323,1.757,0.215c0.607,0.608,1.302,0.558,2.029,0.271
			c0.145,0.182,0.259,0.48,0.44,0.528c1.601,0.426,3.214,0.811,4.824,1.203c10.681,2.602,21.219,5.635,31.223,10.291
			c0.462,0.215,0.946,0.383,1.423,0.568c6.526,2.529,13.17,2.912,19.923,1.053c7.339-2.02,13.268-6.189,17.996-12.073
			c5.963-7.421,8.917-16.003,9.396-25.448c0.345-6.796-0.797-13.361-3.488-19.635c-1.964-4.579-3.752-9.224-5.1-14.027
			c-0.464-1.655-0.919-3.313-1.34-4.979c-0.093-0.369-0.286-0.535-0.599-0.642c0.14-0.418,0.391-0.828-0.093-1.309
			c0.041,0.489,0.075,0.89,0.109,1.291c0.397,1.6,0.804,3.198,1.188,4.802c1.131,4.722,2.766,9.284,4.41,13.841
			c1.218,3.377,2.012,6.84,2.39,10.413c0.929,8.784-0.438,17.176-4.299,25.122c-3.611,7.432-8.903,13.335-16.219,17.312
			c-5.098,2.77-10.561,4.093-16.361,3.965c-4.259-0.094-8.331-1.06-12.258-2.704c-4.181-1.75-8.493-3.127-12.84-4.398
			c-6.853-2.003-13.791-3.668-20.786-5.124c-0.676-0.089-1.344-0.185-2.014-0.277c-0.546-0.444-1.156-0.335-1.768-0.21
			c-0.564-0.751-1.282-0.512-1.994-0.309c-0.052-0.349-0.269-0.568-0.606-0.54c-0.475,0.039-0.943,0.157-1.415,0.241
			c-0.026-0.173-0.052-0.346-0.077-0.509c-0.398-0.115-0.792-0.229-1.189-0.344c-0.404-0.032-0.805-0.063-1.207-0.094
			c0.001,0.075,0.002,0.149,0.003,0.224c0.404-0.043,0.808-0.085,1.211-0.128c-0.223,0.119-0.447,0.237-0.67,0.356
			c-0.049,0.037-0.097,0.107-0.146,0.107c-1.28,0.008-2.531-0.115-3.648-0.827c0.188,0.021,0.378,0.071,0.561,0.054
			c0.189-0.017,0.461,0.208,0.586-0.159c-0.401,0.035-0.772,0.068-1.143,0.1c-0.582,0.239-1.144,0.351-1.6-0.243l-0.052,0.05
			c0.536-0.138,1.072-0.277,1.607-0.415l-0.06,0.038c0.676-0.043,1.363-0.211,2.007,0.16c0.639-0.076,1.282,0.394,2.22-0.179
			c-0.95,0.076-1.587,0.127-2.224,0.179c-0.143-0.291-0.319-0.517-0.695-0.52c-0.436-0.003-0.872-0.047-1.308-0.073
			c0,0,0.059,0.037,0.059,0.037c-0.714-0.546-1.573-0.282-2.36-0.421c0,0,0.051,0.05,0.051,0.05
			c-0.004-0.144-0.008-0.287-0.012-0.431c0.54-0.029,1.079-0.058,1.986-0.106c-0.939-0.283-1.457-0.199-1.926,0.164
			c-0.8-0.02-1.599-0.041-2.398-0.061l0.054,0.052c-0.105-0.182-0.211-0.364-0.315-0.547c0.319,0,0.638,0,0.957,0
			c-0.003-0.029-0.007-0.059-0.01-0.088c-0.314,0.026-0.628,0.053-0.942,0.079c-1.407,0.284-2.814,0.568-4.244,0.857
			c-0.005-0.659,0.635-0.447,0.762-0.856c-0.02-0.019-0.087-0.141-0.154-0.141c-0.899,0.004-1.62,0.771-2.579,0.575
			c-0.81-0.165-1.632-0.27-2.448-0.4c-3.277-0.522-6.552-1.056-9.832-1.56c-3.092-0.476-6.191-0.909-9.285-1.379
			c-9.229-1.403-18.359-3.223-27.132-6.522c-4.377-1.646-8.56-3.685-12.467-6.269c-6.067-4.012-10.996-9.113-14.688-15.393
			c-0.226-0.385-0.453-0.769-0.699-1.141c-0.064-0.096-0.204-0.142-0.537-0.362c-0.181,0.264-0.371,0.593-0.609,0.882
			c-9.843,11.941-22.399,19.796-37.036,24.474c-6.953,2.222-14.084,3.61-21.346,4.398c-6.434,0.698-12.879,0.855-19.332,0.613
			c-5.939-0.224-11.848-0.82-17.723-1.757c-14.164-2.259-27.99-5.81-41.428-10.827c-10.146-3.787-19.809-8.542-28.804-14.607
			c-10.175-6.861-18.902-15.187-25.807-25.371c-5.828-8.595-9.921-17.975-12.695-27.952c-1.92-6.905-3.18-13.933-3.925-21.061
			c-0.752-7.188-1.139-14.389-0.943-21.614c0.283-10.428,1.306-20.771,3.711-30.947c2.802-11.857,7.323-22.968,14.261-33.042
			c6.792-9.862,15.302-17.96,25.211-24.629c9.053-6.094,18.802-10.817,28.987-14.674c11.13-4.215,22.569-7.336,34.238-9.649
			c5.706-1.131,11.451-2.001,17.241-2.516c7.266-0.646,14.543-0.699,21.828-0.225c5.363,0.35,10.683,0.985,15.95,2.044
			c11.317,2.274,21.975,6.202,31.606,12.682c6.248,4.204,11.719,9.258,16.495,15.072c0.399,0.485,0.817,0.954,1.325,1.546
			c0.317-0.352,0.583-0.596,0.788-0.883c4.741-6.617,11.084-11.242,18.371-14.652c6.391-2.991,13.126-4.968,20.014-6.417
			c6.442-1.355,12.954-2.234,19.513-2.839c9.246-0.852,18.505-0.985,27.767-0.608c12.474,0.508,24.804,2.151,36.912,5.272
			c7.324,1.888,14.391,4.439,20.961,8.248c7.325,4.247,13.321,9.87,17.703,17.147c3.193,5.302,5.29,11.038,6.621,17.066
			c1.325,6.002,1.987,12.087,2.343,18.217c0.359,6.189,0.404,12.383,0.47,18.578c0.101,9.516,0.275,19.032,0.315,28.548
			c0.031,7.409-0.079,14.819-0.163,22.228c-0.015,1.338-0.124,2.65,0.341,3.959c0.204,0.576,0.097,1.265,0.119,1.903
			c0.134,3.957,0.178,7.919,0.419,11.869c0.24,3.945,0.663,7.876,1.302,11.786c0.212,1.295,0.772,2.586,0.446,3.961
			c0.007,0.207,0.007,0.406,0.007,0.605c0.036-0.005,0.072-0.011,0.108-0.017C642.285,526.725,642.24,526.516,642.194,526.307z
			 M562.177,594.948c-0.53-0.024-1.059-0.047-1.589-0.071c0.004,0.086,0.009,0.171,0.013,0.257c0.527-0.062,1.055-0.125,1.582-0.188
			c0.148,0.182,0.264,0.465,0.452,0.526c0.542,0.176,1.113,0.269,1.674,0.384c5.06,1.045,10.128,2.048,15.178,3.14
			c6.676,1.444,13.27,3.201,19.748,5.38c1.33,0.447,2.655,0.915,4.003,1.303c5.58,1.606,11.192,1.736,16.84,0.338
			c6.832-1.691,12.61-5.185,17.379-10.303c7.75-8.318,11.371-18.33,11.779-29.577c0.186-5.144-0.558-10.18-2.102-15.101
			c-1.662-5.299-3.157-10.644-4.151-16.116c-0.38-2.089-0.764-4.177-1.146-6.265c-0.302,1.556,0.126,3.048,0.336,4.544
			c0.773,5.503,1.975,10.924,3.366,16.301c1.555,6.012,1.882,12.087,1.118,18.236c-0.805,6.487-2.834,12.559-6.205,18.163
			c-3.802,6.322-8.862,11.351-15.449,14.762c-6.744,3.492-13.88,4.6-21.368,3.367c-1.445-0.238-2.887-0.552-4.29-0.97
			c-7.102-2.115-14.326-3.711-21.584-5.164c-3.815-0.764-7.645-1.46-11.468-2.184C564.924,595.453,563.552,595.203,562.177,594.948z
			 M326.575,499.612c-0.46-1.212-0.431-2.155-0.489-3.077c-0.201-3.187-0.37-6.377-0.577-9.564
			c-0.315-4.844-0.663-9.686-0.975-14.53c-0.32-4.972-0.601-9.946-0.923-14.918c-0.442-6.82-0.913-13.638-1.361-20.457
			c-0.398-6.055-0.781-12.111-1.178-18.166c-0.024-0.362-0.113-0.719-0.165-1.04c-1.765-0.233-23.354-0.353-28.665-0.17
			c-0.306,0.011-0.61,0.08-0.984,0.133c-0.018,0.388-0.064,0.697-0.041,1c0.264,3.503,0.535,7.005,0.811,10.507
			c0.326,4.139,0.668,8.276,0.988,12.415c0.315,4.076,0.601,8.153,0.92,12.229c0.442,5.667,0.914,11.332,1.352,16.999
			c0.448,5.795,0.856,11.593,1.307,17.388c0.569,7.323,1.171,14.643,1.746,21.965c0.516,6.558,1.018,13.117,1.521,19.677
			c0.543,7.069,1.078,14.138,1.625,21.207c0.028,0.36,0.125,0.714,0.182,1.025c1.644,0.27,31.221,0.299,33.203,0.034
			c0.228-0.568,0.501-1.204,0.743-1.852c5.104-13.699,10.204-27.4,15.309-41.099c0.167-0.447,0.379-0.877,0.678-1.56
			c0.349,0.749,0.611,1.244,0.815,1.761c1.31,3.326,2.605,6.659,3.91,9.987c4.053,10.342,8.106,20.685,12.168,31.024
			c0.251,0.638,0.355,1.366,0.986,1.85c0.237,0.021,0.489,0.063,0.74,0.063c10.609,0.004,21.218,0.005,31.827-0.003
			c0.366,0,0.732-0.093,1.149-0.15c0.08-0.389,0.175-0.689,0.199-0.995c0.163-2.101,0.309-4.204,0.464-6.306
			c0.3-4.077,0.597-8.154,0.903-12.23c0.345-4.586,0.701-9.17,1.048-13.756c0.294-3.885,0.58-7.771,0.875-11.656
			c0.343-4.522,0.695-9.043,1.038-13.564c0.3-3.949,0.59-7.898,0.89-11.847c0.329-4.33,0.671-8.66,0.998-12.991
			c0.308-4.076,0.598-8.154,0.906-12.23c0.341-4.522,0.692-9.043,1.04-13.564c0.324-4.203,0.651-8.405,0.974-12.608
			c0.293-3.821,0.589-7.642,0.866-11.464c0.03-0.416-0.05-0.84-0.083-1.32c-0.506-0.03-0.881-0.071-1.255-0.071
			c-8.756-0.003-17.511-0.004-26.267,0.003c-0.363,0-0.726,0.083-1.143,0.135c-0.084,0.65-0.19,1.213-0.226,1.78
			c-0.288,4.59-0.568,9.18-0.842,13.771c-0.308,5.165-0.593,10.331-0.912,15.495c-0.441,7.14-0.918,14.278-1.355,21.418
			c-0.454,7.395-0.879,14.793-1.318,22.189c-0.121,2.04-0.237,4.081-0.379,6.12c-0.043,0.614,0.063,1.275-0.507,2.002
			c-5.505-13.889-10.87-27.672-16.368-41.515c-1.84,0-3.623,0-5.407,0c-1.726,0-3.451,0-5.177,0c-1.789,0-3.579-0.025-5.368,0.007
			c-1.771,0.031-3.551-0.145-5.366,0.134c-1.647,4.481-3.279,8.912-4.904,13.346c-1.649,4.495-3.282,8.996-4.94,13.488
			C329.951,490.476,328.393,494.918,326.575,499.612z M529.183,473.242c0.118-0.009,0.235-0.019,0.353-0.028
			c0.278,0.488,0.572,0.968,0.833,1.464c8.466,16.107,16.928,32.216,25.393,48.324c4.841,9.212,9.683,18.425,14.535,27.631
			c0.32,0.607,0.518,1.313,1.249,1.802c10.894,0,21.88,0.001,32.867-0.007c0.244,0,0.489-0.105,0.724-0.159
			c0.415-0.896,0.228-1.804,0.228-2.683c0.011-42.99,0.009-85.981,0.009-128.971c0-0.575,0.016-1.151-0.013-1.724
			c-0.018-0.359-0.107-0.715-0.158-1.032c-2.053-0.262-19.636-0.361-28.095-0.171c-0.369,0.008-0.737,0.068-1.135,0.107
			c-0.316,0.875-0.19,1.709-0.19,2.524c-0.007,24.849-0.006,49.698-0.006,74.546c0,0.575,0.013,1.15-0.01,1.724
			c-0.012,0.283,0.094,0.659-0.35,0.732c-14.022-26.532-28.039-53.053-42.089-79.638c-0.704,0-1.339,0-1.974,0
			c-2.62,0-5.24,0-7.86,0c-7.284,0-14.569-0.004-21.853,0.007c-0.677,0.001-1.386-0.128-2.134,0.243
			c-0.014,0.86-0.038,1.681-0.038,2.502c-0.002,43.054-0.002,86.108-0.001,129.163c0,0.511-0.015,1.023,0.008,1.533
			c0.016,0.366,0.084,0.73,0.132,1.122c0.765,0.278,1.47,0.192,2.16,0.193c6.326,0.006,12.652,0.004,18.978,0.003
			c2.3,0,4.601,0.009,6.901-0.012c0.42-0.004,0.839-0.13,1.378-0.22c0.015-0.913,0.04-1.734,0.04-2.555
			c0.002-24.466,0.002-48.931,0.002-73.397c0-0.703-0.009-1.406,0.009-2.108C529.081,473.852,529.145,473.547,529.183,473.242z
			 M467.063,559.773c0.692-0.889,1.167-1.477,1.618-2.083c2.405-3.232,4.569-6.618,6.519-10.143
			c4.919-8.888,8.253-18.379,10.709-28.198c2.956-11.814,4.427-23.842,4.912-35.987c0.43-10.788,0.256-21.575-0.579-32.349
			c-0.607-7.838-1.591-15.619-3.159-23.322c-1.8-8.844-4.355-17.454-8.029-25.713c-2.707-6.085-5.931-11.876-9.909-17.23
			c-0.323-0.435-0.568-0.976-1.112-1.162c-0.172,0.126-0.304,0.18-0.369,0.278c-0.353,0.532-0.702,1.066-1.028,1.615
			c-3.04,5.108-4.894,10.656-6.004,16.463c-1.325,6.926-1.704,13.931-1.607,20.97c0.132,9.64,0.296,19.28,0.364,28.921
			c0.076,10.727,0.111,21.455,0.067,32.182c-0.041,9.96-0.203,19.92-0.321,29.879c-0.102,8.629,0.145,17.239,1.486,25.783
			c0.934,5.952,2.492,11.731,5.014,17.224C466.029,557.76,466.476,558.597,467.063,559.773z M639.593,517.49
			c-0.058,0-0.117,0.001-0.175,0.001c0,0.631,0.005,1.262-0.001,1.893c-0.071,8.047-0.15,16.094-0.215,24.141
			c-0.038,4.737-0.418,9.439-1.436,14.075c-1.737,7.91-4.847,15.209-9.958,21.538c-8.695,10.768-19.965,16.218-33.869,15.991
			c-2.36-0.038-4.718-0.27-7.073-0.46c-5.475-0.441-10.947-0.917-16.422-1.369c-4.583-0.378-9.166-0.75-13.75-1.105
			c-0.745-0.058-1.499-0.008-2.249-0.008c1.82,0.373,3.649,0.589,5.477,0.807c3.868,0.46,7.734,0.929,11.603,1.38
			c3.806,0.443,7.613,0.867,11.42,1.301c4.378,0.499,8.748,1.07,13.134,1.484c7.525,0.711,14.617-0.867,21.253-4.42
			c7.362-3.942,12.893-9.76,16.932-17.012c4.345-7.803,6.454-16.232,6.545-25.128c0.042-4.144-0.303-8.293-0.49-12.439
			c-0.176-3.891-0.408-7.78-0.552-11.672C639.658,523.49,639.648,520.49,639.593,517.49z M555.953,593.3
			c-0.005,0.053-0.01,0.106-0.014,0.159c0.848,0.162,1.692,0.353,2.546,0.481c6.5,0.972,13.008,1.894,19.468,3.122
			c6.771,1.287,13.558,2.481,20.269,4.069c5.9,1.396,11.78,1.218,17.606-0.5c8.275-2.439,14.888-7.272,19.903-14.203
			c8.061-11.141,10.532-23.638,8.344-37.088c-1.055-6.488-2.373-12.933-2.923-19.496c-0.128-1.525-0.154-3.071-0.44-4.566
			c-0.243-1.273-0.271-2.531-0.294-3.805c-0.007-0.428-0.052-0.856-0.08-1.284c-0.182,0.516-0.203,1.025-0.178,1.533
			c0.085,1.72,0.212,3.438,0.277,5.159c0.201,5.301,0.768,10.569,1.407,15.83c0.292,2.408,0.679,4.81,0.845,7.228
			c0.465,6.752-0.191,13.396-2.265,19.863c-2.715,8.465-7.222,15.78-14.192,21.404c-8.021,6.473-17.177,9.347-27.491,8.232
			c-1.839-0.199-3.666-0.513-5.495-0.794c-6.12-0.94-12.248-1.834-18.355-2.85c-5.857-0.975-11.746-1.706-17.629-2.486
			C556.833,593.251,556.389,593.3,555.953,593.3z M638.022,531.986c-0.033-0.007-0.067-0.014-0.1-0.021
			c-0.235,1.282-0.454,2.568-0.708,3.846c-0.535,2.69-1.087,5.376-1.634,8.063c-0.42,2.062-0.772,4.14-1.274,6.182
			c-1.909,7.76-4.992,15.001-9.707,21.497c-4.782,6.588-10.806,11.695-18.195,15.155c-6.16,2.885-12.689,4.203-19.445,4.56
			c-8.491,0.449-16.976,0.359-25.46-0.188c-2.931-0.189-5.864-0.227-8.799,0.041c0.542,0.109,1.088,0.163,1.635,0.199
			c4.46,0.293,8.922,0.549,13.379,0.881c4.904,0.366,9.808,0.68,14.729,0.696c3.701,0.012,7.397,0.278,11.104,0.039
			c3.459-0.223,6.847-0.794,10.153-1.803c9.969-3.042,17.808-9.003,23.694-17.543c6.173-8.956,9.16-19.012,10.025-29.762
			c0.251-3.117,0.417-6.241,0.598-9.364C638.063,533.642,638.022,532.813,638.022,531.986z M542.298,591.615
			c-0.015-0.046-0.03-0.092-0.046-0.138c-0.401,0-0.802,0-1.203,0c0,0.046,0,0.092,0,0.138
			C541.466,591.615,541.882,591.615,542.298,591.615z M537.969,591.08c0,0.048,0,0.096,0,0.144c0.421,0,0.842,0,1.263,0
			c0-0.048,0-0.096,0-0.144C538.811,591.08,538.39,591.08,537.969,591.08z M641.371,527.031c0.039-0.02,0.077-0.041,0.116-0.061
			c0-0.322,0-0.644,0-0.966c-0.039,0-0.077,0-0.116-0.001C641.371,526.346,641.371,526.689,641.371,527.031z M544.499,591.869
			c0.003,0.056,0.005,0.111,0.008,0.167c0.217-0.015,0.433-0.03,0.65-0.045c-0.002-0.041-0.005-0.081-0.007-0.122
			C544.933,591.869,544.716,591.869,544.499,591.869z M551.353,591.873c0,0.021,0,0.042,0,0.062c0.236,0,0.471,0,0.707,0
			c0-0.021,0-0.042,0-0.062C551.824,591.873,551.589,591.873,551.353,591.873z M640.991,522.929
			c0.011,0.121,0.022,0.243,0.033,0.364c0.034-0.049,0.084-0.094,0.099-0.148c0.016-0.058,0.01-0.129-0.009-0.187
			C641.107,522.937,641.034,522.938,640.991,522.929z"/>
		<path fill="#FFFFFF" d="M652.028,246.12c0.041,5.545-0.233,11.476-0.839,17.39c-1.177,11.489-3.549,22.694-8.027,33.39
			c-3.128,7.473-7.204,14.378-12.419,20.591c-7.357,8.764-16.387,15.308-26.744,20.082c-7.225,3.33-14.778,5.652-22.563,7.217
			c-12.14,2.44-24.416,3.296-36.781,2.942c-4.917-0.141-9.827-0.43-14.719-0.976c-12.191-1.361-24.034-4.056-35.234-9.201
			c-7.779-3.574-14.875-8.182-21.09-14.094c-7.411-7.05-13.064-15.333-17.219-24.66c-3.448-7.74-5.745-15.824-7.281-24.141
			c-2.368-12.823-2.814-25.76-2.187-38.742c0.525-10.874,2.083-21.598,5.251-32.05c2.233-7.366,5.238-14.393,9.268-20.962
			c8.094-13.193,19.354-22.786,33.374-29.215c7.582-3.476,15.521-5.829,23.696-7.418c11.337-2.204,22.793-2.889,34.32-2.705
			c5.882,0.094,11.744,0.467,17.583,1.171c11.019,1.329,21.738,3.833,31.955,8.272c19.069,8.286,32.606,22.039,40.695,41.166
			c3.097,7.323,5.202,14.939,6.607,22.755C651.386,226.451,652.074,236.056,652.028,246.12z M571.231,311.876
			c11.023,0,22.01,0.001,32.997-0.005c0.306,0,0.613-0.069,0.947-0.109c0.329-0.935,0.191-1.833,0.192-2.708
			c0.008-42.999,0.007-85.997,0.007-128.996c0-0.575,0.023-1.152-0.017-1.724c-0.025-0.358-0.147-0.709-0.248-1.163
			c-9.533,0-18.985-0.001-28.436,0.008c-0.236,0-0.472,0.122-0.729,0.193c-0.278,0.855-0.162,1.689-0.162,2.507
			c-0.006,24.79-0.005,49.579-0.006,74.369c0,0.639,0.008,1.278-0.017,1.916c-0.009,0.224,0.048,0.534-0.393,0.576
			c-2.779-5.276-5.565-10.572-8.358-15.864c-2.802-5.309-5.611-10.613-8.416-15.92c-2.805-5.307-5.608-10.616-8.414-15.923
			c-2.805-5.307-5.606-10.616-8.421-15.918c-2.81-5.292-5.563-10.615-8.378-15.791c-1.89-0.237-26.394-0.351-32.551-0.164
			c-0.374,0.011-0.746,0.093-1.235,0.158c-0.19,0.833-0.124,1.662-0.124,2.48c-0.003,43.19-0.003,86.38-0.003,129.571
			c0,0.447-0.025,0.897,0.012,1.341c0.03,0.36,0.136,0.714,0.227,1.16c9.533,0,18.987,0.001,28.442-0.006
			c0.241,0,0.482-0.094,0.74-0.147c0.283-0.859,0.172-1.691,0.172-2.508c0.006-24.598,0.005-49.196,0.006-73.794
			c0-0.703-0.004-1.406,0.024-2.108c0.009-0.22-0.025-0.52,0.46-0.577c1.634,2.818,3.084,5.788,4.639,8.7
			c1.564,2.929,3.091,5.878,4.635,8.818c1.544,2.94,3.091,5.878,4.635,8.818c1.544,2.94,3.086,5.881,4.631,8.82
			c1.516,2.883,3.035,5.764,4.551,8.646c1.546,2.939,3.092,5.878,4.636,8.817c1.545,2.94,3.087,5.881,4.631,8.82
			c1.544,2.94,3.088,5.88,4.635,8.818C568.088,305.924,569.638,308.856,571.231,311.876z"/>
		<path fill="#FFFFFF" d="M439.363,244.576c-0.07,5.655-0.098,11.467-0.226,17.277c-0.16,7.218-0.645,14.417-1.428,21.597
			c-0.7,6.417-1.654,12.789-3.161,19.07c-1.319,5.497-3.254,10.753-6.253,15.574c-4.47,7.187-10.473,12.64-18.223,16.15
			c-7.3,3.306-14.891,5.714-22.685,7.501c-6.605,1.515-13.289,2.534-20.039,3.18c-6.309,0.604-12.626,0.844-18.953,0.646
			c-11.737-0.369-23.28-1.971-34.456-5.734c-6.013-2.025-11.766-4.611-17.127-8.028c-3.678-2.345-7.07-5.046-10.11-8.178
			c-4.567-4.705-7.805-10.236-10.115-16.337c-1.838-4.856-3.048-9.877-3.854-14.996c-0.776-4.924-1.234-9.883-1.609-14.851
			c-0.428-5.668-0.963-11.328-1.345-16.999c-0.391-5.798-0.638-11.606-0.975-17.409c-0.374-6.445-0.392-12.896-0.421-19.347
			c-0.037-8.245,0.215-16.48,0.941-24.693c0.794-8.981,2.122-17.878,4.547-26.583c1.306-4.686,2.995-9.226,5.198-13.569
			c4.544-8.959,11.233-15.906,19.787-21.111c6.328-3.85,13.156-6.478,20.301-8.33c5.014-1.299,10.104-2.177,15.251-2.768
			c9.611-1.103,19.241-1.289,28.897-0.833c4.214,0.199,8.422,0.439,12.613,0.92c9.623,1.106,19.025,3.085,27.9,7.125
			c14.672,6.678,24.129,17.875,28.78,33.221c1.337,4.41,2.227,8.924,2.711,13.502c0.604,5.715,1.149,11.438,1.585,17.167
			c0.649,8.533,1.273,17.07,1.732,25.614C439.003,230.367,439.124,237.394,439.363,244.576z M334.872,310.215
			c0.954-2.344,1.815-4.807,2.727-7.25c0.938-2.511,1.881-5.021,2.819-7.533c0.916-2.452,1.827-4.905,2.741-7.358
			c0.914-2.453,1.83-4.905,2.741-7.358c0.933-2.513,1.837-5.038,2.801-7.54c0.928-2.411,1.706-4.885,2.896-7.499
			c0.354,0.75,0.62,1.24,0.823,1.756c1.449,3.683,2.882,7.372,4.326,11.057c3.914,9.985,7.828,19.969,11.751,29.95
			c0.251,0.638,0.354,1.366,1.017,1.877c10.752,0,21.551,0,32.349-0.002c0.318,0,0.636-0.031,0.953-0.053
			c0.062-0.004,0.128-0.025,0.182-0.056c0.052-0.029,0.091-0.081,0.136-0.123c0.058-0.111,0.16-0.219,0.169-0.334
			c3.336-43.811,6.666-87.623,9.993-131.435c0.053-0.699,0.071-1.401,0.102-2.102c0.003-0.063-0.002-0.132-0.027-0.188
			c-0.025-0.056-0.079-0.098-0.235-0.279c-0.301-0.032-0.728-0.108-1.157-0.118c-9.399-0.226-25.5-0.105-27.212,0.203
			c-0.393,0.611-0.322,1.332-0.368,2.018c-0.094,1.402-0.128,2.808-0.216,4.21c-0.321,5.099-0.666,10.197-0.978,15.297
			c-0.321,5.227-0.601,10.457-0.923,15.685c-0.441,7.14-0.916,14.277-1.356,21.417c-0.326,5.291-0.618,10.584-0.929,15.876
			c-0.12,2.04-0.237,4.081-0.379,6.12c-0.043,0.613,0.057,1.272-0.417,1.895c-0.552-0.65-0.717-1.411-0.991-2.105
			c-4.872-12.352-9.729-24.71-14.601-37.061c-0.275-0.698-0.412-1.478-0.951-2.008c-2.026-0.238-19.639-0.201-21.228,0.056
			c-1.318,3.243-2.458,6.624-3.7,9.965c-1.223,3.291-2.423,6.59-3.632,9.887c-1.23,3.356-2.445,6.718-3.69,10.069
			c-1.239,3.335-2.374,6.711-3.8,10.201c-0.475-0.817-0.433-1.512-0.477-2.171c-0.188-2.804-0.342-5.61-0.514-8.415
			c-0.161-2.614-0.323-5.227-0.495-7.84c-0.33-5.035-0.675-10.068-1-15.103c-0.312-4.844-0.597-9.69-0.911-14.534
			c-0.315-4.844-0.659-9.685-0.977-14.529c-0.394-5.991-0.772-11.982-1.17-17.973c-0.024-0.358-0.165-0.707-0.277-1.166
			c-0.77,0-1.469,0-2.167,0c-6.39,0-12.781,0-19.171,0c-2.301,0-4.601-0.009-6.902,0.011c-0.422,0.004-0.843,0.129-1.276,0.2
			c0,0.617-0.032,1.121,0.005,1.619c0.203,2.739,0.425,5.476,0.636,8.214c0.294,3.821,0.581,7.642,0.877,11.462
			c0.345,4.457,0.701,8.913,1.046,13.371c0.296,3.821,0.578,7.642,0.878,11.462c0.319,4.075,0.662,8.148,0.977,12.223
			c0.315,4.075,0.595,8.153,0.913,12.228c0.576,7.386,1.179,14.77,1.752,22.155c0.445,5.731,0.852,11.464,1.295,17.195
			c0.6,7.768,1.217,15.535,1.833,23.302c0.029,0.365,0.114,0.726,0.167,1.049C303.211,310.363,331.797,310.446,334.872,310.215z"/>
		<path fill="#FFFFFF" d="M233.125,350.824c-1.105-1.23-2.078-2.314-3.093-3.444c0.265-0.317,0.442-0.577,0.665-0.789
			c4.276-4.057,6.697-9.098,7.918-14.795c1.011-4.716,1.212-9.492,1.155-14.29c-0.079-6.646-0.536-13.27-1.062-19.893
			c-0.319-4.01-0.575-8.027-0.767-12.046c-0.22-4.593-0.349-9.19-0.497-13.786c-0.23-7.149-0.53-14.297-0.643-21.448
			c-0.137-8.685-0.136-17.373-0.144-26.06c-0.005-5.493,0.074-10.986,0.136-16.478c0.049-4.342,0.16-8.684,0.187-13.026
			c0.039-6.135-0.214-12.262-0.758-18.371c-0.648-7.274-1.947-14.421-4.517-21.293c-1.165-3.115-2.546-6.128-4.209-9.012
			c-2.465-4.274-5.716-7.819-9.746-10.665c-2.775-1.961-5.703-3.638-8.841-4.946c-0.643-0.268-1.275-0.561-2.028-0.895
			c0.253-0.767,0.467-1.484,0.726-2.184c0.263-0.711,0.569-1.405,0.884-2.176c0.378,0.111,0.682,0.176,0.967,0.289
			c6.247,2.478,11.874,5.914,16.62,10.721c2.352,2.383,4.255,5.098,5.896,7.998c3.264,5.767,5.488,11.936,6.971,18.379
			c1.321,5.74,1.968,11.572,2.368,17.441c0.662,9.701,0.372,19.409,0.294,29.115c-0.032,3.96-0.093,7.919-0.132,11.878
			c-0.033,3.257-0.094,6.514-0.073,9.771c0.074,11.368,0.183,22.735,0.626,34.096c0.306,7.849,0.516,15.703,0.873,23.549
			c0.192,4.209,0.62,8.406,0.915,12.611c0.192,2.739,0.361,5.481,0.494,8.224c0.13,2.679,0.265,5.36,0.283,8.041
			c0.04,5.886-0.244,11.744-1.764,17.48c-1.487,5.609-4.102,10.574-8.248,14.683C234.177,349.901,233.741,350.266,233.125,350.824z"
			/>
		<path fill="#FFFFFF" d="M294.304,340.108c-0.227,0.441-0.395,0.85-0.633,1.213c-0.588,0.898-1.092,1.859-1.867,2.788
			c-0.812-0.548-1.554-1.022-2.268-1.536c-3.914-2.814-7.318-6.172-10.469-9.803c-8.117-9.354-13.45-20.114-16.298-32.141
			c-1.342-5.665-2.285-11.393-2.741-17.195c-0.555-7.067-1.059-14.138-1.579-21.207c-1.106-15.042-1.606-30.103-1.484-45.186
			c0.053-6.516,0.279-13.027,0.698-19.529c0.288-4.461,0.525-8.928,0.942-13.378c0.483-5.148,1.124-10.282,1.726-15.419
			c0.483-4.124,1.151-8.219,2.027-12.278c1.396-6.472,3.67-12.617,6.889-18.406c2.041-3.671,4.663-6.858,7.954-9.483
			c0.25-0.199,0.503-0.394,0.765-0.576c0.101-0.071,0.23-0.101,0.444-0.191c1.135,0.984,1.842,2.332,2.786,3.614
			c-0.379,0.348-0.681,0.659-1.016,0.928c-2.778,2.229-4.988,4.932-6.72,8.034c-3.394,6.079-5.605,12.575-6.883,19.406
			c-1.022,5.464-1.7,10.975-2.346,16.493c-0.788,6.727-1.341,13.474-1.739,20.232c-0.296,5.036-0.465,10.081-0.603,15.124
			c-0.121,4.405-0.211,8.814-0.149,13.219c0.09,6.385,0.306,12.769,0.515,19.151c0.119,3.638,0.291,7.276,0.51,10.909
			c0.297,4.909,0.661,9.813,0.998,14.719c0.171,2.485,0.334,4.971,0.518,7.455c0.464,6.243,1.046,12.474,2.312,18.616
			c1.449,7.031,3.504,13.866,6.832,20.261c3.719,7.147,8.497,13.509,14.411,18.986c1.635,1.515,3.46,2.825,5.202,4.224
			C293.43,339.469,293.841,339.761,294.304,340.108z"/>
		<path fill="#FFFFFF" d="M241.718,129.313c1.362-0.584,2.691-1.155,4.111-1.764c0.225,0.416,0.444,0.722,0.568,1.063
			c2.003,5.471,3.651,11.025,4.141,16.872c0.421,5.028,1.002,10.043,1.345,15.076c0.295,4.331,0.487,8.678,0.486,13.019
			c-0.001,7.473-0.157,14.946-0.303,22.418c-0.186,9.58-0.586,19.157-0.457,28.74c0.12,8.942,0.242,17.885,0.507,26.823
			c0.187,6.32,0.612,12.632,0.935,18.948c0.137,2.679,0.306,5.357,0.421,8.037c0.626,14.483,3.062,28.678,6.771,42.673
			c1.292,4.875,2.586,9.753,3.429,14.731c0.394,2.327,0.657,4.678,0.929,7.024c0.087,0.752,0.014,1.522,0.014,2.378
			c-1.502,0.392-2.999,0.305-4.551,0.187c-0.087-0.638-0.201-1.199-0.235-1.765c-0.318-5.188-1.442-10.233-2.681-15.26
			c-1.375-5.578-2.82-11.14-4.088-16.742c-1.55-6.854-2.689-13.783-3.429-20.776c-0.524-4.957-0.862-9.925-1.109-14.902
			c-0.313-6.316-0.719-12.628-0.972-18.946c-0.266-6.637-0.429-13.279-0.581-19.92c-0.115-4.98-0.244-9.964-0.185-14.944
			c0.102-8.686,0.367-17.369,0.519-26.054c0.132-7.536,0.271-15.074,0.275-22.611c0.003-5.62-0.256-11.237-0.816-16.837
			c-0.33-3.305-0.624-6.613-0.882-9.924c-0.419-5.395-1.84-10.551-3.618-15.629c-0.169-0.481-0.349-0.958-0.519-1.439
			C241.722,129.732,241.734,129.665,241.718,129.313z"/>
		<path fill="#FFFFFF" d="M553.434,594.746c-0.793,0.009-1.61,0.161-2.31-0.386l-0.054,0.05c0.559-0.074,1.156,0.003,1.625-0.418
			l-0.069,0.044c0.787-0.005,1.575-0.01,2.362-0.014c0,0-0.059-0.037-0.059-0.037c0,0.145,0,0.289,0,0.434
			c0,0,0.06-0.038,0.06-0.038c-0.526,0.177-1.166-0.087-1.607,0.415L553.434,594.746z"/>
		<path fill="#FFFFFF" d="M551.124,594.361c-0.655-0.035-1.353,0.152-1.911-0.375l-0.058,0.048c0.437-0.074,0.93,0.015,1.24-0.428
			l-0.072,0.048c0.785-0.001,1.57-0.002,2.355-0.002l-0.051-0.05c-0.001,0.145-0.002,0.29-0.003,0.436l0.069-0.044
			c-0.542,0.139-1.083,0.278-1.625,0.418L551.124,594.361z"/>
		<path fill="#FFFFFF" d="M549.213,593.985c-0.481-0.031-0.962-0.062-1.668-0.108c1.016-0.663,1.92-0.665,2.837-0.608l-0.054-0.052
			c-0.001,0.145-0.003,0.291-0.004,0.436c0,0,0.072-0.048,0.072-0.048c-0.455,0.021-0.922,0.008-1.24,0.428L549.213,593.985z"/>
		<path fill="#FFFFFF" d="M122.05,201.823c0.884-0.029,1.513-0.067,2.141-0.068c3.195-0.006,6.39-0.01,9.585-0.001
			c5.388,0.016,10.709,0.583,15.918,2.014c3.477,0.955,6.728,2.397,9.64,4.558c3.64,2.701,6.17,6.244,7.941,10.372
			c1.572,3.665,2.471,7.51,3.049,11.439c0.793,5.39,0.96,10.813,0.749,16.246c-0.204,5.253-0.947,10.427-2.672,15.419
			c-1.585,4.586-3.903,8.728-7.406,12.158c-3.159,3.093-6.866,5.293-10.99,6.808c-4.222,1.551-8.604,2.357-13.075,2.772
			c-4.528,0.421-9.064,0.305-13.599,0.325c-0.317,0.001-0.634-0.041-1.049-0.07c-0.076-0.357-0.181-0.71-0.218-1.069
			c-0.038-0.38-0.011-0.766-0.011-1.149c0-25.807,0-51.614,0-77.421C122.05,203.461,122.05,202.767,122.05,201.823z"/>
	</g>
</g>
<g id="GUIDE">
</g>
</svg>
