<?xml version="1.0" encoding="utf-8"?>
<!-- Generator: Adobe Illustrator 26.3.1, SVG Export Plug-In . SVG Version: 6.00 Build 0)  -->
<svg version="1.1" xmlns="http://www.w3.org/2000/svg" xmlns:xlink="http://www.w3.org/1999/xlink" x="0px" y="0px"
	 viewBox="0 0 1417.323 1417.323" enable-background="new 0 0 1417.323 1417.323" xml:space="preserve">
<g id="Layer_1">
</g>
<g id="GUIDE">
	<g>
		<g>
			<path fill="#FFFFFF" d="M1056.13,981.826H361.193c-72.965,0-141.562-28.414-193.156-80.008S88.029,781.626,88.029,708.662
				s28.414-141.562,80.008-193.157c51.594-51.594,120.191-80.008,193.156-80.008h694.937c72.965,0,141.562,28.414,193.156,80.008
				c51.594,51.594,80.008,120.191,80.008,193.156s-28.414,141.563-80.008,193.157S1129.095,981.826,1056.13,981.826z
				 M361.193,455.497c-139.595,0-253.164,113.569-253.164,253.164s113.569,253.165,253.164,253.165h694.937
				c139.595,0,253.164-113.569,253.164-253.164s-113.569-253.165-253.164-253.165H361.193z"/>
			<path fill="#FFFFFF" d="M1027.175,959.062H390.149c-66.884,0-129.766-26.046-177.06-73.34
				c-47.295-47.294-73.341-110.176-73.341-177.06s26.046-129.766,73.341-177.06c47.294-47.295,110.176-73.341,177.06-73.341h637.026
				c66.884,0,129.766,26.046,177.06,73.34c47.294,47.295,73.341,110.176,73.341,177.06c0,66.885-26.047,129.766-73.341,177.061
				S1094.059,959.062,1027.175,959.062z M390.149,476.594c-127.962,0-232.067,104.105-232.067,232.067
				s104.105,232.068,232.067,232.068h637.026c127.962,0,232.066-104.105,232.066-232.067s-104.104-232.068-232.066-232.068H390.149z
				"/>
			<path fill="#FFFFFF" d="M998.219,936.299H419.104c-60.804,0-117.969-23.679-160.964-66.673
				c-42.995-42.995-66.673-100.16-66.673-160.964s23.679-117.969,66.673-160.964c42.995-42.995,100.16-66.673,160.964-66.673
				h579.114c60.804,0,117.969,23.679,160.964,66.673c42.995,42.995,66.673,100.16,66.673,160.963
				c0,60.804-23.678,117.969-66.673,160.964C1116.187,912.62,1059.022,936.299,998.219,936.299z M419.104,497.691
				c-116.33,0-210.97,94.641-210.97,210.97c0,116.33,94.641,210.971,210.97,210.971h579.114
				c116.329,0,210.971-94.641,210.971-210.97s-94.642-210.97-210.971-210.97H419.104z"/>
			<path fill="#FFFFFF" d="M969.263,913.535H448.06c-112.967,0-204.873-91.906-204.873-204.873
				c0-112.968,91.906-204.874,204.873-204.874h521.203c112.968,0,204.873,91.906,204.873,204.873
				C1174.136,821.629,1082.23,913.535,969.263,913.535z M448.06,518.788c-104.696,0-189.873,85.177-189.873,189.873
				c0,104.697,85.177,189.874,189.873,189.874h521.203c104.696,0,189.873-85.177,189.873-189.873
				c0-104.697-85.177-189.874-189.873-189.874H448.06z"/>
			<path fill="#FFFFFF" d="M940.307,890.771H477.015c-100.416,0-182.109-81.694-182.109-182.109s81.694-182.11,182.109-182.11
				h463.292c100.415,0,182.109,81.694,182.109,182.109C1122.417,809.077,1040.723,890.771,940.307,890.771z M477.015,539.885
				c-93.063,0-168.776,75.713-168.776,168.776c0,93.064,75.713,168.777,168.776,168.777h463.292
				c93.063,0,168.775-75.713,168.775-168.776c0-93.064-75.712-168.777-168.775-168.777H477.015z"/>
			<path fill="#FFFFFF" d="M911.351,868.008h-405.38c-87.864,0-159.346-71.482-159.346-159.346s71.482-159.346,159.346-159.346
				h405.38c87.863,0,159.346,71.482,159.346,159.346C1070.697,796.525,999.215,868.008,911.351,868.008z M505.972,560.982
				c-81.431,0-147.679,66.249-147.679,147.679c0,81.431,66.249,147.68,147.679,147.68h405.38c81.431,0,147.68-66.249,147.68-147.679
				s-66.249-147.679-147.68-147.679H505.972z"/>
			<path fill="#FFFFFF" d="M882.395,845.244H534.927c-75.312,0-136.582-61.271-136.582-136.582
				c0-75.312,61.271-136.583,136.582-136.583h347.468c75.312,0,136.582,61.271,136.582,136.582
				C1018.977,783.973,957.707,845.244,882.395,845.244z M534.927,582.079c-69.797,0-126.582,56.785-126.582,126.582
				c0,69.798,56.785,126.583,126.582,126.583h347.468c69.798,0,126.582-56.785,126.582-126.582
				c0-69.798-56.784-126.583-126.582-126.583H534.927z"/>
			<path fill="#FFFFFF" d="M853.44,822.48H563.883c-62.759,0-113.818-51.059-113.818-113.818s51.059-113.818,113.818-113.818H853.44
				c62.76,0,113.818,51.059,113.818,113.818C967.259,771.421,916.2,822.48,853.44,822.48z M563.883,603.176
				c-58.165,0-105.485,47.32-105.485,105.485c0,58.165,47.32,105.486,105.485,105.486H853.44
				c58.164,0,105.484-47.321,105.484-105.485s-47.32-105.485-105.484-105.485H563.883z"/>
			<path fill="#FFFFFF" d="M824.484,799.716H592.839c-50.208,0-91.055-40.847-91.055-91.055c0-50.208,40.847-91.055,91.055-91.055
				h231.646c50.208,0,91.055,40.847,91.055,91.055C915.539,758.869,874.692,799.716,824.484,799.716z M592.839,624.273
				c-46.532,0-84.388,37.856-84.388,84.388s37.856,84.388,84.388,84.388h231.646c46.532,0,84.389-37.856,84.389-84.388
				s-37.856-84.388-84.389-84.388H592.839z"/>
			<path fill="#FFFFFF" d="M795.528,776.953H621.794c-37.656,0-68.291-30.635-68.291-68.291c0-37.656,30.635-68.292,68.291-68.292
				h173.734c37.656,0,68.291,30.635,68.291,68.292C863.819,746.317,833.184,776.953,795.528,776.953z M621.794,645.37
				c-34.899,0-63.291,28.393-63.291,63.292s28.392,63.291,63.291,63.291h173.734c34.898,0,63.291-28.392,63.291-63.291
				s-28.393-63.292-63.291-63.292H621.794z"/>
		</g>
	</g>
</g>
</svg>
