<?xml version="1.0" encoding="utf-8"?>
<!-- Generator: Adobe Illustrator 26.3.1, SVG Export Plug-In . SVG Version: 6.00 Build 0)  -->
<svg version="1.1" id="Layer_1" xmlns="http://www.w3.org/2000/svg" xmlns:xlink="http://www.w3.org/1999/xlink" x="0px" y="0px"
	 viewBox="0 0 250 250" enable-background="new 0 0 250 250" xml:space="preserve">
<g id="Layer_1_00000022551306557121988780000004448099154445944455_">
	<g id="Layer_1_00000035492201351235487810000014411238313480624802_">
		
			<line fill="none" stroke="#000000" stroke-width="2" stroke-linecap="square" stroke-miterlimit="10" x1="421.2" y1="307.7" x2="421.2" y2="307.7"/>
	</g>
</g>
<g id="GUIDE_00000129905089332745288770000010710920880451044515_">
	<path fill="#FFFFFF" d="M155.2,88.5c-5-0.2-10.4-0.8-14.5-3.9c-6.3-5-10.6-12.7-15.6-18.8c-8.4-10.7-19.2-17.2-32.6-19.3
		C54.1,40.5,21.7,75,30.1,113c4.6,19.6,15.3,29.3,31.3,40.2c6.2,4,13.4,7.8,19.2,12.4c10.5,8.1,14.6,16.7,14.3,29.9l0,0V250h63.5
		c-0.5-13.7,1.1-59-1-71.7c-0.9-4.7-3-9.2-6-13c-11.5-13.9-32-15.7-48-21.2c-3.3-1.2-6.7-2.7-9.4-5c-3.4-3.2-5.9-7.3-6.7-11.9
		c-2.9-15.4,12-28.3,26.9-24.1c7.3,2,12.4,7.7,15.2,14.5c4.3,9.6,6,23.3,13.8,31c3.2,3.2,7.8,4.4,12.3,4.4l0,0H250V88.5H155.2z"/>
</g>
</svg>
