<?xml version="1.0" encoding="utf-8"?>
<!-- Generator: Adobe Illustrator 26.3.1, SVG Export Plug-In . SVG Version: 6.00 Build 0)  -->
<svg version="1.1" xmlns="http://www.w3.org/2000/svg" xmlns:xlink="http://www.w3.org/1999/xlink" x="0px" y="0px"
	 viewBox="0 0 250 250" enable-background="new 0 0 250 250" xml:space="preserve">
<g id="Layer_1">
	<path fill="none" d="M8317-41.919"/>
	<path fill="none" d="M-8066-41.919"/>
</g>
<g id="ICON">
	<polygon fill="#FFFFFF" points="250,124.869 250,188.846 234.915,188.146 221.146,187.223 208.86,186.075 203.319,185.432 
		198.197,184.704 194.251,184.032 190.641,183.333 187.283,182.577 184.232,181.766 182.301,181.206 180.482,180.618 
		178.803,180.03 177.208,179.415 175.752,178.799 175.053,178.463 174.381,178.127 173.709,177.819 173.094,177.484 
		172.506,177.148 171.918,176.812 171.47,176.532 171.051,176.252 170.659,176 170.267,175.72 169.875,175.441 169.511,175.161 
		169.147,174.881 168.812,174.601 168.476,174.321 168.168,174.041 167.86,173.761 167.552,173.454 167.272,173.174 
		167.021,172.894 166.741,172.586 166.489,172.306 166.237,171.998 166.013,171.69 165.789,171.411 165.593,171.103 
		165.369,170.795 165.173,170.487 165.005,170.179 164.81,169.871 164.67,169.563 164.502,169.256 164.334,168.948 164.194,168.64 
		164.054,168.332 163.942,168.024 163.83,167.688 163.718,167.381 163.606,167.073 163.494,166.737 163.41,166.429 163.326,166.093 
		163.242,165.785 163.158,165.449 163.018,164.806 162.907,164.162 162.823,163.518 162.739,162.847 162.683,162.175 
		162.627,161.531 162.599,160.86 162.543,159.544 162.543,154.787 162.571,153.723 162.599,152.688 162.683,151.652 
		162.711,151.148 162.767,150.645 162.823,150.113 162.907,149.609 162.99,149.105 163.102,148.602 163.214,148.098 
		163.326,147.594 163.466,147.09 163.634,146.587 163.802,146.111 163.97,145.607 164.194,145.103 164.418,144.628 164.53,144.376 
		164.67,144.152 164.782,143.9 164.922,143.676 165.061,143.424 165.201,143.2 165.369,142.948 165.509,142.725 165.677,142.473 
		165.845,142.249 166.013,142.025 166.209,141.773 166.405,141.549 166.573,141.325 166.797,141.073 166.993,140.849 
		167.188,140.626 167.412,140.402 167.888,139.954 168.364,139.506 168.868,139.058 169.427,138.639 169.987,138.191 
		170.603,137.771 171.246,137.351 171.918,136.931 172.618,136.512 173.345,136.12 174.129,135.7 174.941,135.308 175.78,134.916 
		176.648,134.553 177.571,134.161 178.523,133.797 179.53,133.433 181.657,132.705 183.952,132.034 186.415,131.362 
		189.074,130.746 191.9,130.131 194.951,129.571 198.197,129.039 203.319,128.312 208.86,127.64 221.146,126.492 234.915,125.597 	
		"/>
	<polygon fill="#FFFFFF" points="181.433,121.903 189.494,120.923 207.461,119.244 227.751,117.985 250,117.005 250,121.959 
		232.257,122.798 216.081,123.862 201.668,125.205 195.175,125.989 189.214,126.856 185.575,127.472 182.161,128.144 
		178.971,128.843 176.004,129.543 173.233,130.327 170.659,131.11 169.455,131.502 168.28,131.922 167.16,132.342 166.097,132.789 
		165.061,133.209 164.054,133.657 163.102,134.105 162.207,134.553 161.339,135.028 160.528,135.504 159.716,135.98 
		158.988,136.456 158.261,136.931 157.589,137.435 156.945,137.939 156.33,138.443 155.742,138.946 155.21,139.45 154.707,139.982 
		154.455,140.234 154.203,140.514 153.979,140.766 153.755,141.017 153.531,141.297 153.335,141.549 153.139,141.829 
		152.943,142.109 152.747,142.361 152.552,142.641 152.384,142.92 152.216,143.2 152.048,143.452 151.908,143.732 151.74,144.012 
		151.6,144.292 151.46,144.572 151.32,144.852 151.068,145.411 150.844,145.971 150.621,146.531 150.425,147.118 150.257,147.678 
		150.117,148.266 149.977,148.854 149.837,149.413 149.725,150.001 149.641,150.589 149.557,151.176 149.473,151.764 
		149.361,152.968 149.305,154.143 149.249,155.346 149.221,158.957 149.221,161.28 149.277,163.574 149.361,164.722 
		149.445,165.869 149.501,166.457 149.585,167.017 149.669,167.576 149.781,168.136 149.893,168.696 150.005,169.256 
		150.145,169.815 150.313,170.375 150.481,170.935 150.676,171.495 150.872,172.026 151.096,172.586 151.348,173.118 
		151.628,173.649 151.908,174.181 152.216,174.713 152.384,174.993 152.552,175.245 152.719,175.497 152.915,175.776 
		153.083,176.028 153.279,176.28 153.699,176.812 153.979,177.12 154.259,177.456 154.539,177.763 154.846,178.099 155.154,178.407 
		155.49,178.715 155.826,179.023 156.19,179.359 156.554,179.667 156.917,179.974 157.309,180.282 157.729,180.59 158.149,180.87 
		158.569,181.178 159.016,181.486 159.464,181.766 160.024,182.129 160.612,182.465 161.199,182.801 161.843,183.137 
		162.487,183.473 163.158,183.809 164.558,184.48 166.041,185.096 167.608,185.74 169.287,186.327 171.079,186.943 172.954,187.503 
		174.941,188.062 177.04,188.622 179.223,189.126 183.98,190.133 189.214,191.057 195.175,191.925 201.668,192.708 216.081,194.052 
		232.257,195.115 250,195.927 250,204.546 227.751,203.567 207.461,202.279 189.494,200.628 181.433,199.649 174.073,198.529 
		169.791,197.774 165.789,196.962 162.039,196.122 158.569,195.227 155.35,194.303 153.811,193.828 152.356,193.324 
		150.928,192.848 149.585,192.316 148.298,191.813 147.038,191.281 145.863,190.749 144.715,190.189 143.624,189.658 
		142.588,189.07 141.609,188.51 140.685,187.923 139.79,187.363 138.922,186.747 138.111,186.159 137.355,185.544 136.627,184.928 
		135.956,184.312 135.62,184.004 135.312,183.697 135.004,183.389 134.696,183.053 134.416,182.745 134.137,182.409 
		133.857,182.101 133.605,181.766 133.157,181.178 132.709,180.562 132.289,179.946 131.926,179.331 131.562,178.687 
		131.226,178.071 130.946,177.428 130.666,176.812 130.47,176.308 130.274,175.832 130.107,175.357 129.939,174.881 
		129.799,174.377 129.659,173.901 129.519,173.398 129.407,172.922 129.295,172.418 129.211,171.914 129.015,170.935 
		128.875,169.927 128.763,168.92 128.679,167.912 128.623,166.905 128.539,164.862 128.511,160.776 128.539,156.522 
		128.595,155.123 128.679,153.723 128.791,152.324 128.875,151.624 128.987,150.953 129.099,150.253 129.211,149.553 
		129.351,148.882 129.519,148.21 129.687,147.51 129.883,146.839 130.107,146.167 130.358,145.495 130.61,144.852 130.918,144.18 
		131.226,143.536 131.562,142.865 131.73,142.557 131.926,142.221 132.122,141.913 132.317,141.577 132.513,141.269 
		132.737,140.933 132.961,140.626 133.185,140.318 133.437,140.01 133.689,139.674 133.941,139.366 134.193,139.058 
		134.472,138.751 134.752,138.443 135.34,137.827 135.956,137.239 136.599,136.624 137.299,136.036 138.055,135.448 138.81,134.86 
		139.622,134.301 140.489,133.741 141.385,133.181 142.337,132.622 143.316,132.09 144.352,131.53 145.415,130.998 146.562,130.495 
		147.738,129.991 148.969,129.459 150.229,128.983 151.572,128.48 152.943,128.004 155.882,127.08 159.044,126.185 162.431,125.345 
		166.069,124.505 169.931,123.75 174.073,123.022 	"/>
	<polygon fill="#FFFFFF" points="250,214.593 250,226.04 208.636,224.725 171.134,222.71 154.063,221.394 138.251,219.855 
		123.838,218.092 117.149,217.084 110.852,216.049 103.268,214.566 96.299,212.998 93.053,212.159 89.946,211.291 87.008,210.424 
		84.181,209.5 81.494,208.576 78.948,207.625 76.513,206.645 74.246,205.638 72.063,204.602 70.02,203.567 68.089,202.503 
		67.165,201.972 66.27,201.412 65.402,200.852 64.563,200.32 63.751,199.733 62.967,199.173 62.212,198.613 61.456,198.026 
		60.756,197.466 60.057,196.878 59.413,196.29 58.769,195.703 58.154,195.115 57.538,194.499 56.978,193.912 56.418,193.296 
		55.887,192.68 55.383,192.064 54.907,191.449 54.431,190.833 53.984,190.189 53.564,189.574 53.172,188.93 52.78,188.286 
		52.388,187.671 52.053,187.027 51.717,186.383 51.381,185.712 51.073,185.068 50.793,184.424 50.513,183.753 50.262,183.109 
		50.01,182.437 49.786,181.766 49.59,181.15 49.394,180.534 49.058,179.303 48.778,178.043 48.498,176.812 48.302,175.748 
		48.135,174.685 47.995,173.594 47.883,172.53 47.687,170.375 47.547,168.22 47.463,166.037 47.407,159.488 47.435,155.458 
		47.519,151.428 47.631,149.441 47.771,147.454 47.995,145.467 48.107,144.488 48.274,143.48 48.442,142.529 48.638,141.549 
		48.834,140.57 49.086,139.59 49.338,138.639 49.646,137.687 49.954,136.735 50.289,135.784 50.681,134.832 51.073,133.909 
		51.521,132.985 51.997,132.062 52.5,131.138 53.032,130.215 53.62,129.319 54.236,128.424 54.907,127.528 55.607,126.632 
		56.363,125.765 57.146,124.897 57.986,124.03 58.853,123.19 59.777,122.351 60.756,121.511 61.792,120.671 62.855,119.86 
		63.975,119.048 65.178,118.265 66.41,117.481 67.697,116.697 69.068,115.914 70.468,115.158 71.923,114.43 73.462,113.675 
		75.057,112.947 76.709,112.247 78.444,111.548 80.235,110.848 84.013,109.505 88.071,108.217 92.437,106.986 97.083,105.783 
		102.064,104.663 106.346,103.768 110.852,102.928 121.543,101.221 133.241,99.682 145.303,98.394 158.177,97.219 186.219,95.344 
		250,92.937 250,108.553 220.53,109.701 193.747,111.268 181.489,112.275 170.127,113.423 159.632,114.71 150.117,116.166 
		145.303,117.033 140.797,117.985 136.571,118.964 132.625,119.972 128.959,121.063 125.573,122.183 123.95,122.742 122.41,123.33 
		120.927,123.918 119.5,124.533 118.128,125.149 116.813,125.793 115.554,126.409 114.378,127.052 113.231,127.724 112.111,128.396 
		111.076,129.067 110.096,129.739 109.145,130.439 108.249,131.11 107.382,131.838 106.57,132.538 105.814,133.265 105.087,133.993 
		104.415,134.72 104.079,135.084 103.771,135.476 103.464,135.84 103.184,136.204 102.876,136.596 102.596,136.959 102.344,137.351 
		102.092,137.743 101.84,138.107 101.588,138.499 101.365,138.89 101.141,139.282 100.693,140.038 100.301,140.822 99.937,141.633 
		99.601,142.417 99.294,143.2 99.014,144.012 98.762,144.824 98.538,145.635 98.342,146.447 98.146,147.258 97.978,148.098 
		97.838,148.91 97.698,149.749 97.586,150.589 97.502,151.428 97.363,153.107 97.251,154.787 97.167,158.173 97.167,165.421 
		97.223,167.353 97.307,169.256 97.446,171.159 97.53,172.11 97.67,173.062 97.81,174.013 97.95,174.937 98.146,175.86 
		98.342,176.812 98.51,177.428 98.678,178.071 98.874,178.687 99.07,179.303 99.294,179.918 99.545,180.534 99.797,181.15 
		100.049,181.766 100.273,182.269 100.525,182.745 100.777,183.221 101.029,183.725 101.309,184.2 101.588,184.676 101.896,185.152 
		102.232,185.628 102.54,186.103 102.904,186.579 103.24,187.027 103.631,187.503 103.995,187.951 104.415,188.426 104.835,188.874 
		105.255,189.322 105.702,189.77 106.178,190.217 106.654,190.665 107.158,191.113 107.661,191.561 108.193,192.009 
		108.753,192.428 109.313,192.848 109.9,193.296 110.516,193.716 111.132,194.135 111.775,194.555 113.119,195.367 114.546,196.178 
		116.057,196.99 117.653,197.774 119.332,198.529 121.095,199.285 122.942,200.013 124.901,200.74 126.944,201.44 129.099,202.14 
		131.366,202.811 133.717,203.455 138.726,204.714 144.184,205.89 150.117,206.981 159.632,208.436 170.127,209.752 
		181.489,210.871 193.747,211.879 220.53,213.474 	"/>
</g>
</svg>
