<?xml version="1.0" encoding="utf-8"?>
<!-- Generator: Adobe Illustrator 26.3.1, SVG Export Plug-In . SVG Version: 6.00 Build 0)  -->
<svg version="1.1" xmlns="http://www.w3.org/2000/svg" xmlns:xlink="http://www.w3.org/1999/xlink" x="0px" y="0px"
	 viewBox="0 0 708.661 708.661" enable-background="new 0 0 708.661 708.661" xml:space="preserve">
<g id="Layer_2">
</g>
<g id="Layer_1">
	<path fill="#FFFFFF" d="M576.951,542.592c-2.288,0-4.629-0.05-7.028-0.15c-12.414-0.816-25.38-2.115-36.657-8.171
		c-14.149-7.938-22.761-21.132-26.394-40.369c-0.456-2.2-0.911-4.592-1.379-7.051c-1.915-10.064-4.086-21.471-8.431-29.637
		c-7.124-14.051-20.954-24.972-37.983-30.033c-7.166-2.212-15.423-3.673-24.583-4.356c-54.643-4.329-118.36-10.8-176.792-25.982
		l-0.106-0.029c-24.243-6.99-42.776-24.759-60.699-41.943c-11.002-10.549-21.395-20.513-32.979-28.143
		c-16.971-11.658-37.702-23.48-63.375-23.147l-4.221,0.056v-10.578l4.125-0.041c0.308-0.004,0.618-0.005,0.927-0.005
		c14.301,0,28.837,3.301,42.103,9.569c14.81,7.107,29.594,16.814,43.964,28.861l0.078,0.067c5.192,4.575,10.412,9.609,15.938,14.939
		c12.805,12.351,26.046,25.122,39.786,32.856c7.415,4.066,16.112,7.388,25.81,9.849c82.591,18.22,172.926,26.547,261.232,24.095
		c13.401-0.374,25.227-1.219,34.197-2.444c5.31-0.685,15.611-1.799,25.322-1.618c1.62,0.067,3.166,0.116,4.727,0.166
		c12.186,0.389,25.997,0.83,36.972,8.647c8.993,6.111,14.735,16.649,16.992,31.269c2.921,19.2,2.177,36.312-2.211,50.873
		C637.771,528.659,615.056,542.591,576.951,542.592z M468.262,421.553c16.07,6.403,29.056,17.737,36.195,31.82
		c4.899,9.208,7.195,21.273,9.222,31.92c0.459,2.413,0.905,4.761,1.367,6.99c3.161,16.739,10.428,28.061,22.229,34.683
		c9.74,5.23,21.692,6.404,33.094,7.155c38.442,1.588,60.045-9.952,67.936-36.375c4.03-13.376,4.688-29.258,1.955-47.216
		c-1.888-12.233-6.436-20.88-13.514-25.691c-8.999-6.409-20.936-6.79-32.479-7.158c-1.589-0.051-3.162-0.101-4.714-0.166
		c-9.064-0.163-18.921,0.898-23.972,1.55c-9.364,1.279-21.171,2.126-35.062,2.514C509.838,422.153,489.042,422.139,468.262,421.553z
		"/>
	<path fill="#FFFFFF" d="M575.629,628.625c-8.135,0-15.964-0.676-23.452-2.026c-20.344-3.413-34.467-14.729-40.791-32.716
		c-3.53-9.696-3.954-20.646-4.295-29.443c-0.3-6.278-0.39-13.542-0.485-21.232c-0.394-31.57-0.932-74.808-17.791-94.428
		l-0.069-0.083c-8.315-10.202-21.133-17.625-36.092-20.9c-4.045-0.909-8.96-1.611-11.578-1.956
		c-4.901-0.467-10.081-0.948-15.461-1.449c-33.632-3.129-75.487-7.023-105.899-12.46c-4.461-0.885-9.798-1.823-15.45-2.816
		c-19.025-3.345-42.697-7.506-56.683-13.603c-20.197-8.264-36.495-23.913-52.258-39.049c-11.762-11.294-22.871-21.961-35.467-29.83
		l-0.088-0.058c-15.76-10.407-35.145-21.022-59.236-20.766l-4.209,0.044v-10.598l4.157-0.01c13.368-0.046,26.766,2.695,38.747,7.883
		c15.41,6.85,30.798,16.686,45.772,29.253c5.235,4.557,10.728,9.818,16.544,15.39c12.193,11.679,26.013,24.917,38.467,32.231
		c8.096,4.8,18.004,8.666,29.462,11.5c47.866,10.646,104.219,18.529,162.976,22.797c8.786,0.603,16.238,1.648,22.766,3.197
		c15.309,3.623,28.334,10.55,37.666,20.029c14.52,14.378,17.478,30.343,20.339,45.781c2.083,11.242,4.051,21.859,10.486,31.31
		c6.459,9.366,16.101,15.233,28.645,17.418l0.148,0.028c10.938,2.315,22.762,2.178,34.202,2.048
		c4.166-0.049,8.474-0.099,12.673-0.027l0.182,0.007c1.17,0.07,2.375,0.133,3.607,0.197c12.461,0.648,27.97,1.454,37.216,11.758
		c13.681,15.568,14.683,43.465,2.216,60.949c-5.63,8.294-15.329,14.093-28.774,17.158
		C600.495,627.133,587.724,628.625,575.629,628.625z M514.276,515.183c0.434,9.531,0.552,19.005,0.662,27.92
		c0.095,7.615,0.185,14.808,0.479,20.977c0.32,8.254,0.717,18.481,3.815,26.996c5.272,14.994,17.154,24.424,34.375,27.312
		c17.569,3.171,37.195,2.372,58.378-2.364c11.306-2.577,19.309-7.218,23.77-13.789c10.264-14.396,9.487-38.031-1.606-50.656
		c-6.905-7.694-19.929-8.371-31.418-8.969c-1.224-0.063-2.421-0.126-3.584-0.195c-4.052-0.066-8.271-0.019-12.35,0.029
		c-11.868,0.136-24.133,0.276-35.949-2.213c-14.794-2.593-26.238-9.625-34.016-20.903
		C515.901,517.963,515.052,516.58,514.276,515.183z"/>
	<path fill="#FFFFFF" d="M442.752,630.728c-10.645,0-20.789-1.849-29.915-5.495c-9.695-3.8-17.54-8.859-23.291-15.026
		c-6.1-6.373-10.218-15.07-12.921-27.333c-2.902-12.118-3.062-28.087-3.188-40.917c-0.016-1.558-0.03-3.075-0.05-4.544
		c-0.144-18.57-0.32-41.654-3.776-61.328c-4.071-22.442-11.162-37.545-22.312-47.504c-5.696-5.069-13.064-9.1-21.893-11.974
		c-9.478-3.042-21.798-5.295-33.712-7.474c-6.795-1.243-13.215-2.417-18.903-3.698l0,0c-15.098-3.376-26.585-7.398-36.153-12.657
		c-14.958-7.986-30.507-22.884-44.226-36.028c-3.826-3.666-7.44-7.129-10.843-10.251c-10.81-10.048-23.837-19.326-37.694-26.85
		c-13.999-7.804-28.975-11.818-43.326-11.608l-4.225,0.06v-10.579l4.122-0.044c27.215-0.326,49.077,12.027,66.854,24.119
		c12.095,7.979,23.214,18.662,33.968,28.993c15.184,14.588,30.885,29.672,49.502,37.223l0.103,0.043
		c13.019,5.688,35.866,9.705,54.225,12.933c5.908,1.039,11.487,2.02,16.167,2.956c29.607,5.288,70.785,9.134,103.872,12.224
		c5.862,0.547,11.497,1.073,16.806,1.583l0.164,0.019c3.378,0.46,8.335,1.178,12.362,2.093c9.458,2.113,18.015,5.569,25.415,10.27
		c10.588,6.695,19.165,16.534,24.142,27.701c3.638,8.089,5.331,17.009,6.968,25.636l0.411,2.159
		c1.993,11.384,2.553,24.258,3.047,35.616l0.055,1.843c0.36,16.214,0.769,34.591-1.904,50.504
		c-5.514,33.404-22.347,50.712-54.575,56.108C452.861,630.32,447.751,630.728,442.752,630.728z M343.555,415.617
		c3.407,2.02,6.509,4.271,9.289,6.744c12.613,11.267,20.545,27.87,24.969,52.259c3.58,20.38,3.761,43.849,3.906,62.706
		c0.019,1.454,0.034,2.981,0.05,4.548c0.123,12.411,0.276,27.857,2.977,39.133c2.377,10.779,5.821,18.216,10.857,23.478
		c4.932,5.288,11.749,9.648,20.3,13.001c12.042,4.81,26.135,6.116,40.781,3.789c28.513-4.773,42.787-19.505,47.697-49.253
		c2.545-15.146,2.146-33.105,1.794-48.949l-0.049-1.666c-0.483-11.105-1.03-23.691-2.918-34.476l-0.401-2.108
		c-1.548-8.151-3.147-16.58-6.387-23.784c-4.321-9.694-11.775-18.237-20.997-24.067c-6.592-4.187-14.256-7.273-22.786-9.179
		c-3.69-0.839-8.354-1.515-11.572-1.954c-5.278-0.506-10.878-1.029-16.702-1.573C399.269,421.922,369.541,419.145,343.555,415.617z"
		/>
	<path fill="#FFFFFF" d="M315.539,625.003c-20.371,0-42.574-5.923-56.189-20.896c-12.938-14.385-16.801-32.738-17.767-45.605
		l-0.007-0.11c-0.687-14.173-0.72-28.759-0.756-44.201c-0.062-27.035-0.127-54.989-3.997-79.963
		c-1.631-9.96-4.342-19.294-8.052-27.709c-3.603-8.339-8.186-16.081-13.635-23.04c-6.201-8.133-16.463-17.771-25.517-26.273
		c-3.161-2.968-6.146-5.771-8.777-8.341c-10.846-10.168-23.751-19.465-37.261-26.829c-13.946-7.899-28.792-11.932-43.034-11.763
		l-4.223,0.058v-10.596l4.142-0.025c13.106-0.053,26.224,2.686,37.999,7.99l0.018,0.008c12.786,5.834,26,13.997,38.216,23.607
		c7.399,5.982,14.946,13.172,22.935,20.783c10.866,10.353,22.102,21.058,32.701,28.268c16.4,11.639,37.196,16.205,55.407,19.576
		c3.244,0.631,6.459,1.213,9.662,1.794c27.095,4.91,55.112,9.988,69.806,39.557c13.194,26.137,13.824,57.529,14.38,85.227
		l0.103,5.052c-0.017,2.248-0.019,4.513-0.02,6.79c-0.01,16.871-0.02,34.317-6.043,50.5c-7.321,18.595-20.561,30.011-39.378,34.006
		C329.903,624.242,322.837,625.003,315.539,625.003z M249.897,557.932c0.875,11.57,4.301,27.983,15.634,40.585
		c15.532,17.082,46.458,21.084,68.972,16.199c16.152-3.429,27.053-12.859,33.344-28.837c5.473-14.706,5.482-31.391,5.492-47.525
		c0.001-2.276,0.002-4.541,0.019-6.788l-0.101-4.882c-0.563-28.118-1.147-57.194-13.499-81.661
		c-12.845-25.847-37.616-30.336-63.841-35.09c-3.238-0.587-6.488-1.176-9.73-1.807c-18.801-3.479-40.33-8.224-57.92-20.437
		c3.08,4.904,5.807,10.089,8.142,15.494c3.98,9.029,6.893,19.042,8.644,29.73c3.972,25.634,4.038,53.909,4.101,81.255
		C249.189,529.493,249.222,543.969,249.897,557.932z"/>
	<path fill="#FFFFFF" d="M178.482,622.431c-17.72,0-36.026-4.294-47.894-14.108c-18.276-13.99-21.703-37.672-22.644-58.998
		c-0.744-30.032,7.477-50.474,24.433-60.837c13.525-8.306,28.806-8.751,43.584-9.181c12.237-0.357,23.796-0.694,34.271-5.191
		c9.676-4.222,16.503-11.161,18.708-19.032c5.074-18.646,0.706-40.201-12.991-64.036c-5.976-9.906-15.259-19.477-23.45-27.92
		l-1.344-1.386c-10.358-10.26-26.28-25.147-44.178-35.246l-0.103-0.06c-15.903-9.578-31.482-14.278-46.272-13.926l-4.262,0.097
		v-10.559l4.079-0.086c16.469-0.345,34.095,4.816,51.024,14.923c12.354,7.067,24.538,16.052,35.169,25.94
		c2.802,2.695,5.597,5.32,8.299,7.858c17.065,16.03,33.184,31.172,42.39,54.586c3.439,8.246,6.124,17.828,7.731,27.632
		c3.946,24.408,4.056,54.68,4.152,81.388c0.021,5.721,0.041,11.273,0.099,16.56l0,0.062l-0.001,0.062
		c-0.437,22.909-1.87,46.939-13.897,66.816c-5.965,9.652-15.661,16.856-27.322,20.319
		C199.407,620.904,189.048,622.431,178.482,622.431z M238.674,448.958c-0.39,2.828-0.957,5.61-1.701,8.344
		c-2.891,10.321-11.428,19.227-23.431,24.462c-11.956,5.134-24.859,5.51-37.338,5.873c-14.315,0.417-27.837,0.812-39.474,7.957
		c-14.24,8.703-21.121,26.684-20.458,53.444c0.897,20.324,3.875,40.842,19.437,52.711l0.135,0.107
		c16.502,13.702,49.057,14.974,69.755,8.294c9.791-2.909,17.811-8.832,22.678-16.708c10.927-18.058,12.257-40.807,12.673-62.563
		c-0.057-5.287-0.078-10.839-0.098-16.559C240.775,493.132,240.69,469.674,238.674,448.958z"/>
	<path fill="#FFFFFF" d="M175.161,487.61c-3.861,0-7.271-0.215-9.777-0.89c-12.617-2.418-24.124-8.64-32.419-17.533
		c-15.14-16.374-17.665-39.28-18.14-61.597c0.007-4.328,0.175-10.271,0.369-17.152c0.566-20.051,1.341-47.512-1.079-58.826
		c-1.013-4.993-2.517-10.532-6.05-14.108c-1.331-1.251-3.064-2.151-4.885-2.537l-0.666-0.167
		c-2.403-0.314-11.889-0.165-17.654-0.076c-2.673,0.042-4.724,0.071-6.307,0.083v23.181l-10.179-10.076
		c-4.782-4.746-15.981-15.859-16.67-16.511l-8.556-7.604l11.506,0.383c3.34,0.094,9.273,0.045,16.145-0.013
		c16.583-0.141,37.208-0.312,44.891,1.21c9.728,1.637,19.714,5.236,29.685,10.7c23.581,12.208,43.15,30.866,57.567,45.762
		l0.102,0.107c0.89,0.988,1.809,1.996,2.743,3.022c5.651,6.204,12.057,13.237,16.432,20.36
		c10.779,18.222,16.51,35.671,17.069,51.923l0.003,0.079l0,0.078c-0.045,14.045-1.397,28.666-17.018,39.524
		c-9.173,6.359-20.715,9.65-36.327,10.359c-0.695,0.024-1.442,0.056-2.261,0.09C180.728,487.508,177.836,487.61,175.161,487.61z
		 M115.935,313.888c3.66,4.815,5.263,10.725,6.338,16.024c2.621,12.249,1.829,40.287,1.251,60.761
		c-0.193,6.822-0.359,12.715-0.367,16.836c0.439,20.579,2.672,41.686,15.915,56.007c7.119,7.632,17.078,12.981,28.031,15.048
		l0.368,0.087c3.287,0.935,11.467,0.591,15.864,0.406c0.843-0.036,1.612-0.068,2.28-0.091c13.929-0.633,24.083-3.455,31.905-8.878
		c11.211-7.794,13.38-17.484,13.437-32.628c-0.527-14.82-5.868-30.912-15.875-47.83c-3.928-6.395-10.052-13.118-15.455-19.051
		c-0.927-1.018-1.839-2.019-2.723-2.999c-13.98-14.438-32.902-32.487-55.402-44.125l-0.09-0.048
		C132.808,318.688,124.247,315.49,115.935,313.888z M64.718,312.548c1.504,1.491,3.316,3.287,5.501,5.455v-5.498
		C68.296,312.521,66.451,312.536,64.718,312.548z"/>
	<path fill="#FFFFFF" d="M294.449,398.389c-21.521,0.001-43.605-6.427-61.369-18.199c-11.535-7.795-22.888-18.74-33.867-29.324
		c-6.016-5.801-11.701-11.28-17.232-16.083c-16.792-13.523-31.996-23.014-46.479-29.012c-10.713-4.352-22.699-6.654-34.655-6.654
		c-0.115,0-0.228,0-0.343,0.001l-4.182,0.015v-10.557l4.143-0.023c15.598-0.059,31.384,3.478,45.619,10.312
		c15.58,7.637,31.345,18.132,45.621,30.365l0.093,0.082c4.244,3.862,8.575,8.044,13.161,12.472
		c12.97,12.521,26.382,25.47,39.969,33.367c6.047,3.513,13.44,6.409,23.265,9.113l0.046,0.014
		c32.965,9.485,76.581,0.478,96.202-35.094c8.897-17.497,14.947-34.109,17.982-49.375c4.303-19.702,5.729-50.271,6.986-77.242
		c0.787-16.893,1.531-32.849,2.877-45.302c1.854-15.979,4.107-31.409,11.274-44.892c11.911-22.929,39.764-26.318,62.077-19.486
		c14.648,4.365,26.109,13.203,32.243,24.876c12.085,22.759,8.863,53.82,6.916,66.117c-3.897,23.251-14.801,42.001-30.709,52.833
		c-8.287,5.783-18.64,9.821-28.651,13.726c-4.867,1.899-9.465,3.692-13.686,5.627c-16.281,7.391-28.323,17.198-35.806,29.155
		l-0.069,0.107c-4.568,6.825-8.548,16.854-12.396,26.552c-3.917,9.869-7.967,20.074-12.851,27.51
		c-12.984,20.045-35.72,34.208-60.803,37.866C304.783,398.016,299.63,398.389,294.449,398.389z M445.039,118.079
		c-13.94,0-27.349,5.177-34.099,18.169c-6.503,12.235-8.615,26.82-10.369,41.943c-1.314,12.168-2.053,28-2.834,44.763
		c-1.237,26.54-2.514,53.916-6.228,73.952c8.409-11.601,20.761-21.148,36.786-28.423c4.427-2.029,9.133-3.865,14.116-5.809
		c9.557-3.729,19.438-7.583,26.95-12.824c18.945-12.899,25.18-35.178,27.214-47.312c1.81-11.433,4.854-40.33-6.06-60.884
		c-5.016-9.545-14.958-17.118-27.285-20.792C457.413,119.082,451.173,118.079,445.039,118.079z"/>
	<path fill="#FFFFFF" d="M499.152,422.002c-76.858,0-155.189-8.177-228.977-24.014l-0.058-0.014
		c-11.579-2.659-21.981-6.49-30.917-11.385c-14.687-8.235-29.189-22.229-41.985-34.577c-4.54-4.38-8.827-8.517-12.97-12.273
		c-9.04-8.113-20.13-16.031-33.889-24.193c-16.182-9.553-33.39-14.465-49.798-14.198l-4.234,0.068v-10.574l4.108-0.057
		c18.509-0.268,37.721,5.219,55.591,15.838c15.894,9.473,28.475,18.696,38.466,28.2c3.803,3.477,7.647,7.197,11.718,11.137
		c13.02,12.601,26.484,25.631,41.112,32.974c14.826,7.129,30.614,10.998,45.593,11.158c23.474,0.391,45.684-8.053,60.94-23.27
		c11.264-10.884,16.475-24.16,21.99-38.216c6.681-17.022,13.589-34.625,31.762-47.956c15.362-11.577,35.872-18.888,52.019-23.959
		l0.21-0.06c13.872-3.568,29.471-5.571,50.579-6.495l0.114-0.003c24.669-0.404,50.736,0.117,74.302,6.59
		c21.173,6.352,39.202,19.087,50.862,35.888c10.785,15.864,12.485,34.272,12.017,46.928c-0.504,10.169-1.852,23.256-7.872,34.752
		c-3.813,7.14-9.396,13.994-17.081,20.985c-10.062,9.231-22.685,16.039-36.489,19.678c-15.666,4.273-32.553,5.571-43.889,6.175
		C528.049,421.712,513.623,422.002,499.152,422.002z M309.985,397.256c75.836,13.311,155.277,18.67,231.999,15.549
		c10.902-0.581,27.192-1.827,42.122-5.899c12.536-3.305,23.945-9.449,33.027-17.781c6.981-6.352,11.993-12.474,15.334-18.729
		c5.252-10.026,6.454-21.951,6.914-31.216c0.42-11.356-1.068-27.887-10.561-41.849c-10.412-15.004-27.294-26.897-46.294-32.598
		c-22.443-6.163-47.78-6.656-71.808-6.268c-20.424,0.896-35.454,2.812-48.705,6.21c-15.491,4.869-35.082,11.844-49.438,22.662
		C396.306,299.272,390.134,315,383.6,331.651c-5.6,14.267-11.39,29.02-23.91,41.117
		C346.696,385.728,329.156,394.268,309.985,397.256z"/>
	<path fill="#FFFFFF" d="M293.896,396.183c-9.553,0-19.025-1.307-27.974-3.919c-12.188-3.318-21.487-7.253-29.19-12.362
		c-12.269-7.822-24.228-19.343-35.793-30.483c-6.62-6.377-12.874-12.401-18.996-17.57c-22.399-17.648-49.589-35.598-81.352-34.945
		l-4.251,0.086v-10.525l4.991-0.19c41.222-1.572,83.848-3.198,122.934-13.363c9.592-2.555,24.19-7.053,34.413-10.381
		c14.191-5.003,29.306-9.984,44.384-11.193c26.405-2.399,50.894,6.429,65.467,23.619c8.323,9.959,12.971,23.905,13.105,39.294v0.02
		c0.07,17.892-5.605,34.769-16.415,48.806c-10.571,13.728-25.266,23.783-42.495,29.078
		C313.343,394.841,303.578,396.183,293.896,396.183z M131.912,293.323c20.902,6.681,39.259,19.425,55.244,32.023l0.107,0.088
		c6.35,5.356,12.717,11.489,19.458,17.982c11.271,10.857,22.925,22.084,34.555,29.499c7.002,4.644,15.533,8.23,26.909,11.328
		c16.599,4.845,35.101,4.81,52.169-0.08c32.261-9.915,53.074-37.346,52.948-69.857c-0.12-13.459-4.078-25.527-11.147-33.985
		c-12.609-14.875-34.988-22.811-58.381-20.683c-14.141,1.135-28.683,5.94-42.37,10.767l-0.096,0.032
		c-9.576,3.118-24.468,7.747-34.92,10.531C196.024,288.865,163.871,291.714,131.912,293.323z"/>
	<path fill="#FFFFFF" d="M70.384,294.695c-5.299,0-10.577-0.021-15.828-0.054l-9.427-0.061l6.39-6.931
		c0.174-0.189,1.414-1.43,16.458-16.351l10.575-10.508v23.284c1.661-0.004,3.352-0.005,5.067-0.006
		c16.511-0.008,35.224-0.017,50.124-2.425c4.337-0.734,9.992-1.889,15.001-4.27c10.314-4.943,18.562-15.812,22.064-29.078
		c2.64-12.353,2.336-26.524,2.042-40.232c-0.136-6.327-0.264-12.302-0.125-18.167c0.231-15.924,0.52-35.79,3.309-52.455
		c1.901-11.499,4.592-20.368,8.466-27.904c8.083-15.976,23.621-28.326,43.742-34.752c25.207-8.051,54.098-6.095,75.394,5.104
		c33.927,18.101,40.592,60.223,41.547,83.722l0.006,0.156l-0.005,0.156c-0.841,24.466-4.85,59.403-29.833,80.242
		c-10.939,9.152-24.244,15.149-35.815,19.809l-0.116,0.045c-25.49,9.39-48.747,16.361-69.125,20.722
		C166.54,293.074,117.698,294.695,70.384,294.695z M64.635,286.354c1.861,0.005,3.718,0.007,5.584,0.007v-5.547
		C68.428,282.591,66.467,284.536,64.635,286.354z M260.085,78.281c-9.924,0-19.971,1.462-29.306,4.444
		c-17.976,5.741-31.774,16.608-38.854,30.6c-3.479,6.768-5.912,14.858-7.669,25.486c-2.686,16.05-2.97,35.566-3.198,51.247
		c-0.135,5.714-0.008,11.599,0.125,17.829c0.305,14.222,0.621,28.927-2.246,42.255l-0.043,0.181
		c-3.819,14.568-12.691,26.777-24.01,33.237c18.484-1.486,36.55-3.708,53.762-6.985c19.885-4.257,42.741-11.11,67.838-20.354
		c10.953-4.412,23.492-10.055,33.527-18.449c22.371-18.661,26.043-51.118,26.841-73.977c-0.905-21.748-6.945-60.444-37.116-76.541
		C288.469,81.329,274.406,78.281,260.085,78.281z"/>
	<path fill="#FFFFFF" d="M78.552,312.512H52.767l-1.229-1.271c-2.599-2.69-5.68-5.709-8.872-8.824l-7.325-7.149h43.211V312.512z
		 M56.293,304.178h13.927V303.6H55.723C55.914,303.794,56.105,303.986,56.293,304.178z"/>
	<path fill="#FFFFFF" d="M78.552,303.6H35.258l7.425-7.165c2.981-2.878,6.527-6.451,8.934-8.889l1.224-1.239h25.711V303.6z
		 M55.702,295.266h14.518v-0.625H56.322C56.12,294.846,55.913,295.055,55.702,295.266z"/>
	<rect x="70.219" y="301.962" fill="#FFFFFF" width="34.454" height="10.55"/>
	<rect x="70.227" y="299.708" fill="#FFFFFF" width="34.43" height="10.554"/>
	<rect x="70.227" y="297.476" fill="#FFFFFF" width="34.43" height="10.555"/>
	<rect x="70.227" y="295.246" fill="#FFFFFF" width="34.43" height="10.554"/>
	<rect x="70.227" y="293.014" fill="#FFFFFF" width="34.43" height="10.555"/>
	<rect x="70.227" y="290.784" fill="#FFFFFF" width="34.43" height="10.554"/>
	<rect x="70.227" y="288.553" fill="#FFFFFF" width="34.43" height="10.555"/>
	<rect x="70.219" y="286.307" fill="#FFFFFF" width="34.454" height="10.55"/>
	<polygon fill="#FFFFFF" points="78.552,312.512 52.783,312.512 42.41,301.914 78.552,301.914 	"/>
	<polygon fill="#FFFFFF" points="78.56,310.27 50.593,310.27 40.032,299.714 78.56,299.714 	"/>
	<polygon fill="#FFFFFF" points="78.56,308.048 48.396,308.048 37.605,297.49 78.56,297.49 	"/>
	<polygon fill="#FFFFFF" points="78.56,305.824 46.096,305.824 35.542,295.267 78.56,295.267 	"/>
	<polygon fill="#FFFFFF" points="78.56,303.552 35.591,303.552 46.147,292.995 78.56,292.995 	"/>
	<polygon fill="#FFFFFF" points="78.56,301.329 37.815,301.329 48.369,290.772 78.56,290.772 	"/>
	<polygon fill="#FFFFFF" points="78.56,299.106 39.877,299.106 50.669,288.549 78.56,288.549 	"/>
	<polygon fill="#FFFFFF" points="78.552,296.904 42.453,296.904 52.831,286.307 78.552,286.307 	"/>
	<polygon fill="#FFFFFF" points="29.07,298.292 78.536,338.23 78.536,260.65 	"/>
</g>
</svg>
