<?xml version="1.0" encoding="utf-8"?>
<!-- Generator: Adobe Illustrator 26.3.1, SVG Export Plug-In . SVG Version: 6.00 Build 0)  -->
<svg version="1.1" xmlns="http://www.w3.org/2000/svg" xmlns:xlink="http://www.w3.org/1999/xlink" x="0px" y="0px"
	 viewBox="0 0 708.661 708.661" enable-background="new 0 0 708.661 708.661" xml:space="preserve">
<g id="Layer_1">
	<polygon fill="#FFFFFF" points="37.868,339.729 37.868,489.175 74.431,513.581 112.545,488.139 150.659,513.581 150.659,220.154 	
		"/>
	<polygon fill="#FFFFFF" points="281.26,377.468 168.468,280.171 168.468,513.581 206.582,488.139 244.696,513.581 281.26,489.174 	
		"/>
	<polygon fill="#FFFFFF" points="411.86,236.691 299.069,370.26 299.069,513.581 337.183,488.139 375.297,513.581 411.86,489.174 	
		"/>
	<polygon fill="#FFFFFF" points="673.062,455.913 560.27,349.058 560.27,513.581 598.384,488.139 636.498,513.581 673.062,489.174 	
		"/>
	<polygon fill="#FFFFFF" points="429.67,187.503 429.67,489.174 466.233,513.581 504.347,488.139 542.461,513.581 542.461,280.171 	
		"/>
</g>
<g id="GUIDE">
</g>
<g id="HARDSCAPE::pool">
</g>
<g id="FOUNTAIN">
</g>
<g id="BUILDING">
	<g id="Outline">
	</g>
	<g id="footprint">
	</g>
</g>
<g id="Layer_3">
</g>
<g id="Layer_5">
</g>
</svg>
