<?xml version="1.0" encoding="utf-8"?>
<!-- Generator: Adobe Illustrator 26.3.1, SVG Export Plug-In . SVG Version: 6.00 Build 0)  -->
<svg version="1.1" xmlns="http://www.w3.org/2000/svg" xmlns:xlink="http://www.w3.org/1999/xlink" x="0px" y="0px"
	 viewBox="0 0 1080 1080" enable-background="new 0 0 1080 1080" xml:space="preserve">
<g id="Layer_2">
</g>
<g id="Layer_1">
	<g>
		<polygon fill="#FFFFFF" points="861.11,705.24 1014.5,929.23 905.71,929.23 806.1,778.9 706.48,929.23 597.69,929.23 
			749.08,704.64 595.69,480.66 704.48,480.66 804.1,630.98 903.71,480.66 1012.5,480.66 		"/>
		<polygon fill="#FFFFFF" points="538.5,514 538.5,645 517.14,645 517.14,929.24 427.3,929.24 427.3,645 405.5,645 405.5,514 
			427.3,514 427.3,480.66 452.01,480.66 463.97,132 479.53,132 491.49,480.66 517.14,480.66 517.14,514 		"/>
		<polygon fill="#FFFFFF" points="198.5,514 198.5,645 177.34,645 177.34,929.24 87.5,929.24 87.5,645 65.5,645 65.5,514 87.5,514 
			87.5,480.66 112.01,480.66 123.97,132 139.53,132 151.49,480.66 177.34,480.66 177.34,514 		"/>
		<polygon fill="#FFFFFF" points="368.5,514 368.5,645 347.24,645 347.24,929.24 257.4,929.24 257.4,645 235.5,645 235.5,514 
			257.4,514 257.4,480.66 283.01,480.66 294.97,132 310.53,132 322.49,480.66 347.24,480.66 347.24,514 		"/>
	</g>
</g>
</svg>
