<?xml version="1.0" encoding="utf-8"?>
<!-- Generator: Adobe Illustrator 26.3.1, SVG Export Plug-In . SVG Version: 6.00 Build 0)  -->
<svg version="1.1" xmlns="http://www.w3.org/2000/svg" xmlns:xlink="http://www.w3.org/1999/xlink" x="0px" y="0px"
	 viewBox="0 0 708.661 708.661" enable-background="new 0 0 708.661 708.661" xml:space="preserve">
<g id="GUIDE">
</g>
<g id="Layer_1">
</g>
<g id="Layer_4">
	<g>
		<polygon fill="#FFFFFF" points="664.38,388.413 664.38,385.072 664.38,368.106 510.515,368.106 510.458,368.106 510.456,368.163 
			510.445,368.162 510.444,368.174 510.434,368.173 510.434,368.183 508.808,368.106 507.174,368.106 51.454,368.106 
			51.454,388.973 55.285,388.973 58.626,388.973 664.38,388.973 		"/>
		<rect x="58.626" y="392.314" fill="#FFFFFF" width="605.754" height="20.867"/>
		<path fill="#FFFFFF" d="M80.145,295.48v20.868l164.486,0.002c66.18,0,98.38,11.123,132.47,22.899
			c5.825,2.012,11.688,4.037,17.766,6.02c-12.146-4.759-23.254-9.855-34.248-14.901c-39.093-17.941-76.018-34.887-153.036-34.887
			h-1.671v0H80.145z"/>
		<path fill="#FFFFFF" d="M65.8,319.689v20.867h227.86c56.42,0,83.23,5.587,111.614,11.503c0.108,0.022,0.216,0.045,0.324,0.067
			c-10.476-3.12-20.08-6.436-29.587-9.721c-33.817-11.682-65.76-22.716-131.379-22.716l-167.827-0.002H65.8z"/>
		<path fill="#FFFFFF" d="M62.459,343.897H44.281v20.867h3.832h3.341h409.153c-22.996-2.554-39.682-6.031-56.015-9.435
			c-28.21-5.879-54.856-11.433-110.932-11.433H65.8H62.459z"/>
	</g>
</g>
</svg>
