<?xml version="1.0" encoding="utf-8"?>
<!-- Generator: Adobe Illustrator 26.3.1, SVG Export Plug-In . SVG Version: 6.00 Build 0)  -->
<svg version="1.1" xmlns="http://www.w3.org/2000/svg" xmlns:xlink="http://www.w3.org/1999/xlink" x="0px" y="0px"
	 viewBox="0 0 566.929 566.929" enable-background="new 0 0 566.929 566.929" xml:space="preserve">
<g id="Layer_1">
</g>
<g id="GUIDE">
</g>
<g id="Layer_2">
	<path fill="#FFFFFF" d="M125.394,247.842h69.764l2.459,0.043c50.202,1.465,60.475,25.151,36.672,67.736l-1.251,2.157
		l-33.652,58.288c-7.686,13.372-21.413,33.562-38.485,34.904l-0.604,0.043l-0.647,0.043h-1.251
		c-17.078-0.51-30.649-19.702-38.485-32.833l-0.647-1.079l-0.604-1.079l-33.652-58.288c-7.505-12.962-17.581-33.78-11.735-49.012
		l0.475-1.208l0.561-1.122c7.126-14.23,27.234-17.442,41.418-18.336l2.33-0.129l2.373-0.086l2.459-0.043H125.394"/>
	<path fill="#FFFFFF" d="M441.535,247.842h-69.764l-2.459,0.043c-50.202,1.465-60.475,25.151-36.672,67.736l1.251,2.157
		l33.652,58.288c7.686,13.372,21.413,33.562,38.485,34.904l0.604,0.043l0.647,0.043h1.251c17.078-0.51,30.649-19.702,38.485-32.833
		l0.647-1.079l0.604-1.079l33.652-58.288c7.505-12.962,17.581-33.78,11.735-49.012l-0.475-1.208l-0.561-1.122
		c-7.126-14.23-27.234-17.442-41.418-18.336l-2.33-0.129l-2.373-0.086l-2.459-0.043H441.535"/>
	<path fill="#FFFFFF" d="M317.26,452.104h-69.764l-2.459-0.043c-50.202-1.465-60.475-25.151-36.672-67.736l1.251-2.157
		l33.652-58.288c7.686-13.372,21.413-33.562,38.485-34.904l0.604-0.043l0.647-0.043h1.251c17.078,0.51,30.649,19.702,38.485,32.833
		l0.647,1.079l0.604,1.079l33.652,58.288c7.505,12.962,17.581,33.78,11.735,49.012l-0.475,1.208l-0.561,1.122
		c-7.126,14.23-27.234,17.442-41.418,18.336l-2.33,0.129l-2.373,0.086l-2.459,0.043H317.26"/>
	<path fill="#FFFFFF" d="M462.261,203.104H104.668c-18.303,0-33.14-14.837-33.14-33.14v0c0-18.303,14.837-33.14,33.14-33.14h357.593
		c18.303,0,33.14,14.837,33.14,33.14v0C495.401,188.267,480.564,203.104,462.261,203.104z"/>
</g>
</svg>
