<?xml version="1.0" encoding="utf-8"?>
<!-- Generator: Adobe Illustrator 27.5.0, SVG Export Plug-In . SVG Version: 6.00 Build 0)  -->
<svg version="1.1" id="Layer_1" xmlns="http://www.w3.org/2000/svg" xmlns:xlink="http://www.w3.org/1999/xlink" x="0px" y="0px"
	 viewBox="0 0 141.7 141.7" style="enable-background:new 0 0 141.7 141.7;" xml:space="preserve">
<style type="text/css">
	.st0{fill:#FFFFFF;}
</style>
<g>
	<g>
		<g>
			<path class="st0" d="M70.9,20.2c3.9,0,7,3.1,7,7s-3.1,7-7,7s-7-3.1-7-7S67,20.2,70.9,20.2 M70.9,17.2c-5.5,0-10,4.5-10,10
				s4.5,10,10,10s10-4.5,10-10S76.4,17.2,70.9,17.2L70.9,17.2z"/>
			<path class="st0" d="M70.9,37.7c-5.8,0-10.5-4.7-10.5-10.5s4.7-10.5,10.5-10.5s10.5,4.7,10.5,10.5S76.6,37.7,70.9,37.7z
				 M70.9,17.7c-5.2,0-9.5,4.3-9.5,9.5s4.3,9.5,9.5,9.5s9.5-4.3,9.5-9.5S76.1,17.7,70.9,17.7z M70.9,34.7c-4.2,0-7.5-3.3-7.5-7.5
				s3.3-7.5,7.5-7.5s7.5,3.3,7.5,7.5S75.1,34.7,70.9,34.7z M70.9,20.7c-3.6,0-6.5,2.9-6.5,6.5s2.9,6.5,6.5,6.5s6.5-2.9,6.5-6.5
				S74.5,20.7,70.9,20.7z"/>
		</g>
	</g>
	<g>
		<g>
			<path class="st0" d="M70.9,19.2c8.9,0,16.1,7.2,16.1,16.1s-7.2,16.1-16.1,16.1s-16.1-7.2-16.1-16.1S62,19.2,70.9,19.2 M70.9,17.2
				c-10,0-18.1,8.1-18.1,18.1s8.1,18.1,18.1,18.1S89,45.3,89,35.3S80.8,17.2,70.9,17.2L70.9,17.2z"/>
			<path class="st0" d="M70.9,53.9c-10.3,0-18.6-8.3-18.6-18.6s8.3-18.6,18.6-18.6S89.5,25,89.5,35.3C89.4,45.6,81.1,53.9,70.9,53.9
				z M70.9,17.7c-9.7,0-17.6,7.9-17.6,17.6s7.9,17.6,17.6,17.6S88.5,45,88.5,35.3S80.6,17.7,70.9,17.7z M70.9,51.9
				c-9.2,0-16.6-7.4-16.6-16.6s7.4-16.6,16.6-16.6s16.6,7.4,16.6,16.6C87.4,44.5,80,51.9,70.9,51.9z M70.9,19.7
				c-8.6,0-15.6,7-15.6,15.6s7,15.6,15.6,15.6s15.6-7,15.6-15.6C86.4,26.7,79.5,19.7,70.9,19.7z"/>
		</g>
	</g>
	<g>
		<g>
			<path class="st0" d="M70.9,18.2c14.2,0,25.8,11.6,25.8,25.8S85.1,69.9,70.9,69.9S45,58.3,45,44S56.6,18.2,70.9,18.2 M70.9,17.2
				C56.1,17.2,44,29.2,44,44s12,26.8,26.8,26.8s26.8-12,26.8-26.8C97.7,29.2,85.7,17.2,70.9,17.2L70.9,17.2z"/>
			<path class="st0" d="M70.8,71.3c-15.1,0-27.3-12.2-27.3-27.3s12.3-27.3,27.4-27.3c7.3,0,14.2,2.9,19.3,8c5.1,5.2,7.9,12,7.9,19.3
				C98,59.1,85.8,71.3,70.8,71.3z M70.9,18.7c-14,0-25.4,11.3-25.4,25.3s11.4,25.4,25.4,25.4S96.2,58,96.2,44
				C96.2,30.1,84.8,18.7,70.9,18.7z M44.4,44C44.4,44.1,44.4,44.1,44.4,44C44.4,44.1,44.4,44.1,44.4,44z M70.9,17.7
				c-14.6,0-26.4,11.8-26.4,26.3C44.4,29.5,56.3,17.7,70.9,17.7L70.9,17.7L70.9,17.7z M70.9,17.7c8,0,15.1,3.6,19.9,9.2
				c-0.4-0.5-0.9-1-1.3-1.4C84.5,20.5,77.9,17.8,70.9,17.7z M70.9,17.7L70.9,17.7L70.9,17.7z"/>
		</g>
	</g>
	<g>
		<g>
			<path class="st0" d="M70.9,18c18.9,0,34.3,15.4,34.3,34.3S89.8,86.5,70.9,86.5S36.6,71.2,36.6,52.3S52,18,70.9,18 M70.9,17.2
				c-19.3,0-35,15.7-35,35s15.7,35,35,35s35-15.7,35-35S90.2,17.2,70.9,17.2L70.9,17.2z"/>
			<path class="st0" d="M70.9,87.7c-19.6,0-35.5-15.9-35.5-35.5s15.9-35.5,35.5-35.5s35.5,15.9,35.5,35.5S90.4,87.7,70.9,87.7z
				 M70.9,18.5C52.2,18.5,37,33.7,37,52.3S52.2,86,70.9,86c18.6,0,33.8-15.1,33.8-33.7S89.5,18.5,70.9,18.5z"/>
		</g>
	</g>
	<g>
		<g>
			<path class="st0" d="M70.9,17.7C94.7,17.7,114,37,114,60.8S94.6,104,70.9,104S27.8,84.6,27.8,60.8S47.1,17.7,70.9,17.7
				 M70.9,17.2c-24.1,0-43.6,19.5-43.6,43.6s19.5,43.6,43.6,43.6s43.6-19.5,43.6-43.6S95,17.2,70.9,17.2L70.9,17.2z"/>
			<path class="st0" d="M70.9,105c-24.3,0-44.1-19.8-44.1-44.1s19.8-44.1,44.1-44.1S115,36.6,115,60.9C114.9,85.2,95.2,105,70.9,105
				z M70.9,18.2c-23.5,0-42.6,19.1-42.6,42.6s19.1,42.7,42.6,42.7s42.6-19.2,42.6-42.7C113.4,37.4,94.3,18.2,70.9,18.2z"/>
		</g>
	</g>
	<g>
		<g>
			<path class="st0" d="M70.9,17.5c29.4,0,53.4,23.9,53.4,53.4s-23.9,53.4-53.4,53.4s-53.4-23.9-53.4-53.4S41.4,17.5,70.9,17.5
				 M70.9,17.2c-29.6,0-53.6,24-53.6,53.6s24,53.6,53.6,53.6s53.6-24,53.6-53.6S100.5,17.2,70.9,17.2L70.9,17.2z"/>
			<path class="st0" d="M70.9,125c-29.8,0-54.1-24.3-54.1-54.1C16.8,41,41,16.7,70.9,16.7c29.8,0,54.1,24.3,54.1,54.1
				C124.9,100.7,100.7,125,70.9,125z M70.9,18C41.7,18,18,41.7,18,70.9s23.7,52.9,52.9,52.9s52.9-23.7,52.9-52.9
				C123.8,41.8,100,18,70.9,18z"/>
		</g>
	</g>
</g>
<g>
	<g>
		<g>
			<g>
				<path class="st0" d="M71.9,15.9L71.9,15.9h-0.3h-0.1c-0.3,0-0.7,0-1,0h-0.1c-0.1,0-0.2,0-0.3,0h-0.2c-14.5,0.3-28,6.1-38.2,16.5
					C21.5,42.7,15.9,56.4,15.9,70.9c0,30.3,24.7,55,55,55c30.2,0,54.8-24.7,55-55.1C125.8,41.1,101.6,16.4,71.9,15.9z M70.8,123
					c-28.7,0-52-23.3-52-52c0-15.3,6.9-29.8,18.3-39.6C30,39.5,25.9,50,25.9,60.9c0,24.8,20.2,45,45,45c24.7,0,44.8-20.2,45-45
					c0-10.8-3.8-21-10.6-29c11,9.8,17.7,24,17.7,39C122.9,99.6,99.6,123,70.8,123z M70.8,21.6c3.1,0,5.6,2.5,5.6,5.7
					s-2.5,5.7-5.6,5.7c-3.1,0-5.7-2.5-5.7-5.7S67.7,21.6,70.8,21.6z M70.8,38.6c6.3,0,11.3-5.1,11.3-11.3c0-0.5,0-0.9-0.1-1.3
					c2.2,2.6,3.4,5.9,3.5,9.4c0,8.1-6.6,14.8-14.8,14.8s-14.8-6.6-14.8-14.8c0-3.5,1.2-6.9,3.5-9.5c-0.1,0.5-0.1,0.9-0.1,1.4
					C59.5,33.5,64.6,38.6,70.8,38.6z M51.4,35.3c0,10.7,8.7,19.5,19.5,19.5c10.6,0,19.3-8.7,19.5-19.5c0-2.8-0.6-5.6-1.8-8.1
					c4.3,4.5,6.8,10.5,6.8,16.8c0,13.5-11,24.5-24.5,24.5c-13.5,0-24.5-11-24.5-24.5c0-6.5,2.5-12.6,7-17.1
					C52.1,29.5,51.4,32.4,51.4,35.3z M42.6,44c0,15.5,12.6,28.2,28.1,28.2c15.4,0,28.1-12.6,28.2-28.2c0-4.8-1.2-9.5-3.5-13.6
					c5.3,6,8.4,13.7,8.4,21.9c0,18.1-14.8,32.9-33,32.9c-18.2,0-33-14.7-33-32.9c0-8.1,3-15.7,8.2-21.7C43.8,34.7,42.6,39.2,42.6,44
					z M34.5,52.2c0,20,16.3,36.3,36.4,36.3c20,0,36.3-16.3,36.3-36.3c0-7.2-2.1-14-5.9-19.8c7.2,7.6,11.2,17.7,11.3,28.4
					c0,23.1-18.7,41.9-41.8,41.9c-23,0-41.8-18.8-41.8-41.9c0-10.7,4.2-20.9,11.4-28.6C36.6,38.1,34.5,45,34.5,52.2z"/>
			</g>
		</g>
	</g>
</g>
</svg>
