<?xml version="1.0" encoding="utf-8"?>
<!-- Generator: Adobe Illustrator 26.3.1, SVG Export Plug-In . SVG Version: 6.00 Build 0)  -->
<svg version="1.1" xmlns="http://www.w3.org/2000/svg" xmlns:xlink="http://www.w3.org/1999/xlink" x="0px" y="0px"
	 viewBox="0 0 708.661 708.661" enable-background="new 0 0 708.661 708.661" xml:space="preserve">
<g id="Layer_1">
	
		<line fill="none" stroke="#000000" stroke-width="10" stroke-linecap="square" stroke-miterlimit="10" x1="709.208" y1="697.281" x2="709.208" y2="697.281"/>
</g>
<g id="GUIDE">
</g>
<g id="Layer_3">
</g>
<g id="Make2D::Visible::HATCH">
	<path fill="#FFFFFF" d="M305.833,256.806c-0.001-1.596-0.173-3.189-0.512-4.748c-0.168-0.772-0.376-1.53-0.625-2.279
		c-0.355-1.07-0.785-2.098-1.296-3.102c-0.499-0.981-1.064-1.911-1.702-2.807c-0.317-0.445-0.649-0.877-0.998-1.298
		c-0.106-0.128-0.215-0.255-0.323-0.381c-0.258-0.304-0.514-0.61-0.768-0.917c-0.507-0.616-1.004-1.24-1.489-1.872
		c-3.893-5.068-7.081-10.632-9.473-16.559c-1.194-2.958-2.187-5.995-2.97-9.088c-0.786-3.103-1.354-6.224-1.712-9.405
		c-0.358-3.182-0.499-6.351-0.423-9.551c0.076-3.201,0.365-6.359,0.874-9.52c0.507-3.149,1.227-6.263,2.155-9.314
		c0.928-3.052,2.064-6.04,3.396-8.937c2.67-5.805,6.116-11.216,10.245-16.092c4.131-4.877,8.899-9.164,14.186-12.754
		c4.633-3.146,9.636-5.733,14.88-7.698c5.245-1.965,10.715-3.298,16.275-3.972c1.39-0.169,2.782-0.296,4.18-0.381
		c1.398-0.085,2.795-0.129,4.195-0.131c2.807-0.004,5.59,0.159,8.377,0.491c5.561,0.662,11.034,1.987,16.283,3.942
		c2.631,0.98,5.18,2.107,7.675,3.393c2.495,1.287,4.892,2.709,7.216,4.282c4.644,3.143,8.889,6.823,12.659,10.974
		c3.771,4.152,7.025,8.727,9.71,13.652c2.682,4.92,4.768,10.143,6.212,15.558c1.661,6.227,2.46,12.653,2.374,19.098
		c-0.086,6.447-1.056,12.846-2.883,19.028c-0.913,3.086-2.035,6.109-3.361,9.041c-1.33,2.944-2.845,5.762-4.565,8.496
		c-1.714,2.723-3.613,5.33-5.681,7.795c-0.129,0.154-0.26,0.307-0.39,0.461c-0.058,0.068-0.117,0.136-0.175,0.205
		c-0.089,0.106-0.177,0.211-0.263,0.318c-0.174,0.213-0.343,0.431-0.509,0.651c-0.332,0.442-0.646,0.893-0.945,1.358
		c-1.216,1.894-2.138,3.959-2.737,6.129c-0.403,1.458-0.654,2.959-0.753,4.467c-0.026,0.401-0.042,0.803-0.047,1.205
		c-0.002,0.199-0.001,0.398-0.001,0.596c0,0.196,0,0.392,0,0.588c0,0.783,0,1.566,0,2.35c0,3.132-0.001,6.265-0.001,9.397
		c-0.001,12.53-0.001,25.06-0.002,37.591c-0.002,44.781-0.004,89.56-0.005,134.341c-0.001,22.233-0.001,44.467-0.001,66.701
		c0,5.646,0,11.291,0,16.937c0,0.695,0,1.39,0,2.085c0,0.694,0,1.388,0,2.082c0,1.389,0,2.779,0,4.168c0,2.78,0,5.559,0,8.338
		c0,0.333,0,0.666-0.004,1c-0.004,0.323-0.01,0.648-0.021,0.972c-0.021,0.656-0.055,1.31-0.103,1.965
		c-0.098,1.341-0.25,2.671-0.459,3.999c-0.434,2.761-1.108,5.478-2.014,8.122c-1.917,5.592-4.846,10.782-8.643,15.313
		c-3.79,4.523-8.379,8.31-13.539,11.173c-4.91,2.725-10.254,4.568-15.8,5.45c-1.304,0.208-2.612,0.361-3.929,0.461
		c-1.279,0.097-2.556,0.142-3.837,0.136c-2.609-0.011-5.213-0.235-7.785-0.668c-5.55-0.935-10.888-2.832-15.781-5.611
		c-10.263-5.828-18.026-15.222-21.817-26.398c-0.881-2.598-1.539-5.266-1.965-7.977c-0.205-1.304-0.357-2.611-0.454-3.928
		c-0.048-0.643-0.083-1.287-0.104-1.932c-0.024-0.708-0.028-1.218-0.028-1.926c0-5.459,0-10.918,0-16.377
		C305.833,435.927,305.833,346.367,305.833,256.806z M364.539,541.767c0-16.5,0-33.001,0.001-49.501
		c0-18.388-0.001-36.775,0.001-55.163c0.003-34.932,0.006-69.865,0.007-104.797c0.001-17.456,0.002-34.91,0.004-52.366
		c0-4.363,0.001-8.727,0.001-13.091c-0.001-1.091-0.001-2.182,0-3.272c0.001-1.091,0.003-2.182,0.002-3.272
		c0-0.546-0.001-1.092-0.004-1.637c-0.001-0.546-0.004-1.092-0.002-1.637c0.004-1.133,0.022-2.139,0.079-3.271
		c0.11-2.164,0.346-4.368,0.69-6.507c0.348-2.159,0.811-4.283,1.394-6.392c0.582-2.109,1.275-4.17,2.083-6.202
		c0.809-2.033,1.721-4.007,2.747-5.938c1.025-1.932,2.152-3.793,3.38-5.602c0.613-0.903,1.247-1.79,1.91-2.657
		c0.751-0.983,1.269-1.593,2.06-2.543c0.735-0.885,1.348-1.637,2.011-2.58c0.629-0.894,1.206-1.816,1.741-2.77
		c0.535-0.954,1.021-1.926,1.461-2.928c0.439-1.001,0.826-2.017,1.163-3.058c0.672-2.075,1.138-4.219,1.387-6.387
		c0.249-2.169,0.281-4.358,0.096-6.534c-0.185-2.175-0.585-4.328-1.197-6.424c-0.612-2.097-1.43-4.127-2.444-6.061
		c-1.014-1.934-2.218-3.763-3.595-5.457c-1.376-1.694-2.919-3.249-4.603-4.638c-1.684-1.389-3.504-2.607-5.43-3.636
		c-1.927-1.029-3.949-1.863-6.041-2.49c-2.09-0.626-4.243-1.045-6.415-1.246c-1.089-0.101-2.175-0.148-3.269-0.139
		c-1.093,0.009-2.179,0.073-3.266,0.191c-2.171,0.235-4.312,0.684-6.395,1.342c-2.08,0.657-4.096,1.521-6.006,2.576
		c-3.811,2.104-7.17,4.947-9.875,8.358c-1.349,1.702-2.527,3.534-3.515,5.468c-0.989,1.935-1.781,3.961-2.369,6.053
		c-0.589,2.092-0.968,4.233-1.134,6.4c-0.165,2.166-0.115,4.343,0.149,6.499c0.263,2.154,0.74,4.283,1.422,6.343
		c0.684,2.066,1.572,4.046,2.643,5.939c0.535,0.947,1.114,1.862,1.747,2.746c0.633,0.883,1.322,1.719,2.015,2.554
		c0.784,0.945,1.293,1.562,2.036,2.54c0.657,0.865,1.288,1.746,1.896,2.645c1.22,1.801,2.335,3.655,3.352,5.577
		c1.017,1.923,1.923,3.888,2.725,5.91c0.803,2.022,1.491,4.073,2.07,6.17c0.579,2.097,1.039,4.21,1.386,6.358
		c0.341,2.113,0.582,4.334,0.691,6.472c0.027,0.541,0.046,1.082,0.058,1.623c0.012,0.54,0.017,1.081,0.018,1.62
		c0.002,0.541,0.001,1.082,0.001,1.623c0,0.733,0,1.466,0,2.199c0,34.935,0.001,69.87,0.001,104.806
		c0,34.885-0.004,69.77-0.004,104.654c0,21.99,0,43.979,0,65.968c0,1.615,0,3.231,0,4.845c0,0.202,0,0.404,0,0.606
		c0,0.186,0.001,0.373,0.01,0.56c0.016,0.378,0.052,0.752,0.109,1.126c0.118,0.786,0.325,1.555,0.616,2.295
		c1.247,3.167,3.942,5.539,7.242,6.374c1.474,0.373,3.011,0.423,4.506,0.148c1.618-0.298,3.143-0.968,4.456-1.96
		c1.356-1.024,2.445-2.36,3.174-3.895C364.19,544.887,364.539,543.339,364.539,541.767z"/>
	<path fill="#FFFFFF" d="M402.126,256.888c0.03,6.346,2.747,12.37,7.493,16.587c4.724,4.197,11.004,6.193,17.285,5.494
		c3.098-0.346,6.092-1.336,8.784-2.909c2.705-1.581,5.048-3.714,6.875-6.26c0.452-0.63,0.869-1.279,1.252-1.953
		c0.387-0.678,0.735-1.371,1.048-2.085c0.629-1.433,1.105-2.928,1.421-4.46c0.158-0.762,0.274-1.528,0.351-2.302
		c0.073-0.738,0.158-1.474,0.255-2.209c0.196-1.49,0.438-2.97,0.728-4.445c2.449-12.442,8.208-23.987,16.673-33.428
		c4.237-4.725,9.093-8.855,14.435-12.279c2.601-1.667,5.282-3.147,8.078-4.459c2.714-1.274,5.482-2.364,8.336-3.284
		c5.817-1.874,11.849-2.982,17.952-3.299c6.341-0.329,12.697,0.201,18.896,1.575c12.282,2.723,23.604,8.68,32.804,17.261
		c1.085,1.011,2.135,2.054,3.153,3.132c1.022,1.081,2.007,2.192,2.958,3.336c1.953,2.348,3.735,4.798,5.368,7.378
		c3.369,5.323,6.007,11.072,7.848,17.095c3.706,12.134,4.067,25.039,1.045,37.361c-1.526,6.221-3.893,12.206-7.036,17.788
		c-3.275,5.817-7.361,11.138-12.134,15.805c-9.705,9.489-21.941,15.971-35.244,18.67c-3.153,0.64-6.313,1.059-9.524,1.264
		c-0.399,0.026-0.799,0.045-1.198,0.078c-0.273,0.023-0.545,0.051-0.817,0.083c-0.544,0.066-1.084,0.151-1.622,0.256
		c-0.269,0.053-0.536,0.11-0.803,0.173c-0.133,0.031-0.266,0.063-0.399,0.097c-0.033,0.008-0.066,0.017-0.099,0.026
		c-0.029,0.007-0.059,0.015-0.09,0.023c-0.05,0.013-0.101,0.022-0.152,0.032c-0.203,0.04-0.406,0.084-0.608,0.131
		c-0.81,0.189-1.6,0.431-2.383,0.708c-0.783,0.277-1.551,0.587-2.311,0.918c-1.502,0.654-3.021,1.422-4.457,2.207
		c-1.456,0.797-2.883,1.639-4.294,2.513c-1.41,0.874-2.8,1.777-4.177,2.702c-1.376,0.925-2.738,1.872-4.088,2.835
		c-2.701,1.927-5.355,3.914-7.981,5.943c-0.328,0.254-0.656,0.508-0.983,0.763c-0.163,0.127-0.326,0.255-0.49,0.382
		c-0.04,0.032-0.081,0.063-0.122,0.093c-0.04,0.03-0.081,0.06-0.122,0.09c-0.081,0.06-0.161,0.12-0.242,0.18
		c-0.647,0.483-1.291,0.97-1.932,1.46c-1.288,0.985-2.564,1.985-3.828,3c-2.548,2.048-5.043,4.154-7.49,6.322
		c-4.596,4.072-8.985,8.331-13.194,12.802c-2.124,2.256-4.193,4.558-6.212,6.91c-2.03,2.364-4.002,4.772-5.921,7.227
		c-3.867,4.948-7.486,10.048-10.88,15.332c-1.701,2.65-3.339,5.335-4.916,8.061c-1.579,2.73-3.092,5.492-4.542,8.292
		c-5.79,11.18-10.528,22.875-14.154,34.933c-3.568,11.866-6.042,24.032-7.393,36.35c-0.043,0.392-0.085,0.786-0.126,1.179
		c-0.02,0.197-0.04,0.393-0.06,0.59c-0.01,0.098-0.02,0.196-0.029,0.294c-0.005,0.049-0.01,0.098-0.015,0.147
		c-0.002,0.025-0.004,0.049-0.007,0.073c-0.001,0.007-0.006,0.067-0.007,0.074c-0.159,0.78-0.298,1.563-0.418,2.35
		c-0.237,1.56-0.397,3.121-0.48,4.696c-0.041,0.776-0.064,1.552-0.067,2.33c0,0.012,0,0.024,0,0.036c0,0.007,0,0.012,0,0.018
		c0,0.003,0,0.006,0,0.009c0,0.001,0,0.004,0,0.005c0,0.001,0,0.001,0,0.002s0,0.003,0,0.002c0-0.025,0-0.049,0-0.073
		c0-0.048,0-0.097,0-0.145c0-0.097,0-0.194,0-0.29c0-0.194,0-0.387,0-0.581c0-0.387,0-0.775,0-1.162c0-1.549,0-3.099,0-4.648
		c0-6.198,0-12.396,0-18.594c0-12.396,0.001-24.792,0.001-37.188c0-12.395,0.001-24.791,0.001-37.187
		c0-3.099,0.001-6.198,0.001-9.297c0-1.55,0-3.099,0-4.649c0-0.775,0-1.549,0-2.324c0-0.048,0-0.097,0-0.145
		c0-0.024,0-0.048,0-0.073c0-0.012,0-0.024,0-0.037c0-0.01,0.001-0.009,0.006-0.017c0.004-0.005,0.007-0.01,0.01-0.015
		c0.053-0.084,0.106-0.169,0.158-0.253c0.106-0.169,0.211-0.337,0.318-0.505c0.212-0.337,0.425-0.673,0.639-1.008
		c3.428-5.375,7.056-10.592,10.905-15.673c1.882-2.484,3.812-4.927,5.789-7.336c1.977-2.408,3.998-4.776,6.063-7.11
		c2.066-2.333,4.171-4.627,6.32-6.883c2.148-2.257,4.335-4.473,6.566-6.648c2.232-2.175,4.505-4.302,6.826-6.381
		c2.32-2.08,4.684-4.107,7.088-6.089c2.405-1.982,4.845-3.917,7.311-5.82c2.349-1.813,5.072-3.867,7.447-5.646
		c4.988-3.738,10.01-7.413,15.206-10.862c2.596-1.724,5.227-3.385,7.924-4.95c1.348-0.782,2.709-1.535,4.095-2.248
		c1.386-0.713,2.791-1.382,4.223-1.998c1.433-0.615,2.884-1.173,4.365-1.662c1.486-0.492,2.986-0.91,4.512-1.257
		c3.052-0.695,6.193-1.113,9.308-1.361c0.776-0.062,1.554-0.109,2.33-0.177c0.777-0.067,1.55-0.152,2.321-0.266
		s1.535-0.258,2.295-0.434c0.76-0.175,1.51-0.378,2.255-0.609c1.494-0.463,2.937-1.024,4.352-1.69
		c1.415-0.666,2.766-1.422,4.073-2.281c2.605-1.715,4.953-3.796,6.973-6.171c1.013-1.191,1.929-2.439,2.763-3.762
		c0.833-1.323,1.563-2.689,2.201-4.116c1.273-2.849,2.133-5.861,2.557-8.953c0.423-3.091,0.404-6.225-0.056-9.311
		c-0.461-3.086-1.357-6.089-2.664-8.922c-1.308-2.835-3.008-5.463-5.059-7.817s-4.419-4.401-7.047-6.086
		c-1.316-0.844-2.675-1.585-4.098-2.234c-1.422-0.649-2.873-1.191-4.373-1.631c-1.5-0.441-3.013-0.772-4.561-0.995
		c-1.547-0.224-3.091-0.337-4.655-0.34c-3.123-0.006-6.22,0.431-9.22,1.301c-1.502,0.436-2.954,0.971-4.379,1.615
		c-1.425,0.644-2.786,1.381-4.106,2.22c-2.635,1.676-5.01,3.711-7.07,6.059c-1.031,1.176-1.967,2.409-2.821,3.719
		c-0.854,1.309-1.606,2.663-2.266,4.08c-0.66,1.417-1.213,2.863-1.666,4.36c-0.227,0.746-0.425,1.497-0.597,2.258
		c-0.172,0.76-0.315,1.524-0.434,2.294c-0.118,0.77-0.211,1.543-0.295,2.317c-0.095,0.881-0.152,1.441-0.279,2.318
		c-0.112,0.771-0.245,1.538-0.392,2.303c-0.146,0.765-0.307,1.527-0.482,2.285c-0.349,1.519-0.753,3.02-1.22,4.508
		c-0.467,1.488-0.99,2.951-1.571,4.399c-1.173,2.921-2.573,5.747-4.192,8.447c-0.798,1.331-1.681,2.686-2.58,3.951
		c-0.952,1.339-1.839,2.469-2.89,3.73c-0.125,0.151-0.252,0.302-0.379,0.453c-0.032,0.037-0.063,0.076-0.095,0.113
		c-0.015,0.018-0.032,0.037-0.047,0.056c-0.004,0.005-0.009,0.01-0.015,0.014c-0.006,0.004-0.012,0.009-0.018,0.013
		c-0.011,0.008-0.018,0.018-0.026,0.028c-0.064,0.073-0.128,0.147-0.191,0.221c-0.257,0.294-0.516,0.586-0.778,0.876
		c-0.526,0.58-1.063,1.15-1.612,1.71c-1.103,1.125-2.246,2.203-3.435,3.237c-2.383,2.076-4.927,3.96-7.609,5.634
		c-2.666,1.664-5.459,3.117-8.353,4.343c-0.045,0.019-0.09,0.038-0.135,0.057c-0.012,0.005-0.023,0.009-0.034,0.016
		c-0.003,0.002-0.031,0.014-0.034,0.015c-0.023,0.01-0.045,0.019-0.068,0.029c-0.091,0.038-0.181,0.076-0.272,0.113
		c-0.182,0.076-0.364,0.15-0.547,0.223c-0.365,0.146-0.732,0.288-1.1,0.427c-0.737,0.278-1.477,0.541-2.224,0.789
		c-1.494,0.498-3.003,0.936-4.532,1.315c-3.057,0.758-6.165,1.272-9.303,1.541c-3.138,0.268-6.289,0.289-9.43,0.062
		c-3.138-0.228-6.259-0.703-9.322-1.42c-1.534-0.359-3.048-0.777-4.549-1.256c-0.75-0.239-1.494-0.493-2.234-0.761
		c-0.37-0.134-0.738-0.272-1.105-0.414c-0.183-0.07-0.367-0.142-0.549-0.215c-0.046-0.018-0.092-0.036-0.137-0.054
		c-0.023-0.009-0.046-0.018-0.068-0.027c-0.006-0.002-0.012-0.004-0.018-0.007c-0.004-0.001-0.003-0.002-0.003-0.007
		c0-0.003,0-0.006,0-0.009c0-0.012,0-0.024,0-0.036c0-0.095,0-0.191,0-0.287c0-6.127,0.001-12.254,0.001-18.381
		C402.124,281.396,402.125,269.142,402.126,256.888z"/>
	<path fill="#FFFFFF" d="M191.785,337.007c1.887,0.5,3.71,1.25,5.401,2.224c1.139,0.656,2.201,1.397,3.208,2.241
		c1.182,0.991,2.258,2.102,3.211,3.314c1.899,2.416,3.278,5.199,4.051,8.174c0.189,0.727,0.34,1.459,0.455,2.201
		c0.117,0.754,0.194,1.509,0.233,2.271c0.078,1.543-0.003,3.09-0.244,4.616c-0.241,1.526-0.64,3.023-1.19,4.467
		c-0.272,0.713-0.578,1.408-0.921,2.089c-0.338,0.671-0.707,1.32-1.111,1.954c-3.33,5.227-8.684,8.832-14.779,9.953
		c-3.029,0.558-6.14,0.481-9.138-0.223c-1.499-0.352-2.957-0.859-4.352-1.511c-0.686-0.321-1.351-0.674-2.001-1.064
		c-0.387-0.231-0.563-0.349-0.943-0.593c-0.308-0.198-0.618-0.394-0.929-0.587c-5.133-3.187-10.652-5.7-16.426-7.479
		c-11.957-3.683-24.678-4.115-36.858-1.253c-10.718,2.519-20.697,7.516-29.136,14.589c-8.759,7.341-15.6,16.703-19.934,27.278
		c-2.116,5.162-3.61,10.555-4.453,16.069c-0.82,5.362-1.017,10.8-0.59,16.208c0.899,11.346,4.531,22.303,10.589,31.938
		c3.048,4.848,6.676,9.306,10.803,13.276c2.01,1.934,4.117,3.732,6.341,5.415c2.182,1.651,4.44,3.161,6.799,4.547
		c9.883,5.808,21.029,9.117,32.48,9.641c11.382,0.52,22.714-1.725,33.037-6.548c1.117-0.522,2.458-1.188,3.555-1.751
		c1.17-0.599,2.331-1.215,3.484-1.844c2.322-1.268,4.611-2.588,6.882-3.942c1.144-0.681,2.284-1.371,3.421-2.066
		c1.143-0.698,2.284-1.403,3.422-2.108c2.3-1.426,4.593-2.861,6.894-4.284c4.527-2.799,9.079-5.547,13.751-8.104
		c4.853-2.656,9.79-5.08,14.916-7.173c5.452-2.226,10.985-4.024,16.723-5.363c3.058-0.713,6.132-1.287,9.24-1.728
		c0.804-0.114,1.609-0.218,2.415-0.313c0.408-0.048,0.816-0.095,1.224-0.139c0.205-0.022,0.411-0.043,0.616-0.064
		c0.095-0.01,0.191-0.019,0.286-0.03c0.082-0.01,0.164-0.019,0.246-0.028c1.331-0.145,2.663-0.235,4.002-0.268
		c11.075-0.281,21.908,3.267,30.672,10.044c2.114,1.635,4.089,3.443,5.902,5.406c1.854,2.006,3.533,4.165,5.02,6.454
		c3.017,4.645,5.21,9.776,6.482,15.167c0.078,0.334,0.154,0.668,0.225,1.004c0.018,0.084,0.036,0.167,0.053,0.251
		c0.009,0.042,0.018,0.084,0.026,0.125c0.004,0.021,0.008,0.042,0.012,0.063c0.001,0.003,0.001,0.005,0.001,0.008
		c0.001,0.001,0.001,0.001,0.001,0.001s0-0.001,0-0.001c0-0.001,0-0.003-0.001-0.004c0-0.006-0.001-0.011-0.001-0.016
		c-0.001-0.01-0.002-0.021-0.003-0.032c-0.017-0.169-0.033-0.337-0.05-0.505c-0.068-0.674-0.139-1.348-0.214-2.022
		c-0.15-1.351-0.312-2.7-0.489-4.047c-0.356-2.709-0.765-5.409-1.229-8.101c-0.938-5.438-2.092-10.815-3.468-16.159
		c-2.782-10.802-6.45-21.357-10.966-31.556c-1.133-2.561-2.319-5.096-3.558-7.609c-0.31-0.628-0.623-1.254-0.938-1.879
		c-0.01-0.019-0.02-0.039-0.03-0.059c-0.002-0.004-0.005-0.01-0.007-0.015c-0.001-0.003-0.004-0.003-0.007-0.004
		c-0.003-0.001-0.006-0.001-0.008-0.002c-0.011-0.004-0.021-0.007-0.032-0.01c-0.042-0.014-0.084-0.027-0.127-0.041
		c-0.085-0.027-0.17-0.054-0.255-0.081c-0.17-0.054-0.34-0.107-0.511-0.159c-0.341-0.106-0.683-0.209-1.026-0.31
		c-1.375-0.406-2.758-0.776-4.152-1.112c-5.609-1.353-11.34-2.136-17.106-2.338c-2.88-0.1-5.748-0.056-8.623,0.133
		c-1.426,0.094-2.847,0.224-4.266,0.388c-1.356,0.156-2.71,0.324-4.062,0.505c-2.705,0.363-5.4,0.783-8.083,1.286
		c-2.683,0.503-5.346,1.086-7.995,1.748c-2.711,0.677-5.395,1.434-8.061,2.268s-5.303,1.743-7.918,2.725
		c-2.615,0.982-5.199,2.032-7.759,3.149c-2.559,1.117-5.087,2.298-7.591,3.536c-2.503,1.238-4.976,2.53-7.427,3.869
		c-2.45,1.338-4.874,2.722-7.28,4.137c-2.406,1.416-4.792,2.864-7.17,4.328c-2.377,1.463-4.745,2.942-7.116,4.416
		c-2.371,1.474-4.746,2.941-7.143,4.371c-2.399,1.43-4.817,2.821-7.288,4.124c-1.101,0.581-2.612,1.353-3.747,1.868
		c-0.636,0.288-1.279,0.556-1.932,0.804c-0.651,0.246-1.309,0.472-1.976,0.677c-2.675,0.824-5.444,1.302-8.24,1.425
		c-5.607,0.245-11.182-0.95-16.197-3.47c-2.529-1.271-4.884-2.864-7.006-4.738c-1.041-0.919-2.014-1.895-2.931-2.939
		c-0.898-1.022-1.725-2.089-2.49-3.215c-3.168-4.66-5.084-10.054-5.567-15.669c-0.241-2.792-0.123-5.604,0.351-8.366
		c0.116-0.675,0.252-1.345,0.409-2.011c0.156-0.658,0.331-1.309,0.527-1.956c0.396-1.309,0.869-2.58,1.424-3.83
		c2.3-5.177,5.898-9.672,10.446-13.048c2.225-1.652,4.649-3.016,7.215-4.06c2.54-1.033,5.199-1.744,7.916-2.116
		c5.621-0.771,11.345-0.075,16.616,2.022c1.287,0.511,2.528,1.098,3.74,1.767c0.593,0.327,1.176,0.673,1.748,1.037
		c0.142,0.09,0.282,0.182,0.424,0.273c0.141,0.091,0.282,0.181,0.424,0.271c0.285,0.18,0.571,0.358,0.859,0.533
		c2.347,1.43,4.765,2.683,7.286,3.779c10.413,4.524,21.898,5.995,33.114,4.241c2.758-0.431,5.453-1.048,8.124-1.857
		c1.306-0.395,2.594-0.835,3.87-1.319c1.271-0.482,2.521-1.006,3.757-1.574c5.094-2.341,9.833-5.384,14.08-9.043
		c8.611-7.417,14.931-17.128,18.227-28.004c0.197-0.65,0.383-1.303,0.558-1.959c0.043-0.163,0.086-0.326,0.128-0.49
		c0.002-0.01,0.005-0.021,0.008-0.031c0-0.001,0.001-0.007,0.001-0.007c-0.002-0.001-0.004-0.004-0.006-0.006
		c-0.004-0.004-0.008-0.007-0.012-0.011c-0.015-0.015-0.032-0.031-0.047-0.045c-0.032-0.031-0.063-0.061-0.095-0.092
		c-0.062-0.06-0.125-0.121-0.189-0.182c-0.251-0.243-0.503-0.484-0.756-0.725c-1.009-0.963-2.027-1.915-3.055-2.857
		c-2.045-1.874-4.126-3.703-6.246-5.492c-2.102-1.774-4.238-3.502-6.411-5.189c-1.078-0.837-2.166-1.664-3.261-2.479
		c-0.068-0.051-0.136-0.102-0.205-0.153c-0.07-0.052-0.138-0.106-0.207-0.16c-0.138-0.108-0.276-0.215-0.414-0.323
		c-0.277-0.216-0.553-0.43-0.83-0.645c-0.554-0.428-1.11-0.855-1.667-1.281c-2.229-1.7-4.481-3.369-6.767-4.993
		c-2.287-1.624-4.602-3.199-6.972-4.7c-1.185-0.75-2.38-1.48-3.595-2.181c-1.214-0.702-2.442-1.375-3.695-2.004
		c-1.254-0.63-2.525-1.215-3.834-1.725c-0.653-0.255-1.312-0.489-1.984-0.694c-0.335-0.102-0.673-0.197-1.012-0.282
		c-0.17-0.043-0.34-0.083-0.512-0.12C192.128,337.074,191.956,337.04,191.785,337.007z"/>
	<path fill="#FFFFFF" d="M305.819,256.888c-0.03,6.346-2.747,12.37-7.493,16.587c-4.724,4.197-11.004,6.193-17.285,5.494
		c-3.098-0.346-6.092-1.336-8.784-2.909c-2.705-1.581-5.048-3.714-6.875-6.26c-0.452-0.63-0.869-1.279-1.252-1.953
		c-0.387-0.678-0.735-1.371-1.048-2.085c-0.629-1.433-1.105-2.928-1.421-4.46c-0.157-0.762-0.274-1.528-0.351-2.302
		c-0.073-0.738-0.158-1.474-0.255-2.209c-0.195-1.49-0.438-2.97-0.728-4.445c-2.449-12.442-8.207-23.987-16.673-33.428
		c-4.237-4.725-9.093-8.855-14.435-12.279c-2.601-1.667-5.282-3.147-8.077-4.459c-2.715-1.274-5.483-2.364-8.336-3.284
		c-5.817-1.874-11.849-2.982-17.952-3.299c-6.341-0.329-12.697,0.201-18.896,1.575c-12.283,2.723-23.605,8.68-32.805,17.261
		c-1.084,1.011-2.134,2.054-3.153,3.132c-1.022,1.081-2.007,2.192-2.959,3.336c-1.953,2.348-3.735,4.798-5.368,7.378
		c-3.369,5.323-6.007,11.072-7.847,17.095c-3.706,12.134-4.067,25.039-1.045,37.361c1.526,6.221,3.893,12.206,7.036,17.788
		c3.276,5.817,7.361,11.138,12.134,15.805c9.705,9.489,21.941,15.971,35.244,18.67c3.153,0.64,6.313,1.059,9.524,1.264
		c0.399,0.026,0.799,0.045,1.198,0.078c0.273,0.023,0.545,0.051,0.817,0.083c0.544,0.066,1.084,0.151,1.623,0.256
		c0.268,0.053,0.536,0.11,0.803,0.173c0.133,0.031,0.266,0.063,0.398,0.097c0.033,0.008,0.066,0.017,0.099,0.026
		c0.03,0.007,0.059,0.015,0.089,0.023c0.05,0.013,0.101,0.022,0.152,0.032c0.204,0.04,0.406,0.084,0.608,0.131
		c0.81,0.189,1.6,0.431,2.383,0.708c0.783,0.277,1.551,0.587,2.312,0.918c1.502,0.654,3.021,1.422,4.457,2.207
		c1.456,0.797,2.883,1.639,4.294,2.513c1.41,0.874,2.8,1.777,4.177,2.702c1.377,0.925,2.738,1.872,4.088,2.835
		c2.702,1.927,5.355,3.914,7.981,5.943c0.328,0.254,0.656,0.508,0.983,0.763c0.164,0.127,0.326,0.255,0.49,0.382
		c0.04,0.032,0.081,0.063,0.122,0.093c0.04,0.03,0.081,0.06,0.122,0.09c0.081,0.06,0.161,0.12,0.242,0.18
		c0.647,0.483,1.291,0.97,1.932,1.46c1.288,0.985,2.564,1.985,3.828,3c2.548,2.048,5.043,4.154,7.49,6.322
		c4.596,4.072,8.985,8.331,13.194,12.802c2.124,2.256,4.193,4.558,6.212,6.91c2.03,2.364,4.002,4.772,5.921,7.227
		c3.867,4.948,7.487,10.048,10.88,15.332c1.701,2.65,3.339,5.335,4.916,8.061c1.579,2.73,3.092,5.492,4.542,8.292
		c5.79,11.18,10.528,22.875,14.154,34.933c3.568,11.866,6.042,24.032,7.393,36.35c0.043,0.392,0.085,0.786,0.126,1.179
		c0.021,0.197,0.04,0.393,0.06,0.59c0.01,0.098,0.02,0.196,0.029,0.294c0.005,0.049,0.01,0.098,0.015,0.147
		c0.002,0.025,0.005,0.049,0.007,0.073c0.001,0.007,0.007,0.067,0.007,0.074c0.159,0.78,0.298,1.563,0.418,2.35
		c0.237,1.56,0.398,3.121,0.48,4.696c0.042,0.776,0.064,1.552,0.068,2.33c0,0.012,0,0.024,0,0.036c0,0.007,0,0.012,0,0.018
		c0,0.003,0,0.006,0,0.009c0,0.001,0,0.004,0,0.005c0,0.001,0,0.001,0,0.002s0,0.003,0,0.002c0-0.025,0-0.049,0-0.073
		c0-0.048,0-0.097,0-0.145c0-0.097,0-0.194,0-0.29c0-0.194,0-0.387,0-0.581c0-0.387,0-0.775,0-1.162c0-1.549,0-3.099,0-4.648
		c0-6.198,0-12.396,0-18.594c0-12.396-0.001-24.792-0.001-37.188c0-12.395-0.001-24.791-0.001-37.187c0-3.099,0-6.198-0.001-9.297
		c0-1.55,0-3.099,0-4.649c0-0.775,0-1.549,0-2.324c0-0.048,0-0.097,0-0.145c0-0.024,0-0.048,0-0.073c0-0.012,0-0.024,0-0.037
		c0-0.01-0.001-0.009-0.006-0.017c-0.004-0.005-0.007-0.01-0.01-0.015c-0.053-0.084-0.105-0.169-0.158-0.253
		c-0.106-0.169-0.211-0.337-0.318-0.505c-0.212-0.337-0.425-0.673-0.639-1.008c-3.427-5.375-7.055-10.592-10.905-15.673
		c-1.882-2.484-3.812-4.927-5.789-7.336c-1.977-2.408-3.998-4.776-6.063-7.11c-2.065-2.333-4.171-4.627-6.319-6.883
		c-2.149-2.257-4.335-4.473-6.567-6.648s-4.505-4.302-6.826-6.381c-2.32-2.08-4.683-4.107-7.088-6.089
		c-2.404-1.982-4.845-3.917-7.311-5.82c-2.349-1.813-5.072-3.867-7.447-5.646c-4.987-3.738-10.01-7.413-15.206-10.862
		c-2.597-1.724-5.228-3.385-7.925-4.95c-1.348-0.782-2.709-1.535-4.095-2.248c-1.386-0.713-2.791-1.382-4.223-1.998
		c-1.433-0.615-2.884-1.173-4.365-1.662c-1.485-0.492-2.986-0.91-4.511-1.257c-3.053-0.695-6.194-1.113-9.308-1.361
		c-0.777-0.062-1.554-0.109-2.331-0.177c-0.776-0.067-1.55-0.152-2.321-0.266c-0.771-0.114-1.535-0.258-2.295-0.434
		c-0.76-0.175-1.51-0.378-2.255-0.609c-1.494-0.463-2.937-1.024-4.352-1.69c-1.415-0.666-2.766-1.422-4.073-2.281
		c-2.605-1.715-4.953-3.796-6.973-6.171c-1.013-1.191-1.929-2.439-2.763-3.762c-0.833-1.323-1.563-2.689-2.201-4.116
		c-1.273-2.849-2.133-5.861-2.557-8.953c-0.423-3.091-0.404-6.225,0.056-9.311c0.461-3.086,1.357-6.089,2.664-8.922
		c1.308-2.835,3.008-5.463,5.059-7.817c2.051-2.354,4.419-4.401,7.047-6.086c1.317-0.844,2.675-1.585,4.098-2.234
		c1.422-0.649,2.873-1.191,4.374-1.631c1.5-0.441,3.012-0.772,4.56-0.995c1.547-0.224,3.091-0.337,4.655-0.34
		c3.124-0.006,6.22,0.431,9.22,1.301c1.502,0.436,2.954,0.971,4.379,1.615c1.425,0.644,2.787,1.381,4.106,2.22
		c2.635,1.676,5.01,3.711,7.07,6.059c1.031,1.176,1.967,2.409,2.821,3.719c0.855,1.309,1.606,2.663,2.266,4.08
		c0.66,1.417,1.213,2.863,1.667,4.36c0.226,0.746,0.425,1.497,0.596,2.258c0.172,0.76,0.315,1.524,0.434,2.294
		c0.119,0.77,0.211,1.543,0.295,2.317c0.095,0.881,0.152,1.441,0.279,2.318c0.112,0.771,0.245,1.538,0.392,2.303
		c0.146,0.765,0.307,1.527,0.482,2.285c0.349,1.519,0.753,3.02,1.22,4.508c0.467,1.488,0.99,2.951,1.571,4.399
		c1.173,2.921,2.573,5.747,4.192,8.447c0.798,1.331,1.681,2.686,2.58,3.951c0.952,1.339,1.839,2.469,2.89,3.73
		c0.126,0.151,0.252,0.302,0.379,0.453c0.032,0.037,0.064,0.076,0.095,0.113c0.015,0.018,0.032,0.037,0.048,0.056
		c0.004,0.005,0.009,0.01,0.014,0.014c0.007,0.004,0.012,0.009,0.019,0.013c0.01,0.008,0.018,0.018,0.026,0.028
		c0.064,0.073,0.128,0.147,0.191,0.221c0.257,0.294,0.516,0.586,0.778,0.876c0.526,0.58,1.063,1.15,1.612,1.71
		c1.103,1.125,2.246,2.203,3.435,3.237c2.383,2.076,4.927,3.96,7.609,5.634c2.666,1.664,5.459,3.117,8.353,4.343
		c0.045,0.019,0.09,0.038,0.134,0.057c0.012,0.005,0.023,0.009,0.034,0.016c0.003,0.002,0.031,0.014,0.034,0.015
		c0.023,0.01,0.046,0.019,0.068,0.029c0.091,0.038,0.181,0.076,0.272,0.113c0.182,0.076,0.364,0.15,0.547,0.223
		c0.365,0.146,0.732,0.288,1.1,0.427c0.737,0.278,1.478,0.541,2.224,0.789c1.495,0.498,3.003,0.936,4.532,1.315
		c3.057,0.758,6.165,1.272,9.303,1.541c3.138,0.268,6.289,0.289,9.43,0.062c3.138-0.228,6.259-0.703,9.322-1.42
		c1.534-0.359,3.048-0.777,4.549-1.256c0.75-0.239,1.494-0.493,2.234-0.761c0.37-0.134,0.738-0.272,1.105-0.414
		c0.183-0.07,0.367-0.142,0.549-0.215c0.046-0.018,0.092-0.036,0.137-0.054c0.023-0.009,0.045-0.018,0.068-0.027
		c0.006-0.002,0.012-0.004,0.018-0.007c0.004-0.001,0.003-0.002,0.003-0.007c0-0.003,0-0.006,0-0.009c0-0.012,0-0.024,0-0.036
		c0-0.095,0-0.191,0-0.287c0-6.127,0-12.254-0.001-18.381C305.821,281.396,305.82,269.142,305.819,256.888z"/>
	<path fill="#FFFFFF" d="M516.161,337.007c-1.888,0.5-3.71,1.25-5.402,2.224c-1.138,0.656-2.2,1.397-3.208,2.241
		c-1.182,0.991-2.258,2.102-3.211,3.314c-1.899,2.416-3.278,5.199-4.051,8.174c-0.189,0.727-0.34,1.459-0.455,2.201
		c-0.117,0.754-0.194,1.509-0.233,2.271c-0.078,1.543,0.003,3.09,0.244,4.616c0.241,1.526,0.639,3.023,1.189,4.467
		c0.272,0.713,0.578,1.408,0.921,2.089c0.338,0.671,0.707,1.32,1.111,1.954c3.33,5.227,8.684,8.832,14.779,9.953
		c3.029,0.558,6.14,0.481,9.138-0.223c1.499-0.352,2.957-0.859,4.352-1.511c0.686-0.321,1.351-0.674,2.001-1.064
		c0.387-0.231,0.563-0.349,0.943-0.593c0.308-0.198,0.618-0.394,0.929-0.587c5.133-3.187,10.652-5.7,16.426-7.479
		c11.957-3.683,24.678-4.115,36.858-1.253c10.718,2.519,20.697,7.516,29.136,14.589c8.759,7.341,15.6,16.703,19.934,27.278
		c2.116,5.162,3.61,10.555,4.453,16.069c0.82,5.362,1.017,10.8,0.59,16.208c-0.899,11.346-4.531,22.303-10.589,31.938
		c-3.048,4.848-6.676,9.306-10.803,13.276c-2.01,1.934-4.117,3.732-6.341,5.415c-2.182,1.651-4.44,3.161-6.799,4.547
		c-9.883,5.808-21.029,9.117-32.48,9.641c-11.382,0.52-22.714-1.725-33.037-6.548c-1.117-0.522-2.458-1.188-3.555-1.751
		c-1.17-0.599-2.331-1.215-3.484-1.844c-2.321-1.268-4.61-2.588-6.882-3.942c-1.145-0.681-2.284-1.371-3.421-2.066
		c-1.143-0.698-2.284-1.403-3.422-2.108c-2.3-1.426-4.593-2.861-6.894-4.284c-4.527-2.799-9.079-5.547-13.751-8.104
		c-4.853-2.656-9.789-5.08-14.916-7.173c-5.452-2.226-10.985-4.024-16.723-5.363c-3.058-0.713-6.131-1.287-9.24-1.728
		c-0.804-0.114-1.609-0.218-2.415-0.313c-0.408-0.048-0.816-0.095-1.224-0.139c-0.205-0.022-0.411-0.043-0.616-0.064
		c-0.095-0.01-0.191-0.019-0.285-0.03c-0.083-0.01-0.165-0.019-0.247-0.028c-1.331-0.145-2.663-0.235-4.001-0.268
		c-11.076-0.281-21.909,3.267-30.672,10.044c-2.114,1.635-4.088,3.443-5.902,5.406c-1.853,2.006-3.532,4.165-5.02,6.454
		c-3.017,4.645-5.21,9.776-6.482,15.167c-0.078,0.334-0.153,0.668-0.225,1.004c-0.018,0.084-0.035,0.167-0.053,0.251
		c-0.009,0.042-0.018,0.084-0.026,0.125c-0.004,0.021-0.008,0.042-0.012,0.063c-0.001,0.003-0.001,0.005-0.001,0.008
		c0,0.001-0.001,0.001-0.001,0.001s0-0.001,0-0.001c0-0.001,0.001-0.003,0.001-0.004c0.001-0.006,0.001-0.011,0.001-0.016
		c0.001-0.01,0.002-0.021,0.003-0.032c0.017-0.169,0.034-0.337,0.051-0.505c0.068-0.674,0.139-1.348,0.214-2.022
		c0.15-1.351,0.312-2.7,0.489-4.047c0.356-2.709,0.765-5.409,1.229-8.101c0.938-5.438,2.092-10.815,3.468-16.159
		c2.782-10.802,6.45-21.357,10.966-31.556c1.133-2.561,2.319-5.096,3.558-7.609c0.31-0.628,0.623-1.254,0.939-1.879
		c0.01-0.019,0.02-0.039,0.029-0.059c0.002-0.004,0.005-0.01,0.007-0.015c0.001-0.003,0.004-0.003,0.007-0.004
		c0.003-0.001,0.006-0.001,0.008-0.002c0.011-0.004,0.021-0.007,0.032-0.01c0.043-0.014,0.085-0.027,0.127-0.041
		c0.085-0.027,0.17-0.054,0.255-0.081c0.17-0.054,0.34-0.107,0.511-0.159c0.341-0.106,0.684-0.209,1.026-0.31
		c1.375-0.406,2.758-0.776,4.153-1.112c5.608-1.353,11.339-2.136,17.105-2.338c2.88-0.1,5.748-0.056,8.623,0.133
		c1.426,0.094,2.847,0.224,4.266,0.388c1.356,0.156,2.71,0.324,4.062,0.505c2.705,0.363,5.4,0.783,8.083,1.286
		c2.683,0.503,5.346,1.086,7.995,1.748c2.71,0.677,5.394,1.434,8.06,2.268c2.667,0.834,5.303,1.743,7.918,2.725
		c2.615,0.982,5.199,2.032,7.759,3.149c2.559,1.117,5.087,2.298,7.591,3.536c2.503,1.238,4.976,2.53,7.427,3.869
		c2.45,1.338,4.874,2.722,7.281,4.137c2.406,1.416,4.792,2.864,7.169,4.328c2.377,1.463,4.745,2.942,7.116,4.416
		c2.371,1.474,4.746,2.941,7.144,4.371c2.398,1.43,4.817,2.821,7.287,4.124c1.101,0.581,2.613,1.353,3.747,1.868
		c0.636,0.288,1.279,0.556,1.933,0.804c0.651,0.246,1.309,0.472,1.975,0.677c2.675,0.824,5.444,1.302,8.24,1.425
		c5.607,0.245,11.182-0.95,16.197-3.47c2.529-1.271,4.884-2.864,7.006-4.738c1.041-0.919,2.014-1.895,2.931-2.939
		c0.898-1.022,1.725-2.089,2.49-3.215c3.168-4.66,5.085-10.054,5.567-15.669c0.241-2.792,0.122-5.604-0.351-8.366
		c-0.116-0.675-0.252-1.345-0.409-2.011c-0.156-0.658-0.331-1.309-0.527-1.956c-0.396-1.309-0.869-2.58-1.424-3.83
		c-2.3-5.177-5.898-9.672-10.446-13.048c-2.225-1.652-4.649-3.016-7.215-4.06c-2.54-1.033-5.199-1.744-7.916-2.116
		c-5.62-0.771-11.345-0.075-16.616,2.022c-1.286,0.511-2.528,1.098-3.74,1.767c-0.593,0.327-1.176,0.673-1.748,1.037
		c-0.142,0.09-0.282,0.182-0.423,0.273c-0.142,0.091-0.283,0.181-0.425,0.271c-0.285,0.18-0.571,0.358-0.859,0.533
		c-2.347,1.43-4.765,2.683-7.286,3.779c-10.413,4.524-21.897,5.995-33.114,4.241c-2.758-0.431-5.453-1.048-8.124-1.857
		c-1.306-0.395-2.595-0.835-3.87-1.319c-1.271-0.482-2.521-1.006-3.756-1.574c-5.094-2.341-9.834-5.384-14.081-9.043
		c-8.61-7.417-14.931-17.128-18.227-28.004c-0.197-0.65-0.383-1.303-0.558-1.959c-0.043-0.163-0.086-0.326-0.128-0.49
		c-0.002-0.01-0.005-0.021-0.007-0.031c-0.001-0.001-0.002-0.007-0.001-0.007c0.002-0.001,0.004-0.004,0.006-0.006
		c0.004-0.004,0.008-0.007,0.012-0.011c0.016-0.015,0.032-0.031,0.047-0.045c0.032-0.031,0.063-0.061,0.095-0.092
		c0.062-0.06,0.125-0.121,0.189-0.182c0.251-0.243,0.503-0.484,0.756-0.725c1.008-0.963,2.026-1.915,3.055-2.857
		c2.044-1.874,4.126-3.703,6.246-5.492c2.102-1.774,4.239-3.502,6.411-5.189c1.078-0.837,2.166-1.664,3.261-2.479
		c0.068-0.051,0.136-0.102,0.205-0.153c0.07-0.052,0.139-0.106,0.207-0.16c0.138-0.108,0.277-0.215,0.414-0.323
		c0.277-0.216,0.553-0.43,0.83-0.645c0.555-0.428,1.11-0.855,1.667-1.281c2.229-1.7,4.481-3.369,6.767-4.993
		c2.287-1.624,4.602-3.199,6.972-4.7c1.185-0.75,2.38-1.48,3.595-2.181c1.214-0.702,2.442-1.375,3.696-2.004
		c1.254-0.63,2.524-1.215,3.833-1.725c0.654-0.255,1.312-0.489,1.984-0.694c0.335-0.102,0.673-0.197,1.013-0.282
		c0.169-0.043,0.34-0.083,0.511-0.12C515.817,337.074,515.989,337.04,516.161,337.007z"/>
</g>
<g id="Layer_4">
</g>
<g id="Layer_7">
</g>
</svg>
