<?xml version="1.0" encoding="utf-8"?>
<!-- Generator: Adobe Illustrator 26.3.1, SVG Export Plug-In . SVG Version: 6.00 Build 0)  -->
<svg version="1.1" xmlns="http://www.w3.org/2000/svg" xmlns:xlink="http://www.w3.org/1999/xlink" x="0px" y="0px"
	 viewBox="0 0 566.929 566.929" enable-background="new 0 0 566.929 566.929" xml:space="preserve">
<g id="Layer_1">
</g>
<g id="GUIDE">
	<path fill="#FFFFFF" d="M358.505,566.929c-0.026-16.283-0.05-9.427-0.055-25.71c-0.008-28.197,0.005-56.395-0.005-84.592
		c-0.006-16.15-0.034-32.3-0.066-48.45c-0.031-15.804-11.792-29.601-27.375-32.083c-1.624-0.259-3.287-0.379-4.932-0.38
		c-28.724-0.022-57.449,0.037-86.173-0.04c-13.565-0.036-25.762-4.232-36.263-12.915c-11.343-9.38-18.052-21.438-20.225-35.987
		c-0.35-2.345-0.474-4.745-0.475-7.119c-0.023-105.509-0.02-211.018-0.02-316.526c0-0.916,0-2.654,0-3.508
		C184.814-0.954,206.179-0.57,208.2,0c0,0.85,0,2.181,0,3.094c0,49.974-0.001,99.949,0,149.923c0,15.815,10.383,28.935,25.77,32.412
		c2.234,0.505,4.584,0.688,6.881,0.692c28.526,0.045,57.051,0.013,85.577,0.036c15.668,0.012,29.301,5.293,40.545,16.249
		c8.944,8.714,14.448,19.329,16.305,31.718c0.469,3.127,0.703,6.319,0.704,9.481c0.035,115.239,0.029,208.085,0.029,323.324
		C384.013,567.973,358.507,567.759,358.505,566.929z M283.484,211.538c-14.361,0-28.721-0.024-43.082,0.025
		c-2.237,0.008-4.502,0.185-6.706,0.563c-14.307,2.452-25.473,15.719-25.488,30.285c-0.027,25.68-0.072,51.359,0.028,77.039
		c0.034,8.835,3.521,16.341,9.961,22.383c6.115,5.737,13.447,8.506,21.827,8.474c6.021-0.023,12.041-0.114,18.061-0.118
		c21.773-0.015,43.545-0.006,65.318-0.004c0.86,0,1.72,0.056,2.579,0.038c1.849-0.038,3.722,0.066,5.543-0.191
		c16.499-2.33,27.182-16.565,27.126-30.893c-0.1-25.481,0.006-50.962-0.045-76.443c-0.02-10.202-4.306-18.405-12.266-24.672
		c-5.659-4.456-12.189-6.491-19.377-6.487C312.47,211.544,297.977,211.538,283.484,211.538z"/>
</g>
</svg>
