<?xml version="1.0" encoding="utf-8"?>
<!-- Generator: Adobe Illustrator 26.0.3, SVG Export Plug-In . SVG Version: 6.00 Build 0)  -->
<svg version="1.1" id="Layer_1" xmlns="http://www.w3.org/2000/svg" xmlns:xlink="http://www.w3.org/1999/xlink" x="0px" y="0px"
	 viewBox="0 0 38 38" style="enable-background:new 0 0 38 38;" xml:space="preserve">
<style type="text/css">
	.st0{fill:#FFFFFF;}
</style>
<path class="st0" d="M28.6,27.5v-2.8h-2.8v2.8H28.6z M28.6,31.2v-2.8h-2.8v2.8H28.6z M13.9,23.8V21h-2.8v2.8H13.9z M13.9,27.5v-2.8
	h-2.8v2.8H13.9z M13.9,31.2v-2.8h-2.8v2.8H13.9z M17.6,20.2v-2.8h-2.8v2.8H17.6z M17.6,23.8V21h-2.8v2.8H17.6z M17.6,27.5v-2.8h-2.8
	v2.8H17.6z M17.6,31.2v-2.8h-2.8v2.8H17.6z M21.3,12.9v-2.8h-2.8v2.8H21.3z M21.3,16.5v-2.8h-2.8v2.8H21.3z M21.3,20.2v-2.8h-2.8
	v2.8H21.3z M21.3,23.8V21h-2.8v2.8H21.3z M21.3,27.5v-2.8h-2.8v2.8H21.3z M21.3,31.2v-2.8h-2.8v2.8H21.3z M24.9,24.7h-2.8v2.8h2.8
	V24.7z M24.9,21h-2.8v2.8h2.8V21z M22.1,31.2h2.8v-2.8h-2.8V31.2z M7.5,23.8h2.8V21h-2v-0.9h2v-1.2h0.9v1.2H14v-2.8h-0.6v-0.9H14v-4
	h0.9v0.3h0.8v0.9h-0.8v2.8h2.8v-2.8h-0.2v-0.9h0.2V9.9h-2.5V9.2h2.5V6.4H16V5.5h1.7V2.7h0.9v2.8h1.3v0.9h-1.3v2.8h2.8V8.1h0.9v1.1
	H23v0.9h-0.7v2.8h0.3v0.9h-0.3v2.8H23v0.9h-0.8v2.8H25v-0.1h0.9v0.1h0.3V21h-0.3v2.8h2.8v-0.4h0.9v0.4H30v0.9h-0.4v2.8h2v0.9h-2v2.8
	h3.2V32h-0.2h-3.2v1.8h-0.9V32h-2.8v1.8h-0.9V32H22v1.8h-0.9V32h-2.8v1.8h-0.9V32h-2.8v1.8h-0.9V32h-2.8v0.1H10v-3.7H7.5v-0.9h2.8
	v-2.8H7.5v2.4H6.6v-2.4H6.5v-0.9h0.1v-2.3h0.9V23.8z"/>
</svg>
