<?xml version="1.0" encoding="utf-8"?>
<!-- Generator: Adobe Illustrator 26.0.3, SVG Export Plug-In . SVG Version: 6.00 Build 0)  -->
<svg version="1.1" id="Layer_1" xmlns="http://www.w3.org/2000/svg" xmlns:xlink="http://www.w3.org/1999/xlink" x="0px" y="0px"
	 viewBox="0 0 250 250" style="enable-background:new 0 0 250 250;" xml:space="preserve">
<style type="text/css">
	.st0{fill-rule:evenodd;clip-rule:evenodd;fill:#FFFFFF;}
	.st1{fill:#FFFFFF;}
</style>
<g id="GUIDE_00000114787955397122697140000011362208654004096684_">
	<g>
		<g id="HATCH">
			<path class="st0" d="M8,99.2c3.5,6.7,9.8,11.9,17.1,13.8c8.8,2.5,18.6,2,26.5-2.7c11.1,11.7,30.2,13.5,43.7,4.9
				c8.7,6,20.5,6.5,29.7,1.1c9.2,5.3,20.9,4.8,29.7-1.1c13.4,8.6,32.6,6.7,43.7-4.9c8,4.7,17.7,5.2,26.5,2.7
				c7.3-1.9,13.6-7.1,17.1-13.8c-2.1,5.9-6.5,11.1-12.3,13.9c-9.7,4.4-21.6,4.6-31.1-0.4c-11.1,12.3-29.9,15.5-44,6.5
				c-8.8,6.6-20.3,7.1-29.6,1c-9.3,6.1-20.7,5.6-29.6-1c-14.2,9-32.9,5.8-44-6.5c-9.6,5-21.4,4.8-31.1,0.4
				C14.6,110.3,10.2,105.1,8,99.2z"/>
		</g>
		<g id="POLYLINE_1_">
			<path class="st1" d="M8,150.8c76.1-24.1,157.8-24.1,233.9,0C166,130.5,84,130.5,8,150.8z"/>
		</g>
	</g>
</g>
</svg>
