<?xml version="1.0" encoding="utf-8"?>
<!-- Generator: Adobe Illustrator 26.0.3, SVG Export Plug-In . SVG Version: 6.00 Build 0)  -->
<svg version="1.1" id="Layer_1" xmlns="http://www.w3.org/2000/svg" xmlns:xlink="http://www.w3.org/1999/xlink" x="0px" y="0px"
	 viewBox="0 0 95 95" enable-background="new 0 0 95 95" xml:space="preserve">
<path fill="#FFFFFF" d="M16.434,52.947c-0.27-0.35-1.27-1.54-1.74-1.57c-0.47-0.02-2.1-0.69-2.44-0.54
	c-0.34,0.15-1.25,0.64-1.76,0.5s-2.03-0.91-2.24-1.04c-0.21-0.12-0.96-0.82-1.08-0.94s-0.02-0.35-0.09-0.51
	c-0.08-0.17-0.49-0.57-0.49-0.73s-0.2-0.79,0.29-0.76c0.48,0.02,0.87,0.24,1.06-0.03c0.19-0.26,0.29-0.21,0.17-0.56
	c-0.13-0.35-0.15-0.83,0.02-1.01c0.18-0.17,0.13-0.21,0.13-0.41s0.17-0.65,0.56-0.59c0.4,0.06,1.46,0,1.78-0.2
	c0.32-0.21,0.68-0.61,1.07-0.71c0.39-0.11,1.11-0.17,1.37-0.62s0.79-1.52,0.85-1.72s0.33-1.02,0.14-1.34
	c-0.18-0.32-0.3-0.38-0.3-0.38s0.3-0.43-0.34-0.6c-0.64-0.18-1.07-0.55-1.16-0.73c-0.1-0.17-0.23-0.84-0.05-0.94
	c0.18-0.1,0.96-0.47,1.06,0.03c0.1,0.5,0.22,0.63,0.32,0.6c0.11-0.02,0.31-0.07,0.31-0.32c0-0.24-0.08-0.22,0.19-0.38
	c0.27-0.16,0.53-0.23,0.51-0.47c-0.03-0.24,0.01-0.48,0.17-0.69c0.15-0.21,0.26-0.43,0.49-0.35c0.23,0.09,0.37,0.37,0.65,0.09
	c0.28-0.29,0.13-0.59,0.45-0.71c0.33-0.13,1.69-0.53,2-0.4c0.3,0.12,0.8,0.32,1.01,0.28c0.22-0.05,0.56,0.05,0.75,0.24
	c0.19,0.19,0.45,0.15,0.74-0.01c0.28-0.17,1.45-0.35,1.74-0.05c0.3,0.3,0.64,0.31,0.78,0.7c0.15,0.39,0.44,0.73,0.72,1.07
	c0.28,0.33,0.6,0.58,1.16,0.73c0.56,0.15,0.81,0.32,1.46,0.69c0.64,0.37,2,1.12,2,1.12l2,1.1c0,0,0.7,0.4,0.81,0.18
	c0.11-0.22,0.02-0.32,0.34-0.3c0.33,0.02,1.6,0.13,1.7,0.19c0.1,0.05,1.72,0.33,1.83,0.39c0.11,0.06,0.76,0.36,1.13,0.31
	c0.36-0.04,0.4,0.07,0.64,0.31c0.23,0.24,0.41,0.51,0.6,0.22c0.19-0.29,0.26-0.56,0.42-0.47s0.32,0.22,0.43,0.12
	c0.1-0.11,0.35-0.42,0.52-0.25c0.17,0.17,0.63,0.35,0.83,0.3s0.36-0.12,0.29,0.01c-0.06,0.13-0.13,0.09-0.13,0.09
	s-1.73,0.24-1.76,0.27s0.46,1.56,0.46,1.56l0.27,0.55c0,0-0.35-0.05-0.43,0.02c-0.07,0.07-0.32,0.68,0.33,1.15
	c0.63,0.46,0.89,0.5,1.09,0.7s0.46,0.51,0.81,0.48c0.34-0.03,0.83-0.16,1.24,0.03c0.41,0.18,0.65,0.49,1.13,0.33
	c0.47-0.16,1.3-0.45,1.65-0.37c0.35,0.07,0.73,0.13,1.02-0.02c0.28-0.14,0.96-0.16,0.92-0.43s0.1-0.23,0.02-0.47
	c-0.08-0.24,0.25-0.38,0.35-0.53s0.26-0.59,0.43-0.62c0.16-0.02,0.39-0.34,0.75-0.29c0.35,0.05,1.08-0.22,1.39-0.43
	s1.46-0.76,1.46-0.76s1.32-0.25,1.71-0.08c0.38,0.16,0.68,0.45,1.16,0.16c0.47-0.3,0.95-0.76,1.32-0.64
	c0.36,0.13,0.36,0.28,0.59,0.18c0.21-0.09,1.47-0.65,1.47-0.65s0.21-0.23,0.08-0.3c-0.13-0.08-0.05-0.36,0.15-0.46
	c0.2-0.09,0.71-0.49,0.64-0.72c-0.06-0.23,0.5,0.14,0.91,0.04c0.41-0.09,0.84-0.19,0.64-0.29c-0.2-0.11-0.26-0.14-0.26-0.14
	s0.25-0.2,0.49-0.27c0.24-0.06,0.51,0.08,0.9,0.43c0.4,0.34,0.6,0.5,0.76,0.52c0.16,0.03,0.25,0.02,0.5,0.36
	c0.24,0.33,0.51,0.67,0.76,0.63c0.26-0.04,0.49,0.15,0.62,0.23c0.13,0.08,0.46,0.24,0.6,0.1s0.39-0.23,0.39-0.23
	s0.55,0.04,0.84,0.21c0.29,0.17,1.27,0.64,1.27,0.64l0.73,0.25c0,0,0.36,0.44,0.7,0.18c0.33-0.27,0.39-0.41,0.39-0.41l0.06,0.29
	c0,0,0.52,0.12,0.83,0.02c0.32-0.09,0.94-0.37,1.13-0.67c0.19-0.3,0.26-0.54,0.26-0.54s0.07,0.23,0.41,0.1
	c0.34-0.14,0.51-0.16,0.51-0.16s0.21,0.58,0.34,0.24c0.12-0.34,0.24-0.41,0.24-0.41l0.39-0.15l0.12,0.24c0,0,0.4-0.1,0.38-0.3
	c-0.02-0.2,0.06-0.24,0.06-0.24l0.48,0.32c0,0,0.26,0.42,0.33,0.42c0.06,0,0.37,0.17,0.37,0.17s0.22,0.43,0.4,0.33
	s0.37-0.1,0.37-0.1l0.3,0.14l0.59,0.08c0,0,0.54-0.24,0.74-0.21c0.2,0.03,0.37,0.17,0.69-0.03c0.33-0.2,1.9-0.64,1.9-0.64l1.46-0.34
	l1.77-0.65c0,0,0.96,0.24,1.33-0.03s0.66-0.44,0.66-0.44l1.38-0.11c0,0,0.77,0.06,0.87-0.03c0.08-0.09,0.17-0.17,0.17-0.17
	s-0.03,0.36,0.13,0.31c0.16-0.03,0.29-0.16,0.29-0.16s0.49,0.18,0.64,0.3s0.31,0.21,0.31,0.21l0.21,0.07c0,0-0.07,0.19,0,0.27
	c0.08,0.07,0.22,0.22,0.22,0.22s-0.37,0.52-0.1,0.91c0.27,0.39,0.55,0.67,0.55,0.67s0.11,0.2,0.06,0.37c-0.06,0.18,0,0.48,0.1,0.66
	c0.09,0.18,0.06,0.43,0.06,0.43l-0.07,0.06l0.05,0.28c0,0-0.08,0.28-0.27,0.28c-0.2,0-0.46-0.08-0.46-0.08l-0.25,0.26
	c0,0-0.22,0.13-0.36,0.05c0,0-0.22,0.03-0.37,0s-0.24-0.11-0.44-0.07c-0.2,0.04-1.07,0.15-1.4,0.52c-0.34,0.37-0.39,0.8-0.96,0.8
	c-0.56,0-0.8-0.05-1.16,0.17c-0.38,0.21-0.83,0.4-0.89,0.31l-0.06-0.1c0,0-0.09,0.45-0.3,0.39c-0.21-0.06-0.36-0.34-0.58-0.21
	c-0.23,0.13-0.38,0.21-0.48,0.35c-0.09,0.14-0.59,0.54-0.75,0.86c-0.16,0.3-0.21,0.5-0.4,0.53s-1.11,0.31-1.26,0.63
	c-0.03-0.03-0.47-0.09-0.47-0.09c-0.06-0.07-0.47-0.21-0.47-0.21s-0.81-0.1-1.08,0c-0.28,0.1-0.73-0.08-1.11,0.1
	c-0.39,0.18-1.55,0.5-2.03,0.57c-0.47,0.07-2.24,0.47-2.24,0.47l-0.16,0.14l-0.13-0.08c0,0-0.48,0.3-0.62,0.22
	c-0.14-0.08-0.99-0.2-1.38-0.09c-0.39,0.12-1.16,0.31-1.55,0.58s-0.96,0.69-0.98,1.1c-0.02,0.41-0.11,0.41-0.11,0.41
	s-0.77,0.44-0.99,0.72c-0.23,0.29-0.11,0.61-0.34,0.63c-0.23,0.02-0.59,0-0.91,0.25s-0.84,0.71-0.93,0.87
	c-0.09,0.17-0.94,0.15-1.03,0.59c-0.08,0.45-0.09,1.11-0.4,1.42c-0.31,0.31-1.11,1.38-1.46,1.55c-0.34,0.17-0.89,0.31-1.35,0.77
	s-0.7,1.14-0.99,1.37c-0.29,0.22-0.41,0.26-0.67,0c-0.27-0.27-0.31-0.63-1.12-0.48c-0.82,0.15-1.38,0.33-2.11,0.52
	c-0.74,0.18-1.63,0.47-2.14,0.14c-0.5-0.34-1.1-0.75-1.45-1.09c-0.35-0.35-0.8-0.8-0.8-0.8s-0.15-0.18,0.32-0.32
	s1.22-0.42,1.22-0.42s0.3-0.49,0.19-0.89c-0.12-0.42-0.43-1.32-1.16-1.8c-0.72-0.47-1.25-0.85-2.24-1.11
	c-0.99-0.25-2.75-0.62-3.18-0.62c-0.42,0-0.83,0.03-1.06-0.04c-0.24-0.07-1.06-0.21-1.51-0.23c-0.46-0.02-3.1-0.18-3.25-0.18
	c-0.16,0-2.5-0.13-4.41-0.09c-1.91,0.03-3.12,0.12-3.63,0.28c-0.5,0.15-0.98,0.42-1.2,0.86c-0.22,0.44-0.33,0.85-0.4,1.02
	c-0.07,0.17-0.51-0.07-0.51-0.07s-0.02-0.19-0.28-0.34c-0.26-0.16-0.69-0.18-0.93-0.24c-0.25-0.06-0.63-0.28-0.88-0.39
	c-0.26-0.11-0.71-0.11-0.97-0.23c-0.26-0.11-0.53-0.21-0.89-0.31c-0.35-0.09-2.49-0.5-2.73-0.47c-0.24,0.04-0.07-0.17-0.3-0.17
	c-0.24,0-1.53,0.1-1.8,0.06c-0.28-0.03-1.14-0.17-1.44-0.17c-0.3,0-1.37,0.15-1.56,0.27C17.384,53.297,16.704,53.287,16.434,52.947z
	"/>
</svg>
