<?xml version="1.0" encoding="utf-8"?>
<!-- Generator: Adobe Illustrator 26.0.3, SVG Export Plug-In . SVG Version: 6.00 Build 0)  -->
<svg version="1.1" id="Layer_1" xmlns="http://www.w3.org/2000/svg" xmlns:xlink="http://www.w3.org/1999/xlink" x="0px" y="0px"
	 viewBox="0 0 38 38" style="enable-background:new 0 0 38 38;" xml:space="preserve">
<style type="text/css">
	.st0{fill:#FFFFFF;}
</style>
<rect x="34.2" y="27.4" class="st0" width="0.7" height="4.1"/>
<rect x="34.4" y="6.6" class="st0" width="0.3" height="19.4"/>
<rect x="32.9" y="25.7" class="st0" width="0.7" height="5.8"/>
<rect x="33.1" y="7.5" class="st0" width="0.3" height="16.8"/>
<rect x="31.7" y="23.5" class="st0" width="0.7" height="8"/>
<rect x="31.8" y="8.3" class="st0" width="0.3" height="13.8"/>
<rect x="30.4" y="18.9" class="st0" width="0.7" height="12.6"/>
<rect x="30.6" y="10.1" class="st0" width="0.3" height="7.4"/>
<rect x="29.1" y="15.8" class="st0" width="0.7" height="15.7"/>
<rect x="29.3" y="12.9" class="st0" width="0.3" height="1.5"/>
<rect x="27.8" y="14.8" class="st0" width="0.7" height="16.7"/>
<rect x="26.6" y="14.1" class="st0" width="0.7" height="17.4"/>
<rect x="25.3" y="14.7" class="st0" width="0.7" height="16.8"/>
<rect x="24" y="15.7" class="st0" width="0.7" height="15.8"/>
<rect x="22.7" y="18.7" class="st0" width="0.7" height="12.8"/>
<rect x="21.5" y="21.7" class="st0" width="0.7" height="9.8"/>
<rect x="21.7" y="19.4" class="st0" width="0.3" height="0.9"/>
<rect x="20.2" y="24.1" class="st0" width="0.7" height="7.4"/>
<rect x="20.4" y="19.5" class="st0" width="0.3" height="3.2"/>
<rect x="18.9" y="26" class="st0" width="0.7" height="5.5"/>
<rect x="19.1" y="18" class="st0" width="0.3" height="6.6"/>
<rect x="17.6" y="27" class="st0" width="0.7" height="4.5"/>
<rect x="17.8" y="14.8" class="st0" width="0.3" height="10.8"/>
<rect x="16.3" y="27.6" class="st0" width="0.7" height="3.9"/>
<rect x="16.5" y="12" class="st0" width="0.3" height="14.1"/>
<rect x="15" y="26.9" class="st0" width="0.7" height="4.6"/>
<rect x="15.2" y="10.9" class="st0" width="0.3" height="14.6"/>
<rect x="13.7" y="26.2" class="st0" width="0.7" height="5.3"/>
<rect x="13.9" y="10.1" class="st0" width="0.3" height="14.7"/>
<rect x="12.4" y="23.5" class="st0" width="0.7" height="8"/>
<rect x="12.6" y="10.9" class="st0" width="0.3" height="11.2"/>
<rect x="11.2" y="20.8" class="st0" width="0.7" height="10.7"/>
<rect x="11.4" y="12.2" class="st0" width="0.3" height="7.2"/>
<rect x="9.9" y="16.9" class="st0" width="0.7" height="14.6"/>
<rect x="10.1" y="14" class="st0" width="0.3" height="1.4"/>
<rect x="7.3" y="9.2" class="st0" width="0.7" height="22.3"/>
<rect x="6.1" y="7.6" class="st0" width="0.7" height="23.9"/>
<rect x="4.8" y="6.8" class="st0" width="0.7" height="24.7"/>
<rect x="3.5" y="6.5" class="st0" width="0.7" height="25"/>
<rect x="8.6" y="12.5" class="st0" width="0.7" height="19"/>
</svg>
