<?xml version="1.0" encoding="utf-8"?>
<!-- Generator: Adobe Illustrator 26.0.3, SVG Export Plug-In . SVG Version: 6.00 Build 0)  -->
<svg version="1.1" xmlns="http://www.w3.org/2000/svg" xmlns:xlink="http://www.w3.org/1999/xlink" x="0px" y="0px"
	 viewBox="0 0 350 350" style="enable-background:new 0 0 350 350;" xml:space="preserve">
<style type="text/css">
	.st0{fill:#FFFFFF;}
</style>
<g id="Layer_1">
	<g id="Layer_4">
	</g>
</g>
<g id="Layer_5_00000084518791860784490980000004643934469584443069_">
	<g>
		<rect class="st0" width="8.2" height="350"/>
		<path class="st0" d="M229.6,292.9c6.5,16.4,10.8,27.3,12.5,57.1h-8c-2.3-40.2-10.7-46.7-21-78.8c-14.4-41.5-6-57,4.5-91.6
			C236.7,119.1,234.8,67.2,235.2,0h8c-0.4,68,1.5,120.5-17.8,181.9c-1.3,4.3-2.5,8.2-3.7,11.9C207.1,233.8,213.7,251.6,229.6,292.9z
			"/>
		<path class="st0" d="M192.6,268.5c3.6,33.1,5.5,55.4,6.4,81.5h-8c-0.9-25.8-2.9-47.9-6.4-80.7c-3.9-36-2.7-47.3,0.5-77.5
			c7.8-68.3,7.1-124.3,6.6-191.8h8c0.3,64.5,1.4,114.5-5.4,180C190.9,214.3,188.1,229.5,192.6,268.5z"/>
		<path class="st0" d="M220.7,76.1c-1,42.3-3,74.3-12.6,117.1c-6.1,29.3-8.4,40.2-0.8,75.3c6.9,31.7,11,54.3,12.8,81.5h-8
			c-1.9-26.5-5.9-48.8-12.6-79.8c-7.9-36.7-5.4-48.9,0.8-78.6c15-67,12.5-120.5,13.1-191.6h8C221.4,28.3,221.4,54.8,220.7,76.1z"/>
		<path class="st0" d="M286.8,271.2c-10.3,32.1-18.7,38.7-21,78.8h-8c2.5-42.1,10.8-48.4,21.4-81.3c13.7-38.4,5.7-53.1-4.6-86.8
			C255.2,120.5,257.2,68,256.8,0h8c0.4,67.2-1.6,119,17.5,179.6C292.8,214.3,301.2,229.8,286.8,271.2z"/>
		<path class="st0" d="M315.3,269.3c-3.5,32.7-5.5,54.9-6.4,80.7h-8c0.9-26.1,2.9-48.5,6.4-81.5c3.8-35.1,2.6-46.2-0.5-75.8
			c-7.8-68.7-7.2-124.8-6.7-192.6h8c-0.3,64.2-1.4,114.1,5.3,179.2C317.1,214.2,319.9,229.5,315.3,269.3z"/>
		<path class="st0" d="M300.4,270.2c-6.7,31.1-10.8,53.3-12.6,79.8h-8c1.8-27.2,5.9-49.8,12.8-81.5c7.6-35,5.3-46-0.8-75.3
			C276.6,124.7,279.2,71.7,278.5,0h8c0,29.4,0,55.5,0.7,78.1c1.2,39.9,1.9,61.9,9.8,101.2C304.1,213.9,309.7,229.4,300.4,270.2z"/>
		<rect x="322.1" class="st0" width="8" height="350"/>
		<rect x="341.8" class="st0" width="8.2" height="350"/>
		<path class="st0" d="M69.2,350h-8c-0.1-52.9,1.3-98.6-9.9-144.2c-1.8-8.5-4.3-21-6.2-30c-6.2-29.6-8.7-41.9-0.8-78.6
			c7.9-36.3,13.3-66,15.6-97.1h8c-2.3,31.7-7.8,62-15.8,98.8c-7.6,35-5.3,46,0.8,75.3c1.9,9.1,4.4,21.5,6.2,30
			C70.3,249.3,69.2,297,69.2,350z"/>
		<path class="st0" d="M150.5,175.7c-1.9,9.1-4.4,21.5-6.2,30c-11.2,45.6-9.8,91.3-9.9,144.2h-8c0-53-1.1-100.7,10.1-145.9
			c1.8-8.5,4.3-21,6.2-30c6.1-29.3,8.4-40.2,0.8-75.3C135.5,62,130,31.7,127.6,0h8c2.3,31.1,7.7,60.9,15.6,97.1
			C159.2,133.8,156.7,146.1,150.5,175.7z"/>
		<path class="st0" d="M47.5,350h-8c0.2-65.2-0.8-108.1-8.1-174.5C28.3,145.3,27.1,134,31,98c3.6-33.8,6.6-63.9,7.9-98h8
			c-1.2,34.4-4.3,64.7-7.9,98.8c-3.8,35.1-2.6,46.2,0.5,75.8C46.6,241.5,47.7,284.5,47.5,350z"/>
		<path class="st0" d="M164.2,175.5c-7.2,66.5-8.3,109.3-8.1,174.5h-8c-0.2-65.5,0.9-108.5,8.1-175.3c3.1-29.6,4.2-40.7,0.5-75.8
			C153,64.7,150,34.4,148.8,0h8c1.2,34.1,4.2,64.1,7.9,98C168.5,134,167.3,145.3,164.2,175.5z"/>
		<path class="st0" d="M136.8,175.9c-2.9,9.3-6.7,22.1-9.5,30.6c-16.4,43.9-14.6,91-14.7,143.6h-8c0.1-53.3-1.5-101.6,15.1-146
			c2.7-8.5,6.5-21.3,9.4-30.6c9.3-29.8,12.4-39.9,0.9-74.9C116.4,58.2,107.8,59.9,105.3,0h8c1.7,41.4,6.9,53.3,14.1,69.8
			c3.1,7,6.6,15,10.3,26.3C150,133.6,146.1,145.9,136.8,175.9z"/>
		<rect x="169.9" class="st0" width="8" height="350"/>
		<rect x="19.2" class="st0" width="8" height="350"/>
		<path class="st0" d="M91,350h-8c-0.1-52.6,1.7-99.7-14.7-143.6c-2.7-8.5-6.5-21.3-9.4-30.6c-9.3-29.9-13.2-42.3-0.9-79.8
			C70.6,57.9,79.6,53.3,82.2,0h8c-2.6,54.7-11.8,59.8-24.7,98.6c-11.5,35.1-8.4,45.1,0.9,74.9c2.9,9.3,6.7,22,9.4,30.6
			C92.5,248.4,90.9,296.7,91,350z"/>
	</g>
</g>
</svg>
