<?xml version="1.0" encoding="utf-8"?>
<!-- Generator: Adobe Illustrator 26.0.3, SVG Export Plug-In . SVG Version: 6.00 Build 0)  -->
<svg version="1.1" id="Layer_1" xmlns="http://www.w3.org/2000/svg" xmlns:xlink="http://www.w3.org/1999/xlink" x="0px" y="0px"
	 viewBox="0 0 500 500" style="enable-background:new 0 0 500 500;" xml:space="preserve">
<style type="text/css">
	.st0{fill:#FFFFFF;}
</style>
<g>
	<path class="st0" d="M276.1,232.8v-19.9h-30.7v18h-36.2v18.1h-37.9V231h-45.2v18.1h-47v18.1H28.5v19.9h50.1v18h49.6v-18h41.3v18
		h41.6v-18h34.4v18h30.7v-19.9h-28.8V269h28.8v-19.9h-29.2v-16.3H276.1z M126.1,285.2H80.9V269h45.2V285.2z M169.5,267.4H128v-16.6
		h41.6V267.4z M209.3,285.2h-37.9V269h37.9V285.2z M245.4,267.2h-34.4v-16.3h34.4V267.2z"/>
	<polygon class="st0" points="342.2,285.2 342.2,305.1 310.5,305.1 310.5,287.1 281.7,287.1 281.7,267.2 312.4,267.2 312.4,285.2 	
		"/>
	<path class="st0" d="M428.1,231v-18h-45.2v18h-36.2v18.4H317V269h29.8v18h38v-18h43.4v-18.1h43.4V231H428.1z M382.9,267.2h-34.4
		v-16.3h34.4V267.2z M384.7,232.8h41.6v16.3h-41.6V232.8z"/>
	<polygon class="st0" points="377.5,194.9 377.5,214.7 341.3,214.7 341.3,232.8 312.4,232.8 312.4,250.9 281.7,250.9 281.7,231 
		310.6,231 310.6,212.9 339.5,212.9 339.5,194.9 	"/>
</g>
</svg>
