<?xml version="1.0" encoding="utf-8"?>
<!-- Generator: Adobe Illustrator 26.0.3, SVG Export Plug-In . SVG Version: 6.00 Build 0)  -->
<svg version="1.1" id="Layer_1" xmlns="http://www.w3.org/2000/svg" xmlns:xlink="http://www.w3.org/1999/xlink" x="0px" y="0px"
	 viewBox="0 0 38 38" enable-background="new 0 0 38 38" xml:space="preserve">
<path fill="#FFFFFF" d="M34.2,22.3c0,0.2,0,0.3-0.2,0.4l-21.4,9.8c-1.1,0.5-2.4,0.3-3.2-0.6l-4.5-4.4c-0.6-0.6-1-1.3-1.1-2.2
	l-0.6-4.4c-0.1-0.7,0.3-1.5,0.9-1.8L26.6,6.7c1.1-0.6,2.5-0.6,3.6,0l2.9,1.6L33.2,6c0-0.5,0.4-0.8,0.8-0.8s0.8,0.4,0.8,0.8
	l-0.7,13.3c0,0.3-0.2,0.6-0.6,0.7c-0.29,0.07-0.57,0.13-0.85,0.2c-19.71,4.59-18.36,4.3-18.85,4.3c-0.5,0-1-0.1-1.4-0.4l-3.7-2.2
	c-0.3-0.2-0.1-0.6,0.2-0.5l3.1,1c0.3,0.1,0.6,0.1,0.9,0.1c0.5,0,1-0.1,1.5-0.4c0.1,0,18.4-11.4,18.5-11.4c0.7-0.4,0.8-1.3,0.3-1.8
	c-0.1-0.1,0,0-3.2-1.8c-1-0.5-2.2-0.5-3.2,0L4.4,19.6C3.6,20,3.5,21.1,4,21.7l5.5,5.8c0.7,0.7,1.7,1,2.6,0.7l21.13-5.91l0.67-0.19
	C34,22.1,34.2,22.1,34.2,22.3z"/>
<polygon points="100.7,72.7 100.6,72.77 100.6,72.7 "/>
<polygon points="100.6,72.77 100.6,72.8 100.55,72.8 "/>
<polygon points="100.55,72.8 100.4,72.9 100.5,72.8 "/>
</svg>
