<?xml version="1.0" encoding="utf-8"?>
<!-- Generator: Adobe Illustrator 26.0.3, SVG Export Plug-In . SVG Version: 6.00 Build 0)  -->
<svg version="1.1" xmlns="http://www.w3.org/2000/svg" xmlns:xlink="http://www.w3.org/1999/xlink" x="0px" y="0px"
	 viewBox="0 0 250 250" style="enable-background:new 0 0 250 250;" xml:space="preserve">
<style type="text/css">
	.st0{fill:none;stroke:#000000;stroke-width:2;stroke-linecap:square;stroke-miterlimit:10;}
	.st1{fill:#FFFFFF;}
	.st2{fill:#BCBEC0;}
</style>
<g id="Layer_1">
	<g id="Layer_1_00000043434139826087341590000004634893757989324479_">
		<line class="st0" x1="380.6" y1="420" x2="380.6" y2="420"/>
	</g>
	<g id="Layer_4">
	</g>
	<g id="Default">
	</g>
	<g id="Layer_5">
	</g>
</g>
<g id="Default_00000031199378499028781450000012280849799938386620_">
	<g>
		<rect x="155.8" y="69" class="st1" width="61.6" height="10.3"/>
		<rect x="155.8" y="81.7" class="st1" width="58.4" height="10.3"/>
		<rect x="155.8" y="94.4" class="st1" width="55" height="10.3"/>
		<rect x="155.8" y="107.1" class="st1" width="51.6" height="10.3"/>
		<rect x="155.8" y="119.9" class="st1" width="48.2" height="10.3"/>
		<rect x="155.8" y="132.6" class="st1" width="44.8" height="10.3"/>
		<rect x="155.8" y="145.3" class="st1" width="41.4" height="10.3"/>
		<rect x="155.8" y="158" class="st1" width="38" height="10.3"/>
		<rect x="106.5" y="170.7" class="st1" width="83.8" height="10.3"/>
		<rect x="139" y="158" class="st2" width="14.3" height="10.3"/>
		<rect x="132.3" y="145.3" class="st2" width="21" height="10.3"/>
		<rect x="125.4" y="132.6" class="st2" width="27.9" height="10.3"/>
		<rect x="118.4" y="119.9" class="st2" width="34.8" height="10.3"/>
		<rect x="111.6" y="107.1" class="st2" width="41.7" height="10.3"/>
		<rect x="104.8" y="94.4" class="st2" width="48.5" height="10.3"/>
		<rect x="98" y="81.7" class="st2" width="55.3" height="10.3"/>
		<rect x="91.2" y="69" class="st2" width="62.1" height="10.3"/>
		<rect x="96.3" y="158" class="st1" width="40.2" height="10.3"/>
		<rect x="87.2" y="145.3" class="st1" width="42.5" height="10.3"/>
		<rect x="78.1" y="132.6" class="st1" width="44.8" height="10.3"/>
		<rect x="69" y="119.9" class="st1" width="47.1" height="10.3"/>
		<rect x="59.9" y="107.1" class="st1" width="49.4" height="10.3"/>
		<rect x="50.8" y="94.4" class="st1" width="51.6" height="10.3"/>
		<rect x="41.7" y="81.7" class="st1" width="53.9" height="10.3"/>
		<rect x="32.6" y="69" class="st1" width="56.2" height="10.3"/>
	</g>
</g>
<g id="Layer_5_00000042721831310370351360000015210014631577159052_">
</g>
</svg>
