<?xml version="1.0" encoding="utf-8"?>
<!-- Generator: Adobe Illustrator 26.0.3, SVG Export Plug-In . SVG Version: 6.00 Build 0)  -->
<svg version="1.1" xmlns="http://www.w3.org/2000/svg" xmlns:xlink="http://www.w3.org/1999/xlink" x="0px" y="0px"
	 viewBox="0 0 250 250" style="enable-background:new 0 0 250 250;" xml:space="preserve">
<style type="text/css">
	.st0{fill:#FFFFFF;}
</style>
<g id="Layer_1">
	<g id="GUIDE">
	</g>
</g>
<g id="GUIDE_00000003091411286628517500000007736731154577667757_">
</g>
<g id="SHAPE_00000124846838577253825060000006208861292829276082_">
	<g>
		<g id="POLYLINE_00000056412728774367556270000016766151614606365074_">
			<path class="st0" d="M120.3,221.7c0.6-24.8-0.2-87,34.2-87.9c34.5,1,33.6,63,34.2,87.9h4.9c-0.6-34.5-1.5-109.8-49-110.5
				c-47.5,0.8-48.3,75.9-49,110.5H120.3z"/>
		</g>
		<g id="POLYLINE_00000028285367407226018450000015519902046941640064_">
			<path class="st0" d="M203,221.7c-0.7-47.6-3.9-136.8-68.2-137.5C70.5,85,67.4,174,66.7,221.7h24.6c0.6-37.7,2.1-113.9,53.4-115
				c51.4,1.1,52.8,77.2,53.4,115H203z"/>
		</g>
		<g id="POLYLINE_00000109027468937556853570000009186741145463953559_">
			<path class="st0" d="M212.4,221.7C211.7,160.9,205.8,58,125,57.2C44.2,57.9,38.3,161,37.6,221.7h24.6
				c0.7-50.9,4.6-140.8,72.6-142c68,1.2,71.9,91.1,72.6,142H212.4z"/>
		</g>
		<g id="POLYLINE_00000148643352955831974490000008896088905963698858_">
			<path class="st0" d="M33.2,221.7c0.4-63.4,8.1-168.4,91.8-169c83.8,0.6,91.4,105.5,91.8,169h4.9V28.3H28.3v193.5H33.2z"/>
		</g>
	</g>
</g>
</svg>
