<?xml version="1.0" encoding="utf-8"?>
<!-- Generator: Adobe Illustrator 26.0.3, SVG Export Plug-In . SVG Version: 6.00 Build 0)  -->
<svg version="1.1" xmlns="http://www.w3.org/2000/svg" xmlns:xlink="http://www.w3.org/1999/xlink" x="0px" y="0px"
	 viewBox="0 0 250 250" style="enable-background:new 0 0 250 250;" xml:space="preserve">
<style type="text/css">
	.st0{fill:#FFFFFF;}
</style>
<g id="Layer_1">
	<g id="WHITE_FILL">
	</g>
	<g id="GREY_FILL">
	</g>
	<g id="HELP">
	</g>
</g>
<g id="BACKGROUND">
</g>
<g id="WHITE_FILL_00000113320019207624144010000013866412745582708879_">
	<path class="st0" d="M113.8,58C87,87.8,66.3,123.6,55.5,162.3c-4.5,18.2-10.1,47,5.1,61.4c2,1.9,4.5,3.4,7.2,4.3
		c19.8,6.7,42.7-11.7,56.7-24.1c29.2-27.6,51.2-62.6,65.1-100.1C220.1,18.3,175-8.8,113.8,58z M150.9,93.7
		c-2.5,29.9-8.4,59.7-19,87.9c-3.8,8.9-11.9,31-22.9,33.1c-1.4,0.3-2.7,0-3.9-0.7c-9.5-5.9-9.1-29.4-9.3-39.1
		c0.4-30,5.7-60,14.2-88.7C131,17.1,156.2,22,150.9,93.7z"/>
</g>
<g id="GREY_FILL_00000163040072261548856250000017504176853243754652_">
</g>
</svg>
