<?xml version="1.0" encoding="utf-8"?>
<!-- Generator: Adobe Illustrator 26.0.3, SVG Export Plug-In . SVG Version: 6.00 Build 0)  -->
<svg version="1.1" id="Layer_1" xmlns="http://www.w3.org/2000/svg" xmlns:xlink="http://www.w3.org/1999/xlink" x="0px" y="0px"
	 viewBox="0 0 250 250" style="enable-background:new 0 0 250 250;" xml:space="preserve">
<style type="text/css">
	.st0{fill:#FFFFFF;}
</style>
<g>
	<path class="st0" d="M37.2,122.6L19,118.4c0.1-0.5,11.1-46.2,54.4-64.4c13.8-5.8,29.5-7.5,44.3-4.8c16.5,3,30.5,11.1,40.4,23.5
		c6.3,7.9,13.3,21.7,11.1,42.6l-18.5-2c1.3-11.7-1.1-21.4-7.1-28.9C128,64.8,100.2,63,80.7,71.2C46.6,85.4,37.3,122.2,37.2,122.6z"
		/>
	<path class="st0" d="M118.1,230.6c-0.5-0.1-46.2-11.1-64.4-54.4c-5.8-13.8-7.5-29.5-4.8-44.3c3-16.5,11.1-30.5,23.5-40.4
		c7.9-6.3,21.7-13.3,42.6-11.1l-2,18.5c-11.7-1.3-21.4,1.1-28.9,7.1c-19.4,15.5-21.3,43.4-13.1,62.9c14.3,34,51,43.4,51.4,43.5
		L118.1,230.6z"/>
	<path class="st0" d="M142.7,170c-2.5,0-5.1-0.1-7.8-0.4l2-18.5c11.7,1.3,21.4-1.1,28.9-7.1c19.4-15.5,21.3-43.4,13.1-62.9
		c-14.3-34-51-43.4-51.4-43.5l4.2-18.2c0.5,0.1,46.2,11.1,64.4,54.4c5.8,13.8,7.5,29.5,4.8,44.3c-3,16.5-11.1,30.5-23.5,40.4
		C170.5,163.9,159.2,170,142.7,170z"/>
	<path class="st0" d="M231,166.6c-1.5,0.1-11.2,0.9-21.5,7c-2.7,1.6-5.8,4.1-9.1,6.7c-6.3,5-14.1,11.1-24,15.3c-9.5,4-20,6-30.4,6
		c-4.7,0-9.3-0.4-13.9-1.2c-16.5-3-30.5-11.1-40.4-23.5c-6.3-7.9-13.3-21.7-11.1-42.6l18.5,2c-1.3,11.7,1.1,21.4,7.1,28.9
		c15.5,19.4,43.4,21.3,62.9,13.1c7.6-3.2,13.7-8,19.7-12.7c3.8-3,7.4-5.8,11.2-8.1c11.1-6.6,21.8-8.7,27.1-9.3L231,166.6z"/>
</g>
</svg>
