<?xml version="1.0" encoding="utf-8"?>
<!-- Generator: Adobe Illustrator 26.0.3, SVG Export Plug-In . SVG Version: 6.00 Build 0)  -->
<svg version="1.1" id="Layer_1" xmlns="http://www.w3.org/2000/svg" xmlns:xlink="http://www.w3.org/1999/xlink" x="0px" y="0px"
	 viewBox="0 0 38 38" enable-background="new 0 0 38 38" xml:space="preserve">
<path fill="#FFFFFF" d="M32.3,19c0,3.6-1.4,7.1-3.9,9.5c-2.4,2.4-5.7,3.9-9.4,3.9s-7-1.5-9.4-3.9s-3.9-5.8-3.9-9.4
	c0-7.4,6-13.3,13.3-13.4c3.7,0,7,1.5,9.4,3.9S32.3,15.4,32.3,19z M27.4,19.2c0-2.2-0.9-4.4-2.4-5.9c-1.6-1.6-3.7-2.5-6-2.5
	s-4.4,0.9-5.8,2.4c-1.5,1.5-2.4,3.6-2.4,5.9c0,4.6,3.7,8.3,8.3,8.3c2.3,0,4.4-0.9,5.9-2.4S27.4,21.4,27.4,19.2z"/>
</svg>
