<?xml version="1.0" encoding="utf-8"?>
<!-- Generator: Adobe Illustrator 26.0.3, SVG Export Plug-In . SVG Version: 6.00 Build 0)  -->
<svg version="1.1" id="Layer_1" xmlns="http://www.w3.org/2000/svg" xmlns:xlink="http://www.w3.org/1999/xlink" x="0px" y="0px"
	 viewBox="0 0 95 95" enable-background="new 0 0 95 95" xml:space="preserve">
<path fill="#FFFFFF" d="M27.94,45.92l26.801,3.585h0.779l-26.803-4.675L27.94,45.92z M32.146,40.936l26.805,8.569h1.396
	L33.548,39.221L32.146,40.936z M35.109,37.352l26.796,12.153h1.713l-26.8-14.178L35.109,37.352z M70.166,86.434L95,75.828v-4.87
	L70.166,84.874V86.434z M70.166,83.63L92.6,67.576L45.859,24.572L43.21,27.69l27.894,22.56l-0.938,24.653v0.308l1.556-24.459v-0.002
	l0.495,0.401l-2.051,24.219v0.312l2.649-24.049l0.62,0.502l-3.269,23.7v0.471l4.054-23.534l-0.004-0.006l1.106,0.892l-5.156,22.958
	v0.62l6.262-22.681l1.346,1.089l-7.608,22.061v0.626l9.048-21.522l1.661,1.342L70.166,78.954v0.772l12.494-20.13l2.154,1.739
	L70.166,80.512v0.934l16.805-18.365l2.671,2.16L70.166,82.539V83.63z M38.688,33.142l26.958,16.363h2.184L40.87,30.498
	L38.688,33.142z M48.818,20.988L95,69.31v-1.682L52.25,16.939L48.818,20.988z M2.851,48.41L48.684,0h-6.769L0.671,43.74L2.851,48.41
	z M25.608,48.726l26.642,0.779h0.618l-26.798-1.401L25.608,48.726z M5.375,0L0,5.647v12.16L16.874,0H5.375z M26.316,0L0,27.79v8.889
	L34.773,0H26.316z M26.695,47.474l26.796,2.031h0.471l-26.803-2.648L26.695,47.474z M6.749,56.516L60.256,0h-5.562L4.881,52.619
	L6.749,56.516z M9.867,63.373L66.5,0h-1.394l-56.8,60.1L9.867,63.373z M29.806,43.74l26.801,5.766h1.085l-26.79-7.164L29.806,43.74z
	 M23.573,92.354l1.249-14.497v-0.929l-1.712,14.49L23.573,92.354z M56.298,12.108L95,64v-6.585L61.126,6.346L56.298,12.108z
	 M24.667,94.695l0.155-14.499v-1.242l-0.778,14.331L24.667,94.695z M70.166,90.796L95,86.58v-5.787l-24.834,7.51V90.796z M0,45.894
	L17.185,95h4.989L0,42.87V45.894z M0,73.807L4.41,95h6.859L0,54.087V73.807z M87.023,0H68.252L95,41.288V12.311L87.023,0z
	 M20.305,85.343l4.518-14.651v-1.713l-5.296,14.804L20.305,85.343z M17.033,78.487l7.79-15.114v-2.182L16.1,76.461L17.033,78.487z
	 M15.007,74.124l9.815-15.426v-2.653l-10.905,15.74L15.007,74.124z M22.641,90.174l2.182-14.492v-1.095l-2.649,14.649L22.641,90.174
	z M18.744,82.225l6.079-14.955v-1.874l-6.854,14.955L18.744,82.225z M12.668,69.136l12.154-15.891v-3.118L11.269,66.33
	L12.668,69.136z M21.55,87.992L24.822,73.5v-1.405l-3.896,14.649L21.55,87.992z"/>
</svg>
