<?xml version="1.0" encoding="utf-8"?>
<!-- Generator: Adobe Illustrator 26.0.3, SVG Export Plug-In . SVG Version: 6.00 Build 0)  -->
<svg version="1.1" id="Layer_1" xmlns="http://www.w3.org/2000/svg" xmlns:xlink="http://www.w3.org/1999/xlink" x="0px" y="0px"
	 viewBox="0 0 95 95" enable-background="new 0 0 95 95" xml:space="preserve">
<path fill="#FFFFFF" d="M5.415,92.788c-1.8,0-3.61-0.04-5.41-0.08v-2.76c2.76-0.11,5.52-0.16,8.08-0.08
	c2.29,0.08,4.64,0.57,6.45,0.28c0.96-0.15,1.74-0.9,2.67-0.97c1.05-0.08,2.1,0.38,3.08,0.41c9.98,0.34,20.12-0.56,30.3,0.15
	c4.21,0.29,8.42-0.28,12.63-0.15c10.59,0.34,21.2,0.43,31.79,0.71v2.13c-6.08,0.23-12.4,0.36-18.46,0.36c-2.92,0-6.07-0.36-8.7,0
	c-0.76,0.1-1.58,0.66-2.53,0.69c-0.82,0.03-1.69-0.37-2.52-0.41c-5.97-0.29-12.54,0-19.08,0c-6.65,0-13.54-0.29-19.5,0.27
	c-1.4,0.14-1.9,0.37-3.23,0c-0.41-0.11-0.85-0.07-1.26-0.13c-0.8-0.13-1.49-0.49-2.24-0.56c-0.89-0.08-1.91,0.22-2.81,0.14
	c-1.05-0.1-1.99-0.55-2.94-0.56C9.635,92.208,7.555,92.788,5.415,92.788z"/>
<path fill="#FFFFFF" d="M17.765,86.818c-5.91-0.06-11.84,0-17.76-0.04v-2.52c13.48-0.22,27.36-0.49,40.76-0.5c0.29,0,0.57,0,0.85,0
	c3.42,0,6.8,0.12,10.24,0.28c4.21,0.2,8.47-0.22,12.48,0c6.64,0.37,13.43,0.01,20.2,0.14c3.41,0.06,6.96,0.16,10.47,0.31v2.03
	c-4.34,0.16-8.83,0.21-13.13,0.3c-6.74,0.13-13.87,0.31-20.07,0.41c-3.15,0.05-6.34-0.38-9.54-0.27c-9.02,0.3-19.23,0.51-29.03,0.27
	C21.405,87.188,19.625,86.838,17.765,86.818z"/>
<path fill="#FFFFFF" d="M95.005,78.898v1.71c-4.14,0.23-8.4,0.37-12.43,0.37c-7.22,0-14.44,0.64-21.05,0.28
	c-1.18-0.06-2.33-0.52-3.5-0.55c-2.79-0.09-5.65,0.54-8.56,0.55c-2.88,0.02-5.81,0.11-8.7,0.14c-5.82,0.06-11.8-0.72-17.53-0.56
	c-7.72,0.23-15.45,0.25-23.23,0.14v-2.62c1.67-0.04,3.34-0.09,4.99-0.16c5.65-0.22,11.8-0.48,16.98,0c0.74,0.08,1.49,0.39,2.24,0.42
	c2.74,0.13,5.65-0.47,8.56-0.55c6-0.17,11.93,0.13,17.95,0.13c2.49,0,5,0.57,7.36,0.59c0.36,0,0.71-0.01,1.06-0.03
	c1.01-0.07,1.94-0.63,2.95-0.69c2.92-0.19,6.12,0.13,9.25,0.13C79.195,78.198,87.285,78.578,95.005,78.898z"/>
<path fill="#FFFFFF" d="M95.005,73.038v1.63c-7.12,0.37-14.6,0.62-21.83,0.62c-3.24,0-6.66,0.49-9.54,0.14
	c-0.91-0.11-1.71-0.89-2.8-0.97c-0.11-0.01-0.23-0.01-0.34-0.01c-1.14,0-2.38,0.41-3.73,0.56c-7.23,0.75-15.22,0.5-22.73,0.42
	c-2.93-0.03-5.91-0.9-8.56-0.7c-0.84,0.07-1.66,0.46-2.52,0.56c-2.82,0.31-5.96,0-8.98,0c-4.71,0-9.35-0.05-13.97-0.13v-2.68
	c4.71-0.06,9.5-0.11,14.25-0.11c2.95,0,5.93-0.31,8.7,0c0.79,0.09,1.76,0.65,2.66,0.7c1.3,0.07,2.92-0.28,4.35-0.42
	c6.94-0.69,15.33-0.33,22.87,0c2.57,0.11,5.22,0.6,7.69,0.6c0.39,0,0.77-0.01,1.15-0.04c1.07-0.08,2.15-0.48,3.22-0.56
	C74.395,71.938,85.145,72.468,95.005,73.038z"/>
<path fill="#FFFFFF" d="M95.005,67.168v1.75c-0.87,0.04-1.74,0.08-2.61,0.12c-3.6,0.17-7.37,0.49-10.8,0.41
	c-7.73-0.17-15.47-0.05-23.15-0.41c-3.78-0.17-7.51-0.62-11.22-0.28c-3.69,0.34-7.25,0.88-10.95,0.83
	c-3.14-0.03-6.16-0.73-9.25-0.96c-0.11-0.01-0.22-0.02-0.34-0.02c-2.94-0.18-6.16,0.18-9.2,0.57c-5.62,0.71-11.54,0.46-17.48,0.2
	v-2.83c4.98-0.19,10.1-0.33,13.97,0.13c1.35,0.16,2.5,0.68,3.79,0.69c2.06,0.03,4.38-0.45,6.59-0.27c0.82,0.06,1.63,0.33,2.39,0.4
	c0.14,0.01,0.28,0.01,0.42,0.01c1.55-0.05,3.1-0.66,4.63-0.83c1.65-0.19,3.36-0.31,5.04-0.28c3.17,0.06,6.42,0.9,9.83,0.97
	c2.73,0.06,5.51-0.42,8.27-0.55c2.91-0.14,5.79-0.13,8.7-0.14c5.74-0.03,11.56-0.85,17.25-0.42
	C85.605,66.618,90.345,66.888,95.005,67.168z"/>
<path fill="#FFFFFF" d="M95.005,61.248v1.91c-3.77,0.05-7.68-0.24-11.31,0.32c-1.09,0.17-2.12,0.75-3.22,0.84
	c-3.3,0.27-6.77-0.2-10.25-0.28c-8.55-0.18-16.9-0.31-25.53-0.83c-1.63-0.1-3.36-0.55-4.77-0.42c-1.25,0.12-2.51,0.79-3.93,0.83
	c-2.59,0.08-5.08-0.32-7.24-1.16h-2.85c-1.38,1.09-3.28,0.39-4.92,0.33c-6.59-0.25-13.5,0.83-20.48,0.83h-0.5v-3.14
	c2.21-0.07,4.37-0.01,6.4,0.37c0.96,0.17,1.75,0.62,2.66,0.69c3.21,0.24,6.82-0.5,10.1-0.28c2.08,0.14,4.52-0.24,6.33,0.58h3.63
	c1.83-0.7,4-1.04,6.17-0.99c1.37,0.02,2.71,0.63,3.93,0.69c2.15,0.11,4.59-0.59,7.02-0.69c7.14-0.31,14.73-0.56,22.16-0.7
	c3.8-0.07,7.83-0.29,11.64,0c1.46,0.11,2.81,0.61,4.21,0.7C87.835,61.058,91.415,61.148,95.005,61.248z"/>
<path fill="#FFFFFF" d="M95.005,55.328v2c-4.36,0.25-8.76,0.56-13.27,0.6c-1.12,0.01-2.27-0.28-3.37-0.28
	c-3.34,0-7.07,0.71-11.08,0.69c-8.62-0.02-18.61,0.11-27.36-0.97c-1.32-0.16-2.76-0.55-3.65-0.41c-1.17,0.18-1.71,1.37-3.22,1.38
	c-1.53,0.02-2.13-0.69-2.82-1.55h-8.04c-3.37,1.25-7.02,0.31-10.81,0h-3.8c-0.11,0.01-0.23,0.01-0.34,0.03
	c-0.75,0.1-1.46,0.67-2.25,0.83c-1.57,0.32-3.25,0.39-4.99,0.37v-3.25c2.76,0.06,5.27,0.36,7.1,1.35c2.61-0.34,5.99-0.83,9.11-0.83
	c2.18,0,4.65-0.12,6.12,0.87h7.38c-0.01-0.01-0.02-0.03-0.03-0.04c1.4-0.2,2.03-1.74,3.51-1.66c1.25,0.06,1.55,1.15,2.8,1.24
	c1.45,0.12,3.47-0.53,5.33-0.69c5.32-0.46,11.68-0.03,17.26-0.27c2.34-0.11,4.8-0.68,7.01-0.28c0.76,0.13,1.48,0.58,2.25,0.69
	c2.36,0.35,5.02-0.48,7.71-0.41C81.915,54.868,88.475,55.108,95.005,55.328z"/>
<path fill="#FFFFFF" d="M0.225,49.868c1.47,0.15,2.93-0.19,4.35,0c0.33,0.05,0.64,0.15,0.96,0.26h3.98
	c0.27-0.05,0.54-0.09,0.81-0.12c0.71-0.07,1.44,0.06,2.19,0.12h1.22c1.83-0.09,3.31-0.29,4.77,0h8.86
	c-0.02-0.04-0.06-0.08-0.06-0.12c-0.11-1.14,1.85-1.47,3.69-1.51c1.13-0.03,2.21,0.05,2.76,0.12c0.97,0.13,1.82,0.59,2.81,0.7
	c2.2,0.24,4.74-0.14,7.29-0.14c6.95,0,15.24,0.04,21.6-0.42c1.5-0.11,2.88-0.67,4.21-0.69c0.08,0,0.17,0,0.25,0
	c2.36-0.01,5.71,0.59,8.31,0.55c0.82-0.01,1.63-0.31,2.25-0.28c1.1,0.07,2.22,0.75,3.78,0.84c3.29,0.19,7.01,0.22,10.75,0.26v2.16
	c-0.64,0.02-1.27,0.05-1.91,0.08c-3.08,0.13-6.35-0.3-9.26,0.14c-0.7,0.1-1.4,0.59-2.1,0.69c-1.65,0.23-3.25-0.26-4.91-0.28
	c-3.4-0.02-6.94,0.32-10.52,0.28c-3.37-0.03-6.76-0.49-10.11-0.55c-5.3-0.11-10.81-0.03-15.85-0.28c-1.74-0.09-3.55-0.42-5.05-0.28
	c-1.12,0.11-1.96,0.72-3.08,0.69c-0.7-0.01-3.12-0.58-4.28-1.33h-8.47c-1.7,0.77-3.53,0.23-5.91,0.23c-1.22,0-2.45,0.24-3.51,0.13
	c-0.59-0.06-1.14-0.23-1.68-0.36h-2.63c-0.36,0.08-0.74,0.16-1.16,0.23c-0.95,0.14-2.04-0.01-2.95,0.13
	c-0.55,0.09-1.09,0.36-1.62,0.54v-1.82C0.075,49.848,0.145,49.868,0.225,49.868z"/>
<path fill="#FFFFFF" d="M0.005,44.158c2.58,0.01,5.18-0.44,7.8-0.12c0.41,0.05,0.82,0.2,1.23,0.34h13.18
	c-0.01-0.15-0.02-0.3,0.04-0.48c0.37-1.17,4.84-1.05,7.15-0.83c0.82,0.07,1.52,0.56,2.24,0.55c0.81-0.01,1.21-0.39,2.11-0.41
	c1.07-0.03,2.19,0.35,3.22,0.41c6.88,0.43,13.15-0.16,19.64-0.69c3.12-0.26,6.25-0.75,9.33-0.75c0.54,0,1.08,0.02,1.62,0.05
	c1.31,0.09,2.61,0.47,3.92,0.56c4.06,0.27,7.76-0.01,11.65,0.14c3.93,0.15,7.89,0.36,11.87,0.53v2.38c-0.08,0-0.15,0-0.23,0.01
	c-4.2,0.11-8.61,0.66-12.62,0.27c-3.39-0.32-6.64-0.7-9.82-0.14c-0.81,0.15-1.47,0.78-2.25,0.84c-0.06,0-0.11,0.01-0.17,0.01
	c-0.67,0-1.43-0.25-2.07-0.29c-2.42-0.15-5.04,0.14-7.72,0c-6.66-0.35-14.58-1.08-21.32-0.83c-1.46,0.05-3.71-0.23-5.33,0
	c-0.68,0.09-1.28,0.62-1.96,0.69c-0.18,0.02-0.36,0.03-0.55,0.03c-1.3,0-2.92-0.39-4.37-0.45c-1.08-0.04-3.43-0.05-4.17-0.98H9.115
	c-0.34,0.12-0.68,0.24-1.03,0.29c-2.69,0.34-5.41-0.15-8.08-0.17V44.158z"/>
<path fill="#FFFFFF" d="M95.005,37.628v2.42c-1.71,0.03-3.42,0.07-5.14,0.1c-1.9,0.04-4.11-0.19-5.75,0.14
	c-0.72,0.14-1.56,0.89-2.38,0.97c-1.94,0.19-3.94-0.55-5.9-0.55c-2.43,0-4.88,0.53-7.43,0.69c-0.81,0.05-1.63,0.08-2.47,0.08
	c-5.61,0.02-11.74-0.98-17.03-1.19c-3.63-0.14-6.72-0.01-9.68-0.69c-0.45-0.11-0.94-0.28-1.41-0.43h-2.38
	c-0.6,0.27-1.21,0.64-1.96,0.7c-0.94,0.08-2.19-0.49-3.37-0.42c-1.57,0.12-3.06,1.24-4.35,1.26c-0.63,0-1.42-0.37-2.1-0.42
	c-1.37-0.09-3.05,0.21-3.52-1.12h-1.64c-0.6,0.31-1.46,0.15-2.32,0h-2.32c-0.77,0.12-1.6,0.24-2.37,0h-4.33
	c-1.66,0.42-3.44,0.31-5.25,0.43c-0.63,0.04-1.26,0.09-1.9,0.14v-1.78c2.49,0.13,5.08-0.13,7.21,0.58h4
	c0.8-0.64,1.99-0.09,3.18-0.06c1.44,0.05,3.17-0.7,4.48,0.06h1.18c0.59-1.28,2.09-0.84,3.32-0.89c0.94-0.04,2.02-0.42,2.95-0.42
	c1.12,0.01,2.32,0.47,3.5,0.56c1.39,0.1,2.88,0,4.21,0.28c0.53,0.11,1,0.31,1.46,0.47h2.08c0.69-0.23,1.38-0.59,2.07-0.75
	c2.12-0.49,4.71-0.35,7.3-0.56c2.32-0.18,4.71-0.56,7.01-0.69c3.01-0.16,6.19,0.24,9.26,0.28c3.19,0.03,6.29-0.43,9.12-0.42
	c0.9,0,1.79,0.21,2.66,0.14c0.85-0.06,1.64-0.59,2.53-0.56c0.03,0,0.06,0,0.09,0.01c0.85,0.08,1.73,0.76,2.57,0.97
	c0.83,0.2,1.81,0.34,2.67,0.41C86.665,37.668,90.815,37.658,95.005,37.628z"/>
<path fill="#FFFFFF" d="M95.005,31.558v2.79c-2.3,0.06-4.51,0.11-6.4,0.11c-1.57,0-4.46-0.16-5-1.13h-4.22
	c-0.45,0.97-1,1.58-1.72,2.27c-3.04-1.2-8.88,0.47-10.83-1.78l-0.63-0.27l-1.01-0.22h-1.98c-0.62,0.75-2.09,0.47-3.06,0h-1.45
	c0,0.01,0.01,0.01,0.02,0.01c-2.13,2.92-6.57,1.7-10.94,1.4c-3.73-0.27-7.34-0.15-9.74-1.41h-3.92c-0.86,0.18-1.88,0.21-2.7,0h-1.49
	c-0.23,1.9-4.41,2.11-6.28,1.41c-0.68-0.26-0.98-1.1-1.48-1.41h-1.29c-0.55,0.12-1.15,0.27-1.58,0.29c-1.67,0.1-3.96-0.37-5.19-0.28
	c-0.8,0.07-1.6,0.61-2.38,0.7c-1.82,0.21-2.74-0.54-3.93-0.56c-0.55,0-1.2,0.36-1.83,0.42c-1.52,0.15-3.49,0.31-5.05,0.14
	c-0.32-0.03-0.63-0.1-0.92-0.17v-1.63c0.61-0.11,1.25-0.23,1.9-0.28c2.21-0.18,4.49,0.66,6.18,0.55c1.47-0.09,2.67-1,4.07-0.83
	c0.72,0.09,1.45,0.81,2.24,1.03h1.08c0.51-0.11,1.04-0.29,1.59-0.34c1.82-0.14,3.55-0.06,4.81,0.34h1.59c1.63-0.33,3.68-0.41,5.25,0
	h2.33c0.86-0.53,2.79-0.54,3.63,0h3.39c2.56-1.75,7.58-1.26,11.68-1.45c2.98-0.13,5.89,0.39,7.93,1.45h1.62c1.22,0,2.31-1.45,4.2,0
	h2.85l1.47-0.4c1.88-0.89,4.79-1.39,7.04-1.74c0.11-0.02,0.21-0.03,0.32-0.03c1.04,0,1.65,0.89,2.63,1.28
	c0.53,0.22,1.09,0.15,1.53,0.35l0.01-0.01l1.43,0.55h2.89c1.17-0.81,3.25-1.1,4.66-1.17C90.555,31.428,92.775,31.478,95.005,31.558z
	"/>
<path fill="#FFFFFF" d="M2.615,27.238c-0.33-0.06-1.5-0.13-2.61-0.13v-0.1c1.04-0.19,2.12-0.46,3.17,0.09
	c1.09-0.42,1.8-0.86,3.09-0.84c1.35,0.02,2.64,0.94,3.78,0.84c1.49-0.13,2-1.63,3.23-1.53c1.2,0.09,1.15,1.28,2.38,1.39
	c0.6,0.05,1.34-0.35,2.11-0.42c5.58-0.5,12.7-0.15,18.8-0.14c1.41,0,2.75,0.29,4.06,0.14c1.22-0.13,2.68-0.72,3.93-0.83
	c5.05-0.46,10.78-0.64,16.28-0.42c1.08,0.04,2.37,0.12,3.5,0.28c1.2,0.16,2.43,0.67,3.23,0.55c0.88-0.13,1.84-1.26,2.8-1.38
	c1.45-0.2,3.35,0.27,5.19,0.27c1.22,0,2.5-0.32,3.63-0.4c0.3-0.03,0.59-0.03,0.86-0.01c0.99,0.07,1.97,0.93,2.95,1.11
	c3.38,0.61,8.06-0.07,12.01-0.01v2.78c-3.63-0.04-7.18-0.1-10.47,0c-0.77,0.03-1.62,0.33-2.38,0.28c-0.77-0.05-1.51-0.57-2.25-0.55
	c-1.41,0.03-2.83,1.18-4.49,1.25c-0.09,0.01-0.18,0.01-0.26,0.01c-2.38,0.03-4.05-0.66-5.91-1.68c-1.29,0.27-2.55,0.73-3.93,0.83
	c-6.52,0.5-15.13,0.63-21.88,0.14c-1.73-0.12-3.02-0.95-4.49-1.11c-3.32-0.35-7.29,0.14-10.94,0.14c-3.67,0-7.41,0.33-10.66,0
	c-0.78-0.08-1.53-0.47-2.25-0.42c-1.05,0.09-2.06,1.14-3.36,1.11c-0.78-0.01-1.46-0.75-2.25-0.83c-1.28-0.13-2.65,0.74-3.93,0.69
	C4.325,28.308,3.735,27.428,2.615,27.238z"/>
<path fill="#FFFFFF" d="M0.005,20.828c0.5,0.05,1.03,0.09,1.56,0.11h2.26c0.41-0.02,0.82-0.05,1.17-0.09c1-0.14,2.6-1.01,3.75,0.09
	h0.96c1.45-0.93,2.29-0.59,3.71-0.65c0.89-0.04,1.3-0.64,2.1-0.55c1.2,0.12,1.1,0.9,2.11,1.11c0.24,0.04,0.49,0.07,0.75,0.09h1.09
	c1.72-0.09,3.64-0.54,5.17-0.51c4.85,0.08,10.94,0.39,16.42,0c4.15-0.3,9.02-0.91,13.46-1.11c2.45-0.12,5.03,0.1,7.58,0
	c3.81-0.15,7.56-0.61,11.08-0.61c1.55,0,3.05,0.09,4.49,0.33c1.06,0.18,2.02,0.71,3.08,0.83c4.41,0.51,9.04,0,13.33,0
	c0.31,0,0.62,0,0.93,0v2.92c-1.08,0-2.18,0-3.32,0c-3.46,0-7.21-0.47-9.81,0c-0.65,0.12-1.49,0.84-2.25,0.97
	c-0.17,0.03-0.34,0.06-0.52,0.08c-1.97,0.22-4.42-0.08-6.77-0.08c-6.96,0-14.22-0.13-21.05-0.55c-1.77-0.11-3.47-0.7-5.18-0.84
	c-1.83-0.14-3.68-0.08-5.48-0.13c-4.92-0.15-9.54-0.43-14.3-0.28c-3.23,0.09-6.74,0.01-10.23-0.4h-1.64
	c-0.57,0.53-0.1,1.34-1.32,1.51c-0.99,0.13-2.9-0.81-3.47-1.51h-1.01c-0.28,0.56-1.1,0.85-1.69,0.95c-0.81,0.15-1.55-0.59-2.39-0.69
	c-1.16-0.15-2.94-0.15-4.57-0.04V20.828z"/>
<path fill="#FFFFFF" d="M95.005,14.048v2.91h-1.49c-4.57,0-9.32-0.55-13.75,0c-0.86,0.1-1.67,0.55-2.52,0.69
	c-1.33,0.22-2.7,0.33-4.08,0.35c-4.46,0.08-9.09-0.65-13.6-0.63c-1.16,0.01-2.26,0.28-3.37,0.28c-2.57,0-5.06-0.8-7.57-0.83
	c-2.44-0.03-5,0.11-7.57,0c-2.82-0.13-5.79-0.18-8.42-0.42c-0.91-0.08-1.88-0.56-2.81-0.55c-0.72,0-1.55,0.37-2.24,0.41
	c-1.4,0.09-2.99,0.01-4.35-0.14c-0.68-0.07-1.39-0.49-2.12-0.54c-0.04-0.01-0.09-0.01-0.13-0.01c-1.78-0.02-3.53,0.86-5.33,0.28
	c-1.03,1.61-6.05,1.14-7.57-0.14c-1.85,1.49-4.98,0.43-7.86,0.55c-0.08,0.01-0.15,0.01-0.22,0.02v-1.72
	c0.12,0.02,0.24,0.03,0.36,0.04c2.48,0.11,5.39,0.22,7.58,0c0.88-0.1,1.66-0.58,2.52-0.56c1.31,0.04,2.49,0.77,3.65,0.97
	c0.93-0.78,3.35-1.69,5.05-1.25c1.07,0.28,1.1,1.42,1.96,1.67c3.11-1.11,6.38-0.28,9.54-0.28c1.52,0,3.14-0.44,4.77-0.55
	c3.51-0.26,7.36-0.63,11.23-0.42c1.11,0.06,2.16,0.47,3.22,0.42c1.46-0.08,2.91-0.83,4.35-0.98c2.38-0.24,5.11,0.04,7.86-0.14
	c2.93-0.18,5.59-0.33,8.45-0.39c0.4-0.01,0.81-0.01,1.23-0.02c0.91-0.01,1.9-0.24,2.8-0.14c1.51,0.16,2.98,0.97,4.49,1.11
	C84.245,14.538,89.545,14.258,95.005,14.048z"/>
<path fill="#FFFFFF" d="M95.005,8.208v2.91c-5.77-0.15-11.53-0.36-16.64,0c-0.86,0.06-2.1,0.07-2.95,0.28
	c-0.55,0.14-1.18,0.73-1.82,0.83c-0.95,0.16-1.98,0.23-3.05,0.23c-3.46,0-7.39-0.68-10.84-0.92c-1.09-0.08-2.21,0.09-3.23,0
	c-2.3-0.21-4.48-1.18-6.87-0.97c-0.97,0.09-1.91,0.48-2.8,0.55c-4.11,0.35-7.55-0.75-11.23-0.69c-0.88,0.01-1.78,0.33-2.66,0.28
	c-1.9-0.12-6.46-1.14-8.84-0.56c-1.19,0.29-1.88,1.39-3.23,1.25c-1.02-0.69-1.52-1.14-1.7-1.5h-4.09c-0.2,0.3-0.84,0.57-1.78,1.09
	c-0.86,0.46-1.65-0.65-2.67-0.7c-0.85-0.04-1.84,0.52-2.8,0.56c-1.6,0.05-3.36-0.35-5.19-0.28c-0.87,0.03-1.74,0.12-2.61,0.21v-2.48
	c3.01,0.05,5.92,0.12,8.5,0.19c0.74,0.02,1.54,0.44,2.25,0.41c1.3-0.05,1.95-1.22,2.94-0.55c0.59,0.39,0.98,0.69,1.2,0.92h4.33
	c0.35-0.39,1.23-0.72,2.32-1.34c1-0.56,1.38,1.07,2.39,1.25c1.06,0.18,2.85-0.06,4.35-0.14c1.52-0.08,3.06-0.01,4.35-0.14
	c0.82-0.08,1.49-0.41,2.24-0.41c0.78-0.01,1.58,0.24,2.39,0.27c2.32,0.09,4.88-0.58,7.57-0.55c3.25,0.02,6.6,0.78,9.82,0.55
	c4.28-0.3,8.64-0.96,12.91-0.97c1.98,0,3.96,0.57,5.89,0.56c0.75-0.01,1.49-0.41,2.24-0.42c0.68-0.01,1.46,0.24,2.11,0.28
	C83.445,8.508,89.225,8.328,95.005,8.208z"/>
<path fill="#FFFFFF" d="M95.005,2.318v2.92c-7.95,0.14-15.87,0.44-23.23,0.05c-6.62-0.35-13.54,0.35-19.78-0.42
	c-1.01-0.12-1.94-0.51-2.95-0.55c-2.19-0.1-4.57,0.1-6.73,0.27c-0.99,0.09-1.96,0.54-2.95,0.56c-2.46,0.04-5.53-0.56-8.14-0.69
	c-0.58-0.03-1.44,0.14-1.99-0.19h-1.33c-0.39,0.64-0.7,1.38-1.58,1.58c-1.55,0.34-3.24-0.57-4.35-1.11
	c-1.23,1.1-2.93,0.47-4.91,0.55c-0.97,0.04-1.9,0.5-2.53,0.42c-0.72-0.1-1.34-0.9-2.1-0.97c-0.7-0.08-1.55,0.29-2.39,0.27
	c-0.78-0.02-1.64-0.27-2.38-0.27c-2.44-0.01-5,0.35-7.66,0.49v-2.99c2.36-0.04,4.69,0,6.96,0.27c0.83,0.1,1.56,0.39,2.38,0.42
	c2.69,0.08,5.74-0.52,8.28-0.28c0.67,0.07,1.5,0.49,2.1,0.42c0.75-0.09,1.38-0.91,2.11-0.97c0.77-0.07,1.51,0.29,2.24,0.55
	c1.34-0.86,3.82-0.42,4.16,1h1.08c1.45-0.7,3.09-0.36,4.72-0.44c2.86-0.15,5.88-0.77,8.84-0.7c1.34,0.04,2.59,0.56,3.93,0.7
	c1.71,0.18,3.67-0.15,5.61-0.14c3.92,0.01,8.28,0.38,11.78-0.14c0.84-0.13,1.57-0.61,2.39-0.69c3.23-0.35,6.75,0.13,10.1,0.13
	C82.775,2.368,88.885,2.348,95.005,2.318z"/>
</svg>
