<?xml version="1.0" encoding="utf-8"?>
<!-- Generator: Adobe Illustrator 26.0.3, SVG Export Plug-In . SVG Version: 6.00 Build 0)  -->
<svg version="1.1" xmlns="http://www.w3.org/2000/svg" xmlns:xlink="http://www.w3.org/1999/xlink" x="0px" y="0px"
	 viewBox="0 0 95.005 95.004" enable-background="new 0 0 95.005 95.004" xml:space="preserve">
<g id="Layer_1">
</g>
<g id="Make2D::visible::lines">
	<polygon fill="#FFFFFF" points="90.443,32.036 90.443,45.924 79.891,45.924 79.891,40.317 69.641,40.317 69.641,37.644 
		72.153,37.644 72.153,32.036 	"/>
	<polygon fill="#FFFFFF" points="73.701,58.888 69.641,58.888 69.641,54.667 79.891,54.667 79.891,49.06 88.172,49.06 
		88.172,62.947 73.701,62.947 	"/>
	<polygon fill="#FFFFFF" points="78.886,48.055 78.886,53.662 68.636,53.662 67.51,53.662 67.51,48.055 64.998,48.055 
		64.998,45.382 67.51,45.382 67.51,41.322 68.636,41.322 78.886,41.322 78.886,46.929 	"/>
	<polygon fill="#FFFFFF" points="68.636,59.893 72.696,59.893 72.696,63.952 72.696,72.233 62.868,72.233 60.355,72.233 
		60.355,68.173 60.355,65.5 67.51,65.5 67.51,59.893 	"/>
	<polygon fill="#FFFFFF" points="66.506,54.667 66.506,58.888 66.506,64.495 59.351,64.495 53.582,64.495 49.522,64.495 
		49.522,58.888 49.522,54.667 60.255,54.667 60.255,49.06 63.993,49.06 66.506,49.06 	"/>
	<polygon fill="#FFFFFF" points="71.148,31.032 71.148,36.639 68.636,36.639 67.51,36.639 67.51,27.936 58.808,27.936 
		58.808,26.811 58.808,24.299 63.33,24.299 71.148,24.299 	"/>
	<polygon fill="#FFFFFF" points="59.351,69.178 59.351,73.238 61.863,73.238 61.863,86.181 46.427,86.181 46.427,77.88 
		53.582,77.88 53.582,69.178 	"/>
	<polygon fill="#FFFFFF" points="45.422,41.081 59.25,41.081 59.25,45.382 59.25,48.055 59.25,53.662 48.517,53.662 45.844,53.662 
		34.529,53.662 34.529,48.055 34.529,45.382 34.529,41.081 41.202,41.081 	"/>
	<polygon fill="#FFFFFF" points="57.803,23.294 57.803,25.806 53.582,25.806 53.582,18.651 51.05,18.651 51.05,13.004 
		62.325,13.004 62.325,23.294 	"/>
	<polygon fill="#FFFFFF" points="66.506,40.317 66.506,44.377 63.993,44.377 60.255,44.377 60.255,40.076 46.427,40.076 
		46.427,35.855 46.427,28.941 53.582,28.941 57.803,28.941 66.506,28.941 66.506,37.644 	"/>
	<polygon fill="#FFFFFF" points="48.94,19.656 50.045,19.656 52.577,19.656 52.577,26.811 52.577,27.936 45.422,27.936 
		45.422,34.85 41.202,34.85 41.202,29.484 37.122,29.484 37.122,26.811 37.122,19.656 	"/>
	<polygon fill="#FFFFFF" points="48.517,59.893 48.517,65.5 52.577,65.5 52.577,68.173 52.577,76.875 45.422,76.875 44.297,76.875 
		37.142,76.875 37.142,68.173 37.142,65.5 45.844,65.5 45.844,59.893 	"/>
	<polygon fill="#FFFFFF" points="44.839,58.888 44.839,64.495 36.137,64.495 33.062,64.495 26.309,64.495 26.309,58.888 
		26.309,54.667 26.309,49.06 30.831,49.06 33.524,49.06 33.524,54.667 44.839,54.667 	"/>
	<polygon fill="#FFFFFF" points="40.197,35.855 40.197,40.076 33.524,40.076 33.524,44.377 30.831,44.377 26.309,44.377 
		26.309,40.819 26.309,40.679 26.289,36.096 26.289,30.489 33.464,30.489 36.117,30.489 40.197,30.489 	"/>
	<polygon fill="#FFFFFF" points="36.137,69.178 36.137,77.88 43.292,77.88 43.292,84.613 30.931,84.613 30.931,73.238 
		33.062,73.238 33.062,69.178 	"/>
	<polygon fill="#FFFFFF" points="36.117,18.651 36.117,25.806 33.464,25.806 33.464,21.746 30.469,21.746 30.469,10.371 
		47.935,10.371 47.935,18.651 	"/>
	<polygon fill="#FFFFFF" points="32.459,22.751 32.459,26.811 32.459,29.484 25.284,29.484 25.284,35.091 24.158,35.091 
		20.098,35.091 20.098,29.484 20.098,22.751 29.464,22.751 	"/>
	<polygon fill="#FFFFFF" points="25.304,48.055 25.304,53.662 24.158,53.662 13.908,53.662 13.908,51.15 13.908,48.477 
		13.908,41.322 24.158,41.322 25.304,41.322 25.304,45.382 29.826,45.382 29.826,48.055 	"/>
	<polygon fill="#FFFFFF" points="32.057,68.173 32.057,72.233 29.926,72.233 19.717,72.233 19.717,65.5 19.717,59.893 
		24.158,59.893 25.304,59.893 25.304,65.5 32.057,65.5 	"/>
	<polygon fill="#FFFFFF" points="23.153,36.096 23.153,40.317 12.903,40.317 12.903,47.472 6.03,47.472 6.03,30.489 19.093,30.489 
		19.093,36.096 	"/>
	<polygon fill="#FFFFFF" points="18.712,58.888 18.712,64.495 9.265,64.495 9.265,52.155 12.903,52.155 12.903,54.667 
		23.153,54.667 23.153,58.888 	"/>
</g>
</svg>
