<?xml version="1.0" encoding="utf-8"?>
<!-- Generator: Adobe Illustrator 26.0.3, SVG Export Plug-In . SVG Version: 6.00 Build 0)  -->
<svg version="1.1" id="Layer_1" xmlns="http://www.w3.org/2000/svg" xmlns:xlink="http://www.w3.org/1999/xlink" x="0px" y="0px"
	 viewBox="0 0 250 250" style="enable-background:new 0 0 250 250;" xml:space="preserve">
<style type="text/css">
	.st0{fill:#FFFFFF;}
</style>
<g id="GUIDE">
</g>
<path class="st0" d="M124.9,151.1V19.7h-16.6v131.4H85.7c-4.5,0-9,0.8-13.2,2.5c-8.2,3.1-14.6,8.4-19.3,15.9
	c-2.2,3.6-3.8,7.5-4.7,11.7c-1.4,6.3-1.2,12.5,0.4,18.7c0.9,3.5,2.3,6.7,4.2,9.8c4.2,6.8,9.8,11.8,17,15.1
	c6.8,3.1,13.8,4.2,21.2,3.2c5.8-0.7,11.1-2.7,16-5.9c6.3-4.1,11-9.7,14.2-16.5c2.3-5.2,3.5-10.6,3.5-16.3v-21.6h87.5v-16.6
	L124.9,151.1L124.9,151.1z M108,192.9c-1.3,7.4-5.2,12.9-11.9,16.4c-3.1,1.7-6.5,2.4-10,2.3c-5.9-0.1-11-2.1-15.3-6.2
	c-3.7-3.6-5.9-8-6.5-13.1c-0.6-5.3,0.5-10.2,3.4-14.7c3.8-5.9,9.2-9.1,16.1-10c0.8-0.1,24.5-0.1,24.5-0.1v20.3
	C108.3,187.8,108.3,191.2,108,192.9z"/>
</svg>
