<?xml version="1.0" encoding="utf-8"?>
<!-- Generator: Adobe Illustrator 26.0.3, SVG Export Plug-In . SVG Version: 6.00 Build 0)  -->
<svg version="1.1" id="Layer_1" xmlns="http://www.w3.org/2000/svg" xmlns:xlink="http://www.w3.org/1999/xlink" x="0px" y="0px"
	 viewBox="0 0 38 38" enable-background="new 0 0 38 38" xml:space="preserve">
<path fill="#FFFFFF" d="M7.9,14.4c0.4,2.8,1.5,6.1,2.4,6.3c0.3,0.1,1.2-0.5,2.5-2.9l0.6-1.1l3.2,2.6l0.1,0.2
	c0.2,0.4,0.7,1.1,1.1,1.1c0,0,0.8-0.1,1.9-2.6l0.4-1l1.2,0.5l2.5-2.8l0.5,1.8c0.5,1.9,1.7,4,2.4,4c0.1,0.1,0.9,0,2.2-3.1l0.5-1.1
	l4.4,2.7l0.1,0.5c0.2,0.7,0.4,1.2,0.5,1.3H38v2.1h-3.4c-0.5,0-0.9-0.1-1.4-0.3c-0.6-0.4-1-1.2-1.3-2.3l-1.6-1
	c-1.1,2.3-2.3,3.4-3.7,3.3c-1.8-0.1-3-2.2-3.7-3.8l-1.1,1.3l-0.7-0.3c-0.45,0.95-0.95,1.68-1.5,2.16c-0.55,0.49-1.15,0.74-1.8,0.74
	c-1.6,0-2.6-1.5-2.9-2.1L14,19.8c-1,1.6-2.4,3.2-4.1,2.9c-2-0.4-3.1-3.4-3.6-5.8c-0.3,2.4-0.7,5-0.7,5.1l-0.2,0.9H0v-2h3.8
	c0.2-1.5,0.6-4.6,0.7-6.3v-1l3.3-0.1L7.9,14.4z"/>
</svg>
