<?xml version="1.0" encoding="utf-8"?>
<!-- Generator: Adobe Illustrator 26.0.3, SVG Export Plug-In . SVG Version: 6.00 Build 0)  -->
<svg version="1.1" id="Layer_1" xmlns="http://www.w3.org/2000/svg" xmlns:xlink="http://www.w3.org/1999/xlink" x="0px" y="0px"
	 viewBox="0 0 250 250" style="enable-background:new 0 0 250 250;" xml:space="preserve">
<style type="text/css">
	.st0{fill:#FFFFFF;}
</style>
<g>
	<path class="st0" d="M208.6,129.5c-19-14.8-44.8-14.3-63.4,0.9v26.3h64.6v-26.3L208.6,129.5z M203.8,150.7h-52.6v-17.3
		c15-11.1,35.3-11.7,50.8-1.2c0.2,0.1,1.3,0.9,1.8,1.2V150.7z"/>
	<path class="st0" d="M46.6,120.3v30.4h52.6v-20l6-3v29H40.6v-39.5c-6.3-3.7-11.8-8.3-16.2-13.8l4.7-3.8c20.9,26.7,66.8,26.7,87.7,0
		l4.7,3.8C104.3,125,71.7,131.6,46.6,120.3z"/>
	<path class="st0" d="M220.9,130.6c-5.4-6.6-12.5-11.8-20.5-15.3c-7.2-3.1-14.9-4.6-22.9-4.6s-15.7,1.6-22.8,4.6
		c-8.1,3.4-15.1,8.7-20.5,15.3l-4.6-3.8c6-7.3,13.8-13.2,22.8-17c7.9-3.4,16.4-5.1,25.2-5.1s17.3,1.7,25.2,5.1
		c8.9,3.8,16.8,9.7,22.8,17L220.9,130.6z"/>
	<path class="st0" d="M220.2,114.7c-7-7.2-16.9-12.6-28-15.1l1.3-5.8c12.2,2.8,23.2,8.8,31,16.8L220.2,114.7z"/>
	<path class="st0" d="M133.3,114.7l-4.3-4.2c8.2-8.4,19.7-14.5,32.6-17.2l1.2,5.9C151.1,101.6,140.6,107.1,133.3,114.7z"/>
	<path class="st0" d="M72.9,111.8c-5.6,0-11.1-0.7-16.4-2.2l1.6-5.8c9.6,2.6,20.1,2.6,29.7,0l1.6,5.8
		C84,111.1,78.5,111.8,72.9,111.8z"/>
</g>
</svg>
