<?xml version="1.0" encoding="utf-8"?>
<!-- Generator: Adobe Illustrator 27.5.0, SVG Export Plug-In . SVG Version: 6.00 Build 0)  -->
<svg version="1.1" id="Layer_1" xmlns="http://www.w3.org/2000/svg" xmlns:xlink="http://www.w3.org/1999/xlink" x="0px" y="0px"
	 viewBox="0 0 250 250" style="enable-background:new 0 0 250 250;" xml:space="preserve">
<style type="text/css">
	.st0{fill:#FFFFFF;}
</style>
<g id="Layer_1_00000083776240306702701600000003470681088290758296_">
	<g id="GUIDE">
	</g>
	<g id="PLOT">
	</g>
</g>
<g id="A_COLUMNS_00000011008482445202241150000005310721814584585098_">
	<path class="st0" d="M235.7,81.4v46.9c-64,52.6-156.1,53.8-221.3,2.9v-20c27.6,32.4,67.1,58.2,110.8,57.2
		C175.8,166.2,211.8,122.2,235.7,81.4z"/>
</g>
<g id="A_COLUMNS_00000014630935252965424370000016071160903627274412_">
	<g>
		<path class="st0" d="M235.2,78.3v50.4l-0.4,0.3c-30.7,25.3-69.6,39.5-109.4,40c-0.8,0-1.5,0-2.3,0c-39,0-77.3-13.1-108-37.1
			l-0.4-0.3v-22.9l1.7,2c28.1,33,63.2,52.9,97.6,55.8c4.7,0.2,9.3,0.3,14,0.2c38.5-3,73.9-31.7,105.3-85.2L235.2,78.3z"/>
	</g>
</g>
</svg>
