<?xml version="1.0" encoding="utf-8"?>
<!-- Generator: Adobe Illustrator 26.0.3, SVG Export Plug-In . SVG Version: 6.00 Build 0)  -->
<svg version="1.1" id="Layer_1" xmlns="http://www.w3.org/2000/svg" xmlns:xlink="http://www.w3.org/1999/xlink" x="0px" y="0px"
	 viewBox="0 0 250 250" style="enable-background:new 0 0 250 250;" xml:space="preserve">
<style type="text/css">
	.st0{fill:#FFFFFF;}
</style>
<g>
	<path class="st0" d="M153.1,175.9H96.6c-2.3,0-4.1-1.8-4.1-4.1V78.5c0-2.3,1.8-4.1,4.1-4.1h56.5c2.3,0,4.1,1.8,4.1,4.1v93.3
		C157.3,174,155.4,175.9,153.1,175.9z"/>
	<path class="st0" d="M213.5,66.3c0.1,4.7-0.7,9-2,13.2c-4.4-9.3-10.1-18-17.2-25.8c-5.6-6.1-11.8-11.4-18.5-15.8
		c3.3,0.2,6.5,0.4,9.8,1c6.8,1.2,14,3.7,19.4,8.3C210.6,52.1,213.3,59,213.5,66.3z"/>
	<path class="st0" d="M221.5,125c0,15.9-3.4,31.4-10,45.6c-0.8-2.6-1.7-5.2-2.7-7.8c-2.5-6.6-4.8-13.1-6-20.1
		c-1-5.9-1.6-11.7-1.6-17.7c0-6,0.6-11.8,1.6-17.7c1.2-7,3.5-13.5,6-20.1c1-2.6,1.9-5.2,2.7-7.8C218.1,93.6,221.5,109.1,221.5,125z"
		/>
	<path class="st0" d="M211.5,170.6c1.3,4.2,2.1,8.5,2,13.2c-0.2,7.3-2.9,14.2-8.6,19.1c-5.4,4.6-12.6,7.1-19.4,8.3
		c-3.3,0.6-6.5,0.8-9.8,1c6.7-4.4,13-9.7,18.5-15.8C201.4,188.6,207.1,179.9,211.5,170.6z"/>
	<path class="st0" d="M164.1,212.5c3.9-0.1,7.7-0.1,11.6-0.3c-14.9,9.8-32.3,15.3-50.7,15.3s-35.8-5.5-50.7-15.3
		c3.9,0.2,7.7,0.2,11.6,0.3c13.1,0.4,26,2.7,39.1,2.7C138.1,215.2,151,212.9,164.1,212.5z"/>
	<path class="st0" d="M74.3,212.2c-3.3-0.1-6.5-0.4-9.8-1c-6.8-1.2-14-3.7-19.4-8.3c-5.7-4.9-8.3-11.8-8.5-19.1
		c-0.1-4.7,0.7-9,2-13.2c4.4,9.3,10.1,18,17.2,25.8C61.3,202.4,67.6,207.7,74.3,212.2z"/>
	<path class="st0" d="M47.2,107.3c1,5.9,1.6,11.7,1.6,17.7c0,6-0.6,11.8-1.6,17.7c-1.2,7-3.5,13.5-6,20.1c-1,2.6-1.9,5.2-2.7,7.8
		c-6.6-14.1-10-29.7-10-45.6s3.4-31.4,10-45.6c0.8,2.6,1.7,5.2,2.7,7.8C43.7,93.8,46,100.3,47.2,107.3z"/>
	<path class="st0" d="M64.5,38.8c3.2-0.6,6.5-0.8,9.7-1c-6.7,4.4-13,9.7-18.5,15.8c-7.1,7.8-12.9,16.5-17.2,25.8
		c-1.3-4.2-2.1-8.5-2-13.2c0.2-7.3,2.9-14.2,8.6-19.1C50.5,42.5,57.8,40,64.5,38.8z"/>
	<path class="st0" d="M175.7,37.8c-3.9-0.2-7.7-0.2-11.6-0.3c-13.1-0.4-26-2.7-39.1-2.7c-13.1,0-26,2.3-39.1,2.7
		c-3.9,0.1-7.8,0.1-11.6,0.3c14.9-9.8,32.3-15.3,50.7-15.3S160.8,28.1,175.7,37.8z"/>
</g>
</svg>
