<?xml version="1.0" encoding="utf-8"?>
<!-- Generator: Adobe Illustrator 26.0.3, SVG Export Plug-In . SVG Version: 6.00 Build 0)  -->
<svg version="1.1" id="Layer_1" xmlns="http://www.w3.org/2000/svg" xmlns:xlink="http://www.w3.org/1999/xlink" x="0px" y="0px"
	 viewBox="0 0 250 250" style="enable-background:new 0 0 250 250;" xml:space="preserve">
<style type="text/css">
	.st0{fill:none;stroke:#000000;stroke-width:2;stroke-linecap:square;stroke-miterlimit:10;}
	.st1{fill:#FFFFFF;}
</style>
<g id="Layer_1_00000047762156629381085280000005901163189965111991_">
	<g id="Layer_1_00000120547399326104640310000009374560193686937737_">
		<line class="st0" x1="336.4" y1="376.9" x2="336.4" y2="376.9"/>
	</g>
</g>
<g id="GUIDE_00000042696110133596049430000017573033232205487805_">
	<g>
		<path class="st1" d="M239.8,115.3v36.5c0,0.8-0.7,1.5-1.5,1.5h-7.5c-0.8,0-1.5-0.7-1.5-1.5v-36.5c0-0.8,0.7-1.5,1.5-1.5h7.5
			C239.2,113.8,239.8,114.5,239.8,115.3z"/>
		<path class="st1" d="M228.5,115.3v36.5c0,0.8-0.7,1.5-1.5,1.5h-7.5c-0.8,0-1.5-0.7-1.5-1.5v-36.5c0-0.8,0.7-1.5,1.5-1.5h7.5
			C227.8,113.8,228.5,114.5,228.5,115.3z"/>
		<path class="st1" d="M227,111.2c0.9,0,1.5,0.4,1.5,0.8s-0.6,0.8-1.5,0.8h-7.5c-0.9,0-1.5-0.4-1.5-0.8s0.6-0.8,1.5-0.8H227z"/>
		<path class="st1" d="M217.1,115.3v36.5c0,0.8-0.7,1.5-1.5,1.5h-7.5c-0.8,0-1.5-0.7-1.5-1.5v-36.5c0-0.8,0.7-1.5,1.5-1.5h7.5
			C216.4,113.8,217.1,114.5,217.1,115.3z"/>
		<path class="st1" d="M215.6,112.9h-7.5c-0.8,0-1.5-0.7-1.5-1.5v-0.2c0-0.8,0.7-1.5,1.5-1.5h7.5c0.8,0,1.5,0.7,1.5,1.5v0.2
			C217.1,112.2,216.4,112.9,215.6,112.9z"/>
		<path class="st1" d="M205.7,115.3v36.5c0,0.8-0.7,1.5-1.5,1.5h-7.5c-0.8,0-1.5-0.7-1.5-1.5v-36.5c0-0.8,0.7-1.5,1.5-1.5h7.5
			C205.1,113.8,205.7,114.5,205.7,115.3z"/>
		<path class="st1" d="M204.2,108.1c0.8,0,1.5,0.7,1.5,1.5v1.6v0.2c0,0.8-0.7,1.5-1.5,1.5h-7.5c-0.8,0-1.5-0.7-1.5-1.5v-1.8
			c0-0.8,0.7-1.5,1.5-1.5C196.7,108.1,204.2,108.1,204.2,108.1z"/>
		<path class="st1" d="M194.4,115.3v36.5c0,0.8-0.7,1.5-1.5,1.5h-7.5c-0.8,0-1.5-0.7-1.5-1.5v-36.5c0-0.8,0.7-1.5,1.5-1.5h7.5
			C193.7,113.8,194.4,114.5,194.4,115.3z"/>
		<path class="st1" d="M194.4,109.6v1.8c0,0.8-0.7,1.5-1.5,1.5h-7.5c-0.8,0-1.5-0.7-1.5-1.5v-3.8c0-0.8,0.7-1.5,1.5-1.5h7.5
			c0.8,0,1.5,0.7,1.5,1.5V109.6z"/>
		<path class="st1" d="M183,115.3v36.5c0,0.8-0.7,1.5-1.5,1.5H174c-0.8,0-1.5-0.7-1.5-1.5v-36.5c0-0.8,0.7-1.5,1.5-1.5h7.5
			C182.3,113.8,183,114.5,183,115.3z"/>
		<path class="st1" d="M183,107.6v3.8c0,0.8-0.7,1.5-1.5,1.5H174c-0.8,0-1.5-0.7-1.5-1.5v-5.7c0-0.8,0.7-1.5,1.5-1.5h7.5
			c0.8,0,1.5,0.7,1.5,1.5V107.6z"/>
		<path class="st1" d="M171.6,115.3v36.5c0,0.8-0.7,1.5-1.5,1.5h-7.5c-0.8,0-1.5-0.7-1.5-1.5v-36.5c0-0.8,0.7-1.5,1.5-1.5h7.5
			C171,113.8,171.6,114.5,171.6,115.3z"/>
		<path class="st1" d="M171.6,105.7v5.7c0,0.8-0.7,1.5-1.5,1.5h-7.5c-0.8,0-1.5-0.7-1.5-1.5v-7.5c0-0.8,0.7-1.5,1.5-1.5h7.5
			c0.8,0,1.5,0.7,1.5,1.5V105.7z"/>
		<path class="st1" d="M160.3,115.3v36.5c0,0.8-0.7,1.5-1.5,1.5h-7.5c-0.8,0-1.5-0.7-1.5-1.5v-36.5c0-0.8,0.7-1.5,1.5-1.5h7.5
			C159.6,113.8,160.3,114.5,160.3,115.3z"/>
		<path class="st1" d="M160.3,103.9v7.5c0,0.8-0.7,1.5-1.5,1.5h-7.5c-0.8,0-1.5-0.7-1.5-1.5V102c0-0.8,0.7-1.5,1.5-1.5h7.5
			c0.8,0,1.5,0.7,1.5,1.5V103.9z"/>
		<path class="st1" d="M148.9,115.3v36.5c0,0.8-0.7,1.5-1.5,1.5H97.9c-0.8,0-1.5-0.7-1.5-1.5v-36.5c0-0.8,0.7-1.5,1.5-1.5h49.5
			C148.2,113.8,148.9,114.5,148.9,115.3z"/>
		<path class="st1" d="M147.3,107.8H97.9v-7.9c12.7-4.1,36.8-4.1,49.5,0L147.3,107.8z"/>
		<path class="st1" d="M95.5,115.3v36.5c0,0.8-0.7,1.5-1.5,1.5h-7.5c-0.8,0-1.5-0.7-1.5-1.5v-36.5c0-0.8,0.7-1.5,1.5-1.5H94
			C94.8,113.8,95.5,114.5,95.5,115.3z"/>
		<path class="st1" d="M95.5,102v9.4c0,0.8-0.7,1.5-1.5,1.5h-7.5c-0.8,0-1.5-0.7-1.5-1.5V102c0-0.8,0.7-1.5,1.5-1.5H94
			C94.8,100.5,95.5,101.2,95.5,102z"/>
		<path class="st1" d="M84.1,115.3v36.5c0,0.8-0.7,1.5-1.5,1.5h-7.5c-0.8,0-1.5-0.7-1.5-1.5v-36.5c0-0.8,0.7-1.5,1.5-1.5h7.5
			C83.4,113.8,84.1,114.5,84.1,115.3z"/>
		<path class="st1" d="M84.1,104.4v7c0,0.8-0.7,1.5-1.5,1.5h-7.5c-0.8,0-1.5-0.7-1.5-1.5v-5.2v-1.8c0-0.8,0.7-1.5,1.5-1.5h7.5
			C83.4,102.9,84.1,103.5,84.1,104.4z"/>
		<path class="st1" d="M72.8,115.3v36.5c0,0.8-0.7,1.5-1.5,1.5H57.2c-0.8,0-1.5-0.7-1.5-1.5v-36.5c0-0.8,0.7-1.5,1.5-1.5h14.1
			C72.1,113.8,72.8,114.5,72.8,115.3z"/>
		<path class="st1" d="M72.8,106.2v5.2c0,0.8-0.7,1.5-1.5,1.5H57.2c-0.8,0-1.5-0.7-1.5-1.5v-3.1v-2.1c0-0.8,0.7-1.5,1.5-1.5h14.1
			C72.1,104.7,72.8,105.4,72.8,106.2z"/>
		<path class="st1" d="M54.8,115.3v36.5c0,0.8-0.7,1.5-1.5,1.5h-7.5c-0.8,0-1.5-0.7-1.5-1.5v-36.5c0-0.8,0.7-1.5,1.5-1.5h7.5
			C54.1,113.8,54.8,114.5,54.8,115.3z"/>
		<path class="st1" d="M54.8,108.3v3.1c0,0.8-0.7,1.5-1.5,1.5h-7.5c-0.8,0-1.5-0.7-1.5-1.5v-0.8v-2.3c0-0.8,0.7-1.5,1.5-1.5h7.5
			C54.1,106.8,54.8,107.5,54.8,108.3z"/>
		<path class="st1" d="M43.4,115.3v36.5c0,0.8-0.7,1.5-1.5,1.5h-7.5c-0.8,0-1.5-0.7-1.5-1.5v-36.5c0-0.8,0.7-1.5,1.5-1.5h7.5
			C42.7,113.8,43.4,114.5,43.4,115.3z"/>
		<path class="st1" d="M41.9,109.1c0.8,0,1.5,0.7,1.5,1.5v0.8c0,0.8-0.7,1.5-1.5,1.5h-7.5c-0.8,0-1.5-0.7-1.5-1.5v-0.8
			c0-0.8,0.7-1.5,1.5-1.5H41.9z"/>
		<path class="st1" d="M32,115.3v36.5c0,0.8-0.7,1.5-1.5,1.5H23c-0.8,0-1.5-0.7-1.5-1.5v-36.5c0-0.8,0.7-1.5,1.5-1.5h7.5
			C31.4,113.8,32,114.5,32,115.3z"/>
		<path class="st1" d="M30.5,111.2c0.9,0,1.5,0.4,1.5,0.8s-0.6,0.8-1.5,0.8H23c-0.9,0-1.5-0.4-1.5-0.8s0.6-0.8,1.5-0.8H30.5z"/>
		<path class="st1" d="M20.7,115.3v36.5c0,0.8-0.7,1.5-1.5,1.5h-7.5c-0.8,0-1.5-0.7-1.5-1.5v-36.5c0-0.8,0.7-1.5,1.5-1.5h7.5
			C20,113.8,20.7,114.5,20.7,115.3z"/>
	</g>
</g>
</svg>
