<?xml version="1.0" encoding="utf-8"?>
<!-- Generator: Adobe Illustrator 26.0.3, SVG Export Plug-In . SVG Version: 6.00 Build 0)  -->
<svg version="1.1" xmlns="http://www.w3.org/2000/svg" xmlns:xlink="http://www.w3.org/1999/xlink" x="0px" y="0px"
	 viewBox="0 0 95 95" enable-background="new 0 0 95 95" xml:space="preserve">
<g id="Layer_1">
</g>
<g id="Layer_2">
	<path fill="#FFFFFF" d="M47.5,5.78c-23,0-41.72,18.72-41.72,41.72S24.5,89.22,47.5,89.22S89.22,70.5,89.22,47.5
		S70.5,5.78,47.5,5.78z M69.47,51.93c2.23,0.47,4.04,1.59,5.56,3.27c0.74,0.85,1.28,1.83,1.89,2.77c0.71,1.07,1.54,2.03,2.64,2.74
		c1.95,1.25,3.94,1.22,5.94,0.13c0.13-0.07,0.27-0.16,0.4-0.23c0.01-0.01,0.04,0,0.09-0.01c0.02,0.16-0.02,0.3-0.08,0.45
		c-0.04,0.11-0.09,0.21-0.14,0.32c-0.62,1.4-1.67,2.4-3.08,3.01c-1.82,0.82-3.68,0.89-5.59,0.27c-0.85-0.28-1.61-0.74-2.26-1.37
		c-2.23-2.13-4.88-3.51-7.88-4.21c-0.51-0.12-1.04-0.21-1.56-0.28c-0.11-0.01-0.27-0.07-0.34,0.01c-0.09,0.13,0.06,0.22,0.12,0.32
		c1.17,1.8,2.34,3.58,3.51,5.37c2.2,3.36,4.38,6.7,6.58,10.06c0.29,0.44,0.59,0.89,0.88,1.34c0.07,0.1,0.12,0.21,0.22,0.35
		c-0.22-0.02-0.32-0.12-0.44-0.19c-4.76-3.13-9.52-6.25-14.29-9.36c-0.23-0.16-0.48-0.32-0.71-0.47c-0.56-0.26-1.01-0.73-1.62-0.97
		c0.1,0.07,0.07,0.18,0.13,0.24c1.21,1.54,1.86,3.28,2.05,5.21c0.12,1.22,0.01,2.41-0.27,3.59c-0.29,1.21-0.58,2.43-0.56,3.69
		c0.03,1.22,0.26,2.38,0.94,3.4c0.03,0.06,0.06,0.12,0.09,0.19c0.42,0.63,1,1.13,1.65,1.53c0.64,0.39,1.36,0.63,2.14,0.82
		c-0.22,0.22-0.46,0.29-0.68,0.39c-1.72,0.67-3.39,0.5-5.02-0.29c-1.59-0.78-2.79-1.99-3.56-3.61c-0.39-0.85-0.56-1.73-0.59-2.65
		c-0.08-3.51-1.28-6.63-3.32-9.45c-0.12-0.17-0.24-0.45-0.45-0.41c-0.14,0.02-0.12,0.34-0.17,0.52c-0.41,2-0.82,4-1.23,5.99
		c-0.42,2.02-0.85,4.02-1.27,6.03c-0.33,1.58-0.65,3.16-0.96,4.74c-0.19,0.88-0.38,1.76-0.57,2.65c-0.02,0.09-0.02,0.22-0.19,0.28
		c-1.39-6.68-2.77-13.34-4.16-20.01c-0.12,0.55-0.2,1.1-0.33,1.64c-0.51,2.07-1.6,3.78-3.19,5.19c-0.81,0.73-1.77,1.25-2.67,1.85
		c-1.35,0.88-2.54,1.93-3.25,3.42c-0.81,1.71-0.68,3.38,0.17,5.04c0.08,0.13,0.15,0.27,0.22,0.4c0.05,0.07,0.16,0.17,0.1,0.26
		c-0.07,0.1-0.21,0-0.3-0.03c-0.99-0.35-1.85-0.92-2.52-1.74c-1.28-1.59-1.74-3.41-1.56-5.42c0.15-1.59,0.77-2.94,1.87-4.1
		c2.24-2.37,3.57-5.19,4.21-8.36c0.06-0.32,0.11-0.65,0.14-0.98c0.02-0.1,0.07-0.24-0.02-0.32c-0.11-0.07-0.2,0.07-0.28,0.13
		c-1.25,0.8-2.48,1.62-3.72,2.43c-2.46,1.61-4.92,3.22-7.39,4.83c-1.86,1.22-3.73,2.45-5.61,3.67c-0.12,0.09-0.23,0.19-0.5,0.25
		c3.77-5.75,7.48-11.43,11.2-17.09c-0.14-0.1-0.19,0.02-0.24,0.06c-2.2,1.75-4.7,2.41-7.47,2.14c-0.85-0.09-1.68-0.32-2.51-0.5
		c-1.64-0.36-3.26-0.49-4.89,0.06c-1.3,0.44-2.28,1.28-2.96,2.46c-0.31,0.54-0.51,1.11-0.66,1.71c-0.03,0.09,0.01,0.21-0.1,0.23
		c-0.06,0.02-0.1-0.02-0.12-0.07c-0.03-0.04-0.05-0.09-0.06-0.13c-0.43-0.85-0.64-1.75-0.59-2.7c0.15-3.2,2.53-6.02,5.65-6.73
		c0.61-0.14,1.25-0.13,1.87-0.17c2.72-0.16,5.24-1.02,7.57-2.41c0.57-0.35,1.11-0.72,1.62-1.14c0.06-0.05,0.17-0.1,0.15-0.19
		c-0.03-0.11-0.15-0.08-0.24-0.09c-1.79-0.39-3.6-0.77-5.4-1.15c-1.78-0.37-3.57-0.73-5.35-1.1c-1.6-0.34-3.2-0.68-4.79-1.01
		C10,48.16,8.65,47.88,7.29,47.6c-0.13-0.02-0.36,0-0.36-0.15c-0.02-0.18,0.22-0.09,0.34-0.13c2.62-0.55,5.23-1.1,7.86-1.65
		c2.56-0.55,5.12-1.07,7.7-1.61c1.35-0.28,2.7-0.56,4.05-0.87c-0.34-0.09-0.7-0.11-1.04-0.18c-2.6-0.46-4.65-1.82-6.26-3.88
		c-0.64-0.82-1.1-1.77-1.72-2.61c-0.74-1-1.59-1.91-2.7-2.53c-1.9-1.07-3.79-0.94-5.66,0.12c-0.12,0.06-0.23,0.14-0.34,0.2
		c-0.03,0.01-0.05,0.01-0.11,0.02c0-0.08,0.01-0.17,0.04-0.25c0.04-0.25,0.17-0.48,0.28-0.69c0.74-1.53,1.96-2.52,3.56-3.08
		c1.97-0.69,3.89-0.61,5.8,0.26c0.62,0.3,1.14,0.72,1.65,1.2c2.17,2.05,4.74,3.34,7.64,4.05c0.56,0.15,1.13,0.25,1.72,0.31
		c0.09,0,0.23,0.06,0.29-0.05c0.06-0.1-0.05-0.18-0.11-0.26c-1.47-2.24-2.93-4.48-4.39-6.72c-1.91-2.92-3.82-5.84-5.73-8.75
		c-0.29-0.45-0.6-0.91-0.89-1.36c-0.05-0.07-0.17-0.16-0.08-0.24c0.08-0.1,0.17,0.01,0.24,0.07c2.34,1.53,4.69,3.06,7.02,4.6
		c2.6,1.69,5.18,3.38,7.77,5.08c0.65,0.41,1.3,0.85,1.99,1.31c0-0.19-0.08-0.25-0.15-0.33c-1.79-2.31-2.41-4.92-2.02-7.81
		c0.14-1.08,0.51-2.12,0.65-3.19c0.19-1.61,0.15-3.19-0.65-4.65c-0.83-1.5-2.15-2.34-3.77-2.76c-0.09-0.02-0.23,0.01-0.25-0.1
		c-0.01-0.12,0.13-0.15,0.23-0.2c1.49-0.72,3.04-0.76,4.58-0.21c2.05,0.73,3.54,2.1,4.44,4.1c0.35,0.77,0.47,1.59,0.5,2.44
		c0.13,3.61,1.32,6.84,3.52,9.72c0.07,0.08,0.12,0.25,0.26,0.22c0.13-0.03,0.12-0.21,0.14-0.33c0.34-1.63,0.67-3.25,1.02-4.87
		c0.28-1.38,0.56-2.75,0.84-4.13c0.24-1.17,0.5-2.34,0.74-3.51c0.25-1.13,0.48-2.25,0.71-3.38c0.22-1.23,0.5-2.43,0.74-3.64
		c0.03-0.11-0.02-0.29,0.15-0.28c0.13,0,0.12,0.16,0.13,0.27c0.02,0.02,0.03,0.06,0.04,0.08c0.2,0.95,0.39,1.89,0.59,2.85
		c0.28,1.35,0.57,2.72,0.85,4.08c0.25,1.16,0.48,2.32,0.72,3.48c0.33,1.6,0.67,3.2,1,4.8c0.28,1.32,0.54,2.65,0.82,3.96
		c0.01,0.09,0.06,0.16,0.11,0.3c0.16-0.43,0.15-0.84,0.23-1.23c0.49-2.32,1.71-4.2,3.5-5.73c0.83-0.71,1.8-1.18,2.68-1.79
		c1.23-0.86,2.3-1.85,2.98-3.21c0.74-1.54,0.72-3.09,0.06-4.65c-0.16-0.38-0.38-0.73-0.63-1.15c0.19,0.01,0.36,0.06,0.52,0.11
		c0.16,0.06,0.3,0.12,0.44,0.2c1.56,0.74,2.57,1.97,3.11,3.57c0.74,2.14,0.63,4.24-0.5,6.24c-0.21,0.36-0.48,0.71-0.77,1.01
		c-1.92,1.98-3.22,4.3-3.99,6.92c-0.26,0.88-0.45,1.77-0.55,2.67c-0.01,0.09-0.09,0.21,0.04,0.27c0.08,0.04,0.15-0.03,0.24-0.08
		c1.84-1.22,3.7-2.43,5.55-3.65c2.94-1.93,5.9-3.86,8.84-5.79c0.85-0.56,1.71-1.12,2.56-1.68c0.06-0.05,0.11-0.1,0.25-0.04
		c-3.26,4.99-6.52,9.97-9.78,14.94c-0.34,0.65-0.83,1.21-1.18,1.94c0.55-0.26,0.91-0.67,1.41-0.85c0.9-0.49,1.86-0.85,2.86-1.05
		c1.44-0.3,2.89-0.28,4.32,0.02c1.4,0.29,2.77,0.68,4.22,0.64c2.31-0.09,4.11-1.01,5.2-3.12c0.22-0.42,0.39-0.88,0.5-1.35
		c0.02-0.11,0.04-0.25,0.16-0.36c0.1,0.15,0.17,0.31,0.24,0.47c0.22,0.47,0.36,0.96,0.43,1.48c0.24,1.83-0.28,3.46-1.37,4.91
		c-0.97,1.33-2.24,2.26-3.84,2.75c-0.76,0.22-1.55,0.18-2.32,0.24c-3.38,0.26-6.4,1.47-9.08,3.52c-0.07,0.05-0.2,0.11-0.18,0.21
		c0.02,0.12,0.16,0.11,0.25,0.13c1.77,0.37,3.54,0.72,5.31,1.1c1.38,0.28,2.76,0.58,4.13,0.87c1.77,0.36,3.55,0.73,5.32,1.09
		c1.38,0.28,2.74,0.58,4.12,0.87c0.37,0.07,0.74,0.16,1.11,0.23v0.12c-6.62,1.38-13.26,2.77-19.9,4.15
		C68.67,51.88,69.08,51.85,69.47,51.93z"/>
</g>
</svg>
