<?xml version="1.0" encoding="utf-8"?>
<!-- Generator: Adobe Illustrator 26.0.3, SVG Export Plug-In . SVG Version: 6.00 Build 0)  -->
<svg version="1.1" id="Layer_1" xmlns="http://www.w3.org/2000/svg" xmlns:xlink="http://www.w3.org/1999/xlink" x="0px" y="0px"
	 viewBox="0 0 250 250" style="enable-background:new 0 0 250 250;" xml:space="preserve">
<style type="text/css">
	.st0{fill:none;stroke:#000000;stroke-width:2;stroke-linecap:square;stroke-miterlimit:10;}
	.st1{fill:#FFFFFF;}
</style>
<line class="st0" x1="-61.4" y1="-615.9" x2="-61.4" y2="-615.9"/>
<g>
	<polygon class="st1" points="156.3,150.7 156.3,152.4 153.4,154.3 151.5,153.1 153.9,151.6 111.7,125.1 113.7,123.8 	"/>
	<polygon class="st1" points="153.4,154.3 151.5,155.5 149.1,157 147.2,158.2 144.9,159.7 142.9,160.9 140.6,162.4 138.7,163.6 
		136.7,162.4 138.7,161.2 141,159.7 142.9,158.5 145.3,157 147.2,155.8 149.6,154.3 151.5,153.1 	"/>
	<polygon class="st1" points="151.2,76.8 151.2,78.5 148.4,80.4 146.4,79.2 148.7,77.7 116.3,57 118.1,55.7 118.2,55.7 	"/>
	<polygon class="st1" points="148.4,80.4 146.4,81.7 144.2,83.1 142.3,84.3 139.9,85.9 138,87 135.7,88.5 133.9,89.8 131.9,88.6 
		133.9,87.3 136.1,85.9 138,84.6 140.3,83.1 142.2,81.9 144.5,80.4 146.4,79.2 	"/>
	<polygon class="st1" points="93.7,213.1 91.4,214.6 118.4,233.2 118.9,233.4 117.7,235.2 114.7,233.2 88.9,215.4 89,213.7 
		91.9,211.9 93.7,210.7 96.1,209.2 98.1,208 100.5,206.5 102.4,205.3 104.9,203.8 106.8,202.6 153.9,173.1 151.5,171.6 149.6,170.4 
		149.6,170.4 147.3,169 145.3,167.8 142.9,166.2 141,165.1 138.7,163.6 136.7,162.4 94,135.5 94,133.8 96.8,132 96.9,132 
		98.8,130.8 101.1,129.3 101.2,129.3 103.1,128.1 105.5,126.5 107.4,125.3 109.8,123.9 111.7,122.6 148.7,99.3 146.4,97.8 
		144.5,96.6 142.2,95.1 142.1,95.1 140.2,93.8 137.9,92.4 136,91.2 133.9,89.8 131.9,88.6 99.2,67.6 99.2,65.9 102,64 103.9,62.8 
		106.1,61.2 108,60 110.3,58.5 112.2,57.2 114.3,55.7 116.2,54.5 143.3,36.4 144.4,38.1 118.2,55.7 118.1,55.7 116.3,57 116.2,57 
		114,58.4 112.2,59.7 109.9,61.2 109.9,61.2 108,62.5 105.7,64 103.9,65.3 101.6,66.7 133.9,87.3 135.7,88.5 137.9,89.9 139.9,91.2 
		142.2,92.6 144.1,93.9 146.4,95.3 148.3,96.5 151.2,98.4 151.2,100.2 113.7,123.8 111.7,125.1 109.4,126.6 107.5,127.8 105,129.3 
		103.2,130.5 100.8,132 98.8,133.2 96.5,134.7 138.7,161.2 140.6,162.4 142.9,163.9 144.8,165.1 147.2,166.6 149.1,167.8 
		151.5,169.2 153.4,170.4 156.3,172.3 156.3,174.1 108.7,203.8 106.8,205 104.3,206.5 102.4,207.7 99.9,209.2 98,210.5 95.6,211.9 	
		"/>
	<polygon class="st1" points="156.3,156.1 156.3,157.9 153.4,159.7 151.5,160.9 151.4,160.9 149.1,162.3 147.2,163.6 144.8,165.1 
		142.9,166.2 95.8,195.7 93.9,196.8 93.8,196.8 91.4,198.3 93.9,199.9 95.8,201.1 98.1,202.6 98.1,202.6 100,203.8 102.4,205.3 
		104.3,206.5 146.4,233.2 146.5,233.2 145.4,235 142.6,233.2 102.4,207.7 100.5,206.5 98.1,205 98.1,205 96.2,203.8 93.8,202.3 
		91.9,201.1 89,199.2 89,197.5 91.9,195.7 92,195.7 93.9,194.5 141,165.1 142.9,163.9 145.2,162.3 147.2,161.1 149.6,159.7 
		151.4,158.5 153.9,157 151.5,155.5 149.6,154.3 107.5,127.8 105.5,126.5 103.2,125.1 101.3,123.9 98.9,122.4 96.9,121.2 94,119.3 
		94,117.6 96.9,115.8 98.8,114.6 136,91.2 137.9,89.9 140.3,88.5 142.2,87.3 144.5,85.8 146.5,84.5 148.7,83.1 146.4,81.7 
		144.5,80.4 112.2,59.7 110.3,58.5 108,57 106.2,55.9 103.9,54.4 102,53.2 99.2,51.4 99.2,49.6 101.9,47.8 103.8,46.6 143.3,20.2 
		144.4,21.9 105.7,47.8 103.8,49 101.6,50.5 103.9,51.9 105.8,53.1 108,54.6 109.9,55.8 112.2,57.2 114,58.4 146.4,79.2 148.4,80.4 
		151.2,82.2 151.2,84 148.4,85.8 146.4,87 144.1,88.5 142.2,89.7 139.9,91.2 137.9,92.4 100.8,115.8 98.8,117 96.5,118.5 98.8,120 
		100.9,121.2 103.2,122.7 105.1,123.9 107.4,125.3 109.4,126.6 151.5,153.1 153.4,154.3 	"/>
	<polygon class="st1" points="136.1,235 89,204.7 89,202.9 153.9,162.4 94,124.8 94,123.1 148.7,88.4 99.2,56.8 99.1,55.1 
		143.2,25.5 144.4,27.2 101.6,55.9 151.2,87.6 151.2,89.3 96.5,123.9 156.3,161.5 156.3,163.3 91.4,203.8 137.3,233.3 	"/>
	<polygon class="st1" points="126.7,235 88.9,210 89,208.3 153.9,167.7 94,130.2 94,128.5 148.7,93.9 99.2,62.3 99.1,60.5 
		143.2,30.9 144.4,32.7 101.6,61.4 151.2,93 151.2,94.7 96.5,129.4 156.3,166.9 156.3,168.6 91.4,209.2 127.8,233.3 	"/>
	<rect x="87.4" y="233.2" class="st1" width="75.2" height="2.1"/>
	<polygon class="st1" points="116.2,54.5 118.1,55.7 116.3,57 116.2,57 114.3,55.7 112.1,54.3 110.2,53.1 108,51.7 106.1,50.5 
		103.8,49 101.9,47.8 99.2,46.1 99.2,44.3 143.2,14.8 144.4,16.5 101.6,45.2 103.8,46.6 105.7,47.8 108,49.2 109.9,50.4 112.1,51.9 
		114,53.1 	"/>
	<polygon class="st1" points="125.6,95.1 96.5,113.1 98.8,114.6 96.9,115.8 94,114 94,112.3 124.4,93.4 131.9,88.6 133.9,89.8 	"/>
	<polygon class="st1" points="113.7,123.8 111.7,125.1 109.8,123.9 107.4,122.4 105.5,121.2 103.2,119.8 101.2,118.5 98.8,117 
		96.9,115.8 98.8,114.6 100.8,115.8 103.2,117.3 105.1,118.5 107.5,120 109.4,121.2 111.7,122.6 	"/>
	<polygon class="st1" points="91.4,193 93.9,194.5 92,195.7 91.9,195.7 89,193.8 89,192.1 136.7,162.4 138.7,163.6 	"/>
	<polygon class="st1" points="155.9,233.2 154.8,235 151.9,233.2 106.8,205 104.9,203.8 102.5,202.2 100.6,201.1 98.2,199.6 
		96.3,198.4 93.9,196.8 93.8,196.8 92,195.7 93.9,194.5 95.8,195.7 98.2,197.2 100.1,198.4 102.5,199.9 104.4,201.1 106.8,202.6 
		108.7,203.8 155.8,233.2 	"/>
</g>
</svg>
