<?xml version="1.0" encoding="utf-8"?>
<!-- Generator: Adobe Illustrator 26.0.3, SVG Export Plug-In . SVG Version: 6.00 Build 0)  -->
<svg version="1.1" id="Layer_1" xmlns="http://www.w3.org/2000/svg" xmlns:xlink="http://www.w3.org/1999/xlink" x="0px" y="0px"
	 viewBox="0 0 38 38" enable-background="new 0 0 38 38" xml:space="preserve">
<path fill="#FFFFFF" d="M30,18.7c2.5-4.8,5-9.3,5-18.7h1.3c0,9.6-2.6,14.6-5.1,19.3c-2.5,4.8-4.9,9.3-4.9,18.7H25
	C25,28.4,27.5,23.4,30,18.7z"/>
<path fill="#FFFFFF" d="M22.5,38c0-9.6,2.4-14.6,4.6-19.3C29.4,14,31.6,9.4,31.4,0h1.5c0,9.6-2.4,14.6-4.6,19.3s-4.4,9.3-4.4,18.7
	H22.5z"/>
<path fill="#FFFFFF" d="M25.3,19.3c-2,4.7-3.9,9.3-3.9,18.7h-1.2c-0.1-9.6,2-14.6,4-19.3s4-9.3,4-18.7h1.1
	C29.3,9.6,27.3,14.6,25.3,19.3z"/>
<path fill="#FFFFFF" d="M21.3,18.8C23.1,14,24.8,9.4,24.8,0h1.3c0,9.5-1.7,14.4-3.5,19.2c-1.8,4.8-3.5,9.4-3.5,18.8h-1.3
	C17.8,28.5,19.5,23.6,21.3,18.8z"/>
<path fill="#FFFFFF" d="M22.7,0c0,9.6-1.5,14.5-3,19.2s-3,9.4-3,18.8h-1.3c0-9.6,1.5-14.5,3-19.2s3-9.4,3-18.8H22.7z"/>
<path fill="#FFFFFF" d="M16.8,19.2c-1.3,4.7-2.5,9.4-2.5,18.8H13c0-9.6,1.3-14.4,2.5-19.2C16.8,14.1,18,9.4,18,0h1.3
	C19.3,9.6,18,14.4,16.8,19.2z"/>
<path fill="#FFFFFF" d="M15.9,0c0,9.5-1,14.4-2,19.1c-1,4.8-2,9.4-2,18.9h-1.3c0-9.5,1-14.3,2-19.1s2-9.4,2-18.9H15.9z"/>
<path fill="#FFFFFF" d="M12.5,0c0,9.5-0.7,14.3-1.5,19.1c-0.8,4.7-1.5,9.4-1.5,18.9H8.2c0-9.5,0.8-14.3,1.5-19.1
	c0.8-4.7,1.5-9.4,1.5-18.9H12.5z"/>
<path fill="#FFFFFF" d="M5.8,38c0-9.5,0.5-14.3,1-19.1c0.5-4.7,1-9.4,1-18.9h1.3c0,9.6-0.5,14.4-1,19.1s-1,9.4-1,18.9H5.8z"/>
<path fill="#FFFFFF" d="M5.7,0c0,19-1,19-1,38H3.4c0-19,1-19,1-38H5.7z"/>
<rect x="1.1" fill="#FFFFFF" width="1.2" height="38"/>
</svg>
