<?xml version="1.0" encoding="utf-8"?>
<!-- Generator: Adobe Illustrator 26.0.3, SVG Export Plug-In . SVG Version: 6.00 Build 0)  -->
<svg version="1.1" id="Layer_1" xmlns="http://www.w3.org/2000/svg" xmlns:xlink="http://www.w3.org/1999/xlink" x="0px" y="0px"
	 viewBox="0 0 173.85 173.85" enable-background="new 0 0 173.85 173.85" xml:space="preserve">
<path fill="#FFFFFF" d="M154.12,57.041c4.01,2.09,6.15,6.36,5.34,10.86c-0.55,3.04-2.05,5.48-4.72,7.1
	c-0.79,0.48-1.7,0.75-2.56,1.11c-0.08,0.04-0.18,0.03-0.27,0.05c0.04-0.59,0.11-1.16,0.11-1.73c-0.01-1.83-0.56-3.54-1.34-5.17
	c-1.24-2.59-2.93-4.83-5.14-6.66c-0.04-0.03-0.07-0.07-0.12-0.12c1.06-2.13,2.34-4.05,4.44-5.29
	C151.25,56.371,152.63,56.261,154.12,57.041z"/>
<path fill="#FFFFFF" d="M151.24,50.701c0.9,0.87,1.7,1.82,2.45,2.92c-0.25-0.03-0.44-0.06-0.63-0.09c-1.96-0.25-3.7,0.35-5.3,1.42
	c-2.02,1.35-3.46,3.22-4.6,5.34c-0.15,0.27-0.29,0.55-0.44,0.85c-4.31-1.15-8.35-0.68-12.08,1.85c-0.24-0.54-0.46-1.04-0.7-1.53
	c-0.88-1.8-2.04-3.39-3.65-4.61c-0.13-0.1-0.22-0.18-0.14-0.38c0.93-2.41,1.9-4.79,3.25-7c0.38-0.62,0.88-1.07,1.52-1.42
	C137.5,44.401,145.81,45.481,151.24,50.701z"/>
<path fill="#FFFFFF" d="M148.68,72.401c0.68,2.1,0.23,4.06-0.7,5.94c-1.85,3.73-5.64,5.6-9.31,5.58c-4.22,0-7.88-2.43-9.45-6.31
	c-0.13-0.32-0.11-0.71-0.1-1.07c0.17-3.07,0.7-6.08,1.61-9.03c0.13-0.42,0.33-0.82,0.51-1.22c0.05-0.1,0.15-0.19,0.24-0.26
	c1.64-1.14,3.36-2.09,5.37-2.37c2.01-0.27,3.98-0.06,5.86,0.67c0.51,0.2,0.95,0.61,1.36,0.99
	C146.23,67.271,147.78,69.631,148.68,72.401z"/>
<path fill="#FFFFFF" d="M131.58,44.381c-0.57,0.27-1.03,0.51-1.51,0.71c-1.67,0.7-2.81,1.94-3.67,3.5
	c-1.08,1.98-1.98,4.04-2.81,6.13c-0.04,0.1-0.08,0.2-0.14,0.33c-2.85-1.38-5.84-1.9-9.06-1.56c1.07-3.22,2.98-5.72,5.8-7.48
	C123.7,43.821,127.47,43.281,131.58,44.381z"/>
<path fill="#FFFFFF" d="M129.55,121.521c0.6,3.63-1.66,6.94-5.32,7.86c-1,0.26-2,0.12-2.98-0.15c-0.19-0.05-0.38-0.22-0.5-0.38
	c-0.5-0.69-0.96-1.4-1.45-2.11c3.39-2.46,6.29-5.26,8.29-8.92C128.62,118.861,129.31,120.081,129.55,121.521z"/>
<path fill="#FFFFFF" d="M127.68,95.971c3.12,4.2,3.42,10.26,0.86,14.71c-0.96-4.75-1.25-5.43-3.88-9.04
	C126.03,99.971,127.04,98.081,127.68,95.971z"/>
<path fill="#FFFFFF" d="M127.92,64.491c0.23,0.69,0.26,1.29,0,2c-0.75,2.05-1.16,4.2-1.44,6.37c-0.19,1.47-0.33,2.95-0.33,4.43
	c0.01,0.67-0.14,1.12-0.63,1.51c-0.65,0.53-1.29,1.07-1.95,1.58c-0.11,0.09-0.31,0.13-0.45,0.1c-2.09-0.4-4.16-0.83-6.24-1.25
	c-0.11-0.02-0.21-0.04-0.34-0.07c0.05-0.54,0.11-1.08,0.15-1.61c0.35-5.71-0.29-11.3-2.03-16.75c-0.43-1.37-1-2.69-1.84-3.93
	c1.75-0.49,3.48-0.6,5.22-0.36c2.59,0.35,4.88,1.37,6.85,3.1C126.38,60.921,127.3,62.611,127.92,64.491z"/>
<path fill="#FFFFFF" d="M121.72,102.911c2.46,2.5,3.87,5.89,3.87,9.37c-0.02,1.24-0.17,2.46-0.53,3.65c-0.31,1-0.91,1.85-1.53,2.67
	c-1.55,2.01-3.37,3.74-5.39,5.26c-0.96,0.71-2.01,1.03-3.16,1.15c-3.25,0.31-6.39-0.12-9.33-1.54c-3.01-1.45-4.87-3.94-5.89-7.1
	c-0.1-0.29-0.14-0.61-0.24-0.9c-0.15-0.41-0.04-0.71,0.22-1.04c1.15-1.44,2.46-2.72,3.82-3.96c3.27-2.98,6.67-5.78,10.33-8.26
	c0.13-0.09,0.27-0.16,0.39-0.26c0.73-0.6,1.53-0.85,2.49-0.63c1.06,0.24,2.14,0.38,3.21,0.58
	C120.68,102.031,121.23,102.411,121.72,102.911z"/>
<path fill="#FFFFFF" d="M122.78,83.671c1.95,2.67,2.79,5.67,2.49,8.97c-0.23,2.47-1.11,4.69-2.61,6.67
	c-0.07,0.09-0.15,0.18-0.23,0.29c-1.57-0.73-3.21-1-4.87-1.21c-0.16-0.02-0.33-0.04-0.5-0.06c-0.76-0.08-0.76-0.08-0.94-0.79
	c-1.06-4.06-2.35-8.04-3.89-11.94c-0.1-0.26-0.07-0.41,0.14-0.61c0.95-0.91,1.88-1.85,2.82-2.77c0.1-0.1,0.3-0.18,0.42-0.16
	c2.27,0.44,4.54,0.9,6.8,1.36C122.55,83.451,122.7,83.551,122.78,83.671z"/>
<path fill="#FFFFFF" d="M119.01,131.361c0.15,0.14,0.31,0.26,0.5,0.41c-1.86,3.39-4.67,5.42-8.53,5.67
	c-4.13,0.28-7.39-1.45-9.56-4.98c-1.72-2.79-1.95-5.79-0.82-8.95c0.26,0.24,0.47,0.43,0.67,0.63c1.74,1.63,3.84,2.55,6.1,3.17
	c2.92,0.8,5.89,1.05,8.89,0.54c0.24-0.04,0.34,0.04,0.44,0.24C117.32,129.291,117.99,130.451,119.01,131.361z"/>
<path fill="#FFFFFF" d="M113.79,74.621c0.03,0,0.06,0,0.09,0.01c-0.15,1.59-0.29,3.19-0.45,4.79c-0.02,0.15-0.09,0.33-0.2,0.44
	c-1.16,1.16-2.34,2.31-3.51,3.45c-0.09,0.09-0.23,0.15-0.35,0.17c-2.59,0.44-5.18,0.84-7.76,1.32c-0.85,0.16-1.35-0.12-1.93-0.72
	c-4.79-4.98-9.82-9.72-15.06-14.23c-1.51-1.31-3.11-2.53-4.67-3.78c-0.16-0.12-0.22-0.24-0.21-0.44c0.07-1.53,0.86-2.74,1.65-3.96
	c0.07-0.11,0.25-0.17,0.39-0.19c1.49-0.26,2.98-0.54,4.47-0.74c4.02-0.52,8.04-1.06,12.07-1.48c3.63-0.39,7.28-0.63,10.92-0.97
	c0.68-0.07,1.07,0.15,1.4,0.74c0.89,1.64,1.44,3.39,1.88,5.19C113.36,67.631,113.74,71.101,113.79,74.621z"/>
<path fill="#FFFFFF" d="M113.27,98.491c0.09,0.36,0.03,0.53-0.29,0.73c-3.15,2-6.04,4.33-8.88,6.74c-2.12,1.81-4.18,3.67-6.02,5.77
	c-0.41,0.46-0.76,0.98-1.16,1.47c-0.08,0.09-0.25,0.19-0.36,0.17c-3.49-0.44-6.6-1.77-9.25-4.14c3.39-2.51,5.65-5.92,7.81-9.4
	c2.3-3.7,4.21-7.61,5.77-11.68c0.08-0.22,0.2-0.28,0.41-0.31c2.45-0.37,4.9-0.74,7.35-1.12c0.24-0.03,0.47-0.09,0.74-0.15
	c0.32,0.84,0.64,1.66,0.94,2.49C111.45,92.161,112.42,95.301,113.27,98.491z"/>
<path fill="#FFFFFF" d="M97.94,86.591c0.2,0.19,0.2,0.34,0.11,0.59c-1,2.58-2.17,5.09-3.47,7.53c-1.7,3.19-3.58,6.27-5.91,9.05
	c-0.76,0.9-1.64,1.7-2.49,2.53c-0.6,0.59-1.37,0.76-2.18,0.8c-0.7,0.04-1.41,0.08-2.12,0.12c-3.27,0.03-6.28-0.9-9.13-2.46
	c-2.94-1.62-5.31-3.83-7.18-6.61c-0.32-0.48-0.43-1.01-0.45-1.57c-0.05-2.45,0.16-4.89,0.52-7.31c0.62-4.09,1.55-8.12,2.8-12.06
	c0.05-0.16,0.11-0.33,0.21-0.46c2.3-3.03,4.95-5.7,8.21-7.71c1.14-0.71,1.15-0.69,2.19,0.13c2.94,2.29,5.73,4.74,8.44,7.29
	c3.05,2.87,6.06,5.8,9.07,8.72C97.04,85.631,97.47,86.131,97.94,86.591z"/>
<path fill="#FFFFFF" d="M98.61,121.021c-0.43,0.82-0.83,1.57-1.25,2.37c-4.09-2.01-7-5.16-8.78-9.51c0.52,0.26,0.95,0.49,1.39,0.69
	c2.05,0.94,4.18,1.59,6.43,1.83c0.11,0.01,0.27,0.13,0.29,0.23C97.12,118.221,97.76,119.721,98.61,121.021z"/>
<path fill="#FFFFFF" d="M63.17,99.971c3.75,5.44,8.92,8.73,15.38,10.02c-3.09,3.99-9.25,6.47-15.34,4.42
	c-6.56-2.21-10.04-8.48-9.59-14.31C56.81,101.341,59.99,101.421,63.17,99.971z"/>
<path fill="#FFFFFF" d="M76.81,63.711c0.08,0.12,0.09,0.3,0.12,0.46c0.01,0.04-0.01,0.09-0.02,0.14c-0.07,0.45-0.02,0.98-0.25,1.32
	c-0.24,0.34-0.76,0.47-1.15,0.7c-2.31,1.33-4.3,3.06-6.14,4.96c-0.83,0.85-1.61,1.74-2.38,2.59c-4.99-2.99-10.25-5.17-16.18-5.56
	c0.08-0.21,0.17-0.46,0.27-0.71c1.18-2.92,2.56-5.73,4.44-8.28c0.1-0.14,0.26-0.27,0.43-0.35c3.01-1.38,6.17-2.24,9.46-2.56
	c1.42-0.13,2.85-0.1,4.27-0.15c0.49-0.02,0.86,0.16,1.21,0.49c1.8,1.7,3.36,3.59,4.87,5.53C76.12,62.761,76.47,63.231,76.81,63.711z
	"/>
<path fill="#FFFFFF" d="M76.68,45.731c0,0.42-0.21,0.61-0.58,0.74c-0.69,0.24-1.35,0.54-2,0.8c-0.63-0.67-1.26-1.35-1.88-2.01
	C73.68,44.901,75.21,45.041,76.68,45.731z"/>
<path fill="#FFFFFF" d="M78.46,59.731c0.3,0.51,0.3,0.5-0.09,1.01c-0.31-0.4-0.62-0.8-0.93-1.19c-1.41-1.77-2.88-3.49-4.54-5.04
	c-0.08-0.07-0.14-0.26-0.1-0.36c0.31-0.88,0.64-1.75,0.98-2.62c0.22-0.56,0.59-0.97,1.14-1.23c0.34-0.16,0.65-0.35,1-0.54
	c0,0.34,0.01,0.62,0,0.91C75.76,53.971,76.84,56.931,78.46,59.731z"/>
<path fill="#FFFFFF" d="M71.53,49.001c0.05,0.05,0.08,0.11,0.13,0.17c-0.75,1.18-1.22,2.47-1.65,3.79c-0.06,0.17-0.1,0.3-0.35,0.3
	c-4.77-0.18-9.35,0.71-13.77,2.45c-0.03,0.02-0.07,0.02-0.13,0.04c-0.21-0.98-0.43-1.95-0.62-2.92c-0.31-1.7-0.6-3.4-0.9-5.1
	c-0.05-0.25,0.03-0.39,0.24-0.53c2.15-1.46,4.53-2.26,7.14-2.32c3.57-0.08,6.67,1.1,9.32,3.49
	C71.15,48.561,71.34,48.791,71.53,49.001z"/>
<path fill="#FFFFFF" d="M64.58,75.951c0.91,0.54,0.91,0.54,0.62,1.53c-1.18,3.97-2.08,8-2.64,12.1c-0.33,2.43-0.52,4.86-0.44,7.32
	c0,0.11-0.12,0.28-0.22,0.33c-1.12,0.52-2.3,0.83-3.47,0.8c-1.81,0.02-3.42-0.5-4.94-1.25c-5.12-2.53-8.14-6.66-9.01-12.29
	c-0.65-4.24,0.46-8.01,3.33-11.23c0.42-0.46,0.83-0.93,1.28-1.36c0.17-0.17,0.43-0.31,0.67-0.36c1.58-0.32,3.12-0.03,4.66,0.31
	C58.03,72.661,61.39,74.101,64.58,75.951z"/>
<path fill="#FFFFFF" d="M53.02,57.331c0.03,0.12,0,0.29-0.07,0.38c-2.51,3.53-4.26,7.43-5.68,11.5c-0.13,0.37-0.46,0.68-0.74,0.98
	c-1.72,1.81-3.17,3.78-4.13,6.1c-0.94,2.3-1.16,4.71-1.04,7.16c0.01,0.31,0.04,0.62,0.07,1.05c-0.89-0.18-1.72-0.31-2.54-0.52
	c-1.98-0.49-3.8-1.33-5.46-2.5c-0.13-0.1-0.2-0.29-0.27-0.45c-0.08-0.21-0.1-0.45-0.2-0.65c-2.44-5.3-5.19-10.45-8.05-15.53
	c-0.85-1.49-1.75-2.95-2.61-4.43c-0.1-0.17-0.15-0.41-0.12-0.6c1.35-7.9,7.44-13.8,15.11-15.26c4.88-0.92,9.44-0.01,13.64,2.64
	c0.13,0.08,0.24,0.27,0.27,0.42c0.44,2.39,0.85,4.79,1.28,7.18C52.64,55.651,52.85,56.481,53.02,57.331z"/>
<path fill="#FFFFFF" d="M29.85,80.781c-3.13,1.67-6.31,1.94-9.49,0.45c-4.1-1.92-6.17-5.26-6.11-9.78c0.06-4.25,2.78-7.54,5.82-8.96
	C23.58,68.441,26.83,74.511,29.85,80.781z"/>
<path fill="#FFFFFF" d="M110.1,49.551c0.23,1.82,0.12,3.64-0.3,5.43c-0.06,0.25-0.17,0.31-0.41,0.32c-2.62,0.19-5.24,0.35-7.85,0.59
	c-2.73,0.26-5.47,0.54-8.19,0.9c-3.94,0.51-7.88,1.1-11.81,1.67c-0.2,0.03-0.32,0.03-0.44-0.17c-0.95-1.63-1.71-3.33-2.03-5.19
	c-0.11-0.65-0.13-1.31-0.18-1.97c0-4.08,1.56-7.52,4.29-10.45c2.48-2.66,5.55-4.26,9.13-4.76c4.9-0.67,9.22,0.68,12.88,4.01
	C108.01,42.511,109.62,45.761,110.1,49.551z"/>
</svg>
