<?xml version="1.0" encoding="utf-8"?>
<!-- Generator: Adobe Illustrator 26.0.3, SVG Export Plug-In . SVG Version: 6.00 Build 0)  -->
<svg version="1.1" id="Layer_1" xmlns="http://www.w3.org/2000/svg" xmlns:xlink="http://www.w3.org/1999/xlink" x="0px" y="0px"
	 viewBox="0 0 95 95" enable-background="new 0 0 95 95" xml:space="preserve">
<path fill="#FFFFFF" d="M90.021,30.385H4.901l-0.04,0.37c2.07,0.38,3.76,2.6,4.9,4.76c0.57,1.07,1.01,2.12,1.31,2.9
	c0.29,0.79,0.44,1.29,0.44,1.3l0.14,0.47l0.21-0.45c1.25-2.82,2.64-3.93,4.07-3.93c1.86-0.01,3.99,1.94,6.07,4.95
	c3.12,4.5,6.14,11.28,8.38,16.93c1.12,2.82,2.04,5.36,2.69,7.2c0.64,1.83,1,2.95,1.01,2.96l0.04,0.13h7.29l0.05-0.1
	c2-4.21,5.34-8.91,8.17-12.56c1.42-1.82,2.72-3.38,3.66-4.49c0.93-1.1,1.51-1.75,1.52-1.75l0.03-0.04l0.01-0.05
	c0.56-3.34,1.28-6.16,2.08-8.31c0.07-0.18,0.37-0.95,0.42-1.05c0.13,0.04,0.26,0.09,0.39,0.18c0.08,0.06,0.17,0.14,0.26,0.25
	c0.07,0.09,0.16,0.19,0.25,0.33c0.58,0.83,1.45,2.66,2.31,6.21c1.22,4.96,2.39,10.33,3.25,14.45c0.43,2.06,0.79,3.81,1.04,5.04
	s0.39,1.95,0.39,1.95l0.02,0.13l0.16,0.92h7.78c0.28-2.28,1.24-5.81,2.36-9.41c1.13-3.61,2.43-7.28,3.39-9.86
	c3.41-9.06,6.05-13.87,7.91-16.36c1.72-2.32,2.75-2.66,3.08-2.7h0.15l0.05-0.36C90.131,30.385,90.091,30.385,90.021,30.385z
	 M71.381,66.855h-4.1c-0.06-0.32-0.14-0.72-0.24-1.21c-0.25-1.23-0.61-2.99-1.04-5.06c-0.86-4.13-2.04-9.52-3.26-14.52
	c-0.92-3.71-1.82-5.75-2.65-6.95c-0.55-0.83-1.15-1.26-1.67-1.45c0.16-0.23,0.32-0.49,0.49-0.67c0.53-0.58,1.06-0.86,1.59-0.86
	c0.65,0,1.23,0.32,1.8,0.94c0.55,0.62,1.06,1.52,1.52,2.64l0.09,0.22l0.19-0.14c0,0,0.3-0.23,0.83-0.57
	c1.56-1.03,5.07-3.09,7.75-3.08c1.2,0,2.21,0.39,2.87,1.44c0.86,1.37,1.57,4.63,2.03,7.52c0.08,0.49,0.16,0.96,0.22,1.42
	C76.231,50.615,72.381,60.865,71.381,66.855z"/>
</svg>
