<?xml version="1.0" encoding="utf-8"?>
<!-- Generator: Adobe Illustrator 26.0.3, SVG Export Plug-In . SVG Version: 6.00 Build 0)  -->
<svg version="1.1" id="Layer_1" xmlns="http://www.w3.org/2000/svg" xmlns:xlink="http://www.w3.org/1999/xlink" x="0px" y="0px"
	 viewBox="0 0 38 38" style="enable-background:new 0 0 38 38;" xml:space="preserve">
<style type="text/css">
	.st0{fill:#FFFFFF;}
</style>
<path class="st0" d="M30.4,30.2V33l3.8,1.4l1.8-1.3v-2.8l-3.8-1.4L30.4,30.2z M25.1,28.2v-2.8l-1.7-1.3l-1.8,1.3v2.8l1.8,1.3
	L25.1,28.2z M27.3,15.7l-1.8-1.3l-3.9,1.4v2.8l1.8,1.2l3.9-1.3V15.7z M29.5,30.3l-3.9-1.4l-1.8,1.3V33l3.9,1.4l1.8-1.3V30.3z
	 M25.6,24.7l3.9-1.4v-2.8l-1.8-1.3l-3.9,1.4v2.8L25.6,24.7z M25.6,10.2l3.9-1.4V6l-1.8-1.3l-6.1,1.4v2.7L25.6,10.2z M26,25.5v2.6
	l3.9,1.4l1.8-1.3v-2.8l-1.8-1.3L26,25.5z M29.9,9.5L26,10.9v2.8l1.8,1.3l6-1.4v-2.7L29.9,9.5z M20.7,28.1v-2.6l-3.8-1.4l-1.8,1.3
	v2.8l1.8,1.3L20.7,28.1z M17.3,33l3.8,1.4l1.8-1.3v-2.9l-1.8-1.3l-3.8,1.4V33z M17.3,23.3l3.8,1.4l1.8-1.3v-2.9l-1.8-1.3l-3.8,1.4
	V23.3z M17.3,13.6l3.9,1.4l3.9-1.4v-2.7l-3.9-1.4l-3.9,1.4V13.6z M12.9,6.1v2.7l3.9,1.4l3.9-1.4V6l-1.8-1.3L12.9,6.1z M12.9,15.8
	v2.7l3.9,1.4l3.9-1.4v-2.7l-3.9-1.4L12.9,15.8z M14.6,24.7l1.8-1.3v-2.8l-3.9-1.4l-1.8,1.3v2.8L14.6,24.7z M16.4,30.2L14.6,29
	l-1.7,1.2v2.9l1.7,1.2l1.8-1.2V30.2z M8,24.7l1.8-1.3v-2.8L6,19.2l-1.8,1.3v2.8L8,24.7z M12,15.8l-3.9-1.4l-1.8,1.3v2.8l3.9,1.3
	l1.8-1.2V15.8z M8.1,34.4L12,33v-2.7l-3.9-1.4l-1.8,1.3v2.9L8.1,34.4z M8.1,10.2L12,8.8V6l-1.8-1.3l-6,1.4v2.7L8.1,10.2z M12.4,9.5
	l-3.9,1.4v2.7l3.9,1.4l4-1.4v-2.7L12.4,9.5z M8.5,25.4v2.7l3.9,1.4l1.8-1.3v-2.7l-3.9-1.4L8.5,25.4z M3.3,8.6V6.1L0,4.9V4l3.7,1.3
	l6.1-1.4V0h0.9v4l1.8,1.3l6.1-1.4V0h0.8v4l1.9,1.3l6-1.4V0h0.9v4L30,5.3l8-1.4v0.9l-7.6,1.4v2.6l3.9,1.4L38,8.8v1l-3.3,1.1v2.6H38
	v0.9h-3.8l-6.1,1.4v2.8l1.8,1.3l8.1-1.5v0.9l-7.6,1.4v2.7l1.8,1.3l5.8-1.4v0.9l-5.5,1.3v2.6l3.9,1.4l1.6-1.1v1.1l-1.1,0.7v2.6H38
	v0.9h-1.4l-1.9,1.4V38h-0.9v-2.9L30,33.8l-1.8,1.3V38h-0.9v-2.9l-3.9-1.3l-1.8,1.3V38h-0.9v-2.9l-3.8-1.3l-1.8,1.3V38h-0.9v-2.9
	l-1.8-1.3l-3.9,1.3V38H7.6v-2.9l-1.8-1.3L2,35.1V38H1.1v-2.9L0,34.3v-1.1l1.6,1.2L5.5,33v-2.7L0,29v-0.9l5.8,1.4l1.8-1.3v-2.7
	l-4-1.5H0v-0.8h3.3v-2.6L0,19.4v-0.9l3.7,1.3l1.8-1.2v-2.8L0,14.5v-0.9L5.8,15l1.8-1.3v-2.8l-4-1.4H0V8.6H3.3z"/>
</svg>
