<?xml version="1.0" encoding="utf-8"?>
<!-- Generator: Adobe Illustrator 26.0.3, SVG Export Plug-In . SVG Version: 6.00 Build 0)  -->
<svg version="1.1" id="Layer_1" xmlns="http://www.w3.org/2000/svg" xmlns:xlink="http://www.w3.org/1999/xlink" x="0px" y="0px"
	 viewBox="0 0 38 38" style="enable-background:new 0 0 38 38;" xml:space="preserve">
<style type="text/css">
	.st0{fill:#FFFFFF;}
</style>
<polygon class="st0" points="16,24.3 9.9,24.3 9.9,28.5 8.9,28.5 8.9,21.9 7,21.9 7,20.8 10,20.8 10,23.2 11.3,23.2 11.3,19.5 
	5.2,19.5 5.2,23.7 4.1,23.7 4.1,18.4 8.9,18.4 8.9,17.1 7,17.1 7,16 8.8,16 8.8,12.3 4.6,12.3 4.6,11.2 6.4,11.2 6.4,10 4.1,10 
	4.1,2.7 2.7,2.7 2.7,13.6 7,13.6 7,14.7 5.2,14.7 5.2,16.5 4.1,16.5 4.1,14.7 2.7,14.7 2.7,25.6 6.4,25.6 6.4,23.8 7.5,23.8 
	7.5,26.7 2.7,26.7 2.7,35.2 4,35.2 4,31 5.1,31 5.1,36.4 1.6,36.4 1.6,1.6 5.2,1.6 5.2,8.8 7.6,8.8 7.6,11.2 10,11.2 10,18.4 
	12.4,18.4 12.4,23.2 16,23.2 16,19 17.1,19 17.1,23.2 18.4,23.2 18.4,21.4 19.5,21.4 19.5,23.2 23.2,23.2 23.2,21.4 24.3,21.4 
	24.3,25.6 32.8,25.6 32.8,21.9 28,21.9 28,17.1 26.2,17.1 26.2,16 32.8,16 32.8,14.7 28,14.7 28,8.9 32.8,8.9 32.8,7.6 28.6,7.6 
	28.6,6.5 33.9,6.5 33.9,10 29.1,10 29.1,13.7 33.9,13.7 33.9,17.2 29.1,17.2 29.1,20.9 33.9,20.9 33.9,26.8 29.1,26.8 29.1,32.9 
	32.8,32.9 32.8,31.6 31,31.6 31,30.5 33.9,30.5 33.9,34 28,34 28,29.2 26.7,29.2 26.7,31 25.6,31 25.6,28 28,28 28,26.7 24.3,26.7 
	24.3,31.5 20.8,31.5 20.8,29.1 17.1,29.1 17.1,33.4 16,33.4 16,28 21.9,28 21.9,30.4 23.2,30.4 23.2,24.3 17.1,24.3 17.1,25.6 
	21.3,25.6 21.3,26.7 12.3,26.7 12.3,28.5 11.2,28.5 11.2,25.6 16,25.6 "/>
<polygon class="st0" points="11.3,31.5 9.4,31.5 9.4,30.4 13.6,30.4 13.6,28.6 14.7,28.6 14.7,35.3 18.4,35.3 18.4,31 19.5,31 
	19.5,35.3 25.6,35.3 25.6,34 21.4,34 21.4,32.9 26.7,32.9 26.7,35.3 35.2,35.3 35.2,29.2 31,29.2 31,28 35.3,28 35.3,19.5 31,19.5 
	31,18.4 35.3,18.4 35.3,12.3 31,12.3 31,11.2 35.3,11.2 35.3,2.7 31.6,2.7 31.6,4 33.4,4 33.4,5.1 26.8,5.1 26.8,7 25.7,7 25.7,4.1 
	30.5,4.1 30.5,2.7 22,2.7 22,7 20.9,7 20.9,2.7 17.2,2.7 17.2,10 14.3,10 14.3,8.9 16,8.9 16,2.7 7.6,2.7 7.6,6.4 8.9,6.4 8.9,4.6 
	10,4.6 10,8.8 11.3,8.8 11.3,6.5 13.7,6.5 13.7,5.2 11.9,5.2 11.9,4.1 14.8,4.1 14.8,7.6 12.4,7.6 12.4,11.3 18.5,11.3 18.5,4.6 
	19.6,4.6 19.6,8.8 23.3,8.8 23.3,4.6 24.4,4.6 24.4,8.8 26.2,8.8 26.2,10 19.6,10 19.6,13.7 25.7,13.7 25.7,12.4 21.5,12.4 
	21.5,11.3 26.8,11.3 26.8,14.8 24.4,14.8 24.4,18.5 26.8,18.5 26.8,23.3 31,23.3 31,24.4 25.7,24.4 25.7,19.6 23.3,19.6 23.3,14.8 
	18.5,14.8 18.5,12.4 12.4,12.4 12.4,16.1 13.7,16.1 13.7,13.7 16.6,13.7 16.6,14.8 14.8,14.8 14.8,16.1 22,16.1 22,21.4 20.9,21.4 
	20.9,17.2 14.8,17.2 14.8,21.4 13.7,21.4 13.7,17.2 11.3,17.2 11.3,10 8.9,10 8.9,7.6 6.5,7.6 6.5,1.6 36.4,1.6 36.4,36.4 6.5,36.4 
	6.5,29.2 4.6,29.2 4.6,28 7.5,28 7.5,32.8 9.3,32.8 9.3,33.9 7.6,33.9 7.6,35.2 13.7,35.2 13.7,31.5 12.4,31.5 12.4,33.3 11.3,33.3 
	"/>
</svg>
