<?xml version="1.0" encoding="utf-8"?>
<!-- Generator: Adobe Illustrator 26.0.3, SVG Export Plug-In . SVG Version: 6.00 Build 0)  -->
<svg version="1.1" id="Layer_1" xmlns="http://www.w3.org/2000/svg" xmlns:xlink="http://www.w3.org/1999/xlink" x="0px" y="0px"
	 viewBox="0 0 114 114" style="enable-background:new 0 0 114 114;" xml:space="preserve">
<style type="text/css">
	.st0{fill:#FFFFFF;}
</style>
<rect x="91.8" y="68.2" class="st0" width="12.3" height="4.2"/>
<rect x="85.2" y="62.8" class="st0" width="12.3" height="4.2"/>
<rect x="78.3" y="68.2" class="st0" width="12.3" height="4.2"/>
<rect x="78.3" y="57.7" class="st0" width="12.3" height="4.2"/>
<rect x="71.7" y="52.3" class="st0" width="12.3" height="4.2"/>
<rect x="71.7" y="62.8" class="st0" width="12.3" height="4.2"/>
<rect x="64.8" y="68.2" class="st0" width="12.3" height="4.2"/>
<rect x="64.8" y="46.9" class="st0" width="12.3" height="4.2"/>
<rect x="64.8" y="57.7" class="st0" width="12.3" height="4.2"/>
<rect x="57.9" y="41.5" class="st0" width="12.3" height="4.2"/>
<rect x="57.9" y="52.3" class="st0" width="12.3" height="4.2"/>
<rect x="57.9" y="62.8" class="st0" width="12.3" height="4.2"/>
<rect x="51.6" y="68.2" class="st0" width="12" height="4.2"/>
<rect x="51.6" y="46.9" class="st0" width="12" height="4.2"/>
<rect x="51.6" y="57.7" class="st0" width="12" height="4.2"/>
<rect x="44.7" y="41.5" class="st0" width="12" height="4.2"/>
<rect x="44.7" y="62.8" class="st0" width="12" height="4.2"/>
<rect x="44.4" y="52.3" class="st0" width="12" height="4.2"/>
<rect x="38.7" y="68.2" class="st0" width="11.1" height="4.2"/>
<rect x="38.7" y="46.9" class="st0" width="11.1" height="4.2"/>
<rect x="38.7" y="57.7" class="st0" width="11.1" height="4.2"/>
<rect x="32.1" y="52.3" class="st0" width="10.8" height="4.2"/>
<rect x="32.1" y="62.8" class="st0" width="10.8" height="4.2"/>
<rect x="26.1" y="68.2" class="st0" width="10.5" height="4.2"/>
<rect x="26.1" y="46.9" class="st0" width="10.5" height="4.2"/>
<rect x="26.1" y="57.7" class="st0" width="10.5" height="4.2"/>
<rect x="20.4" y="52.3" class="st0" width="9.3" height="4.2"/>
<rect x="20.4" y="62.8" class="st0" width="9.3" height="4.2"/>
<rect x="16.5" y="68.2" class="st0" width="6.6" height="4.2"/>
<rect x="16.5" y="57.7" class="st0" width="6.6" height="4.2"/>
<rect x="16.5" y="46.9" class="st0" width="6.6" height="4.2"/>
<rect x="14.1" y="62.8" class="st0" width="3.3" height="4.2"/>
<rect x="14.1" y="52.3" class="st0" width="3.3" height="4.2"/>
<rect x="14.1" y="41.5" class="st0" width="3.3" height="4.2"/>
<polygon class="st0" points="9.9,72.4 9.9,68.2 12.6,68.2 12.6,72.4 12.3,72.4 "/>
<polygon class="st0" points="9.9,61.9 9.9,57.7 12.6,57.7 12.6,61.9 12.3,61.9 "/>
<polygon class="st0" points="9.9,51.1 9.9,46.9 12.6,46.9 12.6,51.1 12.3,51.1 "/>
<rect x="32.1" y="41.5" class="st0" width="10.8" height="4.2"/>
<rect x="20.4" y="41.5" class="st0" width="9.3" height="4.2"/>
</svg>
