<?xml version="1.0" encoding="utf-8"?>
<!-- Generator: Adobe Illustrator 26.0.3, SVG Export Plug-In . SVG Version: 6.00 Build 0)  -->
<svg version="1.1" id="Layer_1" xmlns="http://www.w3.org/2000/svg" xmlns:xlink="http://www.w3.org/1999/xlink" x="0px" y="0px"
	 viewBox="0 0 150 150" style="enable-background:new 0 0 150 150;" xml:space="preserve">
<style type="text/css">
	.st0{fill:#FFFFFF;}
</style>
<g>
	<path class="st0" d="M130.1,58.5c0,12.4-8.8,22.8-20.6,25.1c-3.2-6.4-8.5-11.6-15-14.7c1-3.5,1.6-7.1,1.6-10.9
		c0-7.7-2.2-14.8-6.1-20.8c4.1-2.9,9.1-4.5,14.5-4.5C118.6,32.8,130.1,44.4,130.1,58.5z"/>
	<path class="st0" d="M89.5,79.4c-4.5-3.2-8-8-9.7-13.4c0.4,0,0.7,0,1,0c2.4,0,4.8,0.3,7.1,0.8c1.7,0.4,3.3,0.9,4.9,1.6
		c0.5,0.2,1,0.4,1.6,0.7C93.4,72.8,91.7,76.3,89.5,79.4z"/>
	<path class="st0" d="M79.9,66C63.6,66.5,50.5,79.2,49,95.1c-16.7-4-29.2-19-29.2-37c0-21,17.1-38.1,38.1-38.1
		c13.4,0,25.1,6.9,31.9,17.3C83.2,42,78.8,49.8,78.8,58.5C78.8,61.2,79.1,63.7,79.9,66z"/>
	<path class="st0" d="M51.2,95.6c2.2,0.4,4.5,0.6,6.7,0.6c1.7,0,3.3-0.1,4.9-0.4c4-0.5,7.8-1.6,11.2-3.3c2.1-1,4-2.1,5.9-3.4
		c1.9-1.3,3.6-2.8,5.2-4.5c0.5-0.5,1.1-1.1,1.6-1.7c1-1.1,1.9-2.4,2.8-3.6c4.2,3,9.4,4.8,14.9,4.8c1.7,0,3.5-0.2,5.1-0.5
		c2.2,4.3,3.4,9.2,3.4,14.3c0,17.7-14.3,32-32,32s-32-14.3-32-32c0-0.9,0-1.9,0.1-2.8C49.8,95.3,50.5,95.5,51.2,95.6z"/>
</g>
</svg>
