<?xml version="1.0" encoding="utf-8"?>
<!-- Generator: Adobe Illustrator 26.0.3, SVG Export Plug-In . SVG Version: 6.00 Build 0)  -->
<svg version="1.1" id="Layer_1" xmlns="http://www.w3.org/2000/svg" xmlns:xlink="http://www.w3.org/1999/xlink" x="0px" y="0px"
	 viewBox="0 0 38 38" enable-background="new 0 0 38 38" xml:space="preserve">
<g id="Layer_1_00000173125632944910265380000016342366066106414492_">
	<path fill="#FFFFFF" d="M38,29.8c-0.5,5.7-9.3,5.2-13.5,5.2c-2.8-0.2-6.6-0.5-8.2-3.2c-0.7-1.3-0.8-2.8-0.3-4.2
		c1.4-3.7,6-4.9,8.4-7.9c3-3.4,2.7-7.6-0.5-10.7c-2-1.8-4.8-2.3-7.3-2.4C12.9,6.4,8.9,6.7,5.8,8.8c-3.6,2.3-4,6.6-1.9,10.1
		c1.7,3.1,5.1,4.7,7.3,7.4c2.5,2.7,3.3,6-0.6,7.9C7.3,35.5,3.3,35.2,0,34v4h38v-8.4C38,29.6,38,29.7,38,29.8z M38,6.6
		c-1.4,0.1-2.6,0.5-3.4,0.8c-5.3,2.2-6.6,10.2-2.2,14.2c2.1,2.3,5.5,4.1,5.6,7.5V6.8C38,6.8,38,6.6,38,6.6z"/>
</g>
<g id="SHARED">
</g>
</svg>
