<?xml version="1.0" encoding="utf-8"?>
<!-- Generator: Adobe Illustrator 26.0.3, SVG Export Plug-In . SVG Version: 6.00 Build 0)  -->
<svg version="1.1" id="Layer_1" xmlns="http://www.w3.org/2000/svg" xmlns:xlink="http://www.w3.org/1999/xlink" x="0px" y="0px"
	 viewBox="0 0 38 38" style="enable-background:new 0 0 38 38;" xml:space="preserve">
<style type="text/css">
	.st0{fill:#FFFFFF;}
</style>
<path class="st0" d="M20.4,5.2c0.3,0,0.4,0,0.4,0.3c0,0.2,0.1,0.3,0.3,0.3c1.8,0,3.5,0,5.3,0c0.2,0,0.4-0.1,0.3-0.3
	c-0.1-0.3,0.1-0.3,0.3-0.3c1,0,2,0,3,0c0.4,0,0.4,0.1,0.4,0.5c0,6.4,0,12.9,0,19.3c0,2.5,0,4.9,0,7.4c0,0.4-0.1,0.5-0.5,0.5
	c-1.1,0-2.3,0-3.5,0c-0.4,0-0.4-0.1-0.4-0.5c0-4.8,0-9.5,0-14.2c0-0.9-0.4-1.7-0.8-2.4c-0.4-0.8-0.9-1.5-1.6-2.2
	c-0.3-0.3-0.5-0.3-0.9,0c-1.2,1.1-2,2.5-2.3,4.1c-0.2,1.1,0,2.2,0,3.2c0,3.8,0,7.5,0,11.3c0,0.7,0.1,0.6-0.6,0.6c-0.7,0-1.4,0-2,0
	c-0.5,0-0.5-0.1-0.5-0.6c0-4.7,0.1-9.5,0-14.2c0-1.9-1.1-3.4-2.5-4.7c-0.2-0.2-0.4-0.1-0.6,0.1c-0.9,0.9-1.5,1.9-2,3
	c-0.3,0.7-0.4,1.4-0.4,2.2c0,4.6,0,9.1,0,13.7c0,0.4-0.1,0.5-0.5,0.5c-1.1,0-2.2,0-3.4,0c-0.5,0-0.5-0.1-0.5-0.6c0-4.4,0-8.9,0-13.3
	c0-4.4,0-8.8,0-13.2c0-0.5,0.1-0.6,0.6-0.6c1,0,2,0,3.1,0c0.3,0,0.4,0,0.4,0.4c0,0.2,0.1,0.3,0.3,0.3h5.4c0.2,0,0.3-0.1,0.3-0.3
	c0-0.3,0.1-0.4,0.4-0.3C18.6,5.2,19.5,5.2,20.4,5.2z"/>
</svg>
