<?xml version="1.0" encoding="utf-8"?>
<!-- Generator: Adobe Illustrator 26.0.3, SVG Export Plug-In . SVG Version: 6.00 Build 0)  -->
<svg version="1.1" id="Layer_1" xmlns="http://www.w3.org/2000/svg" xmlns:xlink="http://www.w3.org/1999/xlink" x="0px" y="0px"
	 viewBox="0 0 38 38" enable-background="new 0 0 38 38" xml:space="preserve">
<polygon fill="#FFFFFF" points="13.2,27.3 13.2,28.2 12.3,28.2 5.6,28.2 5.6,27.3 "/>
<rect x="5.6" y="29.5" fill="#FFFFFF" width="7.6" height="0.9"/>
<rect x="31.5" y="29.5" fill="#FFFFFF" width="0.9" height="0.9"/>
<rect x="12.3" y="28.4" fill="#FFFFFF" width="20.1" height="0.9"/>
<rect x="31.5" y="27.3" fill="#FFFFFF" width="0.9" height="0.9"/>
<rect x="31.5" y="25" fill="#FFFFFF" width="0.9" height="0.9"/>
<polygon fill="#FFFFFF" points="31.5,27 13.2,27 12.3,27 12.3,26.1 32.4,26.1 32.4,27 "/>
<polygon fill="#FFFFFF" points="13.2,25 13.2,25.9 12.3,25.9 5.6,25.9 5.6,25 "/>
<polygon fill="#FFFFFF" points="13.1,22.7 13.1,23.6 12.3,23.6 5.6,23.6 5.6,22.7 "/>
<polygon fill="#FFFFFF" points="31.5,24.8 13.2,24.8 12.3,24.8 12.3,23.9 32.4,23.9 32.4,24.8 "/>
<rect x="31.5" y="22.7" fill="#FFFFFF" width="0.9" height="0.9"/>
<rect x="28.3" y="20.4" fill="#FFFFFF" width="2.4" height="0.9"/>
<polygon fill="#FFFFFF" points="31.5,22.5 13.1,22.5 11.2,22.5 11.2,21.6 28.3,21.6 31.9,21.6 31.9,22.5 "/>
<polygon fill="#FFFFFF" points="11.5,20.4 11.5,21.3 11.2,21.3 7.7,21.3 7.7,20.4 "/>
<polygon fill="#FFFFFF" points="9.9,18.1 9.9,19 9.4,19 7.3,19 7.3,18.1 "/>
<polygon fill="#FFFFFF" points="28.3,20.2 11.5,20.2 9.4,20.2 9.4,19.3 28.8,19.3 28.8,20.2 "/>
<polygon fill="#FFFFFF" points="30.3,19 28.8,19 26.5,19 26.5,18.1 30.3,18.1 "/>
<polygon fill="#FFFFFF" points="32.2,15.8 32.2,16.7 26.9,16.7 25,16.7 25,15.8 "/>
<polygon fill="#FFFFFF" points="26.5,17.9 9.9,17.9 6.5,17.9 6.5,17 26.9,17 26.9,17.9 "/>
<polygon fill="#FFFFFF" points="6.7,15.8 6.7,16.7 6.5,16.7 5.8,16.7 5.8,15.8 "/>
<rect x="5.6" y="13.5" fill="#FFFFFF" width="0.8" height="0.9"/>
<polygon fill="#FFFFFF" points="25.7,14.7 25.7,15.6 25,15.6 6.7,15.6 5.6,15.6 5.6,14.7 6.4,14.7 "/>
<polygon fill="#FFFFFF" points="32.4,13.5 32.4,14.4 25.7,14.4 24.8,14.4 24.8,13.5 "/>
<polygon fill="#FFFFFF" points="32.4,11.3 32.4,12.2 25.7,12.2 24.8,12.2 24.8,11.3 "/>
<polygon fill="#FFFFFF" points="6.4,12.4 25.7,12.4 25.7,13.3 24.8,13.3 6.4,13.3 5.6,13.3 5.6,12.4 "/>
<rect x="5.6" y="11.3" fill="#FFFFFF" width="0.8" height="0.9"/>
<rect x="5.6" y="9" fill="#FFFFFF" width="0.8" height="0.9"/>
<polygon fill="#FFFFFF" points="6.4,10.1 25.7,10.1 25.7,11 24.8,11 6.4,11 5.6,11 5.6,10.1 "/>
<polygon fill="#FFFFFF" points="32.4,9 32.4,9.9 25.7,9.9 24.8,9.9 24.8,9 "/>
<rect x="24.8" y="6.7" fill="#FFFFFF" width="7.6" height="0.9"/>
<polygon fill="#FFFFFF" points="5.6,7.8 25.7,7.8 25.7,8.7 24.8,8.7 6.4,8.7 5.6,8.7 "/>
<rect x="5.6" y="6.7" fill="#FFFFFF" width="0.9" height="0.9"/>
</svg>
