<?xml version="1.0" encoding="utf-8"?>
<!-- Generator: Adobe Illustrator 26.0.3, SVG Export Plug-In . SVG Version: 6.00 Build 0)  -->
<svg version="1.1" id="Layer_1" xmlns="http://www.w3.org/2000/svg" xmlns:xlink="http://www.w3.org/1999/xlink" x="0px" y="0px"
	 viewBox="0 0 200 200" style="enable-background:new 0 0 200 200;" xml:space="preserve">
<style type="text/css">
	.st0{opacity:0.5;}
	.st1{fill:#FFFFFF;}
</style>
<g id="Layer_1_00000041269738243477384100000016329280219212755331_">
	<g id="Layer_1_00000181787020267117217350000004799855721733991305_">
		<g id="WHITE">
		</g>
		<g id="Layer_1_00000180333984575459592730000010795229792732508350_">
		</g>
	</g>
</g>
<g id="Layer_1_00000115510394912810847250000005456549622358048662_" class="st0">
	<g id="Layer_1_00000116935543137970985920000010572444401620433309_">
		<g id="WHITE_00000131325135195087774790000010722942536221094810_">
		</g>
		<g id="Layer_1_00000122722721452679229430000018098661622238573759_">
		</g>
	</g>
</g>
<g id="WHITE_00000173142180868479764090000006161994095147702928_">
	<g>
		<polygon class="st1" points="13.3,161.7 53.5,161.7 53.5,85.9 13.3,133.3 		"/>
		<path class="st1" d="M94,38.3L55.8,83.2v78.4h75.3V82.9L94,38.3z M107.6,73.2c1.7,0,3.1,1.4,3.1,3.1c0,1.7-1.4,3.1-3.1,3.1
			c-1.7,0-3.1-1.4-3.1-3.1C104.6,74.6,106,73.2,107.6,73.2z M92.2,50.8c0-0.2,0-0.8,0.4-1.4c0.4-0.6,1.1-0.8,1.3-0.9
			c0.2,0.1,0.8,0.3,1.2,0.9c0.5,0.6,0.4,1.3,0.4,1.4v12.6h-3.3V50.8z M80.1,73.2c1.7,0,3.1,1.4,3.1,3.1c0,1.7-1.4,3.1-3.1,3.1
			c-1.7,0-3.1-1.4-3.1-3.1C77,74.6,78.4,73.2,80.1,73.2z M69.3,146H64v-9.4c0-0.3,0-1.3,0.7-2.3c0.7-1,1.7-1.3,2-1.4
			c0.3,0.1,1.3,0.4,2,1.4c0.7,1,0.7,2,0.7,2.3V146z M82.9,146h-5.4v-9.4c0-0.3,0-1.3,0.7-2.3c0.7-1,1.7-1.3,2-1.4
			c0.3,0.1,1.3,0.4,2,1.4c0.7,1,0.7,2,0.7,2.3V146z M84.5,124.7h-8.8V93.1c0-0.5-0.1-2.1,1.1-3.7c1.2-1.6,2.8-2.1,3.3-2.3
			c0.5,0.2,2.1,0.7,3.3,2.3c1.2,1.6,1.1,3.2,1.1,3.7V124.7z M87.8,54.2c0-0.1,0-0.6,0.3-1.1c0.3-0.5,0.8-0.6,0.9-0.7
			c0.1,0,0.6,0.2,1,0.7c0.3,0.4,0.3,0.9,0.3,1.1v9.1h-2.5V54.2z M96.5,146h-5.4v-9.4c0-0.3,0-1.3,0.7-2.3c0.7-1,1.7-1.3,2-1.4
			c0.3,0.1,1.3,0.4,2,1.4c0.7,1,0.7,2,0.7,2.3V146z M99.6,124.7H88V81.1c0-0.6-0.1-2.8,1.5-5c1.5-2.1,3.7-2.8,4.3-3
			c0.7,0.2,2.8,0.9,4.3,3c1.6,2.1,1.4,4.3,1.5,5V124.7z M99.9,63.4h-2.5v-9.1c0-0.1,0-0.6,0.3-1.1c0.3-0.5,0.8-0.6,1-0.7
			c0.1,0,0.6,0.2,0.9,0.7c0.3,0.4,0.3,0.9,0.3,1.1V63.4z M110,146h-5.4v-9.4c0-0.3,0-1.3,0.7-2.3c0.7-1,1.7-1.3,2-1.4
			c0.3,0.1,1.3,0.4,2,1.4c0.7,1,0.7,2,0.7,2.3V146z M112,124.7h-8.8V93.1c0-0.5-0.1-2.1,1.1-3.7c1.2-1.6,2.8-2.1,3.3-2.3
			c0.5,0.2,2.1,0.7,3.3,2.3c1.2,1.6,1.1,3.2,1.1,3.7V124.7z M123.6,146h-5.4v-9.4c0-0.3,0-1.3,0.7-2.3c0.7-1,1.7-1.3,2-1.4
			c0.3,0.1,1.3,0.4,2,1.4c0.7,1,0.7,2,0.7,2.3V146z"/>
		<polygon class="st1" points="133.5,85.6 133.5,161.7 186.7,161.7 186.7,149.4 		"/>
	</g>
</g>
</svg>
