<?xml version="1.0" encoding="utf-8"?>
<!-- Generator: Adobe Illustrator 26.0.3, SVG Export Plug-In . SVG Version: 6.00 Build 0)  -->
<svg version="1.1" id="Layer_1" xmlns="http://www.w3.org/2000/svg" xmlns:xlink="http://www.w3.org/1999/xlink" x="0px" y="0px"
	 viewBox="0 0 38 38" enable-background="new 0 0 38 38" xml:space="preserve">
<path fill="#FFFFFF" d="M34.6,16C33.71,9.16,28.54,3.99,22.12,2.83c-0.9-0.18-1.84-0.26-2.78-0.26c-0.67,0-1.35,0.04-2.04,0.13
	C8.9,3.8,2.9,11.5,4.1,19.9c0.7,5.6,4.5,10.4,9.7,12.4L13,34.7l8.3,1.1v-2.6c0.16-0.02,0.32-0.04,0.48-0.07
	C30.02,31.81,35.68,24.24,34.6,16z M21.4,30.6V19.9l-3.8,0.9l-3,9.1c-1.6-0.6-3-1.6-4.3-2.8L15,12.5l-7.3,0.1
	c2.49-5.36,8.27-8.34,14.02-7.27c0.26,0.05,0.52,0.11,0.78,0.17l-1.6,4.8l5.7,7.8l5.49,0.3h0.01C31.9,24.5,27.4,29.6,21.4,30.6z"/>
</svg>
