<?xml version="1.0" encoding="utf-8"?>
<!-- Generator: Adobe Illustrator 26.0.3, SVG Export Plug-In . SVG Version: 6.00 Build 0)  -->
<svg version="1.1" id="Layer_1" xmlns="http://www.w3.org/2000/svg" xmlns:xlink="http://www.w3.org/1999/xlink" x="0px" y="0px"
	 viewBox="0 0 250 250" style="enable-background:new 0 0 250 250;" xml:space="preserve">
<style type="text/css">
	.st0{fill:#FFFFFF;}
	.st1{fill:#BCBEC0;}
</style>
<g id="DOME">
</g>
<polygon class="st0" points="223.4,99.5 223.4,108.9 207.6,109.7 207.6,118.8 223.4,118.3 223.4,127.3 207.6,127.6 207.6,135.5 
	223.4,135.4 223.4,143.9 192.5,143.6 192.5,101.2 "/>
<polygon class="st0" points="157.7,135.6 172.3,135.6 172.3,143.3 146,143.1 146,104.1 157.7,103.4 "/>
<polygon class="st0" points="124.9,105.2 124.9,142.9 102.3,142.9 102.3,135.7 113.4,135.7 113.4,105.9 "/>
<polygon class="st0" points="87,107.4 87,115.9 75.7,116.4 75.7,123 87,122.6 87,130 75.7,130.2 75.7,135.8 87,135.8 87,142.5 
	64.9,142.3 64.9,108.6 "/>
<polygon class="st0" points="49.7,109.5 41.5,142.1 27,141.9 19.7,111.2 28.8,110.7 34.1,135.9 40.5,110 "/>
<polygon class="st1" points="28.8,110.7 40,112 34.1,135.9 "/>
<polygon class="st1" points="49.7,109.5 62.9,110.6 55.3,142.2 41.5,142.1 "/>
<polygon class="st1" points="87,107.4 96.4,109 96.4,116.4 93.9,116.6 93.9,122.4 96.8,122.3 96.8,129.8 93.7,129.8 93.7,135.8 
	96.6,135.8 96.6,142.6 87,142.5 87,135.8 75.7,135.8 75.7,130.2 87,130 87,122.6 75.7,123 75.7,116.4 87,115.9 "/>
<polygon class="st1" points="124.9,105.2 136.2,106.9 136.2,143 124.9,142.9 "/>
<polygon class="st1" points="157.7,103.4 168.6,104.9 168.6,135.6 157.7,135.6 "/>
<polygon class="st1" points="172.3,135.6 181.7,135.5 181.7,143.1 172.3,143.3 "/>
<polygon class="st1" points="223.4,99.5 230.3,102 230.3,111.2 214.5,111.2 214.5,118.6 207.6,118.8 207.6,109.7 223.4,108.9 "/>
<polygon class="st1" points="223.4,118.3 230.3,120.1 230.3,128.3 214.5,128.3 214.5,135.4 207.6,135.5 207.6,127.6 223.4,127.3 "/>
<polygon class="st1" points="223.4,135.4 230.3,135.4 230.3,143.5 223.4,143.9 "/>
</svg>
