<?xml version="1.0" encoding="utf-8"?>
<!-- Generator: Adobe Illustrator 26.0.3, SVG Export Plug-In . SVG Version: 6.00 Build 0)  -->
<svg version="1.1" id="Layer_1" xmlns="http://www.w3.org/2000/svg" xmlns:xlink="http://www.w3.org/1999/xlink" x="0px" y="0px"
	 viewBox="0 0 250 250" style="enable-background:new 0 0 250 250;" xml:space="preserve">
<style type="text/css">
	.st0{fill-rule:evenodd;clip-rule:evenodd;fill:#FFFFFF;}
</style>
<g>
	<g id="Layer_1_00000019645475862483058760000010853575052449630597_">
	</g>
	<path class="st0" d="M147.1,113.4c0.9-1.1,1.6-2.1,2.6-3c5-4.9,10.9-5.9,17.3-3.5c6,2.2,9.8,7.8,9.8,14.3c0.1,9.1,0,18.3,0,27.4
		c0,3-2,4.6-4.3,3.5c-1.6-0.7-1.7-2.2-1.7-3.7c0-8.2,0-16.5,0-24.7c0-1.2-0.1-2.5-0.3-3.7c-0.7-5-3.2-7.8-7.8-8.7
		c-4.5-0.8-8.9,1.2-11.1,5.2c-1.2,2.2-1.7,4.5-1.7,7c0,8.2,0,16.3,0,24.5c0,2.9-1,4.3-3,4.3s-3-1.4-3-4.3c0-8.4,0-16.8,0-25.2
		c0-1.3-0.1-2.7-0.4-4c-0.9-4.4-3.4-6.8-7.8-7.6c-4.2-0.7-8.5,1.1-10.8,4.8c-1.3,2.1-1.9,4.4-1.9,6.9c0,8.2,0,16.5,0,24.7
		c0,0.9-0.1,1.7-0.3,2.6c-0.3,1.4-1.3,2.1-2.7,2.1c-1.4,0-2.4-0.6-2.8-2c-0.2-0.7-0.3-1.4-0.3-2.1c0-12.9,0-25.8,0-38.7
		c0-3.1,1-4.1,4.1-4.1c5.1,0,10.2,0,15.3,0.2c4.7,0.2,8.1,2.7,10.4,6.7C146.9,112.7,147,112.9,147.1,113.4"/>
	<path class="st0" d="M224.9,138.2c0,3.4,0,6.7,0,10.1c0,3.2-1,4.2-4.1,4.2c-5.9,0-11.8,0.1-17.7-0.2c-7.4-0.4-12.5-4.6-15.2-11.4
		c-3.2-7.9-3.2-15.9,0.2-23.7c3.7-8.5,10.2-11.6,17.4-11.5c8.8,0.2,15,4.9,17.7,13.4c1,3.1,1.4,6.5,1.7,9.9
		C225.2,132,224.9,135.1,224.9,138.2 M192.4,129c0,0.1,0,0.3,0,0.6c0.1,3.2,0.6,5.7,1.5,8.7c1.1,3.6,3.2,6.6,6.8,8.2
		c6.2,2.7,12.7-0.1,15.6-6.7c2.4-5.6,2.6-11.3,1.4-17.2c-0.8-3.6-2.2-6.8-5-9.2c-5.6-4.8-14.2-2.8-17.8,4.2
		C193,121.1,192.3,125,192.4,129"/>
	<path class="st0" d="M107.7,129.2c0,4.6-0.8,9-2.9,13.2c-3.8,7.5-10.8,10.7-18.6,10c-8.1-0.7-13.4-5.2-16-12.7
		c-2.6-7.6-2.5-15.2,0.8-22.6s9-11.4,17.2-11.4c8.3,0,14,4.2,17.3,11.7C107.1,121.2,107.8,125.1,107.7,129.2 M101.2,129.1
		c-0.2-4.1-0.7-8.2-2.7-11.9c-2.2-4.1-5.6-6.5-10.3-6.5c-4.7,0-8.3,2.2-10.3,6.3c-3.9,8-3.9,16.2,0.1,24.2c2,4,5.6,6.2,10.1,6.1
		c4.6,0,8-2.2,10.2-6.3C100.4,137.4,101,133.3,101.2,129.1"/>
	<path class="st0" d="M24.9,129.1c0-6.4,0-12.9,0-19.3c0-3.2,1-4.2,4.2-4.1c5.2,0,10.5-0.1,15.7,0.2c8.1,0.4,14.2,6.5,14.4,14.6
		c0.3,9.3,0.2,18.6,0.2,27.9c0,2.9-1.2,4.3-3.2,4.2c-1.9-0.1-2.8-1.4-2.8-4.3c0-8.4,0-16.8,0-25.2c0-3.1-0.4-6.1-2.7-8.4
		c-3-3.2-8.4-4.3-12.8-2.6c-4.2,1.6-6.9,5.7-7,10.4c0,8.4,0,16.9,0,25.3c0,0.8-0.1,1.5-0.2,2.2c-0.4,1.7-1.4,2.5-2.9,2.5
		c-1.6-0.1-2.7-1.1-2.9-2.8c-0.1-0.5,0-1.1,0-1.6C24.9,141.7,24.9,135.4,24.9,129.1"/>
</g>
</svg>
