<?xml version="1.0" encoding="utf-8"?>
<!-- Generator: Adobe Illustrator 26.0.3, SVG Export Plug-In . SVG Version: 6.00 Build 0)  -->
<svg version="1.1" id="Layer_1" xmlns="http://www.w3.org/2000/svg" xmlns:xlink="http://www.w3.org/1999/xlink" x="0px" y="0px"
	 viewBox="0 0 500 500" style="enable-background:new 0 0 500 500;" xml:space="preserve">
<style type="text/css">
	.st0{fill:#FFFFFF;}
</style>
<g id="XMLID_1_">
	<g>
		<polygon class="st0" points="473.8,219.3 441.7,261.6 438.9,256.7 466.4,220.3 430.1,192.8 431.6,187.2 		"/>
		<polygon class="st0" points="422,328.4 461.3,305.4 438.3,266.1 441.7,261.6 468,306.5 422.6,333.2 		"/>
		<polygon class="st0" points="445,136 431.6,187.2 427.1,183.8 438.6,139.8 394.5,128.2 393.7,122.6 		"/>
		<polygon class="st0" points="441.7,261.6 438.3,266.1 435.5,261.2 438.9,256.7 		"/>
		<polygon class="st0" points="421.3,226.5 438.9,256.7 435.5,261.2 419.4,233.7 		"/>
		<polygon class="st0" points="431.6,187.2 430.1,192.8 425.6,189.4 427.1,183.8 		"/>
		<polygon class="st0" points="430.1,192.8 421.3,226.5 417.5,220.1 425.6,189.4 		"/>
		<polygon class="st0" points="422,328.4 422.6,333.2 417.7,336.1 417.1,331.3 		"/>
		<polygon class="st0" points="416.2,286.5 435.5,261.2 438.3,266.1 417.2,293.9 		"/>
		<polygon class="st0" points="417.2,293.9 422,328.4 417.1,331.3 412.8,299.8 		"/>
		<polygon class="st0" points="421.3,226.5 419.4,233.7 415.7,227.3 417.5,220.1 		"/>
		<polygon class="st0" points="419.4,233.7 412.6,259.8 410.7,246.2 415.7,227.3 		"/>
		<polygon class="st0" points="416.2,286.5 417.2,293.9 412.8,299.8 411.8,292.4 		"/>
		<polygon class="st0" points="412.6,259.8 416.2,286.5 411.8,292.4 409.1,273 		"/>
		<polygon class="st0" points="425.6,189.4 400.3,170.1 399.2,162.7 427.1,183.8 		"/>
		<polygon class="st0" points="412.6,259.8 409.1,273 407.2,259.4 410.7,246.2 		"/>
		<polygon class="st0" points="403.9,196.9 417.5,220.1 415.7,227.3 405.8,210.4 		"/>
		<polygon class="st0" points="403.9,196.9 397,185.1 394.4,165.7 400.3,170.1 		"/>
		<polygon class="st0" points="407.2,259.4 403.1,229 398.9,198.6 405.8,210.4 410.7,246.2 		"/>
		<polygon class="st0" points="397,185.1 403.9,196.9 405.8,210.4 398.9,198.6 		"/>
		<polygon class="st0" points="430,386.6 377.4,393.8 378.9,388.3 424,382.1 417.7,336.1 422.6,333.2 		"/>
		<polygon class="st0" points="399.2,162.7 400.3,170.1 394.4,165.7 393.4,158.3 		"/>
		<polygon class="st0" points="396.4,321.3 399.9,308.1 411.8,292.4 412.8,299.8 		"/>
		<polygon class="st0" points="393.4,158.3 389,126.8 394.5,128.2 399.2,162.7 		"/>
		<polygon class="st0" points="388,353.6 389.6,347.3 417.1,331.3 417.7,336.1 		"/>
		<polygon class="st0" points="393.7,122.6 394.5,128.2 389,126.8 388.3,121.1 		"/>
		<polygon class="st0" points="393.7,122.6 388.3,121.1 382.1,76 336.9,82.2 334,77.2 386.5,70 		"/>
		<polygon class="st0" points="391.6,319 399.9,308.1 396.4,321.3 388.2,332.2 		"/>
		<polygon class="st0" points="399.9,308.1 391.6,319 399.4,289.2 407.2,259.4 409.1,273 		"/>
		<polygon class="st0" points="388.2,332.2 396.4,321.3 389.6,347.3 383.2,351.1 		"/>
		<polygon class="st0" points="389.6,347.3 388,353.6 381.5,357.4 383.2,351.1 		"/>
		<polygon class="st0" points="388,353.6 378.9,388.3 373.2,389.1 381.5,357.4 		"/>
		<polygon class="st0" points="378.9,388.3 377.4,393.8 371.8,394.5 373.2,389.1 		"/>
		<polygon class="st0" points="371.8,141.9 393.4,158.3 394.4,165.7 378.7,153.8 		"/>
		<polygon class="st0" points="367.9,145.6 378.7,153.8 397,185.1 398.9,198.6 383.4,172.1 		"/>
		<polygon class="st0" points="371.8,141.9 378.7,153.8 367.9,145.6 361,133.7 		"/>
		<polygon class="st0" points="361,133.7 351.1,116.8 358.2,118.7 371.8,141.9 		"/>
		<polygon class="st0" points="389,126.8 358.2,118.7 354.5,112.3 388.3,121.1 		"/>
		<polygon class="st0" points="354.6,367.8 373.1,343.4 391.6,319 388.2,332.2 366.3,361 		"/>
		<polygon class="st0" points="358.9,370.7 366.3,361 383.2,351.1 381.5,357.4 		"/>
		<polygon class="st0" points="366.3,361 358.9,370.7 347.1,377.7 354.6,367.8 		"/>
		<polygon class="st0" points="358.9,370.7 341.7,393.4 334.4,394.4 347.1,377.7 		"/>
		<polygon class="st0" points="354.5,112.3 358.2,118.7 351.1,116.8 347.4,110.4 		"/>
		<polygon class="st0" points="341.7,393.4 373.2,389.1 371.8,394.5 337.3,399.3 		"/>
		<polygon class="st0" points="351.1,116.8 332.2,111.9 321.3,103.6 347.4,110.4 		"/>
		<polygon class="st0" points="316.2,427.1 360.2,438.6 371.8,394.5 377.4,393.8 364,445 312.7,431.6 		"/>
		<polygon class="st0" points="341.7,393.4 337.3,399.3 329.9,400.3 334.4,394.4 		"/>
		<polygon class="st0" points="336.9,82.2 354.5,112.3 347.4,110.4 331.3,82.9 		"/>
		<polygon class="st0" points="334,77.2 336.9,82.2 331.3,82.9 328.4,78 		"/>
		<polygon class="st0" points="337.3,399.3 316.2,427.1 310.7,425.6 329.9,400.3 		"/>
		<polygon class="st0" points="332.2,111.9 361,133.7 367.9,145.6 343.3,126.9 318.9,108.4 		"/>
		<polygon class="st0" points="354.6,367.8 347.1,377.7 313.9,397.2 301.4,398.9 327.9,383.4 		"/>
		<polygon class="st0" points="329.9,400.3 302.2,404.1 313.9,397.2 334.4,394.4 		"/>
		<polygon class="st0" points="318.9,108.4 307.9,100.1 321.3,103.6 332.2,111.9 		"/>
		<polygon class="st0" points="316.2,427.1 312.7,431.6 307.3,430.2 310.7,425.6 		"/>
		<polygon class="st0" points="302.2,404.1 289.6,405.8 301.4,398.9 313.9,397.2 		"/>
		<polygon class="st0" points="293.9,82.8 328.4,78 331.3,82.9 299.8,87.2 		"/>
		<polygon class="st0" points="321.3,103.6 307.9,100.1 292.4,88.3 299.8,87.2 		"/>
		<polygon class="st0" points="279.5,417.5 310.7,425.6 307.3,430.2 273.1,421.2 		"/>
		<polygon class="st0" points="299.8,87.2 292.4,88.3 286.5,83.8 293.9,82.8 		"/>
		<polygon class="st0" points="293.9,82.8 286.5,83.8 261.1,64.6 266.1,61.7 		"/>
		<polygon class="st0" points="261.5,58.2 307.3,31.5 334,77.2 328.4,78 305.4,38.7 266.1,61.7 		"/>
		<polygon class="st0" points="289.6,405.8 302.2,404.1 279.5,417.5 272.7,415.7 		"/>
		<polygon class="st0" points="272.7,415.7 279.5,417.5 273.1,421.2 266.3,419.4 		"/>
		<polygon class="st0" points="312.7,431.6 280.7,473.8 238.4,441.7 243.2,438.8 279.7,466.5 307.3,430.2 		"/>
		<polygon class="st0" points="271,403.1 301.4,398.9 289.6,405.8 253.8,410.7 240.6,407.3 		"/>
		<polygon class="st0" points="261.1,64.6 256.6,61.1 261.5,58.2 266.1,61.7 		"/>
		<polygon class="st0" points="273,90.9 259.7,87.4 286.5,83.8 292.4,88.3 		"/>
		<polygon class="st0" points="273,90.9 307.9,100.1 318.9,108.4 289.2,100.6 259.4,92.8 		"/>
		<polygon class="st0" points="273,90.9 259.4,92.8 246.2,89.3 259.7,87.4 		"/>
		<polygon class="st0" points="253.8,410.7 272.7,415.7 266.3,419.4 240.2,412.6 		"/>
		<polygon class="st0" points="233.7,80.6 259.7,87.4 246.2,89.3 227.3,84.3 		"/>
		<path class="st0" d="M275.1,216.9c-16.5-12.5-39.9-10.9-54.5,3.8l-1.3,1.4l-1.2,1.4l-1.2,1.4l-2.1,3.1l-1,1.7
			c-9.8,17.5-5.8,39.5,9.6,52.3l1.4,1.2l1.5,1.1c17.2,11.8,40.1,9.1,54.3-6.2l1.2-1.4l1.2-1.4l1.1-1.5l1.1-1.6
			c10.7-17,7.6-39.2-7.3-52.7l-1.4-1.2L275.1,216.9z M210.4,225.2l1.2-1.8l1.2-1.7l1.3-1.6l1.4-1.6l1.5-1.6
			c16.6-16.5,42.7-18.3,61.4-4.2l1.6,1.3l1.6,1.4c16.7,15.2,20.1,40.2,8.1,59.4l-1.2,1.8l-1.2,1.7l-1.3,1.6l-1.4,1.6
			c-15.8,17.3-41.9,20.3-61.1,7l-1.7-1.2l-1.6-1.3c-17.7-14.8-22.1-40.1-10.3-59.9L210.4,225.2z"/>
		<polygon class="st0" points="273.1,421.2 243.2,438.8 238.8,435.5 266.3,419.4 		"/>
		<polygon class="st0" points="227,409.1 240.6,407.3 253.8,410.7 240.2,412.6 		"/>
		<polygon class="st0" points="238.4,441.7 233.9,438.3 238.8,435.5 243.2,438.8 		"/>
		<polygon class="st0" points="261.1,64.6 233.7,80.6 226.5,78.7 256.6,61.1 		"/>
		<polygon class="st0" points="226.5,78.7 233.7,80.6 227.3,84.3 220.1,82.5 		"/>
		<polygon class="st0" points="240.6,407.3 227,409.1 192,399.9 181.1,391.7 210.8,399.5 		"/>
		<polygon class="st0" points="213.5,416.3 207.6,411.8 227,409.1 240.2,412.6 		"/>
		<polygon class="st0" points="192.7,69.9 226.5,78.7 220.1,82.5 189.3,74.4 		"/>
		<polygon class="st0" points="233.9,438.3 206.2,417.3 213.5,416.3 238.8,435.5 		"/>
		<polygon class="st0" points="198.6,101.1 210.4,94.2 246.2,89.3 259.4,92.8 229,96.9 		"/>
		<polygon class="st0" points="207.6,411.8 213.5,416.3 206.2,417.3 200.3,412.8 		"/>
		<path class="st0" d="M325.3,378.8l43.5-38.6l25.4-52.3l3.5-58l-19-55l-38.6-43.6l-52.3-25.4l-58.1-3.5l-55,19l-43.5,38.6
			l-25.4,52.3l-3.5,58.1l19,55l38.6,43.5l52.3,25.4l58,3.5L325.3,378.8z M373,343.4l-45.1,40L271,403l-60.2-3.6L156.7,373l-40-45.1
			L97,271l3.7-60.1l26.3-54.2l45.1-40L229,97l60.2,3.6l54.2,26.3l40,45.1l19.7,57l-3.7,60.1L373,343.4z"/>
		<polygon class="st0" points="220.3,33.6 192.7,69.9 187.2,68.4 219.3,26.2 261.5,58.2 256.6,61.1 		"/>
		<polygon class="st0" points="196.8,96.1 210.4,94.2 198.6,101.1 185,103 		"/>
		<polygon class="st0" points="192,399.9 207.6,411.8 200.3,412.8 178.8,396.5 		"/>
		<polygon class="st0" points="227.3,84.3 210.4,94.2 196.8,96.1 220.1,82.5 		"/>
		<polygon class="st0" points="170.1,99.7 196.8,96.1 185,103 165.6,105.6 		"/>
		<polygon class="st0" points="192.7,69.9 189.3,74.4 183.8,72.9 187.2,68.4 		"/>
		<polygon class="st0" points="192,399.9 178.8,396.5 167.9,388.2 181.1,391.7 		"/>
		<polygon class="st0" points="181.1,391.7 167.9,388.2 139,366.3 132.1,354.5 156.6,373.1 		"/>
		<polygon class="st0" points="189.3,74.4 170.1,99.7 162.7,100.8 183.8,72.9 		"/>
		<polygon class="st0" points="200.3,412.8 206.2,417.3 171.6,422 168.7,417.1 		"/>
		<polygon class="st0" points="194.6,461.3 233.9,438.3 238.4,441.7 192.7,468.5 165.9,422.8 171.6,422 		"/>
		<polygon class="st0" points="170.1,99.7 165.6,105.6 158.3,106.6 162.7,100.8 		"/>
		<polygon class="st0" points="168.7,417.1 171.6,422 165.9,422.8 163.1,417.9 		"/>
		<polygon class="st0" points="178.8,396.5 152.7,389.6 148.9,383.2 167.9,388.2 		"/>
		<polygon class="st0" points="152.7,389.6 168.7,417.1 163.1,417.9 145.5,387.7 		"/>
		<polygon class="st0" points="141.9,128.2 158.3,106.6 165.6,105.6 153.8,121.3 		"/>
		<polygon class="st0" points="145.5,387.7 141.7,381.4 148.9,383.2 152.7,389.6 		"/>
		<polygon class="st0" points="185,103 198.6,101.1 172,116.6 145.5,132.2 153.8,121.3 		"/>
		<polygon class="st0" points="158.3,106.6 126.7,111 128.1,105.5 162.7,100.8 		"/>
		<polygon class="st0" points="139,366.3 148.9,383.2 141.7,381.4 128.1,358 		"/>
		<polygon class="st0" points="133.6,139.1 141.9,128.2 153.8,121.3 145.5,132.2 		"/>
		<polygon class="st0" points="108.3,181.2 111.8,167.9 133.6,139.1 145.5,132.2 126.9,156.6 		"/>
		<polygon class="st0" points="139,366.3 128.1,358 121.2,346.2 132.1,354.5 		"/>
		<polygon class="st0" points="183.8,72.9 139.7,61.4 128.1,105.5 122.5,106.3 136,55 187.2,68.4 		"/>
		<polygon class="st0" points="132.1,354.5 121.2,346.2 103,315 101.1,301.5 116.6,328 		"/>
		<polygon class="st0" points="128.1,105.5 126.7,111 121.1,111.7 122.5,106.3 		"/>
		<polygon class="st0" points="121.2,346.2 128.1,358 106.6,341.7 105.6,334.4 		"/>
		<polygon class="st0" points="118.6,141.8 141.9,128.2 133.6,139.1 116.8,149 		"/>
		<polygon class="st0" points="126.7,111 118.6,141.8 112.2,145.5 121.1,111.7 		"/>
		<polygon class="st0" points="145.5,387.7 111.7,378.9 111,373.3 141.7,381.4 		"/>
		<polygon class="st0" points="118.6,141.8 116.8,149 110.4,152.7 112.2,145.5 		"/>
		<polygon class="st0" points="116.8,149 111.8,167.9 103.5,178.8 110.4,152.7 		"/>
		<polygon class="st0" points="111.7,378.9 117.9,424.1 163.1,417.9 165.9,422.8 113.4,430 106.2,377.5 		"/>
		<polygon class="st0" points="111,373.3 111.7,378.9 106.2,377.5 105.5,371.8 		"/>
		<polygon class="st0" points="111.8,167.9 108.3,181.2 100,192.1 103.5,178.8 		"/>
		<polygon class="st0" points="100,192.1 108.3,181.2 100.5,210.9 92.8,240.5 90.9,226.9 		"/>
		<polygon class="st0" points="106.6,341.7 111,373.3 105.5,371.8 100.7,337.3 		"/>
		<polygon class="st0" points="105.6,334.4 106.6,341.7 100.7,337.3 99.7,329.9 		"/>
		<polygon class="st0" points="103,315 105.6,334.4 99.7,329.9 96,303.2 		"/>
		<polygon class="st0" points="101.1,301.5 103,315 96,303.2 94.2,289.6 		"/>
		<polygon class="st0" points="96.9,271 101.1,301.5 94.2,289.6 89.3,253.8 92.8,240.5 		"/>
		<polygon class="st0" points="96,303.2 82.4,279.9 84.3,272.7 94.2,289.6 		"/>
		<polygon class="st0" points="103.5,178.8 100,192.1 88.3,207.6 87.2,200.2 		"/>
		<polygon class="st0" points="90.9,226.9 92.8,240.5 89.3,253.8 87.4,240.2 		"/>
		<polygon class="st0" points="87.4,240.2 83.7,213.5 88.3,207.6 90.9,226.9 		"/>
		<polygon class="st0" points="112.2,145.5 110.4,152.7 82.9,168.7 82.2,163.1 		"/>
		<polygon class="st0" points="82.9,168.7 87.2,200.2 82.7,206.2 78,171.6 		"/>
		<polygon class="st0" points="82.7,206.2 87.2,200.2 88.3,207.6 83.7,213.5 		"/>
		<polygon class="st0" points="82.2,163.1 82.9,168.7 78,171.6 77.2,166 		"/>
		<polygon class="st0" points="80.6,266.3 87.4,240.2 89.3,253.8 84.3,272.7 		"/>
		<polygon class="st0" points="80.6,266.3 84.3,272.7 82.4,279.9 78.7,273.5 		"/>
		<polygon class="st0" points="77.2,166 70,113.5 122.5,106.3 121.1,111.7 76,117.9 82.2,163.1 		"/>
		<polygon class="st0" points="100.7,337.3 72.9,316.2 74.4,310.7 99.7,329.9 		"/>
		<polygon class="st0" points="69.8,307.2 78.7,273.5 82.4,279.9 74.4,310.7 		"/>
		<polygon class="st0" points="69.8,307.2 74.4,310.7 72.9,316.2 68.4,312.7 		"/>
		<polygon class="st0" points="72.9,316.2 61.4,360.3 105.5,371.8 106.2,377.5 55,364 68.4,312.7 		"/>
		<polygon class="st0" points="78.7,273.5 61.1,243.4 64.5,238.9 80.6,266.3 		"/>
		<polygon class="st0" points="61.7,234 64.5,238.9 61.1,243.4 58.2,238.5 		"/>
		<polygon class="st0" points="61.7,234 82.7,206.2 83.7,213.5 64.5,238.9 		"/>
		<polygon class="st0" points="31.5,192.7 77.2,166 78,171.6 38.7,194.6 61.7,234 58.2,238.5 		"/>
		<polygon class="st0" points="33.6,279.7 69.8,307.2 68.4,312.7 26.2,280.7 58.2,238.5 61.1,243.4 		"/>
	</g>
	<g>
		<path class="st0" d="M249.9,298.7c-9.6,0-19.3-2.8-27.6-8.6l-1.8-1.3l-1.6-1.3c-18.6-15.5-23.1-41.7-10.8-62.5l1.8-2.7l1.3-1.9
			l1.3-1.6l1.5-1.8l1.5-1.6c17.5-17.4,44.4-19.2,64-4.4l1.7,1.4l1.6,1.4c17.5,15.9,21.1,41.9,8.5,61.9l-1.2,1.9l-1.2,1.7l-1.3,1.7
			l-1.4,1.7C276.5,293.3,263.3,298.7,249.9,298.7z M222.9,285.6l1.7,1.2c18.3,12.7,43.4,9.8,58.5-6.7l1.3-1.6l1.2-1.5l1.1-1.6
			l1.1-1.7c11.5-18.3,8.2-42.2-7.8-56.8l-1.6-1.4l-1.6-1.2c-18-13.6-42.7-11.9-58.7,4.1l-1.4,1.5l-1.4,1.6l-1.2,1.5l-1.2,1.7
			l-1.7,2.6c-11.3,19-7.1,43.1,9.9,57.3L222.9,285.6z"/>
		<path class="st0" d="M361.7,441.1L58.9,361.7l79.3-302.8l302.8,79.4L361.7,441.1z M63.8,358.9l295,77.3l77.4-295l-295-77.4
			L63.8,358.9z"/>
		<path class="st0" d="M281.1,476.6L23.4,281.1L218.9,23.4l257.7,195.5L281.1,476.6z M29,280.3L280.3,471L471,219.7L219.7,29
			L29,280.3z"/>
		<path class="st0" d="M365.4,447.5L52.5,365.4l82.1-312.9l312.9,82L365.4,447.5z M57.4,362.6l305.2,80l80-305.2l-305.1-80
			L57.4,362.6z"/>
		<path class="st0" d="M191.9,471.2L28.8,192.1L307.9,28.8l162.9,278.4L191.9,471.2z M34.3,193.5l159.2,272.3l271.9-160L306.5,34.3
			L34.3,193.5z"/>
		<path class="st0" d="M193.9,464.1L35.9,193.9l270.2-158l157.9,270.2L193.9,464.1z M41.4,195.3l153.9,263.2l263.3-153.9L304.7,41.4
			L41.4,195.3z"/>
		<path class="st0" d="M111.7,432.2L67.8,111.8l320.5-44l44,320.5L111.7,432.2z M72.3,115.2l42.9,312.5l312.6-42.9L384.8,72.3
			L72.3,115.2z"/>
		<path class="st0" d="M116.2,426.4L73.7,116.2l310.1-42.5l42.5,310.1L116.2,426.4z M78.2,119.6l41.4,302.2l302.1-41.5L380.4,78.2
			L78.2,119.6z"/>
		<path class="st0" d="M280.1,469.3L30.7,280.1L219.9,30.7L469.3,220L280.1,469.3z M36.4,279.3l242.9,184.4l184.3-242.9L220.7,36.4
			L36.4,279.3z"/>
		<path class="st0" d="M270.5,399.7l-0.4,0l-58.4-3.5l-0.4-0.2l-52.7-25.6l-39.1-44.1l-19.3-55.7l0-0.4l3.5-58.5l25.8-53l44.1-39.1
			l55.7-19.3l58.9,3.5l0.4,0.2l52.7,25.6l0.3,0.3l38.8,43.9l19.3,55.7l0,0.4l-3.5,58.4l-25.8,53l-44.1,39.2L270.5,399.7z
			 M212.7,392.2l57.2,3.4l54.3-18.7l42.9-38.1l25.1-51.6l3.4-57.2l-18.8-54.2l-38-43l-51.6-25.1l-57.3-3.4l-54.2,18.8l-42.9,38
			l-25.1,51.6l-3.4,57.3l18.8,54.2l38,42.9L212.7,392.2z"/>
		<path class="st0" d="M250,293.6c-8.5,0-17.1-2.5-24.7-7.7l-1.6-1.2l-1.5-1.2c-16.2-13.4-20.4-36.5-10.1-54.8l1.1-1.8l2.2-3.2
			l1.2-1.4l1.3-1.5l1.4-1.4c15.3-15.3,39.8-17,57.1-4l1.5,1.2l1.5,1.3c15.6,14.2,18.8,37.5,7.6,55.3l-1.1,1.6l-1.2,1.7l-2.4,2.9
			C273.6,288.7,261.8,293.6,250,293.6z M216.5,229.1l-1,1.6c-9.3,16.6-5.5,37.5,9.2,49.7l1.4,1.1l1.4,1.1c16.4,11.2,38.1,8.7,51.6-6
			l2.3-2.7l1-1.4l1-1.6c10.1-16.1,7.2-37.2-6.9-50.1l-1.4-1.2l-1.4-1.1c-15.7-11.8-38-10.3-51.8,3.6l-1.3,1.4l-1.2,1.3l-1.1,1.3
			L216.5,229.1z"/>
		<path class="st0" d="M271.3,405.1l-61-3.7l-54.9-26.7L114.9,329l-19.9-57.7l3.7-60.9l0.2-0.4l26.5-54.6l45.7-40.5L228.7,95l61,3.7
			l0.4,0.2l54.5,26.5l40.5,45.7l19.9,57.7l-3.7,60.9l-0.2,0.4l-26.5,54.6L329,385.1L271.3,405.1z M211.3,397.4l59.4,3.6l56.2-19.4
			l44.5-39.4l26-53.5l3.6-59.3l-19.4-56.2l-39.5-44.5l-53.4-26l-59.4-3.6l-56.2,19.4l-44.5,39.4l-26,53.5L99,270.7l19.4,56.2
			l39.5,44.5L211.3,397.4z"/>
	</g>
</g>
</svg>
