<?xml version="1.0" encoding="utf-8"?>
<!-- Generator: Adobe Illustrator 26.0.3, SVG Export Plug-In . SVG Version: 6.00 Build 0)  -->
<svg version="1.1" id="Layer_1" xmlns="http://www.w3.org/2000/svg" xmlns:xlink="http://www.w3.org/1999/xlink" x="0px" y="0px"
	 viewBox="0 0 250 250" style="enable-background:new 0 0 250 250;" xml:space="preserve">
<style type="text/css">
	.st0{fill:#FFFFFF;}
</style>
<g>
	<polygon class="st0" points="125,141.5 167.1,162.6 250,162.6 250,170.5 167.1,170.5 125.7,149.4 0,149.4 0,141.5 	"/>
	<polygon class="st0" points="250,58.6 250,65.9 125,65.9 83.6,44.8 0,44.8 0,36.9 83.6,36.9 125,58.6 	"/>
	<polygon class="st0" points="250,204.7 250,212.6 84.2,212.6 42.1,191.5 0,191.5 0,184.3 42.1,184.3 84.2,204.7 	"/>
	<polygon class="st0" points="250,120.5 250,128.4 208.6,108 42.1,108 0,86.9 0,79 42.1,99.4 208.6,99.4 	"/>
</g>
</svg>
