<?xml version="1.0" encoding="utf-8"?>
<!-- Generator: Adobe Illustrator 26.0.3, SVG Export Plug-In . SVG Version: 6.00 Build 0)  -->
<svg version="1.1" id="Layer_1" xmlns="http://www.w3.org/2000/svg" xmlns:xlink="http://www.w3.org/1999/xlink" x="0px" y="0px"
	 viewBox="0 0 38 38" style="enable-background:new 0 0 38 38;" xml:space="preserve">
<style type="text/css">
	.st0{fill:#FFFFFF;}
</style>
<path class="st0" d="M30.5,18h3.8v1h-0.2c-1,0-3.8,0-4.3,0c-1.4,0-2.8,0.2-4.2,0.3l-0.4,0c-2.1,0.2-4.3,0.3-6.3,0.5
	c-1,0.1-1.9,0.1-2.9,0.2l-0.3,0c-1.3-0.1-4.3-0.4-6.5-0.5c1-0.1,2-0.1,3-0.2l0.4,0c2.1-0.2,4.2-0.3,6.3-0.5c1-0.1,2-0.2,2.9-0.2
	l0.3,0C23.8,18.4,29.1,18,30.5,18z"/>
<path class="st0" d="M30.5,21.3h3.8v1h-1.2c-0.9,0-1.7,0-2.6,0c-0.5,0-1,0-1.4,0.1H29c-0.9,0.1-1.7,0.1-2.4,0.2
	c-2.4,0.2-4.8,0.4-7.1,0.5l-1.8,0.1c-2.2,0.2-4.5,0.4-6.7,0.5c-0.9,0.1-1.6,0.1-2.4,0.2H8.6c-0.5,0-1,0-1.4,0H3.3v-1h0.3
	c1.1,0,3.8,0,4.3,0c1.4-0.1,2.9-0.2,4.3-0.3l0.3,0c2.2-0.2,4.4-0.3,6.6-0.5c0.9-0.1,1.8-0.2,2.7-0.2l0.3,0
	C23.8,21.7,29.1,21.3,30.5,21.3z"/>
<path class="st0" d="M18.2,20.4c2.2,0.2,7.4,0.6,10.3,0.8c-2.2,0.1-5.3,0.4-6.5,0.5l-0.3,0c-0.9-0.1-1.9-0.1-2.8-0.2
	c-2.1-0.2-4.3-0.4-6.4-0.5l-0.4,0c-1.4-0.1-2.8-0.2-4.3-0.3c-0.5,0-3.2,0-4.3,0H3.3v-1h0.2c0.8,0,2.5,0,3.6,0v0
	c1.4,0,6.7,0.4,8.5,0.6l0.3,0L18.2,20.4z"/>
<path class="st0" d="M18.8,18.1c-2.1-0.2-4.2-0.4-6.3-0.5l-0.4,0c-1.4-0.1-2.8-0.2-4.2-0.3c-0.5,0-3.3,0-4.3,0H3.3v-1h3.8
	c1.4,0,6.8,0.4,8.6,0.6l0.2,0l0.1,0c0.5,0,0.9,0.1,1.4,0.1l0.8,0.1c2.3,0.2,7.4,0.6,10.4,0.8c-2.1,0.1-5.1,0.4-6.5,0.5l-0.3,0
	C20.8,18.3,19.8,18.2,18.8,18.1z"/>
<path class="st0" d="M30.5,14.6h3.8v1h-0.3c-1.1,0-3.7,0-4.3,0c-1.4,0.1-2.8,0.2-4.2,0.3l-0.4,0c-2.1,0.2-4.2,0.3-6.3,0.5
	c-1,0.1-2,0.2-2.9,0.2l-0.2,0c-1.3-0.1-4.4-0.4-6.6-0.5c0.6,0,1.2-0.1,1.9-0.1c2.4-0.2,4.8-0.4,7.1-0.6l1.8-0.1
	c2.2-0.2,4.5-0.4,6.7-0.5c0.9-0.1,1.6-0.1,2.4-0.2h0.1C29.5,14.7,30,14.6,30.5,14.6z"/>
</svg>
