<?xml version="1.0" encoding="utf-8"?>
<!-- Generator: Adobe Illustrator 26.0.3, SVG Export Plug-In . SVG Version: 6.00 Build 0)  -->
<svg version="1.1" id="Layer_1" xmlns="http://www.w3.org/2000/svg" xmlns:xlink="http://www.w3.org/1999/xlink" x="0px" y="0px"
	 viewBox="0 0 250 250" style="enable-background:new 0 0 250 250;" xml:space="preserve">
<style type="text/css">
	.st0{fill:#FFFFFF;}
</style>
<g id="GUIDE">
</g>
<g>
	<path class="st0" d="M66.6,70.7c-6.4,25-8.4,50.7-5.7,76.4c-3.4-1.6-6.8-3.3-10.1-5.2c-1.7-22.9,0-45.9,5.2-68.3
		c3.5-1.2,7.1-2.3,10.7-3.3L66.6,70.7z"/>
	<path class="st0" d="M188.9,193.3l0.4-0.1c-2.3,7.4-5.1,14.8-8.2,21.9c-2.2-1-6.5-2.8-8.8-3.8c2.2-5,4.1-10.1,5.9-15.2
		C181.8,195.3,185.4,194.3,188.9,193.3z"/>
	<path class="st0" d="M77.5,211.1l0.1,0.2c-0.4,0.2-8.4,3.6-8.8,3.8c-7.7-17.7-13.1-36.4-16-55.5c3.4,1.7,7,3.2,10.5,4.6
		C66.3,180.5,71,195.9,77.5,211.1z"/>
	<path class="st0" d="M157.2,89.4C146.6,87.2,135.8,86,125,86c-21.1,0-41.7,4.3-61.1,12.6c0.5-3.7,1-7.4,1.7-11
		c28.1-11,59-13.9,88.7-8.5C155.4,82.5,156.3,86,157.2,89.4z"/>
	<path class="st0" d="M166.9,171.1c-4.6,15.6-11.5,30.4-20.4,44c-0.3-0.3-7.7-5-8-5.3c7.6-11.6,13.4-23.6,17.8-36.7
		c3.6-0.7,7.2-1.5,10.8-2.4L166.9,171.1z"/>
	<path class="st0" d="M141.9,199.2c-22.8,1.7-45.9-0.1-68.2-5.3c-1.2-3.5-2.3-7.1-3.3-10.7c25,6.5,51.1,8.5,76.8,5.9
		c-1.6,3.4-3.3,6.8-5.2,10.1L141.9,199.2z"/>
	<path class="st0" d="M35.1,146.6l-0.2-0.1c0.8-1.3,4.4-6.6,5.2-8c11.5,7.6,23.6,13.4,36.7,17.8c0.7,3.6,1.5,7.2,2.4,10.8
		C63.6,162.4,48.7,155.6,35.1,146.6z"/>
	<path class="st0" d="M138.6,40.3l-0.1-0.2c0.4-0.2,7.6-5,8-5.2c3.1,4.7,6,9.7,8.6,14.7c-3.8-0.5-7.7-0.9-11.6-1.2
		C142,45.6,140.3,42.9,138.6,40.3z"/>
	<path class="st0" d="M186.1,151.3c-0.5,3.7-1,7.4-1.7,11c-28.1,11-59,13.9-88.7,8.5c-1.1-3.4-2-6.9-2.9-10.3
		C124,167.2,156.9,164,186.1,151.3z"/>
	<path class="st0" d="M98.5,185.7l0.2,0.4c-3.7-0.5-7.4-1-11-1.6c-11-28.2-13.9-58.9-8.5-88.7c3.4-1.1,6.9-2.1,10.3-2.9
		C82.8,124.1,85.9,156.3,98.5,185.7z"/>
	<path class="st0" d="M215,146.3l0.1,0.2c-4.7,3.1-9.7,6-14.7,8.6c0.5-3.8,0.9-7.7,1.2-11.6c2.8-1.6,5.6-3.3,8.2-5.1
		C210,138.8,214.8,146,215,146.3z"/>
	<path class="st0" d="M61.1,56.7l-0.4,0.1c2.3-7.4,5.1-14.8,8.2-21.9c2.2,1,6.6,2.8,8.8,3.8c-2.2,5-4.1,10.1-5.9,15.2
		C68.2,54.7,64.6,55.7,61.1,56.7z"/>
	<path class="st0" d="M35,69l-0.1-0.2c17.7-7.7,36.4-13.1,55.5-16c-1.7,3.4-3.2,7-4.6,10.5C69.4,66.3,54,71,38.7,77.6
		C38.3,76.8,35.2,69.7,35,69z"/>
	<path class="st0" d="M160.6,156.8c6.6-31.3,3.4-63.5-9.3-92.9c3.7,0.5,7.4,1,11,1.6c11,28.2,13.9,58.9,8.5,88.7
		c-3.4,1.1-6.9,2-10.3,2.9L160.6,156.8z"/>
	<path class="st0" d="M215,181l0.1,0.2c-17.7,7.7-36.4,13.1-55.5,16c1.7-3.4,3.2-7,4.6-10.5c16.4-3,31.8-7.7,47.1-14.3
		C211.4,172.7,214.9,180.7,215,181z"/>
	<path class="st0" d="M56.7,188.9l0.1,0.4c-7.4-2.3-14.8-5.1-21.9-8.2c0.1-0.4,3.6-8.4,3.8-8.8c5,2.2,10.1,4.2,15.2,5.9
		C54.7,181.8,55.7,185.4,56.7,188.9z"/>
	<path class="st0" d="M83.1,78.9c4.6-15.6,11.4-30.5,20.4-44c0.4,0.2,7.6,5,8,5.2C103.9,51.7,98,63.7,93.7,76.9
		c-3.6,0.7-7.2,1.5-10.8,2.4L83.1,78.9z"/>
	<path class="st0" d="M108.1,50.8c22.8-1.7,45.9,0.1,68.2,5.3c1.2,3.5,2.3,7.1,3.3,10.7c-25-6.5-51.1-8.5-76.8-5.8
		c1.6-3.4,3.3-6.8,5.2-10.1L108.1,50.8z"/>
	<path class="st0" d="M209.7,111.4c-11.5-7.6-23.5-13.3-36.5-17.6c-0.7-3.6-1.5-7.2-2.4-10.8c15.8,4.6,30.7,11.5,44.4,20.5
		c-0.2,0.4-5,7.6-5.2,8L209.7,111.4z"/>
	<path class="st0" d="M111.4,209.7l0.1,0.2c-0.3,0.3-7.7,5-8,5.3c-3.1-4.7-6-9.7-8.6-14.7c3.8,0.5,7.7,0.9,11.6,1.2
		C108,204.4,109.7,207.1,111.4,209.7z"/>
	<path class="st0" d="M193.3,61.1l-0.1-0.4c7.4,2.4,14.8,5.1,21.9,8.2c-0.2,0.4-3.6,8.4-3.8,8.8c-5-2.1-10.1-4.2-15.2-5.9
		C195.3,68.2,194.3,64.6,193.3,61.1z"/>
	<path class="st0" d="M172.5,38.9l-0.1-0.2c0.4-0.2,8.4-3.6,8.8-3.8c7.7,17.7,13.1,36.4,16,55.5c-3.4-1.6-6.9-3.2-10.5-4.6
		C183.7,69.5,179,54.1,172.5,38.9z"/>
	<path class="st0" d="M183.7,179.5l-0.4,0.1c6.5-25.1,8.5-51,5.8-76.8c3.4,1.6,6.8,3.4,10.1,5.2c1.7,22.9,0,45.9-5.2,68.3
		C190.6,177.5,187.1,178.6,183.7,179.5z"/>
	<path class="st0" d="M35,103.7l-0.1-0.2c4.7-3.1,9.7-6.1,14.7-8.6c-0.5,3.8-0.9,7.7-1.2,11.6c-2.8,1.6-5.5,3.3-8.2,5.1
		C39.1,109.9,36,105.2,35,103.7z"/>
</g>
</svg>
