<?xml version="1.0" encoding="utf-8"?>
<!-- Generator: Adobe Illustrator 26.0.3, SVG Export Plug-In . SVG Version: 6.00 Build 0)  -->
<svg version="1.1" id="Layer_1" xmlns="http://www.w3.org/2000/svg" xmlns:xlink="http://www.w3.org/1999/xlink" x="0px" y="0px"
	 viewBox="0 0 95 95" style="enable-background:new 0 0 95 95;" xml:space="preserve">
<style type="text/css">
	.st0{fill:#FFFFFF;}
</style>
<g id="BACKGROUND_00000173856266543225763700000015899828280851352229_">
</g>
<g id="Layer_1_00000156551574776202479400000013625465338772927115_">
	<g>
		<rect x="66.1" y="23.4" class="st0" width="15.2" height="47.6"/>
		<polygon class="st0" points="84.7,27.1 82.3,32.8 82.3,26.1 82.3,26.1 		"/>
		<polygon class="st0" points="82.3,39.5 84,38.8 84,41.3 82.3,41.3 		"/>
		<polygon class="st0" points="86.4,31.8 82.3,35.9 82.3,35.4 84.6,30 		"/>
		<polygon class="st0" points="85.2,34.4 86.1,36.8 82.3,38.4 82.3,37.3 		"/>
		<polygon class="st0" points="65.1,72.1 66,72.1 65.4,73.6 51.4,67.8 65.1,34.6 		"/>
		<polygon class="st0" points="77,22.4 75.9,22.4 74.8,21.9 75.6,21.1 		"/>
		<polygon class="st0" points="73.3,22.4 70.2,22.4 70.6,21.3 		"/>
		<polygon class="st0" points="50.2,67.9 50.2,67.9 41.5,76.6 30.8,65.9 65.1,31.6 65.1,32 		"/>
		<polygon class="st0" points="38.9,56.4 24.7,62.2 18.9,48.2 65.1,29.1 65.1,30.2 		"/>
		<polygon class="st0" points="32.9,41.3 8.6,41.3 8.6,26.1 65.1,26.1 65.1,28 		"/>
	</g>
</g>
</svg>
