<?xml version="1.0" encoding="utf-8"?>
<!-- Generator: Adobe Illustrator 26.0.3, SVG Export Plug-In . SVG Version: 6.00 Build 0)  -->
<svg version="1.1" xmlns="http://www.w3.org/2000/svg" xmlns:xlink="http://www.w3.org/1999/xlink" x="0px" y="0px"
	 viewBox="0 0 95 95" enable-background="new 0 0 95 95" xml:space="preserve">
<g id="Layer_1">
	<g id="grx">
		<path fill="#FFFFFF" d="M-668.11,416.535c-0.07-0.07-0.13-0.14-0.19-0.21c0-0.07,0.02-0.15,0.04-0.22
			C-668.2,416.245-668.15,416.385-668.11,416.535z"/>
	</g>
	<g id="Layer_1_00000061473409905720821000000002766409183225156536_">
	</g>
</g>
<g id="background">
</g>
<g id="grx_00000030460020235243646910000010933251530849157264_">
	<path fill="#FFFFFF" d="M82.723,32.249c-1.135-1.325-2.361-2.481-3.75-3.533c-1.728-1.316-3.641-2.443-5.849-3.446
		c-2.111-0.953-4.448-1.782-7.149-2.532c-2.1-0.577-4.253-1.072-6.402-1.469c-0.947-0.175-1.914-0.338-2.875-0.481
		c-0.356-0.054-0.714-0.105-1.069-0.154l-0.146-0.02c-0.394-0.052-0.788-0.102-1.181-0.15c-0.369-0.044-0.759-0.088-1.161-0.13
		l-0.122-0.013c-1.377-0.144-2.777-0.238-4.161-0.274c-1.233-0.035-2.483-0.003-3.716,0.095c-1.162,0.095-2.326,0.266-3.461,0.508
		l-0.144,0.031c-1.203,0.263-2.346,0.612-3.488,1.069c-1.11,0.44-2.127,0.984-3.109,1.667c-0.937,0.665-1.663,1.36-2.261,2.165
		c-0.01,0.01-0.018,0.02-0.027,0.031c-1.257,1.584-2.694,3.181-4.27,4.747c-1.602,1.588-3.351,3.156-5.349,4.792
		c-1.994,1.635-4.18,3.29-6.684,5.063c-1.273,0.902-2.582,1.803-4.004,2.754c-1.4,0.936-2.85,1.881-4.427,2.886
		c-0.659,0.411-1.256,0.868-1.824,1.393c-0.601,0.549-1.087,1.159-1.49,1.878c-0.998,1.855-0.911,3.378,0.329,5.169
		c0,0.001,0.001,0.003,0.004,0.006c1.544,2.445,2.93,4.74,4.238,7.02c0.646,1.128,1.274,2.252,1.864,3.344
		c0.297,0.549,0.594,1.104,0.882,1.653c0.296,0.563,0.566,1.087,0.826,1.603c0.117,0.229,0.252,0.452,0.397,0.659
		c0.908,1.311,2.05,2.101,3.485,2.883c2.405,1.318,4.871,2.042,6.966,2.576c1.176,0.298,2.377,0.56,3.57,0.778
		c2.231,0.409,4.512,0.715,6.776,0.915c0.543,0.048,1.093,0.092,1.636,0.13c1.79,0.13,3.603,0.195,5.407,0.195
		c0.588,0,1.176-0.007,1.763-0.021c3.21-0.072,6.302-0.396,9.456-0.991c4.67-0.902,9.046-2.293,13.38-4.256
		c4.714-2.136,8.67-4.628,12.096-7.62c3.239-2.828,5.554-5.673,7.287-8.952c1.448-2.737,2.23-5.316,2.464-8.115
		C87.848,41.14,86.219,36.349,82.723,32.249z M46.547,59.903c-0.041,0.011-0.082,0.024-0.123,0.034
		c0.052-0.016,0.105-0.03,0.157-0.045C46.569,59.896,46.558,59.9,46.547,59.903z M72.858,39.022
		c-0.416,2.278-1.377,4.163-3.321,6.507c-2.062,2.486-4.534,4.553-8.021,6.699c-3.48,2.139-7.379,3.928-11.925,5.469
		c-1.172,0.399-2.343,0.761-3.519,1.09c-0.038,0.011-0.076,0.021-0.115,0.031c-0.793,0.223-1.578,0.427-2.354,0.612
		c-0.062,0.016-0.124,0.03-0.187,0.045c-0.211,0.049-0.419,0.098-0.626,0.144c-0.171,0.04-0.344,0.078-0.515,0.113
		c-0.171,0.038-0.344,0.075-0.515,0.109c-0.17,0.037-0.339,0.071-0.509,0.105c-0.314,0.062-0.626,0.122-0.937,0.177
		c-0.175,0.033-0.351,0.064-0.526,0.093c-0.158,0.027-0.318,0.054-0.476,0.079c-0.542,0.089-1.082,0.168-1.622,0.24h-0.004
		c-0.553,0.074-1.104,0.137-1.656,0.194c-8.615,0.915-17.431-0.164-24.185-2.958c-2.117-0.882-3.819-1.784-5.25-3.328
		c-0.158-0.168-0.312-0.349-0.455-0.534c-0.066-0.088-0.129-0.172-0.187-0.256c-0.017-0.023-0.033-0.044-0.048-0.065
		c-0.977-1.411-1.027-2.432-0.245-3.885c0.334-0.594,0.741-1.107,1.248-1.571c0.515-0.475,1.053-0.887,1.653-1.26
		c1.589-1.014,3.046-1.964,4.454-2.906c1.431-0.956,2.749-1.864,4.031-2.771c2.527-1.79,4.734-3.463,6.75-5.114
		c2.028-1.66,3.805-3.253,5.434-4.868c0.679-0.674,1.332-1.355,1.957-2.036c-0.02,0.144-0.035,0.29-0.048,0.438
		c-0.103,1.25,0.062,2.487,0.519,3.891c0.059,0.182,0.122,0.365,0.195,0.56c0.075,0.204,0.158,0.41,0.245,0.615
		c0.083,0.201,0.165,0.385,0.247,0.56l0.008,0.018c0.082,0.177,0.171,0.359,0.263,0.542c0.638,1.267,1.377,2.428,2.016,3.396
		c0.952,1.445,1.974,2.867,3.039,4.225c0.229,0.344,0.536,0.748,0.905,1.188c0.003,0.003,0.006,0.007,0.01,0.011
		c0.288,0.369,0.584,0.73,0.885,1.072c2.897,3.289,5.64,5.137,8.636,5.816c0.769,0.175,1.545,0.252,2.315,0.252
		c3.565,0,6.975-1.643,8.884-2.763c0.286-0.167,0.382-0.536,0.214-0.821c-0.167-0.287-0.536-0.383-0.821-0.215
		c-2.168,1.27-6.39,3.266-10.325,2.375c-2.575-0.584-4.977-2.148-7.518-4.904c-0.01-0.01-0.018-0.02-0.027-0.03
		c0-0.01,0.003-0.021,0.006-0.031c0.307-1.534,0.698-3.068,1.162-4.561c0.501-1.581,1.058-2.945,1.705-4.168
		c0.778-1.47,1.718-2.766,2.869-3.953c0.642-0.643,1.35-1.241,2.11-1.774c0.755-0.532,1.544-0.991,2.346-1.367
		c1.589-0.744,3.381-1.236,5.326-1.459c1.029-0.119,2.107-0.161,3.205-0.127c1.148,0.034,2.306,0.153,3.443,0.351
		c1.073,0.188,2.035,0.428,2.937,0.735c0.899,0.307,1.731,0.679,2.462,1.103c1.766,1.048,2.87,2.135,3.693,3.631
		c0.156,0.286,0.294,0.583,0.411,0.885C73.046,36.06,73.155,37.403,72.858,39.022z"/>
</g>
</svg>
