<?xml version="1.0" encoding="utf-8"?>
<!-- Generator: Adobe Illustrator 26.0.3, SVG Export Plug-In . SVG Version: 6.00 Build 0)  -->
<svg version="1.1" id="Layer_1" xmlns="http://www.w3.org/2000/svg" xmlns:xlink="http://www.w3.org/1999/xlink" x="0px" y="0px"
	 viewBox="0 0 38 38" style="enable-background:new 0 0 38 38;" xml:space="preserve">
<style type="text/css">
	.st0{fill:#FFFFFF;}
</style>
<path class="st0" d="M37.2,5.8v-5h-5.9V9h-5.8V0.8h-6.7V9H13V0.8H6.3V9H0.8v8.5h5.5v15H0.8v4.7h5.9v-7.1h5.8v7.1h6.7v-7.1H25v7.2
	h6.7v-7.1h5.5v-9.3h-5.5V5.8H37.2z M12.5,20.8H6.7V5.7h5.8V20.8z M18.8,32.6H13V17.5h5.8V32.6z M25,20.8h-5.8V5.7H25V20.8z
	 M31.3,32.6h-5.8V17.5h5.8V32.6z"/>
</svg>
