<?xml version="1.0" encoding="utf-8"?>
<!-- Generator: Adobe Illustrator 26.0.3, SVG Export Plug-In . SVG Version: 6.00 Build 0)  -->
<svg version="1.1" id="Layer_1" xmlns="http://www.w3.org/2000/svg" xmlns:xlink="http://www.w3.org/1999/xlink" x="0px" y="0px"
	 viewBox="0 0 141.8 141.8" style="enable-background:new 0 0 141.8 141.8;" xml:space="preserve">
<style type="text/css">
	.st0{fill:#FFFFFF;}
</style>
<polygon class="st0" points="128.8,45.3 128.8,46.2 128.7,46.2 13,46.2 13,45.3 "/>
<polygon class="st0" points="130.5,44.5 11.2,44.5 11.2,43.5 130.6,43.5 130.6,44.5 "/>
<rect x="13.1" y="41.9" class="st0" width="115.5" height="0.9"/>
<rect x="13.4" y="46.9" class="st0" width="114.8" height="0.9"/>
<rect x="15.2" y="48.5" class="st0" width="111.3" height="1"/>
<rect x="16.4" y="40.3" class="st0" width="109" height="0.9"/>
<rect x="18.2" y="50.2" class="st0" width="105.3" height="0.9"/>
<rect x="22.3" y="51.9" class="st0" width="97.1" height="0.9"/>
<rect x="27.4" y="53.5" class="st0" width="86.9" height="1"/>
<rect x="29" y="73.3" class="st0" width="83.8" height="1"/>
<rect x="28.5" y="75" class="st0" width="84.7" height="1"/>
<rect x="29.1" y="76.7" class="st0" width="83.5" height="0.9"/>
<rect x="30.5" y="71.7" class="st0" width="80.7" height="0.9"/>
<rect x="30.7" y="78.2" class="st0" width="80.4" height="1"/>
<rect x="30.2" y="79.9" class="st0" width="81.2" height="1"/>
<rect x="30.8" y="81.6" class="st0" width="80.1" height="0.9"/>
<rect x="32.3" y="35.3" class="st0" width="77.2" height="0.9"/>
<rect x="32.3" y="83.2" class="st0" width="77.2" height="1"/>
<rect x="33.2" y="70.1" class="st0" width="75.4" height="0.9"/>
<rect x="33.3" y="55.2" class="st0" width="75.2" height="0.9"/>
<rect x="34.6" y="84.9" class="st0" width="72.6" height="0.9"/>
<rect x="36.8" y="106.4" class="st0" width="68" height="0.9"/>
<rect x="36.8" y="68.3" class="st0" width="68" height="1"/>
<rect x="36.6" y="108.1" class="st0" width="68.6" height="0.9"/>
<rect x="37.1" y="109.8" class="st0" width="67.5" height="0.9"/>
<rect x="37.5" y="113" class="st0" width="66.7" height="0.9"/>
<rect x="37.7" y="86.6" class="st0" width="66.4" height="0.9"/>
<rect x="37.4" y="114.7" class="st0" width="66.9" height="0.9"/>
<rect x="38" y="104.8" class="st0" width="65.7" height="0.9"/>
<rect x="38.1" y="116.4" class="st0" width="65.4" height="0.9"/>
<rect x="38.3" y="111.4" class="st0" width="65" height="0.9"/>
<rect x="38.5" y="33.6" class="st0" width="64.8" height="1"/>
<rect x="39.1" y="141.2" class="st0" width="63.4" height="0.6"/>
<rect x="39.4" y="139.6" class="st0" width="62.9" height="0.9"/>
<rect x="39.6" y="118.1" class="st0" width="62.4" height="0.9"/>
<rect x="39.8" y="56.9" class="st0" width="62.1" height="0.9"/>
<rect x="40.1" y="103.1" class="st0" width="61.6" height="0.9"/>
<rect x="40.6" y="137.9" class="st0" width="60.6" height="0.9"/>
<rect x="41.5" y="88.1" class="st0" width="58.8" height="1"/>
<rect x="41.6" y="66.8" class="st0" width="58.5" height="0.9"/>
<rect x="41.9" y="119.7" class="st0" width="58" height="0.9"/>
<rect x="42.4" y="136.2" class="st0" width="56.9" height="0.9"/>
<rect x="42.9" y="101.5" class="st0" width="55.9" height="0.9"/>
<rect x="44.6" y="32" class="st0" width="52.5" height="0.9"/>
<rect x="44.8" y="121.4" class="st0" width="52.2" height="0.9"/>
<rect x="44.7" y="27" class="st0" width="52.3" height="0.9"/>
<rect x="45" y="134.6" class="st0" width="51.7" height="0.9"/>
<rect x="45.9" y="89.9" class="st0" width="50" height="0.9"/>
<rect x="46.5" y="99.8" class="st0" width="48.8" height="0.9"/>
<rect x="46.8" y="58.4" class="st0" width="48.1" height="1"/>
<rect x="47.3" y="65.1" class="st0" width="47.2" height="0.9"/>
<rect x="48.2" y="132.9" class="st0" width="45.3" height="0.9"/>
<rect x="48.3" y="123" class="st0" width="45.2" height="0.9"/>
<rect x="48.9" y="30.3" class="st0" width="43.9" height="0.9"/>
<rect x="50.7" y="98.1" class="st0" width="40.3" height="1"/>
<rect x="50.7" y="91.6" class="st0" width="40.3" height="0.9"/>
<rect x="52" y="131.3" class="st0" width="37.7" height="1"/>
<rect x="52.3" y="124.7" class="st0" width="37.2" height="0.9"/>
<rect x="52.2" y="28.7" class="st0" width="37.3" height="0.9"/>
<rect x="53.7" y="63.4" class="st0" width="34.3" height="1"/>
<rect x="54.1" y="60.2" class="st0" width="33.5" height="0.9"/>
<rect x="55.6" y="96.5" class="st0" width="30.5" height="0.9"/>
<rect x="56" y="93.1" class="st0" width="29.7" height="1"/>
<rect x="56.3" y="129.6" class="st0" width="29.1" height="0.9"/>
<rect x="56.7" y="126.3" class="st0" width="28.3" height="0.9"/>
<rect x="60.8" y="61.8" class="st0" width="20.1" height="0.9"/>
<rect x="61" y="128" class="st0" width="19.8" height="0.9"/>
<rect x="60.9" y="94.8" class="st0" width="19.9" height="0.9"/>
<rect x="26.1" y="36.9" class="st0" width="89.5" height="0.9"/>
<rect x="20.6" y="38.6" class="st0" width="100.5" height="1"/>
</svg>
