<?xml version="1.0" encoding="utf-8"?>
<!-- Generator: Adobe Illustrator 26.0.3, SVG Export Plug-In . SVG Version: 6.00 Build 0)  -->
<svg version="1.1" id="Layer_1" xmlns="http://www.w3.org/2000/svg" xmlns:xlink="http://www.w3.org/1999/xlink" x="0px" y="0px"
	 viewBox="0 0 38 38" enable-background="new 0 0 38 38" xml:space="preserve">
<path fill="#FFFFFF" d="M19,20.9h-3.4l-2,2.3h3.3L19,20.9z M23.3,17.1L21,19.8l3.4-1.2l3.5-0.1l-2.2-1.4H23.3z M23.2,14.7l1.9-2h3.4
	l3.3-1.2l3.6-1.4l-2.1,6.1l-2,3.7l-2,2.3l-2,0.2l-2,1.4l-2,2.3h-3.4l-3.4,1.6h-3.4l-3.4-1l-3.4-1l-3.4,0.7l2-1.7l1.9-1.5l3.5-0.1
	l2-2.3h-1.5l-0.5,0.6l-3.5,0.1l2.1-2.4h1.5l0.5-0.6l2-1.5l2-2.3h3.5L16.3,17l3.4,0.4l2-2.7H23.2z"/>
</svg>
