<?xml version="1.0" encoding="utf-8"?>
<!-- Generator: Adobe Illustrator 26.0.3, SVG Export Plug-In . SVG Version: 6.00 Build 0)  -->
<svg version="1.1" xmlns="http://www.w3.org/2000/svg" xmlns:xlink="http://www.w3.org/1999/xlink" x="0px" y="0px"
	 viewBox="0 0 95 95" enable-background="new 0 0 95 95" xml:space="preserve">
<g id="Layer_1">
	<g id="Layer_3">
		<g>
			<path fill="#010101" d="M-49.916,30.293L-49.916,30.293L-49.916,30.293L-49.916,30.293z"/>
		</g>
		<g>
			<path fill="#010101" d="M-49.916,30.293L-49.916,30.293L-49.916,30.293L-49.916,30.293z"/>
		</g>
	</g>
	<g id="Layer_1_00000181086667468686701720000001614318142379980957_">
	</g>
</g>
<g id="Layer_3_00000124860759467318129350000011636797862891922875_">
	<g>
		<path fill="#FFFFFF" d="M82.04,75.31H15.81V34.641h66.23V75.31z M16.81,74.31h64.23V35.641H16.81V74.31z"/>
	</g>
	<g>
		<path fill="#FFFFFF" d="M64.002,85.035L13.25,42.555l26.178-31.16l50.751,42.477L64.002,85.035z M14.66,42.432l49.219,41.194
			l24.89-29.632L39.551,12.802L14.66,42.432z"/>
	</g>
	<g>
		<path fill="#FFFFFF" d="M68.889,83.992L11.563,50.877L31.969,15.68l57.324,33.113L68.889,83.992z M12.931,50.511l55.593,32.115
			l19.402-33.468L32.334,17.045L12.931,50.511z"/>
	</g>
	<g>
		<path fill="#FFFFFF" d="M73.882,81.64l-0.47-0.169L11.606,59.139l13.866-38.237l62.276,22.501L73.882,81.64z M12.888,58.54
			l60.395,21.821l13.186-36.358l-60.396-21.82L12.888,58.54z"/>
	</g>
	<g>
		<path fill="#FFFFFF" d="M78.217,78.812L12.978,67.421l0.087-0.492L20,27.362l65.237,11.393L78.217,78.812z M14.137,66.609
			l63.268,11.047l6.675-38.088L20.812,28.52L14.137,66.609z"/>
	</g>
</g>
</svg>
