<?xml version="1.0" encoding="utf-8"?>
<!-- Generator: Adobe Illustrator 26.0.3, SVG Export Plug-In . SVG Version: 6.00 Build 0)  -->
<svg version="1.1" id="Layer_1" xmlns="http://www.w3.org/2000/svg" xmlns:xlink="http://www.w3.org/1999/xlink" x="0px" y="0px"
	 viewBox="0 0 95 95" enable-background="new 0 0 95 95" xml:space="preserve">
<g id="Layer_4_00000068670214855546128850000016147908647341112477_">
	<g>
		<path fill="#FFFFFF" d="M75.102,38.225c0.664-0.316,1.275-0.748,1.801-1.264c0.527-0.516,0.959-1.127,1.285-1.791
			c0.327-0.653,0.537-1.369,0.632-2.117c0.063-0.6,0.053-1.211-0.042-1.822h0.011l-0.084-0.379c-0.316-1.401-0.927-2.454-1.98-3.423
			l-0.042-0.042c-0.537-0.485-1.148-0.864-1.812-1.148c-0.685-0.295-1.401-0.463-2.138-0.516c-0.748-0.053-1.485,0.021-2.201,0.221
			c-0.706,0.2-1.38,0.516-1.991,0.937c-0.042,0.032-0.074,0.053-0.105,0.074c0.305-0.463,0.579-0.948,0.822-1.454
			c0.516-1.085,0.885-2.212,1.106-3.371c0.116-0.621,0.19-1.253,0.211-1.907c2.043-0.295,4.14-0.053,6.088,0.695
			c1.433,0.548,2.728,1.348,3.855,2.37c1.959,1.791,3.086,3.75,3.666,6.341c0.779,3.539-0.074,7.3-2.296,10.154
			c-0.569-0.305-1.159-0.558-1.77-0.769c-1.117-0.4-2.286-0.643-3.465-0.727c-0.316-0.021-0.621-0.032-0.937-0.032
			c-0.253,0-0.495,0.011-0.737,0.021C75.018,38.257,75.06,38.236,75.102,38.225z"/>
		<path fill="#FFFFFF" d="M67.318,41.185c-0.095,0.063-0.2,0.137-0.305,0.19c-0.19,0.116-0.39,0.221-0.6,0.305
			c-0.295,0.116-0.611,0.211-0.948,0.274s-0.664,0.095-0.969,0.095c-0.011,0-0.021,0-0.021,0c-0.653,0-1.285-0.116-1.885-0.348
			c-0.263-0.095-0.506-0.211-0.737-0.348c-0.611-0.348-1.148-0.832-1.569-1.39c0.664-0.442,1.369-0.811,2.096-1.095
			c0.906-0.358,1.843-0.6,2.812-0.737c0.474-0.063,0.959-0.105,1.422-0.105c0.453,0,0.927,0.011,1.422,0.063
			c0.432,0.042,0.822,0.095,1.18,0.179c0.19,0.042,0.39,0.095,0.653,0.169l0.232,0.063c0.158,0.042,0.305,0.084,0.463,0.126
			c0.2,0.053,0.358,0.084,0.506,0.105c0.253,0.053,0.506,0.084,0.758,0.105c-0.632,0.19-1.253,0.432-1.854,0.716
			c-0.421,0.2-0.832,0.421-1.201,0.653c-0.169,0.105-0.337,0.221-0.548,0.358l-0.463,0.316
			C67.624,40.985,67.476,41.079,67.318,41.185z"/>
		<path fill="#FFFFFF" d="M59.197,56.458c0.916-0.158,1.854-0.074,2.781,0.274c0.274,0.095,0.548,0.232,0.822,0.4
			c0.305,0.179,0.569,0.369,0.801,0.579c0.169,0.147,0.327,0.316,0.463,0.485c0.074,0.084,0.137,0.179,0.221,0.295
			c0.116,0.158,0.232,0.316,0.348,0.474l0.284,0.411c0.137,0.179,0.263,0.358,0.4,0.516c0.274,0.358,0.59,0.706,0.906,1.032
			c0.463,0.463,0.959,0.906,1.496,1.306c-0.242-0.074-0.495-0.126-0.748-0.169c-0.158-0.021-0.327-0.042-0.506-0.063
			c-0.147-0.021-0.305-0.032-0.474-0.042c-0.074,0-0.158,0-0.253-0.011c-0.242-0.021-0.463-0.042-0.674-0.074
			c-0.369-0.053-0.748-0.126-1.169-0.232c-0.474-0.116-0.927-0.263-1.348-0.432c-0.474-0.179-0.906-0.369-1.306-0.579
			c-0.864-0.453-1.675-1.011-2.391-1.654c-0.59-0.516-1.127-1.095-1.612-1.738C57.838,56.848,58.512,56.584,59.197,56.458z"/>
		<path fill="#FFFFFF" d="M75.576,64.885c0.643,0,1.296-0.032,1.928-0.126c1.117,3.444,0.643,7.278-1.306,10.323
			c-1.422,2.244-3.16,3.697-5.604,4.719c-2.854,1.19-6.151,1.222-9.059,0.105c-0.453-0.169-0.906-0.379-1.338-0.6
			c0.2-0.621,0.348-1.253,0.453-1.875c0.19-1.169,0.232-2.359,0.105-3.539c-0.053-0.558-0.147-1.117-0.274-1.654
			c0.021,0.032,0.053,0.074,0.074,0.105c0.432,0.611,0.959,1.138,1.559,1.559c0.453,0.327,0.937,0.59,1.454,0.779
			c0.179,0.074,0.348,0.126,0.537,0.179c0.706,0.211,1.443,0.295,2.191,0.253c0.737-0.042,1.454-0.211,2.138-0.495
			c1.306-0.537,2.233-1.296,2.981-2.465l0.19-0.2l-0.021-0.063c0.337-0.569,0.579-1.19,0.737-1.843
			c0.169-0.716,0.211-1.464,0.137-2.212c-0.084-0.737-0.284-1.454-0.6-2.117c-0.327-0.664-0.748-1.275-1.275-1.801
			c-0.032-0.032-0.063-0.063-0.095-0.095c0.516,0.221,1.043,0.411,1.58,0.558C73.217,64.705,74.397,64.874,75.576,64.885z"/>
		<path fill="#FFFFFF" d="M59.64,38.857c-0.274-0.643-0.421-1.348-0.421-2.054c0-0.927,0.242-1.833,0.706-2.633
			c0.179-0.284,0.369-0.558,0.579-0.801c0.221-0.263,0.463-0.485,0.706-0.685c0.169-0.137,0.358-0.263,0.558-0.369
			c0.095-0.053,0.2-0.116,0.327-0.169l0.99-0.474c0.158-0.074,0.369-0.179,0.579-0.295c0.411-0.221,0.801-0.463,1.169-0.716
			c0.548-0.379,1.064-0.79,1.538-1.253c-0.105,0.232-0.2,0.474-0.295,0.716c-0.053,0.169-0.105,0.327-0.147,0.485l-0.179,0.695
			c-0.053,0.242-0.116,0.453-0.179,0.653c-0.116,0.358-0.263,0.716-0.432,1.117c-0.2,0.432-0.421,0.864-0.664,1.264
			c-0.232,0.4-0.506,0.79-0.801,1.18c-0.579,0.758-1.264,1.454-2.043,2.065C61.019,38.067,60.356,38.499,59.64,38.857z"/>
		<path fill="#FFFFFF" d="M54.952,62.567c-0.169-0.916-0.095-1.854,0.221-2.718c0.242-0.664,0.621-1.275,1.106-1.801
			c0.537,0.579,1.011,1.211,1.433,1.885c0.506,0.822,0.916,1.717,1.211,2.633c0.147,0.463,0.263,0.927,0.358,1.39
			c0.084,0.432,0.147,0.895,0.179,1.411c0.042,0.432,0.053,0.822,0.032,1.19c-0.011,0.242-0.032,0.485-0.053,0.674l-0.011,0.179
			c-0.021,0.179-0.042,0.358-0.053,0.548c-0.011,0.179-0.021,0.348-0.021,0.506c-0.011,0.263,0,0.516,0.032,0.769
			c-0.305-0.59-0.643-1.159-1.032-1.706c-0.263-0.379-0.558-0.737-0.853-1.064c-0.126-0.147-0.274-0.305-0.442-0.474l-0.411-0.432
			c-0.116-0.116-0.242-0.232-0.358-0.358c-0.105-0.105-0.179-0.19-0.242-0.263c-0.158-0.179-0.284-0.358-0.4-0.548
			c-0.169-0.263-0.316-0.558-0.432-0.874C55.1,63.21,55.005,62.883,54.952,62.567z"/>
		<path fill="#FFFFFF" d="M54.826,49.622c0.011-0.369,0.042-0.727,0.095-1.117c0.105-0.421,0.179-0.843,0.211-1.211
			c0.074-0.327,0.169-0.664,0.274-1.001c0.748,0.716,1.569,1.338,2.454,1.843c0.274,0.158,0.548,0.305,0.832,0.453
			c-0.316,0.032-0.621,0.074-0.937,0.126C56.753,48.906,55.774,49.201,54.826,49.622z"/>
		<path fill="#FFFFFF" d="M49.464,39.215c-0.305-0.137-0.611-0.284-0.916-0.442c0.822-0.611,1.569-1.296,2.223-2.075
			c0.211-0.242,0.411-0.495,0.6-0.758c-0.021,0.327-0.032,0.643-0.032,0.969c0.011,1.022,0.137,2.033,0.379,3.012
			c-0.337-0.074-0.664-0.158-0.99-0.253C50.307,39.468,49.865,39.31,49.464,39.215z"/>
		<path fill="#FFFFFF" d="M47.21,57.09c-0.358-0.959-0.832-1.875-1.401-2.728c0.327-0.053,0.643-0.084,0.948-0.105
			c0.474,0.042,0.959,0.042,1.39,0c0.337,0.011,0.685,0.053,1.043,0.095c-0.579,0.864-1.043,1.78-1.39,2.739
			c-0.116,0.295-0.211,0.59-0.295,0.895C47.41,57.68,47.316,57.385,47.21,57.09z"/>
		<path fill="#FFFFFF" d="M43.092,15.979c-0.421-0.611-0.937-1.138-1.548-1.58c-0.6-0.442-1.264-0.769-1.97-0.98
			c-0.706-0.211-1.443-0.305-2.17-0.274h-0.105c-1.338,0.074-2.423,0.463-3.518,1.275l-0.105,0.084
			c-0.6,0.453-1.106,1.001-1.496,1.612c-0.411,0.621-0.706,1.306-0.885,2.022s-0.232,1.454-0.158,2.201
			c0.074,0.737,0.263,1.454,0.579,2.128c0.011,0.042,0.032,0.084,0.053,0.116c-0.411-0.379-0.843-0.737-1.296-1.064
			c-0.927-0.674-1.949-1.222-3.023-1.633l-0.095-0.042c-0.611-0.221-1.222-0.4-1.854-0.537c0.126-3.613,1.885-7.047,4.75-9.259
			c2.107-1.612,4.234-2.391,6.889-2.507c1.675-0.074,3.318,0.19,4.887,0.801c1.801,0.685,3.423,1.801,4.708,3.223
			c-0.4,0.516-0.758,1.053-1.064,1.601c-0.59,1.032-1.032,2.138-1.317,3.286c-0.137,0.537-0.242,1.085-0.305,1.633
			c-0.011-0.032-0.021-0.074-0.032-0.105C43.819,17.264,43.513,16.59,43.092,15.979z"/>
		<path fill="#FFFFFF" d="M43.155,32.874c-0.316-0.737-0.548-1.485-0.706-2.254c-0.2-0.948-0.274-1.917-0.242-2.907
			c0.021-0.474,0.063-0.948,0.137-1.411c0.074-0.453,0.179-0.916,0.316-1.39c0.116-0.432,0.242-0.801,0.379-1.127
			c0.074-0.19,0.169-0.39,0.316-0.706l0.063-0.126c0.074-0.147,0.137-0.295,0.211-0.442c0.063-0.137,0.126-0.284,0.2-0.474
			c0.084-0.242,0.158-0.495,0.221-0.727c0.084,0.653,0.211,1.306,0.39,1.949c0.116,0.442,0.274,0.874,0.442,1.306
			c0.084,0.211,0.158,0.4,0.242,0.59l0.453,0.99c0.053,0.116,0.105,0.232,0.147,0.348c0.074,0.2,0.147,0.421,0.19,0.643
			c0.063,0.305,0.095,0.632,0.105,0.969c0,0.348-0.021,0.674-0.074,0.99c-0.158,0.906-0.558,1.77-1.148,2.475
			C44.356,32.105,43.787,32.548,43.155,32.874z"/>
		<path fill="#FFFFFF" d="M36.298,48.6c0.4-0.2,0.79-0.411,1.169-0.653c0.369,0.242,0.737,0.495,1.106,0.779l0.074,0.063h0.011
			c0.2,0.158,0.411,0.316,0.611,0.485c-0.664-0.232-1.348-0.411-2.033-0.537C36.93,48.684,36.614,48.632,36.298,48.6z"/>
		<path fill="#FFFFFF" d="M36.667,67.549c-0.39,0.537-0.727,1.106-1.032,1.696c0.032-0.242,0.042-0.506,0.032-0.758
			c0-0.179-0.011-0.358-0.021-0.506c-0.011-0.169-0.032-0.327-0.053-0.516l-0.021-0.211c-0.021-0.253-0.042-0.463-0.042-0.685
			c-0.021-0.369-0.011-0.758,0.021-1.19c0.042-0.474,0.095-0.959,0.179-1.411c0.095-0.485,0.221-0.948,0.358-1.38
			c0.295-0.916,0.695-1.812,1.211-2.644c0.411-0.674,0.895-1.306,1.433-1.885c0.485,0.527,0.864,1.138,1.106,1.801
			c0.316,0.864,0.39,1.812,0.232,2.718c-0.063,0.305-0.147,0.621-0.263,0.948c-0.126,0.327-0.274,0.621-0.432,0.885
			c-0.116,0.179-0.253,0.358-0.4,0.537c-0.084,0.095-0.169,0.179-0.253,0.274c-0.147,0.147-0.284,0.295-0.442,0.453l-0.327,0.327
			c-0.179,0.19-0.316,0.337-0.432,0.474C37.225,66.802,36.94,67.16,36.667,67.549z"/>
		<path fill="#FFFFFF" d="M41.965,33.306c-0.695,0.169-1.411,0.19-2.107,0.063c-0.906-0.169-1.759-0.569-2.465-1.159
			c-0.253-0.211-0.474-0.442-0.695-0.706c-0.221-0.274-0.4-0.537-0.548-0.811c-0.105-0.2-0.19-0.411-0.263-0.611
			c-0.042-0.126-0.084-0.242-0.116-0.358l-0.295-1.053c-0.053-0.2-0.116-0.4-0.19-0.611c-0.137-0.432-0.305-0.864-0.506-1.285
			c-0.274-0.6-0.59-1.18-0.948-1.738c0.2,0.147,0.411,0.284,0.632,0.411c0.137,0.074,0.284,0.147,0.463,0.232
			c0.137,0.074,0.284,0.137,0.421,0.2l0.232,0.095c0.242,0.105,0.432,0.2,0.611,0.305c0.327,0.169,0.664,0.369,1.022,0.611
			c0.411,0.284,0.79,0.569,1.138,0.874c0.358,0.305,0.695,0.643,1.022,0.99c0.653,0.716,1.211,1.517,1.675,2.37
			C41.428,31.81,41.733,32.548,41.965,33.306z"/>
		<path fill="#FFFFFF" d="M33.085,56.721c0.579-0.211,1.201-0.316,1.812-0.316c0.305,0,0.611,0.021,0.906,0.074
			c0.685,0.116,1.359,0.39,1.959,0.769c-0.474,0.643-1.022,1.222-1.601,1.749c-0.727,0.643-1.527,1.201-2.391,1.654
			c-0.843,0.442-1.717,0.779-2.623,1.011c-0.421,0.105-0.864,0.19-1.296,0.253c-0.221,0.032-0.4,0.053-0.579,0.063l-0.369,0.021
			c-0.169,0.011-0.348,0.021-0.516,0.042c-0.126,0.011-0.253,0.032-0.379,0.053c-0.242,0.042-0.485,0.095-0.716,0.158
			c0.527-0.39,1.032-0.832,1.496-1.306c0.316-0.316,0.621-0.664,0.916-1.032c0.116-0.158,0.242-0.327,0.379-0.516l0.632-0.885
			c0.074-0.095,0.147-0.2,0.232-0.295c0.137-0.169,0.295-0.337,0.463-0.485c0.232-0.211,0.495-0.4,0.79-0.579
			C32.485,56.985,32.79,56.837,33.085,56.721z"/>
		<path fill="#FFFFFF" d="M22.984,46.178c-0.169-0.116-0.337-0.221-0.495-0.305c-0.169-0.095-0.337-0.179-0.506-0.253
			c0.737,0.042,1.475,0.021,2.191-0.063c0.411-0.053,0.843-0.126,1.275-0.221c0.179-0.042,0.348-0.084,0.516-0.126
			c0.116-0.021,0.221-0.053,0.327-0.084l0.6-0.169c0.116-0.032,0.211-0.053,0.316-0.063c0.221-0.053,0.463-0.074,0.737-0.095
			c0.221-0.011,0.453-0.011,0.737,0c0.263,0.011,0.474,0.021,0.653,0.032c0.169,0.021,0.358,0.053,0.569,0.095
			c0.305,0.053,0.611,0.116,0.916,0.179c1.39,0.316,2.749,0.79,4.055,1.401c0.506,0.232,1.001,0.495,1.506,0.779
			c-0.916,0.516-1.885,0.906-2.897,1.159c-1.296,0.337-2.633,0.442-3.982,0.337c-1.243-0.105-2.444-0.4-3.581-0.874
			c-0.263-0.116-0.537-0.232-0.79-0.358c-0.274-0.137-0.506-0.263-0.716-0.39c-0.169-0.095-0.316-0.19-0.453-0.295
			c-0.137-0.084-0.263-0.179-0.442-0.305C23.353,46.43,23.174,46.304,22.984,46.178z"/>
		<path fill="#FFFFFF" d="M18.834,75.133c-1.949-3.055-2.433-6.889-1.317-10.323c0.643,0.084,1.285,0.116,1.917,0.116
			c1.19-0.011,2.37-0.179,3.508-0.506c0.537-0.158,1.064-0.348,1.58-0.558c-0.032,0.021-0.063,0.053-0.095,0.084
			c-0.527,0.537-0.948,1.138-1.264,1.812s-0.516,1.39-0.6,2.117c-0.074,0.748-0.032,1.485,0.137,2.201
			c0.169,0.716,0.453,1.401,0.864,2.033c0.769,1.211,1.696,1.991,3.023,2.539l0.337,0.137l0.011-0.011
			c0.59,0.211,1.19,0.327,1.801,0.358c0.748,0.053,1.485-0.042,2.191-0.242c0.727-0.211,1.39-0.537,1.991-0.959
			c0.6-0.432,1.127-0.959,1.548-1.569c0.032-0.032,0.053-0.074,0.084-0.105c-0.126,0.537-0.221,1.095-0.284,1.654
			c-0.116,1.169-0.074,2.359,0.116,3.539c0.105,0.632,0.253,1.253,0.453,1.875c-3.086,1.633-6.836,1.875-10.122,0.611L24.406,79.8
			h-0.032C21.952,78.788,20.245,77.345,18.834,75.133z"/>
		<path fill="#FFFFFF" d="M53.414,43.86l0.021,0.053l0.021,0.042c0.611,1.338,0.737,2.812,0.369,4.276
			c-0.284,1.106-0.832,2.107-1.601,2.907l-0.042,0.032c-0.337,0.253-0.674,0.537-1.022,0.864c-0.653,0.432-1.369,0.748-2.138,0.937
			c-1.317,0.316-2.644,0.232-3.855-0.232c-0.463-0.179-0.906-0.411-1.317-0.685l-0.032-0.032c-0.347-0.226-0.634-0.49-0.916-0.779
			l-0.41-0.433c-0.948-1.064-1.959-2.001-3.086-2.876l-0.263-0.2c-1.18-0.874-2.454-1.643-3.781-2.265
			c-1.369-0.632-2.812-1.127-4.287-1.464c-0.305-0.074-0.632-0.147-0.969-0.2c-0.253-0.053-0.453-0.074-0.643-0.095
			c-0.221-0.032-0.463-0.042-0.748-0.053c-0.327,0-0.579,0-0.822,0.011c-0.348,0.021-0.643,0.053-0.906,0.105
			c-0.116,0.021-0.242,0.053-0.379,0.084c-0.126,0.032-0.242,0.063-0.358,0.105l-0.579,0.147c-0.147,0.042-0.305,0.084-0.463,0.116
			c-0.4,0.084-0.79,0.147-1.169,0.2c-0.843,0.095-1.706,0.105-2.56,0.021c-1.938-0.2-3.824-0.864-5.456-1.928
			c-1.032-0.674-1.949-1.496-2.728-2.444c-0.79-0.948-1.422-2.012-1.896-3.16c-0.463-1.138-0.758-2.349-0.853-3.571
			c-0.105-1.232-0.021-2.465,0.242-3.655c0.569-2.602,1.696-4.561,3.655-6.352c0.832-0.758,1.749-1.401,2.749-1.907
			c1.001-0.495,2.065-0.864,3.17-1.074c1.095-0.221,2.212-0.274,3.328-0.19c1.127,0.095,2.223,0.348,3.265,0.737l0.095,0.042
			c0.98,0.369,1.907,0.874,2.76,1.485c0.885,0.643,1.675,1.39,2.349,2.233c0.643,0.79,1.18,1.654,1.601,2.581
			c0.179,0.39,0.327,0.779,0.453,1.159c0.074,0.232,0.137,0.421,0.19,0.611c0.042,0.147,0.084,0.305,0.137,0.474
			c0.042,0.19,0.095,0.369,0.147,0.548c0.032,0.126,0.084,0.274,0.126,0.411c0.095,0.263,0.211,0.527,0.348,0.779
			c0.179,0.337,0.4,0.674,0.664,0.99c0.263,0.316,0.537,0.6,0.832,0.853c0.558,0.463,1.169,0.832,1.833,1.085
			c0.379,0.147,0.769,0.253,1.169,0.327c1.106,0.19,2.244,0.095,3.307-0.295c1.053-0.379,1.991-1.043,2.707-1.896
			c0.716-0.874,1.201-1.917,1.39-3.013c0.063-0.39,0.095-0.79,0.084-1.19c0-0.421-0.042-0.822-0.126-1.19
			c-0.063-0.295-0.137-0.569-0.232-0.811c-0.053-0.137-0.105-0.263-0.169-0.4l-0.453-1.001c-0.095-0.2-0.169-0.379-0.242-0.548
			c-0.147-0.379-0.284-0.779-0.39-1.19c-0.274-0.98-0.421-1.991-0.442-3.002c-0.021-1.074,0.095-2.159,0.369-3.213
			c0.253-1.053,0.664-2.065,1.19-3.012c0.548-0.98,1.232-1.875,2.022-2.665c0.801-0.79,1.696-1.464,2.675-2.012
			c0.98-0.537,2.022-0.948,3.118-1.211c0.906-0.211,1.833-0.316,2.76-0.316l0.569,0.032c1.411,0.053,2.654,0.305,3.813,0.748
			c1.043,0.4,2.043,0.969,3.055,1.749l0.316,0.221c0.769,0.632,1.464,1.348,2.054,2.138c0.664,0.885,1.211,1.875,1.612,2.918
			c0.4,1.053,0.653,2.149,0.758,3.265c0.095,1.117,0.042,2.233-0.158,3.339c-0.2,1.074-0.537,2.107-1.011,3.076
			s-1.074,1.885-1.78,2.697c-0.674,0.769-1.433,1.443-2.265,2.022c-0.337,0.232-0.695,0.453-1.074,0.653
			c-0.169,0.095-0.348,0.19-0.569,0.295l-0.98,0.474c-0.116,0.053-0.232,0.116-0.348,0.179c-0.253,0.137-0.485,0.295-0.706,0.474
			c-0.295,0.232-0.59,0.506-0.874,0.832c-0.263,0.316-0.495,0.632-0.685,0.969c-0.569,0.959-0.864,2.065-0.864,3.192
			c-0.011,1.127,0.284,2.233,0.853,3.202c0.558,0.969,1.369,1.78,2.349,2.338c0.284,0.169,0.579,0.305,0.885,0.421
			c0.727,0.284,1.496,0.432,2.275,0.432c0.011,0,0.021,0,0.042,0c0.379-0.011,0.779-0.042,1.19-0.126
			c0.4-0.074,0.79-0.179,1.148-0.327c0.263-0.105,0.516-0.232,0.758-0.379c0.105-0.063,0.211-0.126,0.369-0.232l0.895-0.621
			c0.19-0.126,0.358-0.232,0.506-0.327c0.358-0.221,0.727-0.421,1.106-0.6c0.906-0.432,1.875-0.748,2.876-0.948
			c1.053-0.211,2.149-0.284,3.234-0.2c1.074,0.074,2.149,0.295,3.171,0.653c1.043,0.369,2.043,0.885,2.97,1.527
			c0.916,0.643,1.738,1.411,2.444,2.286c0.706,0.864,1.285,1.833,1.727,2.854c0.442,1.032,0.748,2.117,0.895,3.223
			c0.348,2.633-0.042,4.866-1.275,7.226c-0.506,0.99-1.159,1.907-1.928,2.718c-0.769,0.822-1.654,1.527-2.602,2.107
			c-0.969,0.579-2.001,1.022-3.076,1.306c-1.085,0.295-2.223,0.432-3.318,0.432c-1.074-0.011-2.159-0.169-3.202-0.463
			s-2.043-0.727-2.97-1.296c-0.874-0.527-1.675-1.159-2.391-1.875c-0.284-0.284-0.558-0.6-0.822-0.937
			c-0.137-0.169-0.263-0.337-0.379-0.506l-0.263-0.369c-0.126-0.169-0.242-0.337-0.358-0.485c-0.095-0.137-0.179-0.253-0.263-0.348
			c-0.179-0.221-0.379-0.432-0.59-0.621c-0.284-0.253-0.611-0.485-0.969-0.706c-0.327-0.19-0.674-0.358-1.074-0.506
			c-1.053-0.39-2.191-0.495-3.297-0.305c-1.106,0.2-2.138,0.685-3.002,1.401c-0.864,0.727-1.517,1.664-1.896,2.718
			s-0.474,2.201-0.274,3.307c0.074,0.379,0.179,0.769,0.316,1.148c0.147,0.39,0.327,0.748,0.527,1.074
			c0.158,0.242,0.327,0.474,0.506,0.685c0.084,0.095,0.169,0.179,0.295,0.316l0.432,0.442c0.105,0.116,0.221,0.221,0.337,0.348
			c0.116,0.116,0.263,0.263,0.4,0.432c0.284,0.316,0.548,0.643,0.79,0.98c0.59,0.832,1.074,1.727,1.433,2.665
			c0.39,1.011,0.653,2.065,0.758,3.149c0.116,1.074,0.084,2.17-0.095,3.244c-0.179,1.095-0.516,2.17-0.99,3.192
			c-0.474,1.001-1.085,1.949-1.822,2.802c-0.737,0.853-1.591,1.591-2.517,2.201c-0.927,0.611-1.949,1.095-3.023,1.433
			c-2.433,0.769-4.624,0.801-7.047,0.095l-0.59-0.19c-0.948-0.327-1.854-0.779-2.707-1.327c-0.937-0.621-1.78-1.359-2.517-2.201
			c-0.737-0.843-1.348-1.791-1.822-2.802c-0.485-1.011-0.811-2.086-1.001-3.192c-0.179-1.064-0.211-2.149-0.105-3.234
			c0.116-1.085,0.369-2.138,0.758-3.149c0.369-0.948,0.853-1.843,1.433-2.675c0.232-0.327,0.495-0.653,0.779-0.98
			c0.126-0.147,0.263-0.295,0.432-0.463l0.316-0.316c0.137-0.147,0.284-0.295,0.432-0.442c0.095-0.105,0.19-0.2,0.295-0.316
			c0.19-0.221,0.358-0.453,0.495-0.685c0.2-0.316,0.379-0.685,0.527-1.074c0.147-0.39,0.253-0.779,0.327-1.148
			c0.2-1.106,0.095-2.254-0.284-3.307s-1.043-1.991-1.896-2.707c-0.864-0.727-1.907-1.211-3.013-1.401
			c-1.117-0.19-2.254-0.084-3.297,0.305c-0.358,0.126-0.727,0.305-1.074,0.516c-0.358,0.211-0.685,0.442-0.969,0.706
			c-0.211,0.19-0.411,0.39-0.579,0.611c-0.095,0.105-0.169,0.211-0.263,0.348l-0.643,0.885c-0.126,0.179-0.242,0.337-0.358,0.485
			c-0.263,0.327-0.537,0.643-0.832,0.937c-0.716,0.727-1.506,1.359-2.381,1.885c-0.916,0.558-1.917,0.99-2.97,1.285
			c-1.043,0.305-2.128,0.463-3.202,0.474c-1.148-0.011-2.233-0.137-3.318-0.432c-1.074-0.284-2.117-0.727-3.076-1.306
			c-0.959-0.569-1.833-1.275-2.602-2.086c-0.748-0.79-1.38-1.685-1.896-2.644l-0.043-0.08c-1.232-2.359-1.622-4.582-1.275-7.215
			c0.463-3.581,2.56-6.836,5.625-8.753c0.758,0.843,1.622,1.58,2.56,2.191c0.779,0.506,1.622,0.937,2.507,1.275
			c0.295,0.116,0.6,0.221,0.906,0.316c-0.169,0.011-0.337,0.032-0.495,0.053c-0.706,0.105-1.38,0.327-2.033,0.653
			c-0.632,0.327-1.19,0.748-1.685,1.243c-0.506,0.506-0.916,1.095-1.222,1.738c-0.305,0.632-0.506,1.306-0.6,2.012
			c-0.19,1.422,0.021,2.623,0.685,3.897c0.305,0.579,0.695,1.106,1.148,1.569s0.98,0.853,1.559,1.169
			c0.242,0.137,0.506,0.253,0.758,0.348c0.337,0.137,0.685,0.232,1.043,0.305c0.653,0.137,1.306,0.169,1.949,0.105
			c1.106-0.105,2.17-0.495,3.086-1.117c0.463-0.316,0.874-0.685,1.232-1.106c0.137-0.158,0.274-0.316,0.411-0.506
			c0.105-0.147,0.211-0.295,0.305-0.442l0.084-0.116c0.126-0.2,0.274-0.411,0.421-0.611c0.169-0.221,0.379-0.463,0.621-0.727
			c0.453-0.485,0.927-0.927,1.433-1.317c1.264-0.99,2.76-1.738,4.319-2.149c1.749-0.463,3.592-0.527,5.361-0.179
			c0.685,0.126,1.359,0.316,1.991,0.569c1.053,0.4,2.033,0.948,2.876,1.569c0.449,0.325,0.666,0.495,1.053,0.885
			c1.296,1.222,2.317,2.739,2.96,4.392c0.664,1.696,0.927,3.539,0.779,5.34c-0.137,1.612-0.611,3.213-1.369,4.635
			c-0.295,0.558-0.643,1.106-1.043,1.633c-0.221,0.295-0.411,0.537-0.611,0.748c-0.169,0.179-0.358,0.358-0.537,0.537
			c-0.158,0.147-0.316,0.305-0.463,0.463c-0.158,0.158-0.295,0.327-0.432,0.485c-0.358,0.442-0.643,0.916-0.874,1.411
			c-0.453,1.011-0.653,2.128-0.558,3.244c0.053,0.653,0.2,1.296,0.442,1.896c0.242,0.6,0.558,1.159,0.959,1.654
			c0.411,0.516,0.895,0.969,1.422,1.327c0.432,0.295,0.895,0.548,1.38,0.727c0.105,0.042,0.211,0.084,0.316,0.116l0.063,0.021
			c1.369,0.421,2.581,0.421,3.95-0.011c0.621-0.2,1.211-0.485,1.749-0.853c0.548-0.369,1.022-0.822,1.422-1.338
			c0.4-0.495,0.727-1.053,0.959-1.654c0.242-0.611,0.39-1.253,0.442-1.896c0.084-1.106-0.105-2.233-0.569-3.244
			c-0.221-0.495-0.516-0.969-0.874-1.411c-0.126-0.158-0.263-0.316-0.432-0.485c-0.147-0.158-0.305-0.316-0.485-0.485
			c-0.169-0.169-0.348-0.337-0.516-0.516c-0.19-0.2-0.379-0.442-0.611-0.737c-0.4-0.537-0.758-1.095-1.053-1.633
			c-0.758-1.433-1.232-3.034-1.369-4.635c-0.147-1.801,0.116-3.644,0.769-5.34c0.643-1.664,1.675-3.192,2.928-4.371
			c0.411-0.284,0.79-0.6,1.074-0.895c1.422-1.074,3.097-1.822,4.845-2.159c1.77-0.358,3.634-0.295,5.393,0.158
			c0.4,0.116,0.811,0.242,1.222,0.4c1.117,0.432,2.159,1.022,3.097,1.749c0.506,0.4,0.99,0.843,1.433,1.317
			c0.253,0.274,0.453,0.506,0.621,0.727c0.147,0.2,0.295,0.411,0.485,0.695c0.105,0.158,0.211,0.316,0.327,0.463
			c0.137,0.19,0.274,0.358,0.411,0.516c0.358,0.411,0.779,0.79,1.232,1.106c0.927,0.621,1.991,1.011,3.097,1.117
			c0.653,0.053,1.306,0.021,1.949-0.116c0.632-0.126,1.232-0.348,1.791-0.653c0.569-0.305,1.095-0.706,1.559-1.169
			c0.463-0.463,0.843-1.001,1.148-1.58c0.664-1.275,0.874-2.475,0.685-3.897c-0.095-0.653-0.274-1.285-0.537-1.875
			c-0.274-0.59-0.632-1.138-1.074-1.633c-0.421-0.474-0.916-0.885-1.464-1.222c-0.558-0.348-1.159-0.6-1.791-0.769
			c-1.074-0.274-2.212-0.284-3.286,0c-0.537,0.137-1.053,0.337-1.538,0.611c-0.19,0.105-0.379,0.221-0.558,0.348
			c-0.19,0.116-0.369,0.253-0.537,0.379c-0.2,0.147-0.411,0.295-0.621,0.432c-0.253,0.158-0.527,0.316-0.832,0.474
			c-0.6,0.305-1.201,0.558-1.801,0.748c-1.538,0.506-3.213,0.695-4.824,0.537c-1.085-0.095-2.159-0.348-3.202-0.748
			c-0.653-0.253-1.296-0.558-1.896-0.927c-1.527-0.916-2.844-2.201-3.792-3.644c-0.2-0.432-0.442-0.832-0.674-1.159
			c-0.822-1.591-1.275-3.392-1.317-5.193c-0.032-1.801,0.337-3.613,1.085-5.256c0.685-1.475,1.675-2.833,2.876-3.918
			c0.474-0.411,0.99-0.811,1.548-1.18c0.305-0.19,0.569-0.348,0.832-0.485c0.221-0.116,0.453-0.221,0.727-0.337
			c0.179-0.084,0.369-0.169,0.548-0.263c0.221-0.095,0.4-0.2,0.579-0.305c0.474-0.284,0.906-0.632,1.306-1.032
			c0.769-0.79,1.338-1.78,1.633-2.855c0.169-0.621,0.253-1.264,0.232-1.938c-0.021-0.632-0.137-1.275-0.337-1.875
			c-0.216-0.631-0.511-1.21-0.891-1.737c-0.369-0.527-0.822-1.001-1.348-1.401c-1.117-0.853-2.244-1.275-3.634-1.348l-0.095-0.011
			c-0.653-0.021-1.306,0.053-1.928,0.211c-0.632,0.169-1.243,0.421-1.791,0.769c-0.537,0.327-1.032,0.748-1.464,1.232
			c-0.442,0.485-0.801,1.043-1.074,1.633c-0.453,1.011-0.653,2.128-0.569,3.234c0.042,0.548,0.158,1.095,0.337,1.622
			c0.063,0.19,0.147,0.39,0.242,0.611c0.074,0.179,0.158,0.348,0.242,0.516l0.063,0.137c0.095,0.2,0.2,0.411,0.295,0.632
			c0.116,0.263,0.211,0.558,0.316,0.906c0.19,0.621,0.337,1.253,0.432,1.896c0.232,1.601,0.126,3.276-0.305,4.845
			c-0.474,1.738-1.348,3.371-2.539,4.719c-1.19,1.369-2.697,2.454-4.298,3.128c-0.211,0.063-0.421,0.137-0.632,0.211
			c-1.211,0.442-2.423,0.674-3.697,0.716c-1.275,0.042-2.517-0.116-3.729-0.463c-0.506-0.147-1.022-0.337-1.527-0.558
			c-0.242-0.116-0.442-0.211-0.632-0.305c-0.147-0.084-0.295-0.158-0.442-0.242l-0.653-0.358c-1.275-0.832-2.423-1.949-3.297-3.223
			c-0.232-0.337-0.442-0.685-0.643-1.053c-0.19-0.358-0.379-0.737-0.548-1.138c-0.137-0.337-0.253-0.621-0.337-0.906
			c-0.074-0.232-0.137-0.485-0.19-0.716c-0.084-0.316-0.169-0.643-0.274-0.959c-0.116-0.358-0.274-0.706-0.453-1.053
			c-0.474-0.864-1.159-1.633-1.97-2.212c-0.611-0.432-1.275-0.758-1.991-0.959c-0.727-0.2-1.475-0.284-2.223-0.242
			c-0.758,0.053-1.496,0.221-2.18,0.527c-0.664,0.274-1.264,0.664-1.812,1.159l-0.042,0.032c-1.053,0.98-1.664,2.033-1.97,3.434
			c-0.169,0.758-0.2,1.527-0.105,2.286c0.105,0.769,0.348,1.506,0.706,2.201c0.369,0.685,0.843,1.296,1.422,1.812
			c0.569,0.516,1.232,0.927,2.033,1.253c0.4,0.147,0.801,0.263,1.201,0.327c0.442,0.084,0.885,0.126,1.327,0.116
			c0.327-0.021,0.632-0.053,0.927-0.105c0.137-0.032,0.284-0.063,0.474-0.105c0.179-0.042,0.369-0.095,0.569-0.147
			c0.147-0.042,0.295-0.084,0.442-0.126c0.158-0.032,0.316-0.074,0.516-0.116c0.453-0.095,0.885-0.158,1.275-0.19
			c0.495-0.053,1.032-0.063,1.664-0.053c0.674,0.011,1.211,0.053,1.706,0.116c0.369,0.053,0.716,0.116,1.053,0.211
			c0.348,0.084,0.706,0.2,1.085,0.348c0.327,0.126,0.653,0.263,0.969,0.421l0.063,0.032c0.79,0.516,1.633,0.937,2.496,1.275
			c2.675,1.022,5.656,1.138,8.469,0.295l0.105-0.021c0.211-0.063,0.421-0.137,0.632-0.211v0.011l0.316-0.137
			c0.074-0.021,0.137-0.053,0.2-0.074l0.032-0.011c1.327-0.358,2.697-0.295,3.96,0.19c0.853,0.327,1.612,0.822,2.275,1.464
			c0.242,0.242,0.463,0.495,0.685,0.79l0.126,0.221l0.042,0.084c0.126,0.221,0.242,0.421,0.358,0.621l0.063,0.095L53.414,43.86z"/>
	</g>
</g>
</svg>
