<?xml version="1.0" encoding="utf-8"?>
<!-- Generator: Adobe Illustrator 26.0.3, SVG Export Plug-In . SVG Version: 6.00 Build 0)  -->
<svg version="1.1" xmlns="http://www.w3.org/2000/svg" xmlns:xlink="http://www.w3.org/1999/xlink" x="0px" y="0px"
	 viewBox="0 0 250 250" style="enable-background:new 0 0 250 250;" xml:space="preserve">
<style type="text/css">
	.st0{fill:#FFFFFF;}
</style>
<g id="Layer_1">
</g>
<g id="_x32_D_x5F_DRAWING_x24_A-LINE_x24_A-6-MCUT_00000025411417084620535940000004818618788991894667_">
	<g>
		<polygon class="st0" points="205.4,149.8 204,156.3 199.4,151.8 204.2,144 		"/>
		<polygon class="st0" points="205.4,130.6 204.2,136.4 199.4,128.6 203.9,124.1 		"/>
		<polygon class="st0" points="197.3,130.8 203.2,140.2 197.3,149.6 197.3,149.6 187.8,140.3 187.8,140.2 188.3,139.7 197.3,130.8 
					"/>
		<polygon class="st0" points="201.9,158.4 195.3,159.9 189.6,158.7 197.3,153.9 		"/>
		<polygon class="st0" points="201.8,122 197.5,126.3 197.3,126.5 189.6,121.8 195.2,120.6 200.5,121.7 		"/>
		<polygon class="st0" points="185.8,122.8 195.2,128.7 185.7,138.2 185.7,138.2 176.3,128.7 185.7,122.9 185.7,122.8 		"/>
		<polygon class="st0" points="195.2,151.7 185.8,157.6 176.4,151.8 185.7,142.4 185.8,142.4 		"/>
		<polygon class="st0" points="183.6,140.3 183.6,140.3 174.3,149.7 168.3,140.3 174.2,130.8 		"/>
		<polygon class="st0" points="174.2,153.9 182,158.7 176.3,159.9 170.7,158.7 169.7,158.5 		"/>
		<polygon class="st0" points="181.9,121.8 181.7,121.9 181.3,122.2 174.2,126.6 169.6,122 176.2,120.6 		"/>
		<polygon class="st0" points="167.3,144.1 172.1,151.8 167.6,156.4 166.1,149.8 167.3,144.2 		"/>
		<polygon class="st0" points="172.1,128.7 170.8,130.8 167.3,136.4 166.1,130.7 167.5,124.1 		"/>
		<polygon class="st0" points="160.9,103.7 160.1,113.5 152.7,108.1 157.9,98 		"/>
		<polygon class="st0" points="160.9,90.8 160.9,97.3 159.5,94.7 160.9,89.3 		"/>
		<polygon class="st0" points="154,70.1 160.7,78.6 157.3,91.6 149.9,81.9 		"/>
		<polygon class="st0" points="159.9,72.9 155.2,66.8 157.1,61.2 157.8,59.5 		"/>
		<polygon class="st0" points="151,110.5 158.4,115.9 149.4,119.6 143.1,118.7 		"/>
		<polygon class="st0" points="149.4,42.5 156.7,53.8 156.7,53.9 153,64 145.4,54.1 		"/>
		<polygon class="st0" points="156.2,95 150.3,106.4 138.6,97.9 148.2,84.6 148.3,84.6 		"/>
		<polygon class="st0" points="153.4,43.3 150.6,38.9 150.6,38.3 151,36 151.6,37.9 		"/>
		<polygon class="st0" points="151.8,67.3 151.8,67.3 147.5,79.7 143.1,76.6 134.1,70.1 143.8,56.9 143.9,56.8 		"/>
		<polygon class="st0" points="145.2,20.9 149,29.9 148,36.2 139.9,28.3 		"/>
		<polygon class="st0" points="148.6,108.8 139.6,118 127.3,113.6 136.9,100.3 		"/>
		<polygon class="st0" points="147.3,39.6 143.1,52 129.7,42.3 138.2,30.6 138.2,30.6 138.5,30.9 		"/>
		
			<rect x="125.9" y="75.9" transform="matrix(0.5867 -0.8098 0.8098 0.5867 -12.8053 143.6604)" class="st0" width="17" height="17"/>
		<polygon class="st0" points="143.3,121.6 141.3,122.3 135.9,124.1 140.3,121.2 		"/>
		<polygon class="st0" points="142.9,19.2 137.5,26.6 127.4,21.3 133,18.4 133.1,18.4 137.2,18.6 		"/>
		<polygon class="st0" points="128,44.7 141.8,54.7 131.8,68.4 118,58.4 		"/>
		<polygon class="st0" points="136.7,120 125.4,127.3 125.3,127.3 115.2,123.6 124.7,116.4 125.2,116 		"/>
		<polygon class="st0" points="135.8,29 127.3,40.6 113.9,31 124.4,23 128.4,25.1 		"/>
		<rect x="114.2" y="92" transform="matrix(0.5867 -0.8098 0.8098 0.5867 -30.6832 140.8949)" class="st0" width="17" height="17"/>
		<polygon class="st0" points="132.7,163.6 132.5,173.3 132.5,173.3 128.6,180.2 128.5,180.2 123.4,169 130.2,165 130.3,165 		"/>
		<polygon class="st0" points="129.9,183.7 131.3,181.2 130.4,187.6 		"/>
		<polygon class="st0" points="122.7,156.4 131.2,161 122,166.4 114.6,156.5 		"/>
		<polygon class="st0" points="116.3,60.8 130.1,70.8 120.1,84.6 106.4,74.6 		"/>
		<polygon class="st0" points="128.7,198 121.7,207.5 117.6,195.2 127.3,186.4 		"/>
		<polygon class="st0" points="126.7,18.4 124.1,19.8 123.5,19.6 118.7,18.4 120.2,18.4 		"/>
		<polygon class="st0" points="120.9,170.4 126.6,183 116.3,192.4 107.9,178 		"/>
		
			<rect x="105.2" y="36.4" transform="matrix(0.5867 -0.8098 0.8098 0.5867 10.6508 110.6459)" class="st0" width="17" height="17"/>
		<polygon class="st0" points="122.6,211.1 125.1,207.9 122.7,214.2 		"/>
		<polygon class="st0" points="122.5,114.5 112,122.4 99.4,118.1 109.2,104.8 112.5,107.2 		"/>
		<polygon class="st0" points="121,22 111.3,29.4 99.4,25.3 108,18.5 		"/>
		<polygon class="st0" points="119.8,213.5 119.8,221.5 115.2,230.1 115.2,230.1 109.7,220.8 		"/>
		<polygon class="st0" points="113.3,126 119.8,128.4 106.4,130.6 112.5,125.7 112.5,125.7 		"/>
		<polygon class="st0" points="115.1,196.9 119.4,210.2 117.1,211.8 108.3,218.2 100.7,205.3 		"/>
		<polygon class="st0" points="111.3,156.7 119.4,167.9 106.4,175.4 98,161.1 		"/>
		<polygon class="st0" points="118.4,87 108.5,100.7 94.7,90.8 104.7,77 		"/>
		<polygon class="st0" points="113.4,152.8 115.2,153.5 112.2,153.5 109.1,151.2 		"/>
		<rect x="93.6" y="52.5" transform="matrix(0.5867 -0.8098 0.8098 0.5867 -7.2272 107.8804)" class="st0" width="17" height="17"/>
		<polygon class="st0" points="105.3,179.5 113.9,194.2 99.2,202.7 90.7,188 		"/>
		<polygon class="st0" points="110.4,227.9 112.7,231.6 102.9,231.4 102.8,231.4 95.9,227.4 107.2,222.3 		"/>
		<polygon class="st0" points="109.2,31.8 99.5,45.1 86.2,35.5 96.6,27.5 96.6,27.4 96.7,27.4 		"/>
		<polygon class="st0" points="109.2,124.6 100.6,131.3 87.7,127.9 97.3,120.5 		"/>
		<polygon class="st0" points="99.2,147.5 108.6,154.5 96.3,158.6 87.6,148.9 		"/>
		<polygon class="st0" points="93,93.1 106.8,103.1 96.8,116.8 83,106.9 		"/>
		<polygon class="st0" points="98.2,206.8 105.7,219.8 93.1,225.4 83.8,215.1 		"/>
		
			<rect x="83.8" y="165.4" transform="matrix(0.8644 -0.5028 0.5028 0.8644 -74.9267 69.9573)" class="st0" width="16.9" height="16.9"/>
		<polygon class="st0" points="88.5,65.3 102.3,75.3 92.3,89.1 78.6,79 		"/>
		<polygon class="st0" points="102.2,19.3 96.1,24.2 96.1,24.2 95.3,23.9 88.8,21.4 		"/>
		<rect x="77.5" y="40.9" transform="matrix(0.5867 -0.8098 0.8098 0.5867 -4.4617 90.0025)" class="st0" width="17" height="17"/>
		<polygon class="st0" points="88.1,189.5 96.6,204.2 82,212.7 73.5,198 		"/>
		<polygon class="st0" points="92.4,228.7 94.9,230.2 88.6,229.2 		"/>
		<polygon class="st0" points="94.7,118.9 86.3,125.3 84.2,126.9 72.8,120.9 81.3,109.3 		"/>
		<polygon class="st0" points="93.5,159.9 79.2,168.3 71.6,155.2 84.2,149.6 84.2,149.6 		"/>
		<polygon class="st0" points="83.4,22.6 93.4,26.3 83.5,33.9 71.9,29.8 83.2,22.6 83.2,22.6 		"/>
		<rect x="70.3" y="84.8" transform="matrix(0.589 -0.8081 0.8081 0.589 -43.0432 102.0002)" class="st0" width="17" height="17"/>
		<polygon class="st0" points="84.6,130.1 89.9,131.5 81.8,131.6 		"/>
		<polygon class="st0" points="89.7,226.1 78.1,227.5 68.7,220.5 81,216.4 		"/>
		<polygon class="st0" points="88.7,145.9 84.9,146.3 82.4,144.9 		"/>
		
			<rect x="66.6" y="175.5" transform="matrix(0.8644 -0.5028 0.5028 0.8644 -82.2934 62.6768)" class="st0" width="16.9" height="16.9"/>
		<polygon class="st0" points="86.2,63.6 76.2,77.4 62.4,67.4 72.4,53.7 		"/>
		<polygon class="st0" points="81.4,36.2 71.7,49.6 60,41.1 63.6,37.5 69,31.9 		"/>
		<polygon class="st0" points="81.4,147.7 70.1,152.7 64.7,143.4 74.4,143.7 74.5,143.7 		"/>
		<polygon class="st0" points="81.3,128.6 75.6,131.5 75.6,131.5 65.8,130.7 71.1,123.3 		"/>
		<polygon class="st0" points="71,199.5 79.3,213.9 66.1,218.3 57.9,207.2 		"/>
		<polygon class="st0" points="65.6,97.9 78.9,107.6 70.5,119.2 61.6,110.4 61.3,110.2 		"/>
		<polygon class="st0" points="69,156.7 76.6,169.8 62.3,178.1 58,165.2 57.9,164.9 		"/>
		<polygon class="st0" points="61.1,70.1 74.5,79.7 64.9,93 64.8,93.1 56.8,82.6 		"/>
		<polygon class="st0" points="72.8,25.8 68.3,28.7 67.7,28.6 65.4,28.3 67.3,27.6 		"/>
		<polygon class="st0" points="58.3,43.5 70,52 60.4,65.3 52.4,54.9 		"/>
		<polygon class="st0" points="61.1,182.7 69.4,197 56.4,204.6 50.8,192 		"/>
		<polygon class="st0" points="68.7,121.6 63.4,129 59.6,120 60.6,113.6 		"/>
		<polygon class="st0" points="68.2,223.8 68,223.8 62.2,221.5 65.1,221.5 		"/>
		<polygon class="st0" points="67.5,154.3 57.6,161.5 57.5,153.5 62.2,144.9 		"/>
		<polygon class="st0" points="65.6,31.2 57.6,39.4 50.2,34 59.2,30.2 		"/>
		<polygon class="st0" points="63.2,95.8 59.2,107.3 51.9,96.1 51.9,96 52.1,95.5 52.1,95.4 55.6,85.9 55.6,85.9 		"/>
		<polygon class="st0" points="62.7,218.6 54.6,218.7 46.1,214.1 55.3,208.6 		"/>
		<polygon class="st0" points="55.6,167.5 59.8,179.9 54.2,184.9 50.1,188.6 48.6,177 		"/>
		<polygon class="st0" points="58.7,68 58.7,68 54.6,79.8 47.9,71.3 51.3,58.3 		"/>
		<polygon class="st0" points="55.1,106.4 58.1,110.9 58,111.5 57.6,114 		"/>
		<polygon class="st0" points="55.9,41.8 50.7,51.9 47.8,46.2 47.8,44.8 48.5,36.4 52.3,39.2 55.8,41.7 		"/>
		<polygon class="st0" points="54.6,160.9 54.7,163.9 52.3,167.1 		"/>
		<polygon class="st0" points="53.9,206.1 53.8,206.1 53.8,206.2 44.6,211.5 44.9,201.8 44.9,201.7 48.8,194.9 		"/>
		<polygon class="st0" points="53.5,83.1 53.5,83.2 50.8,90.4 48.6,77 		"/>
		<polygon class="st0" points="47.7,52.5 49.1,55.2 49.1,55.3 47.8,60.5 		"/>
		<polygon class="st0" points="47.5,191.3 47.5,191.3 46,193.8 46.9,188.1 47,187.4 		"/>
	</g>
</g>
</svg>
