<?xml version="1.0" encoding="utf-8"?>
<!-- Generator: Adobe Illustrator 26.0.3, SVG Export Plug-In . SVG Version: 6.00 Build 0)  -->
<svg version="1.1" id="Layer_1" xmlns="http://www.w3.org/2000/svg" xmlns:xlink="http://www.w3.org/1999/xlink" x="0px" y="0px"
	 viewBox="0 0 95 95" enable-background="new 0 0 95 95" xml:space="preserve">
<path fill="#FFFFFF" d="M55.019,78.697c12.085,0.39,23.42-7.451,27.344-18.884c2.841-8.079,1.688-17.203-1.973-24.834
	c-7.068-14.756-23.875-22.858-39.818-19.143c-9.553,2.103-18.05,8.387-22.916,16.866c-7.642,13.344-6.439,30.32,6.214,40.115
	l0.189,0.148c13.412,10.224,32.961,6.337,41.437-8.24c3.93-6.78,5.332-15.559,2.008-22.851
	c-4.912-10.973-18.277-15.558-28.884-9.891c-5.351,2.799-9.327,8.018-10.63,13.912c-0.595,2.784-0.77,5.736,0.067,8.488
	c2.115,7.215,9.946,11.384,17.11,9.117c-3.11-2.492-5.244-6.136-5.95-10.054c-0.565-2.965-0.293-6.131,1.591-8.594
	c4.742-6.373,14.773-4.428,16.776,3.263c0.497,1.881,0.316,3.875-0.045,5.765c-0.975,4.782-4.151,9.052-8.457,11.35l0,0
	c-7.01,3.865-16.137,1.983-21.078-4.309c-5.215-6.404-4.342-15.653-0.418-22.484c2.981-5.182,7.958-9.171,13.675-10.925
	c11.711-3.741,24.691,2.341,29.355,13.707c2.984,7.059,2.164,15.282-0.919,22.169c-2.981,6.633-8.341,12.156-14.9,15.304
	L55.019,78.697z"/>
</svg>
