<?xml version="1.0" encoding="utf-8"?>
<!-- Generator: Adobe Illustrator 26.0.3, SVG Export Plug-In . SVG Version: 6.00 Build 0)  -->
<svg version="1.1" id="Layer_1" xmlns="http://www.w3.org/2000/svg" xmlns:xlink="http://www.w3.org/1999/xlink" x="0px" y="0px"
	 viewBox="0 0 500 500" style="enable-background:new 0 0 500 500;" xml:space="preserve">
<style type="text/css">
	.st0{fill:none;}
	.st1{fill:#FFFFFF;}
</style>
<g id="Layer_1_00000086662134482792841200000011597505278983023793_">
	<g id="GUIDE">
	</g>
	<g id="fill">
		<path class="st0" d="M222.3,411.7"/>
		<path class="st0" d="M222.3,413.3"/>
		<path class="st0" d="M222.4,372.4"/>
		<g>
			<polygon class="st1" points="216.9,383.6 216.8,383.6 216.8,383.6 			"/>
			<polygon class="st1" points="218.2,385 218.2,385.1 218.1,385.1 218.1,385.1 218.2,385.1 			"/>
			<polygon class="st1" points="217.8,384.5 217.7,384.6 217.7,384.6 217.7,384.6 			"/>
			<polygon class="st1" points="221.3,388.6 221.3,388.6 221.2,388.6 221.2,388.6 221.2,388.6 			"/>
		</g>
		<path class="st0" d="M222.3,411.7"/>
		<path class="st0" d="M222.4,372.4"/>
	</g>
</g>
<g id="fill_00000096773489509897936800000001827240442545345952_">
	<g>
		<path class="st1" d="M314.4,385.1c0,24.1-6.2,42.5-18.4,54.7c-12.3,12.3-30.7,18.5-54.8,18.5s-42.6-6.2-54.8-18.5
			c-12.2-12.2-18.4-30.6-18.4-54.7s6.2-42.5,18.4-54.7c12.2-12.3,30.7-18.5,54.8-18.5s42.6,6.2,54.8,18.5
			C308.2,342.6,314.4,361,314.4,385.1z"/>
		<g>
			<path class="st1" d="M127.1,42l-83.9,72.9c0.2-4,0.7-7.9,1.6-11.7L115.2,42C119.2,41.6,123.1,41.6,127.1,42z"/>
			<path class="st1" d="M45.2,134.4c-0.7-3-1.2-6-1.6-8.9l93.9-81.6c1.3,0.3,2.7,0.7,4.1,1.2c0.3,0.1,1.7,0.6,2.1,0.7
				c0.8,0.3,1.6,0.6,2.5,0.9L45.2,134.4z"/>
			<path class="st1" d="M50.6,150.8c-1.1-2.6-2.1-5.2-3-7.7l106.7-92.7c2.4,1.2,4.8,2.6,7.2,4L50.6,150.8z"/>
			<path class="st1" d="M58.1,165.5c-1.4-2.3-2.6-4.7-3.8-7l114.4-99.4c2.1,1.5,4.2,3.1,6.3,4.8L58.1,165.5z"/>
			<path class="st1" d="M76.5,191.7c-1.7-2-3.3-4.1-4.8-6.1L192.8,80.3c1.8,1.8,3.5,3.7,5.3,5.7L76.5,191.7z"/>
			<path class="st1" d="M66.8,179c-1.5-2.2-3-4.3-4.4-6.5L181.3,69.2c1.9,1.7,3.8,3.5,5.7,5.3L66.8,179z"/>
			<path class="st1" d="M98.1,46.1l-47,40.8c4.8-8.7,11.7-17,20.7-24.7C80.4,54.8,89.2,49.5,98.1,46.1z"/>
			<path class="st1" d="M239.5,177l-79,68.7c-3.5-0.1-7-0.5-10.5-1.1l89.9-78.1C240,170,239.9,173.5,239.5,177z"/>
			<path class="st1" d="M174.4,244.4l62-53.9c-2.4,6.8-5.9,13.3-10.7,19.6l-30.2,26.3C188.5,240.3,181.5,243,174.4,244.4z"/>
			<path class="st1" d="M98.3,215.1c-1.9-1.7-3.7-3.5-5.6-5.4l120.8-105c1.6,2.1,3.1,4.2,4.5,6.3L98.3,215.1z"/>
			<path class="st1" d="M110.6,225.6c-2-1.5-4.1-3.2-6.1-4.9L222.6,118c1.4,2.3,2.8,4.6,4,6.8L110.6,225.6z"/>
			<path class="st1" d="M87,203.8c-1.7-1.9-3.5-3.8-5.2-5.8L203.5,92.2c1.7,2,3.3,4,4.9,6L87,203.8z"/>
			<path class="st1" d="M228.1,144.6l-103.7,90.2c-2.3-1.3-4.6-2.7-6.9-4.3l113-98.2c1.2,2.5,2.3,5,3.3,7.5l-4.8,4.1l-0.4,0.4
				L228.1,144.6z"/>
			<path class="st1" d="M238.6,156.6L140.3,242c-2.7-0.9-5.4-2-8.1-3.2l104.3-90.7c0.6,2.2,1.2,4.3,1.6,6.4c0.1,0.4,0.2,0.7,0.2,1.1
				C238.5,156,238.6,156.3,238.6,156.6L238.6,156.6z"/>
		</g>
		<path class="st1" d="M363.3,274.9l-0.4-19.3c2.2,0,4.4-0.2,6.8-0.5l2.3,19.2C368.9,274.6,366,274.9,363.3,274.9z M356.9,274.8
			c-3.1-0.2-6.1-0.6-9-1.2l3.9-18.9c2,0.4,4.1,0.7,6.3,0.8L356.9,274.8z M377.9,273.4l-3.4-19.1c2.2-0.4,4.6-0.9,6.9-1.5l4.6,18.8
			C383.3,272.4,380.5,272.9,377.9,273.4z M341.5,271.9c-3-1-5.9-2.3-8.7-3.8l9.4-16.9c1.7,0.9,3.5,1.7,5.4,2.4L341.5,271.9z
			 M391.8,270.2l-5.3-18.6c2.2-0.6,4.5-1.4,6.9-2.2l0.2-0.1l6.4,18.3l-0.2,0.1c-0.1,0-0.1,0-0.2,0.1
			C396.9,268.6,394.3,269.4,391.8,270.2z M405.4,265.6l-7-18c2.3-0.9,4.6-1.8,6.7-2.8l7.9,17.6C410.6,263.5,408,264.6,405.4,265.6z
			 M327.1,264.4c-2.5-1.9-4.9-4-7-6.3l14.1-13.2c1.4,1.5,2.9,2.8,4.5,4L327.1,264.4z M418.4,259.9l-8.7-17.3
			c2.2-1.1,4.2-2.2,6.1-3.4l10,16.5C423.5,257.2,421,258.6,418.4,259.9z M315.8,253c-1.7-2.3-3.4-4.9-4.9-7.6l16.9-9.3
			c1.1,1.9,2.2,3.8,3.5,5.4L315.8,253z M431,252.4l-11.1-15.8c1.9-1.3,3.6-2.7,5.2-4.1l12.9,14.4C435.8,248.8,433.4,250.6,431,252.4
			z M442.5,242.4l-14.2-13.1c1.4-1.6,2.7-3.2,3.8-4.8l16.2,10.6C446.6,237.6,444.7,240.1,442.5,242.4z M308.1,239.7
			c-1-2.2-1.9-4.5-2.8-6.9c0-0.1,0-0.1-0.1-0.2c-0.1-0.4-0.2-0.7-0.3-1.1l18.4-5.9c0.1,0.3,0.2,0.5,0.3,0.8c0.7,1.9,1.4,3.7,2.2,5.4
			L308.1,239.7z M451.6,229.2l-17.4-8.5c0.9-1.8,1.6-3.6,2.1-5.5l18.7,5.1C454.1,223.3,453,226.3,451.6,229.2z M303.3,225.6
			c-0.7-2.9-1.3-5.9-1.6-8.7l19.2-2.4c0.3,2.1,0.7,4.3,1.2,6.5L303.3,225.6z M456.3,213.6l-19.2-2.6c0.2-1.6,0.3-3.3,0.3-5
			c0-0.4,0-0.7,0-1.1l19.3-0.5c0,0.6,0,1.1,0,1.6C456.8,208.6,456.6,211.2,456.3,213.6z M301.2,210.4c0-0.5,0-1,0-1.5
			c0-2.6,0.2-5.2,0.5-7.8l19.2,2.7c-0.2,1.6-0.3,3.4-0.3,5.1c0,0.3,0,0.7,0,1L301.2,210.4z M437.1,200.3c-0.3-2.1-0.7-4.3-1.2-6.5
			l18.8-4.6c0.7,2.9,1.3,5.9,1.6,8.7L437.1,200.3z M321.7,199.6l-18.7-5.1c0.8-3.1,2-6.1,3.4-8.9l17.4,8.5
			C322.9,195.9,322.2,197.7,321.7,199.6z M325.9,190.4l-16.1-10.7c1.7-2.5,3.6-5,5.7-7.3l14.2,13.1
			C328.3,187.1,327,188.7,325.9,190.4z M434.5,189.2l-0.2-0.7c-0.7-1.9-1.4-3.7-2.2-5.5l17.6-8c1,2.2,2,4.6,2.8,7.1
			c0,0.1,0,0.1,0.1,0.2l0.3,0.9L434.5,189.2z M333,182.4l-12.8-14.5c2.1-1.9,4.5-3.7,6.9-5.5l11.1,15.8
			C336.3,179.6,334.5,181,333,182.4z M430,178.8c-1.1-1.9-2.2-3.8-3.5-5.4l15.5-11.6c1.7,2.3,3.4,4.9,4.9,7.6L430,178.8z
			 M342.3,175.6l-10-16.5c2.3-1.4,4.8-2.8,7.4-4.1l8.7,17.3C346.2,173.3,344.2,174.5,342.3,175.6z M353,170.1l-7.9-17.7
			c2.4-1.1,5-2.2,7.6-3.2l7,18C357.3,168.2,355.1,169.1,353,170.1z M423.7,170c-1.4-1.5-2.9-2.8-4.5-4l11.5-15.6
			c2.5,1.8,4.9,4,7.1,6.3L423.7,170z M364.5,165.5l-6.3-18.3l3.2,9.1l-3.1-9.2c0.1,0,0.1,0,0.2-0.1c2.6-0.9,5.2-1.7,7.7-2.4
			l5.3,18.6C369.2,164,366.9,164.7,364.5,165.5L364.5,165.5z M415.7,163.7c-1.7-0.9-3.5-1.7-5.5-2.4l6.1-18.4c3,1,6,2.3,8.7,3.8
			L415.7,163.7z M376.3,162l-4.6-18.8c2.8-0.7,5.5-1.3,8.2-1.7l3.4,19.1C381.1,161,378.7,161.5,376.3,162z M406,160.2
			c-2-0.4-4.1-0.7-6.3-0.8l1.2-19.3c3.1,0.2,6.1,0.6,9,1.2L406,160.2z M388.2,159.8l-2.3-19.2c3-0.4,5.9-0.6,8.6-0.6l0.4,19.3
			C392.8,159.4,390.5,159.6,388.2,159.8z"/>
	</g>
</g>
</svg>
