<?xml version="1.0" encoding="utf-8"?>
<!-- Generator: Adobe Illustrator 26.0.3, SVG Export Plug-In . SVG Version: 6.00 Build 0)  -->
<svg version="1.1" id="Layer_1" xmlns="http://www.w3.org/2000/svg" xmlns:xlink="http://www.w3.org/1999/xlink" x="0px" y="0px"
	 viewBox="0 0 150 150" enable-background="new 0 0 150 150" xml:space="preserve">
<g id="ICON_00000116956159989016113140000015392829877179261865_">
	
		<line fill="none" stroke="#000000" stroke-width="2" stroke-linecap="square" stroke-miterlimit="10" x1="117.253" y1="112.532" x2="117.253" y2="112.532"/>
	<path fill="#FFFFFF" d="M93.963,54.324c-0.089,3.21-1.265,5.659-3.597,7.529c-0.754,0.604-1.505,1.252-2.357,1.687
		c-2.158,1.103-4.344,0.996-6.453-0.193c-1.946-1.098-3.88-2.218-5.808-3.348c-1.852-1.085-2.324-3.485-0.966-5.04
		c0.47-0.538,1.064-0.969,1.61-1.44c2.473-2.134,4.951-4.26,7.421-6.398c2.647-2.292,6.579-1.58,8.249,1.502
		c0.693,1.278,1.462,2.526,1.692,3.997C93.854,53.257,93.913,53.901,93.963,54.324"/>
	<path fill="#FFFFFF" d="M77.125,37.468c1.446,0,2.571,0.272,3.573,0.909c1.153,0.734,2.313,1.479,2.927,2.788
		c0.886,1.893,0.476,4.076-1.118,5.475c-2.731,2.396-5.488,4.764-8.257,7.115c-0.926,0.786-2.03,0.926-3.153,0.488
		c-1.11-0.433-1.762-1.282-1.965-2.466c-0.211-1.229-0.456-2.453-0.63-3.688c-0.354-2.513,0.244-4.792,1.84-6.771
		c1.132-1.403,2.521-2.499,4.174-3.252C75.43,37.65,76.393,37.501,77.125,37.468"/>
	<path fill="#FFFFFF" d="M71.666,71.494c-0.031,2.577-1.537,4.8-3.936,5.776c-1.293,0.527-2.583,1.059-3.877,1.583
		c-3.313,1.343-7.01-0.815-7.459-4.35c-0.245-1.928,0.381-3.543,1.802-4.838c2.295-2.092,4.613-4.158,6.92-6.237
		c1.808-1.63,4.788-0.711,5.326,1.666c0.402,1.776,0.75,3.564,1.11,5.35C71.621,70.788,71.629,71.144,71.666,71.494"/>
	<path fill="#FFFFFF" d="M57.193,57.634c-1.544,0-3.088-0.151-4.631-0.192c-2.23-0.058-3.792-2.63-2.785-4.682
		c0.797-1.623,1.785-3.158,3.1-4.423c1.538-1.48,3.376-1.926,5.457-1.389c1.178,0.303,2.352,0.666,3.593,0.595
		c0.424-0.025,0.854-0.043,1.27-0.122c2.384-0.457,4.301,0.977,4.535,3.41c0.324,3.37-1.71,6.109-5.035,6.75
		c-0.412,0.08-0.847,0.057-1.271,0.059c-1.411,0.006-2.822,0.002-4.233,0.002C57.193,57.578,57.193,57.699,57.193,57.634"/>
	<path fill="#FFFFFF" d="M50.063,58.622c3.792,0.079,7.584,0.156,11.377,0.237c0.808,0.018,1.615,0.058,2.423,0.078
		c0.764,0.018,1.343,0.405,1.604,1.091c0.25,0.659,0.067,1.389-0.481,1.883c-2.522,2.276-5.047,4.549-7.567,6.826
		c-0.755,0.681-1.63,1.082-2.64,1.204c-0.999,0.121-1.965-0.034-2.79-0.581c-1.248-0.827-2.508-1.666-3.621-2.659
		c-1.29-1.152-2.152-2.615-2.127-4.434C46.267,60.243,48.038,58.561,50.063,58.622"/>
	<path fill="#FFFFFF" d="M71.573,64.251c0.032-2.409,2.456-3.823,4.554-2.633c1.611,0.914,3.206,1.855,4.811,2.779
		c1.609,0.926,1.755,2.773,0.28,3.92c-0.684,0.532-1.421,0.996-2.134,1.49c-0.665,0.461-1.326,0.927-1.995,1.382
		c-1.799,1.222-4.078,0.285-4.511-1.844c-0.296-1.453-0.609-2.902-0.908-4.354C71.621,64.748,71.605,64.498,71.573,64.251"/>
	<path fill="#FFFFFF" d="M125.009,81.013c-5.305-3.063-10.597-6.118-15.91-9.186c0.853-1.478,1.684-2.919,2.515-4.36
		c2.308-3.999,4.615-7.999,6.924-11.997c2.438-4.221,8.646-4.306,11.191-0.155c1.204,1.962,2.437,3.906,3.611,5.886
		c1.006,1.698,1.077,3.495,0.107,5.205c-2.75,4.852-5.566,9.667-8.355,14.496C125.078,80.927,125.058,80.948,125.009,81.013"/>
	<path fill="#FFFFFF" d="M126.048,81.701c0.605-1.05,1.203-2.088,1.802-3.125c1.567-2.716,3.136-5.431,4.703-8.146
		c1.641-2.843,5.513-2.893,7.218-0.095c0.61,1.001,1.226,1.999,1.846,2.995c3.03,4.873,0.111,11.263-5.562,12.142
		c-1.815,0.281-3.546-0.036-5.151-0.945c-1.524-0.862-3.036-1.745-4.553-2.621C126.254,81.85,126.165,81.781,126.048,81.701"/>
	<path fill="#FFFFFF" d="M108.182,85.511c1.855-3.212,3.689-6.387,5.541-9.596c0.964,0.555,1.891,1.087,2.817,1.622
		c3.29,1.899,6.584,3.793,9.869,5.702c1.093,0.636,1.644,1.615,1.613,2.878c-0.032,1.249-0.629,2.196-1.739,2.757
		c-1.243,0.63-2.438,1.375-3.816,1.708c-2.575,0.621-5.014,0.302-7.313-1.032c-2.187-1.269-4.378-2.529-6.567-3.794
		C108.466,85.685,108.346,85.61,108.182,85.511"/>
	<path fill="#FFFFFF" d="M107.548,86.437c2.227,1.286,4.415,2.549,6.603,3.813c0.11,0.064,0.22,0.128,0.33,0.191
		c1.303,0.738,1.687,1.661,1.307,3.112c-0.217,0.833-0.705,1.496-1.279,2.114c-1.984,2.136-4.295,3.783-7.064,4.754
		c-1.606,0.563-3.209,0.218-4.242-0.926c-1.07-1.187-1.354-3.006-0.597-4.47c0.68-1.316,1.455-2.583,2.193-3.869
		c0.851-1.482,1.707-2.961,2.562-4.441C107.409,86.63,107.469,86.552,107.548,86.437"/>
	<path fill="#FFFFFF" d="M100.067,75.169c3.186,1.84,6.362,3.673,9.562,5.52c-0.059,0.123-0.1,0.224-0.153,0.316
		c-1.748,3.033-3.494,6.068-5.248,9.098c-1.234,2.132-3.427,3.175-5.835,2.79c-2.19-0.349-3.984-2.098-4.464-4.383
		c-0.278-1.323-0.081-2.597,0.586-3.766c1.797-3.151,3.622-6.287,5.437-9.428C99.972,75.281,100.003,75.25,100.067,75.169"/>
	<path fill="#FFFFFF" d="M99.108,74.574c-0.525,0.911-1.045,1.814-1.565,2.718c-0.875,1.517-1.748,3.036-2.625,4.552
		c-0.759,1.311-2.362,1.737-3.674,0.978c-1.822-1.053-3.65-2.099-5.466-3.161c-2.005-1.172-3.05-3.453-2.653-5.747
		c0.389-2.248,2.16-4.054,4.42-4.486c1.264-0.242,2.497-0.085,3.615,0.544c2.609,1.47,5.192,2.988,7.785,4.486
		C98.991,74.486,99.034,74.521,99.108,74.574"/>
	<path fill="#FFFFFF" d="M111.891,64.533c-2.33,4.036-4.652,8.057-6.992,12.111c-1.082-0.624-2.143-1.236-3.203-1.848
		c-2.495-1.44-4.99-2.882-7.486-4.322c-2.483-1.432-2.909-4.586-0.846-6.584c2.104-2.038,4.58-3.486,7.372-4.369
		c1.035-0.327,2.088-0.235,3.041,0.305c2.652,1.508,5.287,3.045,7.928,4.572C111.765,64.433,111.817,64.479,111.891,64.533"/>
	<path fill="#FFFFFF" d="M112.543,63.592c-2.021-1.167-4.048-2.315-6.051-3.504c-0.916-0.544-1.182-1.917-0.513-2.988
		c0.434-0.695,1.025-1.312,1.624-1.879c1.539-1.456,3.308-2.543,5.37-3.108c1.952-0.535,3.678,0.716,3.797,2.73
		c0.053,0.906-0.159,1.738-0.605,2.514c-1.175,2.044-2.358,4.085-3.538,6.126C112.607,63.518,112.578,63.548,112.543,63.592"/>
	<path fill="#FFFFFF" d="M24.078,62.199c-0.688-0.872-0.936-2.136-0.343-3.123c0.323-0.594,1.027-0.7,1.638-0.574
		c2.089,0.502,4.187,1.426,5.802,2.865c0.721,0.721,1.516,1.804,1.11,2.866c-0.476,0.941-1.646,1.334-2.614,1.545
		c-1.051,0.21-2.076-0.251-2.892-0.886C25.782,64.115,24.828,63.22,24.078,62.199z"/>
	<path fill="#FFFFFF" d="M45.391,49.071c1.635,0.422,2.014,1.977,1.481,3.432c-1.267,3.399-5.231,4.877-8.631,4.617
		c-1.298-0.096-2.683-0.224-3.917-0.655c-0.474-0.178-0.909-0.551-0.979-1.077c-0.156-1.432,0.838-2.723,1.859-3.62
		C37.589,49.791,42.341,48.417,45.391,49.071z"/>
	<path fill="#FFFFFF" d="M25.577,53.079c0.575-1.292,1.379-3.018,2.857-3.413c1.079-0.192,2.238,0.118,3.203,0.603
		c1.733,0.901,0.62,3.003-0.216,4.165c-0.757,1.101-1.987,2.019-3.388,1.789c-0.961-0.146-2.068-0.492-2.604-1.362
		C25.139,54.293,25.365,53.634,25.577,53.079z"/>
	<path fill="#FFFFFF" d="M14.631,45.99c-2.911,0.295-5.604,2.695-6.957,5.197c-0.357,0.746-0.846,1.835-0.17,2.534
		c0.585,0.471,1.419,0.434,2.131,0.484c1.432-0.01,3.596,0.093,5.01,0.291c0.56,0.049,1.154,0.095,1.711,0.003
		c0.808-0.099,1.428-0.674,1.606-1.467c0.385-1.643,0.079-3.415-0.537-4.965C16.962,46.88,15.984,45.897,14.631,45.99z"/>
	<path fill="#FFFFFF" d="M11.331,55.85c-2.729,0.029-4.226,1.439-3.92,4.228c0.233,2.352,1.977,8.12,4.421,8.869
		c1.048,0.196,1.345-1.096,1.537-1.869c0.372-1.677,0.702-3.641,1.602-5.123c0.578-1.057,1.735-2.322,2.204-3.435
		C18.046,56.297,12.722,55.825,11.331,55.85z"/>
	<path fill="#FFFFFF" d="M19.02,45.817c0.763-0.774,3.716,0.299,4.654,0.661c0.577,0.251,1.155,0.616,1.439,1.199
		c0.587,1.356,0.081,2.964-0.692,4.144c-0.874,1.362-2.881,2.638-4.384,1.491c-0.248-0.215-0.392-0.529-0.425-0.854
		c-0.074-0.85,0.18-1.911,0.107-2.762c-0.024-1.084-0.715-2.361-0.817-3.429C18.899,46.11,18.921,45.943,19.02,45.817z"/>
	<path fill="#FFFFFF" d="M25.604,67.715c-0.631,1.934-2.934,3.253-4.854,3.571c-2.103,0.364-4.095-1.097-4.919-2.97
		c-1.068-2.187-0.201-4.701,1.082-6.599c0.618-0.849,1.223-1.869,2.219-2.307c0.866-0.283,1.841,0.188,2.405,0.85
		c0.446,0.551,0.526,1.413,0.873,2.02C23.294,64.115,26.051,65.39,25.604,67.715z"/>
	<path fill="#FFFFFF" d="M32.695,59.446c0.305-1.395,6.524-1.445,7.708-1.054c0.721,0.168,1.385,0.668,1.548,1.419
		c0.284,1.28-0.02,2.758-0.893,3.752c-0.737,0.808-1.902,1.022-2.951,0.93c-1.588-0.109-2.983-1.045-4.006-2.219
		c-0.509-0.583-1.008-1.219-1.301-1.942C32.694,60.055,32.612,59.741,32.695,59.446z"/>
</g>
</svg>
