<?xml version="1.0" encoding="utf-8"?>
<!-- Generator: Adobe Illustrator 26.0.3, SVG Export Plug-In . SVG Version: 6.00 Build 0)  -->
<svg version="1.1" id="Layer_1" xmlns="http://www.w3.org/2000/svg" xmlns:xlink="http://www.w3.org/1999/xlink" x="0px" y="0px"
	 viewBox="0 0 38 38" enable-background="new 0 0 38 38" xml:space="preserve">
<g id="_x32_D_ARROWS_1_">
</g>
<g id="_x32_D_NEW_ARCH_copy_3">
</g>
<g id="_x32_D_COLUMNS_copy_2">
</g>
<g id="_x32_D_HIGHWAY_copy">
</g>
<g>
	<path fill="#FFFFFF" d="M38,18.988c-6.37-0.21-12.59-0.31-19-0.3c-6.06,0.01-12.29,0.11-19,0.3v-1.9c13.8-0.4,25.6-0.4,38,0V18.988
		z"/>
	<path fill="#FFFFFF" d="M32,24.088c1.8,1.2,3.6,2.4,6,3.2v2.2c-2.9-0.9-5-2.3-7.1-3.7c-3.1-2.1-6-4.1-11.9-4.2
		c-5.9,0-8.8,2-11.9,4.1c-2,1.4-4.1,2.9-7.1,3.7v-2.1c2.4-0.7,4.2-2,6-3.2c3.2-2.2,6.5-4.4,13-4.4S28.8,21.888,32,24.088z"/>
</g>
</svg>
