<?xml version="1.0" encoding="utf-8"?>
<!-- Generator: Adobe Illustrator 26.0.3, SVG Export Plug-In . SVG Version: 6.00 Build 0)  -->
<svg version="1.1" id="Layer_1" xmlns="http://www.w3.org/2000/svg" xmlns:xlink="http://www.w3.org/1999/xlink" x="0px" y="0px"
	 viewBox="0 0 38 38" style="enable-background:new 0 0 38 38;" xml:space="preserve">
<style type="text/css">
	.st0{fill:#FFFFFF;}
</style>
<path class="st0" d="M22.6,33.1v-10v-6.6L6.3,13v15.2l7.2-6.1v-6.5l2,0.4v5.8l6.2,1.3v2.1l-6.9-1.5l-7.3,6.2L22.6,33.1z M23.3,14.6
	l7.3-6.1L15.5,5.2V12l-2-0.5V6.2l-6,5.1L23.3,14.6z M31.9,25.3V10.1l-7.3,6.1v15.9l6-5l-5-1.1v-2L31.9,25.3z M33.8,27.1L24,35.4
	L4.3,31.2V11.3L14.2,3l19.7,4.2v19.9H33.8z"/>
</svg>
