<?xml version="1.0" encoding="utf-8"?>
<!-- Generator: Adobe Illustrator 26.0.3, SVG Export Plug-In . SVG Version: 6.00 Build 0)  -->
<svg version="1.1" xmlns="http://www.w3.org/2000/svg" xmlns:xlink="http://www.w3.org/1999/xlink" x="0px" y="0px"
	 viewBox="0 0 38 38" enable-background="new 0 0 38 38" xml:space="preserve">
<g id="Layer_1">
</g>
<g id="Layer_4_00000061465314871112619200000006857887010119884218_">
	<path fill="#FFFFFF" d="M8.196,11.501v0.014H8.21v0.015c0.015,0,0.015,0,0.015,0s0,0,0.014,0.014c0.013,0,0.013,0,0.013,0
		c0.014,0.015,0.014,0.015,0.014,0.015c0.014,0,0.014,0,0.014,0c0.023,0.004,0.011,0.018,0.044,0.014
		c2.948,0.59,5.939,0.988,8.842,1.791v0.981c-3.508,0.221-7.096,0.219-10.549,0.753c-0.051-0.002-0.08,0.012-0.127,0.029
		c0,0,0,0.013-0.014,0.013c0,0,0,0-0.014,0c0,0,0,0,0,0.014H6.447c-0.02,0.019-0.031,0.034-0.028,0.057
		c0.013,0.015,0.013,0.015,0.028,0.028h0.014l0.014,0.014c0.003,0,0.009,0,0.029,0c0.03,0.028,0.08,0.038,0.113,0.043
		c3.515,0.659,7.088,1.134,10.549,2.061v0.711c-3.65,0.193-7.28,0.258-10.904,0.697L6.247,18.78
		c-0.069,0.005-0.133,0.01-0.184,0.042c-0.027-0.005-0.084,0.011-0.099,0.029H5.949c0,0.014-0.013,0.014-0.013,0.014s0,0-0.014,0
		c0,0,0,0.014-0.014,0.014c0,0,0,0-0.014,0.013v0.015H5.878c0,0.014,0.015,0.029,0.015,0.029v0.014
		c0.013,0.002,0.032-0.007,0.028,0.015c0.011,0.002,0.031-0.007,0.027,0.013c0.011,0.003,0.023-0.01,0.044,0.014
		c0.014,0,0.014,0,0.028,0c0.032,0.035,0.105,0.039,0.156,0.043c3.667,0.655,7.372,1.165,10.989,2.119v0.639
		c-3.469,0.214-6.96,0.247-10.406,0.696c-0.072,0.041-0.176,0.032-0.228,0.072c0.003,0-0.023,0-0.027,0
		c-0.009,0.023-0.037,0.018-0.058,0.028c0,0.014,0,0.014-0.014,0.014c0,0,0,0,0,0.015H6.419c0,0,0,0,0,0.013c0,0,0,0,0,0.014
		c-0.005-0.005,0.034,0.035,0.028,0.029c0.014,0,0.014,0,0.014,0.014c0.045,0.009,0.04,0.003,0.07,0.029c0.007,0,0.022,0,0.029,0
		c0.044,0.022,0.108,0.027,0.157,0.042c3.478,0.645,7.014,1.11,10.449,2.004v0.768c-2.898,0.203-5.815,0.214-8.672,0.683
		c-0.025,0-0.025,0-0.058,0l-0.013,0.014c-0.025,0.004-0.044-0.011-0.043,0.014c-0.021,0-0.037,0-0.042,0
		c-0.014,0.015-0.029,0.015-0.029,0.015s0,0-0.014,0c0,0.014-0.015,0.014-0.029,0.014c-0.03,0.021-0.072,0.017-0.085,0.07
		c0,0,0,0,0,0.016c0.021-0.004,0.013,0.014,0.015,0.027H8.21c0.015,0.015,0.015,0.015,0.015,0.015s0,0,0.014,0v0.014
		c0.013,0,0.013,0,0.013,0c0.014,0,0.014,0,0.014,0.014c0.014,0,0.014,0,0.014,0s0,0,0.015,0c0.063,0.045,0.151,0.044,0.228,0.072
		c0.013,0,0.042,0,0.056,0.014c2.87,0.503,5.751,0.975,8.587,1.649v1.137c-1.634,0.159-3.265,0.218-4.877,0.554
		c-0.013,0.014-0.028,0.014-0.043,0.014c-0.014,0.014-0.043,0.029-0.07,0.029c0,0-0.015,0.014-0.029,0.014
		c-0.035,0.021-0.033,0.014-0.058,0.027c0,0,0,0-0.013,0.014c-0.014,0-0.014,0-0.029,0.015c0,0,0,0,0,0.014
		c-0.014,0-0.014,0-0.014,0s0,0,0,0.014c0,0,0,0-0.014,0c0,0,0,0,0,0.014c-0.004,0.017,0.01,0.041,0.029,0.056
		c-0.004-0.004,0.025,0.024,0.029,0.028c1.637,0.472,3.419,0.617,5.089,1.052V38h3.795v-6.043c1.4-0.135,1.266-0.559,0.015-0.667
		c0,0,0,0-0.015,0v-1.563c9.029-1.838,10.098-1.539,0-2.317v-0.91c2.801-0.701,7.814-1.527,9.794-1.876
		c0-0.019,0.029-0.013,0.044-0.014c0.015-0.035,0.052,0.006,0.056-0.028c0.04,0.002,0.065-0.014,0.085-0.03h0.014l0.015-0.013
		c0.014,0,0.014,0,0.014,0c0-0.014,0-0.014,0.014-0.014c0-0.014,0-0.014,0-0.014c0.014,0.006,0.015-0.011,0.014-0.029
		c-0.014,0-0.014-0.014-0.014-0.014c-0.021-0.02-0.01-0.011-0.028-0.013c0.006-0.03-0.035,0-0.029-0.03
		c-0.054-0.016-0.129-0.032-0.169-0.057c-0.027,0-0.024,0-0.058,0c-3.201-0.475-6.51-0.505-9.752-0.695v-0.683
		c2.883-0.737,8.832-1.713,10.705-2.061c0.059-0.007,0.154-0.008,0.199-0.042c0.027-0.004,0.049,0.011,0.072-0.014
		c0.03,0.003,0.068-0.011,0.085-0.029c0.015,0,0.015,0,0.015,0c0.015,0,0.015,0,0.015-0.014c0.013,0,0.013,0,0.013,0
		s0.014,0,0.014-0.014c0.014,0,0.014,0,0.014,0c0.015-0.013,0.015-0.013,0.015-0.013l0.014-0.015c0-0.014-0.014-0.014-0.014-0.014
		s0,0,0-0.015c0,0,0,0,0-0.014h-0.015c0-0.014-0.014-0.014-0.014-0.014s0,0-0.014,0c0-0.014-0.013-0.014-0.027-0.014
		c0,0,0,0,0-0.013c-0.068-0.003-0.126-0.052-0.2-0.043c-3.58-0.503-7.26-0.511-10.875-0.725v-0.655
		c3.313-0.82,8.288-1.626,10.705-2.06c0.071-0.029,0.151-0.036,0.227-0.043c0.008-0.025,0.025-0.01,0.044-0.014l0.014-0.013
		c0.014,0,0.041,0.003,0.057-0.015c0.003,0.002,0.037-0.004,0.029-0.014c0.015,0,0.015,0,0.015,0h0.013
		c0-0.015,0.014-0.015,0.014-0.015c0.014-0.014,0.029-0.014,0.029-0.028h0.014c0-0.014,0-0.014,0-0.014v-0.014
		c-0.014-0.014-0.014-0.014-0.014-0.014s0,0-0.015,0v-0.015c0,0-0.014,0-0.014-0.014c-0.018-0.003-0.035-0.019-0.056-0.014
		c-0.046-0.046-0.165-0.031-0.213-0.071c-3.596-0.461-7.233-0.506-10.848-0.711c0-0.019,0-0.792,0-0.81
		c2.712-0.707,7.797-1.574,9.595-1.89c0.07-0.034,0.187-0.021,0.27-0.072c0.017,0,0.027,0,0.043,0
		c0.013-0.033,0.02,0.003,0.042-0.028c-0.004,0,0.023,0,0.028,0c0.016-0.026,0.031,0.002,0.029-0.029c0.014,0,0.014,0,0.014,0
		s0,0,0.014-0.015c0-0.014,0.014-0.014,0.014-0.014c0-0.014,0-0.029-0.014-0.042c0,0-0.014,0-0.014-0.014c-0.014,0-0.014,0-0.014,0
		c0.009-0.01-0.027-0.017-0.029-0.014c-0.053-0.036-0.116-0.052-0.185-0.058v-0.013c-0.014,0-0.044,0-0.055,0
		c-3.357-0.498-6.176-0.494-9.739-0.694v-1.239c1.948-0.541,5.133-1.11,6.582-1.38V9.88c0.19-0.019,0.37-0.048,0.54-0.1
		c0.02,0,0.035,0,0.057,0c0.014-0.015,0.014-0.015,0.014-0.015c0.014,0,0.029,0,0.043-0.013c0.004,0,0.023,0,0.041,0
		c0-0.03,0.021-0.001,0.044-0.029c0.015,0,0.043-0.014,0.057-0.029c0.014,0,0.014,0,0.03,0c0.005-0.028,0.016,0,0.013-0.028
		c0.015,0,0.015,0,0.015,0c0.009-0.02,0.018-0.018,0.013-0.043c0,0,0,0,0-0.015c0,0-0.013,0-0.013-0.015c0,0-0.015,0-0.015-0.014
		c-0.013,0-0.029-0.013-0.029-0.013c-0.014,0-0.014,0-0.014,0c-0.014-0.014-0.014-0.014-0.027-0.014
		c0.004-0.037-0.037,0.008-0.043-0.029c0,0-0.015,0-0.03,0c0.003-0.031-0.049,0.004-0.055-0.029
		c-0.027-0.003-0.027,0.009-0.057-0.014c-2.366-0.417-4.768-0.48-7.165-0.669V7.265l0.653-0.157
		c-3.179,0.043-6.429-0.223-9.525,0.612c0,0.014,0,0.014-0.013,0.014c-0.003,0.002-0.036,0.034-0.043,0.042V7.79
		c-0.027,0.003-0.015,0.059,0.014,0.057v0.014c0.015,0,0.015,0.014,0.015,0.014c0.014,0,0.027,0.014,0.027,0.014s0,0,0.015,0
		C12.1,7.908,12.13,7.897,12.133,7.919c1.653,0.404,3.263,0.631,5.033,1.153v1.576c-2.898,0.195-5.89,0.234-8.73,0.711
		c0,0-0.033,0-0.042,0c-0.016,0.019-0.023,0.014-0.043,0.014c-0.014,0.015-0.014,0.015-0.028,0.015c0,0,0,0-0.015,0l-0.014,0.013
		c-0.015,0-0.015,0-0.015,0s0,0-0.014,0.015H8.252c0,0-0.013,0.014-0.027,0.014L8.21,11.444c-0.014,0-0.014,0.014-0.014,0.043
		c0,0-0.015-0.014-0.015,0C8.196,11.501,8.196,11.501,8.196,11.501z"/>
</g>
</svg>
