<?xml version="1.0" encoding="utf-8"?>
<!-- Generator: Adobe Illustrator 26.0.3, SVG Export Plug-In . SVG Version: 6.00 Build 0)  -->
<svg version="1.1" xmlns="http://www.w3.org/2000/svg" xmlns:xlink="http://www.w3.org/1999/xlink" x="0px" y="0px"
	 viewBox="0 0 150 150" enable-background="new 0 0 150 150" xml:space="preserve">
<g id="Layer_1">
</g>
<g id="GUIDE">
</g>
<g id="Layer_2">
	<g>
		<path fill="#FFFFFF" d="M29.242,76.578h20.016l0.706,0.012c14.403,0.42,17.351,7.216,10.522,19.434l-0.359,0.619l-9.655,16.723
			c-2.205,3.837-6.144,9.629-11.042,10.014l-0.173,0.012l-0.186,0.012h-0.359c-4.9-0.146-8.793-5.653-11.042-9.42l-0.186-0.309
			l-0.173-0.309l-9.655-16.723c-2.153-3.719-5.044-9.692-3.367-14.062l0.136-0.347l0.161-0.322
			c2.045-4.083,7.814-5.004,11.883-5.261l0.668-0.037l0.681-0.025l0.706-0.012H29.242"/>
		<path fill="#FFFFFF" d="M119.946,76.578H99.93l-0.706,0.012c-14.403,0.42-17.351,7.216-10.522,19.434l0.359,0.619l9.655,16.723
			c2.205,3.837,6.144,9.629,11.042,10.014l0.173,0.012l0.186,0.012h0.359c4.9-0.146,8.793-5.653,11.042-9.42l0.186-0.309
			l0.173-0.309l9.655-16.723c2.153-3.719,5.044-9.692,3.367-14.062l-0.136-0.347l-0.161-0.322
			c-2.045-4.083-7.814-5.004-11.883-5.261l-0.668-0.037l-0.681-0.025l-0.706-0.012H119.946"/>
		<path fill="#FFFFFF" d="M84.291,135.183H64.274l-0.706-0.012c-14.403-0.42-17.351-7.216-10.522-19.434l0.359-0.619l9.655-16.723
			c2.205-3.837,6.144-9.629,11.042-10.014l0.173-0.012l0.186-0.012h0.359c4.9,0.146,8.793,5.653,11.042,9.42l0.186,0.309
			l0.173,0.309l9.655,16.723c2.153,3.719,5.044,9.692,3.367,14.062l-0.136,0.347l-0.161,0.322
			c-2.045,4.083-7.814,5.004-11.883,5.261l-0.668,0.037l-0.681,0.025l-0.706,0.012H84.291"/>
		<path fill="#FFFFFF" d="M29.242,73.289h20.016l0.706-0.012c14.403-0.42,17.351-7.216,10.522-19.434l-0.359-0.619L50.471,36.5
			c-2.205-3.837-6.144-9.629-11.042-10.014l-0.173-0.012l-0.186-0.012h-0.359c-4.9,0.146-8.793,5.653-11.042,9.42l-0.186,0.309
			L27.311,36.5l-9.655,16.723c-2.153,3.719-5.044,9.692-3.367,14.062l0.136,0.347l0.161,0.322c2.045,4.083,7.814,5.004,11.883,5.261
			l0.668,0.037l0.681,0.025l0.706,0.012H29.242"/>
		<path fill="#FFFFFF" d="M119.946,73.289H99.93l-0.706-0.012c-14.403-0.42-17.351-7.216-10.522-19.434l0.359-0.619L98.717,36.5
			c2.205-3.837,6.144-9.629,11.042-10.014l0.173-0.012l0.186-0.012h0.359c4.9,0.146,8.793,5.653,11.042,9.42l0.186,0.309
			l0.173,0.309l9.655,16.723c2.153,3.719,5.044,9.692,3.367,14.062l-0.136,0.347l-0.161,0.322
			c-2.045,4.083-7.814,5.004-11.883,5.261l-0.668,0.037l-0.681,0.025l-0.706,0.012H119.946"/>
		<path fill="#FFFFFF" d="M84.291,14.684H64.274l-0.706,0.012c-14.403,0.42-17.351,7.216-10.522,19.434l0.359,0.619l9.655,16.723
			c2.205,3.837,6.144,9.629,11.042,10.014l0.173,0.012l0.186,0.012h0.359c4.9-0.146,8.793-5.653,11.042-9.42l0.186-0.309
			l0.173-0.309l9.655-16.723c2.153-3.719,5.044-9.692,3.367-14.062l-0.136-0.347l-0.161-0.322
			c-2.045-4.083-7.814-5.004-11.883-5.261l-0.668-0.037l-0.681-0.025l-0.706-0.012H84.291"/>
	</g>
</g>
</svg>
