<?xml version="1.0" encoding="utf-8"?>
<!-- Generator: Adobe Illustrator 26.0.3, SVG Export Plug-In . SVG Version: 6.00 Build 0)  -->
<svg version="1.1" xmlns="http://www.w3.org/2000/svg" xmlns:xlink="http://www.w3.org/1999/xlink" x="0px" y="0px"
	 viewBox="0 0 95 95" enable-background="new 0 0 95 95" xml:space="preserve">
<g id="Layer_1">
</g>
<g id="RING_CITY_icon_00000125579447467511843130000012846038137738356116_">
	<path fill="#FFFFFF" d="M50.911,37.079l-0.646-3.39l-1.793-3.407l-1.512-2.77l-1.274-2.923l-2.362-4.783l-2.625-2.09l-2.09-3.305
		l-1.003-0.629l-6.644-0.654l-0.952,0.824l-0.127,0.994l-1.028,2.005l-1.937,0.731l-1.215,1.147L25.55,19.9l-0.34,2.328l-3.11,7.511
		l0.306,3.415l0.068,1.3l0.042,0.867l-1.011,3.322l3.118,4.868l0.663,3.373l0.399,1.886l-0.535,4.342l-1.461,0.569l-0.909,0.705
		l-0.136,4.087l-4.257,2.073l-0.051,0.272l-0.221,1.215l-1.359,2.872l-0.765,0.62l-1.172,1.98l-0.034,0.637l-0.323,1.054
		l0.586-0.042l0.501,1.427l1.206,0.416l-0.17,1.546l0.994,2.625l-0.017,0.756l0.442,0.034l0.663,0.34l2.812-0.042l2.889-0.042
		l1.801-2.523h3.22l2.957-0.382l3.449-0.442l2.184,0.144l1.155,1.589l0.178,0.697l4.019,0.501l1.461,1.104l1.308,0.994l3.466,1.92
		l4.843,1.478l3.5,0.637l1.648-0.314l0.841-0.518l1.827-1.147l3.152-2.124l3.339-2.974l1.665-2.26l2.251-3.059l6.406-7.485
		l1.512-1.716l-0.051-0.238l-1.512-1.835l-1.266-1.869l-0.289-0.425l-3.229-4.698l-0.782-2.336l-0.314-2.991l-0.697-0.697
		l-4.707-0.773l-3.73-0.595l-0.782-0.705l-3.407-3.084l-2.685-0.85l-4.002-1.198L50.911,37.079z M50.588,29.153l1.98,3.73
		l0.467,2.498l0.901,0.399l3.883,1.164l3.195,1.011l3.798,3.432l0.246,0.229l3.033,0.484l5.48,0.892l1.852,1.852l0.374,3.568
		l0.586,1.776l3.042,4.426l0.297,0.433l1.198,1.776l1.81,2.184l0.433,2.014L80.86,63.63l-6.338,7.4l-2.201,2.991l-1.818,2.464
		l-3.645,3.246l-3.322,2.243l-1.852,1.164l-1.232,0.765l-2.532,0.467l-4.07-0.731l-5.225-1.597l-3.84-2.124l-1.453-1.096
		l-0.943-0.722l-4.996-0.612l-0.476-1.852l-0.221-0.297l-0.824-0.059l-3.22,0.416l-3.11,0.399h-2.133L25.618,78.6l-4.104,0.059
		l-3.398,0.051l-0.765-0.391l-2.243-0.161l0.051-2.574l-1.028-2.727l0.025-0.221l-0.493-0.161l-0.28-0.799v-0.008l-1.206,0.085
		l-0.34-2.209l0.561-1.818l0.042-0.935l1.699-2.855l0.671-0.552l0.994-2.099l0.17-0.909l0.272-1.461l4.044-1.971l0.119-3.755
		l2.082-1.623l0.45-0.178l0.314-2.515l-0.323-1.504l-0.578-2.948l-3.475-5.412l1.206-3.985l-0.017-0.442l-0.068-1.257l-0.348-3.959
		l3.22-7.782l0.289-2.022l0.272-1.903l2.184-2.048l1.521-0.578l0.416-0.807l0.195-1.487l2.413-2.107l8.25,0.816l1.937,1.223
		l2.158,3.415l2.736,2.175l2.625,5.319l1.249,2.872L50.588,29.153z"/>
</g>
</svg>
