<?xml version="1.0" encoding="utf-8"?>
<!-- Generator: Adobe Illustrator 26.0.3, SVG Export Plug-In . SVG Version: 6.00 Build 0)  -->
<svg version="1.1" id="Layer_1" xmlns="http://www.w3.org/2000/svg" xmlns:xlink="http://www.w3.org/1999/xlink" x="0px" y="0px"
	 viewBox="0 0 250 250" style="enable-background:new 0 0 250 250;" xml:space="preserve">
<style type="text/css">
	.st0{display:none;}
	.st1{display:inline;fill:#66FF33;}
	.st2{display:none;opacity:0.7;fill:#FFFFFF;enable-background:new    ;}
	.st3{display:none;fill:none;stroke:#66FF33;stroke-miterlimit:10;}
	.st4{fill:#FFFFFF;}
</style>
<g id="Layer_1_00000181801661291082423950000013133771067283052446_">
	<g id="bg" class="st0">
		<rect x="166.7" y="134.8" class="st1" width="53.9" height="53.9"/>
	</g>
	<g id="icon">
		<polygon class="st2" points="209.9,158.2 215.5,158.2 215.5,158.2 215.5,158.2 215.6,158.2 215.6,158.2 215.6,158.2 215.6,158.2 
			215.7,158.2 215.7,158.2 215.7,158.2 215.7,158.3 215.8,158.3 215.8,158.3 215.8,158.3 215.8,158.3 215.8,158.3 215.9,158.3 
			215.9,158.3 215.9,158.3 215.9,158.3 216,158.3 216,158.4 216,158.4 216,158.4 216.1,158.4 216.1,158.4 216.1,158.4 216.1,158.4 
			216.1,158.5 216.2,158.5 216.2,158.5 216.2,158.5 216.2,158.5 216.2,158.5 216.3,158.6 216.3,158.6 216.3,158.6 216.3,158.6 
			216.3,158.6 216.3,158.7 216.4,158.7 216.4,158.7 216.4,158.7 216.4,158.8 216.4,158.8 216.4,158.8 216.4,158.8 216.4,158.9 
			216.5,158.9 216.5,158.9 216.5,158.9 216.5,158.9 216.5,159 216.5,159 216.5,159 216.5,159 216.5,159.1 216.5,159.1 216.5,159.1 
			216.5,159.1 216.5,159.2 216.5,159.2 216.5,159.2 216.5,159.2 216.5,159.3 216.5,159.3 216.5,159.3 216.5,159.3 216.5,159.3 
			216.5,159.4 216.5,159.4 216.5,159.4 216.5,159.4 216.5,159.5 216.5,159.5 216.5,159.5 216.5,159.5 216.5,159.6 216.5,159.6 
			216.5,159.6 216.5,159.6 216.4,159.7 216.4,159.7 216.4,159.7 216.4,159.7 216.4,159.7 216.4,159.8 216.4,159.8 216.4,159.8 
			216.3,159.8 216.3,159.9 216.3,159.9 216.3,159.9 216.3,159.9 216.3,159.9 216.2,160 216.2,160 216.2,160 216.2,160 216.2,160 
			216.1,160.1 216.1,160.1 216.1,160.1 216.1,160.1 216.1,160.1 216,160.1 216,160.1 216,160.2 216,160.2 215.9,160.2 215.9,160.2 
			215.9,160.2 215.9,160.2 215.8,160.2 215.8,160.2 215.8,160.2 215.8,160.2 215.8,160.3 215.7,160.3 215.7,160.3 215.7,160.3 
			215.7,160.3 215.6,160.3 215.6,160.3 215.6,160.3 215.6,160.3 215.5,160.3 215.5,160.3 215.5,160.3 211.8,160.3 211.8,160.3 
			211.8,160.3 211.8,160.3 211.7,160.3 211.7,160.3 211.7,160.3 211.7,160.3 211.6,160.3 211.6,160.3 211.6,160.3 211.6,160.3 
			211.5,160.3 211.5,160.3 211.5,160.3 211.5,160.3 211.4,160.4 211.4,160.4 211.4,160.4 211.4,160.4 211.4,160.4 211.3,160.4 
			211.3,160.4 211.3,160.4 211.3,160.5 211.2,160.5 211.2,160.5 211.2,160.5 211.2,160.5 211.2,160.5 211.1,160.5 211.1,160.6 
			211.1,160.6 211.1,160.6 211.1,160.6 211,160.6 211,160.7 211,160.7 211,160.7 211,160.7 211,160.8 211,160.8 210.9,160.8 
			210.9,160.8 210.9,160.8 210.9,160.9 210.9,160.9 210.9,160.9 210.9,160.9 210.9,161 210.9,161 210.8,161 210.8,161 210.8,161.1 
			210.8,161.1 210.8,161.1 210.8,161.1 210.8,161.2 210.8,161.2 210.8,161.2 210.8,161.2 210.8,161.2 210.8,159.3 210.8,159.2 
			210.8,159.2 210.8,159.2 210.8,159.2 210.8,159.1 210.8,159.1 210.8,159.1 210.8,159.1 210.8,159 210.8,159 210.8,159 210.8,159 
			210.7,158.9 210.7,158.9 210.7,158.9 210.7,158.9 210.7,158.9 210.7,158.8 210.7,158.8 210.7,158.8 210.7,158.8 210.7,158.7 
			210.6,158.7 210.6,158.7 210.6,158.7 210.6,158.6 210.6,158.6 210.6,158.6 210.5,158.6 210.5,158.6 210.5,158.5 210.5,158.5 
			210.5,158.5 210.5,158.5 210.4,158.5 210.4,158.5 210.4,158.4 210.4,158.4 210.4,158.4 210.3,158.4 210.3,158.4 210.3,158.4 
			210.3,158.4 210.2,158.3 210.2,158.3 210.2,158.3 210.2,158.3 210.1,158.3 210.1,158.3 210.1,158.3 210.1,158.3 210,158.3 
			210,158.3 210,158.3 210,158.2 210,158.2 209.9,158.2 		"/>
		<polygon class="st2" points="209.6,164.9 203.7,164.9 203.7,164.9 203.7,164.9 203.7,164.8 203.8,164.8 203.8,164.8 203.8,164.8 
			203.8,164.8 203.9,164.8 203.9,164.8 203.9,164.8 203.9,164.8 203.9,164.8 204,164.8 204,164.8 204,164.8 204,164.7 204.1,164.7 
			204.1,164.7 204.1,164.7 204.1,164.7 204.2,164.7 204.2,164.7 204.2,164.6 204.2,164.6 204.2,164.6 204.3,164.6 204.3,164.6 
			204.3,164.5 204.3,164.5 204.3,164.5 204.3,164.5 204.4,164.5 204.4,164.4 204.4,164.4 204.4,164.4 204.4,164.4 204.4,164.4 
			204.4,164.3 204.5,164.3 204.5,164.3 204.5,164.3 204.5,164.2 204.5,164.2 204.5,164.2 204.5,164.2 204.5,164.1 204.5,164.1 
			204.5,164.1 204.5,164.1 204.6,164 204.6,164 204.6,164 204.6,164 204.6,164 204.6,163.9 204.6,163.9 204.6,163.9 204.6,163.9 
			204.6,163.8 204.6,161.8 204.6,161.9 204.6,161.9 204.6,161.9 204.6,161.9 204.6,162 204.6,162 204.6,162 204.6,162 204.6,162.1 
			204.6,162.1 204.6,162.1 204.6,162.1 204.6,162.2 204.7,162.2 204.7,162.2 204.7,162.2 204.7,162.2 204.7,162.3 204.7,162.3 
			204.7,162.3 204.7,162.3 204.8,162.4 204.8,162.4 204.8,162.4 204.8,162.4 204.8,162.4 204.8,162.5 204.9,162.5 204.9,162.5 
			204.9,162.5 204.9,162.5 204.9,162.6 205,162.6 205,162.6 205,162.6 205,162.6 205,162.6 205.1,162.7 205.1,162.7 205.1,162.7 
			205.1,162.7 205.2,162.7 205.2,162.7 205.2,162.7 205.2,162.7 205.3,162.7 205.3,162.8 205.3,162.8 205.3,162.8 205.3,162.8 
			205.4,162.8 205.4,162.8 205.4,162.8 205.4,162.8 205.5,162.8 205.5,162.8 205.5,162.8 205.5,162.8 205.6,162.8 205.6,162.8 
			205.6,162.8 207.7,162.8 207.7,162.8 207.8,162.8 207.8,162.8 207.8,162.8 207.8,162.8 207.8,162.8 207.9,162.8 207.9,162.8 
			207.9,162.8 207.9,162.8 208,162.8 208,162.8 208,162.8 208,162.8 208.1,162.7 208.1,162.7 208.1,162.7 208.1,162.7 208.2,162.7 
			208.2,162.7 208.2,162.7 208.2,162.7 208.2,162.7 208.3,162.6 208.3,162.6 208.3,162.6 208.3,162.6 208.4,162.6 208.4,162.6 
			208.4,162.5 208.4,162.5 208.4,162.5 208.5,162.5 208.5,162.5 208.5,162.4 208.5,162.4 208.5,162.4 208.5,162.4 208.6,162.4 
			208.6,162.3 208.6,162.3 208.6,162.3 208.6,162.3 208.6,162.2 208.6,162.2 208.6,162.2 208.7,162.2 208.7,162.2 208.7,162.1 
			208.7,162.1 208.7,162.1 208.7,162.1 208.7,162 208.7,162 208.7,162 208.7,162 208.7,161.9 208.7,161.9 208.7,161.9 208.7,161.9 
			208.7,163.8 208.7,163.9 208.7,163.9 208.7,163.9 208.7,163.9 208.7,164 208.7,164 208.7,164 208.8,164 208.8,164 208.8,164.1 
			208.8,164.1 208.8,164.1 208.8,164.1 208.8,164.2 208.8,164.2 208.8,164.2 208.8,164.2 208.8,164.3 208.8,164.3 208.9,164.3 
			208.9,164.3 208.9,164.4 208.9,164.4 208.9,164.4 208.9,164.4 208.9,164.4 208.9,164.5 209,164.5 209,164.5 209,164.5 209,164.5 
			209,164.6 209.1,164.6 209.1,164.6 209.1,164.6 209.1,164.6 209.1,164.7 209.2,164.7 209.2,164.7 209.2,164.7 209.2,164.7 
			209.2,164.7 209.3,164.7 209.3,164.8 209.3,164.8 209.3,164.8 209.4,164.8 209.4,164.8 209.4,164.8 209.4,164.8 209.5,164.8 
			209.5,164.8 209.5,164.8 209.5,164.8 209.6,164.8 209.6,164.8 209.6,164.9 		"/>
		<polygon class="st2" points="198.5,160.8 198.5,160.8 198.5,160.8 198.5,160.8 198.5,160.8 198.5,160.9 198.4,160.9 198.4,160.9 
			198.4,160.9 198.4,161 198.4,161 198.4,161 198.4,161 198.4,161.1 198.4,161.1 198.4,161.1 198.4,161.1 198.4,161.2 198.4,161.2 
			198.4,161.2 198.4,161.2 198.4,161.2 198.4,159.3 198.4,159.2 198.4,159.2 198.4,159.2 198.4,159.2 198.4,159.1 198.3,159.1 
			198.3,159.1 198.3,159.1 198.3,159 198.3,159 198.3,159 198.3,159 198.3,158.9 198.3,158.9 198.3,158.9 198.3,158.9 198.3,158.9 
			198.3,158.8 198.3,158.8 198.2,158.8 198.2,158.8 198.2,158.7 198.2,158.7 198.2,158.7 198.2,158.7 198.2,158.6 198.1,158.6 
			198.1,158.6 198.1,158.6 198.1,158.6 198.1,158.5 198.1,158.5 198,158.5 198,158.5 198,158.5 198,158.5 198,158.4 197.9,158.4 
			197.9,158.4 197.9,158.4 197.9,158.4 197.8,158.4 197.8,158.4 197.8,158.3 197.8,158.3 197.8,158.3 197.7,158.3 197.7,158.3 
			197.7,158.3 197.7,158.3 197.6,158.3 197.6,158.3 197.6,158.3 197.6,158.3 197.5,158.2 197.5,158.2 197.5,158.2 197.5,158.2 
			197.4,158.2 203.4,158.2 203.4,158.2 203.4,158.2 203.4,158.2 203.3,158.2 203.3,158.3 203.3,158.3 203.3,158.3 203.2,158.3 
			203.2,158.3 203.2,158.3 203.2,158.3 203.1,158.3 203.1,158.3 203.1,158.3 203.1,158.3 203,158.4 203,158.4 203,158.4 203,158.4 
			203,158.4 202.9,158.4 202.9,158.4 202.9,158.5 202.9,158.5 202.9,158.5 202.8,158.5 202.8,158.5 202.8,158.5 202.8,158.6 
			202.8,158.6 202.7,158.6 202.7,158.6 202.7,158.6 202.7,158.7 202.7,158.7 202.7,158.7 202.7,158.7 202.6,158.8 202.6,158.8 
			202.6,158.8 202.6,158.8 202.6,158.9 202.6,158.9 202.6,158.9 202.6,158.9 202.6,158.9 202.6,159 202.5,159 202.5,159 202.5,159 
			202.5,159.1 202.5,159.1 202.5,159.1 202.5,159.1 202.5,159.2 202.5,159.2 202.5,159.2 202.5,159.2 202.5,159.3 202.5,161.2 
			202.5,161.2 202.5,161.2 202.5,161.2 202.5,161.1 202.5,161.1 202.5,161.1 202.5,161.1 202.5,161 202.5,161 202.5,161 202.5,161 
			202.4,160.9 202.4,160.9 202.4,160.9 202.4,160.9 202.4,160.8 202.4,160.8 202.4,160.8 202.4,160.8 202.3,160.8 202.3,160.7 
			202.3,160.7 202.3,160.7 202.3,160.7 202.3,160.6 202.3,160.6 202.2,160.6 202.2,160.6 202.2,160.6 202.2,160.5 202.2,160.5 
			202.1,160.5 202.1,160.5 202.1,160.5 202.1,160.5 202,160.5 202,160.4 202,160.4 202,160.4 202,160.4 201.9,160.4 201.9,160.4 
			201.9,160.4 201.9,160.4 201.8,160.3 201.8,160.3 201.8,160.3 201.8,160.3 201.7,160.3 201.7,160.3 201.7,160.3 201.7,160.3 
			201.6,160.3 201.6,160.3 201.6,160.3 201.6,160.3 201.6,160.3 201.5,160.3 201.5,160.3 201.5,160.3 199.4,160.3 199.4,160.3 
			199.3,160.3 199.3,160.3 199.3,160.3 199.3,160.3 199.2,160.3 199.2,160.3 199.2,160.3 199.2,160.3 199.2,160.3 199.1,160.3 
			199.1,160.3 199.1,160.3 199.1,160.3 199,160.3 199,160.4 199,160.4 199,160.4 198.9,160.4 198.9,160.4 198.9,160.4 198.9,160.4 
			198.8,160.4 198.8,160.5 198.8,160.5 198.8,160.5 198.8,160.5 198.7,160.5 198.7,160.5 198.7,160.5 198.7,160.6 198.7,160.6 
			198.6,160.6 198.6,160.6 198.6,160.6 198.6,160.7 198.6,160.7 198.6,160.7 198.5,160.7 		"/>
		<polygon class="st2" points="192.4,162.5 192.4,162.5 192.4,162.5 192.5,162.5 192.5,162.5 192.5,162.6 192.5,162.6 192.5,162.6 
			192.6,162.6 192.6,162.6 192.6,162.6 192.6,162.7 192.6,162.7 192.7,162.7 192.7,162.7 192.7,162.7 192.7,162.7 192.8,162.7 
			192.8,162.7 192.8,162.7 192.8,162.8 192.9,162.8 192.9,162.8 192.9,162.8 192.9,162.8 193,162.8 193,162.8 193,162.8 193,162.8 
			193.1,162.8 193.1,162.8 193.1,162.8 193.1,162.8 193.1,162.8 193.2,162.8 195.3,162.8 195.3,162.8 195.3,162.8 195.3,162.8 
			195.4,162.8 195.4,162.8 195.4,162.8 195.4,162.8 195.5,162.8 195.5,162.8 195.5,162.8 195.5,162.8 195.5,162.8 195.6,162.8 
			195.6,162.8 195.6,162.7 195.6,162.7 195.7,162.7 195.7,162.7 195.7,162.7 195.7,162.7 195.8,162.7 195.8,162.7 195.8,162.7 
			195.8,162.6 195.9,162.6 195.9,162.6 195.9,162.6 195.9,162.6 195.9,162.6 196,162.5 196,162.5 196,162.5 196,162.5 196,162.5 
			196,162.4 196.1,162.4 196.1,162.4 196.1,162.4 196.1,162.4 196.1,162.3 196.1,162.3 196.2,162.3 196.2,162.3 196.2,162.2 
			196.2,162.2 196.2,162.2 196.2,162.2 196.2,162.2 196.2,162.1 196.2,162.1 196.2,162.1 196.3,162.1 196.3,162 196.3,162 
			196.3,162 196.3,162 196.3,161.9 196.3,161.9 196.3,161.9 196.3,161.9 196.3,163.8 196.3,163.9 196.3,163.9 196.3,163.9 
			196.3,163.9 196.3,164 196.3,164 196.3,164 196.3,164 196.3,164 196.3,164.1 196.3,164.1 196.3,164.1 196.3,164.1 196.4,164.2 
			196.4,164.2 196.4,164.2 196.4,164.2 196.4,164.3 196.4,164.3 196.4,164.3 196.4,164.3 196.4,164.4 196.5,164.4 196.5,164.4 
			196.5,164.4 196.5,164.4 196.5,164.5 196.5,164.5 196.5,164.5 196.6,164.5 196.6,164.5 196.6,164.6 196.6,164.6 196.6,164.6 
			196.7,164.6 196.7,164.6 196.7,164.7 196.7,164.7 196.7,164.7 196.8,164.7 196.8,164.7 196.8,164.7 196.8,164.7 196.9,164.8 
			196.9,164.8 196.9,164.8 196.9,164.8 196.9,164.8 197,164.8 197,164.8 197,164.8 197,164.8 197.1,164.8 197.1,164.8 197.1,164.8 
			197.1,164.8 197.2,164.9 197.2,164.9 197.2,164.9 191.2,164.9 191.2,164.9 191.3,164.9 191.3,164.8 191.3,164.8 191.3,164.8 
			191.4,164.8 191.4,164.8 191.4,164.8 191.4,164.8 191.5,164.8 191.5,164.8 191.5,164.8 191.5,164.8 191.6,164.8 191.6,164.8 
			191.6,164.7 191.6,164.7 191.6,164.7 191.7,164.7 191.7,164.7 191.7,164.7 191.7,164.7 191.8,164.6 191.8,164.6 191.8,164.6 
			191.8,164.6 191.8,164.6 191.9,164.5 191.9,164.5 191.9,164.5 191.9,164.5 191.9,164.5 191.9,164.4 192,164.4 192,164.4 
			192,164.4 192,164.4 192,164.3 192,164.3 192,164.3 192,164.3 192.1,164.2 192.1,164.2 192.1,164.2 192.1,164.2 192.1,164.1 
			192.1,164.1 192.1,164.1 192.1,164.1 192.1,164 192.1,164 192.1,164 192.1,164 192.1,164 192.1,163.9 192.1,163.9 192.1,163.9 
			192.1,163.9 192.1,163.8 192.1,161.8 192.1,161.8 192.1,161.9 192.1,161.9 192.1,161.9 192.2,161.9 192.2,162 192.2,162 
			192.2,162 192.2,162 192.2,162.1 192.2,162.1 192.2,162.1 192.2,162.1 192.2,162.2 192.2,162.2 192.2,162.2 192.2,162.2 
			192.3,162.2 192.3,162.3 192.3,162.3 192.3,162.3 192.3,162.3 192.3,162.4 192.3,162.4 192.4,162.4 192.4,162.4 192.4,162.4 		"/>
		<polygon class="st2" points="186.5,160.4 186.5,160.4 186.5,160.4 186.4,160.4 186.4,160.4 186.4,160.5 186.4,160.5 186.3,160.5 
			186.3,160.5 186.3,160.5 186.3,160.5 186.3,160.5 186.2,160.6 186.2,160.6 186.2,160.6 186.2,160.6 186.2,160.6 186.1,160.7 
			186.1,160.7 186.1,160.7 186.1,160.7 186.1,160.8 186.1,160.8 186.1,160.8 186,160.8 186,160.8 186,160.9 186,160.9 186,160.9 
			186,160.9 186,161 186,161 186,161 186,161 186,161.1 185.9,161.1 185.9,161.1 185.9,161.1 185.9,161.2 185.9,161.2 185.9,161.2 
			185.9,161.2 185.9,161.2 185.9,161.3 185.9,159.3 185.9,159.2 185.9,159.2 185.9,159.2 185.9,159.2 185.9,159.1 185.9,159.1 
			185.9,159.1 185.9,159.1 185.9,159 185.9,159 185.9,159 185.9,159 185.9,158.9 185.9,158.9 185.9,158.9 185.8,158.9 185.8,158.9 
			185.8,158.8 185.8,158.8 185.8,158.8 185.8,158.8 185.8,158.7 185.8,158.7 185.8,158.7 185.7,158.7 185.7,158.6 185.7,158.6 
			185.7,158.6 185.7,158.6 185.7,158.6 185.6,158.5 185.6,158.5 185.6,158.5 185.6,158.5 185.6,158.5 185.5,158.5 185.5,158.4 
			185.5,158.4 185.5,158.4 185.5,158.4 185.4,158.4 185.4,158.4 185.4,158.4 185.4,158.3 185.3,158.3 185.3,158.3 185.3,158.3 
			185.3,158.3 185.2,158.3 185.2,158.3 185.2,158.3 185.2,158.3 185.1,158.3 185.1,158.3 185.1,158.2 185.1,158.2 185.1,158.2 
			185,158.2 185,158.2 191,158.2 191,158.2 190.9,158.2 190.9,158.2 190.9,158.2 190.9,158.3 190.8,158.3 190.8,158.3 190.8,158.3 
			190.8,158.3 190.8,158.3 190.7,158.3 190.7,158.3 190.7,158.3 190.7,158.3 190.6,158.3 190.6,158.4 190.6,158.4 190.6,158.4 
			190.5,158.4 190.5,158.4 190.5,158.4 190.5,158.4 190.5,158.5 190.4,158.5 190.4,158.5 190.4,158.5 190.4,158.5 190.4,158.5 
			190.3,158.6 190.3,158.6 190.3,158.6 190.3,158.6 190.3,158.6 190.3,158.7 190.2,158.7 190.2,158.7 190.2,158.7 190.2,158.8 
			190.2,158.8 190.2,158.8 190.2,158.8 190.2,158.9 190.1,158.9 190.1,158.9 190.1,158.9 190.1,158.9 190.1,159 190.1,159 
			190.1,159 190.1,159 190.1,159.1 190.1,159.1 190.1,159.1 190.1,159.1 190.1,159.2 190.1,159.2 190.1,159.2 190.1,159.2 
			190.1,159.3 190.1,161.2 190.1,161.2 190.1,161.2 190.1,161.1 190.1,161.1 190,161.1 190,161.1 190,161 190,161 190,161 190,161 
			190,160.9 190,160.9 190,160.9 190,160.9 190,160.8 189.9,160.8 189.9,160.8 189.9,160.8 189.9,160.8 189.9,160.7 189.9,160.7 
			189.9,160.7 189.8,160.7 189.8,160.6 189.8,160.6 189.8,160.6 189.8,160.6 189.8,160.6 189.7,160.5 189.7,160.5 189.7,160.5 
			189.7,160.5 189.7,160.5 189.6,160.5 189.6,160.5 189.6,160.4 189.6,160.4 189.5,160.4 189.5,160.4 189.5,160.4 189.5,160.4 
			189.4,160.4 189.4,160.4 189.4,160.3 189.4,160.3 189.4,160.3 189.3,160.3 189.3,160.3 189.3,160.3 189.3,160.3 189.2,160.3 
			189.2,160.3 189.2,160.3 189.2,160.3 189.1,160.3 189.1,160.3 189.1,160.3 189.1,160.3 189,160.3 186.9,160.3 186.9,160.3 
			186.9,160.3 186.9,160.3 186.9,160.3 186.8,160.3 186.8,160.3 186.8,160.3 186.8,160.3 186.7,160.3 186.7,160.3 186.7,160.3 
			186.7,160.3 186.6,160.3 186.6,160.3 186.6,160.3 186.6,160.4 186.5,160.4 		"/>
		<polygon class="st2" points="184.8,164.9 178.8,164.9 178.8,164.9 178.8,164.9 178.9,164.8 178.9,164.8 178.9,164.8 178.9,164.8 
			179,164.8 179,164.8 179,164.8 179,164.8 179,164.8 179.1,164.8 179.1,164.8 179.1,164.8 179.1,164.8 179.2,164.7 179.2,164.7 
			179.2,164.7 179.2,164.7 179.3,164.7 179.3,164.7 179.3,164.7 179.3,164.6 179.3,164.6 179.4,164.6 179.4,164.6 179.4,164.6 
			179.4,164.5 179.4,164.5 179.5,164.5 179.5,164.5 179.5,164.5 179.5,164.4 179.5,164.4 179.5,164.4 179.5,164.4 179.6,164.4 
			179.6,164.3 179.6,164.3 179.6,164.3 179.6,164.3 179.6,164.2 179.6,164.2 179.6,164.2 179.6,164.2 179.7,164.1 179.7,164.1 
			179.7,164.1 179.7,164.1 179.7,164 179.7,164 179.7,164 179.7,164 179.7,164 179.7,163.9 179.7,163.9 179.7,163.9 179.7,163.9 
			179.7,163.8 179.7,161.8 179.7,161.8 179.7,161.9 179.7,161.9 179.7,161.9 179.7,161.9 179.7,162 179.7,162 179.7,162 179.7,162 
			179.7,162.1 179.7,162.1 179.8,162.1 179.8,162.1 179.8,162.2 179.8,162.2 179.8,162.2 179.8,162.2 179.8,162.2 179.8,162.3 
			179.8,162.3 179.9,162.3 179.9,162.3 179.9,162.4 179.9,162.4 179.9,162.4 179.9,162.4 179.9,162.4 180,162.5 180,162.5 
			180,162.5 180,162.5 180,162.5 180.1,162.6 180.1,162.6 180.1,162.6 180.1,162.6 180.1,162.6 180.2,162.6 180.2,162.7 
			180.2,162.7 180.2,162.7 180.3,162.7 180.3,162.7 180.3,162.7 180.3,162.7 180.3,162.7 180.4,162.7 180.4,162.8 180.4,162.8 
			180.4,162.8 180.5,162.8 180.5,162.8 180.5,162.8 180.5,162.8 180.6,162.8 180.6,162.8 180.6,162.8 180.6,162.8 180.7,162.8 
			180.7,162.8 180.7,162.8 180.7,162.8 182.8,162.8 182.8,162.8 182.9,162.8 182.9,162.8 182.9,162.8 182.9,162.8 183,162.8 
			183,162.8 183,162.8 183,162.8 183.1,162.8 183.1,162.8 183.1,162.8 183.1,162.8 183.2,162.8 183.2,162.7 183.2,162.7 
			183.2,162.7 183.3,162.7 183.3,162.7 183.3,162.7 183.3,162.7 183.3,162.7 183.4,162.7 183.4,162.6 183.4,162.6 183.4,162.6 
			183.5,162.6 183.5,162.6 183.5,162.6 183.5,162.5 183.5,162.5 183.6,162.5 183.6,162.5 183.6,162.5 183.6,162.4 183.6,162.4 
			183.6,162.4 183.7,162.4 183.7,162.4 183.7,162.3 183.7,162.3 183.7,162.3 183.7,162.3 183.7,162.2 183.8,162.2 183.8,162.2 
			183.8,162.2 183.8,162.2 183.8,162.1 183.8,162.1 183.8,162.1 183.8,162.1 183.8,162 183.8,162 183.8,162 183.8,162 183.8,161.9 
			183.8,161.9 183.9,161.9 183.9,163.8 183.9,163.9 183.9,163.9 183.9,163.9 183.9,163.9 183.9,164 183.9,164 183.9,164 183.9,164 
			183.9,164 183.9,164.1 183.9,164.1 183.9,164.1 183.9,164.1 183.9,164.2 183.9,164.2 183.9,164.2 183.9,164.2 183.9,164.3 
			184,164.3 184,164.3 184,164.3 184,164.4 184,164.4 184,164.4 184,164.4 184.1,164.4 184.1,164.5 184.1,164.5 184.1,164.5 
			184.1,164.5 184.1,164.5 184.2,164.6 184.2,164.6 184.2,164.6 184.2,164.6 184.2,164.6 184.3,164.7 184.3,164.7 184.3,164.7 
			184.3,164.7 184.3,164.7 184.4,164.7 184.4,164.7 184.4,164.8 184.4,164.8 184.5,164.8 184.5,164.8 184.5,164.8 184.5,164.8 
			184.6,164.8 184.6,164.8 184.6,164.8 184.6,164.8 184.7,164.8 184.7,164.8 184.7,164.8 184.7,164.9 184.7,164.9 		"/>
		<polygon class="st2" points="173.5,158.2 178.6,158.2 178.5,158.2 178.5,158.2 178.5,158.2 178.5,158.2 178.4,158.3 178.4,158.3 
			178.4,158.3 178.4,158.3 178.3,158.3 178.3,158.3 178.3,158.3 178.3,158.3 178.2,158.3 178.2,158.3 178.2,158.3 178.2,158.4 
			178.1,158.4 178.1,158.4 178.1,158.4 178.1,158.4 178.1,158.4 178,158.4 178,158.5 178,158.5 178,158.5 178,158.5 177.9,158.5 
			177.9,158.5 177.9,158.6 177.9,158.6 177.9,158.6 177.9,158.6 177.8,158.6 177.8,158.7 177.8,158.7 177.8,158.7 177.8,158.7 
			177.8,158.8 177.8,158.8 177.7,158.8 177.7,158.8 177.7,158.9 177.7,158.9 177.7,158.9 177.7,158.9 177.7,158.9 177.7,159 
			177.7,159 177.7,159 177.7,159 177.7,159.1 177.7,159.1 177.6,159.1 177.6,159.1 177.6,159.2 177.6,159.2 177.6,159.2 
			177.6,159.2 177.6,159.3 177.6,161.2 177.6,161.2 177.6,161.2 177.6,161.1 177.6,161.1 177.6,161.1 177.6,161.1 177.6,161 
			177.6,161 177.6,161 177.6,161 177.6,160.9 177.6,160.9 177.5,160.9 177.5,160.9 177.5,160.8 177.5,160.8 177.5,160.8 
			177.5,160.8 177.5,160.8 177.5,160.7 177.4,160.7 177.4,160.7 177.4,160.7 177.4,160.6 177.4,160.6 177.4,160.6 177.3,160.6 
			177.3,160.6 177.3,160.5 177.3,160.5 177.3,160.5 177.2,160.5 177.2,160.5 177.2,160.5 177.2,160.5 177.1,160.4 177.1,160.4 
			177.1,160.4 177.1,160.4 177.1,160.4 177,160.4 177,160.4 177,160.4 177,160.3 176.9,160.3 176.9,160.3 176.9,160.3 176.9,160.3 
			176.8,160.3 176.8,160.3 176.8,160.3 176.8,160.3 176.7,160.3 176.7,160.3 176.7,160.3 176.7,160.3 176.7,160.3 176.6,160.3 
			176.6,160.3 174.5,160.3 174.5,160.3 174.5,160.3 174.4,160.3 174.4,160.3 174.4,160.3 174.4,160.3 174.3,160.3 174.3,160.3 
			174.3,160.3 174.3,160.3 174.3,160.3 174.2,160.3 174.2,160.3 174.2,160.3 174.2,160.3 174.1,160.4 174.1,160.4 174.1,160.4 
			174.1,160.4 174,160.4 174,160.4 174,160.4 174,160.4 173.9,160.5 173.9,160.5 173.9,160.5 173.9,160.5 173.9,160.5 173.8,160.5 
			173.8,160.5 173.8,160.6 173.8,160.6 173.8,160.6 173.7,160.6 173.7,160.6 173.7,160.7 173.7,160.7 173.7,160.7 173.7,160.7 
			173.6,160.8 173.6,160.8 173.6,160.8 173.6,160.8 173.6,160.8 173.6,160.9 173.6,160.9 173.6,160.9 173.6,160.9 173.5,161 
			173.5,161 173.5,161 173.5,161 173.5,161.1 173.5,161.1 173.5,161.1 173.5,161.1 173.5,161.2 173.5,161.2 173.5,161.2 
			173.5,161.2 173.5,161.2 173.5,161.3 173.5,161.3 		"/>
		<polygon class="st3" points="178.7,164.9 172.4,164.9 172.4,164.9 172.4,164.9 172.4,164.9 172.4,164.9 172.3,164.9 172.3,164.9 
			172.3,164.9 172.3,164.8 172.2,164.8 172.2,164.8 172.2,164.8 172.2,164.8 172.1,164.8 172.1,164.8 172.1,164.8 172.1,164.8 
			172,164.8 172,164.8 172,164.8 172,164.8 172,164.7 171.9,164.7 171.9,164.7 171.9,164.7 171.9,164.7 171.8,164.7 171.8,164.7 
			171.8,164.6 171.8,164.6 171.8,164.6 171.7,164.6 171.7,164.6 171.7,164.5 171.7,164.5 171.7,164.5 171.6,164.5 171.6,164.5 
			171.6,164.4 171.6,164.4 171.6,164.4 171.6,164.4 171.6,164.4 171.5,164.3 171.5,164.3 171.5,164.3 171.5,164.3 171.5,164.2 
			171.5,164.2 171.5,164.2 171.5,164.2 171.5,164.1 171.5,164.1 171.5,164.1 171.4,164.1 171.4,164 171.4,164 171.4,164 171.4,164 
			171.4,164 171.4,163.9 171.4,163.9 171.4,163.9 171.4,163.9 171.4,163.8 171.4,159.3 171.4,157.3 171.4,157.3 171.4,157.2 
			171.4,157.2 171.4,157.2 171.4,157.2 171.4,157.1 171.4,157.1 171.4,157.1 171.4,157.1 171.4,157.1 171.5,157 171.5,157 
			171.5,157 171.5,157 171.5,156.9 171.5,156.9 171.5,156.9 171.5,156.9 171.5,156.8 171.5,156.8 171.5,156.8 171.6,156.8 
			171.6,156.7 171.6,156.7 171.6,156.7 171.6,156.7 171.6,156.7 171.6,156.6 171.7,156.6 171.7,156.6 171.7,156.6 171.7,156.6 
			171.7,156.5 171.8,156.5 171.8,156.5 171.8,156.5 171.8,156.5 171.8,156.5 171.9,156.4 171.9,156.4 171.9,156.4 171.9,156.4 
			172,156.4 172,156.4 172,156.4 172,156.4 172,156.3 172.1,156.3 172.1,156.3 172.1,156.3 172.1,156.3 172.2,156.3 172.2,156.3 
			172.2,156.3 172.2,156.3 172.3,156.3 172.3,156.3 172.3,156.3 172.3,156.3 172.4,156.3 172.4,156.3 172.4,156.3 172.4,156.3 
			172.4,156.3 172.5,156.3 172.5,156.3 172.5,156.3 172.5,156.3 172.6,156.3 172.6,156.3 172.6,156.3 172.6,156.3 172.7,156.3 
			172.7,156.3 172.7,156.3 172.7,156.3 172.8,156.3 172.8,156.3 172.8,156.3 172.8,156.3 172.9,156.3 172.9,156.4 172.9,156.4 
			172.9,156.4 172.9,156.4 173,156.4 173,156.4 173,156.4 173,156.4 173.1,156.5 173.1,156.5 173.1,156.5 173.1,156.5 173.1,156.5 
			173.2,156.5 173.2,156.6 173.2,156.6 173.2,156.6 173.2,156.6 173.2,156.6 173.3,156.7 173.3,156.7 173.3,156.7 173.3,156.7 
			173.3,156.7 173.3,156.8 173.4,156.8 173.4,156.8 173.4,156.8 173.4,156.9 173.4,156.9 173.4,156.9 173.4,156.9 173.4,157 
			173.4,157 173.4,157 173.4,157 173.5,157.1 173.5,157.1 173.5,157.1 173.5,157.1 173.5,157.1 173.5,157.2 173.5,157.2 
			173.5,157.2 173.5,157.2 173.5,157.3 173.5,157.3 173.5,158.2 173.5,161.3 173.5,161.3 173.5,161.8 173.5,161.8 173.5,161.8 
			173.5,161.8 173.5,161.9 173.5,161.9 173.5,161.9 173.5,161.9 173.5,162 173.5,162 173.5,162 173.5,162 173.5,162.1 173.5,162.1 
			173.5,162.1 173.5,162.1 173.6,162.2 173.6,162.2 173.6,162.2 173.6,162.2 173.6,162.2 173.6,162.3 173.6,162.3 173.6,162.3 
			173.6,162.3 173.7,162.4 173.7,162.4 173.7,162.4 173.7,162.4 173.7,162.4 173.7,162.5 173.8,162.5 173.8,162.5 173.8,162.5 
			173.8,162.5 173.8,162.6 173.9,162.6 173.9,162.6 173.9,162.6 173.9,162.6 173.9,162.6 174,162.7 174,162.7 174,162.7 174,162.7 
			174.1,162.7 174.1,162.7 174.1,162.7 174.1,162.7 174.2,162.7 174.2,162.8 174.2,162.8 174.2,162.8 174.3,162.8 174.3,162.8 
			174.3,162.8 174.3,162.8 174.3,162.8 174.4,162.8 174.4,162.8 174.4,162.8 174.4,162.8 174.5,162.8 174.5,162.8 174.5,162.8 
			176.6,162.8 176.6,162.8 176.7,162.8 176.7,162.8 176.7,162.8 176.7,162.8 176.7,162.8 176.8,162.8 176.8,162.8 176.8,162.8 
			176.8,162.8 176.9,162.8 176.9,162.8 176.9,162.8 176.9,162.8 177,162.7 177,162.7 177,162.7 177,162.7 177.1,162.7 177.1,162.7 
			177.1,162.7 177.1,162.7 177.1,162.7 177.2,162.6 177.2,162.6 177.2,162.6 177.2,162.6 177.3,162.6 177.3,162.6 177.3,162.5 
			177.3,162.5 177.3,162.5 177.4,162.5 177.4,162.5 177.4,162.4 177.4,162.4 177.4,162.4 177.4,162.4 177.5,162.4 177.5,162.3 
			177.5,162.3 177.5,162.3 177.5,162.3 177.5,162.2 177.5,162.2 177.5,162.2 177.6,162.2 177.6,162.2 177.6,162.1 177.6,162.1 
			177.6,162.1 177.6,162.1 177.6,162 177.6,162 177.6,162 177.6,162 177.6,161.9 177.6,161.9 177.6,161.9 177.6,161.9 177.6,161.8 
			177.6,161.8 177.6,161.8 177.6,161.8 177.6,161.3 177.6,161.3 177.6,161.3 177.6,161.2 177.6,161.2 177.6,161.2 177.6,159.3 
			177.6,159.2 177.6,159.2 177.6,159.2 177.6,159.2 177.6,159.1 177.6,159.1 177.7,159.1 177.7,159.1 177.7,159 177.7,159 
			177.7,159 177.7,159 177.7,158.9 177.7,158.9 177.7,158.9 177.7,158.9 177.7,158.9 177.7,158.8 177.7,158.8 177.8,158.8 
			177.8,158.8 177.8,158.7 177.8,158.7 177.8,158.7 177.8,158.7 177.8,158.6 177.9,158.6 177.9,158.6 177.9,158.6 177.9,158.6 
			177.9,158.5 177.9,158.5 178,158.5 178,158.5 178,158.5 178,158.5 178,158.4 178.1,158.4 178.1,158.4 178.1,158.4 178.1,158.4 
			178.1,158.4 178.2,158.4 178.2,158.3 178.2,158.3 178.2,158.3 178.3,158.3 178.3,158.3 178.3,158.3 178.3,158.3 178.4,158.3 
			178.4,158.3 178.4,158.3 178.4,158.3 178.5,158.2 178.5,158.2 178.5,158.2 178.5,158.2 178.6,158.2 178.7,158.2 184.9,158.2 
			185,158.2 185,158.2 185.1,158.2 185.1,158.2 185.1,158.2 185.1,158.3 185.1,158.3 185.2,158.3 185.2,158.3 185.2,158.3 
			185.2,158.3 185.3,158.3 185.3,158.3 185.3,158.3 185.3,158.3 185.4,158.3 185.4,158.4 185.4,158.4 185.4,158.4 185.5,158.4 
			185.5,158.4 185.5,158.4 185.5,158.4 185.5,158.5 185.6,158.5 185.6,158.5 185.6,158.5 185.6,158.5 185.6,158.5 185.7,158.6 
			185.7,158.6 185.7,158.6 185.7,158.6 185.7,158.6 185.7,158.7 185.8,158.7 185.8,158.7 185.8,158.7 185.8,158.8 185.8,158.8 
			185.8,158.8 185.8,158.8 185.8,158.9 185.8,158.9 185.9,158.9 185.9,158.9 185.9,158.9 185.9,159 185.9,159 185.9,159 185.9,159 
			185.9,159.1 185.9,159.1 185.9,159.1 185.9,159.1 185.9,159.2 185.9,159.2 185.9,159.2 185.9,159.2 185.9,159.3 185.9,161.3 
			185.9,161.3 185.9,161.3 185.9,161.8 185.9,161.8 185.9,161.8 185.9,161.8 185.9,161.9 185.9,161.9 185.9,161.9 185.9,161.9 
			185.9,162 185.9,162 185.9,162 186,162 186,162.1 186,162.1 186,162.1 186,162.1 186,162.2 186,162.2 186,162.2 186,162.2 
			186,162.2 186,162.3 186.1,162.3 186.1,162.3 186.1,162.3 186.1,162.4 186.1,162.4 186.1,162.4 186.1,162.4 186.2,162.4 
			186.2,162.5 186.2,162.5 186.2,162.5 186.2,162.5 186.3,162.5 186.3,162.6 186.3,162.6 186.3,162.6 186.3,162.6 186.4,162.6 
			186.4,162.6 186.4,162.7 186.4,162.7 186.5,162.7 186.5,162.7 186.5,162.7 186.5,162.7 186.5,162.7 186.6,162.7 186.6,162.7 
			186.6,162.8 186.6,162.8 186.7,162.8 186.7,162.8 186.7,162.8 186.7,162.8 186.8,162.8 186.8,162.8 186.8,162.8 186.8,162.8 
			186.9,162.8 186.9,162.8 186.9,162.8 186.9,162.8 186.9,162.8 189,162.8 189.1,162.8 189.1,162.8 189.1,162.8 189.1,162.8 
			189.2,162.8 189.2,162.8 189.2,162.8 189.2,162.8 189.3,162.8 189.3,162.8 189.3,162.8 189.3,162.8 189.4,162.8 189.4,162.8 
			189.4,162.7 189.4,162.7 189.4,162.7 189.5,162.7 189.5,162.7 189.5,162.7 189.5,162.7 189.6,162.7 189.6,162.7 189.6,162.6 
			189.6,162.6 189.7,162.6 189.7,162.6 189.7,162.6 189.7,162.6 189.7,162.5 189.8,162.5 189.8,162.5 189.8,162.5 189.8,162.5 
			189.8,162.4 189.8,162.4 189.9,162.4 189.9,162.4 189.9,162.4 189.9,162.3 189.9,162.3 189.9,162.3 189.9,162.3 190,162.2 
			190,162.2 190,162.2 190,162.2 190,162.2 190,162.1 190,162.1 190,162.1 190,162.1 190,162 190,162 190.1,162 190.1,162 
			190.1,161.9 190.1,161.9 190.1,161.9 190.1,161.9 190.1,161.8 190.1,161.8 190.1,161.8 190.1,161.8 190.1,161.3 190.1,161.3 
			190.1,161.3 190.1,161.2 190.1,161.2 190.1,161.2 190.1,159.3 190.1,159.2 190.1,159.2 190.1,159.2 190.1,159.2 190.1,159.1 
			190.1,159.1 190.1,159.1 190.1,159.1 190.1,159 190.1,159 190.1,159 190.1,159 190.1,158.9 190.1,158.9 190.1,158.9 190.1,158.9 
			190.2,158.9 190.2,158.8 190.2,158.8 190.2,158.8 190.2,158.8 190.2,158.7 190.2,158.7 190.2,158.7 190.3,158.7 190.3,158.6 
			190.3,158.6 190.3,158.6 190.3,158.6 190.3,158.6 190.4,158.5 190.4,158.5 190.4,158.5 190.4,158.5 190.4,158.5 190.5,158.5 
			190.5,158.4 190.5,158.4 190.5,158.4 190.5,158.4 190.6,158.4 190.6,158.4 190.6,158.4 190.6,158.3 190.7,158.3 190.7,158.3 
			190.7,158.3 190.7,158.3 190.8,158.3 190.8,158.3 190.8,158.3 190.8,158.3 190.8,158.3 190.9,158.3 190.9,158.2 190.9,158.2 
			190.9,158.2 191,158.2 191,158.2 191.1,158.2 197.3,158.2 197.4,158.2 197.5,158.2 197.5,158.2 197.5,158.2 197.5,158.2 
			197.6,158.3 197.6,158.3 197.6,158.3 197.6,158.3 197.7,158.3 197.7,158.3 197.7,158.3 197.7,158.3 197.8,158.3 197.8,158.3 
			197.8,158.3 197.8,158.4 197.8,158.4 197.9,158.4 197.9,158.4 197.9,158.4 197.9,158.4 198,158.4 198,158.5 198,158.5 198,158.5 
			198,158.5 198.1,158.5 198.1,158.5 198.1,158.6 198.1,158.6 198.1,158.6 198.1,158.6 198.2,158.6 198.2,158.7 198.2,158.7 
			198.2,158.7 198.2,158.7 198.2,158.8 198.2,158.8 198.3,158.8 198.3,158.8 198.3,158.9 198.3,158.9 198.3,158.9 198.3,158.9 
			198.3,158.9 198.3,159 198.3,159 198.3,159 198.3,159 198.3,159.1 198.3,159.1 198.3,159.1 198.4,159.1 198.4,159.2 198.4,159.2 
			198.4,159.2 198.4,159.2 198.4,159.3 198.4,161.2 198.4,161.3 198.4,161.3 198.4,161.3 198.4,161.8 198.4,161.8 198.4,161.8 
			198.4,161.8 198.4,161.9 198.4,161.9 198.4,161.9 198.4,161.9 198.4,162 198.4,162 198.4,162 198.4,162 198.4,162.1 198.4,162.1 
			198.4,162.1 198.4,162.1 198.4,162.2 198.4,162.2 198.4,162.2 198.5,162.2 198.5,162.2 198.5,162.3 198.5,162.3 198.5,162.3 
			198.5,162.3 198.5,162.4 198.6,162.4 198.6,162.4 198.6,162.4 198.6,162.4 198.6,162.5 198.6,162.5 198.7,162.5 198.7,162.5 
			198.7,162.5 198.7,162.6 198.7,162.6 198.8,162.6 198.8,162.6 198.8,162.6 198.8,162.6 198.8,162.7 198.9,162.7 198.9,162.7 
			198.9,162.7 198.9,162.7 199,162.7 199,162.7 199,162.7 199,162.7 199.1,162.8 199.1,162.8 199.1,162.8 199.1,162.8 199.2,162.8 
			199.2,162.8 199.2,162.8 199.2,162.8 199.2,162.8 199.3,162.8 199.3,162.8 199.3,162.8 199.3,162.8 199.4,162.8 199.4,162.8 
			201.5,162.8 201.5,162.8 201.5,162.8 201.6,162.8 201.6,162.8 201.6,162.8 201.6,162.8 201.6,162.8 201.7,162.8 201.7,162.8 
			201.7,162.8 201.7,162.8 201.8,162.8 201.8,162.8 201.8,162.8 201.8,162.7 201.9,162.7 201.9,162.7 201.9,162.7 201.9,162.7 
			202,162.7 202,162.7 202,162.7 202,162.7 202,162.6 202.1,162.6 202.1,162.6 202.1,162.6 202.1,162.6 202.2,162.6 202.2,162.5 
			202.2,162.5 202.2,162.5 202.2,162.5 202.3,162.5 202.3,162.4 202.3,162.4 202.3,162.4 202.3,162.4 202.3,162.4 202.3,162.3 
			202.4,162.3 202.4,162.3 202.4,162.3 202.4,162.2 202.4,162.2 202.4,162.2 202.4,162.2 202.4,162.2 202.5,162.1 202.5,162.1 
			202.5,162.1 202.5,162.1 202.5,162 202.5,162 202.5,162 202.5,162 202.5,161.9 202.5,161.9 202.5,161.9 202.5,161.9 202.5,161.8 
			202.5,161.8 202.5,161.8 202.5,161.8 202.5,161.3 202.5,161.3 202.5,161.3 202.5,161.2 202.5,161.2 202.5,159.3 202.5,159.2 
			202.5,159.2 202.5,159.2 202.5,159.2 202.5,159.1 202.5,159.1 202.5,159.1 202.5,159.1 202.5,159 202.5,159 202.5,159 202.6,159 
			202.6,158.9 202.6,158.9 202.6,158.9 202.6,158.9 202.6,158.9 202.6,158.8 202.6,158.8 202.6,158.8 202.6,158.8 202.7,158.7 
			202.7,158.7 202.7,158.7 202.7,158.7 202.7,158.6 202.7,158.6 202.7,158.6 202.8,158.6 202.8,158.6 202.8,158.5 202.8,158.5 
			202.8,158.5 202.9,158.5 202.9,158.5 202.9,158.5 202.9,158.4 202.9,158.4 203,158.4 203,158.4 203,158.4 203,158.4 203,158.4 
			203.1,158.3 203.1,158.3 203.1,158.3 203.1,158.3 203.2,158.3 203.2,158.3 203.2,158.3 203.2,158.3 203.3,158.3 203.3,158.3 
			203.3,158.3 203.3,158.2 203.4,158.2 203.4,158.2 203.4,158.2 203.4,158.2 203.5,158.2 209.8,158.2 209.9,158.2 209.9,158.2 
			209.9,158.2 210,158.2 210,158.2 210,158.3 210,158.3 210,158.3 210.1,158.3 210.1,158.3 210.1,158.3 210.1,158.3 210.2,158.3 
			210.2,158.3 210.2,158.3 210.2,158.3 210.3,158.4 210.3,158.4 210.3,158.4 210.3,158.4 210.4,158.4 210.4,158.4 210.4,158.4 
			210.4,158.5 210.4,158.5 210.5,158.5 210.5,158.5 210.5,158.5 210.5,158.5 210.5,158.6 210.5,158.6 210.6,158.6 210.6,158.6 
			210.6,158.6 210.6,158.7 210.6,158.7 210.6,158.7 210.7,158.7 210.7,158.8 210.7,158.8 210.7,158.8 210.7,158.8 210.7,158.9 
			210.7,158.9 210.7,158.9 210.7,158.9 210.7,158.9 210.8,159 210.8,159 210.8,159 210.8,159 210.8,159.1 210.8,159.1 210.8,159.1 
			210.8,159.1 210.8,159.2 210.8,159.2 210.8,159.2 210.8,159.2 210.8,159.3 210.8,161.2 210.8,161.3 210.8,161.3 210.8,161.3 
			210.8,161.8 210.8,163.8 210.8,163.9 210.8,163.9 210.8,163.9 210.8,163.9 210.8,164 210.8,164 210.8,164 210.8,164 210.8,164 
			210.8,164.1 210.8,164.1 210.8,164.1 210.7,164.1 210.7,164.2 210.7,164.2 210.7,164.2 210.7,164.2 210.7,164.3 210.7,164.3 
			210.7,164.3 210.7,164.3 210.7,164.4 210.6,164.4 210.6,164.4 210.6,164.4 210.6,164.4 210.6,164.5 210.6,164.5 210.5,164.5 
			210.5,164.5 210.5,164.5 210.5,164.6 210.5,164.6 210.5,164.6 210.4,164.6 210.4,164.6 210.4,164.7 210.4,164.7 210.4,164.7 
			210.3,164.7 210.3,164.7 210.3,164.7 210.3,164.7 210.2,164.8 210.2,164.8 210.2,164.8 210.2,164.8 210.1,164.8 210.1,164.8 
			210.1,164.8 210.1,164.8 210,164.8 210,164.8 210,164.8 210,164.8 210,164.8 209.9,164.9 209.9,164.9 209.9,164.9 209.9,164.9 
			209.8,164.9 209.8,164.9 209.8,164.9 209.8,164.9 209.6,164.9 209.6,164.9 209.6,164.9 209.6,164.8 209.6,164.8 209.5,164.8 
			209.5,164.8 209.5,164.8 209.5,164.8 209.4,164.8 209.4,164.8 209.4,164.8 209.4,164.8 209.3,164.8 209.3,164.8 209.3,164.8 
			209.3,164.7 209.2,164.7 209.2,164.7 209.2,164.7 209.2,164.7 209.2,164.7 209.1,164.7 209.1,164.6 209.1,164.6 209.1,164.6 
			209.1,164.6 209,164.6 209,164.5 209,164.5 209,164.5 209,164.5 208.9,164.5 208.9,164.4 208.9,164.4 208.9,164.4 208.9,164.4 
			208.9,164.4 208.9,164.3 208.9,164.3 208.8,164.3 208.8,164.3 208.8,164.2 208.8,164.2 208.8,164.2 208.8,164.2 208.8,164.1 
			208.8,164.1 208.8,164.1 208.8,164.1 208.8,164 208.8,164 208.7,164 208.7,164 208.7,164 208.7,163.9 208.7,163.9 208.7,163.9 
			208.7,163.9 208.7,163.8 208.7,161.9 208.7,161.8 208.7,161.8 208.7,161.8 208.7,161.8 208.7,161.3 208.7,161.3 208.7,161.3 
			208.7,161.2 208.7,161.2 208.7,161.2 208.7,161.2 208.7,161.2 208.7,161.1 208.7,161.1 208.7,161.1 208.7,161.1 208.7,161 
			208.7,161 208.7,161 208.7,161 208.7,160.9 208.7,160.9 208.6,160.9 208.6,160.9 208.6,160.8 208.6,160.8 208.6,160.8 
			208.6,160.8 208.6,160.8 208.6,160.7 208.5,160.7 208.5,160.7 208.5,160.7 208.5,160.6 208.5,160.6 208.5,160.6 208.4,160.6 
			208.4,160.6 208.4,160.5 208.4,160.5 208.4,160.5 208.3,160.5 208.3,160.5 208.3,160.5 208.3,160.5 208.2,160.4 208.2,160.4 
			208.2,160.4 208.2,160.4 208.2,160.4 208.1,160.4 208.1,160.4 208.1,160.4 208.1,160.3 208,160.3 208,160.3 208,160.3 208,160.3 
			207.9,160.3 207.9,160.3 207.9,160.3 207.9,160.3 207.8,160.3 207.8,160.3 207.8,160.3 207.8,160.3 207.8,160.3 207.7,160.3 
			207.7,160.3 205.6,160.3 205.6,160.3 205.6,160.3 205.5,160.3 205.5,160.3 205.5,160.3 205.5,160.3 205.4,160.3 205.4,160.3 
			205.4,160.3 205.4,160.3 205.3,160.3 205.3,160.3 205.3,160.3 205.3,160.3 205.3,160.3 205.2,160.4 205.2,160.4 205.2,160.4 
			205.2,160.4 205.1,160.4 205.1,160.4 205.1,160.4 205.1,160.4 205,160.5 205,160.5 205,160.5 205,160.5 205,160.5 204.9,160.5 
			204.9,160.5 204.9,160.6 204.9,160.6 204.9,160.6 204.8,160.6 204.8,160.6 204.8,160.7 204.8,160.7 204.8,160.7 204.8,160.7 
			204.8,160.7 204.7,160.8 204.7,160.8 204.7,160.8 204.7,160.8 204.7,160.8 204.7,160.9 204.7,160.9 204.7,160.9 204.6,160.9 
			204.6,161 204.6,161 204.6,161 204.6,161 204.6,161.1 204.6,161.1 204.6,161.1 204.6,161.1 204.6,161.2 204.6,161.2 204.6,161.2 
			204.6,161.2 204.6,161.2 204.6,161.3 204.6,161.3 204.6,161.3 204.6,161.8 204.6,161.8 204.6,161.8 204.6,161.8 204.6,163.8 
			204.6,163.9 204.6,163.9 204.6,163.9 204.6,163.9 204.6,164 204.6,164 204.6,164 204.6,164 204.6,164 204.5,164.1 204.5,164.1 
			204.5,164.1 204.5,164.1 204.5,164.2 204.5,164.2 204.5,164.2 204.5,164.2 204.5,164.3 204.5,164.3 204.5,164.3 204.4,164.3 
			204.4,164.4 204.4,164.4 204.4,164.4 204.4,164.4 204.4,164.4 204.4,164.5 204.3,164.5 204.3,164.5 204.3,164.5 204.3,164.5 
			204.3,164.6 204.3,164.6 204.2,164.6 204.2,164.6 204.2,164.6 204.2,164.7 204.2,164.7 204.1,164.7 204.1,164.7 204.1,164.7 
			204.1,164.7 204,164.7 204,164.8 204,164.8 204,164.8 203.9,164.8 203.9,164.8 203.9,164.8 203.9,164.8 203.9,164.8 203.8,164.8 
			203.8,164.8 203.8,164.8 203.8,164.8 203.7,164.8 203.7,164.9 203.7,164.9 203.7,164.9 203.5,164.9 197.3,164.9 197.2,164.9 
			197.2,164.9 197.2,164.9 197.1,164.8 197.1,164.8 197.1,164.8 197.1,164.8 197,164.8 197,164.8 197,164.8 197,164.8 196.9,164.8 
			196.9,164.8 196.9,164.8 196.9,164.8 196.9,164.8 196.8,164.7 196.8,164.7 196.8,164.7 196.8,164.7 196.7,164.7 196.7,164.7 
			196.7,164.7 196.7,164.6 196.7,164.6 196.6,164.6 196.6,164.6 196.6,164.6 196.6,164.5 196.6,164.5 196.5,164.5 196.5,164.5 
			196.5,164.5 196.5,164.4 196.5,164.4 196.5,164.4 196.5,164.4 196.4,164.4 196.4,164.3 196.4,164.3 196.4,164.3 196.4,164.3 
			196.4,164.2 196.4,164.2 196.4,164.2 196.4,164.2 196.3,164.1 196.3,164.1 196.3,164.1 196.3,164.1 196.3,164 196.3,164 
			196.3,164 196.3,164 196.3,164 196.3,163.9 196.3,163.9 196.3,163.9 196.3,163.9 196.3,163.8 196.3,161.9 196.3,161.8 
			196.3,161.8 196.3,161.8 196.3,161.8 196.3,161.3 196.3,161.3 196.3,161.3 196.3,161.2 196.3,161.2 196.3,161.2 196.3,161.2 
			196.3,161.2 196.3,161.1 196.3,161.1 196.3,161.1 196.3,161.1 196.3,161 196.2,161 196.2,161 196.2,161 196.2,160.9 196.2,160.9 
			196.2,160.9 196.2,160.9 196.2,160.8 196.2,160.8 196.2,160.8 196.1,160.8 196.1,160.8 196.1,160.7 196.1,160.7 196.1,160.7 
			196.1,160.7 196,160.6 196,160.6 196,160.6 196,160.6 196,160.6 196,160.5 195.9,160.5 195.9,160.5 195.9,160.5 195.9,160.5 
			195.9,160.5 195.8,160.5 195.8,160.4 195.8,160.4 195.8,160.4 195.7,160.4 195.7,160.4 195.7,160.4 195.7,160.4 195.6,160.4 
			195.6,160.3 195.6,160.3 195.6,160.3 195.5,160.3 195.5,160.3 195.5,160.3 195.5,160.3 195.5,160.3 195.4,160.3 195.4,160.3 
			195.4,160.3 195.4,160.3 195.3,160.3 195.3,160.3 195.3,160.3 195.3,160.3 193.2,160.3 193.1,160.3 193.1,160.3 193.1,160.3 
			193.1,160.3 193.1,160.3 193,160.3 193,160.3 193,160.3 193,160.3 192.9,160.3 192.9,160.3 192.9,160.3 192.9,160.3 192.8,160.3 
			192.8,160.3 192.8,160.4 192.8,160.4 192.7,160.4 192.7,160.4 192.7,160.4 192.7,160.4 192.6,160.4 192.6,160.4 192.6,160.5 
			192.6,160.5 192.6,160.5 192.5,160.5 192.5,160.5 192.5,160.5 192.5,160.5 192.5,160.6 192.4,160.6 192.4,160.6 192.4,160.6 
			192.4,160.6 192.4,160.7 192.4,160.7 192.3,160.7 192.3,160.7 192.3,160.8 192.3,160.8 192.3,160.8 192.3,160.8 192.3,160.8 
			192.2,160.9 192.2,160.9 192.2,160.9 192.2,160.9 192.2,161 192.2,161 192.2,161 192.2,161 192.2,161.1 192.2,161.1 192.2,161.1 
			192.2,161.1 192.2,161.2 192.1,161.2 192.1,161.2 192.1,161.2 192.1,161.2 192.1,161.3 192.1,161.3 192.1,161.3 192.1,161.8 
			192.1,161.8 192.1,161.8 192.1,163.8 192.1,163.9 192.1,163.9 192.1,163.9 192.1,163.9 192.1,164 192.1,164 192.1,164 192.1,164 
			192.1,164 192.1,164.1 192.1,164.1 192.1,164.1 192.1,164.1 192.1,164.2 192.1,164.2 192.1,164.2 192.1,164.2 192,164.3 
			192,164.3 192,164.3 192,164.3 192,164.4 192,164.4 192,164.4 192,164.4 191.9,164.4 191.9,164.5 191.9,164.5 191.9,164.5 
			191.9,164.5 191.9,164.5 191.8,164.6 191.8,164.6 191.8,164.6 191.8,164.6 191.8,164.6 191.7,164.7 191.7,164.7 191.7,164.7 
			191.7,164.7 191.6,164.7 191.6,164.7 191.6,164.7 191.6,164.8 191.6,164.8 191.5,164.8 191.5,164.8 191.5,164.8 191.5,164.8 
			191.4,164.8 191.4,164.8 191.4,164.8 191.4,164.8 191.3,164.8 191.3,164.8 191.3,164.8 191.3,164.9 191.2,164.9 191.2,164.9 
			191.1,164.9 184.9,164.9 184.8,164.9 184.7,164.9 184.7,164.9 184.7,164.8 184.7,164.8 184.7,164.8 184.6,164.8 184.6,164.8 
			184.6,164.8 184.6,164.8 184.5,164.8 184.5,164.8 184.5,164.8 184.5,164.8 184.4,164.8 184.4,164.8 184.4,164.7 184.4,164.7 
			184.3,164.7 184.3,164.7 184.3,164.7 184.3,164.7 184.3,164.7 184.2,164.6 184.2,164.6 184.2,164.6 184.2,164.6 184.2,164.6 
			184.1,164.5 184.1,164.5 184.1,164.5 184.1,164.5 184.1,164.5 184.1,164.4 184,164.4 184,164.4 184,164.4 184,164.4 184,164.3 
			184,164.3 184,164.3 183.9,164.3 183.9,164.2 183.9,164.2 183.9,164.2 183.9,164.2 183.9,164.1 183.9,164.1 183.9,164.1 
			183.9,164.1 183.9,164 183.9,164 183.9,164 183.9,164 183.9,164 183.9,163.9 183.9,163.9 183.9,163.9 183.9,163.9 183.9,163.8 
			183.9,161.9 183.9,161.9 183.9,161.8 183.9,161.8 183.9,161.8 183.9,161.8 183.9,161.3 183.9,161.3 183.9,161.3 183.9,161.2 
			183.9,161.2 183.9,161.2 183.8,161.2 183.8,161.2 183.8,161.1 183.8,161.1 183.8,161.1 183.8,161.1 183.8,161 183.8,161 
			183.8,161 183.8,161 183.8,160.9 183.8,160.9 183.8,160.9 183.8,160.9 183.7,160.8 183.7,160.8 183.7,160.8 183.7,160.8 
			183.7,160.8 183.7,160.7 183.7,160.7 183.6,160.7 183.6,160.7 183.6,160.6 183.6,160.6 183.6,160.6 183.6,160.6 183.5,160.6 
			183.5,160.5 183.5,160.5 183.5,160.5 183.5,160.5 183.4,160.5 183.4,160.5 183.4,160.5 183.4,160.4 183.3,160.4 183.3,160.4 
			183.3,160.4 183.3,160.4 183.3,160.4 183.2,160.4 183.2,160.4 183.2,160.3 183.2,160.3 183.1,160.3 183.1,160.3 183.1,160.3 
			183.1,160.3 183,160.3 183,160.3 183,160.3 183,160.3 182.9,160.3 182.9,160.3 182.9,160.3 182.9,160.3 182.8,160.3 182.8,160.3 
			180.7,160.3 180.7,160.3 180.7,160.3 180.7,160.3 180.6,160.3 180.6,160.3 180.6,160.3 180.6,160.3 180.5,160.3 180.5,160.3 
			180.5,160.3 180.5,160.3 180.4,160.3 180.4,160.3 180.4,160.3 180.4,160.3 180.3,160.4 180.3,160.4 180.3,160.4 180.3,160.4 
			180.3,160.4 180.2,160.4 180.2,160.4 180.2,160.4 180.2,160.5 180.1,160.5 180.1,160.5 180.1,160.5 180.1,160.5 180.1,160.5 
			180,160.5 180,160.6 180,160.6 180,160.6 180,160.6 179.9,160.6 179.9,160.7 179.9,160.7 179.9,160.7 179.9,160.7 179.9,160.8 
			179.9,160.8 179.8,160.8 179.8,160.8 179.8,160.8 179.8,160.9 179.8,160.9 179.8,160.9 179.8,160.9 179.8,161 179.8,161 
			179.7,161 179.7,161 179.7,161.1 179.7,161.1 179.7,161.1 179.7,161.1 179.7,161.2 179.7,161.2 179.7,161.2 179.7,161.2 
			179.7,161.2 179.7,161.3 179.7,161.3 179.7,161.3 179.7,161.8 179.7,161.8 179.7,161.8 179.7,163.8 179.7,163.9 179.7,163.9 
			179.7,163.9 179.7,163.9 179.7,164 179.7,164 179.7,164 179.7,164 179.7,164 179.7,164.1 179.7,164.1 179.7,164.1 179.7,164.1 
			179.6,164.2 179.6,164.2 179.6,164.2 179.6,164.2 179.6,164.3 179.6,164.3 179.6,164.3 179.6,164.3 179.6,164.4 179.5,164.4 
			179.5,164.4 179.5,164.4 179.5,164.4 179.5,164.5 179.5,164.5 179.5,164.5 179.4,164.5 179.4,164.5 179.4,164.6 179.4,164.6 
			179.4,164.6 179.3,164.6 179.3,164.6 179.3,164.7 179.3,164.7 179.3,164.7 179.2,164.7 179.2,164.7 179.2,164.7 179.2,164.7 
			179.1,164.8 179.1,164.8 179.1,164.8 179.1,164.8 179,164.8 179,164.8 179,164.8 179,164.8 179,164.8 178.9,164.8 178.9,164.8 
			178.9,164.8 178.9,164.8 178.8,164.9 178.8,164.9 178.8,164.9 		"/>
	</g>
	<g id="Layer_3">
	</g>
</g>
<g id="icon_00000146488173209696227050000015591988856130813366_">
</g>
<g id="Layer_3_00000055680981082661998010000000142505442776712858_">
	<g>
		<path class="st4" d="M74.9,141c0,2.1,0.9,4,2.3,5.4H56c1.4-1.4,2.3-3.3,2.3-5.4v-4.9h16.6V141z"/>
		<path class="st4" d="M136.4,141c0,2.1,0.9,4,2.3,5.4h-21.2c1.4-1.4,2.3-3.3,2.3-5.4v-4.9h16.6L136.4,141L136.4,141z"/>
		<path class="st4" d="M200.1,146.4h-21c1.4-1.4,2.3-3.3,2.3-5.4v-4.9H198v5.1C197.9,143.3,198.7,145.1,200.1,146.4z"/>
		<path class="st4" d="M46.2,113.7c-1.5,1.4-2.4,3.3-2.4,5.5v4.7H28v-10.3h18.2V113.7z"/>
		<path class="st4" d="M107.7,113.7c-1.5,1.4-2.4,3.3-2.4,5.5v4.7H89.5V119c0-2.1-0.9-4-2.3-5.4h20.5V113.7z"/>
		<path class="st4" d="M169.2,113.7c-1.5,1.4-2.4,3.3-2.4,5.5v4.7H151V119c0-2.1-0.9-4-2.3-5.4h20.5V113.7z"/>
		<path class="st4" d="M238.4,118.8c0,2.8-2.3,5.1-5.1,5.1h-20.8V119c0-2.1-0.9-4-2.3-5.4h23.1C236.1,113.7,238.4,116,238.4,118.8z"
			/>
		<g>
			<path class="st4" d="M210.3,119.1v22.2c0,2.1-1.3,3.9-3.1,4.7c-0.6,0.3-1.3,0.4-2,0.4c-2.8,0-5.1-2.3-5.1-5.1v-11.9
				c0-0.6-0.1-1.1-0.2-1.6c-0.1-0.2-0.1-0.3-0.2-0.5c0-0.1-0.1-0.2-0.1-0.2c-0.1-0.2-0.2-0.3-0.2-0.5c-0.1-0.1-0.2-0.3-0.3-0.4
				s-0.2-0.3-0.3-0.4s-0.1-0.1-0.2-0.2c-0.5-0.5-1.1-0.9-1.7-1.2c-0.2-0.1-0.3-0.1-0.5-0.2c-0.5-0.2-1-0.2-1.6-0.2l0,0h-10.1
				c-3,0-5.3,2.4-5.3,5.4V141c0,3-2.4,5.4-5.4,5.4h-29.9c-3,0-5.4-2.4-5.4-5.4v-11.6c0-0.6-0.1-1.1-0.2-1.6
				c-0.1-0.2-0.1-0.3-0.2-0.5c0-0.1-0.1-0.2-0.1-0.2c-0.1-0.2-0.2-0.3-0.2-0.5c-0.1-0.1-0.2-0.3-0.3-0.4s-0.2-0.3-0.3-0.4
				s-0.1-0.1-0.2-0.2c-1-1-2.3-1.6-3.8-1.6l0,0h-10.1c-3,0-5.4,2.4-5.4,5.4V141c0,3-2.4,5.4-5.4,5.4H82.4c-3,0-5.4-2.4-5.4-5.4
				v-11.6c0-0.6-0.1-1.1-0.2-1.6c-0.1-0.2-0.1-0.3-0.2-0.5c-0.8-1.9-2.7-3.3-5-3.3l0,0H61.5c-3,0-5.4,2.4-5.4,5.4V141
				c0,3-2.4,5.4-5.4,5.4H21c-3,0-5.4-2.4-5.4-5.4v-32.3c0-2.8,2.3-5.1,5.1-5.1c2.8,0,5.1,2.3,5.1,5.1v22c0,3,2.4,5.4,5.4,5.4h9.3
				c3,0,5.4-2.4,5.4-5.4v-11.5c0-3,2.4-5.4,5.4-5.4l30.6-0.1l0,0c0.6,0,1.1,0.1,1.7,0.3c0.1,0,0.3,0.1,0.4,0.2
				c0.6,0.3,1.2,0.7,1.7,1.2c0.1,0.1,0.1,0.1,0.2,0.2s0.2,0.3,0.3,0.4c0.1,0.1,0.2,0.3,0.3,0.4c0.1,0.1,0.1,0.2,0.2,0.4
				c0.4,0.7,0.6,1.5,0.6,2.4v11.7c0,3,2.4,5.4,5.4,5.4h9.3c3,0,5.4-2.4,5.4-5.4v-11.5c0-3,2.4-5.4,5.4-5.4l30.6-0.1l0,0
				c0.6,0,1.1,0.1,1.7,0.3c0.1,0,0.3,0.1,0.4,0.2c0.6,0.3,1.2,0.7,1.7,1.2c0.1,0.1,0.1,0.1,0.2,0.2c0.1,0.1,0.2,0.3,0.3,0.4
				s0.2,0.3,0.3,0.4s0.1,0.2,0.2,0.4c0.4,0.7,0.6,1.5,0.6,2.4v11.7c0,3,2.4,5.4,5.4,5.4h9.3c3,0,5.4-2.4,5.4-5.4v-11.5
				c0-3,2.4-5.4,5.3-5.4l29.6-0.1h1.4l0,0c0.5,0,0.9,0.1,1.3,0.2c0.2,0.1,0.3,0.1,0.5,0.2c1.3,0.6,2.4,1.6,2.9,2.9
				C210,117.5,210.3,118.5,210.3,119.1z"/>
		</g>
	</g>
</g>
</svg>
