<?xml version="1.0" encoding="utf-8"?>
<!-- Generator: Adobe Illustrator 26.0.3, SVG Export Plug-In . SVG Version: 6.00 Build 0)  -->
<svg version="1.1" id="Layer_1" xmlns="http://www.w3.org/2000/svg" xmlns:xlink="http://www.w3.org/1999/xlink" x="0px" y="0px"
	 viewBox="0 0 38 38" style="enable-background:new 0 0 38 38;" xml:space="preserve">
<style type="text/css">
	.st0{fill:#FFFFFF;}
</style>
<rect x="28.4" y="31.7" class="st0" width="2.3" height="0.8"/>
<rect x="27.6" y="30.1" class="st0" width="2.5" height="0.8"/>
<rect x="26.5" y="28.5" class="st0" width="2.5" height="0.8"/>
<rect x="25.1" y="26.9" class="st0" width="2.5" height="0.8"/>
<rect x="23.9" y="25.4" class="st0" width="2.1" height="0.8"/>
<rect x="22.8" y="23.8" class="st0" width="1.9" height="0.8"/>
<rect x="21.8" y="22.2" class="st0" width="1.7" height="0.8"/>
<rect x="21" y="20.6" class="st0" width="1.5" height="0.8"/>
<rect x="20.4" y="19" class="st0" width="1.4" height="0.8"/>
<rect x="19.8" y="17.4" class="st0" width="1.4" height="0.8"/>
<rect x="19.4" y="15.8" class="st0" width="1.2" height="0.8"/>
<rect x="19.1" y="14.2" class="st0" width="1.2" height="0.8"/>
<rect x="18.9" y="12.7" class="st0" width="1" height="0.8"/>
<rect x="18.6" y="11.1" class="st0" width="0.9" height="0.8"/>
<rect x="18.6" y="10.3" class="st0" width="0.9" height="0.8"/>
<rect x="18.6" y="9.5" class="st0" width="0.9" height="0.8"/>
<rect x="18.6" y="8.7" class="st0" width="0.9" height="0.8"/>
<rect x="18.6" y="6.3" class="st0" width="0.9" height="0.8"/>
<rect x="18.6" y="5.5" class="st0" width="0.9" height="0.8"/>
<rect x="18.1" y="11.9" class="st0" width="1" height="0.8"/>
<rect x="17.5" y="15" class="st0" width="1.2" height="0.8"/>
<rect x="17.7" y="13.5" class="st0" width="1.2" height="0.8"/>
<rect x="16.3" y="18.2" class="st0" width="1.4" height="0.8"/>
<rect x="16.9" y="16.6" class="st0" width="1.4" height="0.8"/>
<rect x="15.4" y="19.8" class="st0" width="1.5" height="0.8"/>
<rect x="14.4" y="21.4" class="st0" width="1.7" height="0.8"/>
<rect x="13.3" y="23" class="st0" width="1.9" height="0.8"/>
<rect x="11.9" y="24.6" class="st0" width="2.1" height="0.8"/>
<rect x="10.4" y="26.1" class="st0" width="2.5" height="0.8"/>
<rect x="9" y="27.7" class="st0" width="2.5" height="0.8"/>
<rect x="7.9" y="29.3" class="st0" width="2.5" height="0.8"/>
<rect x="7.3" y="30.9" class="st0" width="2.3" height="0.8"/>
<rect x="18.6" y="7.9" class="st0" width="0.9" height="0.8"/>
<rect x="18.6" y="7.1" class="st0" width="0.9" height="0.8"/>
</svg>
