<?xml version="1.0" encoding="utf-8"?>
<!-- Generator: Adobe Illustrator 26.0.3, SVG Export Plug-In . SVG Version: 6.00 Build 0)  -->
<svg version="1.1" id="Layer_1" xmlns="http://www.w3.org/2000/svg" xmlns:xlink="http://www.w3.org/1999/xlink" x="0px" y="0px"
	 viewBox="0 0 38 38" style="enable-background:new 0 0 38 38;" xml:space="preserve">
<style type="text/css">
	.st0{fill:none;stroke:#000000;stroke-width:2;stroke-linecap:square;stroke-miterlimit:10;}
	.st1{fill:#FFFFFF;}
</style>
<line class="st0" x1="41.9" y1="71.6" x2="41.9" y2="71.6"/>
<path class="st1" d="M11.4,24.7c-2.3-5.6,1.6-12.1,7.3-13.1c0.5-0.1,1-0.1,1.6-0.1c7.6-0.1,8.1,10.9,0.8,11.5c2.2-0.3,4.1-1.9,4.6-4
	c1.2-5.3-4.1-8.1-8.6-5.9c-2,0.9-3.7,2.7-4.5,4.7c-1.7,4.1,0.3,9.3,4.4,11.1c4,1.8,9.1,0.2,12.2-2.8c6-5.7,4.2-16.3-3.4-19.7
	c-0.5-0.2-1-0.4-1.5-0.6C14.6,2.5,4,10.9,3.9,21.1c-0.5-9.9,8.9-18.5,18.9-17c10.8,1.7,15.1,15.2,7.4,23
	C24.8,32.6,14.5,32.7,11.4,24.7z"/>
<path class="st1" d="M18.2,9.1c-4.9,1-9.5,5.3-10,10.6c-1.1,7.2,5,14.2,12.3,14.3c-7.7,0.5-14.3-6.8-13.4-14.4
	c0.5-7.8,8.9-14,16.5-11.7h0c5.8,1.7,8.7,9.1,5.5,14.3c-2.6,5-11.5,7.3-14.1,1.1c-1.5-3.6,1.5-8.1,5.5-7.8c-6.3,0.3-7.2,9.2-1,10.5
	c7.5,1,12.4-8,7.7-13.9C24.8,9.2,21.4,8.4,18.2,9.1z"/>
</svg>
