<?xml version="1.0" encoding="utf-8"?>
<!-- Generator: Adobe Illustrator 26.0.3, SVG Export Plug-In . SVG Version: 6.00 Build 0)  -->
<svg version="1.1" id="Layer_1" xmlns="http://www.w3.org/2000/svg" xmlns:xlink="http://www.w3.org/1999/xlink" x="0px" y="0px"
	 viewBox="0 0 38 38" enable-background="new 0 0 38 38" xml:space="preserve">
<g id="RING_CITY_icon" display="none">
	<g id="XMLID_1_" display="inline">
		<g>
			<g id="XMLID_2_">
				<g>
					<polygon fill="#FFFFFF" points="-0.7,-120.1 -0.7,-119.2 -2.1,-119.2 -15.1,-128.5 -14.4,-128.5 -14.4,-129.8 					"/>
					<polygon fill="#FF0000" points="-0.7,-160.3 -0.7,-120.1 -14.4,-129.8 -14.4,-135.8 					"/>
					<polygon fill="#FFFFFF" points="-0.7,-161.8 -0.7,-160.3 -14.4,-135.8 -14.4,-136.5 -15.7,-136.5 -1.7,-161.8 					"/>
					<polygon fill="#FF0000" points="-1.7,-161.8 -15.7,-136.5 -21.2,-136.5 -42.2,-161.8 					"/>
					<polygon fill="#FF0000" points="-2.1,-119.2 -41.5,-119.2 -21.7,-128.5 -15.1,-128.5 					"/>
					<rect x="-20.8" y="-135" fill="#FF0000" width="5" height="5"/>
					<polygon fill="#FFFFFF" points="-42.2,-161.8 -21.2,-136.5 -22.3,-136.5 -22.3,-135.6 -43.2,-160.6 -43.2,-161.8 					"/>
					<polygon fill="#FFFFFF" points="-21.7,-128.5 -41.5,-119.2 -43.2,-119.2 -43.2,-120.1 -22.3,-129.9 -22.3,-128.5 					"/>
					<polygon fill="#FF0000" points="-22.3,-135.6 -22.3,-129.9 -43.2,-120.1 -43.2,-160.6 					"/>
				</g>
			</g>
		</g>
	</g>
	<g display="inline">
		<polyline fill="#FF0000" points="-70.5,-151.4 -70.3,-151.8 -70.2,-152 -70.1,-152.2 -70,-152.4 -69.9,-152.5 -69.9,-152.6 
			-69.8,-152.7 -69.7,-152.8 -69.7,-152.9 -69.6,-152.9 -69.5,-153 -69.5,-153.1 -69.4,-153.2 -69.3,-153.3 -69.3,-153.4 
			-69.2,-153.5 -69.1,-153.6 -69.1,-153.6 -69,-153.7 -68.9,-153.8 -68.8,-153.9 -68.8,-154 -68.7,-154 -68.6,-154.1 -68.5,-154.2 
			-68.4,-154.3 -68.3,-154.3 -68.3,-154.4 -68.2,-154.5 -68.1,-154.5 -68,-154.6 -67.9,-154.7 -67.8,-154.7 -67.7,-154.8 
			-67.6,-154.9 -67.6,-154.9 -67.5,-155 -67.4,-155.1 -67.3,-155.1 -67.2,-155.2 -67.1,-155.2 -67,-155.3 -66.9,-155.3 
			-66.8,-155.4 -66.7,-155.4 -66.6,-155.5 -66.5,-155.5 -66.4,-155.6 -66.3,-155.6 -66.2,-155.7 -66.1,-155.7 -66,-155.7 
			-65.9,-155.8 -65.8,-155.8 -65.7,-155.9 -65.6,-155.9 -65.5,-155.9 -65.4,-156 -65.3,-156 -65.2,-156 -65.1,-156.1 -65,-156.1 
			-64.9,-156.1 -64.8,-156.1 -64.7,-156.2 -64.6,-156.2 -64.5,-156.2 -64.4,-156.2 -64.3,-156.3 -64.2,-156.3 -64.1,-156.3 
			-64,-156.3 -63.8,-156.3 -63.7,-156.3 -63.6,-156.4 -63.5,-156.4 -63.4,-156.4 -63.3,-156.4 -63.2,-156.4 -63.1,-156.4 
			-63,-156.4 -62.9,-156.4 -62.8,-156.4 -62.7,-156.4 -62.6,-156.4 -62.5,-156.4 -62.4,-156.4 -62.2,-156.4 -62,-156.4 
			-61.8,-156.4 -61.6,-156.4 -61.4,-156.4 -61.2,-156.3 -61,-156.3 -60.9,-156.3 -60.8,-156.3 -60.6,-156.2 -60.5,-156.2 
			-60.4,-156.2 -60.3,-156.2 -60.2,-156.1 -60.1,-156.1 -60,-156.1 -59.9,-156.1 -59.8,-156 -59.7,-156 -59.6,-156 -59.5,-155.9 
			-59.4,-155.9 -59.3,-155.9 -59.2,-155.8 -59.1,-155.8 -59,-155.7 -58.9,-155.7 -58.8,-155.7 -58.7,-155.6 -58.6,-155.6 
			-58.5,-155.5 -58.4,-155.5 -58.3,-155.4 -58.2,-155.4 -58.1,-155.3 -58,-155.3 -57.9,-155.2 -57.8,-155.1 -57.8,-155.1 
			-57.7,-155 -57.6,-155 -57.4,-154.9 -57.2,-154.7 -57,-154.6 -56.9,-154.5 -56.7,-154.3 -56.5,-154.2 -56.3,-154.1 -56.2,-153.9 
			-56,-153.8 -55.9,-153.6 -55.7,-153.4 -55.5,-153.3 -55.4,-153.1 -55.3,-153 -55.2,-153 -55.2,-152.9 -55.1,-152.8 -55,-152.7 
			-55,-152.6 -54.9,-152.5 -54.8,-152.4 -54.7,-152.4 -54.7,-152.3 -54.6,-152.2 -54.6,-152.1 -54.5,-152 -54.4,-151.9 
			-54.4,-151.8 -54.3,-151.7 -54.2,-151.6 -54.2,-151.5 -54.1,-151.4 -54.1,-151.3 -54,-151.2 -54,-151.1 -53.9,-151 -53.9,-150.9 
			-53.8,-150.8 -53.8,-150.7 -53.7,-150.6 -53.7,-150.5 -53.6,-150.4 -53.6,-150.3 -53.5,-150.2 -53.5,-150.1 -53.5,-150 
			-53.4,-149.9 -53.4,-149.8 -53.3,-149.7 -53.3,-149.6 -53.3,-149.5 -53.2,-149.3 -53.2,-149.2 -53.2,-149.1 -53.1,-149 
			-53.1,-148.8 -53,-148.6 -53,-148.4 -52.9,-148.1 -52.9,-147.9 -52.8,-147.7 -52.8,-147.5 -52.8,-147.2 -52.7,-147 -52.7,-146.8 
			-52.7,-146.6 -52.7,-146.3 -52.7,-146.1 -52.6,-145.9 -52.6,-145.6 -52.6,-145.5 -52.6,-145.4 -52.6,-145.3 -52.6,-145.2 
			-52.6,-145.1 -52.6,-145 -52.6,-144.8 -52.7,-144.7 -52.7,-144.6 -52.7,-144.5 -52.7,-144.4 -52.7,-144.3 -52.7,-144.2 
			-52.7,-144 -52.7,-143.8 -52.8,-143.6 -52.8,-143.4 -52.9,-143.1 -52.9,-142.9 -53,-142.7 -53,-142.5 -53.1,-142.3 -53.1,-142 
			-53.2,-141.8 -53.2,-141.6 -53.3,-141.4 -53.4,-141.2 -53.4,-140.9 -53.5,-140.7 -53.6,-140.5 -53.7,-140.3 -53.7,-140.1 
			-53.8,-139.9 -53.9,-139.7 -54,-139.5 -54.1,-139.2 -54.2,-139 -54.2,-138.8 -54.3,-138.6 -54.4,-138.4 -54.5,-138.2 -54.6,-138 
			-54.8,-137.8 -54.9,-137.6 -55,-137.4 -55.1,-137.2 -55.2,-137 -55.3,-136.8 -55.5,-136.5 -55.7,-136.3 -55.8,-136.1 
			-55.9,-135.9 -56,-135.7 -56.1,-135.5 -56.2,-135.3 -56.4,-135.1 -56.5,-135 -56.6,-134.8 -56.8,-134.6 -56.9,-134.4 -57,-134.2 
			-57.2,-134.1 -57.3,-133.9 -57.4,-133.7 -57.6,-133.5 -57.7,-133.4 -57.8,-133.2 -58,-133 -58.1,-132.8 -58.3,-132.7 
			-58.4,-132.5 -58.6,-132.3 -58.7,-132.2 -58.9,-132 -59,-131.8 -59.1,-131.7 -59.3,-131.5 -59.4,-131.3 -59.6,-131.2 -59.7,-131 
			-59.9,-130.9 -60.1,-130.7 -60.2,-130.5 -60.4,-130.4 -60.5,-130.2 -60.7,-130.1 -60.8,-129.9 -61,-129.8 -61.2,-129.6 
			-61.3,-129.5 -61.5,-129.3 -61.6,-129.2 -61.8,-129 -62.1,-128.7 -62.5,-128.4 -62.8,-128.2 -63.1,-127.9 -63.5,-127.6 
			-63.8,-127.3 -64.1,-127 -64.8,-126.5 -65.2,-126.2 -65.5,-125.9 -65.8,-125.6 -66,-125.5 -66.2,-125.4 -66.4,-125.2 
			-66.5,-125.1 -66.7,-125 -66.9,-124.9 -67.1,-124.7 -67.2,-124.6 -67.6,-124.4 -68,-124.1 -68.3,-123.9 -68.7,-123.6 -69,-123.4 
			-69.8,-122.9 -70.5,-122.4 		"/>
		<polyline fill="#FF0000" points="-70.5,-151.4 -70.9,-152.2 -71.1,-152.6 -71.4,-152.9 -71.6,-153.3 -71.9,-153.6 -72.2,-154 
			-72.6,-154.3 -72.9,-154.5 -73.2,-154.8 -73.6,-155.1 -74,-155.3 -74.4,-155.5 -74.8,-155.7 -75.2,-155.8 -75.6,-156 -76,-156.1 
			-76.4,-156.2 -76.8,-156.3 -77.2,-156.3 -77.7,-156.4 -78.1,-156.4 -78.5,-156.4 -79,-156.4 -79.4,-156.4 -79.8,-156.3 
			-80.2,-156.3 -80.6,-156.2 -81.1,-156.1 -81.5,-155.9 -81.9,-155.8 -82.3,-155.6 -82.7,-155.4 -83,-155.2 -83.4,-155 
			-83.8,-154.7 -84.1,-154.5 -84.5,-154.2 -84.8,-153.9 -85.1,-153.6 -85.4,-153.3 -85.7,-153 -86,-152.6 -86.3,-152.3 
			-86.6,-151.9 -86.8,-151.5 -87,-151.1 -87.2,-150.7 -87.4,-150.3 -87.6,-149.9 -87.7,-149.5 -87.8,-149 -88,-148.6 -88.1,-148.1 
			-88.2,-147.2 -88.3,-146.3 -88.3,-145.9 -88.3,-145.4 -88.3,-145 -88.3,-144.5 -88.3,-144 -88.2,-143.6 -88,-142.7 -87.8,-141.8 
			-87.5,-140.9 -87.3,-140.1 -86.9,-139.2 -86.5,-138.4 -86.1,-137.6 -85.7,-136.8 -85.2,-136.1 -84.7,-135.3 -84.2,-134.6 
			-83.7,-133.9 -83.1,-133.2 -82.6,-132.5 -82,-131.8 -81.4,-131.2 -80.8,-130.5 -80.1,-129.9 -79.5,-129.3 -78.9,-128.7 
			-78.2,-128.2 -77.5,-127.6 -76.2,-126.5 -74.8,-125.4 -74.1,-124.9 -73.4,-124.4 -71.9,-123.4 -70.5,-122.4 		"/>
	</g>
</g>
<g id="Layer_2_00000098911619362750423210000017226787973252926348_">
</g>
<rect x="32.2" y="11.7" fill="#FFFFFF" width="1.2" height="6.3"/>
<rect x="29.9" y="8.2" fill="#FFFFFF" width="1.2" height="15"/>
<rect x="27.6" y="6.6" fill="#FFFFFF" width="1.2" height="19.4"/>
<rect x="25.3" y="6.1" fill="#FFFFFF" width="1.2" height="22.1"/>
<rect x="23" y="6.3" fill="#FFFFFF" width="1.2" height="24"/>
<rect x="20.7" y="7.4" fill="#FFFFFF" width="1.2" height="24.6"/>
<rect x="18.4" y="10.2" fill="#FFFFFF" width="1.2" height="23.4"/>
<rect x="16" y="7.4" fill="#FFFFFF" width="1.2" height="24.7"/>
<rect x="13.7" y="6.4" fill="#FFFFFF" width="1.2" height="24"/>
<rect x="11.4" y="6.2" fill="#FFFFFF" width="1.2" height="22.1"/>
<rect x="9.1" y="6.7" fill="#FFFFFF" width="1.2" height="19.3"/>
<rect x="6.8" y="8.2" fill="#FFFFFF" width="1.2" height="15"/>
<rect x="4.5" y="11.7" fill="#FFFFFF" width="1.2" height="6.3"/>
<g id="Layer_3">
</g>
<g id="Layer_1_00000031176387282761013200000002104233910630594697_">
</g>
</svg>
