<?xml version="1.0" encoding="utf-8"?>
<!-- Generator: Adobe Illustrator 26.0.3, SVG Export Plug-In . SVG Version: 6.00 Build 0)  -->
<svg version="1.1" xmlns="http://www.w3.org/2000/svg" xmlns:xlink="http://www.w3.org/1999/xlink" x="0px" y="0px"
	 viewBox="0 0 2614.295 2614.295" enable-background="new 0 0 2614.295 2614.295" xml:space="preserve">
<g id="Layer_17">
</g>
<g id="Layer_18">
	<g>
		<path fill="#FFFFFF" d="M1372.767,1553.534l-0.188-0.014L0.662,1802.342c-0.221,0.042-0.444,0.062-0.662,0.063l0.03,139.382
			l1457.385-335.065L1372.767,1553.534z"/>
		<path fill="#FFFFFF" d="M1372.018,1390.183L0.308,1469.366c-0.104,0.01-0.206,0.014-0.308,0.014v159.302l1454.242-180.377
			L1372.018,1390.183z"/>
		<path fill="#FFFFFF" d="M1369.885,1530.788c0.03-0.006,0.059-0.003,0.089-0.008c0.449-0.076,0.905-0.108,1.368-0.13l74.817-58.737
			L0.462,1635.861c-0.156,0.021-0.31,0.031-0.462,0.031v159.27L1369.885,1530.788z"/>
		<path fill="#FFFFFF" d="M0.127,1313.533c-0.031,0-0.127,148.653-0.127,148.653l1371.012-94.844
			c0.075-0.007,0.147,0.007,0.222,0.002c0.085-0.005,0.164-0.031,0.25-0.034c0.05-0.002,0.159-0.004,0.21-0.006l0.276-0.005
			l76.063-53.767H0.127z"/>
		<path fill="#FFFFFF" d="M1482.52,1312.734c-0.092,0.01-0.181-0.006-0.273,0.001c-0.096,0.006-0.184,0.036-0.281,0.039
			c-0.038,0.002-0.138,0.004-0.176,0.005l-0.32,0.007l-76.31,53.941l1209.033,100.694c0.029,0,0.058,0,0.09,0l0.012-153.888
			L1482.52,1312.734z"/>
		<path fill="#FFFFFF" d="M1402.808,1389.059l78.68,55.616c0.049,0.001,0.094-0.012,0.143-0.011c0.058,0.001,0.173,0.006,0.23,0.008
			l0.228,0.01c0.112,0.005,0.224,0.007,0.335,0.016l1131.858,181.267v-151.705L1402.808,1389.059z"/>
		<path fill="#FFFFFF" d="M1412.77,1556.598l68.043,42.755c0.752-0.033,1.519,0.005,2.291,0.126
			c0.056,0.009,0.169,0.028,0.224,0.037l1130.954,343.496v-151.661c-0.096,0-0.195-0.003-0.294-0.013L1412.77,1556.598z"/>
		<path fill="#FFFFFF" d="M1482.003,1467.534l-83.469,65.529l1215.748,251.439v-151.696c-0.042,0-0.084,0-0.124-0.003
			L1482.003,1467.534z"/>
	</g>
	<g>
		<path fill="#FFFFFF" d="M1372.767,1059.535l-0.188,0.014L0.662,810.727c-0.221-0.042-0.444-0.062-0.662-0.063l0.03-139.382
			l1457.385,335.065L1372.767,1059.535z"/>
		<path fill="#FFFFFF" d="M1372.018,1222.886L0.308,1143.703c-0.104-0.01-0.206-0.014-0.308-0.014l0-159.302l1454.242,180.377
			L1372.018,1222.886z"/>
		<path fill="#FFFFFF" d="M1369.885,1082.281c0.029,0.006,0.059,0.003,0.089,0.008c0.449,0.076,0.905,0.108,1.368,0.13
			l74.817,58.737L0.462,977.208c-0.156-0.021-0.31-0.031-0.462-0.031l0-159.27L1369.885,1082.281z"/>
		<path fill="#FFFFFF" d="M0.127,1299.536c-0.031,0-0.127-148.653-0.127-148.653l1371.012,94.844
			c0.075,0.007,0.147-0.007,0.222-0.002c0.085,0.005,0.164,0.031,0.25,0.034c0.05,0.002,0.159,0.004,0.21,0.006l0.276,0.005
			l76.063,53.767H0.127z"/>
		<path fill="#FFFFFF" d="M1482.52,1300.335c-0.093-0.01-0.181,0.006-0.273-0.001c-0.096-0.006-0.184-0.036-0.281-0.039
			c-0.038-0.002-0.138-0.004-0.176-0.005l-0.32-0.007l-76.31-53.941l1209.034-90.408c0.03,0,0.06,0,0.093,0l0.008,143.603
			L1482.52,1300.335z"/>
		<path fill="#FFFFFF" d="M1402.808,1224.01l78.68-55.616c0.049-0.001,0.094,0.012,0.143,0.011c0.058-0.001,0.173-0.006,0.23-0.008
			l0.228-0.011c0.112-0.005,0.224-0.007,0.335-0.016l1131.862-175.511v156.04L1402.808,1224.01z"/>
		<path fill="#FFFFFF" d="M1412.77,1056.471l68.043-42.755c0.752,0.033,1.519-0.005,2.291-0.127
			c0.056-0.009,0.169-0.028,0.224-0.037l1130.927-342.256l0.031,151.451c-0.098,0-0.2,0.003-0.302,0.013L1412.77,1056.471z"/>
		<path fill="#FFFFFF" d="M1482.003,1145.536l-83.469-65.529l1215.752-250.212v156.031c-0.043,0-0.087,0-0.127,0.003
			L1482.003,1145.536z"/>
	</g>
</g>
</svg>
