<?xml version="1.0" encoding="utf-8"?>
<!-- Generator: Adobe Illustrator 26.0.3, SVG Export Plug-In . SVG Version: 6.00 Build 0)  -->
<svg version="1.1" id="Layer_1" xmlns="http://www.w3.org/2000/svg" xmlns:xlink="http://www.w3.org/1999/xlink" x="0px" y="0px"
	 viewBox="0 0 42.52 42.52" enable-background="new 0 0 42.52 42.52" xml:space="preserve">
<polygon fill="#FFFFFF" points="29.03,10.97 21.32,16.46 13.6,10.97 21.32,5.48 "/>
<polygon fill="#FFFFFF" points="29.06,18.83 36.78,24.32 30.21,28.99 29.05,29.8 21.35,24.32 29.05,18.86 29.05,18.84 "/>
<polygon fill="#FFFFFF" points="21.23,24.34 19.03,25.9 13.48,29.8 5.8,24.34 13.52,18.84 "/>
<polygon fill="#FFFFFF" points="30.21,28.99 29.06,29.81 29.05,29.81 29.05,29.8 "/>
<polygon fill="#BCBEC0" points="29.06,29.81 30.21,28.99 36.78,24.32 36.8,32.19 29.03,37.69 29.05,29.81 "/>
<polygon fill="#BCBEC0" points="29.03,10.97 29.05,18.84 21.35,24.32 21.32,16.46 "/>
<polygon fill="#FFFFFF" points="29.05,18.84 29.05,18.86 21.35,24.32 "/>
<polygon fill="#BCBEC0" points="21.23,24.34 21.25,32.17 13.48,37.67 13.48,29.8 19.03,25.9 "/>
</svg>
