<?xml version="1.0" encoding="utf-8"?>
<!-- Generator: Adobe Illustrator 26.0.3, SVG Export Plug-In . SVG Version: 6.00 Build 0)  -->
<svg version="1.1" id="Layer_1" xmlns="http://www.w3.org/2000/svg" xmlns:xlink="http://www.w3.org/1999/xlink" x="0px" y="0px"
	 viewBox="0 0 95 95" enable-background="new 0 0 95 95" xml:space="preserve">
<path fill="#FFFFFF" d="M42.367,70.349c-0.29-4.196-1.066-8.313-2.482-12.28c-1.527-4.276-3.816-8.213-5.171-12.564
	c-2.797-8.981-2.844-17.835-2.855-27.143c-0.001-0.564-0.001-1.128-0.002-1.692H20.855c0,9.507-0.173,18.684,2.654,27.867
	c1.349,4.388,3.598,8.374,5.194,12.662c1.54,4.137,2.328,8.505,2.648,12.895c0.199,2.73,0.067,5.503,0.074,8.237h11.003
	C42.424,75.671,42.472,73.007,42.367,70.349 M63.14,16.67c0,5.248,0.209,10.532-0.275,15.762c-0.456,4.915-1.964,9.692-3.954,14.185
	c1.957,5.298,4.715,10.083,5.871,15.679c1.883-7.495,5.957-14.108,7.785-21.634c1.918-7.89,1.577-15.938,1.577-23.992H63.14
	 M63.517,69.446c-0.373-5.06-1.396-10.072-3.447-14.734c-2.391-5.433-4.597-10.619-5.876-16.45
	c-0.982,5.641-3.033,10.956-5.484,16.101c3.442,7.735,3.861,15.64,3.861,23.968h11.003C63.583,75.369,63.635,72.404,63.517,69.446
	 M49.68,46.516c3.364-9.842,3.325-19.566,3.325-29.846H41.997c0,5.279,0.301,10.646-0.292,15.899
	c-0.572,5.057-2.064,9.833-4.122,14.468c1.93,5.323,4.712,10.138,5.952,15.722c0.837-3.897,2.356-7.51,3.97-11.134l0.028,0.065
	C48.354,50.011,49.033,48.267,49.68,46.516"/>
</svg>
