<?xml version="1.0" encoding="utf-8"?>
<!-- Generator: Adobe Illustrator 26.0.3, SVG Export Plug-In . SVG Version: 6.00 Build 0)  -->
<svg version="1.1" id="Layer_1" xmlns="http://www.w3.org/2000/svg" xmlns:xlink="http://www.w3.org/1999/xlink" x="0px" y="0px"
	 viewBox="0 0 38 38" enable-background="new 0 0 38 38" xml:space="preserve">
<polygon fill="#FFFFFF" points="38,7.5 38,8 33.7,8.7 31.8,6.9 36.6,6.2 "/>
<polygon fill="#FFFFFF" points="38,1.4 38,3.5 36.5,3.7 34.6,1.9 "/>
<polygon fill="#FFFFFF" points="38,5.2 38,6.8 36.5,5.4 "/>
<polygon fill="#FFFFFF" points="38,0 38,0.1 34.6,0.6 34,0 "/>
<polygon fill="#FFFFFF" points="36.5,4.3 31.7,5 29.8,3.2 34.6,2.5 "/>
<polygon fill="#FFFFFF" points="35.6,13.8 30.8,14.5 28.9,12.7 33.7,12 "/>
<polygon fill="#FFFFFF" points="34.6,1 29.8,1.7 27.9,0 33.5,0 "/>
<polygon fill="#FFFFFF" points="33.7,9.8 28.9,10.5 27,8.7 31.8,8 33.15,9.28 "/>
<polygon fill="#FFFFFF" points="32.7,20.4 28,21.1 26.85,20.06 26,19.3 30.8,18.6 "/>
<polygon fill="#FFFFFF" points="31.8,6.1 27,6.8 25.1,5 29.9,4.3 "/>
<polygon fill="#FFFFFF" points="30.8,16.1 26,16.8 24.1,15 28.9,14.3 30,15.34 "/>
<polygon fill="#FFFFFF" points="29.9,27 25.1,27.7 23.2,25.9 23.29,25.89 28,25.2 "/>
<polygon fill="#FFFFFF" points="29.8,2.6 25,3.3 23.11,1.5 27.9,0.8 "/>
<polygon fill="#FFFFFF" points="28.9,12 24.1,12.7 22.2,10.9 27,10.2 28.15,11.29 "/>
<polygon fill="#FFFFFF" points="27.9,22.8 23.1,23.5 21.3,21.7 26,21 "/>
<polygon fill="#FFFFFF" points="27,8.2 22.2,8.9 20.3,7.1 25.1,6.4 "/>
<polygon fill="#FFFFFF" points="27,32.9 22.2,33.6 20.3,31.8 20.37,31.79 25.1,31.1 "/>
<polygon fill="#FFFFFF" points="25.15,17.7 26.1,18.6 25.9,18.63 21.3,19.3 19.4,17.5 24.2,16.8 "/>
<polygon fill="#FFFFFF" points="25.1,29.2 20.3,29.9 18.4,28.1 23.2,27.4 24.35,28.49 "/>
<polygon fill="#FFFFFF" points="25,4.6 20.2,5.3 18.3,3.5 23.1,2.8 "/>
<polygon fill="#FFFFFF" points="24.2,37.7 21.9,38 19,38 17.5,36.6 17.54,36.59 22.3,35.9 "/>
<polygon fill="#FFFFFF" points="24.1,14.5 19.3,15.2 17.4,13.4 22.2,12.7 "/>
<polygon fill="#FFFFFF" points="23.2,25.3 18.4,26 16.5,24.2 21.3,23.5 22.25,24.4 "/>
<polygon fill="#FFFFFF" points="22.3,34.7 17.5,35.4 15.6,33.6 20.4,32.9 21.7,34.13 "/>
<polygon fill="#FFFFFF" points="22.2,10.6 17.4,11.3 15.5,9.5 20.3,8.8 "/>
<polygon fill="#FFFFFF" points="21.6,0 23.09,1.4 18.3,2.1 16.4,0.3 18.7,0 "/>
<polygon fill="#FFFFFF" points="21.3,21.2 16.5,21.9 14.6,20.1 19.4,19.4 "/>
<polygon fill="#FFFFFF" points="20.3,31.3 15.5,32 13.6,30.2 18.4,29.5 19.6,30.64 "/>
<polygon fill="#FFFFFF" points="20.2,6.9 15.4,7.6 13.5,5.8 16.4,5.4 18.3,5.1 "/>
<polygon fill="#FFFFFF" points="19.3,17.1 14.5,17.8 12.7,16 17.5,15.3 "/>
<polygon fill="#FFFFFF" points="18.5,38 12.9,38 12.7,37.8 17.5,37.1 "/>
<polygon fill="#FFFFFF" points="18.4,27.7 13.6,28.4 11.7,26.6 16.5,25.9 "/>
<polygon fill="#FFFFFF" points="17.5,36.3 12.7,37 10.8,35.2 15.6,34.5 17.05,35.87 "/>
<polygon fill="#FFFFFF" points="17.4,13.1 12.6,13.8 10.7,12 13.6,11.6 15.5,11.3 "/>
<polygon fill="#FFFFFF" points="16.5,23.8 11.7,24.5 9.8,22.7 14.6,22 "/>
<polygon fill="#FFFFFF" points="15.5,33.3 10.8,34 8.9,32.2 13.6,31.5 "/>
<polygon fill="#FFFFFF" points="14.6,19.8 9.8,20.5 7.9,18.7 12.7,18 "/>
<polygon fill="#FFFFFF" points="13.6,30 8.8,30.7 6.9,28.9 11.7,28.2 "/>
<polygon fill="#FFFFFF" points="12.7,37.7 10.8,38 7.4,38 6,36.6 10.8,35.9 "/>
<polygon fill="#FFFFFF" points="11.7,26.4 6.9,27.1 5,25.3 7.9,24.9 9.8,24.6 "/>
<polygon fill="#FFFFFF" points="10.8,35.2 6,35.9 4.1,34.1 8.9,33.4 "/>
<polygon fill="#FFFFFF" points="8.8,32.2 4.1,33 2.2,31.2 5,30.7 6.9,30.4 "/>
<polygon fill="#FFFFFF" points="6.7,38 1.5,38 6,37.3 "/>
<polygon fill="#FFFFFF" points="0,35.8 2.2,35.5 4.1,35.2 6,36.9 1.2,37.6 0,36.5 "/>
</svg>
