<?xml version="1.0" encoding="utf-8"?>
<!-- Generator: Adobe Illustrator 26.0.3, SVG Export Plug-In . SVG Version: 6.00 Build 0)  -->
<svg version="1.1" id="Layer_1" xmlns="http://www.w3.org/2000/svg" xmlns:xlink="http://www.w3.org/1999/xlink" x="0px" y="0px"
	 viewBox="0 0 250 250" style="enable-background:new 0 0 250 250;" xml:space="preserve">
<style type="text/css">
	.st0{fill:#FFFFFF;}
</style>
<g id="Layer_1_00000044874041362702575910000009217373178224544671_">
	<g id="GUIDE">
	</g>
</g>
<g id="REF_00000029030838284177283560000008626238021913106057_">
	<g>
		<path class="st0" d="M225.4,26.5c-17.1,9-34,18.5-50.7,28.3l12.6,18.9c11.9-15.3,26-30.9,40.8-43.4L225.4,26.5z"/>
		<path class="st0" d="M188.7,79.1l-9.7,6.3c0,0-110.6,73.6-110.9,73.8c-3.8,2.7-6.3,7.1-6.3,12.1c0,8.2,6.7,14.8,14.8,14.8
			c5.5,0,10.3-3,12.9-7.4c0.2-0.3,0.3-0.7,0.5-1l24.8-47.3l62.1-41.3l-54.7,104.1c-0.1,0.1-0.1,0.3-0.2,0.4l-1.1,2.2l0,0
			c-5.1,9.1-12.9,16.6-22.4,21.1c-6.6,3.2-14,5-21.9,5c-27.9,0-50.6-22.7-50.6-50.6c0-8.5,2.1-16.6,5.9-23.6c3.7-7,9-13,15.4-17.6
			l3.2-2.1l118.4-78.7L188.7,79.1z"/>
	</g>
</g>
</svg>
