<?xml version="1.0" encoding="utf-8"?>
<!-- Generator: Adobe Illustrator 26.0.3, SVG Export Plug-In . SVG Version: 6.00 Build 0)  -->
<svg version="1.1" id="Layer_1" xmlns="http://www.w3.org/2000/svg" xmlns:xlink="http://www.w3.org/1999/xlink" x="0px" y="0px"
	 viewBox="0 0 141.7 141.7" style="enable-background:new 0 0 141.7 141.7;" xml:space="preserve">
<style type="text/css">
	.st0{fill:#FFFFFF;}
</style>
<g id="Layer_1_00000124121194997726883580000009795353453882601107_">
</g>
<g id="GUIDE">
	<path class="st0" d="M141.7,18v-1.4c-1.1-1.4-2.2-2.9-3.1-4.4c-2.7-4.5-3.7-8.3-4.1-12.2h-0.4c0,0,0,0.1,0,0.1c0,0,0-0.1,0-0.1
		h-21.8c0,0,0,0,0,0v0h-0.4c-0.3,2.3-0.9,4.6-1.7,6.8c-2.2,6-6.2,11.4-11.5,15.5c-5.3,4.1-10.9,6.6-17.8,7.8
		c-4.2,0.7-11.5,0.7-16.8,0.6c-1.1,0-2,0-2.9,0H0v0.9h61.2c0.8,0,1.8,0,2.9,0c1.3,0,2.7,0,4.1,0c4.6,0,9.6-0.1,12.8-0.7
		c7-1.2,12.8-3.7,18.2-7.9c5.4-4.2,9.5-9.7,11.8-15.9c0.4-1.2,0.8-2.5,1.1-3.7c-0.2,2.5-0.5,4.8-1.2,7c-1.8,6.3-5.5,12-10.7,16.5
		c-5.1,4.5-10.8,7.2-17.7,8.7c-2.9,0.6-6.1,0.9-9.6,0.9H0v0.9h72.9c3.6,0,6.8-0.3,9.8-1c7.1-1.5,12.8-4.4,18.1-8.9
		c5.3-4.6,9.1-10.4,10.9-16.9c0.1-0.5,0.3-0.9,0.4-1.4c-0.1,2.5-0.5,4.8-1.2,7c-1.8,6.3-5.5,12-10.7,16.5
		c-5.2,4.5-10.8,7.2-17.7,8.7c-2.9,0.6-6.1,0.9-9.6,0.9H0v0.9h73c3.6,0,6.8-0.3,9.8-1c7.1-1.5,12.8-4.3,18.1-8.9
		c5.3-4.6,9.1-10.4,10.9-16.9c0.1-0.5,0.3-1,0.4-1.5c-0.1,2.5-0.5,4.9-1.2,7.1c-1.8,6.3-5.5,12-10.7,16.5
		c-5.2,4.5-10.8,7.2-17.7,8.7c-2.9,0.6-6.1,0.9-9.6,0.9H0v0.9h73c3.6,0,6.8-0.3,9.8-1c7.1-1.5,12.8-4.4,18.1-8.9
		c5.3-4.6,9.1-10.4,10.9-16.9c0.1-0.5,0.3-0.9,0.4-1.4c-0.1,2.5-0.5,4.9-1.2,7.1c-1.8,6.3-5.5,12-10.7,16.5
		c-5.2,4.5-10.8,7.2-17.7,8.7c-2.9,0.6-6.1,0.9-9.6,0.9H0v0.9h73c3.6,0,6.8-0.3,9.8-1c7.1-1.5,12.8-4.3,18.1-8.9
		c5.3-4.6,9.1-10.4,11-16.9c0.1-0.5,0.3-1,0.4-1.5c-0.2,2.5-0.5,4.9-1.2,7.1c-1.8,6.3-5.5,12-10.7,16.5c-0.5,0.4-1,0.9-1.5,1.2
		c-1.2,1-2.4,1.8-3.7,2.6c-1.1,0.7-2.2,1.3-3.4,1.8c-0.9,0.4-1.8,0.8-2.8,1.2c-0.7,0.3-1.4,0.5-2.1,0.7c-0.4,0.1-0.8,0.2-1.3,0.4
		l-0.2,0c-0.9,0.3-1.9,0.5-2.9,0.7c-2.9,0.6-6.1,0.9-9.6,0.9H0V61h45.2c-9.3,5.2-17,5.1-26.5,5c-1.2,0-2.5,0-3.7,0H0v0.9h15
		c1.3,0,2.5,0,3.7,0c1.2,0,2.3,0,3.4,0c8.6,0,16-0.6,24.9-5.9h6.3c-4.3,4.1-9.1,7-15,8.9c-6.4,2.1-10.4,2-16.6,2H0v0.9h21.6
		c0.6,0,1.1,0,1.6,0c5.2,0,9.4-0.2,15.3-2.1c6.4-2.1,11.5-5.1,16-9.7h3.8c-3.6,5.4-8.7,9.8-14.8,12.7c-5.9,2.8-12,4.1-20,4.1H0v0.9
		h23.5c8.1,0,14.4-1.3,20.3-4.2c6.4-3.1,11.8-7.8,15.5-13.5h2.1c-5.5,13.3-19,22.2-34.6,22.7c-2.6,0.1-5.2,0.1-7.7,0
		c-1.2,0-2.3,0-3.5,0H0v0.9h15.7c1.1,0,2.3,0,3.5,0c1.1,0,2.3,0,3.5,0c1.4,0,2.9,0,4.3-0.1C43,84,56.9,74.8,62.4,61h0.9
		c-3.1,15-16.7,26.6-33.4,28.3c-2.6,0.3-16.9,0.2-22.3,0.2H0v0.9h7.6c1.3,0,3.2,0,5.3,0c6.4,0,15.1,0,17-0.2
		C46.7,88.4,60.5,77,64,62.1c-0.9,18-16.1,30.1-31.2,32.7c-3.7,0.7-7.5,0.7-11.2,0.6L0,95.4v0.9l21.6,0H23c3.3,0,6.7-0.1,10-0.6
		c13.6-2.4,27.3-12.2,31-27.2c-0.1,1.8-0.3,3.6-0.8,5.4c-1.1,4.4-2.9,8.2-5.6,12c-2,2.7-4.3,5-7,7.1c-1.2,0.9-2.4,1.8-3.7,2.5
		c-1.1,0.6-2.2,1.3-3.4,1.8c-0.9,0.4-1.9,0.8-2.8,1.2c-0.7,0.3-1.4,0.5-2,0.7c-0.4,0.1-0.8,0.2-1.2,0.4l-0.2,0.1
		c-0.5,0.2-1.1,0.3-1.6,0.4c-4.6,1.1-9.2,1.2-13.3,1.2H0v0.9h5.1c-1.6,1.5-3.3,2.9-5.1,4.1v1c2.3-1.5,4.4-3.2,6.3-5.1h3.7
		c-2.6,3.9-6.1,7.3-10.1,10v1c4.5-2.9,8.3-6.6,11.1-11h2.2c-2.7,6.5-7.3,12-13.2,15.9v1c6.4-4.1,11.4-10,14.2-17h0.9
		c-1.8,9-7.3,16.7-15.1,21.9v1c7.9-5.1,13.6-12.7,15.7-21.8C15.2,115,8.6,124.1,0,129.8v1c7.4-4.7,13.4-11.9,15.7-21
		c-0.2,2.2-0.5,4.4-1.1,6.6c-1.4,4.8-3.6,8.9-7,12.8c-2.2,2.6-4.8,4.8-7.5,6.6v5.9h68.2c-0.6-0.1-1.2-0.2-1.8-0.4
		c-6-1.4-10.9-3.8-15.5-7.5c-4.8-3.8-8.2-8.2-10.5-13.6c-1.8-4.1-2.3-7.2-2.5-10.8c0.6,2.6,1.5,5.1,2.7,7.5c2.7,5.3,6.3,9.4,11.4,13
		c4.8,3.4,9.9,5.6,15.9,6.8c3.7,0.7,7.3,0.9,10.9,0.9c1.1,0,2.1,0,3.2,0c1.1,0,2.1,0,3.2,0h56.5v-0.9H85.2c-1.1,0-2.1,0-3.2,0
		c-4.5,0-9.3,0.1-13.9-0.8c-5.9-1.2-10.8-3.3-15.6-6.6c-4.9-3.5-8.5-7.5-11.1-12.7c-2-3.8-3.1-7.8-3.5-12.4
		c2.4,9.3,8.7,17.2,17.8,22.3c5,2.8,10,4.3,15.8,5c2.1,0.2,6.3,0.3,10.1,0.3c1.5,0,2.9,0,4.1,0c0.9,0,1.7,0,2.3,0h53.6v-0.9H88.1
		c-0.6,0-1.4,0-2.3,0c-4.2,0-11.2,0-14.1-0.3c-5.7-0.6-10.6-2.2-15.5-4.9c-10-5.6-16.6-14.8-18.1-25.3c0.1,0,0.3-0.1,0.4-0.1
		c3.2,9.8,10.8,17.9,21.1,22.2c5,2.1,10,3.2,15.5,3.3c1.9,0,3.8,0.1,5.7,0.1c1.7,0,3.4,0,5.1,0c1.7,0,3.4,0,5.1,0h50.8v-0.9H90.9
		c-1.7,0-3.4,0-5.1,0c-3.5,0-7.1,0-10.7,0c-5.5-0.1-10.3-1.2-15.2-3.3c-10-4.2-17.4-12.1-20.6-21.7c0.4-0.2,0.9-0.3,1.3-0.5
		c4.5,8.7,12.8,15.4,22.9,18.5c5.4,1.7,10.6,1.9,15,1.9h63.2V119H78.6c-4.4,0-9.5-0.2-14.8-1.9c-9.8-3-17.9-9.5-22.3-18
		c0.7-0.3,1.4-0.6,2.1-0.9c5.6,7.6,14.1,12.9,24,14.9c3.9,0.8,7.8,0.9,11.6,0.9h62.6v-0.9H80.5c-4.4,0-8.6,0-12.8-0.9
		c-9.6-2-17.8-7.1-23.3-14.4c0.9-0.5,1.8-0.9,2.7-1.5c6.4,6.4,15,10.4,24.4,11.5c2.3,0.2,4.6,0.3,6.9,0.3c1.2,0,2.3,0,3.4,0
		c1.1,0,2.3,0,3.4,0h56.5v-0.9H85.3c-1.2,0-2.3,0-3.5,0c-3.4,0.1-6.8,0.1-10.2-0.3c-9.1-1-17.6-4.9-23.8-11.1c1.1-0.6,2.1-1.4,3-2.1
		c6.8,5.2,15.5,8.2,24.4,8.4c3,0.1,6,0.1,9.1,0.1c2.9,0,5.8,0,8.6,0c2.9,0,5.8,0,8.6,0H124c0.8,0,1.7,0,2.6,0c0.8,0,1.7,0,2.6,0
		c1,0,2,0,3,0h9.6v-0.9H124c-3.7-0.1-7.9-0.4-13.4-2.4c-14.2-5-23.6-16.8-24.4-30.5c2.9,11.5,11.8,21.1,24.1,25.4
		c6.2,2.2,10.9,2.4,16.3,2.4c0.8,0,1.7,0,2.6,0c1,0,2,0,3,0h9.6v-0.9h-9.6c-1,0-2,0-3,0c-6.7,0-11.6,0.1-18.6-2.4
		c-14.1-5-23.6-17-24.4-30.6c3,12.2,12.9,22.3,26.1,26.2c5.4,1.6,10.5,1.8,15.9,1.8c0.8,0,1.7,0,2.5,0c0.8,0,1.6,0,2.5,0h8.6v-0.9
		h-8.6c-0.8,0-1.6,0-2.5,0c-6.2,0-12.1,0.1-18.2-1.7c-14-4.2-24.3-15.4-26.2-28.7c0.2,0,0.3-0.1,0.4-0.1c4,12.1,14.7,21.5,28.2,24.5
		c4.1,0.9,8.3,1.1,12.3,1.1c1.2,0,2.4,0,3.6,0c1.2,0,2.4,0,3.6,0h7.2v-0.9h-7.2c-1.2,0-2.4,0-3.6,0c-5.1,0.1-10.5,0.1-15.7-1
		c-13.2-3-23.7-12.1-27.6-23.9c0.5-0.1,0.9-0.3,1.3-0.5c5.5,10.5,16.2,17.9,28.8,19.9c2.9,0.5,8,0.5,12.5,0.5c1.2,0,2.4,0,3.5,0
		c0.8,0,1.6,0,2.3,0h5.8v-0.9H136c-0.7,0-1.4,0-2.3,0c-4.8,0-12.1,0.1-15.8-0.5c-12.3-1.9-22.8-9.1-28.2-19.3
		c0.7-0.3,1.4-0.6,2.1-0.9c6.6,8.8,17,14.5,28.6,15.5c1.7,0.1,7.5,0.2,11.9,0.2c1.4,0,2.6,0,3.5,0h5.8v-0.9h-5.8
		c-3.9,0-13.1,0-15.3-0.2c-11.4-1-21.5-6.5-27.9-15c0.9-0.5,1.8-0.9,2.7-1.5c7.1,7.1,17.2,11.4,27.8,11.6c1.9,0,3.7,0.1,5.6,0.1
		c1.7,0,3.3,0,4.9,0c1.7,0,3.3,0,5,0h3.1V66h-3.1c-1.7,0-3.3,0-5,0c-3.4,0-7,0.1-10.5,0c-10.3-0.3-20.1-4.4-27.1-11.2
		c1-0.7,2-1.4,3-2.1c7.3,5.6,16,8.4,26.6,8.4h16.1V45.9c-1.1-1.4-2.1-2.8-3-4.3c-2.9-5.1-3.9-9.1-4.3-13.8c0.7,2.6,1.7,5.3,3.5,8.4
		c1.1,1.9,2.3,3.6,3.8,5.3V40c-1.1-1.4-2.1-2.8-3-4.4c-3-5.2-3.9-9.3-4.3-13.8c0.7,2.6,1.7,5.3,3.5,8.3c1.1,1.9,2.4,3.6,3.8,5.3
		v-1.3c-1.1-1.4-2.1-2.9-3-4.4c-3-5.2-4-9.4-4.3-13.8c0.7,2.6,1.7,5.3,3.5,8.4c1.1,1.9,2.4,3.7,3.8,5.3v-1.3c-1.1-1.4-2.1-2.9-3-4.4
		c-3-5.2-4-9.4-4.3-13.9c0.7,2.6,1.7,5.3,3.5,8.4c1.1,1.9,2.4,3.7,3.8,5.3v-1.3c-1.1-1.4-2.2-2.9-3.1-4.4c-3-5.2-4-9.4-4.3-13.9
		c0.7,2.6,1.7,5.4,3.5,8.5C139,14.5,140.3,16.3,141.7,18z M45.1,99.4C44.7,99,44.3,98.5,44,98C44.3,98.5,44.7,99,45.1,99.4z
		 M132.1,101.8c-3,0-5.7,0.1-8.2,0H132.1z M136.8,15.5c-0.4-0.7-0.7-1.4-0.9-2.1C136.2,14,136.5,14.8,136.8,15.5z"/>
	<path class="st0" d="M138.7,1.4c-0.3-0.4-0.6-0.9-0.8-1.4h0.5c1,1.7,2.1,3.4,3.4,4.9v0.7c-0.1-0.1-0.1-0.1-0.2-0.2
		c-0.2-0.2-0.4-0.5-0.6-0.7c-0.2-0.3-0.5-0.6-0.7-0.9c-0.3-0.4-0.6-0.8-0.9-1.2C139.1,2.1,138.9,1.7,138.7,1.4z"/>
	<path class="st0" d="M141.7,6.2c-1.7-1.9-3.1-4-4.4-6.2h0.5c0.3,0.5,0.5,0.9,0.8,1.4c0.2,0.4,0.4,0.7,0.7,1.1
		c0.3,0.4,0.6,0.8,0.9,1.2c0.2,0.3,0.5,0.6,0.7,0.9c0.2,0.2,0.4,0.5,0.6,0.7c0.1,0.1,0.1,0.1,0.2,0.2V6.2z"/>
	<path class="st0" d="M138.7,7.3c-1.4-2.3-2.6-4.7-3.4-7.3h0.5c0.8,2.5,1.9,4.8,3.3,7.1c0.8,1.3,1.7,2.5,2.6,3.7v0.7
		C140.6,10.1,139.6,8.8,138.7,7.3z"/>
	<path class="st0" d="M138.4,7.6c-1.5-2.4-2.7-4.9-3.5-7.6h0.4c0.8,2.6,2,5,3.4,7.3c0.9,1.4,1.9,2.8,3,4.1v0.7
		C140.5,10.7,139.4,9.2,138.4,7.6z"/>
	<path class="st0" d="M134.1,0.1c0,0,0-0.1,0-0.1h0C134.1,0,134.1,0.1,134.1,0.1z"/>
	<path class="st0" d="M108.8,0c-3.7,6.7-9.7,12.3-17.3,15.9c-5.8,2.7-11.5,3.9-17.9,3.9H0V19h73.6c6.3,0,11.9-1.2,17.6-3.9
		c7.3-3.4,13.1-8.7,16.7-15.1H108.8z"/>
	<path class="st0" d="M111.4,0c-0.6,1.9-1.5,3.9-2.6,6c-3.2,5.8-7.3,10.1-13.3,13.7c-5.6,3.4-11.4,5.3-18.2,5.9
		c-1.7,0.1-6.4,0.2-10.7,0.2c-2.2,0-4.3,0-6,0l-2.4,0H0v-0.9l60.6,0c4.9,0,14.1,0,16.6-0.2c6.6-0.6,12.3-2.4,17.8-5.8
		c5.8-3.5,9.8-7.7,13-13.4c1.1-1.9,1.9-3.8,2.5-5.6H111.4z"/>
	<path class="st0" d="M45.1,99.4C44.7,99,44.3,98.5,44,98C44.3,98.5,44.7,99,45.1,99.4z"/>
</g>
</svg>
