<?xml version="1.0" encoding="utf-8"?>
<!-- Generator: Adobe Illustrator 26.0.3, SVG Export Plug-In . SVG Version: 6.00 Build 0)  -->
<svg version="1.1" id="Layer_1" xmlns="http://www.w3.org/2000/svg" xmlns:xlink="http://www.w3.org/1999/xlink" x="0px" y="0px"
	 viewBox="0 0 38 38" enable-background="new 0 0 38 38" xml:space="preserve">
<path fill="#FFFFFF" d="M38,11.1L21.93,8.6c-1.95-0.3-3.92-0.3-5.86,0L0,11.1v2.34l14.1,2.2L0,17.83v2.34l14.08,2.19L0,24.55v2.34
	l16.07,2.5c0.96,0.15,1.95,0.23,2.92,0.23c0.98,0,1.97-0.08,2.94-0.23L38,26.89v-2.34l-14.08-2.19L38,20.17v-2.34l-14.1-2.19
	l14.1-2.2V11.1z M32.52,25.73l-10.9,1.69c-1.73,0.27-3.51,0.27-5.26,0L5.48,25.73l10.88-1.7c1.75-0.27,3.53-0.27,5.26,0L32.52,25.73
	z M32.52,19l-10.9,1.69c-1.73,0.27-3.51,0.27-5.26,0L5.48,19l10.88-1.7c1.75-0.27,3.53-0.27,5.26,0L32.52,19z M21.62,13.96
	c-1.73,0.27-3.51,0.27-5.26,0L5.52,12.27l10.84-1.69c1.75-0.28,3.53-0.28,5.26,0l10.85,1.69L21.62,13.96z"/>
</svg>
