<?xml version="1.0" encoding="utf-8"?>
<!-- Generator: Adobe Illustrator 26.0.3, SVG Export Plug-In . SVG Version: 6.00 Build 0)  -->
<svg version="1.1" id="Layer_1" xmlns="http://www.w3.org/2000/svg" xmlns:xlink="http://www.w3.org/1999/xlink" x="0px" y="0px"
	 viewBox="0 0 38 38" enable-background="new 0 0 38 38" xml:space="preserve">
<path fill="#FFFFFF" d="M38,22.9v2.3h-5.5c0,0,0,0,0.1-0.8c0-4.8-6.7-5-6.7,0c0,0.8,0,0.8,0,0.8h-3.4c0,0,0,0,0-4.2c0-6-7.5-6-7.5,0
	c0,4.2,0,4.2,0,4.2h-3.5c0,0,0,0,0-0.8c0-5.3-6.4-5-6.4,0c0,0.8,0,0.8,0,0.8H0V23c0,0,9.3-9,18.5-9C27.4,14,37.4,22.4,38,22.9z"/>
</svg>
