<?xml version="1.0" encoding="utf-8"?>
<!-- Generator: Adobe Illustrator 26.0.3, SVG Export Plug-In . SVG Version: 6.00 Build 0)  -->
<svg version="1.1" id="Layer_1" xmlns="http://www.w3.org/2000/svg" xmlns:xlink="http://www.w3.org/1999/xlink" x="0px" y="0px"
	 viewBox="0 0 38 38" enable-background="new 0 0 38 38" xml:space="preserve">
<path fill="#FFFFFF" d="M38,18v-2.1h-2.7v-2.1h-4.2v2.1h-2.5v-2.1h-4.2v2.1h-3.3v-2.1h-4.2v2.1h-3.3v-2.1H9.4v2.1H6.8v-2.1H2.6v2.1
	H0V18h2.6v2H0v2.1h2.6v2.1h4.1v-2.1h2.7v2.1h4.2v-2.1h3.7V20h3.4v2.1h3.7v2.1h4.2v-2.1h2.5v2.1h4.2v-2.1H38V20h-2.7v-2H38z
	 M5.9,22.1H4.2V20h1.7V22.1z M5.9,18H4.2v-2.1h1.7V18z M9.3,20H6.7v-2h2.6V20z M13.1,22.1h-3V20h3V22.1z M13.1,18h-3v-2.1h3V18z
	 M16.9,20h-3.3v-2h3.3V20z M17.3,18v-2.1h3.4V18H17.3z M24.4,20h-3.3v-2h3.3V20z M27.9,22.1h-3V20h3V22.1z M27.9,18h-3v-2.1h3V18z
	 M31.1,20h-2.5v-2h2.5V20z M33.8,22.1h-1.7V20h1.7V22.1z M33.8,18h-1.7v-2.1h1.7V18z"/>
</svg>
