<?xml version="1.0" encoding="utf-8"?>
<!-- Generator: Adobe Illustrator 26.0.3, SVG Export Plug-In . SVG Version: 6.00 Build 0)  -->
<svg version="1.1" id="Layer_1" xmlns="http://www.w3.org/2000/svg" xmlns:xlink="http://www.w3.org/1999/xlink" x="0px" y="0px"
	 viewBox="0 0 38 38" style="enable-background:new 0 0 38 38;" xml:space="preserve">
<style type="text/css">
	.st0{fill:#FFFFFF;}
</style>
<path class="st0" d="M19.6,13.5c0.3,0.4,0.6,0.8,1,1.2c-4.3,2.9-8.5,5.7-12.8,8.6c0,0,0,0,0,0C11.7,20,15.6,16.7,19.6,13.5z"/>
<path class="st0" d="M17.5,14.7c-3.4,2.8-6.8,5.6-10.2,8.4c0,0,0,0,0,0c3.1-3.1,6.2-6.1,9.3-9.2C16.9,14.1,17.2,14.4,17.5,14.7z"/>
<path class="st0" d="M13.1,14.8c-2.3,2.8-4.6,5.5-6.9,8.2c0,0,0,0,0,0c2-2.9,4.1-5.8,6.1-8.7C12.6,14.4,12.9,14.6,13.1,14.8z"/>
<path class="st0" d="M11.4,14.8c-1.8,2.6-3.7,5.3-5.5,7.9c0,0,0,0,0,0c1.6-2.8,3.2-5.6,4.8-8.4C10.9,14.5,11.2,14.7,11.4,14.8z"/>
<path class="st0" d="M9.3,14.6c0.2,0.1,0.4,0.2,0.7,0.3c-1.5,2.6-2.9,5.1-4.4,7.7c0,0,0,0,0,0C6.8,19.9,8.1,17.2,9.3,14.6z"/>
<path class="st0" d="M24.3,14.6c-5.4,2.9-10.7,5.9-16.1,8.9c0,0,0,0,0,0c5.1-3.4,10.1-6.8,15.2-10.2C23.7,13.7,24,14.1,24.3,14.6z"
	/>
<path class="st0" d="M8.7,14.9c-1.1,2.4-2.2,4.8-3.4,7.1c0,0,0,0,0,0c0.9-2.4,1.9-4.9,2.8-7.4C8.3,14.8,8.5,14.8,8.7,14.9z"/>
<path class="st0" d="M15.1,14.7c-2.8,2.8-5.7,5.6-8.5,8.4c0,0,0,0,0,0c2.5-3,5.1-6.1,7.6-9.1C14.6,14.2,14.8,14.5,15.1,14.7z"/>
<path class="st0" d="M7.2,14.8c0.2,0,0.3,0.1,0.5,0.1c-0.8,2.2-1.7,4.3-2.5,6.5h0C5.8,19.2,6.5,17,7.2,14.8z"/>
<path class="st0" d="M6.3,14.9c0.1,0,0.2,0.1,0.4,0.1c-0.6,1.9-1.1,3.7-1.7,5.6c0,0,0,0,0,0C5.4,18.7,5.9,16.8,6.3,14.9z"/>
<path class="st0" d="M4.8,19.5c0.3-1.5,0.5-3,0.8-4.5c0.1,0,0.2,0,0.3,0.1C5.6,16.5,5.2,18,4.8,19.5C4.8,19.5,4.8,19.5,4.8,19.5z"/>
<path class="st0" d="M5.2,15.1c-0.2,1-0.4,2.1-0.5,3.1c0,0,0,0,0,0c0.1-1,0.3-2.1,0.4-3.1C5.1,15,5.2,15,5.2,15.1z"/>
<path class="st0" d="M4.7,15c-0.1,1-0.2,1.9-0.4,2.9h0C4.4,17,4.4,16,4.5,15C4.6,15,4.6,15,4.7,15z"/>
<path class="st0" d="M4,18.1c0-1,0.1-2.1,0.1-3.1c0.1,0,0.1,0,0.2,0C4.2,16.1,4.1,17.1,4,18.1C4,18.1,4,18.1,4,18.1z"/>
<path class="st0" d="M3.7,15.1c0,0,0.1,0,0.1,0c0,0.9-0.1,1.8-0.1,2.8c0,0,0,0,0,0V15.1z"/>
<path class="st0" d="M28.1,12.9c0.3,0.5,0.6,1.1,0.9,1.6c-6.7,3-13.4,5.9-20,8.9c0,0,0,0,0,0C15.4,19.9,21.7,16.4,28.1,12.9z"/>
<path class="st0" d="M35.2,15.2C24.8,19.8,14.3,24.4,3.9,29c-0.4-0.8-0.7-1.6-1.1-2.4c10.4-4.6,20.8-9.2,31.3-13.9
	C34.5,13.5,34.8,14.3,35.2,15.2z"/>
</svg>
