<?xml version="1.0" encoding="utf-8"?>
<!-- Generator: Adobe Illustrator 26.0.3, SVG Export Plug-In . SVG Version: 6.00 Build 0)  -->
<svg version="1.1" xmlns="http://www.w3.org/2000/svg" xmlns:xlink="http://www.w3.org/1999/xlink" x="0px" y="0px"
	 viewBox="0 0 38 38" enable-background="new 0 0 38 38" xml:space="preserve">
<g id="WHITE" display="none">
	<g display="inline">
		
			<line fill="#FFFFFF" stroke="#000000" stroke-width="3" stroke-miterlimit="10" x1="-159.873" y1="708.425" x2="-159.873" y2="442.99"/>
		
			<line fill="#FFFFFF" stroke="#000000" stroke-width="3" stroke-miterlimit="10" x1="-149.727" y1="708.425" x2="-149.727" y2="442.99"/>
		
			<line fill="#FFFFFF" stroke="#000000" stroke-width="3" stroke-miterlimit="10" x1="-129.434" y1="708.425" x2="-129.434" y2="518.828"/>
		
			<line fill="#FFFFFF" stroke="#000000" stroke-width="3" stroke-miterlimit="10" x1="-139.58" y1="708.425" x2="-139.58" y2="480.91"/>
		
			<line fill="#FFFFFF" stroke="#000000" stroke-width="3" stroke-miterlimit="10" x1="-119.288" y1="708.425" x2="-119.288" y2="556.747"/>
		
			<line fill="#FFFFFF" stroke="#000000" stroke-width="3" stroke-miterlimit="10" x1="-98.995" y1="708.425" x2="-98.995" y2="632.615"/>
		
			<line fill="#FFFFFF" stroke="#000000" stroke-width="3" stroke-miterlimit="10" x1="-109.141" y1="708.425" x2="-109.141" y2="594.665"/>
		
			<line fill="#FFFFFF" stroke="#000000" stroke-width="3" stroke-miterlimit="10" x1="-88.849" y1="708.425" x2="-88.849" y2="670.438"/>
		
			<line fill="#FFFFFF" stroke="#000000" stroke-width="3" stroke-miterlimit="10" x1="-220.751" y1="480.972" x2="-220.751" y2="442.99"/>
		
			<line fill="#FFFFFF" stroke="#000000" stroke-width="3" stroke-miterlimit="10" x1="-210.605" y1="518.859" x2="-210.605" y2="442.99"/>
		
			<line fill="#FFFFFF" stroke="#000000" stroke-width="3" stroke-miterlimit="10" x1="-180.166" y1="632.585" x2="-180.166" y2="442.99"/>
		
			<line fill="#FFFFFF" stroke="#000000" stroke-width="3" stroke-miterlimit="10" x1="-170.019" y1="670.438" x2="-170.019" y2="442.99"/>
		
			<line fill="#FFFFFF" stroke="#000000" stroke-width="3" stroke-miterlimit="10" x1="-200.458" y1="556.747" x2="-200.458" y2="442.99"/>
		
			<line fill="#FFFFFF" stroke="#000000" stroke-width="3" stroke-miterlimit="10" x1="-190.312" y1="594.568" x2="-190.312" y2="442.99"/>
	</g>
</g>
<g id="Layer_1">
</g>
<g id="GREY">
	<g>
		<rect x="26.519" y="30.137" fill="#FFFFFF" width="0.47" height="4.466"/>
		<rect x="25.326" y="25.691" fill="#FFFFFF" width="0.47" height="8.913"/>
		<rect x="24.132" y="21.229" fill="#FFFFFF" width="0.47" height="13.374"/>
		<rect x="22.94" y="16.771" fill="#FFFFFF" width="0.47" height="17.833"/>
		<rect x="21.747" y="12.313" fill="#FFFFFF" width="0.47" height="22.291"/>
		<rect x="20.554" y="7.855" fill="#FFFFFF" width="0.47" height="26.749"/>
		<rect x="19.362" y="3.397" fill="#FFFFFF" width="0.47" height="31.207"/>
		<rect x="18.168" y="3.397" fill="#FFFFFF" width="0.47" height="31.207"/>
		<rect x="16.975" y="3.397" fill="#FFFFFF" width="0.47" height="26.741"/>
		<rect x="15.783" y="3.397" fill="#FFFFFF" width="0.47" height="22.291"/>
		<rect x="14.589" y="3.397" fill="#FFFFFF" width="0.47" height="17.821"/>
		<rect x="13.397" y="3.397" fill="#FFFFFF" width="0.47" height="13.374"/>
		<rect x="12.204" y="3.397" fill="#FFFFFF" width="0.47" height="8.92"/>
		<rect x="11.011" y="3.397" fill="#FFFFFF" width="0.47" height="4.466"/>
	</g>
</g>
</svg>
