<?xml version="1.0" encoding="utf-8"?>
<!-- Generator: Adobe Illustrator 26.0.3, SVG Export Plug-In . SVG Version: 6.00 Build 0)  -->
<svg version="1.1" id="Layer_1" xmlns="http://www.w3.org/2000/svg" xmlns:xlink="http://www.w3.org/1999/xlink" x="0px" y="0px"
	 viewBox="0 0 250 250" style="enable-background:new 0 0 250 250;" xml:space="preserve">
<style type="text/css">
	.st0{fill:#FFFFFF;}
</style>
<path class="st0" d="M220.2,124l-26.9-65.3c-0.3-0.7-0.8-1.2-1.5-1.5l-65.7-27.3c-0.7-0.3-1.4-0.3-2.1,0L58.6,56.8
	c-0.7,0.3-1.2,0.8-1.5,1.4L29.8,124c-0.3,0.7-0.3,1.4,0,2.1l27,65.3c0.3,0.7,0.8,1.2,1.4,1.4l65.7,27.3c0.3,0.1,0.7,0.2,1,0.2
	c0.3,0,0.7-0.1,1-0.2l65.3-26.9c0.7-0.3,1.2-0.8,1.5-1.4l27.3-65.7C220.5,125.3,220.5,124.6,220.2,124z M56.9,177.4l-17.1-41.6
	l17.2,17.2L56.9,177.4z M57,145.4L36.5,125l20.6-20.6L57,145.4z M57.1,96.8l-17.3,17.3l17.4-41.8L57.1,96.8z M177.7,57.2l-24.5,0
	l-17.3-17.4L177.7,57.2z M125,36.5l20.6,20.6L104.5,57L125,36.5z M114.1,39.7L96.9,56.9l-24.5,0L114.1,39.7z M62.6,62.2l28.9,0.1
	l-29,29.1L62.6,62.2z M62.3,158.4l29,29.1l-29.1-0.1L62.3,158.4z M72.3,192.8l24.5,0l17.3,17.3L72.3,192.8z M125,213.5l-20.6-20.6
	l41,0.1L125,213.5z M135.9,210.3l17.2-17.2l24.5,0L135.9,210.3z M187.4,187.8l-28.9-0.1l29-29.1L187.4,187.8z M187.5,151l-36.6,36.7
	L99,187.5l-36.7-36.6L62.5,99l36.6-36.7l51.8,0.2l36.6,36.6L187.5,151z M187.7,91.6l-29-29.1l29.1,0.1L187.7,91.6z M193.1,72.6
	l17.1,41.6L193,96.9L193.1,72.6z M192.8,177.8l0.1-24.6l17.3-17.4L192.8,177.8z M192.9,145.6l0.1-41.1l20.5,20.5L192.9,145.6z"/>
</svg>
