<?xml version="1.0" encoding="utf-8"?>
<!-- Generator: Adobe Illustrator 26.0.3, SVG Export Plug-In . SVG Version: 6.00 Build 0)  -->
<svg version="1.1" id="Layer_1" xmlns="http://www.w3.org/2000/svg" xmlns:xlink="http://www.w3.org/1999/xlink" x="0px" y="0px"
	 viewBox="0 0 38 38" style="enable-background:new 0 0 38 38;" xml:space="preserve">
<style type="text/css">
	.st0{fill:#FFFFFF;}
</style>
<polygon class="st0" points="15.4,21.9 20.1,27.4 10.4,27.4 "/>
<polygon class="st0" points="14.8,21.7 9.9,27.2 7.7,21.7 "/>
<polygon class="st0" points="7.3,22 9.4,27.4 4,27.4 "/>
<polygon class="st0" points="6.9,21.7 4.3,26.1 5.3,21.7 "/>
<polygon class="st0" points="7.6,17 7.1,21.2 5.5,21.2 "/>
<polygon class="st0" points="12.4,15.8 7.7,20.7 8.2,15.8 "/>
<polygon class="st0" points="12.9,16 15,21.2 7.9,21.2 "/>
<polygon class="st0" points="19.5,15.8 15.5,20.9 13.4,15.8 "/>
<polygon class="st0" points="20,16 24.2,21.3 15.9,21.3 "/>
<polygon class="st0" points="26.8,15.8 24.7,21 20.5,15.8 "/>
<polygon class="st0" points="24.4,21.7 20.7,27.2 16,21.7 "/>
<polygon class="st0" points="24.9,21.9 30.1,27.4 21.2,27.4 "/>
<polygon class="st0" points="32.5,22.4 34,27.4 31,27.4 "/>
<polygon class="st0" points="27.3,16 32,21.2 25.2,21.2 "/>
<polygon class="st0" points="29.6,15.8 31.6,20 27.8,15.8 "/>
<polygon class="st0" points="29,15.3 27.4,15.3 25.6,12.8 "/>
<polygon class="st0" points="24.2,11.9 26.1,14.5 22.3,11.9 "/>
<polygon class="st0" points="26.4,15.3 20.4,15.3 21.7,12.1 "/>
<polygon class="st0" points="12.8,12.2 12.8,15.3 8.8,15.3 "/>
<polygon class="st0" points="16.4,11.9 13.3,14.9 13.3,11.9 "/>
<polygon class="st0" points="17.1,12 19.5,15.3 13.7,15.3 "/>
<polygon class="st0" points="21.1,11.9 19.9,15 17.5,11.9 "/>
<polygon class="st0" points="22.7,11.3 21.4,11.3 20.1,10.8 "/>
<polygon class="st0" points="18.7,10.7 20.2,11.3 17.9,11.3 "/>
<polygon class="st0" points="18.1,10.6 17.2,11.3 14.9,11.3 "/>
<polygon class="st0" points="32.2,21.7 30.5,27.1 25.4,21.7 "/>
</svg>
