<?xml version="1.0" encoding="utf-8"?>
<!-- Generator: Adobe Illustrator 26.0.3, SVG Export Plug-In . SVG Version: 6.00 Build 0)  -->
<svg version="1.1" id="Layer_1" xmlns="http://www.w3.org/2000/svg" xmlns:xlink="http://www.w3.org/1999/xlink" x="0px" y="0px"
	 viewBox="0 0 38 38" style="enable-background:new 0 0 38 38;" xml:space="preserve">
<style type="text/css">
	.st0{fill:#FFFFFF;}
	.st1{display:none;}
	.st2{display:inline;}
	.st3{fill-rule:evenodd;clip-rule:evenodd;fill:#FFFFFF;}
</style>
<rect x="27.5" y="22.1" class="st0" width="4.4" height="4.4"/>
<path class="st0" d="M26.5,16.5V32h-4.3v-9.7v-5.9c0-1.6-0.6-3-1.7-4.2c-1.1-1.1-2.6-1.7-4.2-1.7s-3,0.6-4.2,1.7s-1.7,2.6-1.7,4.2
	s0.6,3,1.7,4.2c1.1,1.1,2.6,1.7,4.2,1.7h4.9v4.4h-4.9c-0.6,0-1.2,0-1.8-0.1c-2-0.3-4-1.4-5.4-2.8c-1.9-1.9-2.9-4.5-2.9-7.2
	s1-5.3,2.9-7.2s4.5-2.9,7.2-2.9C21.9,6.3,26.5,11,26.5,16.5z"/>
<g id="Layer_3">
</g>
<g id="Layer_2_00000159436646761847442580000012041175517323128966_" class="st1">
	<g id="HATCH_1_" class="st2">
		<path class="st3" d="M81.1,105v44h42.5v-44H81.1z M122,106.4v-1.1h-1.4v1.1H122z M82.8,106.4h1.4v-1.1h-1.4V106.4z M87.3,106.4
			v-1.1h-1.4v1.1H87.3z M117.4,106.4h1.4v-1.1h-1.4V106.4z M114.3,106.4h1.4v-1.1h-1.4V106.4z M90.5,106.4v-1.1h-1.4v1.1H90.5z
			 M92.2,106.4h1.4v-1.1h-1.4V106.4z M111.1,105.3v1.1h1.4v-1.1H111.1z M109.4,105.3H108v1.1h1.4V105.3z M95.4,105.3v1.1h1.4v-1.1
			H95.4z M99.9,105.3h-1.4v1.1h1.4V105.3z M104.8,106.4h1.4v-1.1h-1.4V106.4z M103.1,106.4v-1.1h-1.4v1.1H103.1z M122.2,148.7h1.2
			v-1.1h-1.2V148.7z M82.6,148.7v-1.1h-1.2v1.1H82.6z M120.4,148.7v-1.1H119v1.1H120.4z M115.9,147.6v1.1h1.4v-1.1H115.9z
			 M112.7,147.6v1.1h1.4v-1.1H112.7z M109.6,147.6v1.1h1.4v-1.1H109.6z M106.4,148.7h1.4v-1.1h-1.4V148.7z M103.3,148.7h1.4v-1.1
			h-1.4V148.7z M101.5,148.7v-1.1h-1.4v1.1H101.5z M97,147.6v1.1h1.4v-1.1H97z M95.2,147.6h-1.4v1.1h1.4V147.6z M90.6,147.6v1.1H92
			v-1.1H90.6z M88.9,147.6h-1.4v1.1h1.4V147.6z M85.7,147.6h-1.4v1.1h1.4V147.6z M123.4,117.5v-1h-1.2v1H123.4z M122.2,119.8h1.2v-1
			h-1.2V119.8z M123.4,121.2h-1.2v1h1.2V121.2z M123.4,123.6h-1.2v1h1.2V123.6z M122.2,125.9v1h1.2v-1H122.2z M122.2,128.3v1h1.2v-1
			H122.2z M122.2,130.6v1h1.2v-1H122.2z M122.2,133v1h1.2v-1H122.2z M122.2,136.3h1.2v-1h-1.2V136.3z M123.4,138.6v-1h-1.2v1H123.4z
			 M122.2,140v1h1.2v-1H122.2z M123.4,142.3h-1.2v1h1.2V142.3z M123.4,145.9v-1.2h-1.2v1.2H123.4z M122.2,114.2v1h1.2v-1H122.2z
			 M122.2,111.8v1h1.2v-1H122.2z M123.4,109.5h-1.2v1h1.2V109.5z M122.2,107.8h1.2v-1.2h-1.2V107.8z M81.4,116.5v1h1.2v-1H81.4z
			 M81.4,118.9v1h1.2v-1H81.4z M82.6,122.2v-1h-1.2v1H82.6z M82.6,123.6h-1.2v1h1.2V123.6z M81.4,125.9v1h1.2v-1H81.4z M81.4,128.3
			v1h1.2v-1H81.4z M82.6,130.6h-1.2v1h1.2V130.6z M82.6,133h-1.2v1h1.2V133z M82.6,136.3v-1h-1.2v1H82.6z M82.6,137.7h-1.2v1h1.2
			V137.7z M81.4,140v1h1.2v-1H81.4z M81.4,143.3h1.2v-1h-1.2V143.3z M82.6,145.9v-1.2h-1.2v1.2H82.6z M82.6,114.2h-1.2v1h1.2V114.2z
			 M82.6,112.8v-1h-1.2v1H82.6z M81.4,110.4h1.2v-1h-1.2V110.4z M81.4,107.8h1.2v-1.2h-1.2V107.8z M99,134.1h6.8v-3.6H99V134.1z
			 M98.8,130.3l0.2-2.2l-3.3,0.4l-0.3,2L98.8,130.3z M98.8,134.3l-3.4-0.2l0.3,2l3.3,0.4L98.8,134.3z M109.3,134l-3.4,0.2l-0.2,2.2
			l3.3-0.4L109.3,134z M105.8,128.1l0.2,2.2l3.4,0.2l-0.3-2L105.8,128.1z M108.8,126.7l0.4,1.7l1.5,0.3l-0.4-1.5L108.8,126.7z
			 M111.2,126.1l-1.2-0.5l0.5,1.4l1.1,0.4L111.2,126.1z M111.8,125.2l-0.9-0.4l0.5,1.1l0.8,0.4L111.8,125.2z M111.9,125.1l0.6,0.3
			l-0.4-0.9l-0.7-0.4L111.9,125.1z M112,123.7l0.4,0.7l0.5,0.3l-0.3-0.6L112,123.7z M112.8,123.9l1.3,0.5v-0.9l-1.4-0.2L112.8,123.9
			z M114.3,122.4v1h1.4v-1H114.3z M117.2,121.2h-1.4v1h1.4V121.2z M118.8,120h-1.4v1h1.4V120z M120.4,118.9H119v1h1.4V118.9z
			 M120.6,117.7v1h1.4v-1H120.6z M122,121v-1h-1.4v1H122z M120.4,121.2H119v1h1.4V121.2z M118.8,122.4h-1.4v1h1.4V122.4z
			 M117.2,123.6h-1.4v1h1.4V123.6z M115.7,124.7h-1.4v0.8l1.4,0.2V124.7z M114.1,125.7l-0.8-0.5l0.3,0.9l0.5,0.3V125.7z
			 M113.8,127.1l-0.3-1l-0.5-0.3l0.4,1L113.8,127.1z M113.2,127l-0.6-0.3l0.4,1.2l0.6,0.3L113.2,127z M112.7,128l-0.8-0.3l0.3,1.3
			l0.8,0.2L112.7,128z M112,129.1l-1.1-0.2l0.2,1.8l1,0.1L112,129.1z M109.6,130.7v3.1l1.5-0.2v-2.7L109.6,130.7z M105.2,138.5
			l0.3-1.9h-6.3l0.3,1.9H105.2z M109.2,136.2l-0.4,1.7l1.6-0.5l0.4-1.5L109.2,136.2z M112.3,133.7l-1,0.1l-0.2,1.8l1.1-0.2
			L112.3,133.7z M113.2,133.4v-2.2l-0.7-0.1v2.4L113.2,133.4z M113.8,129.6l-0.6-0.2l0.2,1.6l0.5,0.1L113.8,129.6z M114.2,128.7
			l-0.4-0.2l0.2,0.9l0.4,0.1L114.2,128.7z M114.7,128.8l-0.2-1l-0.4-0.2l0.3,1.1L114.7,128.8z M114.4,126.7l0.3,1l1,0.4v-1
			L114.4,126.7z M115.9,125.9v1h1.4v-1H115.9z M118.8,124.7h-1.4v1h1.4V124.7z M119,123.6v1h1.4v-1H119z M122,122.4h-1.4v1h1.4
			V122.4z M120.6,125.7h1.4v-1h-1.4V125.7z M120.4,126.9v-1H119v1H120.4z M117.4,128.1h1.4v-1h-1.4V128.1z M117.2,129.2v-1h-1.4v1
			H117.2z M115.7,130v-0.7l-0.7-0.2l0.1,0.7L115.7,130z M114.9,130l-0.3-0.1l0.1,1.4l0.3,0.1L114.9,130z M114.5,133.1v-1.8l-0.4-0.1
			v1.9L114.5,133.1z M113.4,133.5l-0.2,1.6l0.6-0.2l0.2-1.5L113.4,133.5z M112.7,136.5l0.2-1.2l-0.8,0.2l-0.3,1.3L112.7,136.5z
			 M110.5,137.6L110,139l1.2-0.5l0.4-1.3L110.5,137.6z M108,139.6l0.5-1.4l-3.2,0.6l-0.3,1.4L108,139.6z M109.7,139.3l-1.5,0.5
			l-0.5,1.1l1.5-0.5L109.7,139.3z M99.4,138.7l-3.2-0.6l0.5,1.4l3,0.6L99.4,138.7z M100.2,141.4h4.3l0.3-1.1h-4.9L100.2,141.4z
			 M95.5,136.2l-1.5-0.3l0.4,1.5l1.6,0.5L95.5,136.2z M93.7,133.6l1.5,0.2v-3.1l-1.5,0.2V133.6z M95.5,128.4l0.4-1.7l-1.6,0.5
			l-0.4,1.5L95.5,128.4z M99.5,126l-0.3,1.9h6.3l-0.3-1.9H99.5z M93.5,126.1l-0.4,1.3l1.1-0.4l0.5-1.4L93.5,126.1z M93.4,125.9
			l0.5-1.1l-0.9,0.4l-0.4,1.1L93.4,125.9z M92.8,125.1l0.4-0.9l-0.7,0.4l-0.4,0.9L92.8,125.1z M92.8,123.7l-0.7,0.4l-0.3,0.6
			l0.5-0.3L92.8,123.7z M90.6,123.5v0.9l1.3-0.5l0.1-0.5L90.6,123.5z M89.1,123.4h1.4v-1h-1.4V123.4z M85.9,121h1.4v-1h-1.4V121z
			 M87.5,121.2v1h1.4v-1H87.5z M85.7,118.9h-1.4v1h1.4V118.9z M82.8,117.7v1h1.4v-1H82.8z M84.2,121v-1h-1.4v1H84.2z M85.7,122.2v-1
			h-1.4v1H85.7z M87.3,122.4h-1.4v1h1.4V122.4z M87.5,123.6v1h1.4v-1H87.5z M89.1,125.7l1.4-0.2v-0.8h-1.4V125.7z M90.6,125.7v0.7
			l0.5-0.3l0.4-0.9L90.6,125.7z M91.4,126.9l0.4-1l-0.5,0.3l-0.3,1L91.4,126.9z M91.6,127l-0.3,1.2l0.6-0.3l0.4-1.2L91.6,127z
			 M92.5,129l0.3-1.3L92,128l-0.2,1.1L92.5,129z M92.7,129.1l-0.2,1.7l1-0.1l0.2-1.8L92.7,129.1z M82.8,123.4h1.4v-1h-1.4V123.4z
			 M84.3,123.6v1h1.4v-1H84.3z M87.3,125.7v-1h-1.4v1H87.3z M87.5,125.9v1h1.4v-1H87.5z M89.1,127.1v1l1-0.4l0.3-1L89.1,127.1z
			 M90.3,127.8l-0.2,1l0.3-0.2l0.3-1.1L90.3,127.8z M90.5,128.7l-0.1,0.8l0.4-0.1l0.2-0.9L90.5,128.7z M91,129.6l-0.2,1.5l0.5-0.1
			l0.2-1.6L91,129.6z M91.5,131.2v2.2l0.7,0.1v-2.4L91.5,131.2z M92.5,133.7l0.2,1.7l1.1,0.3l-0.2-1.8L92.5,133.7z M82.8,125.7h1.4
			v-1h-1.4V125.7z M84.3,125.9v1h1.4v-1H84.3z M85.9,128.1h1.4v-1h-1.4V128.1z M87.5,129.2h1.4v-1h-1.4V129.2z M89.7,129.8l0.1-0.7
			l-0.7,0.2v0.7L89.7,129.8z M89.8,130l-0.1,1.3l0.3-0.1l0.1-1.4L89.8,130z M90.2,131.4v1.7l0.4,0.1v-1.9L90.2,131.4z M91.4,133.5
			l-0.5-0.1l0.2,1.5l0.6,0.2L91.4,133.5z M92,136.5l0.8,0.3l-0.3-1.3l-0.8-0.2L92,136.5z M94.2,137.6l-1.1-0.4l0.4,1.3l1.2,0.5
			L94.2,137.6z M97,140.9l-0.5-1.1l-1.5-0.5l0.5,1.1L97,140.9z M100.1,141.6l-2.7-0.5l0.5,0.9l2.5,0.4L100.1,141.6z M104.4,142.4
			l2.5-0.4l0.5-0.9l-2.7,0.5L104.4,142.4z M109.4,140.5l-0.5,0.9l1.2-0.4l0.5-0.9L109.4,140.5z M111.4,138.6l-0.5,1.1l0.9-0.4
			l0.4-1.1L111.4,138.6z M112.9,136.6l-0.4,1.2l0.6-0.3l0.3-1.2L112.9,136.6z M114.2,135.8l0.1-0.8l-0.4,0.1l-0.2,0.9L114.2,135.8z
			 M114.7,133.3l-0.1,1.4l0.3-0.1l0.1-1.3L114.7,133.3z M115.7,131.6l-0.5-0.1v1.5l0.5-0.1V131.6z M115.9,131.4l1.3,0.1v-1l-1.4-0.3
			L115.9,131.4z M117.4,129.4v1h1.4v-1H117.4z M119,128.3v1h1.4v-1H119z M122,127.1h-1.4v1h1.4V127.1z M122,129.4h-1.4v1h1.4V129.4z
			 M120.4,131.6v-1H119v1H120.4z M117.4,132.8h1.4v-1h-1.4V132.8z M115.9,133.1v1.2l1.4-0.3v-1L115.9,133.1z M114.5,136.8l0.2-1
			l-0.3,0.2l-0.3,1.1L114.5,136.8z M115.1,134.7l-0.1,0.7l0.7-0.2v-0.7L115.1,134.7z M113.5,138.4l0.3-1l-0.5,0.3l-0.4,1
			L113.5,138.4z M111.9,139.5l-0.4,0.9l0.7-0.4l0.4-0.9L111.9,139.5z M110.7,141.5l0.4-0.7l-0.9,0.4l-0.4,0.7L110.7,141.5z
			 M107.8,143.2l1.1-0.4l0.4-0.6l-1.1,0.4L107.8,143.2z M107,142.2l-0.4,0.7l1.4-0.4l0.4-0.7L107,142.2z M103.9,143.9l2-0.2l0.4-0.6
			l-2.1,0.3L103.9,143.9z M103.9,143.3l0.2-0.6h-3.6l0.2,0.6H103.9z M100.7,143.5l-2.1-0.3l0.4,0.6l2,0.2L100.7,143.5z M97.7,142.2
			l-1.5-0.4l0.4,0.7l1.4,0.4L97.7,142.2z M95.8,141.4l-0.5-0.9l-1.2-0.5l0.5,0.9L95.8,141.4z M95.9,142.9l1.1,0.4l-0.4-0.6l-1.1-0.4
			L95.9,142.9z M94.5,141.2l-0.9-0.4l0.4,0.7l0.9,0.4L94.5,141.2z M93,139.3l0.9,0.4l-0.5-1.1l-0.8-0.4L93,139.3z M91.9,136.6
			l-0.6-0.3l0.3,1.2l0.6,0.3L91.9,136.6z M90.5,135.8L91,136l-0.2-0.9l-0.4-0.1L90.5,135.8z M89.7,133.3l0.1,1.3l0.3,0.1l-0.1-1.4
			L89.7,133.3z M89,131.6v1.3l0.5,0.1v-1.5L89,131.6z M88.8,131.4v-1.2l-1.4,0.3v1L88.8,131.4z M87.3,130.4v-1h-1.4v1H87.3z
			 M84.3,128.3v1h1.4v-1H84.3z M84.2,127.1h-1.4v1h1.4V127.1z M82.8,130.4h1.4v-1h-1.4V130.4z M85.7,131.6v-1h-1.4v1H85.7z
			 M87.3,132.8v-1h-1.4v1H87.3z M87.5,133v1l1.4,0.3v-1.2L87.5,133z M89.7,134.7l-0.6-0.2v0.7l0.7,0.2L89.7,134.7z M90.3,136.8
			l0.4,0.2l-0.3-1.1l-0.3-0.2L90.3,136.8z M91,137.4l0.3,1l0.5,0.3l-0.4-1L91,137.4z M92.5,140l0.7,0.4l-0.4-0.9l-0.6-0.3L92.5,140z
			 M97.8,144l1.3,0.3l-0.3-0.4l-1.3-0.3L97.8,144z M101.3,144.6h2.1l0.2-0.4h-2.5L101.3,144.6z M105.6,144.3l1.3-0.3l0.4-0.5
			l-1.3,0.3L105.6,144.3z M109.9,142.7L109,143l-0.4,0.5l1-0.4L109.9,142.7z M111.2,141.9l0.3-0.6l-0.7,0.4l-0.4,0.6L111.2,141.9z
			 M112.6,140.5l0.3-0.7l-0.5,0.3l-0.4,0.7L112.6,140.5z M113.6,138.5l-0.3,0.9l0.8-0.5v-0.7L113.6,138.5z M114.6,136.9l-0.3,1
			l1.3-0.4v-0.9L114.6,136.9z M117.2,136.3v-1h-1.4v1H117.2z M118.8,134.1h-1.4v1h1.4V134.1z M119,133.9h1.4v-1H119V133.9z
			 M122,131.8h-1.4v1h1.4V131.8z M122,135.1v-1h-1.4v1H122z M119,135.3v1h1.4v-1H119z M117.4,137.5h1.4v-1h-1.4V137.5z M117.2,137.7
			h-1.4v1h1.4V137.7z M114.3,139v0.8h1.4v-1L114.3,139z M114.1,140.1l-1.3,0.5l-0.1,0.5l1.4-0.1V140.1z M112.5,142.2v-0.8l-1.2,0.6
			l-0.1,0.4L112.5,142.2z M111,142.8l-1.2,0.5l-0.1,0.4l1.3-0.3L111,142.8z M108.1,144.4l-0.1,0.4l1.3-0.2V144L108.1,144.4z
			 M106.8,144.5l1.2-0.3l0.2-0.3l-1.2,0.3L106.8,144.5z M105,145.3l1.3-0.2l0.1-0.3l-1.3,0.2L105,145.3z M103.5,145l1.5-0.1l0.2-0.3
			l-1.6,0.2L103.5,145z M101.6,145.4h1.5v-0.2h-1.6L101.6,145.4z M99.7,144.9l1.5,0.1l-0.1-0.3l-1.7-0.2L99.7,144.9z M98.4,145.1
			l1.3,0.2l-0.1-0.2l-1.3-0.2L98.4,145.1z M96.7,144.2l1.2,0.3l-0.2-0.3l-1.2-0.3L96.7,144.2z M95.7,143l-0.9-0.4l0.3,0.5l1,0.4
			L95.7,143z M94.3,142.3l-0.4-0.6l-0.7-0.4l0.3,0.6L94.3,142.3z M92.4,140.1l-0.5-0.3l0.3,0.6l0.7,0.4L92.4,140.1z M91.1,138.5
			l-0.5-0.3v0.7l0.8,0.5L91.1,138.5z M89.1,137.5l1.3,0.4l-0.3-1l-1-0.4V137.5z M87.5,135.3v1h1.4v-1H87.5z M87.3,135.1v-1h-1.4v1
			H87.3z M85.7,133h-1.4v1h1.4V133z M82.8,131.8v1h1.4v-1H82.8z M84.2,135.1v-1h-1.4v1H84.2z M85.7,135.3h-1.4v1h1.4V135.3z
			 M87.3,137.5v-1h-1.4v1H87.3z M87.5,138.6h1.4v-1h-1.4V138.6z M90.5,139.8V139l-1.4-0.2v1H90.5z M90.6,141l1.4,0.1l-0.1-0.5
			l-1.3-0.5V141z M92.2,142.2l1.3,0.3l-0.1-0.4l-1.2-0.6C92.2,141.5,92.2,142.2,92.2,142.2z M93.8,143.4l1.3,0.3l-0.1-0.4l-1.2-0.5
			L93.8,143.4z M96.6,144.4l-1.3-0.5v0.6l1.3,0.2V144.4z M98.3,145.9l-0.1-0.7l-1.3-0.3v1H98.3z M100.1,146h1.4v-0.4l-1.5-0.1
			L100.1,146z M103.3,145.6v0.4h1.4l0.1-0.5L103.3,145.6z M107.8,145.9v-1l-1.3,0.3l-0.1,0.7H107.8z M110.9,144.7h-1.4v1.2h1.4
			V144.7z M111.1,143.5v1h1.4v-1H111.1z M114.1,142.3h-1.4v1h1.4V142.3z M114.3,141.2v1h1.4v-1H114.3z M115.9,140v1h1.4v-1H115.9z
			 M118.8,139.8v-1h-1.4v1H118.8z M119,137.7v1h1.4v-1H119z M120.6,136.5v1h1.4v-1H120.6z M120.6,139.8h1.4v-1h-1.4V139.8z M119,140
			v1h1.4v-1H119z M117.4,141.2v1h1.4v-1H117.4z M117.2,143.3v-1h-1.4v1H117.2z M114.3,144.5h1.4v-1h-1.4V144.5z M112.7,144.7v1.2
			h1.4v-1.2H112.7z M117.2,144.7h-1.4v1.2h1.4V144.7z M118.8,143.5h-1.4v1h1.4V143.5z M119,143.3h1.4v-1H119V143.3z M120.6,141.2v1
			h1.4v-1H120.6z M120.6,143.5v1h1.4v-1H120.6z M119,145.9h1.4v-1.2H119V145.9z M120.6,146.1v1.2h1.4v-1.2H120.6z M118.8,147.4v-1.2
			h-1.4v1.2H118.8z M115.7,146.1h-1.4v1.2h1.4V146.1z M111.1,146.1v1.2h1.4v-1.2H111.1z M108,147.4h1.4v-1.2H108V147.4z
			 M104.8,146.2v1.2h1.4v-1.2H104.8z M103.1,146.2h-1.4v1.1h1.4V146.2z M98.5,146.1v1.2h1.4v-1.2H98.5z M96.8,147.4v-1.2h-1.4v1.2
			H96.8z M93.8,145.9h1.4v-1.2h-1.4V145.9z M92.2,143.5v1h1.4v-1H92.2z M92,142.3h-1.4v1H92V142.3z M89.1,141.2v1h1.4v-1H89.1z
			 M88.9,141v-1h-1.4v1H88.9z M87.3,138.8h-1.4v1h1.4V138.8z M84.3,138.6h1.4v-1h-1.4V138.6z M84.2,137.5v-1h-1.4v1H84.2z
			 M82.8,139.8h1.4v-1h-1.4V139.8z M85.7,141v-1h-1.4v1H85.7z M85.9,142.2h1.4v-1h-1.4V142.2z M88.9,142.3h-1.4v1h1.4V142.3z
			 M90.5,143.5h-1.4v1h1.4V143.5z M90.6,145.9H92v-1.2h-1.4V145.9z M93.6,147.4v-1.2h-1.4v1.2H93.6z M89.1,146.1v1.2h1.4v-1.2H89.1z
			 M88.9,145.9v-1.2h-1.4v1.2H88.9z M85.9,144.5h1.4v-1h-1.4V144.5z M84.3,142.3v1h1.4v-1H84.3z M84.2,142.2v-1h-1.4v1H84.2z
			 M84.2,144.5v-1h-1.4v1H84.2z M85.7,144.7h-1.4v1.2h1.4V144.7z M87.3,147.4v-1.2h-1.4v1.2H87.3z M82.8,146.1v1.2h1.4v-1.2H82.8z
			 M122,115.3h-1.4v1h1.4V115.3z M120.4,116.5H119v1h1.4V116.5z M117.4,118.7h1.4v-1h-1.4V118.7z M115.9,118.9v1h1.4v-1H115.9z
			 M115.7,120h-1.4v1h1.4V120z M112.7,122.2h1.4v-1h-1.4V122.2z M112.5,122.4l-1.3-0.3l0.1,0.4l1.2,0.6
			C112.5,123.1,112.5,122.4,112.5,122.4z M111.2,122.7l-0.8-0.4l0.4,0.6l0.7,0.4L111.2,122.7z M110.7,123l-0.9-0.4l0.4,0.7l0,0
			l0.9,0.4L110.7,123z M110,123.5l-1.1-0.4l0.5,0.9l1.1,0.4L110,123.5z M109.2,124.2l-1.5-0.5l0.5,1.1l1.5,0.5L109.2,124.2z
			 M108,125l-3-0.6l0.3,1.4l3.2,0.6L108,125z M96.7,125l-0.5,1.4l3.2-0.6l0.3-1.4L96.7,125z M95.5,124.2l-0.5,1.1l1.5-0.5l0.5-1.1
			L95.5,124.2z M94.7,123.5l-0.5,0.9l1.1-0.4l0.5-0.9L94.7,123.5z M94.1,123l-0.4,0.7l0.9-0.4l0,0l0.4-0.7L94.1,123z M94.3,122.3
			l-0.8,0.4l-0.3,0.6l0.7-0.4L94.3,122.3z M92.2,122.4v0.8l1.2-0.6l0.1-0.4L92.2,122.4z M92,122.2v-1h-1.4v1H92z M89.1,121h1.4v-1
			h-1.4V121z M87.5,118.9v1h1.4v-1H87.5z M85.9,117.7v1h1.4v-1H85.9z M85.7,116.5h-1.4v1h1.4V116.5z M82.8,115.3v1h1.4v-1H82.8z
			 M84.2,113h-1.4v1h1.4V113z M84.3,114.2v1h1.4v-1H84.3z M85.9,115.3v1h1.4v-1H85.9z M88.9,117.5v-1h-1.4v1H88.9z M90.5,118.7v-1
			h-1.4v1H90.5z M92,118.9h-1.4v1H92V118.9z M92.2,121h1.4v-1h-1.4V121z M93.8,121.2v0.6l1.2-0.6l0.1-0.4L93.8,121.2z M94.8,121.9
			l0.9-0.4l0.4-0.5l-1,0.4L94.8,121.9z M95.9,121.7l-0.4,0.6l1.1-0.4l0.4-0.6L95.9,121.7z M96.7,122l-0.4,0.7l1.5-0.4l0.4-0.7
			L96.7,122z M100.3,122.1l-2.5,0.4l-0.5,0.9l2.7-0.5L100.3,122.1z M104.5,123.1h-4.3l-0.3,1.1h4.9L104.5,123.1z M104.7,122.9
			l2.7,0.5l-0.5-0.9l-2.5-0.4L104.7,122.9z M107,122.4l1.5,0.4L108,122l-1.4-0.4L107,122.4z M108.9,121.7l-1.1-0.4l0.4,0.6l1.1,0.4
			L108.9,121.7z M109,121.5l0.9,0.4l-0.3-0.5l-1-0.4L109,121.5z M110.9,121.2l-1.3-0.3l0.1,0.4l1.2,0.5L110.9,121.2z M111.1,121h1.4
			v-1h-1.4V121z M114.1,118.9h-1.4v1h1.4V118.9z M114.3,117.7v1h1.4v-1H114.3z M117.2,117.5v-1h-1.4v1H117.2z M117.4,116.3h1.4v-1
			h-1.4V116.3z M120.4,114.2H119v1h1.4V114.2z M120.6,113v1h1.4v-1H120.6z M122,110.6h-1.4v1h1.4V110.6z M120.4,111.8H119v1h1.4
			V111.8z M118.8,113h-1.4v1h1.4V113z M117.2,114.2h-1.4v1h1.4V114.2z M114.3,116.3h1.4v-1h-1.4V116.3z M112.7,116.5v1h1.4v-1H112.7
			z M112.5,117.7h-1.4v1h1.4V117.7z M109.6,119.8h1.4v-1h-1.4V119.8z M108.1,120.2l1.3,0.5v-0.6l-1.3-0.2V120.2z M107,120.3l1.2,0.3
			l-0.2-0.3l-1.2-0.3L107,120.3z M106.9,120.5l-1.3-0.3l0.3,0.4l1.3,0.3L106.9,120.5z M104.1,121.1l2.1,0.3l-0.4-0.6l-2-0.2
			L104.1,121.1z M103.9,121.3h-3.1l-0.2,0.6h3.6L103.9,121.3z M100.9,120.6l-2,0.2l-0.4,0.6l2.1-0.3L100.9,120.6z M97.5,121l1.3-0.3
			l0.3-0.4l-1.3,0.3L97.5,121z M96.6,120.7l1.2-0.3l0.2-0.3l-1.2,0.3L96.6,120.7z M95.3,120.6l1.3-0.5l0.1-0.4l-1.3,0.2L95.3,120.6z
			 M93.8,119.8h1.4v-1h-1.4V119.8z M92.2,117.7v1h1.4v-1H92.2z M90.6,116.5v1H92v-1H90.6z M89.1,115.3v1h1.4v-1H89.1z M88.9,114.2
			h-1.4v1h1.4V114.2z M85.9,114h1.4v-1h-1.4V114z M84.3,111.8v1h1.4v-1H84.3z M82.8,110.6v1h1.4v-1H82.8z M84.2,108h-1.4v1.2h1.4
			V108z M84.3,109.5v1h1.4v-1H84.3z M85.9,110.6v1h1.4v-1H85.9z M88.9,112.8v-1h-1.4v1H88.9z M90.5,114v-1h-1.4v1H90.5z M92,115.1
			v-1h-1.4v1H92z M92.2,115.3v1h1.4v-1H92.2z M93.8,116.5v1h1.4v-1H93.8z M96.8,117.7h-1.4v1h1.4V117.7z M96.9,118.9v0.7l1.3-0.3
			l0.1-0.4L96.9,118.9z M98.3,119.7l1.3-0.2l0.1-0.2l-1.3,0.2L98.3,119.7z M99.5,120l1.7-0.2l0.1-0.3l-1.5,0.1L99.5,120z M101.3,120
			l-0.2,0.4h2.5l-0.2-0.4H101.3z M103.6,119.8l1.6,0.2l-0.2-0.3l-1.5-0.1L103.6,119.8z M105.1,119.5l1.3,0.2l-0.1-0.3l-1.3-0.2
			L105.1,119.5z M107.8,118.9h-1.4l0.1,0.4l1.3,0.3V118.9z M108,117.7v1h1.4v-1H108z M109.6,117.5h1.4v-1h-1.4V117.5z M112.5,115.3
			h-1.4v1h1.4V115.3z M112.7,114.2v1h1.4v-1H112.7z M114.3,113v1h1.4v-1H114.3z M115.9,112.8h1.4v-1h-1.4V112.8z M118.8,111.6v-1
			h-1.4v1H118.8z M119,109.5v1h1.4v-1H119z M122,108h-1.4v1.2h1.4V108z M119,107.8h1.4v-1.2H119V107.8z M118.8,108h-1.4v1.2h1.4V108
			z M115.9,109.5v1h1.4v-1H115.9z M115.7,111.6v-1h-1.4v1H115.7z M112.7,111.8v1h1.4v-1H112.7z M112.5,113h-1.4v1h1.4V113z
			 M110.9,114.2h-1.4v1h1.4V114.2z M109.4,116.3v-1H108v1H109.4z M107.8,116.5h-1.4v1h1.4V116.5z M106.2,117.7h-1.4v0.8l1.4,0.1
			V117.7z M103.3,118.9l1.5,0.1l-0.1-0.3h-1.4V118.9z M103.1,119.1h-1.5l-0.1,0.2h1.6V119.1z M100.1,118.7L100,119l1.5-0.1v-0.3
			L100.1,118.7z M98.5,117.7v0.9l1.4-0.1v-0.8H98.5z M97,116.5v1h1.4v-1H97z M95.4,115.3v1h1.4v-1H95.4z M95.2,114.2h-1.4v1h1.4
			V114.2z M93.6,113h-1.4v1h1.4V113z M92,111.8h-1.4v1H92V111.8z M89.1,110.6v1h1.4v-1H89.1z M87.5,110.4h1.4v-1h-1.4V110.4z
			 M85.9,108v1.2h1.4V108H85.9z M85.7,107.8v-1.2h-1.4v1.2H85.7z M88.9,107.8v-1.2h-1.4v1.2H88.9z M89.1,108v1.2h1.4V108H89.1z
			 M92,109.5h-1.4v1H92V109.5z M92.2,110.6v1h1.4v-1H92.2z M93.8,111.8v1h1.4v-1H93.8z M95.4,113v1h1.4v-1H95.4z M97,114.2v1h1.4v-1
			H97z M98.5,115.3v1h1.4v-1H98.5z M100.1,116.5v1h1.4v-1H100.1z M103.1,117.7h-1.4v0.8h1.4V117.7z M104.6,117.5v-1h-1.4v1H104.6z
			 M104.8,115.3v1h1.4v-1H104.8z M106.4,114.2v1h1.4v-1H106.4z M109.4,114v-1H108v1H109.4z M110.9,112.8v-1h-1.4v1H110.9z
			 M112.5,111.6v-1h-1.4v1H112.5z M112.7,110.4h1.4v-1h-1.4V110.4z M114.3,109.3h1.4V108h-1.4V109.3z M115.9,106.6v1.2h1.4v-1.2
			H115.9z M112.7,106.6v1.2h1.4v-1.2H112.7z M112.5,109.3V108h-1.4v1.2h1.4V109.3z M110.9,109.5h-1.4v1h1.4V109.5z M109.4,110.6H108
			v1h1.4V110.6z M106.4,112.8h1.4v-1h-1.4V112.8z M104.8,114h1.4v-1h-1.4V114z M103.3,115.1h1.4v-1h-1.4V115.1z M101.7,116.3h1.4v-1
			h-1.4V116.3z M100.1,115.1h1.4v-1h-1.4V115.1z M98.5,113v1h1.4v-1H98.5z M98.3,112.8v-1H97v1H98.3z M95.4,110.6v1h1.4v-1H95.4z
			 M93.8,109.5v1h1.4v-1H93.8z M92.2,108v1.2h1.4V108H92.2z M90.6,107.8H92v-1.2h-1.4V107.8z M93.8,106.6v1.2h1.4v-1.2H93.8z
			 M96.8,109.3V108h-1.4v1.2h1.4V109.3z M97,109.5v1h1.4v-1H97z M99.9,111.6v-1h-1.4v1H99.9z M101.5,111.8h-1.4v1h1.4V111.8z
			 M101.7,114h1.4v-1h-1.4V114z M103.3,112.8h1.4v-1h-1.4V112.8z M104.8,110.6v1h1.4v-1H104.8z M106.4,109.5v1h1.4v-1H106.4z
			 M109.4,108H108v1.2h1.4V108z M110.9,107.8v-1.2h-1.4v1.2H110.9z M107.8,106.6h-1.4v1.2h1.4V106.6z M104.8,109.3h1.4V108h-1.4
			V109.3z M104.6,109.5h-1.4v1h1.4V109.5z M101.7,110.6v1h1.4v-1H101.7z M101.5,110.4v-1h-1.4v1H101.5z M99.9,109.3V108h-1.4v1.2
			h1.4V109.3z M97,107.8h1.4v-1.2H97V107.8z M101.5,107.8v-1.2h-1.4v1.2H101.5z M103.1,108h-1.4v1.2h1.4V108z M104.6,106.6h-1.4v1.2
			h1.4V106.6z"/>
	</g>
</g>
</svg>
