<?xml version="1.0" encoding="utf-8"?>
<!-- Generator: Adobe Illustrator 26.0.3, SVG Export Plug-In . SVG Version: 6.00 Build 0)  -->
<svg version="1.1" id="Layer_1" xmlns="http://www.w3.org/2000/svg" xmlns:xlink="http://www.w3.org/1999/xlink" x="0px" y="0px"
	 viewBox="0 0 95 95" enable-background="new 0 0 95 95" xml:space="preserve">
<path fill="#FFFFFF" d="M85.525,71.558c-1.43-2.86-0.14-3.58-0.14-3.58l2.15-0.93c0,0-0.29-1.08-2.01-3.65
	c-1.72-2.58,0.58-3.73,0.58-3.73l2.22-1l-24-44.98l-20.44,13.52c0,0,0.88,1.02,1.32,1.61c1.46,1.94-1.36,3.49-1.36,3.49
	s1.12,1.85,3.87,5.16c2.79,3.36,1,5.01,1,5.01l-10.02,7.74c-2.58,2.58-4.73-0.43-4.73-0.43l-3.15-4.01l-3.72,2.72
	c0,0,0.79,0.88,1.14,1.43c1.22,1.93,0,3.44,0,3.44s-0.83,0.91-4.08,3.58c-2.8,2.29-4.8-1.15-4.8-1.15l-4.72-5.87l-9.32,6.37
	c0,0,11.64,16.83,11.89,16.83c0.93-0.5,16.33-0.14,16.33-0.14s0.05-0.71,0.29-2.15c0.45-2.74,6.01-2,6.01,0.14
	c0,1.15-0.03,2.65,0,2.66c3.08,0.29,9.03,1,12.97,1.64c4.82,0.79,20.67,4.16,23.7,5.02c9.09,2.58,13.18-0.58,13.18-0.58
	S86.965,74.418,85.525,71.558z M77.545,76.638c-3.26-0.92-19.27-4.31-24.13-5.11c0,0-6.22-0.79-9.93-1.26
	c-0.39-2.67-2.75-4.7-6.14-4.97c-3.28-0.27-5.89,1.3-6.87,3.83c-5.92-0.1-9.47-0.09-11.52,0.02c-1.67-2.32-4.96-7.01-8.34-11.87
	c1.46-1,1.86-1.27,3.26-2.23c1.26,1.56,2.52,3.14,2.52,3.14l-0.01-0.06c0.78,1.18,1.87,2.03,2.22,2.27c2.53,1.69,5.5,1.5,7.96-0.51
	l4.48-3.96l-0.02,0.05l0.21-0.28c0.48-0.62,0.81-1.4,1.04-2.26c0.88,0.73,2.13,1.47,3.76,1.6c1.3,0.11,3.23-0.15,5.13-1.92
	l10.01-7.73l0.13-0.12c0.84-0.78,1.77-2.33,1.77-4.37c0-1.68-0.63-3.68-2.44-5.86c0,0-0.94-1.25-1.89-2.51
	c0.24-0.45,0.46-0.94,0.57-1.5c0.07-0.36,0.11-0.71,0.11-1.07c0-0.56-0.11-1.13-0.29-1.67c3.61-2.39,9.91-6.54,13.81-9.12
	c3.05,5.72,17.58,32.96,20.3,38.05c-0.93,0.81-1.7,1.81-1.99,2.98c-0.09,0.4-0.17,0.87-0.17,1.4c0,1.09,0.3,2.44,1.28,3.9
	c0.03,0.05,0.03,0.06,0.06,0.11c-0.66,0.71-1.38,1.85-1.38,3.61c0,1.11,0.29,2.45,1.08,4.04c0,0,1.07,2.09,2.13,4.18
	C82.665,77.578,80.495,77.478,77.545,76.638z"/>
</svg>
