<?xml version="1.0" encoding="utf-8"?>
<!-- Generator: Adobe Illustrator 26.3.1, SVG Export Plug-In . SVG Version: 6.00 Build 0)  -->
<svg version="1.1" xmlns="http://www.w3.org/2000/svg" xmlns:xlink="http://www.w3.org/1999/xlink" x="0px" y="0px"
	 viewBox="0 0 708.661 708.661" enable-background="new 0 0 708.661 708.661" xml:space="preserve">
<g id="Layer_1">
</g>
<g id="GUIDE">
</g>
<g id="A-PENW-SHADE-_VEG">
	<g>
		<path fill="#FFFFFF" d="M180.896,304.361c1.641,0.527,3.36,0.833,5.043,1.241v9.255c3.043,0.004,6.085,0.004,9.13,0.02
			c0-1.142,0-2.276,0-3.422c0-1.63-0.074-3.266,0.049-4.888c0.035-0.454,0.595-1.186,1.009-1.254
			c7.991-1.307,14.053-5.354,18.604-12.083c4.173,7.022,10.378,11.096,18.656,12.266v9.571c3.034-0.001,6.067,0,9.1-0.021v-6.749
			c0-2.711,0.001-2.707,2.689-3.23c0.474-0.092,0.937-0.232,1.405-0.355c13.942-3.665,20.831-17.305,20.649-28.064
			c-0.138-8.145-0.721-16.301-1.544-24.411c-1.6-15.769-5.113-31.158-10.908-46.023c-3.348-8.589-7.327-16.881-12.9-24.379
			c-2.255-3.035-5.758-2.987-7.887,0.143c-1.489,2.188-2.866,4.465-4.089,6.801c-6.747,12.891-11.023,26.58-14.014,40.674
			c-0.346,1.63-0.688,3.261-0.977,4.63c-2.181-5.184-4.165-10.563-6.678-15.703c-3.105-6.352-7.438-11.849-13.777-15.655
			c-2.642-1.585-5.174-1.61-7.835-0.029c-3.348,1.989-6.148,4.523-8.538,7.5c-6.158,7.668-9.519,16.551-12.014,25.793
			c-3.06,11.331-4.264,22.906-4.73,34.568c-0.193,4.829-0.459,9.651,1.107,14.378C165.501,294.16,171.012,301.184,180.896,304.361z"
			/>
	</g>
	<g>
		<path fill="#FFFFFF" d="M529.958,470.954c1.642,0.527,3.361,0.833,5.044,1.242v9.255c3.042,0.004,6.085,0.005,9.13,0.02
			c0-1.142,0-2.276,0-3.422c0-1.63-0.074-3.266,0.05-4.887c0.034-0.455,0.594-1.186,1.008-1.254
			c7.991-1.307,14.054-5.354,18.604-12.083c4.174,7.022,10.378,11.096,18.656,12.266v9.571c3.034,0,6.068,0,9.099-0.021v-6.749
			c0-2.711,0.001-2.707,2.689-3.23c0.473-0.092,0.938-0.232,1.405-0.355c13.942-3.664,20.831-17.304,20.649-28.063
			c-0.138-8.145-0.721-16.301-1.544-24.411c-1.6-15.769-5.113-31.158-10.909-46.023c-3.348-8.59-7.326-16.88-12.899-24.379
			c-2.255-3.035-5.758-2.987-7.888,0.143c-1.488,2.188-2.865,4.465-4.088,6.801c-6.747,12.891-11.023,26.58-14.014,40.674
			c-0.346,1.63-0.688,3.261-0.976,4.63c-2.181-5.184-4.165-10.563-6.678-15.703c-3.106-6.352-7.438-11.849-13.778-15.655
			c-2.642-1.586-5.174-1.61-7.835-0.029c-3.348,1.989-6.148,4.523-8.538,7.5c-6.158,7.668-9.519,16.551-12.015,25.793
			c-3.06,11.331-4.263,22.906-4.73,34.568c-0.193,4.829-0.459,9.651,1.107,14.378C514.563,460.753,520.073,467.777,529.958,470.954z
			"/>
	</g>
	<rect x="197.334" y="397.569" fill="#FFFFFF" width="192.536" height="32.714"/>
	<rect x="64.922" y="315.069" fill="#FFFFFF" width="192.536" height="32.714"/>
	<rect x="330.294" y="480.069" fill="#FFFFFF" width="316.794" height="32.714"/>
</g>
</svg>
