<?xml version="1.0" encoding="UTF-8"?>
<svg xmlns="http://www.w3.org/2000/svg" version="1.1" viewBox="0 0 150 150">
  <!-- Generator: Adobe Illustrator 29.8.2, SVG Export Plug-In . SVG Version: 2.1.1 Build 3)  -->
  <defs>
    <style>
      .st0 {
        fill: #fff;
      }
    </style>
  </defs>
  <g id="Background">
    <rect width="150" height="150"/>
  </g>
  <g id="Circles">
    <path class="st0" d="M52.5,123.8c0-1.4.1-2.7.4-4.1.3-1.4.7-2.8,1.2-4.2,1.1-2.9,2.8-5.5,5-7.6,2.2-2.2,4.8-3.9,7.6-5,1.4-.5,2.8-.9,4.2-1.2,1.4-.2,2.7-.4,4.1-.4s2.7.1,4.1.4c1.4.3,2.8.7,4.2,1.2,2.9,1.1,5.5,2.8,7.6,5,2.2,2.2,3.9,4.8,5,7.6.5,1.4.9,2.8,1.2,4.2.2,1.4.4,2.7.4,4.1s-.1,2.7-.4,4.1c-.3,1.4-.7,2.8-1.2,4.2-1.1,2.9-2.8,5.5-5,7.6-2.2,2.2-4.8,3.9-7.6,5-1.4.5-2.8.9-4.2,1.2-1.4.2-2.7.4-4.1.4s-2.7-.1-4.1-.4c-1.4-.3-2.8-.7-4.2-1.2-2.9-1.1-5.5-2.8-7.6-5-2.2-2.2-3.9-4.8-5-7.6-.5-1.4-.9-2.8-1.2-4.2-.2-1.4-.4-2.7-.4-4.1Z"/>
    <path class="st0" d="M101.2,123.8c0-1.4.1-2.7.4-4.1.3-1.4.7-2.8,1.2-4.2,1.1-2.9,2.8-5.5,5-7.6,2.2-2.2,4.8-3.9,7.6-5,1.4-.5,2.8-.9,4.2-1.2,1.4-.2,2.7-.4,4.1-.4s2.7.1,4.1.4c1.4.3,2.8.7,4.2,1.2,2.9,1.1,5.5,2.8,7.6,5,2.2,2.2,3.9,4.8,5,7.6.5,1.4.9,2.8,1.2,4.2.2,1.4.4,2.7.4,4.1s-.1,2.7-.4,4.1c-.3,1.4-.7,2.8-1.2,4.2-1.1,2.9-2.8,5.5-5,7.6-2.2,2.2-4.8,3.9-7.6,5-1.4.5-2.8.9-4.2,1.2-1.4.2-2.7.4-4.1.4s-2.7-.1-4.1-.4c-1.4-.3-2.8-.7-4.2-1.2-2.9-1.1-5.5-2.8-7.6-5-2.2-2.2-3.9-4.8-5-7.6-.5-1.4-.9-2.8-1.2-4.2-.2-1.4-.4-2.7-.4-4.1Z"/>
    <path class="st0" d="M52.5,75c0-1.4.1-2.7.4-4.1.3-1.4.7-2.8,1.2-4.2,1.1-2.9,2.8-5.5,5-7.6,2.2-2.2,4.8-3.9,7.6-5,1.4-.5,2.8-.9,4.2-1.2,1.4-.2,2.7-.4,4.1-.4s2.7.1,4.1.4c1.4.3,2.8.7,4.2,1.2,2.9,1.1,5.5,2.8,7.6,5,2.2,2.2,3.9,4.8,5,7.6.5,1.4.9,2.8,1.2,4.2.2,1.4.4,2.7.4,4.1s-.1,2.7-.4,4.1c-.3,1.4-.7,2.8-1.2,4.2-1.1,2.9-2.8,5.5-5,7.6-2.2,2.2-4.8,3.9-7.6,5-1.4.5-2.8.9-4.2,1.2-1.4.2-2.7.4-4.1.4s-2.7-.1-4.1-.4c-1.4-.3-2.8-.7-4.2-1.2-2.9-1.1-5.5-2.8-7.6-5-2.2-2.2-3.9-4.8-5-7.6-.5-1.4-.9-2.8-1.2-4.2-.2-1.4-.4-2.7-.4-4.1Z"/>
    <path class="st0" d="M101.2,75c0-1.4.1-2.7.4-4.1.3-1.4.7-2.8,1.2-4.2,1.1-2.9,2.8-5.5,5-7.6,2.2-2.2,4.8-3.9,7.6-5,1.4-.5,2.8-.9,4.2-1.2,1.4-.2,2.7-.4,4.1-.4s2.7.1,4.1.4c1.4.3,2.8.7,4.2,1.2,2.9,1.1,5.5,2.8,7.6,5,2.2,2.2,3.9,4.8,5,7.6.5,1.4.9,2.8,1.2,4.2.2,1.4.4,2.7.4,4.1s-.1,2.7-.4,4.1c-.3,1.4-.7,2.8-1.2,4.2-1.1,2.9-2.8,5.5-5,7.6-2.2,2.2-4.8,3.9-7.6,5-1.4.5-2.8.9-4.2,1.2-1.4.2-2.7.4-4.1.4s-2.7-.1-4.1-.4c-1.4-.3-2.8-.7-4.2-1.2-2.9-1.1-5.5-2.8-7.6-5-2.2-2.2-3.9-4.8-5-7.6-.5-1.4-.9-2.8-1.2-4.2-.2-1.4-.4-2.7-.4-4.1Z"/>
    <path class="st0" d="M52.5,26.3c0-1.4.1-2.7.4-4.1.3-1.4.7-2.8,1.2-4.2,1.1-2.9,2.8-5.5,5-7.6,2.2-2.2,4.8-3.9,7.6-5,1.4-.5,2.8-.9,4.2-1.2,1.4-.2,2.7-.4,4.1-.4s2.7.1,4.1.4c1.4.3,2.8.7,4.2,1.2,2.9,1.1,5.5,2.8,7.6,5,2.2,2.2,3.9,4.8,5,7.6.5,1.4.9,2.8,1.2,4.2.2,1.4.4,2.7.4,4.1s-.1,2.7-.4,4.1c-.3,1.4-.7,2.8-1.2,4.2-1.1,2.9-2.8,5.5-5,7.6-2.2,2.2-4.8,3.9-7.6,5-1.4.5-2.8.9-4.2,1.2-1.4.3-2.7.4-4.1.4s-2.7-.1-4.1-.4c-1.4-.3-2.8-.7-4.2-1.2-2.9-1.1-5.5-2.8-7.6-5-2.2-2.2-3.9-4.8-5-7.6-.5-1.4-.9-2.8-1.2-4.2-.2-1.4-.4-2.7-.4-4.1Z"/>
    <path class="st0" d="M101.2,26.3c0-1.4.1-2.7.4-4.1.3-1.4.7-2.8,1.2-4.2,1.1-2.9,2.8-5.5,5-7.6,2.2-2.2,4.8-3.9,7.6-5,1.4-.5,2.8-.9,4.2-1.2,1.4-.2,2.7-.4,4.1-.4s2.7.1,4.1.4c1.4.3,2.8.7,4.2,1.2,2.9,1.1,5.5,2.8,7.6,5,2.2,2.2,3.9,4.8,5,7.6.5,1.4.9,2.8,1.2,4.2.2,1.4.4,2.7.4,4.1s-.1,2.7-.4,4.1c-.3,1.4-.7,2.8-1.2,4.2-1.1,2.9-2.8,5.5-5,7.6-2.2,2.2-4.8,3.9-7.6,5-1.4.5-2.8.9-4.2,1.2-1.4.3-2.7.4-4.1.4s-2.7-.1-4.1-.4c-1.4-.3-2.8-.7-4.2-1.2-2.9-1.1-5.5-2.8-7.6-5-2.2-2.2-3.9-4.8-5-7.6-.5-1.4-.9-2.8-1.2-4.2-.2-1.4-.4-2.7-.4-4.1Z"/>
    <path class="st0" d="M48.8,123.8c0-1.4-.1-2.7-.4-4.1-.3-1.4-.7-2.8-1.2-4.2-1.1-2.9-2.8-5.5-5-7.6-2.2-2.2-4.8-3.9-7.6-5-1.4-.5-2.8-.9-4.2-1.2-1.4-.2-2.7-.4-4.1-.4s-2.7.1-4.1.4c-1.4.3-2.8.7-4.2,1.2-2.9,1.1-5.5,2.8-7.6,5-2.2,2.2-3.9,4.8-5,7.6-.5,1.4-.9,2.8-1.2,4.2-.2,1.4-.4,2.7-.4,4.1s.1,2.7.4,4.1c.3,1.4.7,2.8,1.2,4.2,1.1,2.9,2.8,5.5,5,7.6,2.2,2.2,4.8,3.9,7.6,5,1.4.5,2.8.9,4.2,1.2,1.4.2,2.7.4,4.1.4s2.7-.1,4.1-.4c1.4-.3,2.8-.7,4.2-1.2,2.9-1.1,5.5-2.8,7.6-5,2.2-2.2,3.9-4.8,5-7.6.5-1.4.9-2.8,1.2-4.2.2-1.4.4-2.7.4-4.1Z"/>
    <path class="st0" d="M48.8,75c0-1.4-.1-2.7-.4-4.1-.3-1.4-.7-2.8-1.2-4.2-1.1-2.9-2.8-5.5-5-7.6-2.2-2.2-4.8-3.9-7.6-5-1.4-.5-2.8-.9-4.2-1.2-1.4-.2-2.7-.4-4.1-.4s-2.7.1-4.1.4c-1.4.3-2.8.7-4.2,1.2-2.9,1.1-5.5,2.8-7.6,5-2.2,2.2-3.9,4.8-5,7.6-.5,1.4-.9,2.8-1.2,4.2-.2,1.4-.4,2.7-.4,4.1s.1,2.7.4,4.1c.3,1.4.7,2.8,1.2,4.2,1.1,2.9,2.8,5.5,5,7.6,2.2,2.2,4.8,3.9,7.6,5,1.4.5,2.8.9,4.2,1.2,1.4.2,2.7.4,4.1.4s2.7-.1,4.1-.4c1.4-.3,2.8-.7,4.2-1.2,2.9-1.1,5.5-2.8,7.6-5,2.2-2.2,3.9-4.8,5-7.6.5-1.4.9-2.8,1.2-4.2.2-1.4.4-2.7.4-4.1Z"/>
    <path class="st0" d="M48.8,26.3c0-1.4-.1-2.7-.4-4.1-.3-1.4-.7-2.8-1.2-4.2-1.1-2.9-2.8-5.5-5-7.6-2.2-2.2-4.8-3.9-7.6-5-1.4-.5-2.8-.9-4.2-1.2-1.4-.2-2.7-.4-4.1-.4s-2.7.1-4.1.4c-1.4.3-2.8.7-4.2,1.2-2.9,1.1-5.5,2.8-7.6,5-2.2,2.2-3.9,4.8-5,7.6-.5,1.4-.9,2.8-1.2,4.2-.2,1.4-.4,2.7-.4,4.1s.1,2.7.4,4.1c.3,1.4.7,2.8,1.2,4.2,1.1,2.9,2.8,5.5,5,7.6,2.2,2.2,4.8,3.9,7.6,5,1.4.5,2.8.9,4.2,1.2,1.4.3,2.7.4,4.1.4s2.7-.1,4.1-.4c1.4-.3,2.8-.7,4.2-1.2,2.9-1.1,5.5-2.8,7.6-5,2.2-2.2,3.9-4.8,5-7.6.5-1.4.9-2.8,1.2-4.2.2-1.4.4-2.7.4-4.1Z"/>
  </g>
  <g id="Indicators">
    <path d="M123.7,120.9h-18.4v5.6h18.4c.7,0,1.5-.3,2-.8s.8-1.2.8-2-.3-1.5-.8-2c-.5-.5-1.2-.8-2-.8Z"/>
    <path d="M29.1,123.8v-18.4h-5.6v18.4c0,.7.3,1.5.8,2s1.2.8,2,.8,1.5-.3,2-.8c.5-.5.8-1.2.8-2Z"/>
    <path d="M23.4,26.3v18.4h5.6v-18.4c0-.7-.3-1.5-.8-2s-1.2-.8-2-.8-1.5.3-2,.8c-.5.5-.8,1.2-.8,2Z"/>
    <path d="M75,29.1c6.1,0,12.3,0,18.4,0v-5.6h-18.4c-.7,0-1.5.3-2,.8s-.8,1.2-.8,2,.3,1.5.8,2c.5.5,1.2.8,2,.8Z"/>
    <path d="M123.7,77.8c.7,0,1.5-.3,2-.8.5-.5.8-1.2.8-2,0-6.1,0-12.3,0-18.4h-5.6v15.6c-5.2,0-10.4,0-15.6,0v5.6c6.1,0,12.3,0,18.4,0Z"/>
    <path d="M72.2,123.8c0,.7.3,1.5.8,2,.5.5,1.2.8,2,.8,6.1,0,12.3,0,18.4,0v-5.6c-5.2,0-10.4,0-15.6,0,0-5.2,0-10.4,0-15.6h-5.6c0,6.1,0,12.3,0,18.4Z"/>
    <path d="M123.7,23.4c.7,0,1.5.3,2,.8.5.5.8,1.2.8,2,0,6.1,0,12.3,0,18.4h-5.6v-15.6h-15.6v-5.6h18.4Z"/>
    <path d="M72.2,75c0-.7.3-1.5.8-2,.5-.5,1.2-.8,2-.8h18.4v5.6h-15.6c0,5.2,0,10.4,0,15.6h-5.6c0-6.1,0-12.3,0-18.4Z"/>
    <rect x="23.4" y="56.6" width="5.6" height="36.8"/>
  </g>
</svg>