<?xml version="1.0" encoding="UTF-8"?>
<svg id="_0" data-name="0" xmlns="http://www.w3.org/2000/svg" viewBox="0 0 150 150">
  <defs>
    <style>
      .cls-1 {
        fill: #fff;
      }

      .cls-1, .cls-2 {
        stroke: #fff;
        stroke-miterlimit: 10;
        stroke-width: .05px;
      }
    </style>
  </defs>
  <rect width="150" height="150"/>
  <g>
    <polygon class="cls-1" points="53.41 76.61 33.56 76.61 33.56 86.65 17.74 86.65 17.74 96.96 53.41 96.96 53.41 76.61"/>
    <polyline class="cls-1" points="53.41 76.61 33.56 76.61 33.56 86.65 17.74 86.65 17.74 96.96 53.41 96.96 53.41 76.61"/>
    <polygon class="cls-1" points="40.23 76.09 40.23 53.04 82.31 53.04 82.31 70.26 53.41 70.26 53.41 76.09 40.23 76.09"/>
    <polyline class="cls-1" points="40.23 76.09 40.23 53.04 82.31 53.04 82.31 70.26 53.41 70.26 53.41 76.09 40.23 76.09"/>
    <rect class="cls-1" x="86.88" y="76.44" width="45.37" height="20.52"/>
    <rect class="cls-1" x="86.88" y="76.44" width="45.37" height="20.52"/>
    <rect class="cls-1" x="53.94" y="70.78" width="32.42" height="26.18"/>
    <path class="cls-2" d="M53.94,70.78h32.42v26.18h-32.42v-26.18M86.31,96.92h-32.33v-26.09h32.33v26.09Z"/>
  </g>
</svg>