<?xml version="1.0" encoding="utf-8"?>
<!-- Generator: Adobe Illustrator 27.5.0, SVG Export Plug-In . SVG Version: 6.00 Build 0)  -->
<svg version="1.1" id="Layer_1" xmlns="http://www.w3.org/2000/svg" xmlns:xlink="http://www.w3.org/1999/xlink" x="0px" y="0px"
	 viewBox="0 0 500 500" style="enable-background:new 0 0 500 500;" xml:space="preserve">
<style type="text/css">
	.st0{fill:#FFFFFF;}
</style>
<g>
	<path class="st0" d="M406.2,134.1c-13.4-15.6-35.8-24.7-66.5-27c-9.9-1.3-18.1-1.6-25.1-1.1c-8,0.6-14.6,2.4-20.2,5.4
		c-6.1,3.3-11,8-15,14.4c-4.2,6.8-7.3,15.3-9.5,26v0.2c-5.1,32.1-2.2,55.9,8.5,70.6c6.8,9.2,16.5,14.8,29,16.7
		c2.3,0.3,22.7,3.2,45.3,3.2c11.3,0,21.3-0.7,29.8-2.2c10.2-1.8,18.1-4.6,23.5-8.4l0.2-0.2c9-7.7,14.1-21.5,15.1-41
		C423.1,167,418.1,147.9,406.2,134.1z M338.4,119.2h0.3c27.4,2,47,9.7,58.1,22.7c9.6,11.2,13.7,27.2,12.1,47.7l0,0.2v0.2
		c-0.8,15.6-4.5,26.7-10.6,32.1c-7.6,5.2-23.8,8.1-45.7,8.1c-13.4,0-28.8-1.1-43.5-3.1c-9.4-1.4-16-5.2-20.9-11.8
		c-8.6-11.8-10.8-32.4-6.2-61.2c5.4-26.6,15.8-36,39.8-36c4.8,0,10.2,0.4,16.3,1.2L338.4,119.2z"/>
	<path class="st0" d="M419.6,340.3c-0.3-12.6-2-25.3-4.8-36.7c-2.8-11.5-6.7-21-11.1-27.4l-0.1-0.2c-5.8-7.5-13.9-12.8-24.7-16.2
		c-10.5-3.4-22.3-4.5-31.3-5.1c-9.6-0.9-17.4-1.1-24.5-0.5c-8.8,0.7-16.2,2.4-22.6,5.4c-3.6,1.6-6.9,3.7-9.8,6
		c-3.1,2.5-5.9,5.5-8.3,8.8c-2.5,3.5-4.7,7.6-6.5,12.1c-1.9,4.7-3.4,10-4.4,15.8v0.1c-0.3,1.9-0.6,4-1,6.1c-0.2,1.4-0.5,2.8-0.7,4.3
		c-2.5,14.9-5.5,33.4-5.3,50.5c0.1,9.2,1.2,17,3.3,23.8c1.1,3.7,2.6,7.2,4.4,10.2c1.8,3.2,4.1,6.1,6.6,8.5c3.1,2.9,6.8,5.6,11.2,7.9
		c4.3,2.3,9.1,4.3,14.4,5.9c10.6,3.3,22.9,5,35.6,5c0.3,0,0.5,0,0.7,0.2v0h0c26.5-0.1,49.7-7.8,62.1-20.5c3.1-3.1,5.8-7.1,8.1-11.8
		c2.2-4.5,4-9.6,5.4-15.4C418.8,366.3,420,353.6,419.6,340.3z M281.9,314.7l0.6-3.5c0.4-2.4,0.8-4.8,1.1-7
		c5-27.4,18.6-38.1,48.3-38.1c4.4,0,9.3,0.2,14.6,0.7l0.2,0h0.1c18.6,1.2,37.1,4.1,46.9,16.4c15,22.1,20.6,91.6,0.2,112.1
		c-10.2,10.5-31.1,17-54.5,17c-22.4,0-41.9-5.8-52.2-15.6C271,381.3,277.6,341.2,281.9,314.7z"/>
	<path class="st0" d="M237.4,268c-17.8-17.2-48.8-23.9-92.1-20c-18.1,1.3-36.6,4.2-49,16.6c-23.9,24.2-22.6,83.8-4.2,110.6l0.2,0.2
		c5.1,6.3,11.8,11.4,20.2,15.3c0.6,0.3,1.2,0.5,1.8,0.8c0.6,0.3,1.2,0.5,1.9,0.8l4.5,1.6c0.7,0.2,1.3,0.4,2,0.6
		c0.1,0,0.3,0.1,0.4,0.1c0.7,0.2,1.4,0.4,2.1,0.6c0.6,0.2,1.2,0.3,1.9,0.5c0.2,0.1,0.5,0.1,0.8,0.2c10.1,2.5,21.8,3.7,35,3.7
		c17,0,32.9-2.2,43.2-4h0.1c32.7-6.7,49.3-33.4,48-77.3C255.4,296.9,249.8,280,237.4,268z M163,387.3c-20.6,0-47.9-3.4-60.9-19.4
		c-7.4-10.9-11.8-29.5-11.5-48.5c0.3-20.3,5.5-37.2,14.4-46.2c7.6-7.7,19.5-11.4,41.1-13.1h0.1l0.2,0c7.7-0.7,15-1,21.8-1
		c28.3,0,48.7,5.9,60.7,17.6c9.8,9.6,14.1,23.4,13,41.1l0,0.1v0.6l0,0.1c0.5,16.2-1.8,29.8-6.6,40.3c-6.2,13.4-16.8,21.7-31.5,24.8
		C195.9,385.1,180.2,387.3,163,387.3z"/>
	<path class="st0" d="M259.6,164.6l-0.3-6.9v-0.1c-1.4-18.2-3.6-37-10.8-51.5c-8-16.2-21-25.2-39.8-27.5c-4-0.8-10.3-1.9-17.9-2.6
		c-8.9-0.8-17.3-0.8-25.1,0c-9.8,1-18.5,3.3-25.6,6.9c-8.6,4.2-15.2,10.3-19.6,17.9c-7.2,12.8-7.9,30.2-8.6,47.1v0.1
		c-2.4,29.5-0.5,70.5,43.8,85.7c6,2.1,12.8,3.7,20.2,4.7c6.7,0.9,13.7,1.4,20.8,1.4c9.2,0,18.1-0.8,25.1-2.2c4.9-1,9.4-2.3,13.4-4.1
		c3.7-1.7,7.1-3.7,9.9-6.1c5.2-4.4,9-10.1,11.4-17.2C261.2,196.9,260.4,180.5,259.6,164.6z M245.2,205.9c-3.6,11-11.5,17-25.7,19.8
		c-6.5,1.3-14.6,2-22.8,2c-13.7,0-26.8-1.9-36.9-5.4c-14-4.9-23.6-12.8-29.3-24.3c-5.9-11.9-7.9-27.9-6.2-48.9l0-0.2v-0.3
		c0.5-14.6,1.2-31.2,7-41.6c9.2-15.9,30.3-19.2,46.4-19.2c12.2,0,23,1.8,28.5,3l0.1,0l0.4,0.1l0.4,0c32.5,3.9,37.3,32.9,40,67.6
		c0.1,2.2,0.2,4.4,0.3,6.7v0.1C248,181.4,248.7,195.3,245.2,205.9z"/>
</g>
</svg>
