<?xml version="1.0" encoding="UTF-8"?>
<svg id="background" xmlns="http://www.w3.org/2000/svg" version="1.1" viewBox="0 0 150 150">
  <!-- Generator: Adobe Illustrator 29.2.1, SVG Export Plug-In . SVG Version: 2.1.0 Build 116)  -->
  <defs>
    <style>
      .st0 {
        fill: #fff;
        stroke: #000;
        stroke-miterlimit: 10;
        stroke-width: 2.36px;
      }
    </style>
  </defs>
  <rect width="150" height="150"/>
  <path class="st0" d="M75.08,123.66h37.48c3.42-7.11,6.84-14.23,10.25-21.34v-12.75c-1.71-3.56-3.42-7.11-5.13-10.67h-42.61c-1.71,3.56-3.42,7.11-5.13,10.67v23.43l5.13,10.67Z"/>
  <path class="st0" d="M34.32,78.89h49.17c1.71-3.56,3.42-7.11,5.13-10.67v-31.21c-1.71-3.56-3.42-7.11-5.13-10.67h-49.17c-1.71,3.56-3.42,7.11-5.13,10.67v31.21c1.71,3.56,3.42,7.11,5.13,10.67Z"/>
  <path class="st0" d="M93.75,78.89h20.68c1.71-3.56,3.42-7.11,5.13-10.67v-31.21c-1.71-3.56-3.42-7.11-5.13-10.67h-20.68c-1.71,3.56-3.42,7.11-5.13,10.67v31.21c1.71,3.56,3.42,7.11,5.13,10.67Z"/>
  <path class="st0" d="M69.95,112.99v-23.43c-1.71-3.56-3.42-7.11-5.13-10.67H30.31c-1.71,3.56-3.42,7.11-5.13,10.67v23.43l5.13,10.67h34.51l5.13-10.67Z"/>
</svg>