<?xml version="1.0" encoding="UTF-8"?>
<svg xmlns="http://www.w3.org/2000/svg" viewBox="0 0 340.16 340.16">
  <defs>
    <style>
      .cls-1 {
        fill: #fff;
      }
    </style>
  </defs>
  <g id="BACKGROUND">
    <rect width="340.16" height="340.16"/>
  </g>
  <g id="ICON">
    <polygon class="cls-1" points="129.32 133.77 126.95 133.84 124.9 134.03 123.18 134.32 121.75 134.69 120.58 135.13 119.63 135.62 118.87 136.15 118.27 136.72 117.8 137.31 117.45 137.91 117.21 138.53 117.06 139.16 117 139.8 117.03 140.43 117.16 141.06 117.39 141.68 117.74 142.29 118.23 142.87 118.87 143.42 117.45 139.89 117.8 139.5 118.27 139.12 118.87 138.75 119.63 138.41 120.58 138.09 121.75 137.8 123.18 137.56 124.9 137.38 126.95 137.25 129.32 137.21 131.99 137.24 134.91 137.36 138.03 137.54 141.28 137.78 144.62 138.06 148.02 138.37 151.46 138.72 154.92 139.08 158.4 139.47 161.88 139.86 165.37 140.27 168.86 140.68 172.35 141.09 175.84 141.5 179.32 141.91 182.8 142.32 186.26 142.71 189.7 143.09 193.12 143.45 193.92 143.53 193.12 143.4 189.7 142.85 186.26 142.27 182.8 141.66 179.32 141.04 175.84 140.4 172.35 139.77 168.86 139.13 165.37 138.49 161.88 137.87 158.4 137.26 154.92 136.67 151.46 136.1 148.02 135.57 144.62 135.08 141.28 134.65 138.03 134.28 134.91 134 131.99 133.82 129.32 133.77"/>
    <polygon class="cls-1" points="240.01 164.58 237.64 164.42 230.69 163.92 223.65 163.37 216.56 162.79 209.42 162.19 202.25 161.56 195.07 160.92 187.88 160.27 180.68 159.62 173.47 158.98 166.27 158.33 159.07 157.7 151.87 157.08 144.7 156.48 137.55 155.9 130.45 155.36 123.42 154.86 116.5 154.42 109.75 154.04 103.24 153.75 97.09 153.56 91.41 153.49 86.32 153.55 81.9 153.73 78.15 154.04 75.04 154.44 72.5 154.91 70.46 155.45 68.83 156.03 67.56 156.65 66.59 157.29 65.89 157.95 65.42 158.63 65.16 159.31 65.12 160 65.3 160.69 65.7 161.36 66.36 162.02 67.32 162.66 68.61 163.27 70.32 163.83 72.5 164.34 73.93 164.58 72.5 164.26 70.32 163.6 68.61 162.86 67.32 162.07 66.36 161.23 65.7 160.37 65.3 159.48 65.12 158.58 65.16 157.68 65.42 156.78 65.89 155.9 66.59 155.03 67.56 154.19 68.83 153.38 70.46 152.62 72.5 151.92 75.04 151.29 78.15 150.77 81.9 150.37 86.32 150.12 91.41 150.05 97.09 150.14 103.24 150.39 109.75 150.77 116.5 151.27 123.42 151.85 130.45 152.5 137.55 153.21 144.7 153.96 151.87 154.75 159.07 155.56 166.27 156.39 173.47 157.24 180.68 158.09 187.88 158.94 195.07 159.79 202.25 160.62 209.42 161.44 216.56 162.24 223.65 163 230.69 163.72 237.64 164.37 240.01 164.58"/>
    <polygon class="cls-1" points="249.35 152.92 250.38 152.67 251.87 152.22 253.05 151.74 253.98 151.22 254.7 150.69 255.22 150.14 255.58 149.58 255.79 149.02 255.84 148.46 255.75 147.9 255.49 147.36 255.06 146.83 254.43 146.32 253.56 145.83 252.42 145.38 250.96 144.98 249.1 144.63 246.81 144.35 244.02 144.15 240.72 144.06 236.93 144.07 232.71 144.19 228.16 144.4 223.35 144.69 218.37 145.04 213.27 145.44 208.09 145.88 202.86 146.35 197.6 146.84 192.31 147.35 187 147.87 181.69 148.4 176.37 148.93 171.04 149.47 165.72 150.01 160.4 150.54 155.08 151.06 149.78 151.56 144.5 152.05 139.26 152.51 134.24 152.92 139.26 152.35 144.5 151.71 149.78 151.04 155.08 150.34 160.4 149.62 165.72 148.88 171.04 148.14 176.37 147.4 181.69 146.65 187 145.92 192.31 145.2 197.6 144.49 202.86 143.81 208.09 143.16 213.27 142.55 218.37 142 223.35 141.52 228.16 141.12 232.71 140.82 236.93 140.66 240.72 140.64 244.02 140.77 246.81 141.04 249.1 141.43 250.96 141.91 252.42 142.47 253.56 143.1 254.43 143.77 255.06 144.48 255.49 145.21 255.75 145.97 255.84 146.74 255.79 147.52 255.58 148.29 255.22 149.07 254.7 149.83 253.98 150.57 253.05 151.28 251.87 151.96 250.38 152.58 249.35 152.92"/>
    <path class="cls-1" d="M14.44,196.86v1.21s.32,1.2.32,1.2l.7,1.19,1.12,1.15,1.59,1.11,2.16,1.04,2.82.96,3.6.85,4.5.7,5.08.5-5.08-.58-4.5-.83-3.6-.99-2.82-1.12-2.16-1.22-1.59-1.3-1.12-1.35-.7-1.39-.29-1.24-.03.1ZM46.91,183.25l-6.83.38-5.79.62-4.8.82-3.92.98-3.15,1.11-2.49,1.21-1.94,1.28-1.47,1.33-1.05,1.37-.69,1.4-.34,1.41v1.42s.03.17.03.17l.31-1.11.69-1.2,1.05-1.17,1.47-1.14,1.94-1.09,2.49-1.03,3.15-.95,3.92-.84,4.8-.7,5.79-.53,6.83-.32,7.83-.09,8.71.13,9.41.34,9.92.52,10.27.66,10.51.77,10.67.86,10.77.93,10.83.99,10.87,1.03,10.89,1.07,10.91,1.09,10.91,1.11,10.91,1.12,10.91,1.12,10.9,1.11,10.89,1.1,10.86,1.08,10.83,1.05,10.78,1.01,10.7.95,10.58.88,10.41.78,7.25.48-7.25-.57-10.41-.92-10.58-1.03-10.7-1.11-10.78-1.18-10.83-1.23-10.86-1.26-10.89-1.29-10.9-1.3-10.91-1.31-10.91-1.31-10.91-1.3-10.91-1.28-10.89-1.25-10.87-1.21-10.83-1.16-10.77-1.09-10.67-1.01-10.51-.91-10.27-.77-9.92-.61-9.41-.4-8.71-.15-7.83.11Z"/>
    <path class="cls-1" d="M325.99,174.98l-1,2.47-1.18,1.61-.79.81-3.32,2.33-5.53,2.15v.16l5.53-1.84,3.32-1.99.79-.7,1.18-1.38,1-2.11.17-.86.02-1.24-.06-.19-.13.78ZM285.55,162.04l-.39.02-18.63,1.48-5.7.59-12.36,1.41-17.33,2.22-13.29,1.82-3.7.52-16.84,2.41-12.07,1.76-4.68.68-16.68,2.42-16.57,2.34-16.43,2.2-16.24,1.97-15.51,1.57,15.51-1.35,16.24-1.68,16.43-1.88,16.57-2,16.68-2.07,4.68-.58,12.07-1.5,16.84-2.06,3.7-.44,13.29-1.56,17.33-1.9,12.36-1.21,5.7-.5,18.63-1.26.39-.02,10.78-.28,4.46.05,2.25.07,7.58.59,6.47,1.2,4.25,1.55,2.69,1.79,1.53,1.95.56,1.86.04-.23.02-1.45-.62-2.4-1.53-2.28-2.69-2.09-4.25-1.81-6.47-1.4-7.58-.69-2.25-.08-4.46-.05-10.78.33Z"/>
  </g>
</svg>