<?xml version="1.0" encoding="UTF-8"?>
<svg id="BACKGROUND" xmlns="http://www.w3.org/2000/svg" xmlns:xlink="http://www.w3.org/1999/xlink" viewBox="0 0 566.93 566.93">
  <defs>
    <style>
      .cls-1 {
        fill: url(#linear-gradient-2);
      }

      .cls-2 {
        fill: #231f20;
      }

      .cls-3 {
        fill: url(#linear-gradient-4);
      }

      .cls-4 {
        fill: url(#linear-gradient-3);
      }

      .cls-5 {
        fill: url(#linear-gradient-5);
      }

      .cls-6 {
        fill: url(#linear-gradient-8);
      }

      .cls-7 {
        fill: url(#linear-gradient-7);
      }

      .cls-8 {
        fill: url(#linear-gradient-6);
      }

      .cls-9 {
        fill: url(#linear-gradient);
      }
    </style>
    <linearGradient id="linear-gradient" x1="64.46" y1="204.64" x2="504.82" y2="204.64" gradientUnits="userSpaceOnUse">
      <stop offset="0" stop-color="#fff" stop-opacity=".2"/>
      <stop offset=".17" stop-color="#fff" stop-opacity=".12"/>
      <stop offset=".34" stop-color="#fff" stop-opacity=".07"/>
      <stop offset=".5" stop-color="#fff" stop-opacity=".05"/>
      <stop offset=".66" stop-color="#fff" stop-opacity=".07"/>
      <stop offset=".84" stop-color="#fff" stop-opacity=".12"/>
      <stop offset="1" stop-color="#fff" stop-opacity=".2"/>
    </linearGradient>
    <linearGradient id="linear-gradient-2" x1="45.03" y1="266.57" x2="45.03" y2="230.53" gradientUnits="userSpaceOnUse">
      <stop offset="0" stop-color="#fff"/>
      <stop offset="0" stop-color="#fff" stop-opacity="1"/>
      <stop offset=".15" stop-color="#fff" stop-opacity=".79"/>
      <stop offset=".29" stop-color="#fff" stop-opacity=".61"/>
      <stop offset=".44" stop-color="#fff" stop-opacity=".46"/>
      <stop offset=".58" stop-color="#fff" stop-opacity=".35"/>
      <stop offset=".72" stop-color="#fff" stop-opacity=".27"/>
      <stop offset=".86" stop-color="#fff" stop-opacity=".22"/>
      <stop offset="1" stop-color="#fff" stop-opacity=".2"/>
    </linearGradient>
    <linearGradient id="linear-gradient-3" x1="77.36" y1="286.31" x2="77.36" y2="231.04" gradientUnits="userSpaceOnUse">
      <stop offset="0" stop-color="#fff"/>
      <stop offset="0" stop-color="#fff" stop-opacity=".98"/>
      <stop offset=".05" stop-color="#fff" stop-opacity=".81"/>
      <stop offset=".1" stop-color="#fff" stop-opacity=".67"/>
      <stop offset=".16" stop-color="#fff" stop-opacity=".54"/>
      <stop offset=".22" stop-color="#fff" stop-opacity=".43"/>
      <stop offset=".29" stop-color="#fff" stop-opacity=".35"/>
      <stop offset=".37" stop-color="#fff" stop-opacity=".28"/>
      <stop offset=".47" stop-color="#fff" stop-opacity=".23"/>
      <stop offset=".61" stop-color="#fff" stop-opacity=".21"/>
      <stop offset="1" stop-color="#fff" stop-opacity=".2"/>
    </linearGradient>
    <linearGradient id="linear-gradient-4" x1="153.77" y1="300.77" x2="153.77" y2="230.39" gradientUnits="userSpaceOnUse">
      <stop offset="0" stop-color="#fff"/>
      <stop offset=".07" stop-color="#fff" stop-opacity=".88"/>
      <stop offset=".19" stop-color="#fff" stop-opacity=".7"/>
      <stop offset=".31" stop-color="#fff" stop-opacity=".55"/>
      <stop offset=".43" stop-color="#fff" stop-opacity=".42"/>
      <stop offset=".56" stop-color="#fff" stop-opacity=".32"/>
      <stop offset=".69" stop-color="#fff" stop-opacity=".25"/>
      <stop offset=".83" stop-color="#fff" stop-opacity=".21"/>
      <stop offset="1" stop-color="#fff" stop-opacity=".2"/>
    </linearGradient>
    <linearGradient id="linear-gradient-5" x1="232.4" y1="322.17" x2="232.4" y2="226.94" gradientUnits="userSpaceOnUse">
      <stop offset="0" stop-color="#fff"/>
      <stop offset=".04" stop-color="#fff" stop-opacity=".9"/>
      <stop offset=".11" stop-color="#fff" stop-opacity=".74"/>
      <stop offset=".19" stop-color="#fff" stop-opacity=".59"/>
      <stop offset=".28" stop-color="#fff" stop-opacity=".47"/>
      <stop offset=".37" stop-color="#fff" stop-opacity=".37"/>
      <stop offset=".47" stop-color="#fff" stop-opacity=".29"/>
      <stop offset=".59" stop-color="#fff" stop-opacity=".24"/>
      <stop offset=".73" stop-color="#fff" stop-opacity=".21"/>
      <stop offset="1" stop-color="#fff" stop-opacity=".2"/>
    </linearGradient>
    <linearGradient id="linear-gradient-6" x1="324" y1="359.03" x2="324" y2="219.06" gradientUnits="userSpaceOnUse">
      <stop offset="0" stop-color="#fff"/>
      <stop offset="0" stop-color="#fff" stop-opacity=".98"/>
      <stop offset=".05" stop-color="#fff" stop-opacity=".82"/>
      <stop offset=".1" stop-color="#fff" stop-opacity=".67"/>
      <stop offset=".16" stop-color="#fff" stop-opacity=".54"/>
      <stop offset=".23" stop-color="#fff" stop-opacity=".44"/>
      <stop offset=".3" stop-color="#fff" stop-opacity=".35"/>
      <stop offset=".38" stop-color="#fff" stop-opacity=".28"/>
      <stop offset=".49" stop-color="#fff" stop-opacity=".23"/>
      <stop offset=".63" stop-color="#fff" stop-opacity=".21"/>
      <stop offset="1" stop-color="#fff" stop-opacity=".2"/>
    </linearGradient>
    <linearGradient id="linear-gradient-7" x1="420.67" y1="323.69" x2="420.67" y2="204.16" gradientUnits="userSpaceOnUse">
      <stop offset="0" stop-color="#fff"/>
      <stop offset=".09" stop-color="#fff" stop-opacity=".82"/>
      <stop offset=".2" stop-color="#fff" stop-opacity=".65"/>
      <stop offset=".3" stop-color="#fff" stop-opacity=".51"/>
      <stop offset=".41" stop-color="#fff" stop-opacity=".4"/>
      <stop offset=".53" stop-color="#fff" stop-opacity=".31"/>
      <stop offset=".66" stop-color="#fff" stop-opacity=".25"/>
      <stop offset=".8" stop-color="#fff" stop-opacity=".21"/>
      <stop offset="1" stop-color="#fff" stop-opacity=".2"/>
    </linearGradient>
    <linearGradient id="linear-gradient-8" x1="508.3" y1="302.39" x2="508.3" y2="183.04" gradientUnits="userSpaceOnUse">
      <stop offset="0" stop-color="#fff"/>
      <stop offset=".03" stop-color="#fff" stop-opacity=".97"/>
      <stop offset=".22" stop-color="#fff" stop-opacity=".74"/>
      <stop offset=".41" stop-color="#fff" stop-opacity=".54"/>
      <stop offset=".59" stop-color="#fff" stop-opacity=".39"/>
      <stop offset=".75" stop-color="#fff" stop-opacity=".29"/>
      <stop offset=".89" stop-color="#fff" stop-opacity=".22"/>
      <stop offset="1" stop-color="#fff" stop-opacity=".2"/>
    </linearGradient>
  </defs>
  <rect class="cls-2" y="0" width="566.93" height="566.93"/>
  <path class="cls-9" d="M64.46,228.26c37.02-.38,73.96-1.51,110.85-3.25,18.44-.97,36.88-1.89,55.29-3.29,18.41-1.31,36.8-2.76,55.16-4.6,36.73-3.52,73.32-8.25,109.68-14.43,4.54-.77,9.07-1.64,13.61-2.46l6.8-1.26,6.78-1.35,6.79-1.34c2.26-.44,4.53-.89,6.77-1.4l13.51-2.98c17.99-4.1,35.85-8.82,53.62-14.04-17.19,6.9-34.83,12.65-52.64,17.85-17.85,5.04-35.91,9.34-54.08,13.12l-13.65,2.71c-2.27.46-4.56.87-6.84,1.25l-6.86,1.19c-9.13,1.65-18.31,2.99-27.47,4.43-18.37,2.62-36.79,4.78-55.24,6.67-18.47,1.7-36.95,3.14-55.46,4.19-18.51.97-37.03,1.73-55.56,1.96-4.63.1-9.26.11-13.89.16-4.63.06-9.26.06-13.89.03-9.26-.05-18.52-.17-27.78-.37-18.51-.52-37.03-1.22-55.48-2.79Z"/>
  <path class="cls-1" d="M28.85,264.81c2.97-2.65,5.8-5.26,8.58-7.94,2.77-2.67,5.49-5.36,8.13-8.13,2.61-2.8,5.26-5.56,7.79-8.47,1.32-1.41,2.56-2.89,3.87-4.34,1.33-1.44,2.55-2.96,3.99-4.36-.68,1.87-1.48,3.7-2.37,5.47-.96,1.73-1.87,3.51-3,5.14-2.13,3.36-4.68,6.43-7.41,9.33-2.75,2.88-5.78,5.49-9.03,7.79-3.27,2.26-6.74,4.3-10.56,5.52Z"/>
  <path class="cls-4" d="M24.46,269.39c3.25,1.45,6.55,2.66,9.87,3.73,3.32,1.07,6.66,2,10.03,2.75,6.72,1.54,13.5,2.44,20.27,2.66,6.77.25,13.51-.29,20.13-1.41,6.61-1.22,13.12-3.07,19.43-5.53l-1.51,1.17c.51-.64,1.14-1.49,1.71-2.27l1.74-2.42,3.42-4.95,6.78-10.07,6.83-10.12c1.14-1.69,2.32-3.37,3.5-5.04,1.15-1.69,2.36-3.35,3.59-5.01-1.33,3.9-2.82,7.73-4.38,11.52-1.6,3.78-3.25,7.53-5.04,11.22-1.76,3.71-3.65,7.35-5.63,10.97-.98,1.81-2.03,3.59-3.09,5.38-.53.89-1.07,1.78-1.65,2.66-.58.9-1.11,1.73-1.82,2.72l-.51.72-1,.45c-6.67,3.02-13.76,5.21-21.02,6.45-7.27,1.2-14.7,1.43-21.99.62-7.29-.79-14.44-2.56-21.16-5.28-3.36-1.36-6.63-2.91-9.73-4.73-3.09-1.83-6.1-3.82-8.76-6.21Z"/>
  <path class="cls-3" d="M102.63,282.77c1.69.73,3.39,1.39,5.1,2.02,1.71.63,3.42,1.23,5.16,1.76,3.42,1.17,6.93,2.04,10.4,2.92,6.98,1.67,14.04,2.75,21.08,3.26,3.52.28,7.05.32,10.57.29,3.52-.08,7.02-.29,10.51-.67,6.97-.78,13.85-2.24,20.57-4.27l-2.54,2.62c1.54-5,3.13-9.99,4.78-14.96,1.64-4.97,3.34-9.93,5.1-14.87.87-2.47,1.81-4.92,2.71-7.39.9-2.46,1.82-4.92,2.79-7.36.96-2.45,1.9-4.9,2.93-7.32.99-2.44,2.03-4.86,3.11-7.27-.39,2.61-.82,5.21-1.3,7.8-.45,2.6-.98,5.17-1.49,7.74-.5,2.58-1.05,5.15-1.62,7.71-.57,2.56-1.1,5.13-1.71,7.68-1.19,5.11-2.43,10.2-3.74,15.27-1.3,5.07-2.65,10.13-4.06,15.17l-.54,1.94-2,.67c-7.18,2.42-14.65,3.99-22.2,4.69-7.55.63-15.17.42-22.61-.7-3.72-.58-7.41-1.33-11.02-2.32-3.62-.95-7.16-2.22-10.63-3.57-6.9-2.79-13.56-6.23-19.34-10.84Z"/>
  <path class="cls-5" d="M185.25,304.04c1.79.71,3.58,1.38,5.39,1.99,1.8.63,3.61,1.23,5.44,1.77,3.64,1.11,7.29,2.12,10.98,2.94,3.67.88,7.37,1.6,11.08,2.15,3.71.58,7.42,1.02,11.13,1.31,7.43.54,14.86.54,22.19-.28.92-.07,1.83-.2,2.74-.32.91-.13,1.83-.23,2.73-.38,1.81-.33,3.63-.61,5.42-1.02,3.61-.69,7.12-1.77,10.63-2.82l-2.74,3.59c.38-7.17.81-14.33,1.33-21.49.49-7.16,1.1-14.32,1.75-21.47.66-7.15,1.45-14.3,2.27-21.45.89-7.14,1.78-14.28,3-21.41.49,7.21.65,14.41.82,21.6.09,7.19.16,14.38.09,21.57-.08,7.18-.2,14.36-.43,21.54-.21,7.18-.51,14.35-.85,21.52l-.13,2.74-2.61.85c-7.57,2.46-15.43,4.04-23.34,4.6-7.91.56-15.85.19-23.61-1.02-7.77-1.19-15.34-3.28-22.64-5.96-7.24-2.82-14.31-6.11-20.65-10.53Z"/>
  <path class="cls-8" d="M272.55,342.54c7.89,3.36,16.08,5.71,24.35,7.32,4.15.76,8.29,1.42,12.47,1.77,4.17.35,8.34.48,12.5.43,4.16-.1,8.29-.41,12.39-.95,4.1-.55,8.15-1.37,12.14-2.38,7.97-2.08,15.66-5.13,22.94-8.96l-2.09,4.02c-1.38-10.3-2.72-20.61-3.94-30.93-1.25-10.32-2.37-20.66-3.43-31-1.08-10.34-1.96-20.71-2.81-31.08-.79-10.38-1.55-20.76-1.93-31.19,2.3,10.18,4.2,20.42,6.09,30.65,1.82,10.25,3.62,20.49,5.21,30.77,1.61,10.27,3.16,20.55,4.58,30.85,1.45,10.29,2.79,20.6,4.08,30.92l.35,2.77-2.44,1.25c-7.89,4.04-16.28,7.12-24.93,9.04-4.34.91-8.71,1.58-13.11,1.95-4.4.3-8.81.43-13.2.19-4.39-.23-8.75-.75-13.05-1.53-4.3-.78-8.55-1.76-12.69-3.08-4.14-1.31-8.22-2.79-12.15-4.6-3.93-1.79-7.77-3.78-11.33-6.19Z"/>
  <path class="cls-7" d="M379.14,315.73c1.65.42,3.3.74,4.97.99,1.66.26,3.32.47,4.99.61,3.33.27,6.66.45,9.98.35,3.31-.08,6.61-.24,9.89-.64,3.27-.41,6.52-.92,9.74-1.57,6.43-1.33,12.73-3.19,18.85-5.53,1.54-.56,3.05-1.19,4.56-1.83,1.52-.6,3-1.32,4.5-1.98,1.49-.67,2.95-1.44,4.43-2.14l4.37-2.27-1.85,4.87c-3.05-8.26-5.83-16.54-8.49-24.89-2.65-8.35-5.12-16.76-7.36-25.24-1.13-4.24-2.17-8.5-3.17-12.77-.96-4.28-1.86-8.58-2.71-12.89-1.56-8.64-2.96-17.36-3.16-26.15,2.06,8.52,4.5,16.86,7.12,25.16,1.28,4.15,2.62,8.29,4,12.41l4.12,12.37,8.47,24.67c2.85,8.21,5.74,16.43,8.65,24.58l1.19,3.33-3.04,1.55-4.64,2.36c-1.58.72-3.15,1.48-4.75,2.15-3.2,1.37-6.44,2.64-9.76,3.7-6.61,2.21-13.46,3.7-20.37,4.53-6.92.77-13.92.79-20.78-.06-3.43-.46-6.83-1.06-10.14-2.01-3.31-.92-6.57-2.05-9.58-3.66Z"/>
  <path class="cls-6" d="M468.4,296.65c6.36.67,12.69.48,18.93-.1,3.12-.34,6.23-.67,9.3-1.21,3.08-.54,6.13-1.17,9.16-1.86,6.05-1.45,12.01-3.22,17.83-5.37,5.83-2.12,11.54-4.57,17.13-7.29l-1.63,5.71c-4.98-7.81-9.18-15.99-12.85-24.34-3.7-8.35-6.89-16.87-9.74-25.48-2.87-8.61-5.29-17.34-7.47-26.13-2.1-8.8-4.02-17.65-5.25-26.62,3.09,8.5,6.08,16.99,9.23,25.4,1.53,4.22,3.13,8.41,4.76,12.59,1.61,4.18,3.23,8.35,4.91,12.49,3.34,8.29,6.85,16.49,10.62,24.52.95,2,1.91,4,2.91,5.98.97,1.99,1.99,3.95,3.02,5.9,2.09,3.88,4.24,7.72,6.56,11.42l2.39,3.81-4.02,1.89c-5.9,2.78-11.99,5.15-18.23,7.08-3.11.98-6.28,1.78-9.45,2.53-3.19.68-6.4,1.3-9.63,1.74-3.23.44-6.48.74-9.73.88-3.25.13-6.5.19-9.75-.03-3.24-.21-6.47-.49-9.65-1.08-3.18-.56-6.34-1.29-9.34-2.44Z"/>
</svg>