<?xml version="1.0" encoding="UTF-8"?>
<svg xmlns="http://www.w3.org/2000/svg" version="1.1" viewBox="0 0 150 150">
  <!-- Generator: Adobe Illustrator 29.7.1, SVG Export Plug-In . SVG Version: 2.1.1 Build 8)  -->
  <defs>
    <style>
      .st0 {
        fill: #fff;
      }
    </style>
  </defs>
  <g id="background">
    <rect width="150" height="150"/>
  </g>
  <g id="ICON">
    <g>
      <g>
        <rect class="st0" x="14.1" y="46.4" width="5.7" height="5.7" transform="translate(66.2 32.2) rotate(90)"/>
        <rect class="st0" x="14.1" y="59.3" width="5.7" height="5.7" transform="translate(79.1 45.1) rotate(90)"/>
        <rect class="st0" x="14.1" y="72.1" width="5.7" height="5.7" transform="translate(92 58) rotate(90)"/>
        <rect class="st0" x="14.1" y="85" width="5.7" height="5.7" transform="translate(104.9 70.9) rotate(90)"/>
        <rect class="st0" x="14.1" y="97.9" width="5.7" height="5.7" transform="translate(117.8 83.8) rotate(90)"/>
      </g>
      <g>
        <rect class="st0" x="27" y="46.4" width="5.7" height="5.7" transform="translate(79.1 19.3) rotate(90)"/>
        <rect class="st0" x="27" y="59.3" width="5.7" height="5.7" transform="translate(92 32.2) rotate(90)"/>
        <rect class="st0" x="27" y="72.1" width="5.7" height="5.7" transform="translate(104.9 45.1) rotate(90)"/>
        <rect class="st0" x="27" y="85" width="5.7" height="5.7" transform="translate(117.8 58) rotate(90)"/>
        <rect class="st0" x="27" y="97.9" width="5.7" height="5.7" transform="translate(130.7 70.9) rotate(90)"/>
      </g>
      <g>
        <rect class="st0" x="39.9" y="46.4" width="5.7" height="5.7" transform="translate(92 6.4) rotate(90)"/>
        <rect class="st0" x="39.9" y="59.3" width="5.7" height="5.7" transform="translate(104.9 19.3) rotate(90)"/>
        <rect class="st0" x="39.9" y="72.1" width="5.7" height="5.7" transform="translate(117.8 32.2) rotate(90)"/>
        <rect class="st0" x="39.9" y="85" width="5.7" height="5.7" transform="translate(130.7 45.1) rotate(90)"/>
        <rect class="st0" x="39.9" y="97.9" width="5.7" height="5.7" transform="translate(143.6 58) rotate(90)"/>
      </g>
      <g>
        <rect class="st0" x="52.8" y="46.4" width="5.7" height="5.7" transform="translate(104.9 -6.4) rotate(90)"/>
        <rect class="st0" x="52.8" y="59.3" width="5.7" height="5.7" transform="translate(117.8 6.4) rotate(90)"/>
        <rect class="st0" x="52.8" y="72.1" width="5.7" height="5.7" transform="translate(130.7 19.3) rotate(90)"/>
        <rect class="st0" x="52.8" y="85" width="5.7" height="5.7" transform="translate(143.6 32.2) rotate(90)"/>
        <rect class="st0" x="52.8" y="97.9" width="5.7" height="5.7" transform="translate(156.4 45.1) rotate(90)"/>
      </g>
      <g>
        <rect class="st0" x="65.7" y="46.4" width="5.7" height="5.7" transform="translate(117.8 -19.3) rotate(90)"/>
        <rect class="st0" x="65.7" y="59.3" width="5.7" height="5.7" transform="translate(130.7 -6.4) rotate(90)"/>
        <rect class="st0" x="65.7" y="72.1" width="5.7" height="5.7" transform="translate(143.6 6.4) rotate(90)"/>
        <rect class="st0" x="65.7" y="85" width="5.7" height="5.7" transform="translate(156.4 19.3) rotate(90)"/>
        <rect class="st0" x="65.7" y="97.9" width="5.7" height="5.7" transform="translate(169.3 32.2) rotate(90)"/>
      </g>
      <g>
        <rect class="st0" x="78.6" y="46.4" width="5.7" height="5.7" transform="translate(130.7 -32.2) rotate(90)"/>
        <rect class="st0" x="78.6" y="59.3" width="5.7" height="5.7" transform="translate(143.6 -19.3) rotate(90)"/>
        <rect class="st0" x="78.6" y="72.1" width="5.7" height="5.7" transform="translate(156.4 -6.4) rotate(90)"/>
        <rect class="st0" x="78.6" y="85" width="5.7" height="5.7" transform="translate(169.3 6.4) rotate(90)"/>
        <rect class="st0" x="78.6" y="97.9" width="5.7" height="5.7" transform="translate(182.2 19.3) rotate(90)"/>
      </g>
      <g>
        <rect class="st0" x="91.5" y="46.4" width="5.7" height="5.7" transform="translate(143.6 -45.1) rotate(90)"/>
        <rect class="st0" x="91.5" y="59.3" width="5.7" height="5.7" transform="translate(156.4 -32.2) rotate(90)"/>
        <rect class="st0" x="91.5" y="72.1" width="5.7" height="5.7" transform="translate(169.3 -19.3) rotate(90)"/>
        <rect class="st0" x="91.5" y="85" width="5.7" height="5.7" transform="translate(182.2 -6.4) rotate(90)"/>
        <rect class="st0" x="91.5" y="97.9" width="5.7" height="5.7" transform="translate(195.1 6.4) rotate(90)"/>
      </g>
      <g>
        <rect class="st0" x="104.4" y="46.4" width="5.7" height="5.7" transform="translate(156.4 -58) rotate(90)"/>
        <rect class="st0" x="104.4" y="59.3" width="5.7" height="5.7" transform="translate(169.3 -45.1) rotate(90)"/>
        <rect class="st0" x="104.4" y="72.1" width="5.7" height="5.7" transform="translate(182.2 -32.2) rotate(90)"/>
        <rect class="st0" x="104.4" y="85" width="5.7" height="5.7" transform="translate(195.1 -19.3) rotate(90)"/>
        <rect class="st0" x="104.4" y="97.9" width="5.7" height="5.7" transform="translate(208 -6.4) rotate(90)"/>
      </g>
      <g>
        <rect class="st0" x="117.3" y="46.4" width="5.7" height="5.7" transform="translate(169.3 -70.9) rotate(90)"/>
        <rect class="st0" x="117.3" y="59.3" width="5.7" height="5.7" transform="translate(182.2 -58) rotate(90)"/>
        <rect class="st0" x="117.3" y="72.1" width="5.7" height="5.7" transform="translate(195.1 -45.1) rotate(90)"/>
        <rect class="st0" x="117.3" y="85" width="5.7" height="5.7" transform="translate(208 -32.2) rotate(90)"/>
        <rect class="st0" x="117.3" y="97.9" width="5.7" height="5.7" transform="translate(220.9 -19.3) rotate(90)"/>
      </g>
      <g>
        <rect class="st0" x="130.1" y="46.4" width="5.7" height="5.7" transform="translate(182.2 -83.8) rotate(90)"/>
        <rect class="st0" x="130.1" y="59.3" width="5.7" height="5.7" transform="translate(195.1 -70.9) rotate(90)"/>
        <rect class="st0" x="130.1" y="72.1" width="5.7" height="5.7" transform="translate(208 -58) rotate(90)"/>
        <rect class="st0" x="130.1" y="85" width="5.7" height="5.7" transform="translate(220.9 -45.1) rotate(90)"/>
        <rect class="st0" x="130.1" y="97.9" width="5.7" height="5.7" transform="translate(233.8 -32.2) rotate(90)"/>
      </g>
    </g>
  </g>
</svg>