<?xml version="1.0" encoding="utf-8"?>
<!-- Generator: Adobe Illustrator 26.0.3, SVG Export Plug-In . SVG Version: 6.00 Build 0)  -->
<svg version="1.1" id="Layer_1" xmlns="http://www.w3.org/2000/svg" xmlns:xlink="http://www.w3.org/1999/xlink" x="0px" y="0px"
	 viewBox="0 0 38 38" enable-background="new 0 0 38 38" xml:space="preserve">
<rect x="2.2" y="21.5" fill="#FFFFFF" width="12.3" height="0.6"/>
<rect x="2.2" y="20.3" fill="#FFFFFF" width="11.2" height="0.6"/>
<rect x="2.2" y="19.1" fill="#FFFFFF" width="10.5" height="0.6"/>
<rect x="2.2" y="17.9" fill="#FFFFFF" width="10" height="0.6"/>
<rect x="2.2" y="16.7" fill="#FFFFFF" width="9.6" height="0.6"/>
<rect x="23.8" y="13.1" fill="#FFFFFF" width="12" height="0.6"/>
<rect x="23.6" y="14.3" fill="#FFFFFF" width="12.2" height="0.6"/>
<rect x="23.4" y="15.5" fill="#FFFFFF" width="12.4" height="0.6"/>
<rect x="23" y="16.7" fill="#FFFFFF" width="12.8" height="0.6"/>
<rect x="22.6" y="17.9" fill="#FFFFFF" width="13.2" height="0.6"/>
<rect x="22.1" y="19.1" fill="#FFFFFF" width="13.7" height="0.6"/>
<rect x="21.5" y="20.3" fill="#FFFFFF" width="14.3" height="0.6"/>
<rect x="20.5" y="21.5" fill="#FFFFFF" width="15.3" height="0.6"/>
<rect x="2.2" y="22.7" fill="#FFFFFF" width="33.6" height="0.6"/>
<rect x="2.2" y="23.9" fill="#FFFFFF" width="33.6" height="0.6"/>
<rect x="2.2" y="25.1" fill="#FFFFFF" width="33.6" height="0.6"/>
<rect x="2.2" y="26.3" fill="#FFFFFF" width="33.6" height="0.6"/>
</svg>
