<?xml version="1.0" encoding="utf-8"?>
<!-- Generator: Adobe Illustrator 26.0.3, SVG Export Plug-In . SVG Version: 6.00 Build 0)  -->
<svg version="1.1" id="Layer_1" xmlns="http://www.w3.org/2000/svg" xmlns:xlink="http://www.w3.org/1999/xlink" x="0px" y="0px"
	 viewBox="0 0 95 95" enable-background="new 0 0 95 95" xml:space="preserve">
<g id="Layer_1_00000034793865903949860050000016570636659396930183_">
</g>
<g>
	<path fill="#FFFFFF" d="M45.31,46.32c4.63,2.03,9.35,4.11,14.7,5.3c-2.61,0.33-5.16,0.97-8.56,2.23c-2.6,0.96-6.71,1.47-10.16,1.47
		c-1.7,0-3.69-0.14-5.23-0.37c-2.72-0.41-5.09-0.69-7.83-0.69H2.47V40.75h24.11C33.38,41.09,39.19,43.64,45.31,46.32z"/>
	<path fill="#FFFFFF" d="M92.53,43.73v7.55H66.89c-8.11-0.46-14.68-3.35-21.06-6.15c-4.2-1.84-8.28-3.62-12.64-4.7
		c0.95-0.1,1.91-0.24,2.91-0.39c1.54-0.24,3.48-0.36,5.19-0.36c3.45,0,7.16,0.55,9.81,1.36c4.89,1.5,7.35,2.69,14.66,2.69H92.53z"/>
</g>
</svg>
