<?xml version="1.0" encoding="utf-8"?>
<!-- Generator: Adobe Illustrator 26.0.3, SVG Export Plug-In . SVG Version: 6.00 Build 0)  -->
<svg version="1.1" id="Layer_1" xmlns="http://www.w3.org/2000/svg" xmlns:xlink="http://www.w3.org/1999/xlink" x="0px" y="0px"
	 viewBox="0 0 250 250" style="enable-background:new 0 0 250 250;" xml:space="preserve">
<style type="text/css">
	.st0{fill:#FFFFFF;}
</style>
<g>
	<path class="st0" d="M114.3,119.9H89.1c-1.3,0-2.4,1.1-2.4,2.4l-0.1,29.3h29.9v-29.3C116.5,121,115.6,119.9,114.3,119.9z"/>
	<path class="st0" d="M80.6,121.6L49.4,147H7.1l55-27c0.3-0.2,0.7-0.2,1-0.2H80L80.6,121.6z"/>
	<path class="st0" d="M179.2,118.7l60.9,22c1,0.3,1.6,1.2,1.6,2.2v8.7h-50.4c-6.7,0-13.2-2.4-18.4-6.8l-31.3-26.2H44.4
		c-1,0-1.9-0.9-1.9-1.9v-16c0-1.5,1.1-2.4,2.4-2.4h194.4c0.9-0.1,1.8,0.3,2.5,0.9s1.1,1.5,1.1,2.4l-0.1,12.1c0,2.5-1.4,4.8-3.6,4.8
		h-60V118.7z"/>
</g>
</svg>
