<?xml version="1.0" encoding="utf-8"?>
<!-- Generator: Adobe Illustrator 26.0.3, SVG Export Plug-In . SVG Version: 6.00 Build 0)  -->
<svg version="1.1" id="Layer_1" xmlns="http://www.w3.org/2000/svg" xmlns:xlink="http://www.w3.org/1999/xlink" x="0px" y="0px"
	 viewBox="0 0 38 38" enable-background="new 0 0 38 38" xml:space="preserve">
<polygon fill="#FFFFFF" points="28.5,14.5 28.5,17.2 28.16,17.2 10.7,17.2 9.4,17.2 9.4,14.5 "/>
<path fill="#FFFFFF" d="M34.7,21.5v3.1H4v-3.1c0,0,0.6-0.1,0.8-0.5c1.56-2.93,4.63-3.51,5.74-3.51c0.11,0,0.19,0,0.26,0.01
	c4.5-0.1,6.3,4.1,6.3,4.1h4.5c0,0,1.8-4.2,6.3-4.1c0.07-0.01,0.15-0.01,0.26-0.01c1.11,0,4.18,0.58,5.74,3.51
	C34.1,21.4,34.7,21.5,34.7,21.5z"/>
</svg>
