<?xml version="1.0" encoding="utf-8"?>
<!-- Generator: Adobe Illustrator 26.0.3, SVG Export Plug-In . SVG Version: 6.00 Build 0)  -->
<svg version="1.1" id="Layer_1" xmlns="http://www.w3.org/2000/svg" xmlns:xlink="http://www.w3.org/1999/xlink" x="0px" y="0px"
	 viewBox="0 0 38 38" enable-background="new 0 0 38 38" xml:space="preserve">
<path fill="#FFFFFF" d="M16.14,5.82h0.05c0.13,0.08,0.25,0.17,0.38,0.24c0.89,0.51,1.78,1.02,2.67,1.53
	c0.07,0.03,0.12,0.07,0.21,0.12C19,7.75,18.58,7.78,18.16,7.84c-1.13,0.17-2.14,0.62-3.05,1.31c-0.41,0.29-0.4,0.29-0.86-0.01
	C14.88,8.03,15.52,6.93,16.14,5.82z"/>
<path fill="#FFFFFF" d="M34.03,14.42c0.27,2.45,0.55,4.88,0.82,7.36c-4.21-0.26-8.38-0.5-12.61-0.76c0.1-0.07,0.15-0.11,0.2-0.13
	c2.03-1.08,3.26-2.75,3.69-5.02c0.11-0.56,0.1-0.57,0.65-0.64c2.37-0.27,4.74-0.54,7.1-0.81C33.92,14.41,33.96,14.42,34.03,14.42z"
	/>
<path fill="#FFFFFF" d="M15.67,14.45c-0.04,2.26,1.92,3.88,3.6,3.87c0.01,0,0.03,0,0.04,0c0.28-0.01,0.53-0.04,0.75-0.09
	c0.23-0.06,0.43-0.15,0.59-0.27c0.09-0.06,0.16-0.13,0.23-0.21c0.2-0.23,0.34-0.53,0.41-0.9c0.23-1.14,0.47-2.29,0.7-3.44
	c0.15-0.76-0.1-1.38-0.77-1.78c-1.21-0.73-2.46-0.78-3.69-0.1C16.31,12.2,15.72,13.29,15.67,14.45z M13.15,15.43
	c-0.42-3.42,2.1-6.56,5.53-6.89c1.4-0.12,2.68,0.18,3.87,0.91c0.05,0.03,0.11,0.06,0.21,0.12c0.13-0.64,0.25-1.23,0.38-1.85
	c1.25,0.24,2.48,0.49,3.73,0.73c-0.24,1.17-0.47,2.32-0.7,3.46c-0.29,1.35-0.57,2.69-0.84,4.04c-0.47,2.38-2.41,4.32-4.81,4.79
	C16.97,21.45,13.6,19.03,13.15,15.43z"/>
<path fill="#FFFFFF" d="M24.97,31.49c0.01,0.02,0.01,0.05,0.04,0.1c-1.37,0.64-2.71,1.26-4.09,1.89c-2.05-4.49-4.1-8.97-6.14-13.44
	c0.74,0.55,1.52,0.99,2.39,1.27c1,0.32,2.01,0.41,3.05,0.26c0.16-0.02,0.23,0.03,0.3,0.17C21.99,24.99,23.48,28.24,24.97,31.49z"/>
<path fill="#FFFFFF" d="M12.48,13.35c-0.25,1.25-0.16,2.47,0.27,3.67c0.04,0.13,0.08,0.23-0.05,0.35c-2.31,2.11-6.91,6.37-6.97,6.43
	c-0.72-0.79-1.65-1.84-2.38-2.62c-0.06-0.06-0.2-0.22-0.2-0.22c2.63-2.42,5.25-4.83,7.88-7.25c0.58-0.53,1.17-1.07,1.79-1.64
	C12.69,12.53,12.56,12.94,12.48,13.35z"/>
<path fill="#FFFFFF" d="M20.65,17.96c0.08-0.06,0.16-0.13,0.23-0.21C20.81,17.83,20.74,17.9,20.65,17.96z"/>
<path fill="#FFFFFF" d="M20.06,18.23c0.23-0.06,0.43-0.15,0.59-0.27C20.49,18.08,20.29,18.17,20.06,18.23z"/>
<path fill="#FFFFFF" d="M19.31,18.32c0.28-0.01,0.53-0.04,0.75-0.09C19.84,18.28,19.59,18.31,19.31,18.32z"/>
</svg>
