<?xml version="1.0" encoding="utf-8"?>
<!-- Generator: Adobe Illustrator 26.0.3, SVG Export Plug-In . SVG Version: 6.00 Build 0)  -->
<svg version="1.1" xmlns="http://www.w3.org/2000/svg" xmlns:xlink="http://www.w3.org/1999/xlink" x="0px" y="0px"
	 viewBox="0 0 150 150" enable-background="new 0 0 150 150" xml:space="preserve">
<g id="Layer_1">
</g>
<g id="symbol">
	<path fill="#FFFFFF" d="M117.695,88.501L99.75,77.853l-1.664-13.018l15.09-6.789l-6.897-15.356l8.379-15.356l-16.795-9.199
		l-8.347,15.243l-13.456,0.04L64.043,11.827L40.945,24.662L52.66,45.806l-10.044,4.561l5.522,12.166l10.084-4.599l6.491,15.134
		l-6.711,16.99l-14.015-5.788l-6.601,16.099l14.239,5.864l-4.636,27.261l29.178,4.934l4.637-27.375l9.339-2.301l0.968,14.431
		l16.905-1.113l-1.075-15.468L117.695,88.501z M102.534,42.54l-11.2,5.045l-0.038-11.202L102.534,42.54z M89.514,50.441l5.75,12.799
		l-12.051,1.521l-6.119-14.32H89.514z M81.58,67.579l1.409,11.052l-14.161-5.6L81.58,67.579z M59.373,55.003l-3.743-8.232
		L74.278,36.42l0.038,12.204L59.373,55.003z M54.403,104.714l4.821-11.762l16.869,6.677l2.262,9.123L54.403,104.714z M78.872,97.214
		l6.27-15.833l11.458-1.451l-8.937,15.1L78.872,97.214z M92.039,106.154l-1.967-7.827l12.127,7.162L92.039,106.154z"/>
</g>
</svg>
