<?xml version="1.0" encoding="UTF-8"?>
<svg xmlns="http://www.w3.org/2000/svg" version="1.1" viewBox="0 0 42.52 42.52">
  <defs>
    <style>
      .cls-1 {
        fill: #fff;
      }
    </style>
  </defs>
  <!-- Generator: Adobe Illustrator 28.7.2, SVG Export Plug-In . SVG Version: 1.2.0 Build 154)  -->
  <g>
    <g id="Layer_1">
      <rect width="42.52" height="42.52"/>
      <g>
        <rect class="cls-1" x="35.72" y="3.82" width="1.25" height="1.44"/>
        <rect class="cls-1" x="5.59" y="14.3" width="2.88" height="1.44"/>
        <rect class="cls-1" x="5.59" y="35.26" width="3.6" height="1.44"/>
        <rect class="cls-1" x="5.59" y="33.52" width="5" height="1.44"/>
        <rect class="cls-1" x="5.59" y="31.77" width="6.34" height="1.44"/>
        <rect class="cls-1" x="5.59" y="30.02" width="7.91" height="1.44"/>
        <rect class="cls-1" x="5.59" y="28.28" width="9.26" height="1.44"/>
        <rect class="cls-1" x="5.59" y="26.53" width="10.7" height="1.44"/>
        <rect class="cls-1" x="5.59" y="24.79" width="12.12" height="1.44"/>
        <rect class="cls-1" x="5.59" y="23.04" width="13.5" height="1.44"/>
        <rect class="cls-1" x="5.59" y="16.05" width="5.89" height="1.44"/>
        <rect class="cls-1" x="5.59" y="17.8" width="8.52" height="1.44"/>
        <rect class="cls-1" x="5.59" y="19.54" width="11.31" height="1.44"/>
        <rect class="cls-1" x="5.59" y="21.29" width="15.24" height="1.44"/>
        <rect class="cls-1" x="34.25" y="5.57" width="2.72" height="1.44"/>
        <rect class="cls-1" x="32.78" y="7.32" width="4.19" height="1.44"/>
        <rect class="cls-1" x="31.31" y="9.06" width="5.66" height="1.44"/>
        <rect class="cls-1" x="29.84" y="10.81" width="7.14" height="1.44"/>
        <rect class="cls-1" x="28.35" y="12.56" width="8.62" height="1.44"/>
        <rect class="cls-1" x="26.91" y="14.3" width="10.06" height="1.44"/>
        <rect class="cls-1" x="25.62" y="16.05" width="11.35" height="1.44"/>
        <rect class="cls-1" x="24.21" y="17.8" width="12.76" height="1.44"/>
        <rect class="cls-1" x="22.81" y="19.54" width="14.16" height="1.44"/>
        <rect class="cls-1" x="21.41" y="21.29" width="15.57" height="1.44"/>
        <rect class="cls-1" x="19.7" y="23.04" width="17.27" height="1.44"/>
        <rect class="cls-1" x="18.32" y="24.79" width="18.65" height="1.44"/>
        <rect class="cls-1" x="16.89" y="26.53" width="20.08" height="1.44"/>
        <rect class="cls-1" x="15.46" y="28.28" width="21.52" height="1.44"/>
        <rect class="cls-1" x="14.11" y="30.02" width="22.86" height="1.44"/>
        <rect class="cls-1" x="12.54" y="31.77" width="24.43" height="1.44"/>
        <rect class="cls-1" x="11.19" y="33.52" width="25.78" height="1.44"/>
        <rect class="cls-1" x="9.8" y="35.26" width="27.18" height="1.44"/>
        <rect class="cls-1" x="5.59" y="37.01" width="31.39" height="1.44"/>
      </g>
    </g>
  </g>
</svg>