<?xml version="1.0" encoding="utf-8"?>
<!-- Generator: Adobe Illustrator 28.0.0, SVG Export Plug-In . SVG Version: 6.00 Build 0)  -->
<svg version="1.1" id="Layer_1" xmlns="http://www.w3.org/2000/svg" xmlns:xlink="http://www.w3.org/1999/xlink" x="0px" y="0px"
	 viewBox="0 0 300 300" style="enable-background:new 0 0 300 300;" xml:space="preserve">
<style type="text/css">
	.st0{fill:#FFFFFF;}
</style>
<g id="FINAL_LOGO_20">
	<g id="_2D">
		<g>
			<path class="st0" d="M61.9,210.4c-0.2,0.1-0.4,0.3-0.7,0.4c31.6-11.8,64.5-20.1,97.4-27.3c32.3-6.8,65.1-12.2,98-15.3
				c0-0.2,0.1-0.4,0.1-0.5c3.5-21.3,0-43.8-8.1-62.2c-0.1-0.2-0.2-0.5-0.3-0.7c-2.6-5.8-5.7-11.2-9.1-16
				c-43.5,30.8-92.7,63.2-136.1,93.4C89.4,191.5,75.6,201.1,61.9,210.4L61.9,210.4z"/>
			<path class="st0" d="M43.2,134.7c30-14.7,62-25.1,94.3-33.2c28.5-7,58-11.6,87.2-13.6c4.5-0.2,8.9-0.4,13.3-0.5
				c-0.1-0.1-0.1-0.2-0.2-0.2c-10.5-15.6-28.2-29.6-48.7-37.7c-0.2-0.1-0.4-0.1-0.5-0.2c-2.8-1.1-5.6-2-8.4-2.9
				c-39.8,14.9-78.1,35.1-110.7,62.5C60.2,116.7,51.4,125.4,43.2,134.7L43.2,134.7z"/>
			<path class="st0" d="M120.9,158.2c36.4-26.5,74.8-50.9,115.8-69.6c-3.9,0.6-7.8,1.2-11.7,1.8c-61.9,10-122.9,25-182.2,45.7
				c-2.9,22.4,1.8,45.7,11.2,64c0.2,0.4,0.5,0.9,0.7,1.3c1.6,3.1,3.4,6,5.3,8.7c0.3-0.3,0.5-0.5,0.8-0.8
				C79.4,190.7,99.9,173.8,120.9,158.2L120.9,158.2z"/>
			<path class="st0" d="M182.6,222.8c-18.9,11.5-38.9,22.5-58.9,31.9c2.8,0.7,5.7,1.4,8.6,1.9c20.9,3.5,42.8,0.2,61-7.6
				c1.8-0.8,3.5-1.6,5.2-2.4c5.2-2.6,10-5.5,14.3-8.8c16.2-11,30.7-29.6,38.6-51c1.9-5.1,3.4-10.5,4.5-15.8
				C233,190.3,208.1,207.2,182.6,222.8L182.6,222.8z"/>
			<path class="st0" d="M179,45.9c-3.7-1.1-7.5-1.9-11.3-2.6c-20.8-3.5-42.8-0.2-61,7.5c-7.2,3.1-13.9,6.8-19.6,11.2
				c-20.9,14.1-38.9,41.1-43.7,70.2c-0.1,0.3-0.1,0.7-0.1,1C74.9,90.7,128.1,60.2,179,45.9L179,45.9z"/>
			<path class="st0" d="M256,169.7c-22.8,5-47.3,9.8-69.5,14.5c-41.8,8.7-83.6,17.8-125.2,27.8c0.2,0.3,0.5,0.6,0.7,1
				c11.7,17.3,32.2,32.6,55.4,40.1c0,0,0,0,0,0c1.5,0.5,3,0.9,4.5,1.3c0.1-0.1,0.3-0.2,0.4-0.2C168.1,227.9,212.9,199.9,256,169.7
				L256,169.7z"/>
		</g>
	</g>
</g>
</svg>
