<?xml version="1.0" encoding="UTF-8"?>
<svg id="ICON" xmlns="http://www.w3.org/2000/svg" version="1.1" viewBox="0 0 150 150">
  <defs>
    <style>
      .cls-1 {
        fill: #000;
      }

      .cls-1, .cls-2 {
        stroke-width: 0px;
      }

      .cls-2 {
        fill: #fff;
      }
    </style>
  </defs>
  <rect class="cls-1" width="150" height="150"/>
  <path class="cls-2" d="M99.7,87.9l-10.7-10.7v10.7h10.7ZM99.7,89.3h-10.7v10.7l10.7-10.7ZM74.3,101.1v-10.7l-10.7,10.7h10.7ZM75.7,101.1h10.7l-10.7-10.7v10.7ZM73.2,87.9l-10.7-10.7v10.7h10.7ZM76.8,87.9h10.7v-10.7l-10.7,10.7ZM74.3,102.6h-10.7l10.7,10.7v-10.7ZM75.7,102.6v10.7l10.7-10.7h-10.7ZM103.2,89.3l10.7,10.7v-10.7h-10.7ZM114,87.9v-10.7l-10.7,10.7h10.7ZM115.4,89.3v10.7l10.7-10.7h-10.7ZM126.2,87.9l-10.7-10.7v10.7h10.7ZM34.6,114.3v-10.7l-10.7,10.7h10.7ZM102.2,90.4v10.7h10.7l-10.7-10.7ZM22.8,113.3l10.7-10.7h-10.7v10.7ZM85.8,126.9l-10.1-10.1v10.1h10.1ZM22.8,90.4v10.7h10.7s-10.7-10.7-10.7-10.7ZM100.7,126.9v-10.1l-10.1,10.1h10.1ZM102.2,116.8v10.1h10.1l-10.1-10.1ZM74.3,126.9v-10.1l-10.1,10.1h10.1ZM49.3,116.8v10.1h10.1l-10.1-10.1ZM47.8,116.8l-10.1,10.1h10.1v-10.1ZM34.6,126.2v-10.4h-10.1l10.1,10.4ZM73.2,114.3l-10.7-10.7v10.7h10.7ZM61,103.6l-10.7,10.7h10.7v-10.7ZM127.2,90.4l-10.7,10.7h10.7v-10.7ZM116.5,102.6l10.7,10.7v-10.7h-10.7ZM49.3,90.4v10.7h10.7l-10.7-10.7ZM49.3,102.6v10.7l10.7-10.7h-10.7ZM102.2,63.9v10.7h10.7l-10.7-10.7ZM127.2,63.9l-10.7,10.7h10.7v-10.7ZM102.2,86.8l10.7-10.7h-10.7v10.7ZM36,126.5l10.7-10.7h-10.7v10.7ZM36,103.6v10.7h10.7l-10.7-10.7ZM62.5,126.5l10.7-10.7h-10.7v10.7ZM61,126.5v-10.7h-10.7l10.7,10.7ZM102.2,113.3l10.7-10.7h-10.7v10.7ZM100.7,113.3v-10.7h-10.7l10.7,10.7ZM100.7,90.4l-10.7,10.7h10.7v-10.7ZM47.8,90.4l-10.7,10.7h10.7v-10.7ZM37.1,102.6l10.7,10.7v-10.7h-10.7ZM127.2,86.8v-10.7h-10.7l10.7,10.7ZM115.4,73.6l10.7-10.7h-10.7v10.7ZM126.2,61.4l-10.7-10.7v10.7h10.7ZM116.5,49.6l10.7,10.7v-10.7h-10.7ZM127.2,37.4l-10.7,10.7h10.7v-10.7ZM115.4,47.1l10.7-10.7h-10.7v10.7ZM126.9,34.9l-11.5-11.9v11.9h11.5ZM102.2,33.9l10.7-10.7h-10.7v10.7ZM114,24.2l-10.7,10.7h10.7v-10.7ZM103.2,36.4l10.7,10.7v-10.7s-10.7,0-10.7,0ZM112.9,48.2l-10.7-10.7v10.7h10.7ZM102.2,60.4l10.7-10.7h-10.7v10.7ZM114,50.7l-10.7,10.7h10.7v-10.7ZM114,73.6v-10.7h-10.7l10.7,10.7ZM89,126.5l10.7-10.7h-10.7v10.7ZM99.7,114.3l-10.7-10.7v10.7h10.7ZM90,76.1l10.7,10.7v-10.7h-10.7ZM100.7,63.9l-10.7,10.7h10.7v-10.7ZM89,73.6l10.7-10.7h-10.7v10.7ZM99.7,61.4l-10.7-10.7v10.7h10.7ZM90,49.6l10.7,10.7v-10.7h-10.7ZM100.7,37.4l-10.7,10.7h10.7v-10.7ZM89,47.1l10.7-10.7h-10.7v10.7ZM99.7,34.9l-10.7-10.7v10.7h10.7ZM90,23.2l10.7,10.7v-10.7h-10.7ZM75.7,33.9l10.7-10.7h-10.7v10.7ZM87.5,24.2l-10.7,10.7h10.7v-10.7ZM87.5,47.1v-10.7h-10.7l10.7,10.7ZM86.5,48.2l-10.7-10.7v10.7h10.7ZM75.7,60.4l10.7-10.7h-10.7v10.7ZM87.5,50.7l-10.7,10.7h10.7v-10.7ZM76.8,62.9l10.7,10.7v-10.7h-10.7ZM86.5,74.6l-10.7-10.7v10.7h10.7ZM75.7,86.8l10.7-10.7h-10.7v10.7ZM87.5,103.6l-10.7,10.7h10.7v-10.7ZM76.8,115.8l10.7,10.7v-10.7h-10.7ZM63.5,76.1l10.7,10.7v-10.7h-10.7ZM74.3,63.9l-10.7,10.7h10.7v-10.7ZM62.5,73.6l10.7-10.7h-10.7v10.7ZM73.2,61.4l-10.7-10.7v10.7h10.7ZM63.5,49.6l10.7,10.7v-10.7h-10.7ZM74.3,37.4l-10.7,10.7h10.7v-10.7ZM62.5,47.1l10.7-10.7h-10.7v10.7ZM73.2,34.9l-10.7-10.7v10.7h10.7ZM63.5,23.2l10.7,10.7v-10.7h-10.7ZM49.3,33.9l10.7-10.7h-10.7v10.7ZM61,24.2l-10.7,10.7h10.7v-10.7ZM50.3,36.4l10.7,10.7v-10.7s-10.7,0-10.7,0ZM60,48.2l-10.7-10.7v10.7h10.7ZM49.3,60.4l10.7-10.7h-10.7v10.7ZM61,50.7l-10.7,10.7h10.7v-10.7ZM50.3,62.9l10.7,10.7v-10.7h-10.7ZM60,74.6l-10.7-10.7v10.7h10.7ZM49.3,86.8l10.7-10.7h-10.7v10.7ZM61,77.1l-10.7,10.7h10.7v-10.7ZM50.3,89.3l10.7,10.7v-10.7h-10.7ZM36,100.1l10.7-10.7h-10.7v10.7ZM46.8,87.9l-10.7-10.7v10.7h10.7ZM37.1,76.1l10.7,10.7v-10.7h-10.7ZM47.8,63.9l-10.7,10.7h10.7v-10.7ZM36,73.6l10.7-10.7h-10.7v10.7ZM46.8,61.4l-10.7-10.7v10.7h10.7ZM37.1,49.6l10.7,10.7v-10.7h-10.7ZM47.8,37.4l-10.7,10.7h10.7v-10.7ZM36,47.1l10.7-10.7h-10.7v10.7ZM46.8,34.9l-10.7-10.7v10.7h10.7ZM37.1,23.2l10.7,10.7v-10.7h-10.7ZM34.6,23.1l-11.5,11.9h11.5s0-11.9,0-11.9ZM23.8,36.4l10.7,10.7v-10.7s-10.7,0-10.7,0ZM33.5,48.2l-10.7-10.7v10.7h10.7ZM22.8,60.4l10.7-10.7h-10.7v10.7ZM34.6,50.7l-10.7,10.7h10.7v-10.7ZM23.8,62.9l10.7,10.7v-10.7h-10.7ZM33.5,74.6l-10.7-10.7v10.7h10.7ZM22.8,86.8l10.7-10.7h-10.7v10.7ZM34.6,77.1l-10.7,10.7h10.7v-10.7ZM23.8,89.3l10.7,10.7v-10.7h-10.7ZM73.2,89.3h-10.7v10.7l10.7-10.7ZM76.8,89.3l10.7,10.7v-10.7h-10.7ZM114,103.6l-10.7,10.7h10.7v-10.7ZM114,115.8h-10.7l10.7,10.7v-10.7ZM126.2,114.3l-10.7-10.7v10.7h10.7ZM125.5,115.8h-10.1v10.4l10.1-10.4ZM34.6,128.3l-13.2-13.7V34.6l12.5-12.9h82.3l12.5,12.9v80l-1.1,1.2-12.1,12.5H34.6Z"/>
</svg>