<?xml version="1.0" encoding="utf-8"?>
<!-- Generator: Adobe Illustrator 27.0.0, SVG Export Plug-In . SVG Version: 6.00 Build 0)  -->
<svg version="1.1" id="Layer_1" xmlns="http://www.w3.org/2000/svg" xmlns:xlink="http://www.w3.org/1999/xlink" x="0px" y="0px"
	 viewBox="0 0 142 143" style="enable-background:new 0 0 142 143;" xml:space="preserve">
<style type="text/css">
	.st0{fill:#FFFFFF;}
</style>
<path class="st0" d="M123.4,100.4v14h-4.5h-4.5v-11v-11l2.9-3c1.6-1.6,3.6-3,4.5-3C123.3,86.4,123.4,87.5,123.4,100.4z"/>
<path class="st0" d="M123.4,42.1v13.5H121c-1.4,0-3.3-0.9-4.5-2c-2-1.8-2.1-2.6-2.1-13.5V28.6h4.5h4.5V42.1z"/>
<path class="st0" d="M114.6,53.9c0.1,0,4.2,4,9,8.9l8.8,8.8l-9,9l-9,9V71.7C114.4,61.9,114.5,53.9,114.6,53.9z"/>
<polygon class="st0" points="112.6,71 112.6,124.3 98.6,124.3 84.6,124.3 84.6,122 84.6,71 84.6,43.5 84.6,17.8 98.6,17.8 
	112.6,17.8 "/>
<polygon class="st0" points="82.8,111.7 82.8,122 77.6,127.2 72.6,132.4 66,126.3 59.3,120.3 59.3,99 59.3,77.8 71,89.6 82.8,101.3 
	"/>
<path class="st0" d="M82.8,86.4v5.9c0,3.3-0.1,5.9-0.3,5.9c-0.1,0-2.9-2.6-6.1-5.9l-5.8-5.9h6.1H82.8z"/>
<polygon class="st0" points="82.8,43.5 82.8,64.3 71,52.5 59.3,40.8 59.3,31.3 59.3,21.9 64.9,16.2 70.5,10.5 76.6,16.6 82.8,22.6 
	"/>
<path class="st0" d="M65.6,49.8l5.8,5.9h-6.1h-6.1v-5.9c0-3.3,0.1-5.9,0.3-5.9C59.6,44,62.4,46.6,65.6,49.8z"/>
<path class="st0" d="M27.7,102.4v12h-5h-5v-14v-14h2.9c1.7,0,3.7,0.8,5,2C27.6,90.2,27.7,90.9,27.7,102.4z"/>
<path class="st0" d="M27.7,71.2v17.4l-8.8-8.8L10.1,71l8.6-8.6c4.7-4.7,8.7-8.6,8.8-8.6C27.6,53.9,27.7,61.7,27.7,71.2z"/>
<path class="st0" d="M27.7,28.6v11.1c0,11,0,11.2-2.5,13.5c-1.4,1.4-3.5,2.4-5,2.4h-2.4V42.1V28.6h5H27.7z"/>
<polygon class="st0" points="57.5,120.3 57.5,124.3 43.5,124.3 29.5,124.3 29.5,71 29.5,17.8 43.5,17.8 57.5,17.8 57.5,40.8 
	57.5,71 "/>
</svg>
