<?xml version="1.0" encoding="UTF-8"?>
<svg id="Layer_2" data-name="Layer 2" xmlns="http://www.w3.org/2000/svg" viewBox="0 0 750 750">
  <defs>
    <style>
      .cls-1 {
        fill: #fff;
      }
    </style>
  </defs>
  <g id="background">
    <rect width="750" height="750"/>
  </g>
  <g id="Layer_6" data-name="Layer 6">
    <path class="cls-1" d="M673.41,249.4l-.51,125.84h-1l-49.04-1.58-1.19-.04c-3.62-.13-7.15-.25-10.6-.35-34.69-1.01-60.6-.71-74.03-7.28-22.44-10.97-36.71-42.05-13.49-62.01,10.33-8.87,37.7-18.38,63.92-27.34,4.11-1.41,8.19-2.8,12.18-4.17.09-.03.17-.06.26-.09,23.32-8.5,45.48-14.55,72.49-22.98h1.01Z"/>
    <path class="cls-1" d="M458.42,228.18c-1.26,5.39-5.22,9.58-5.83,10.14-2.4,2.17-5.69,3.28-14.43,5.3-8.73,2.01-22.91,4.95-46.74,9.88l-80.29,16.61-47.41,9.77c-11.99,2.45-23.54,4.77-32.25-1.92-5.67-4.35-13.13-19.43-14.11-24.76l.16-1.49,5.79.63,32.89-1.2,23.19.55,3.1-.23,145.78-20.2,12.24-1.04,16.09-2.19,1.82.15Z"/>
    <path class="cls-1" d="M169.86,404.37c6.3,14.67-8.51,37.87-76.63,84.8l-.8.27c-.98-2.93-1.79-5.91-2.42-8.93l-2.18-19.35-7.39-42.89-5.03-43.91.66-.08,17.26,2.51,3.37.5,3.39.48,3.9.57,5.78.82c5.14.71,10.25,1.62,15.32,2.73,8.16,1.8,16.21,4.12,24.08,6.93,10.66,4.03,17.83,8.91,20.69,15.55Z"/>
    <path class="cls-1" d="M672.85,388.12l-.59,145.6-50.92-3.64-17.94-1.19.12-2.44-.96-.05c-44.38-70.35-64.66-83.78-72.24-102.25-6.25-15.21-3.87-33.83,26.5-37.19,4.99-.55,10.74-.68,52.61-.01l.97.02,11.94.22,49.48.93h1.03Z"/>
    <path class="cls-1" d="M241.72,518.41l.32,1.08c-5.16,1.52-10.18,3.47-15.17,5.51-10.74,4.4-21.36,9.23-32.53,12.15-10.89,2.85-22.31,3.88-33.73,3.02-14.24-1.08-28.47-5.11-40.19-13.06-8.5-5.76-15.68-13.59-20.96-22.38l.87-.53c31.29-25.22,44.8-38.69,58.24-51.31,13.85-12.98,27.64-25.05,40.53-27.28,12.9-2.23,24.9,5.38,29.58,17.33,4.57,11.68,2.17,27.5,13.04,75.47Z"/>
    <path class="cls-1" d="M673.56,212.79l-.11,27.33h-1.1l-87.21,19.29-.13.03-16.01,3.45-2.9.63-.61.13-5.98,1.29c-27.78,6.08-39.33,7.16-47.74,5.88-3.14-.47-5.83-1.28-8.14-2.29-3.42-1.52-5.97-3.5-8.6-5.93-4.68-4.32-9.61-10.04-15.39-18.18-1.89-2.8-3.85-5.9-5.89-9.32l-3.39-5.92-.24-.43s62.88-15.64,81.32-17.98c18.71-2.38,37.45-4.51,56.27-5.7,19.04-1.21,38.14-1.46,57.21-1l8.64,8.72Z"/>
    <path class="cls-1" d="M587.2,527.26l-.03,1.2-9.71-.25-42.17-.97-103.31-4.71.05-1.19c-11.87-109.51,16.55-123.75,42.15-120.86,8.61.98,19.75,5.71,31.74,17.35,22.47,21.82,53.29,69.09,81.28,109.43Z"/>
    <path class="cls-1" d="M215.05,289.25c3.58,12.61,5.02,25.49-6.48,30.98-11.07,5.28-32-6.06-32-6.06l-106.69-57.67c.37-2.45.8-4.88,1.34-7.3,1.3-5.88,3.23-11.64,4.15-17.58.47-3.02.79-9.13.79-9.13l.19-2.01,11.29,3.33,11.02,2.62,13.3,3.58,25.81,7.96,19.47,4.79,34.75,6.17,9.95,1.08v.07s11.67,34.09,13.11,39.17Z"/>
    <path class="cls-1" d="M418.98,520.74l-.05,1.2-139.64-6.37-6.62-.25c-5.98-.02-12.01.4-17.94,1.32l-.18-1.15c-5.83-44.43-5.36-62.87,10.7-83.43,8.45-10.82,22.98-20.54,38.98-24.51,15.99-3.97,37.08-4.13,54.46,1.53,17.39,5.66,37.56,18.4,47.66,36.06,9.55,16.7,9.78,31.66,12.63,75.6Z"/>
    <path class="cls-1" d="M174.35,323.63c11.22,7.92,20.59,38.1-13.25,42.26-47.73,5.87-88.22-8.6-88.22-8.6l-5.37-10.23c-.84-5.11-1.52-10.25-1.89-15.41-.93-13.07.12-26.21,1.02-39.31.58-8.48,1.1-16.94,1.97-25.38,25.82,12.82,78.59,37.52,105.74,56.67Z"/>
    <path class="cls-1" d="M672.85,388.12l-.59,145.6-50.92-3.64-17.94-1.19.12-2.44-.96-.05c-44.38-70.35-64.66-83.78-72.24-102.25-6.25-15.21-3.87-33.83,26.5-37.19,4.99-.55,10.74-.68,52.61-.01l.97.02,11.94.22,49.48.93h1.03Z"/>
  </g>
</svg>