<?xml version="1.0" encoding="UTF-8"?>
<svg xmlns="http://www.w3.org/2000/svg" version="1.1" viewBox="0 0 80 80">
  <defs>
    <style>
      .cls-1 {
        fill: #fff;
      }
    </style>
  </defs>
  <!-- Generator: Adobe Illustrator 28.7.2, SVG Export Plug-In . SVG Version: 1.2.0 Build 154)  -->
  <g>
    <g id="FAR_icon">
      <rect width="80" height="80"/>
    </g>
    <g id="White">
      <path class="cls-1" d="M88.61,35.09h-5.51s-.05,0-.05,0h-.1s-.05,0-.05,0h-.05s-.05.02-.05.02h-.05s-.05.02-.05.02h-.05s-.05.02-.05.02h-.05s-.05.03-.05.03h-.05s-.05.03-.05.03h-.05s-.05.03-.05.03l-.05.02-.05.02-.05.02-.05.02-.09.04-.18.1-1.3.7-3.05,1.65h-16.81l-.89-1.65-8.22-15.21-.05-.09-.03-.04-.02-.04-.03-.04-.03-.04-.03-.04-.03-.04-.02-.02-.02-.02-.02-.02-.02-.02-.02-.02-.02-.02-.04-.03-.04-.03-.04-.03-.04-.03-.04-.03-.04-.03-.04-.02-.04-.03-.05-.02-.04-.02-.05-.02-.05-.02-.05-.02-.05-.02h-.05s-.05-.03-.05-.03h-.05s-.05-.02-.05-.02h-.05s-.05-.01-.05-.01h-.05s-.05-.01-.05-.01h-.05s-.11,0-.11,0h-.05s-.05,0-.05,0h-.05s-.05.01-.05.01h-.05s-.05.02-.05.02h-.05s-.05.02-.05.02l-.05.02-.04.02-.05.02-.05.02-.05.02-.05.02-.04.02-.04.03-.04.03-.04.03-.04.03-.04.03-.04.03-.04.03-.04.04-.04.04-.04.04-.03.04-.03.04-.03.04-.03.04-.03.04-.02.04-.03.04-.02.04-.03.05-.02.04-.02.05-.02.05-.02.05v.05s-.03.05-.03.05v.05s-.03.05-.03.05v.05s-.01.05-.01.05v.05s-.01.05-.01.05v.05s0,.05,0,.05v16.16h-14.09l-.02-.02h0l-1.47-1.47-.14-.14h0s-.25-.26-.25-.26l-.25-.25-.25-.25-.25-.25-.25-.25-.25-.25-.5-.5-.25-.25-.25-.25-.5-.5-.25-.25-.5-.5-.74-.74-.03-.03-.15-.14-.08-.07-.02-.02-.02-.02-.04-.04-.04-.03-.02-.02h-.02s-.02-.03-.02-.03h-.02s-.02-.02-.02-.02h-.02s-.02-.03-.02-.03h-.02s-.02-.03-.02-.03h-.03s-.02-.02-.02-.02h-.02s-.02-.02-.02-.02h-.02s0,0,0,0h-.02s-.03-.02-.03-.02h-.02s-.02-.01-.02-.01h-.02s-.03-.01-.03-.01h-.02s-.02-.01-.02-.01h-.03s-.02,0-.02,0h-.03s-.03,0-.03,0h-.03s-.03,0-.03,0h-.02s-.03,0-.03,0h-.08s-.03,0-.03,0h-.08s-.03,0-.03,0h-.02s-.02,0-.02,0h-.03s-.03,0-.03,0h-.02s-.03,0-.03,0h-.03s-.02.01-.02.01h-.03s-.02.01-.02.01h-.02s-.03.02-.03.02h-.02s0,0,0,0h0s-.02,0-.02,0h-.02s-.02.02-.02.02h-.03s-.02.02-.02.02h-.03s-.02.03-.02.03h-.02s-.02.03-.02.03h-.02s-.02.02-.02.02l-.02.02h-.02s-.02.03-.02.03h-.02s-.02.03-.02.03l-.04.04-.02.02h0s-.02.02-.02.02l-.02.02-.02.02-.02.02-.04.04-.02.02-.02.02-.03.04-.03.04h0s0,.02,0,.02l-.02.02-.03.04-.03.04-.03.05-.05.09h0s-2.3,4.27-2.3,4.27l-.87,1.62-.44.8h-13.76v-5.92s0-.04,0-.04v-.04s0-.04,0-.04v-.04s-.01-.04-.01-.04v-.02s0-.02,0-.02v-.02s0-.02,0-.02v-.02s0-.02,0-.02v-.02s-.01-.02-.01-.02l-.03-.08-.02-.04-.02-.04-.02-.04-.02-.04-.02-.04-.02-.04-.02-.04-.02-.03-.03-.03-.03-.03-.03-.03-.03-.03-.03-.03-.03-.03-.03-.03-.03-.03-.03-.02-.03-.03-.03-.02-.04-.03-.04-.02-.04-.02-.04-.02-.04-.02h-.04s-.08-.05-.08-.05h-.04s-.04-.03-.04-.03h-.04s-.04-.02-.04-.02h-.04s-.04-.02-.04-.02h-.04s-.04,0-.04,0h-.04s-.04,0-.04,0h-.13s-.04,0-.04,0h-.04s-.04.01-.04.01h-.04s-.04.02-.04.02h-.04s-.04.02-.04.02h-.04s-.04.03-.04.03l-.04.02h-.04s-.04.03-.04.03l-.04.02-.08.04-24.21,13.08h0l1.36,2.02h0L2.98,36.17l1.28-.69.09-.05.05-.02h.03s.02-.02.02-.02h.02s.03-.02.03-.02h.01s.01,0,.01,0h.01s.01,0,.01,0h.01s.01,0,.01,0h.01s.01,0,.01,0h0s.01,0,.01,0h.01s.01,0,.01,0h.06s.01,0,.01,0h.01s.01,0,.01,0h.01s.01,0,.01,0h.01s.01,0,.01,0h.01s.01,0,.01,0h.01s.01,0,.01,0h.01s.01,0,.01,0h.01s.02.02.02.02h.01s0,.01,0,.01h.01s.01.02.01.02h.01s0,.01,0,.01h.01s.01.02.01.02h0s.01.02.01.02h0s0,.02,0,.02h0s0,.02,0,.02h0s0,.02,0,.02h0s0,.02,0,.02h0s0,.02,0,.02h0s0,.02,0,.02h0s0,.02,0,.02v.02s.02.01.02.01h0s0,.02,0,.02h0s0,.02,0,.02h0s0,.02,0,.02v.02s.01.02.01.02v.03s.01.02.01.02v.05s.01.03.01.03v.02s0,.03,0,.03v.03s0,.03,0,.03v.05s-.01.31-.01.31v1.42s0,.8,0,.8v17.14s.01.1.01.1v.1s.02.1.02.1v.1s.03.1.03.1l.02.1.02.11.02.1.02.1.03.1.03.1.03.1.03.1.04.1.04.1.04.09.04.09.04.09.04.09.05.09.05.09.05.09.05.09.06.08.06.09.06.08.06.08.06.08.07.08.07.08.07.07.07.08.07.07.07.07.08.07.08.07.08.06.08.06.09.06.08.06.08.06.09.06.08.05.09.05.09.05.09.05.09.04.09.05.09.04.09.04.09.04.1.04.1.04.1.03.1.03.1.02.1.03.1.02.1.02.1.02h.1s.1.03.1.03h.1s.1.02.1.02h.1s.1.01.1.01h.1s.1,0,.1,0h.1s.1,0,.1,0h.1s.1-.01.1-.01h.1s.1-.03.1-.03h.1s.1-.03.1-.03l.1-.02.1-.02.1-.03.1-.03.1-.03.1-.03.1-.03.1-.03.1-.04.09-.04.09-.05.09-.04.09-.05.09-.05.09-.05.09-.05.09-.05.09-.05.08-.06.09-.06.08-.06.08-.06.08-.06.08-.07.08-.07.08-.07.07-.08.07-.07.07-.08.07-.08.07-.08.06-.08.06-.08.06-.08.06-.08.06-.09.05-.09.05-.08.05-.1,8.94-16.54h0s.07-.11.07-.11l.08-.12.08-.12.09-.12.09-.11.09-.11.1-.11.1-.11.09-.1.1-.09.1-.09.1-.09.1-.09.11-.09.11-.08.11-.08.11-.08.12-.08.12-.07.12-.07.12-.07.12-.06.12-.06.13-.06.13-.05.13-.05.13-.05.13-.05.13-.03.13-.04.13-.03.13-.03.13-.03.14-.02.13-.02.13-.02h.14s.13-.02.13-.02h.13s.13,0,.13,0h3.36s.13,0,.13,0h.13s.13.01.13.01h.13s.13.02.13.02l.13.02.13.02.13.02.13.03.13.03.13.03.13.04.13.04.13.05.12.05.12.05.12.05.12.06.12.06.12.06.12.06.11.07.11.07.11.07.11.08.11.08.1.08.1.08.1.08.1.09.1.09.09.09.37.37,8.94,8.94.06.06.07.06.07.06.06.06.08.05.07.05.07.05.08.05.07.05.08.04.08.05.08.03.08.04.09.04.08.03.09.03.09.03.09.03.09.03.09.02.09.02h.09s.09.03.09.03h.09s.09.02.09.02h.09s.09,0,.09,0h.18s.09,0,.09,0h.09s.09-.02.09-.02h.11s.1-.03.1-.03l.11-.02.11-.02h.05s.05-.03.05-.03h.06s.05-.03.05-.03h.05s.05-.03.05-.03l.05-.02.05-.02.05-.02.05-.02.05-.03.05-.03.04-.02.05-.02.05-.03.05-.03.05-.03.05-.03.05-.03.04-.04.05-.03.05-.03.05-.04.05-.03.04-.04.04-.04.05-.04.04-.04.04-.04.04-.04.08-.09.04-.04.04-.04.04-.04.04-.04.04-.05.03-.05.04-.05.04-.05.03-.05.03-.05.03-.05.03-.05.03-.06.03-.05.03-.06.03-.05.02-.05.03-.06.03-.06.02-.05.02-.06.02-.06.02-.06.02-.06.02-.06.02-.06v-.06s.03-.06.03-.06v-.06s.03-.06.03-.06v-.06s.02-.06.02-.06v-.06s.02-.06.02-.06v-.06s0-.07,0-.07v-.06s0-.06,0-.06v-.06s0-.06,0-.06v-9.39h10.44l3.18,5.88.05.09.06.09.03.04.03.04.03.04.03.04.03.04.03.04.03.04.04.04.03.04.04.04.04.04.04.04.04.04.04.03.04.04.04.03.04.03.04.03.04.03.04.03.04.03.04.03.05.03.04.03.05.02.04.02.05.02.05.02.05.02.05.02.05.02.05.02.05.02h.05s.05.03.05.03h.05s.05.03.05.03h.05s.05.03.05.03h.05s.05.02.05.02h.05s.05.01.05.01h.05s.05.01.05.01h.05s.05,0,.05,0h.05s.1,0,.1,0h.1s.05,0,.05,0h.05s.05-.01.05-.01h.05s.05,0,.05,0h.05s.05-.02.05-.02h.05s.05-.03.05-.03h.05s.05-.02.05-.02h.05s.04-.03.04-.03h.05s.05-.04.05-.04l.05-.02.05-.02.05-.03.05-.02.05-.02.09-.05,12.87-6.94,2.45-1.32.1-.05.04-.02.05-.02.05-.02.05-.02.05-.02.05-.02.05-.02.05-.02h.05s.05-.03.05-.03h.05s.05-.02.05-.02h.05s.05-.02.05-.02h.05s.05-.01.05-.01h.05s.05,0,.05,0h.1s.1-.01.1-.01h6.99s.12,0,.12,0v-1.08h-1.37Z"/>
    </g>
  </g>
</svg>