<?xml version="1.0" encoding="UTF-8"?>
<svg id="Layer_2" xmlns="http://www.w3.org/2000/svg" version="1.1" viewBox="0 0 141.7 141.7">
  <!-- Generator: Adobe Illustrator 29.0.1, SVG Export Plug-In . SVG Version: 2.1.0 Build 192)  -->
  <defs>
    <style>
      .st0 {
        fill: #fff;
      }
    </style>
  </defs>
  <path class="st0" d="M141.7,98.9v2.9h0c0,.1,0,.2,0,.2,0,0,0,0,0,0-.1.1-.2.3-.4.4,0,0-.1.1-.2.2-.1.1-.2.2-.3.3,0,0,0,0,0,0l-.2.2h0c0,0-.1.1-.2.2l-.2.2-.2.2h0c0,0-.1.1-.2.2-.2.1-.4.2-.5.3,0,0,0,0,0,0t0,0c-.2.1-.4.2-.6.3-.2.1-.4.2-.6.3s-.4.2-.6.2c-.2,0-.4.2-.7.2-.2,0-.4.1-.7.2-.2,0-.4,0-.5.1s-.1,0-.2,0c-.1,0-.2,0-.3,0-.1,0-.2,0-.4,0h-.3s-.3,0-.3,0h-.5s0,0,0,0c-.1,0-.3,0-.5,0,0,0-.1,0-.2,0h-.2c-.1,0-.3,0-.4,0-.1,0-.2,0-.4,0-.2,0-.3,0-.5-.1h-.1c-.2,0-.4-.1-.6-.2-.2,0-.3-.1-.5-.2h-.1c-.2-.1-.3-.2-.5-.3-.2,0-.4-.2-.6-.3-.2-.1-.4-.2-.6-.4h-.2c0-.1-.2-.3-.2-.3,0,0-.1-.1-.2-.2-.1,0-.3-.2-.4-.3,0,0,0,0,0,0,0,0,0,0-.1-.1,0,0-.2-.2-.3-.2,0,0-.2-.2-.3-.3h0c0,0,0-.1,0-.1l-.2-.2h0c0,0,0,0,0,0,0,0,0,0,0,0,0,0,0,0-.1,0s0,0-.1,0h0s0,0,0,0h0s0,0,0,0l-.2.2c0,0-.1.1-.2.2-.1.1-.2.2-.4.4-.1,0-.2.2-.3.3l-.2.2c-.1,0-.2.2-.3.2,0,0,0,0,0,0,0,0-.2.1-.2.2-.1.1-.3.2-.4.3,0,0,0,0,0,0,0,0-.2.1-.3.2,0,0-.2.1-.2.1,0,0-.2,0-.2.1h-.2c-.2.2-.5.3-.7.4,0,0-.2,0-.3.1,0,0,0,0,0,0-.4.2-.9.3-1.4.4-.3,0-.7.1-1,.2-.6,0-1.2,0-1.8,0-.2,0-.4,0-.7,0,0,0-.1,0-.2,0-.2,0-.4,0-.5,0,0,0-.1,0-.2,0,0,0,0,0,0,0-.2,0-.3,0-.5-.1-.2,0-.4-.1-.5-.2h-.2c0,0-.3-.2-.3-.2h-.3c0-.1-.2-.2-.2-.2h0c0,0-.1,0-.2-.1s-.2,0-.2-.1c0,0-.2,0-.2-.1,0,0-.1,0-.2-.1s-.2-.1-.2-.1c0,0-.1-.1-.2-.2,0,0-.2-.1-.2-.2l-.2-.2-.2-.2-.2-.2s0,0-.1-.1h0c0,0,0-.1,0-.1l-.2-.2c-.1,0-.2-.2-.3-.3h0s-.2-.2-.2-.2h0c0,0,0,0,0,0h0s0,0,0,0h0s0,0,0,0c-.1,0-.2,0-.3.1,0,0,0,0,0,0h0c0,0-.2.2-.2.3h0s-.3.3-.3.3c0,0-.2.2-.3.2-.1.1-.3.2-.4.4-.1.1-.3.2-.5.4h0c-.2.1-.4.3-.6.4-.2,0-.3.2-.5.3,0,0,0,0-.1,0l-.3.2-.3.2h-.4c0,.1-.3.3-.3.3h-.2c0,0-.1.1-.1.1h-.4c0,.1,1.1-2.9,1.1-2.9h.2c0,0,.2-.2.2-.2l.3-.2h0s.2-.1.2-.1c0,0,0,0,0,0h0s.3-.3.3-.3c0,0,0,0,0,0,.2-.1.3-.3.5-.4.2-.1.3-.3.4-.4,0,0,0,0,0,0,0-.1.2-.2.3-.4,0,0,0,0,0-.1.1-.2.2-.3.3-.5,0-.2.2-.3.3-.5,0,0,0,0,0,0,.2-.4.4-.8.5-1.2h0c0,0,0-.1,0-.1h0c0,0,0,0,0-.1,0,0,0,0,0,0,0,0,0,0,.1,0s0,0,.1,0h0s0,0,.1,0h0c0,0,0,.1,0,.2,0,0,0,0,0,0,0,.2.2.4.2.6,0,0,0,.1,0,.2,0,.1.1.3.2.4,0,0,0,.1.1.2v.3c.1,0,.5.5.5.5l.2.3.2.2.2.2c0,0,.1.1.2.2,0,0,0,0,0,0,0,0,.1.1.2.2s.1,0,.2.1c0,0,.1.1.2.2,0,0,.1,0,.2.1,0,0,.1,0,.2.1,0,0,.1,0,.2.1.1.1.2.2.4.3.1,0,.3.2.4.2.1,0,.3.1.4.2,1.8.9,3.8,1,5.7.4.2,0,.5-.1.7-.3.2,0,.5-.2.7-.3.2-.1.4-.2.6-.4,0,0,0,0,0,0,0,0,.1,0,.2,0,.1-.1.3-.2.4-.3,0,0,0,0,0,0,.2-.1.3-.3.5-.5h0c0,0,.2-.3.2-.3l.2-.2.2-.2.2-.3.3-.5c0-.1.1-.2.1-.3,0-.1.1-.2.2-.4v-.2c.1,0,.2-.2.2-.2,0-.2.1-.3.2-.5,0,0,0,0,0,0,0,0,0,0,0-.1,0,0,0,0,0,0h0s0,0,0,0c0,0,0,0,.1,0h0s0,0,.1,0c0,0,0,0,0,0,0,0,0,0,0,0h0c0,0,0,.1,0,.1,0,.2.2.4.2.6,0,0,0,.2.1.3,0,.2.2.4.3.5,0,.1.2.3.2.4h0c0,.1,0,.2,0,.2,0,.1.2.2.2.3,0,0,.1.2.2.3.1.1.2.3.4.4,0,0,0,0,0,.1.2.2.3.3.5.5h0c0,0,0,0,.1.1.1,0,.2.2.3.3h.1c0,0,0,0,0,0h0c0,0,0,0,0,0l.5.3h.3c0,.1.3.3.3.3h.2c0,0,0,.1,0,.1h0s.3.1.3.1c0,0,0,0,0,0h0c.1,0,.3.1.4.1,0,0,0,0,.1,0,0,0,0,0,0,0,.2,0,.5.1.7.2,0,0,0,0,0,0,.2,0,.4,0,.6,0,0,0,0,0,0,0,.2,0,.4,0,.7,0s.5,0,.7,0h0c.2,0,.4,0,.6,0,.1,0,.2,0,.3,0,.2,0,.4,0,.6-.1,0,0,0,0,0,0,.2,0,.3,0,.5-.2,0,0,0,0,0,0,0,0,.1,0,.2,0h.3c0-.1,0-.1,0-.1h.3c0-.2.2-.2.2-.2.2,0,.3-.2.5-.3.2-.1.4-.3.6-.4l.4-.3c.1-.1.3-.2.4-.4l.3-.3c0,0,.2-.2.3-.3,0,0,0,0,0,0,.1-.2.3-.3.4-.5.1-.2.2-.3.3-.5,0,0,0,0,0,0,.1-.2.2-.4.3-.6h0c0,0,0,0,0,0h0s0,0,0,0h0s0,0,0,0h0s0,0,0,0c0,0,0,0,.1,0h0c0,0,0,.1,0,.1h0c0,0,0,.2,0,.2Z"/>
  <path class="st0" d="M105.6,102.4l-1.1,3-.7,1.8v.2c-.4.9-1.1,1.6-2,2.1h-.1c0,0-.1.2-.1.2-1.6.9-3.5,1.5-5.3,2h-.4c0,.1-.4.2-.4.2h-.4c0,.1-.4.3-.4.3-4.4,1.2-8.9,2.5-13.4,3.4h-.5c0,.1-.5.2-.5.2-2.6.5-5.1.9-7.7,1.2h-.3s-1.5,0-1.5,0h-.3s-.7-.1-.7-.1c-2.7-.3-5.4-.8-8-1.3l-.9-.2c-4.4-1-9-2.2-13.4-3.5h-.4c0-.1-.4-.2-.4-.2h-.4c0-.1-.4-.2-.4-.2-1.6-.5-3.3-1.1-4.8-2l-.3-.2c-.8-.5-1.3-1.1-1.7-1.9v-.2c0,0-.7-1.6-.7-1.6l-1-2.7-5.3-13.9v-10.4h0c0-.5.2-.9.5-1.1.2-.2.4-.3.6-.4h0s0,0,0,0c.8-.4,1.7-.7,2.6-.9h.2c0,0,.2-.1.2-.1h.5c2-.7,3.9-1,5.9-1.3h.4s.4-.1.4-.1c3.2-.4,6.3-.7,9.5-.9h0s2.5,0,2.5,0v9.6h32v-9.6h2.6c3.2.2,6.3.5,9.5.9h.4c0,0,.4.1.4.1,2.1.2,3.9.6,5.9,1.1h.2c0,0,.4.2.4.2h.2c.9.3,1.8.6,2.6,1h0s0,0,0,0c.2,0,.3.1.4.2.4.3.6.6.7,1.2v10.5l-5.1,13.4Z"/>
  <path class="st0" d="M110.7,74.9v.2h0c0-.1,0-.2,0-.2-.2-.6-.6-.9-1.1-1.1h0s0,0,0,0h0c-.1-.1-.4-.2-.6-.3h-.3c-.4-.3-.8-.4-1.2-.5h-.2s-.2-.1-.2-.1h-.2v-17.1H35.8v17h-.2c0,0-.2.1-.2.1h-.2c-.4.2-.8.3-1.2.5h-.3c0,.1,0,.1,0,.1h0s-.1,0-.1,0h-.1c0,0-.1.1-.1.1h-.1c0,0,0,0,0,0h0s0,0,0,0h0s0,0,0,0c-.6.2-.9.5-1.1,1.1h0c0,0,0,.2,0,.2v-29h78.9v28.7Z"/>
  <polygon class="st0" points="91.9 28.6 91.9 46.2 87.9 46.2 87.9 32.5 54.7 32.5 54.7 46.2 50.8 46.2 50.8 28.6 82.8 28.6 82.8 22.2 91.9 22.2 91.9 28.6"/>
  <path class="st0" d="M37.2,102.9l1,2.7h-.4c0,0-.2-.1-.2-.1h-.2s-.2-.1-.2-.1c-.2,0-.4-.1-.7-.2-.2,0-.4-.1-.6-.2,0,0,0,0,0,0-.4-.2-.8-.4-1.2-.6-.8-.5-1.5-1-2.1-1.7l-.3-.3h0c0,0,0,0,0,0-.1,0-.2,0-.4,0h0s0,0,0,0c-.5.5-.9.9-1.4,1.3l-.2.2-.2.2-.2.2h-.2c-3.7,2.4-8.3,2.1-11.7-.5l-.2-.2-.2-.2-.4-.4-.2-.2c-.1-.1-.2-.2-.3-.3,0,0,0,0,0,0,0,0-.2-.1-.3-.1h0s0,0,0,0h0s0,0,0,0h0s0,0,0,0h0c0,0,0,0,0,0h0c0,0-.1.2-.2.2h-.1c0,.1-.2.3-.2.3l-.2.2-.2.2-.2.2-.2.2c-.2.2-.4.3-.6.4-.2.1-.4.3-.6.4s-.4.2-.6.3c-.2,0-.4.2-.6.3,0,0-.1,0-.2,0-.2,0-.4.1-.5.2,0,0,0,0,0,0-.2,0-.4.1-.7.2-.2,0-.5.1-.7.1s-.5,0-.7.1h-.3s-.5,0-.5,0h-.3c0,0-.1,0-.2,0-.2,0-.4,0-.6,0-.2,0-.4,0-.5,0-.2,0-.5,0-.7-.1-.2,0-.4,0-.6-.1,0,0,0,0-.1,0-.2,0-.4-.1-.6-.2-.2,0-.4-.1-.5-.2-.3-.1-.5-.2-.8-.4-.2,0-.4-.2-.6-.3,0,0-.2,0-.2-.1l-.2-.2-.2-.2-.2-.2c-.6-.4-1.1-1-1.6-1.5h0c0,0,0-.1,0-.1H0c0,0,0-.1,0-.1v-2.9h0c0-.1,0-.2,0-.2h0c0,0,0-.1,0-.1h0s0,0,0,0h0s0,0,0,0h0s0,0,0,0h0s0,0,0,0h0c0,.2.2.4.2.5,0,0,0,0,0,0,0,.1.1.2.2.4,0,.1.2.2.2.4,0,0,.1.2.2.2.1.2.2.3.4.5l.2.2.2.2s0,0,0,0c0,0,.2.2.3.2.1.1.2.2.4.3.1.1.3.2.5.3,0,0,0,0,0,0,.1,0,.2.2.4.2.1,0,.3.2.4.2h.3c0,.1.3.2.3.2h.3c0,.1,0,.1,0,.1.2,0,.4.1.6.2.2,0,.4.1.6.1.2,0,.5,0,.7.1.8,0,1.6,0,2.3-.1.2,0,.5-.1.7-.2,0,0,0,0,0,0,.2,0,.4-.1.6-.2.1,0,.3-.1.4-.2h.3c0-.1.3-.3.3-.3l.5-.3.3-.2c0,0,.2-.1.2-.2.1,0,.3-.2.4-.3,0,0,.1-.1.2-.2.1-.1.2-.2.3-.3.2-.1.3-.3.4-.5.1-.1.2-.3.4-.5l.2-.2v-.3c.3-.2.4-.4.5-.6,0-.2.1-.3.2-.5,0,0,0-.1,0-.2,0-.1.1-.3.2-.4h0c0,0,0,0,0,0h0s0,0,0,0c0,0,0,0,.1,0h0c0,0,.1,0,.1,0,0,0,0,0,.1,0h0c0,0,0,0,0,.1h0c0,0,0,.3,0,.3,0,.2.1.3.2.5,0,.2.2.4.3.6,0,.2.2.3.3.5.1.2.2.4.4.5l.2.2.2.2.2.2.2.2.2.2.2.2c0,0,.1.1.2.1.2.1.3.2.5.3.2.1.3.2.5.3,0,0,0,0,0,0,.1,0,.3.2.5.2,0,0,.2,0,.2,0,.1,0,.3.1.4.2.3.1.6.2.9.2.1,0,.3,0,.4,0,.7.1,1.3.1,2,0,.1,0,.3,0,.4,0,.2,0,.4,0,.6,0,1.6-.3,3.1-1.2,4.2-2.4.1-.1.2-.2.3-.4,0-.1.2-.2.2-.3s.2-.2.2-.4c.2-.3.4-.7.6-1.1v-.3c.1,0,.2-.3.2-.3v-.3c0,0,.1,0,.1,0,0,0,0-.1.1-.1,0,0,0,0,.1,0,0,0,.1,0,.1,0h0s0,0,0,0h0s0,0,0,0h0s0,0,0,0h0c0,0,0,.1,0,.1v.2c0,0,.1.2.1.2v.2c0,0,0,0,0,0v.2c0,0,.1,0,.1,0h0c0,.1,0,.2,0,.2h0c0,0,.1.3.1.3,0,0,0,.2.1.2.3.5.7,1,1.1,1.5.1.1.3.3.4.4,0,0,0,0,0,0,.2.1.3.3.5.4.1.1.3.2.5.3.2.1.4.2.6.3h.2c0,.1.4.3.4.3h.2c0,0,.2.2.2.2Z"/>
</svg>