<?xml version="1.0" encoding="utf-8"?>
<!-- Generator: Adobe Illustrator 26.5.0, SVG Export Plug-In . SVG Version: 6.00 Build 0)  -->
<svg version="1.1" id="Layer_1" xmlns="http://www.w3.org/2000/svg" xmlns:xlink="http://www.w3.org/1999/xlink" x="0px" y="0px"
	 viewBox="0 0 141.7 141.7" style="enable-background:new 0 0 141.7 141.7;" xml:space="preserve">
<style type="text/css">
	.st0{fill:#FFFFFF;}
</style>
<path class="st0" d="M128.3,56.8v24.5H13.4V58.8c0.9,1.8,3.4,6.1,8.5,8.9c4,2.2,7.7,2.4,8.6,2.4c3.8,0.1,6.8-1,8.4-1.7
	c1.4,1.2,3.7,2.8,6.9,3.8c1.1,0.4,3.9,1.3,6.8,1.1c6.8-0.5,11.2-6.9,11.9-8.1c2,1.6,5.1,3.8,9.1,5.8c2.8,1.4,5,2.5,8.2,3.2
	c2,0.4,6.6,1.3,12.1-0.5c4.1-1.4,6.9-3.7,8.5-5.3c0.6,0.3,1.5,0.8,2.6,1.1c0.4,0.1,2.6,0.8,5.5,0.5c3.5-0.3,6.1-1.9,7.8-3
	c3.1-2,5.1-4.2,7.3-6.8C126.8,58.9,127.7,57.7,128.3,56.8z"/>
</svg>
