<?xml version="1.0" encoding="utf-8"?>
<!-- Generator: Adobe Illustrator 27.9.0, SVG Export Plug-In . SVG Version: 6.00 Build 0)  -->
<svg version="1.1" xmlns="http://www.w3.org/2000/svg" xmlns:xlink="http://www.w3.org/1999/xlink" x="0px" y="0px"
	 viewBox="0 0 141.73 141.73" style="enable-background:new 0 0 141.73 141.73;" xml:space="preserve">
<style type="text/css">
	.st0{fill:#FFFFFF;}
	.st1{fill:none;stroke:#000001;stroke-width:0.5;stroke-miterlimit:10;}
	.st2{fill:none;stroke:#000000;stroke-width:2;stroke-linecap:square;stroke-miterlimit:10;}
</style>
<g id="GUIDE">
	<rect x="0.54" y="-0.1" width="141.91" height="141.91"/>
	<g>
		<rect x="20.04" y="93.58" class="st0" width="12.7" height="3.89"/>
		<rect x="32.96" y="93.58" class="st0" width="12.7" height="3.89"/>
		<rect x="45.88" y="93.58" class="st0" width="12.7" height="3.89"/>
		<rect x="52.34" y="89.46" class="st0" width="12.7" height="3.89"/>
		<rect x="26.5" y="89.46" class="st0" width="12.7" height="3.89"/>
		<rect x="13.58" y="89.46" class="st0" width="12.7" height="3.89"/>
		<polygon class="st0" points="39.13,85.35 45.66,85.35 45.66,89.24 32.96,89.24 32.96,85.35 		"/>
		<polygon class="st0" points="52.05,89.24 45.88,89.24 45.88,85.35 58.58,85.35 58.58,89.24 		"/>
		<rect x="58.8" y="85.35" class="st0" width="12.7" height="3.89"/>
		<polygon class="st0" points="58.51,85.13 52.34,85.13 52.34,81.24 65.04,81.24 65.04,85.13 		"/>
		<polygon class="st0" points="45.59,85.13 39.42,85.13 39.42,81.24 52.12,81.24 52.12,85.13 		"/>
		<polygon class="st0" points="32.67,81.24 39.2,81.24 39.2,85.13 26.5,85.13 26.5,81.24 		"/>
		<rect x="13.58" y="81.24" class="st0" width="12.7" height="3.89"/>
		<rect x="58.8" y="77.13" class="st0" width="12.7" height="3.89"/>
		<rect x="20.04" y="77.13" class="st0" width="12.7" height="3.89"/>
		<polygon class="st0" points="58.51,73.02 65.04,73.02 65.04,76.91 52.34,76.91 52.34,73.02 		"/>
		<polygon class="st0" points="45.59,76.91 39.42,76.91 39.42,73.02 52.12,73.02 52.12,76.91 		"/>
		<rect x="26.5" y="73.02" class="st0" width="12.7" height="3.89"/>
		<rect x="13.58" y="73.02" class="st0" width="12.7" height="3.89"/>
		<polygon class="st0" points="26.21,68.91 32.74,68.91 32.74,72.8 20.04,72.8 20.04,68.91 		"/>
		<rect x="45.88" y="68.91" class="st0" width="12.7" height="3.89"/>
		<polygon class="st0" points="32.67,68.69 26.5,68.69 26.5,64.8 39.2,64.8 39.2,68.69 		"/>
		<polygon class="st0" points="19.75,64.8 26.28,64.8 26.28,68.69 13.58,68.69 13.58,64.8 		"/>
		<polygon class="st0" points="26.21,64.58 20.04,64.58 20.04,60.69 32.74,60.69 32.74,64.58 		"/>
		<rect x="32.96" y="60.69" class="st0" width="12.7" height="3.89"/>
		<rect x="26.5" y="56.57" class="st0" width="12.7" height="3.89"/>
		<rect x="13.58" y="56.57" class="st0" width="12.7" height="3.89"/>
		<rect x="39.42" y="64.8" class="st0" width="12.7" height="3.89"/>
		<polygon class="st0" points="32.74,52.53 32.74,56.35 20.04,56.35 20.04,52.53 26.21,52.53 26.21,52.18 26.21,52.53 		"/>
		<rect x="13.58" y="48.35" class="st0" width="12.7" height="3.89"/>
		<rect x="58.8" y="93.58" class="st0" width="12.7" height="3.89"/>
		<polygon class="st0" points="39.13,72.8 32.96,72.8 32.96,68.91 45.66,68.91 45.66,72.8 		"/>
		<polygon class="st0" points="71.43,76.91 65.26,76.91 65.26,73.02 77.96,73.02 77.96,76.91 		"/>
		<polygon class="st0" points="64.97,72.8 58.8,72.8 58.8,68.91 71.5,68.91 71.5,72.8 		"/>
		<polygon class="st0" points="58.51,68.69 52.34,68.69 52.34,64.8 65.04,64.8 65.04,68.69 		"/>
		<polygon class="st0" points="52.05,64.58 45.88,64.58 45.88,60.69 58.58,60.69 58.58,64.58 		"/>
		<polygon class="st0" points="45.59,60.46 39.42,60.46 39.42,56.57 52.12,56.57 52.12,60.46 		"/>
		<polygon class="st0" points="39.13,77.13 45.66,77.13 45.66,81.02 32.96,81.02 32.96,77.13 		"/>
		<polygon class="st0" points="39.13,56.35 32.96,56.35 32.96,52.46 45.66,52.46 45.66,56.35 		"/>
		<polygon class="st0" points="32.67,52.24 26.5,52.24 26.5,48.35 39.2,48.35 39.2,52.24 		"/>
		<rect x="45.88" y="77.13" class="st0" width="12.7" height="3.89"/>
		<polygon class="st0" points="26.21,48.13 20.04,48.13 20.04,44.24 32.74,44.24 32.74,48.13 		"/>
		<polygon class="st0" points="19.75,44.02 13.58,44.02 13.58,40.13 26.28,40.13 26.28,44.02 		"/>
		<polygon class="st0" points="71.43,81.24 77.96,81.24 77.96,85.13 65.26,85.13 65.26,81.24 		"/>
		<polygon class="st0" points="71.43,89.46 77.96,89.46 77.96,93.35 65.26,93.35 65.26,89.46 		"/>
		<rect x="71.72" y="85.35" class="st0" width="12.7" height="3.89"/>
		<rect x="71.72" y="77.13" class="st0" width="12.7" height="3.89"/>
		<rect x="20.04" y="85.35" class="st0" width="12.7" height="3.89"/>
		<polygon class="st0" points="84.35,81.24 90.88,81.24 90.88,85.13 78.18,85.13 78.18,81.24 		"/>
		<rect x="84.64" y="85.35" class="st0" width="12.7" height="3.89"/>
		<rect x="84.64" y="77.13" class="st0" width="12.7" height="3.89"/>
		<polygon class="st0" points="45.59,93.35 39.42,93.35 39.42,89.46 52.12,89.46 52.12,93.35 		"/>
		<rect x="110.48" y="68.91" class="st0" width="12.7" height="3.89"/>
		<rect x="104.02" y="73.02" class="st0" width="12.7" height="3.89"/>
		<rect x="110.48" y="77.13" class="st0" width="12.7" height="3.89"/>
		<rect x="97.56" y="77.13" class="st0" width="12.7" height="3.89"/>
		<rect x="104.02" y="81.24" class="st0" width="12.7" height="3.89"/>
		<rect x="110.48" y="85.35" class="st0" width="12.7" height="3.89"/>
		<rect x="104.02" y="89.46" class="st0" width="12.7" height="3.89"/>
		<rect x="110.48" y="93.58" class="st0" width="12.7" height="3.89"/>
		<polygon class="st0" points="123.47,89.46 129.64,89.46 129.64,93.35 116.94,93.35 116.94,89.46 		"/>
		<rect x="116.94" y="81.24" class="st0" width="12.7" height="3.89"/>
		<rect x="116.94" y="73.02" class="st0" width="12.7" height="3.89"/>
		<rect x="116.94" y="64.8" class="st0" width="12.7" height="3.89"/>
		<rect x="97.56" y="85.35" class="st0" width="12.7" height="3.89"/>
		<rect x="97.56" y="85.35" class="st0" width="12.7" height="3.89"/>
		<rect x="97.56" y="93.58" class="st0" width="12.7" height="3.89"/>
		<rect x="97.56" y="93.58" class="st0" width="12.7" height="3.89"/>
		<polygon class="st0" points="123.47,60.46 116.94,60.46 116.94,56.57 129.64,56.57 129.64,60.46 		"/>
		<rect x="110.48" y="60.69" class="st0" width="12.7" height="3.89"/>
		<rect x="104.02" y="64.8" class="st0" width="12.7" height="3.89"/>
		<polygon class="st0" points="104.09,72.8 97.56,72.8 97.56,68.91 110.26,68.91 110.26,72.8 		"/>
		<polygon class="st0" points="97.63,76.91 91.1,76.91 91.1,73.02 103.8,73.02 103.8,76.91 		"/>
		<rect x="91.1" y="81.24" class="st0" width="12.7" height="3.89"/>
		<rect x="91.1" y="89.46" class="st0" width="12.7" height="3.89"/>
	</g>
	<g>
		<rect x="20.04" y="93.58" class="st1" width="12.7" height="3.89"/>
		<rect x="32.96" y="93.58" class="st1" width="12.7" height="3.89"/>
		<rect x="45.88" y="93.58" class="st1" width="12.7" height="3.89"/>
		<rect x="52.34" y="89.46" class="st1" width="12.7" height="3.89"/>
		<rect x="26.5" y="89.46" class="st1" width="12.7" height="3.89"/>
		<rect x="13.58" y="89.46" class="st1" width="12.7" height="3.89"/>
		<polygon class="st1" points="39.13,85.35 45.66,85.35 45.66,89.24 32.96,89.24 32.96,85.35 		"/>
		<polygon class="st1" points="52.05,89.24 45.88,89.24 45.88,85.35 58.58,85.35 58.58,89.24 		"/>
		<rect x="58.8" y="85.35" class="st1" width="12.7" height="3.89"/>
		<polygon class="st1" points="58.51,85.13 52.34,85.13 52.34,81.24 65.04,81.24 65.04,85.13 		"/>
		<polygon class="st1" points="45.59,85.13 39.42,85.13 39.42,81.24 52.12,81.24 52.12,85.13 		"/>
		<polygon class="st1" points="32.67,81.24 39.2,81.24 39.2,85.13 26.5,85.13 26.5,81.24 		"/>
		<rect x="13.58" y="81.24" class="st1" width="12.7" height="3.89"/>
		<rect x="58.8" y="77.13" class="st1" width="12.7" height="3.89"/>
		<rect x="20.04" y="77.13" class="st1" width="12.7" height="3.89"/>
		<polygon class="st1" points="58.51,73.02 65.04,73.02 65.04,76.91 52.34,76.91 52.34,73.02 		"/>
		<polygon class="st1" points="45.59,76.91 39.42,76.91 39.42,73.02 52.12,73.02 52.12,76.91 		"/>
		<rect x="26.5" y="73.02" class="st1" width="12.7" height="3.89"/>
		<rect x="13.58" y="73.02" class="st1" width="12.7" height="3.89"/>
		<polygon class="st1" points="26.21,68.91 32.74,68.91 32.74,72.8 20.04,72.8 20.04,68.91 		"/>
		<rect x="45.88" y="68.91" class="st1" width="12.7" height="3.89"/>
		<polygon class="st1" points="32.67,68.69 26.5,68.69 26.5,64.8 39.2,64.8 39.2,68.69 		"/>
		<polygon class="st1" points="19.75,64.8 26.28,64.8 26.28,68.69 13.58,68.69 13.58,64.8 		"/>
		<polygon class="st1" points="26.21,64.58 20.04,64.58 20.04,60.69 32.74,60.69 32.74,64.58 		"/>
		<rect x="32.96" y="60.69" class="st1" width="12.7" height="3.89"/>
		<rect x="26.5" y="56.57" class="st1" width="12.7" height="3.89"/>
		<rect x="13.58" y="56.57" class="st1" width="12.7" height="3.89"/>
		<rect x="39.42" y="64.8" class="st1" width="12.7" height="3.89"/>
		<polygon class="st1" points="32.74,52.53 32.74,56.35 20.04,56.35 20.04,52.53 26.21,52.53 26.21,52.18 26.21,52.53 		"/>
		<rect x="13.58" y="48.35" class="st1" width="12.7" height="3.89"/>
		<rect x="58.8" y="93.58" class="st1" width="12.7" height="3.89"/>
		<polygon class="st1" points="39.13,72.8 32.96,72.8 32.96,68.91 45.66,68.91 45.66,72.8 		"/>
		<polygon class="st1" points="71.43,76.91 65.26,76.91 65.26,73.02 77.96,73.02 77.96,76.91 		"/>
		<polygon class="st1" points="64.97,72.8 58.8,72.8 58.8,68.91 71.5,68.91 71.5,72.8 		"/>
		<polygon class="st1" points="58.51,68.69 52.34,68.69 52.34,64.8 65.04,64.8 65.04,68.69 		"/>
		<polygon class="st1" points="52.05,64.58 45.88,64.58 45.88,60.69 58.58,60.69 58.58,64.58 		"/>
		<polygon class="st1" points="45.59,60.46 39.42,60.46 39.42,56.57 52.12,56.57 52.12,60.46 		"/>
		<polygon class="st1" points="39.13,77.13 45.66,77.13 45.66,81.02 32.96,81.02 32.96,77.13 		"/>
		<polygon class="st1" points="39.13,56.35 32.96,56.35 32.96,52.46 45.66,52.46 45.66,56.35 		"/>
		<polygon class="st1" points="32.67,52.24 26.5,52.24 26.5,48.35 39.2,48.35 39.2,52.24 		"/>
		<rect x="45.88" y="77.13" class="st1" width="12.7" height="3.89"/>
		<polygon class="st1" points="26.21,48.13 20.04,48.13 20.04,44.24 32.74,44.24 32.74,48.13 		"/>
		<polygon class="st1" points="19.75,44.02 13.58,44.02 13.58,40.13 26.28,40.13 26.28,44.02 		"/>
		<polygon class="st1" points="71.43,81.24 77.96,81.24 77.96,85.13 65.26,85.13 65.26,81.24 		"/>
		<polygon class="st1" points="71.43,89.46 77.96,89.46 77.96,93.35 65.26,93.35 65.26,89.46 		"/>
		<rect x="71.72" y="85.35" class="st1" width="12.7" height="3.89"/>
		<rect x="71.72" y="77.13" class="st1" width="12.7" height="3.89"/>
		<rect x="20.04" y="85.35" class="st1" width="12.7" height="3.89"/>
		<polygon class="st1" points="84.35,81.24 90.88,81.24 90.88,85.13 78.18,85.13 78.18,81.24 		"/>
		<rect x="84.64" y="85.35" class="st1" width="12.7" height="3.89"/>
		<rect x="84.64" y="77.13" class="st1" width="12.7" height="3.89"/>
		<polygon class="st1" points="45.59,93.35 39.42,93.35 39.42,89.46 52.12,89.46 52.12,93.35 		"/>
		<rect x="110.48" y="68.91" class="st1" width="12.7" height="3.89"/>
		<rect x="104.02" y="73.02" class="st1" width="12.7" height="3.89"/>
		<rect x="110.48" y="77.13" class="st1" width="12.7" height="3.89"/>
		<rect x="97.56" y="77.13" class="st1" width="12.7" height="3.89"/>
		<rect x="104.02" y="81.24" class="st1" width="12.7" height="3.89"/>
		<rect x="110.48" y="85.35" class="st1" width="12.7" height="3.89"/>
		<rect x="104.02" y="89.46" class="st1" width="12.7" height="3.89"/>
		<rect x="110.48" y="93.58" class="st1" width="12.7" height="3.89"/>
		<polygon class="st1" points="123.47,89.46 129.64,89.46 129.64,93.35 116.94,93.35 116.94,89.46 		"/>
		<rect x="116.94" y="81.24" class="st1" width="12.7" height="3.89"/>
		<rect x="116.94" y="73.02" class="st1" width="12.7" height="3.89"/>
		<rect x="116.94" y="64.8" class="st1" width="12.7" height="3.89"/>
		<rect x="97.56" y="85.35" class="st1" width="12.7" height="3.89"/>
		<rect x="97.56" y="85.35" class="st1" width="12.7" height="3.89"/>
		<rect x="97.56" y="93.58" class="st1" width="12.7" height="3.89"/>
		<rect x="97.56" y="93.58" class="st1" width="12.7" height="3.89"/>
		<polygon class="st1" points="123.47,60.46 116.94,60.46 116.94,56.57 129.64,56.57 129.64,60.46 		"/>
		<rect x="110.48" y="60.69" class="st1" width="12.7" height="3.89"/>
		<rect x="104.02" y="64.8" class="st1" width="12.7" height="3.89"/>
		<polygon class="st1" points="104.09,72.8 97.56,72.8 97.56,68.91 110.26,68.91 110.26,72.8 		"/>
		<polygon class="st1" points="97.63,76.91 91.1,76.91 91.1,73.02 103.8,73.02 103.8,76.91 		"/>
		<rect x="91.1" y="81.24" class="st1" width="12.7" height="3.89"/>
		<rect x="91.1" y="89.46" class="st1" width="12.7" height="3.89"/>
	</g>
	<line class="st2" x1="141.73" y1="139.55" x2="141.73" y2="139.55"/>
</g>
<g id="Layer_1">
	<line class="st2" x1="141.91" y1="139.46" x2="141.91" y2="139.46"/>
</g>
</svg>
