<?xml version="1.0" encoding="UTF-8"?>
<svg xmlns="http://www.w3.org/2000/svg" version="1.1" viewBox="0 0 150 150">
  <!-- Generator: Adobe Illustrator 29.3.1, SVG Export Plug-In . SVG Version: 2.1.0 Build 151)  -->
  <defs>
    <style>
      .st0 {
        fill: none;
        stroke: #fff;
        stroke-width: 2px;
      }
    </style>
  </defs>
  <g id="background">
    <rect width="150" height="150"/>
  </g>
  <g id="ICON">
    <g>
      <polyline class="st0" points="82.56 113.02 82.56 112.2 82.56 36.98 138.35 87.64 138.35 113.02"/>
      <polyline class="st0" points="82.56 113.02 82.56 112.72 82.56 81.93 70.74 74.97 70.74 113.02"/>
      <line class="st0" x1="70.76" y1="113.02" x2="71.02" y2="113.02"/>
      <polyline class="st0" points="70.74 113.02 70.74 112.72 70.74 81.93 58.93 74.97 58.93 113.02"/>
      <line class="st0" x1="58.94" y1="113.02" x2="59.2" y2="113.02"/>
      <polyline class="st0" points="58.93 113.02 58.93 112.72 58.93 81.93 47.11 74.97 47.11 113.02"/>
      <line class="st0" x1="47.13" y1="113.02" x2="47.38" y2="113.02"/>
      <polyline class="st0" points="47.11 113.02 47.11 112.72 47.11 81.93 35.29 74.97 35.29 113.02"/>
      <line class="st0" x1="35.31" y1="113.02" x2="35.57" y2="113.02"/>
      <polyline class="st0" points="35.29 113.02 35.29 112.72 35.29 81.93 23.47 74.97 23.47 113.02"/>
      <line class="st0" x1="23.49" y1="113.02" x2="23.75" y2="113.02"/>
      <polyline class="st0" points="23.47 113.02 23.47 112.72 23.47 81.93 11.65 74.97 11.65 113.02"/>
      <line class="st0" x1="11.67" y1="113.02" x2="11.93" y2="113.02"/>
    </g>
  </g>
</svg>