<?xml version="1.0" encoding="UTF-8"?>
<svg version="1.1" xmlns="http://www.w3.org/2000/svg" width="1200" height="1200">
<path d="M0 0 C396 0 792 0 1200 0 C1200 396 1200 792 1200 1200 C804 1200 408 1200 0 1200 C0 804 0 408 0 0 Z " fill="#CF142B" transform="translate(0,0)"/>
<path d="M0 0 C158.4 0 316.8 0 480 0 C480 158.4 480 316.8 480 480 C321.6 480 163.2 480 0 480 C0 321.6 0 163.2 0 0 Z " fill="#FEFEFE" transform="translate(720,720)"/>
<path d="M0 0 C158.4 0 316.8 0 480 0 C480 158.4 480 316.8 480 480 C321.6 480 163.2 480 0 480 C0 321.6 0 163.2 0 0 Z " fill="#FEFEFE" transform="translate(0,720)"/>
<path d="M0 0 C158.4 0 316.8 0 480 0 C480 158.4 480 316.8 480 480 C321.6 480 163.2 480 0 480 C0 321.6 0 163.2 0 0 Z " fill="#FEFEFE" transform="translate(720,0)"/>
<path d="M0 0 C158.4 0 316.8 0 480 0 C480 158.4 480 316.8 480 480 C321.6 480 163.2 480 0 480 C0 321.6 0 163.2 0 0 Z " fill="#FEFEFE" transform="translate(0,0)"/>
<path d="M0 0 C4.88649452 4.10126557 9.4980569 8.35500118 13.99896145 12.87312031 C15.0063731 13.8783518 15.0063731 13.8783518 16.0341365 14.903891 C18.27898903 17.14510057 20.52027218 19.38984518 22.76158142 21.63459778 C24.3884578 23.26032169 26.01555207 24.88582758 27.64284521 26.51113433 C32.11010221 30.97421568 36.57423352 35.44041204 41.03785431 39.90712965 C45.3584027 44.23019559 49.68178529 48.55042627 54.00484881 52.87097678 C63.38967182 62.25053723 72.77163595 71.63295314 82.15238299 81.01658987 C90.35788388 89.22460606 98.56431327 97.43169251 106.77166939 105.63785362 C107.31602249 106.18213034 107.8603756 106.72640707 108.42122426 107.28717702 C110.63085104 109.49649247 112.84048135 111.70580438 115.05011748 113.91511048 C135.7724614 134.63439614 156.4918891 155.35659585 177.21001215 176.08010205 C195.62982596 194.5046654 214.05222881 212.92663624 232.47680664 231.34643555 C253.17139505 252.03567465 273.86437384 272.72652145 294.55474097 293.41998214 C296.75817111 295.62373301 298.96160521 297.82747994 301.16504097 300.0312252 C301.70759361 300.57385692 302.25014624 301.11648863 302.80913987 301.67556373 C311.01572372 309.88328686 319.2235442 318.08977199 327.43195915 326.29566383 C336.7570531 335.61790573 346.08037287 344.94191787 355.40132033 354.26830576 C360.16148701 359.03115885 364.92251662 363.79314154 369.68567085 368.55300713 C374.03788099 372.9022576 378.38781251 377.25377305 382.73586554 381.60717937 C384.31686997 383.18930936 385.89873553 384.77057934 387.48150527 386.3509433 C389.61727415 388.48371239 391.75000121 390.61947536 393.88192654 392.7560854 C394.51043336 393.38225106 395.13894019 394.00841672 395.78649268 394.65355709 C400 398.88584955 400 398.88584955 400 400 C363.41493285 410.08251273 316.65489064 416.61679394 281.53853416 397.69051552 C232.20155949 369.4383413 191.72537799 322.16846783 152.81019107 281.56872019 C140.77852244 269.02716623 128.47652462 256.81825745 115.93017578 244.79248047 C-7.46586073 126.38826449 -7.46586073 126.38826449 -9.18459666 66.93825114 C-9.40881135 44.26366264 -6.0139287 21.82193976 0 0 Z " fill="#CF152C" transform="translate(0,0)"/>
<path d="M0 0 C10.13636801 36.3475515 16.55253559 82.59610817 -2.31096935 117.44407368 C-30.64918401 166.73206944 -77.88919494 207.18743708 -118.48700626 246.11607461 C-131.03255156 258.15621107 -143.24865872 270.46458816 -155.28295898 283.01489258 C-273.40773078 406.07255665 -273.40773078 406.07255665 -332.73407382 408.18917733 C-355.18888539 408.41288835 -377.40822277 405.02137395 -399 399 C-394.90335084 394.11930348 -390.65539011 389.51230929 -386.14249706 385.01665592 C-385.47403111 384.34673653 -384.80556516 383.67681713 -384.11684266 382.98659715 C-381.88137641 380.74748808 -379.64237533 378.51194826 -377.40336609 376.27638245 C-375.78176698 374.65363086 -374.16038589 373.03066139 -372.53920394 371.40749305 C-368.08752412 366.95163766 -363.63272939 362.49890788 -359.17741334 358.04668868 C-354.86560363 353.73690767 -350.55614109 349.42478205 -346.2466024 345.11273036 C-336.89097015 335.7518356 -327.5324825 326.39379967 -318.17277398 317.03698086 C-309.98569717 308.85241936 -301.79955012 300.66692935 -293.61432838 292.48051262 C-293.07143801 291.93754586 -292.52854763 291.3945791 -291.96920604 290.8351588 C-289.76551754 288.63115897 -287.56183257 286.4271556 -285.35815342 284.22314642 C-264.69170509 263.55363985 -244.02234273 242.88704948 -223.35167387 222.22176377 C-204.97410318 203.84894263 -186.59912501 185.47353243 -168.22631836 167.09594727 C-147.58981697 146.45409657 -126.95170788 125.81385549 -106.31098491 105.17622608 C-104.11285102 102.97841292 -101.91472107 100.7805958 -99.71659279 98.58277702 C-99.17534423 98.04160754 -98.63409566 97.50043805 -98.07644563 96.94286949 C-89.88965407 88.75721721 -81.70410051 80.57032831 -73.51914024 72.38284492 C-64.22068692 63.08153955 -54.92046335 53.78200836 -45.61786404 44.48484946 C-40.86716254 39.73683438 -36.11733145 34.98795638 -31.36961746 30.23695374 C-27.03146953 25.89584613 -22.69105662 21.55701716 -18.34875283 17.22006666 C-16.7706605 15.64309989 -15.19342818 14.06527198 -13.61710187 12.48653991 C-11.48977859 10.35621682 -9.35946147 8.22893562 -7.22829723 6.10245609 C-6.60373592 5.47555361 -5.97917461 4.84865113 -5.33568719 4.20275161 C-1.11415045 0 -1.11415045 0 0 0 Z " fill="#CF142B" transform="translate(400,801)"/>
<path d="M0 0 C36.3475515 -10.13636801 82.59610817 -16.55253559 117.44407368 2.31096935 C166.73206944 30.64918401 207.18743708 77.88919494 246.11607461 118.48700626 C258.15621107 131.03255156 270.46458816 143.24865872 283.01489258 155.28295898 C406.07255665 273.40773078 406.07255665 273.40773078 408.18917733 332.73407382 C408.41288835 355.18888539 405.02137395 377.40822277 399 399 C394.11930348 394.90335084 389.51230929 390.65539011 385.01665592 386.14249706 C384.34673653 385.47403111 383.67681713 384.80556516 382.98659715 384.11684266 C380.74748808 381.88137641 378.51194826 379.64237533 376.27638245 377.40336609 C374.65363086 375.78176698 373.03066139 374.16038589 371.40749305 372.53920394 C366.95163766 368.08752412 362.49890788 363.63272939 358.04668868 359.17741334 C353.73690767 354.86560363 349.42478205 350.55614109 345.11273036 346.2466024 C335.7518356 336.89097015 326.39379967 327.5324825 317.03698086 318.17277398 C308.85241936 309.98569717 300.66692935 301.79955012 292.48051262 293.61432838 C291.93754586 293.07143801 291.3945791 292.52854763 290.8351588 291.96920604 C288.63115897 289.76551754 286.4271556 287.56183257 284.22314642 285.35815342 C263.55363985 264.69170509 242.88704948 244.02234273 222.22176377 223.35167387 C203.84894263 204.97410318 185.47353243 186.59912501 167.09594727 168.22631836 C146.45409657 147.58981697 125.81385549 126.95170788 105.17622608 106.31098491 C102.97841292 104.11285102 100.7805958 101.91472107 98.58277702 99.71659279 C98.04160754 99.17534423 97.50043805 98.63409566 96.94286949 98.07644563 C88.75721721 89.88965407 80.57032831 81.70410051 72.38284492 73.51914024 C63.08153955 64.22068692 53.78200836 54.92046335 44.48484946 45.61786404 C39.73683438 40.86716254 34.98795638 36.11733145 30.23695374 31.36961746 C25.89584613 27.03146953 21.55701716 22.69105662 17.22006666 18.34875283 C15.64309989 16.7706605 14.06527198 15.19342818 12.48653991 13.61710187 C10.35621682 11.48977859 8.22893562 9.35946147 6.10245609 7.22829723 C5.47555361 6.60373592 4.84865113 5.97917461 4.20275161 5.33568719 C0 1.11415045 0 1.11415045 0 0 Z " fill="#CF142B" transform="translate(801,800)"/>
<path d="M0 0 C-4.09664916 4.88069652 -8.34460989 9.48769071 -12.85750294 13.98334408 C-13.52596889 14.65326347 -14.19443484 15.32318287 -14.88315734 16.01340285 C-17.11862359 18.25251192 -19.35762467 20.48805174 -21.59663391 22.72361755 C-23.21823302 24.34636914 -24.83961411 25.96933861 -26.46079606 27.59250695 C-30.91247588 32.04836234 -35.36727061 36.50109212 -39.82258666 40.95331132 C-44.13439637 45.26309233 -48.44385891 49.57521795 -52.7533976 53.88726964 C-62.10902985 63.2481644 -71.4675175 72.60620033 -80.82722602 81.96301914 C-89.01430283 90.14758064 -97.20044988 98.33307065 -105.38567162 106.51948738 C-105.92856199 107.06245414 -106.47145237 107.6054209 -107.03079396 108.1648412 C-109.23448246 110.36884103 -111.43816743 112.5728444 -113.64184658 114.77685358 C-134.30829491 135.44636015 -154.97765727 156.11295052 -175.64832613 176.77823623 C-194.02589682 195.15105737 -212.40087499 213.52646757 -230.77368164 231.90405273 C-251.41018303 252.54590343 -272.04829212 273.18614451 -292.68901509 293.82377392 C-294.88714898 296.02158708 -297.08527893 298.2194042 -299.28340721 300.41722298 C-299.82465577 300.95839246 -300.36590434 301.49956195 -300.92355437 302.05713051 C-309.11034593 310.24278279 -317.29589949 318.42967169 -325.48085976 326.61715508 C-334.77931308 335.91846045 -344.07953665 345.21799164 -353.38213596 354.51515054 C-358.13283746 359.26316562 -362.88266855 364.01204362 -367.63038254 368.76304626 C-371.96853047 373.10415387 -376.30894338 377.44298284 -380.65124717 381.77993334 C-382.2293395 383.35690011 -383.80657182 384.93472802 -385.38289813 386.51346009 C-387.51022141 388.64378318 -389.64053853 390.77106438 -391.77170277 392.89754391 C-392.70854474 393.83789763 -392.70854474 393.83789763 -393.66431281 394.79724839 C-397.88584955 399 -397.88584955 399 -399 399 C-409.13636801 362.6524485 -415.55253559 316.40389183 -396.68903065 281.55592632 C-368.35081599 232.26793056 -321.11080506 191.81256292 -280.51299374 152.88392539 C-267.96744844 140.84378893 -255.75134128 128.53541184 -243.71704102 115.98510742 C-104.4268239 -29.1218713 -104.4268239 -29.1218713 0 0 Z " fill="#CF142B" transform="translate(1199,0)"/>
<path d="M0 0 C7.8750454 6.75003892 7.8750454 6.75003892 11.34400845 10.2181673 C12.134743 11.00629411 12.92547755 11.79442092 13.74017376 12.60643035 C15.01111113 13.8807138 15.01111113 13.8807138 16.307724 15.18074036 C17.22433715 16.09579352 18.1409503 17.01084668 19.08533961 17.95362872 C21.61432005 20.4784543 24.14019619 23.00636518 26.66554606 25.53482139 C29.39507586 28.26662058 32.12748997 30.99553227 34.85952759 33.724823 C40.20344921 39.06430548 45.54467307 44.40647869 50.88492405 49.7496321 C55.22264181 54.08960977 59.56133649 58.42860855 63.90072823 62.76691246 C64.51868535 63.38471635 65.13664248 64.00252025 65.77332558 64.63904547 C67.02868361 65.89408377 68.28404388 67.14911983 69.53940637 68.40415367 C81.29962628 80.1615246 93.05678333 91.92195449 104.81289018 103.68343785 C114.90908507 113.78410691 125.0079083 123.88214191 135.10864258 133.97827148 C146.83781764 145.70210198 158.56537792 157.42754386 170.29034334 169.15558451 C171.53888751 170.40444723 172.78743376 171.65330786 174.03598213 172.90216637 C174.65031381 173.51665232 175.26464548 174.13113827 175.89759327 174.76424501 C180.23589426 179.10341101 184.57535781 183.44141229 188.91526604 187.77897072 C194.19627576 193.05718386 199.47551643 198.33715863 204.75245582 203.61944125 C207.44687578 206.31649912 210.1421072 209.0127331 212.83949089 211.70682716 C215.75608496 214.61991781 218.66882784 217.53682792 221.5811615 220.45417786 C222.44406813 221.31485377 223.30697476 222.17552968 224.19603008 223.06228667 C224.9685104 223.83737474 225.74099072 224.61246281 226.53687954 225.4110384 C227.54731938 226.42172177 227.54731938 226.42172177 228.57817215 227.45282298 C230 229 230 229 230 230 C154.1 230 78.2 230 0 230 C0 154.1 0 78.2 0 0 Z " fill="#00247D" transform="translate(800,970)"/>
<path d="M0 0 C0 75.9 0 151.8 0 230 C-75.9 230 -151.8 230 -230 230 C-223.24996108 222.1249546 -223.24996108 222.1249546 -219.7818327 218.65599155 C-218.99370589 217.865257 -218.20557908 217.07452245 -217.39356965 216.25982624 C-216.1192862 214.98888887 -216.1192862 214.98888887 -214.81925964 213.692276 C-213.4466799 212.31735628 -213.4466799 212.31735628 -212.04637128 210.91466039 C-209.5215457 208.38567995 -206.99363482 205.85980381 -204.46517861 203.33445394 C-201.73337942 200.60492414 -199.00446773 197.87251003 -196.275177 195.14047241 C-190.93569452 189.79655079 -185.59352131 184.45532693 -180.2503679 179.11507595 C-175.91039023 174.77735819 -171.57139145 170.43866351 -167.23308754 166.09927177 C-166.61528365 165.48131465 -165.99747975 164.86335752 -165.36095453 164.22667442 C-164.10591623 162.97131639 -162.85088017 161.71595612 -161.59584633 160.46059363 C-149.8384754 148.70037372 -138.07804551 136.94321667 -126.31656215 125.18710982 C-116.21589309 115.09091493 -106.11785809 104.9920917 -96.02172852 94.89135742 C-84.29789802 83.16218236 -72.57245614 71.43462208 -60.84441549 59.70965666 C-59.59555277 58.46111249 -58.34669214 57.21256624 -57.09783363 55.96401787 C-56.48334768 55.34968619 -55.86886173 54.73535452 -55.23575499 54.10240673 C-50.89658899 49.76410574 -46.55858771 45.42464219 -42.22102928 41.08473396 C-36.94281614 35.80372424 -31.66284137 30.52448357 -26.38055875 25.24754418 C-23.68350088 22.55312422 -20.9872669 19.8578928 -18.29317284 17.16050911 C-15.38008219 14.24391504 -12.46317208 11.33117216 -9.54582214 8.4188385 C-8.25480828 7.12447855 -8.25480828 7.12447855 -6.93771333 5.80396992 C-6.16262526 5.0314896 -5.38753719 4.25900928 -4.5889616 3.46312046 C-3.57827823 2.45268062 -3.57827823 2.45268062 -2.54717702 1.42182785 C-1 0 -1 0 0 0 Z " fill="#00247D" transform="translate(400,970)"/>
<path d="M0 0 C75.9 0 151.8 0 230 0 C230 75.9 230 151.8 230 230 C222.1249546 223.24996108 222.1249546 223.24996108 218.65599155 219.7818327 C217.865257 218.99370589 217.07452245 218.20557908 216.25982624 217.39356965 C214.98888887 216.1192862 214.98888887 216.1192862 213.692276 214.81925964 C212.77566285 213.90420648 211.8590497 212.98915332 210.91466039 212.04637128 C208.38567995 209.5215457 205.85980381 206.99363482 203.33445394 204.46517861 C200.60492414 201.73337942 197.87251003 199.00446773 195.14047241 196.275177 C189.79655079 190.93569452 184.45532693 185.59352131 179.11507595 180.2503679 C174.77735819 175.91039023 170.43866351 171.57139145 166.09927177 167.23308754 C165.48131465 166.61528365 164.86335752 165.99747975 164.22667442 165.36095453 C162.97131639 164.10591623 161.71595612 162.85088017 160.46059363 161.59584633 C148.70037372 149.8384754 136.94321667 138.07804551 125.18710982 126.31656215 C115.09091493 116.21589309 104.9920917 106.11785809 94.89135742 96.02172852 C83.16218236 84.29789802 71.43462208 72.57245614 59.70965666 60.84441549 C58.46111249 59.59555277 57.21256624 58.34669214 55.96401787 57.09783363 C55.34968619 56.48334768 54.73535452 55.86886173 54.10240673 55.23575499 C49.76410574 50.89658899 45.42464219 46.55858771 41.08473396 42.22102928 C35.80372424 36.94281614 30.52448357 31.66284137 25.24754418 26.38055875 C22.55312422 23.68350088 19.8578928 20.9872669 17.16050911 18.29317284 C14.24391504 15.38008219 11.33117216 12.46317208 8.4188385 9.54582214 C7.55593187 8.68514623 6.69302524 7.82447032 5.80396992 6.93771333 C5.0314896 6.16262526 4.25900928 5.38753719 3.46312046 4.5889616 C2.7894939 3.91517269 2.11586734 3.24138378 1.42182785 2.54717702 C0 1 0 1 0 0 Z " fill="#00247D" transform="translate(970,800)"/>
<path d="M0 0 C75.9 0 151.8 0 230 0 C223.24996108 7.8750454 223.24996108 7.8750454 219.7818327 11.34400845 C218.99370589 12.134743 218.20557908 12.92547755 217.39356965 13.74017376 C216.1192862 15.01111113 216.1192862 15.01111113 214.81925964 16.307724 C213.90420648 17.22433715 212.98915332 18.1409503 212.04637128 19.08533961 C209.5215457 21.61432005 206.99363482 24.14019619 204.46517861 26.66554606 C201.73337942 29.39507586 199.00446773 32.12748997 196.275177 34.85952759 C190.93569452 40.20344921 185.59352131 45.54467307 180.2503679 50.88492405 C175.91039023 55.22264181 171.57139145 59.56133649 167.23308754 63.90072823 C166.61528365 64.51868535 165.99747975 65.13664248 165.36095453 65.77332558 C164.10591623 67.02868361 162.85088017 68.28404388 161.59584633 69.53940637 C149.8384754 81.29962628 138.07804551 93.05678333 126.31656215 104.81289018 C116.21589309 114.90908507 106.11785809 125.0079083 96.02172852 135.10864258 C84.29789802 146.83781764 72.57245614 158.56537792 60.84441549 170.29034334 C59.59555277 171.53888751 58.34669214 172.78743376 57.09783363 174.03598213 C56.48334768 174.65031381 55.86886173 175.26464548 55.23575499 175.89759327 C50.89658899 180.23589426 46.55858771 184.57535781 42.22102928 188.91526604 C36.94281614 194.19627576 31.66284137 199.47551643 26.38055875 204.75245582 C23.68350088 207.44687578 20.9872669 210.1421072 18.29317284 212.83949089 C15.38008219 215.75608496 12.46317208 218.66882784 9.54582214 221.5811615 C8.68514623 222.44406813 7.82447032 223.30697476 6.93771333 224.19603008 C6.16262526 224.9685104 5.38753719 225.74099072 4.5889616 226.53687954 C3.57827823 227.54731938 3.57827823 227.54731938 2.54717702 228.57817215 C1 230 1 230 0 230 C0 154.1 0 78.2 0 0 Z " fill="#00247D" transform="translate(0,800)"/>
<path d="M0 0 C0 75.9 0 151.8 0 230 C-75.9 230 -151.8 230 -230 230 C-223.24996108 222.1249546 -223.24996108 222.1249546 -219.7818327 218.65599155 C-218.99370589 217.865257 -218.20557908 217.07452245 -217.39356965 216.25982624 C-216.1192862 214.98888887 -216.1192862 214.98888887 -214.81925964 213.692276 C-213.4466799 212.31735628 -213.4466799 212.31735628 -212.04637128 210.91466039 C-209.5215457 208.38567995 -206.99363482 205.85980381 -204.46517861 203.33445394 C-201.73337942 200.60492414 -199.00446773 197.87251003 -196.275177 195.14047241 C-190.93569452 189.79655079 -185.59352131 184.45532693 -180.2503679 179.11507595 C-175.91039023 174.77735819 -171.57139145 170.43866351 -167.23308754 166.09927177 C-166.61528365 165.48131465 -165.99747975 164.86335752 -165.36095453 164.22667442 C-164.10591623 162.97131639 -162.85088017 161.71595612 -161.59584633 160.46059363 C-149.8384754 148.70037372 -138.07804551 136.94321667 -126.31656215 125.18710982 C-116.21589309 115.09091493 -106.11785809 104.9920917 -96.02172852 94.89135742 C-84.29789802 83.16218236 -72.57245614 71.43462208 -60.84441549 59.70965666 C-59.59555277 58.46111249 -58.34669214 57.21256624 -57.09783363 55.96401787 C-56.48334768 55.34968619 -55.86886173 54.73535452 -55.23575499 54.10240673 C-50.89658899 49.76410574 -46.55858771 45.42464219 -42.22102928 41.08473396 C-36.94281614 35.80372424 -31.66284137 30.52448357 -26.38055875 25.24754418 C-23.68350088 22.55312422 -20.9872669 19.8578928 -18.29317284 17.16050911 C-15.38008219 14.24391504 -12.46317208 11.33117216 -9.54582214 8.4188385 C-8.25480828 7.12447855 -8.25480828 7.12447855 -6.93771333 5.80396992 C-6.16262526 5.0314896 -5.38753719 4.25900928 -4.5889616 3.46312046 C-3.57827823 2.45268062 -3.57827823 2.45268062 -2.54717702 1.42182785 C-1 0 -1 0 0 0 Z " fill="#00247D" transform="translate(1200,170)"/>
<path d="M0 0 C7.8750454 6.75003892 7.8750454 6.75003892 11.34400845 10.2181673 C12.134743 11.00629411 12.92547755 11.79442092 13.74017376 12.60643035 C15.01111113 13.8807138 15.01111113 13.8807138 16.307724 15.18074036 C17.22433715 16.09579352 18.1409503 17.01084668 19.08533961 17.95362872 C21.61432005 20.4784543 24.14019619 23.00636518 26.66554606 25.53482139 C29.39507586 28.26662058 32.12748997 30.99553227 34.85952759 33.724823 C40.20344921 39.06430548 45.54467307 44.40647869 50.88492405 49.7496321 C55.22264181 54.08960977 59.56133649 58.42860855 63.90072823 62.76691246 C64.51868535 63.38471635 65.13664248 64.00252025 65.77332558 64.63904547 C67.02868361 65.89408377 68.28404388 67.14911983 69.53940637 68.40415367 C81.29962628 80.1615246 93.05678333 91.92195449 104.81289018 103.68343785 C114.90908507 113.78410691 125.0079083 123.88214191 135.10864258 133.97827148 C146.83781764 145.70210198 158.56537792 157.42754386 170.29034334 169.15558451 C171.53888751 170.40444723 172.78743376 171.65330786 174.03598213 172.90216637 C174.65031381 173.51665232 175.26464548 174.13113827 175.89759327 174.76424501 C180.23589426 179.10341101 184.57535781 183.44141229 188.91526604 187.77897072 C194.19627576 193.05718386 199.47551643 198.33715863 204.75245582 203.61944125 C207.44687578 206.31649912 210.1421072 209.0127331 212.83949089 211.70682716 C215.75608496 214.61991781 218.66882784 217.53682792 221.5811615 220.45417786 C222.44406813 221.31485377 223.30697476 222.17552968 224.19603008 223.06228667 C224.9685104 223.83737474 225.74099072 224.61246281 226.53687954 225.4110384 C227.54731938 226.42172177 227.54731938 226.42172177 228.57817215 227.45282298 C230 229 230 229 230 230 C154.1 230 78.2 230 0 230 C0 154.1 0 78.2 0 0 Z " fill="#00247D" transform="translate(0,170)"/>
<path d="M0 0 C75.9 0 151.8 0 230 0 C223.24996108 7.8750454 223.24996108 7.8750454 219.7818327 11.34400845 C218.99370589 12.134743 218.20557908 12.92547755 217.39356965 13.74017376 C216.1192862 15.01111113 216.1192862 15.01111113 214.81925964 16.307724 C213.90420648 17.22433715 212.98915332 18.1409503 212.04637128 19.08533961 C209.5215457 21.61432005 206.99363482 24.14019619 204.46517861 26.66554606 C201.73337942 29.39507586 199.00446773 32.12748997 196.275177 34.85952759 C190.93569452 40.20344921 185.59352131 45.54467307 180.2503679 50.88492405 C175.91039023 55.22264181 171.57139145 59.56133649 167.23308754 63.90072823 C166.61528365 64.51868535 165.99747975 65.13664248 165.36095453 65.77332558 C164.10591623 67.02868361 162.85088017 68.28404388 161.59584633 69.53940637 C149.8384754 81.29962628 138.07804551 93.05678333 126.31656215 104.81289018 C116.21589309 114.90908507 106.11785809 125.0079083 96.02172852 135.10864258 C84.29789802 146.83781764 72.57245614 158.56537792 60.84441549 170.29034334 C59.59555277 171.53888751 58.34669214 172.78743376 57.09783363 174.03598213 C56.48334768 174.65031381 55.86886173 175.26464548 55.23575499 175.89759327 C50.89658899 180.23589426 46.55858771 184.57535781 42.22102928 188.91526604 C36.94281614 194.19627576 31.66284137 199.47551643 26.38055875 204.75245582 C23.68350088 207.44687578 20.9872669 210.1421072 18.29317284 212.83949089 C15.38008219 215.75608496 12.46317208 218.66882784 9.54582214 221.5811615 C8.68514623 222.44406813 7.82447032 223.30697476 6.93771333 224.19603008 C6.16262526 224.9685104 5.38753719 225.74099072 4.5889616 226.53687954 C3.57827823 227.54731938 3.57827823 227.54731938 2.54717702 228.57817215 C1 230 1 230 0 230 C0 154.1 0 78.2 0 0 Z " fill="#00247D" transform="translate(800,0)"/>
<path d="M0 0 C75.9 0 151.8 0 230 0 C230 75.9 230 151.8 230 230 C222.1249546 223.24996108 222.1249546 223.24996108 218.65599155 219.7818327 C217.865257 218.99370589 217.07452245 218.20557908 216.25982624 217.39356965 C214.98888887 216.1192862 214.98888887 216.1192862 213.692276 214.81925964 C212.77566285 213.90420648 211.8590497 212.98915332 210.91466039 212.04637128 C208.38567995 209.5215457 205.85980381 206.99363482 203.33445394 204.46517861 C200.60492414 201.73337942 197.87251003 199.00446773 195.14047241 196.275177 C189.79655079 190.93569452 184.45532693 185.59352131 179.11507595 180.2503679 C174.77735819 175.91039023 170.43866351 171.57139145 166.09927177 167.23308754 C165.48131465 166.61528365 164.86335752 165.99747975 164.22667442 165.36095453 C162.97131639 164.10591623 161.71595612 162.85088017 160.46059363 161.59584633 C148.70037372 149.8384754 136.94321667 138.07804551 125.18710982 126.31656215 C115.09091493 116.21589309 104.9920917 106.11785809 94.89135742 96.02172852 C83.16218236 84.29789802 71.43462208 72.57245614 59.70965666 60.84441549 C58.46111249 59.59555277 57.21256624 58.34669214 55.96401787 57.09783363 C55.34968619 56.48334768 54.73535452 55.86886173 54.10240673 55.23575499 C49.76410574 50.89658899 45.42464219 46.55858771 41.08473396 42.22102928 C35.80372424 36.94281614 30.52448357 31.66284137 25.24754418 26.38055875 C22.55312422 23.68350088 19.8578928 20.9872669 17.16050911 18.29317284 C14.24391504 15.38008219 11.33117216 12.46317208 8.4188385 9.54582214 C7.55593187 8.68514623 6.69302524 7.82447032 5.80396992 6.93771333 C5.0314896 6.16262526 4.25900928 5.38753719 3.46312046 4.5889616 C2.7894939 3.91517269 2.11586734 3.24138378 1.42182785 2.54717702 C0 1 0 1 0 0 Z " fill="#00247D" transform="translate(170,0)"/>
</svg>
