<?xml version="1.0" encoding="UTF-8"?>
<svg id="Layer_1" data-name="Layer 1" xmlns="http://www.w3.org/2000/svg" version="1.1" viewBox="0 0 150 150">
  <defs>
    <style>
      .cls-1 {
        fill: #fff;
        stroke-width: 0px;
      }
    </style>
  </defs>
  <g id="ICON">
    <path class="cls-1" d="M33.4,24.6v88.6h0v.2c0,.3,0,.6.2.8.2.3.4.5.7.6.1,0,.3,0,.4.1,0,0,0,0,0,0h1.8v-61.6h0q0,0,0,0h18.8v67.5h0s0,0,0,0h10.3c.3,0,.6,0,.9,0,.6,0,1.1-.1,1.6-.3,2.2-.5,4.2-1.6,6.1-2.6.5-.3,1-.5,1.4-.8.5-.3.9-.5,1.4-.7.9-.4,1.8-.9,2.7-1.2.7-.2,1.4-.3,2.1-.4h.2V37.9c0-.1,0-.2,0-.3,0-.4,0-.9.2-1.3.2-.9.4-1.7.8-2.5.4-.8.8-1.6,1.4-2.2.3-.3.6-.7.9-1,.3-.3.7-.6,1-.9,1.5-1.1,3.2-1.8,5.1-2,.2,0,.4,0,.7,0,.1,0,.2,0,.3,0h36.1v97.8h0s0,0,0,0H33.2c-.2,0-.4,0-.6,0-.4,0-.9,0-1.3-.2-1.8-.3-3.6-1.1-5-2.2-1.5-1.2-2.8-2.6-3.6-4.4-.4-.8-.7-1.7-.9-2.6-.2-.8-.3-1.7-.3-2.6V24.6h0c0,0,0,0,0,0h.6c3.8,0,7.6,0,11.4,0ZM92.3,39.2v75.6h16.2V37.9h0v-.2h0s-.1,0-.2,0h-14.5c0,0-.1,0-.2,0s-.2,0-.2,0c-.3,0-.6.3-.8.6-.2.2-.3.5-.3.9Z"/>
  </g>
</svg>