<?xml version="1.0" encoding="utf-8"?>
<!-- Generator: Adobe Illustrator 28.2.0, SVG Export Plug-In . SVG Version: 6.00 Build 0)  -->
<svg version="1.1" xmlns="http://www.w3.org/2000/svg" xmlns:xlink="http://www.w3.org/1999/xlink" x="0px" y="0px"
	 viewBox="0 0 42.5 42.5" style="enable-background:new 0 0 42.5 42.5;" xml:space="preserve">
<style type="text/css">
	.st0{fill:none;stroke:#000000;stroke-width:2;stroke-linecap:square;stroke-miterlimit:10;}
	.st1{fill:#FFFFFF;}
</style>
<g id="Layer_1">
	<line class="st0" x1="97.2" y1="24.4" x2="97.2" y2="24.4"/>
</g>
<g id="GUIDE">
	<rect width="42.5" height="42.5"/>
	<polygon class="st1" points="4.3,11.1 3.8,14.8 4.4,21.9 6.1,28.6 8.9,35.2 11.1,38.2 14.8,38.7 21.9,38.2 28.6,36.4 35.2,33.6 
		38.2,31.4 38.7,27.7 38.2,20.6 36.4,13.9 33.6,7.4 31.4,4.3 27.7,3.8 20.6,4.4 13.9,6.1 7.4,8.9 	"/>
	<g>
		<path d="M31.6,33.8c-0.1,0-0.2,0-0.2-0.1c-0.2-0.1-0.3-0.4-0.2-0.6l5.2-8.6c0.1-0.2,0.4-0.3,0.6-0.2c0.2,0.1,0.3,0.4,0.2,0.6
			L32,33.6C31.9,33.8,31.8,33.8,31.6,33.8z"/>
		<path d="M24.7,35.6c-0.1,0-0.2,0-0.2-0.1c-0.2-0.1-0.3-0.4-0.2-0.6l10.4-17.3c0.1-0.2,0.4-0.3,0.6-0.2c0.2,0.1,0.3,0.4,0.2,0.6
			L25.1,35.3C25,35.5,24.9,35.6,24.7,35.6z"/>
		<path d="M17.8,37.3c-0.1,0-0.2,0-0.2-0.1c-0.2-0.1-0.3-0.4-0.2-0.6L33,10.7c0.1-0.2,0.4-0.3,0.6-0.2c0.2,0.1,0.3,0.4,0.2,0.6
			L18.2,37.1C18.1,37.2,17.9,37.3,17.8,37.3z"/>
		<path d="M36.8,25.2c-0.1,0-0.2,0-0.2-0.1L10.7,9.5c-0.2-0.1-0.3-0.4-0.2-0.6c0.1-0.2,0.4-0.3,0.6-0.2l25.9,15.6
			c0.2,0.1,0.3,0.4,0.2,0.6C37.1,25.1,37,25.2,36.8,25.2z"/>
		<path d="M35.1,18.3c-0.1,0-0.2,0-0.2-0.1L17.6,7.8c-0.2-0.1-0.3-0.4-0.2-0.6C17.5,7,17.8,6.9,18,7l17.3,10.4
			c0.2,0.1,0.3,0.4,0.2,0.6C35.4,18.2,35.3,18.3,35.1,18.3z"/>
		<path d="M33.4,11.4c-0.1,0-0.2,0-0.2-0.1l-8.6-5.2c-0.2-0.1-0.3-0.4-0.2-0.6c0.1-0.2,0.4-0.3,0.6-0.2l8.6,5.2
			c0.2,0.1,0.3,0.4,0.2,0.6C33.7,11.3,33.5,11.4,33.4,11.4z"/>
		<path d="M9.1,32.1c-0.1,0-0.2,0-0.2-0.1c-0.2-0.1-0.3-0.4-0.2-0.6L24.3,5.5c0.1-0.2,0.4-0.3,0.6-0.2c0.2,0.1,0.3,0.4,0.2,0.6
			L9.5,31.9C9.5,32,9.3,32.1,9.1,32.1z"/>
		<path d="M7.4,25.2c-0.1,0-0.2,0-0.2-0.1C7,25,6.9,24.7,7,24.5L17.4,7.2C17.5,7,17.8,6.9,18,7c0.2,0.1,0.3,0.4,0.2,0.6L7.8,24.9
			C7.7,25.1,7.6,25.2,7.4,25.2z"/>
		<path d="M5.7,18.3c-0.1,0-0.2,0-0.2-0.1c-0.2-0.1-0.3-0.4-0.2-0.6l5.2-8.6c0.1-0.2,0.4-0.3,0.6-0.2c0.2,0.1,0.3,0.4,0.2,0.6
			L6.1,18C6,18.2,5.9,18.3,5.7,18.3z"/>
		<path d="M31.6,33.8c-0.1,0-0.2,0-0.2-0.1L5.5,18.2c-0.2-0.1-0.3-0.4-0.2-0.6c0.1-0.2,0.4-0.3,0.6-0.2L31.9,33
			c0.2,0.1,0.3,0.4,0.2,0.6C31.9,33.8,31.8,33.8,31.6,33.8z"/>
		<path d="M24.7,35.6c-0.1,0-0.2,0-0.2-0.1L7.2,25.1C7,25,6.9,24.7,7,24.5c0.1-0.2,0.4-0.3,0.6-0.2l17.3,10.4
			c0.2,0.1,0.3,0.4,0.2,0.6C25,35.5,24.9,35.6,24.7,35.6z"/>
		<path d="M17.8,37.3c-0.1,0-0.2,0-0.2-0.1L8.9,32c-0.2-0.1-0.3-0.4-0.2-0.6c0.1-0.2,0.4-0.3,0.6-0.2l8.6,5.2
			c0.2,0.1,0.3,0.4,0.2,0.6C18.1,37.2,17.9,37.3,17.8,37.3z"/>
		<path d="M38.5,32.1c-0.1,0-0.2,0-0.2-0.1L3.7,11.3c-0.2-0.1-0.3-0.4-0.2-0.6c0.1-0.2,0.4-0.3,0.6-0.2l34.6,20.8
			c0.2,0.1,0.3,0.4,0.2,0.6C38.9,32,38.7,32.1,38.5,32.1z"/>
		<path d="M10.9,39c-0.1,0-0.2,0-0.2-0.1c-0.2-0.1-0.3-0.4-0.2-0.6L31.2,3.7c0.1-0.2,0.4-0.3,0.6-0.2C32.1,3.7,32.2,4,32,4.2
			L11.3,38.8C11.2,38.9,11,39,10.9,39z"/>
		<path d="M14.7,39.5c-0.1,0-0.3-0.1-0.4-0.2c-0.2-0.2-0.1-0.5,0.1-0.7l3.1-2.2c0.1-0.1,0.3-0.1,0.4-0.1l3.8,1.5l2.6-3.1
			c0.1-0.2,0.3-0.2,0.5-0.1l3.7,1.5l2.6-3.1c0.1-0.1,0.3-0.2,0.4-0.2l3.8,0.5c0.3,0,0.4,0.3,0.4,0.5c0,0.3-0.3,0.4-0.5,0.4l-3.6-0.5
			L29.1,37c-0.1,0.2-0.3,0.2-0.5,0.1l-3.7-1.5l-2.6,3.1c-0.1,0.2-0.3,0.2-0.5,0.1l-3.9-1.6L15,39.4C14.9,39.5,14.8,39.5,14.7,39.5z"
			/>
		<path d="M39.1,28.3c-0.1,0-0.3-0.1-0.4-0.2L36.4,25c-0.1-0.1-0.1-0.3-0.1-0.4l1.5-3.8l-3.1-2.6c-0.2-0.1-0.2-0.3-0.1-0.5l1.5-3.7
			l-3.1-2.7c-0.1-0.1-0.2-0.3-0.2-0.4L33.4,7c0-0.3,0.3-0.4,0.5-0.4c0.3,0,0.4,0.3,0.4,0.5l-0.5,3.6l3.1,2.7
			c0.2,0.1,0.2,0.3,0.1,0.5l-1.5,3.7l3.1,2.6c0.2,0.1,0.2,0.3,0.1,0.5l-1.6,3.9l2.1,2.9c0.2,0.2,0.1,0.5-0.1,0.7
			C39.3,28.3,39.2,28.3,39.1,28.3z"/>
		<path d="M10.9,9.6C10.9,9.6,10.9,9.6,10.9,9.6L7,9.1c-0.3,0-0.4-0.3-0.4-0.5c0-0.3,0.3-0.4,0.5-0.4l3.6,0.5l2.7-3.1
			c0.1-0.2,0.3-0.2,0.5-0.1l3.7,1.5l2.6-3.1c0.1-0.2,0.3-0.2,0.5-0.1l3.9,1.6l2.9-2.1c0.2-0.2,0.5-0.1,0.7,0.1
			c0.2,0.2,0.1,0.5-0.1,0.7L25,6.1c-0.1,0.1-0.3,0.1-0.4,0.1l-3.8-1.5l-2.6,3.1c-0.1,0.2-0.3,0.2-0.5,0.1l-3.7-1.5l-2.7,3.1
			C11.2,9.6,11,9.6,10.9,9.6z"/>
		<path d="M8.6,35.9C8.6,35.9,8.6,35.9,8.6,35.9c-0.3,0-0.5-0.3-0.5-0.5l0.5-3.6l-3.1-2.7c-0.2-0.1-0.2-0.3-0.1-0.5l1.5-3.7
			l-3.1-2.6c-0.2-0.1-0.2-0.3-0.1-0.5l1.6-3.9L3.1,15c-0.2-0.2-0.1-0.5,0.1-0.7c0.2-0.1,0.5-0.1,0.7,0.1l2.2,3.1
			c0.1,0.1,0.1,0.3,0.1,0.4l-1.5,3.8l3.1,2.6c0.2,0.1,0.2,0.3,0.1,0.5l-1.5,3.7l3.1,2.7c0.1,0.1,0.2,0.3,0.2,0.4l-0.5,3.8
			C9.1,35.7,8.9,35.9,8.6,35.9z"/>
	</g>
</g>
</svg>
