<?xml version="1.0" encoding="utf-8"?>
<!-- Generator: Adobe Illustrator 26.5.0, SVG Export Plug-In . SVG Version: 6.00 Build 0)  -->
<svg version="1.1" xmlns="http://www.w3.org/2000/svg" xmlns:xlink="http://www.w3.org/1999/xlink" x="0px" y="0px"
	 viewBox="0 0 1049.6 1049.6" style="enable-background:new 0 0 1049.6 1049.6;" xml:space="preserve">
<style type="text/css">
	.st0{fill:#FFFFFF;}
</style>
<g id="Layer_2">
</g>
<g id="Layer_1">
	<g>
		<path class="st0" d="M692.3,374.5c0,3.3-0.1,6.2,0,9c0.1,2.5,1.4,3.7,3.9,3.9c1,0.1,2.1,0,3.1,0c44,0,88,0,132,0
			c0.8,0,1.6,0,2.5,0c0,13.1,0,25.9,0,38.9c-98.9,0-197.7,0-296.7,0c0-110.8,0-221.6,0-332.3c0,0,0.1,0,0.2-0.1c0.1,0,0.2-0.1,0.2,0
			c118.6,77.7,237.2,155.5,355.8,233.3c0.6,0.4,1.1,0.9,1.7,1.3c0,0,0,0.1,0,0.5c-66.9,0-133.8,0-200.9,0c0,3.5-0.1,6.7,0,10
			c0.1,1.7,1.6,2.9,3.5,3.1c0.9,0.1,1.9,0,2.9,0c43.8,0,87.5,0,131.3,0c0.6,0,1.2,0.1,1.8,0.1c0.5,1.8,0.6,29.1,0.1,32.3
			C786.6,374.5,739.5,374.5,692.3,374.5z"/>
		<path class="st0" d="M527.2,93.7c0,111.2,0,221.9,0,332.9c-37,0-74,0-111.2,0c0-0.9-0.1-1.8-0.1-2.8c0-21.4,0-42.7,0-64.1
			c0-1,0-1.9-0.1-2.9c-0.3-2.2-1.6-3.4-3.9-3.5c-2.6-0.1-5.1-0.1-7.7,0c-2.9,0.1-4.4,1.4-4.7,4.3c-0.1,1.1-0.1,2.2-0.1,3.4
			c0,21.4,0,42.7,0,64.1c0,0.5,0,0.9-0.1,1.6c-27.4,0-54.7,0-82.3,0c0-0.9-0.1-1.7-0.1-2.6c-0.2-16.6-0.4-33.3-0.6-49.9
			c-0.2-17.8-0.5-35.5-0.8-53.3c-0.1-2.8,0.8-4.5,3.2-6c26-16.1,52-32.4,78-48.6c0.8-0.5,1.6-1,2.8-1.7c0,1.3,0,2.1,0,3
			c0,20.1-0.1,40.2-0.1,60.2c0,5.2,1.2,6.4,6.4,6.3c1.3,0,2.6-0.1,3.8-0.3c2.2-0.3,3.3-1.4,3.6-3.5c0.2-0.9,0.2-1.9,0.2-2.9
			c0-44.7,0-89.4,0-134.2c0-6.9,0-13.8,0-20.6c0-2.2,0.8-3.7,2.7-5c36.4-24.2,72.8-48.5,109.2-72.8
			C525.9,94.5,526.4,94.2,527.2,93.7z"/>
		<path class="st0" d="M400.2,172.7c0,1.1,0,1.8,0,2.6c0,6.4,0,12.8,0,19.2c0,17.1,0.1,34.2,0.1,51.4c0,1.6,0,3.2,0.1,4.8
			c0.2,2.2-0.8,3.7-2.7,4.9c-8.7,5.5-17.3,11.2-26,16.7c-19.6,12.6-39.2,25.3-58.9,37.9c-0.6,0.4-1.2,0.8-1.8,1.2
			c-2.5,1.6-3.6,3.9-3.6,6.9c0.1,5.8,0.1,11.5,0.2,17.3c0.1,9.8,0.2,19.5,0.3,29.3c0.2,19.6,0.4,39.2,0.5,58.8c0,0.9,0,1.9,0,2.9
			c-30.1,0-59.9,0-89.9,0c-0.3-5.3-0.1-10.6-0.1-15.8c0-5.3,0-10.6,0-15.8c0-5.3,0-10.6,0-15.8c0-5.3,0-10.6,0-15.8s0-10.6,0-15.8
			c0-5.3,0-10.5,0-16c-20.9,0-41.5,0-62.4,0C157.5,329.8,396.1,174.8,400.2,172.7z"/>
		<path class="st0" d="M313,485.5c0-16.1,0-32,0-48c24.2,0,48.2,0,72.3,0c0,42.8,0,85.5,0,128.3c-20.6,0-41.2,0-61.9,0
			c-0.3-5.6-0.1-11.1-0.1-16.5c0-5.6,0-11.2,0-16.8c0-5.5,0-11,0-16.6c-6,0-11.7,0-17.6,0c0,16.7,0,33.3,0,49.8
			c-1.9,0.5-84.1,0.7-86.9,0.2c-0.1-0.5-0.3-1-0.3-1.5c0-42.2,0-84.4,0-126.8c26.2,0,52.1,0,78.3,0c0.1,5.2,0,10.5,0,15.7
			c0,5.4,0,10.7,0,16.1c0,5.3,0,10.5,0,16.1C302.1,485.6,307.4,485.4,313,485.5z"/>
		<path class="st0" d="M817.9,696.1c-39,0-77.5,0-116.3,0c0-18.8,0-37.6,0-56.6c-1.1-0.1-1.9-0.1-2.8-0.1c-10.8,0-21.6,0-32.4,0.1
			c-2.6,0-4.5-0.8-6.2-2.9c-16-19.4-32.1-38.8-48.2-58.2c-0.5-0.5-0.9-1.1-1.5-1.9c0.7-0.1,1.2-0.3,1.7-0.3c9-0.1,18.1-0.1,27.1-0.2
			c25.7-0.2,51.5-0.4,77.2-0.5c21.1-0.2,42.2-0.3,63.3-0.5c16.9-0.1,33.7-0.3,50.6-0.4c1.2,0,2.4,0,3.7,0c0,21.3,0,42.4,0,63.7
			c-5.4,0-10.8,0-16.3,0C817.9,657.7,817.9,676.8,817.9,696.1z"/>
		<path class="st0" d="M678.3,704.9c22.5,0,44.9,0,67.4,0c0,12.2,0,24.4,0,36.6c0.8,0.5,1.6,0.9,2.6,1.4c1.2-1.4,2.5-2.6,3.7-4
			c8.6-10.4,17.2-20.9,25.7-31.4c1.7-2.1,3.5-2.9,6.1-2.9c15.8,0.1,31.7,0,47.5,0c0.9,0,1.9,0,3,0c0.1,1.1,0.1,1.8,0.1,2.6
			c0,9.3-0.1,18.6,0,27.8c0,2.4-0.7,4.5-2.2,6.4c-5.2,6.7-10.3,13.5-15.4,20.2c-0.4,0.6-0.9,1.1-1.3,1.7c-1.4,2-1.5,4-0.4,6.1
			c0.4,0.8,0.9,1.5,1.4,2.2c5.3,8.5,10.6,17,15.9,25.4c1.3,2.1,2,4.3,2,6.8c-0.1,8.6,0,17.3,0,25.9c0,0.6-0.1,1.2-0.2,2
			c-1,0-1.8,0.1-2.7,0.1c-17.7,0-35.4,0-53,0.1c-2.8,0-4.3-1-5.6-3.5c-7.6-14.5-15.3-29-23-43.4c-0.7-1.4-1.6-2.8-2.5-4.4
			c-0.9,0.3-1.8,0.5-2.8,0.8c0,16.4,0,32.7,0,49.2c-22.2,0-44.2,0-66.3,0C677.9,829.2,677.7,709.1,678.3,704.9z"/>
		<path class="st0" d="M217.3,842.5c52.8,0,105.5,0,158.3,0c0,38.4,0,76.7,0,114.9c-1.6,0.5-154.9,0.7-158.3,0.1
			C217.3,919.4,217.3,881.1,217.3,842.5z M346.2,876.6c-16.7,0-33.2,0-49.9,0c0,4.2,0,8.3,0,12.4c3.1,0.5,48.2,0.4,49.9-0.2
			C346.2,884.9,346.2,880.9,346.2,876.6z M296.4,924.4c2.9,0.5,48.1,0.4,49.8-0.1c0-3.7,0-7.4,0-11.1c-16.7,0-33.2,0-49.8,0
			C296.4,917,296.4,920.7,296.4,924.4z"/>
		<path class="st0" d="M389.3,704.7c1.1,0,2.1,0,3,0c26,0,52,0,78,0c3.5,0,7,0,10.6-0.1c2.4-0.1,4,0.8,5.4,2.8
			c28.2,40.8,56.4,81.6,84.6,122.3c0.4,0.6,0.8,1.2,1.2,1.9c-0.9,0.8-1.9,0.4-2.7,0.4c-16.8,0-33.6,0-50.4,0
			c-11.4,0-22.9,0.1-34.3,0.1c-3.9,0-3.8,0-3.8-3.9c0.1-4.4,0.1-8.8,0-13.2c0-3.3-1.1-4.3-4.3-4.4c-4,0-8,0-12.3,0
			c-0.2,7.1,0,14-0.1,21c-25,0-49.8,0-74.8,0C389.3,789.5,389.3,747.3,389.3,704.7z M464.5,796.9c3.9,0.5,16.6,0.3,18.3-0.2
			c0.5-3.4,0.3-25.5-0.2-27.1c-3.2-0.4-16.4-0.3-18.1,0.2C464.5,778.8,464.5,787.8,464.5,796.9z"/>
		<path class="st0" d="M322.9,695.4c-33,0-65.8,0-98.8,0c-0.1-1.1-0.2-2.2-0.2-3.3c0-18.4,0-36.8,0-55.2c0-1,0-1.9,0-2.9
			c-0.2-2.8-1-3.8-3.7-4.6c-0.5-0.2-1-0.3-1.7-0.6c0-1-0.1-1.9-0.1-2.8c0-11.9,0-23.8,0-35.8c0-3.8-0.1-7.7-0.1-11.5
			c0-2.4,0.2-2.6,2.6-2.6c8.7-0.1,17.4-0.1,26.2-0.2c21.8-0.1,43.5-0.3,65.3-0.4c20.7-0.1,41.4-0.3,62.1-0.5
			c11.2-0.1,22.4-0.3,33.6-0.4c1.6,0,3.2,0,4.9,0c0.1,1.2,0.1,2.1,0.1,3.1c0,15.4,0,30.7,0,46.1c0,0.5,0,1,0,1.4
			c-0.1,0.8-0.5,1.3-1.4,1.4c-0.8,0-1.6,0-2.4,0c-26.6,0-53.1,0-79.7-0.1c-1.3,0-2.6,0-3.8,0.2c-1.8,0.3-2.5,1-2.8,2.8
			c-0.1,0.9-0.1,1.8-0.1,2.6c0,20.1,0,40.2,0,60.2C322.9,693.4,322.9,694.3,322.9,695.4z"/>
		<path class="st0" d="M219.3,705.2c52,0,103.8,0,155.8,0c0,42.2,0,84.2,0,126.3c-1.7,0.5-152.5,0.6-155.9,0.2
			c-0.5-1.7-0.6-41.7-0.1-44.8c17.5,0,35.1,0,52.6,0c17.6,0,35.2,0,52.9,0c0-15,0-29.7,0-44.6c-17.3,0-34.5,0-52,0
			c0,8.1,0,16.2,0,24.3c-17.9,0-35.5,0-53.4,0C219.3,746.2,219.3,725.9,219.3,705.2z"/>
		<path class="st0" d="M461.5,843.2c22.9,0,45.3,0,67.9,0c0,38.2,0,76.2,0,114.4c-46.1,0-92.1,0-138.1,0
			c-0.5-1.7-0.6-112.7-0.1-115.3c18.6,0,37.3,0,56.2,0c0,23.4,0,46.8,0,70.2c4.8,0,9.3,0,14.1,0
			C461.5,889.4,461.5,866.4,461.5,843.2z"/>
		<path class="st0" d="M655.5,435.7c0.3,43.3,0.7,86.4,1,129.7c-41.2,0-82.1,0-123.1,0c0,0-0.1-0.1-0.1-0.1
			c-0.1-0.1-0.1-0.1-0.1-0.2c0-0.5-0.1-1-0.1-1.4c0-42.5,0-85.1,0.1-127.6c0-0.1,0.1-0.3,0.3-0.6c16.5,0,33.1,0,49.9,0
			c0,22.9,0,45.8,0,68.8c5.1,0,10,0,15.2,0c0-22.9,0-45.7,0-68.4C600.5,435.4,651.8,435.2,655.5,435.7z"/>
		<path class="st0" d="M495.7,706.4c56.5-0.6,112.6-1.2,168.9-1.7c0,21.7,0,43.2,0,65c-20.8,0-41.5,0-62.2,0
			c-0.6,1.9-0.7,11.1-0.2,14.3c20.8,0,41.6,0,62.6,0c0,16.2,0,32.2,0,48.4c-0.9,0.1-1.7,0.1-2.4,0.1c-24.5,0-49,0-73.4,0.1
			c-2.5,0-4.1-0.9-5.6-3c-24.7-34.7-49.5-69.4-74.2-104.1c-4.1-5.8-8.3-11.6-12.4-17.4C496.4,707.6,496.2,707.2,495.7,706.4z"/>
		<path class="st0" d="M398.6,565.4c0-42.6,0-85.1,0-127.7c1.9-0.5,115.2-2.2,118.5-1.7c0,43,0,86.1,0,129.4
			C477.7,565.4,438.2,565.4,398.6,565.4z M473.5,491.1c-6.4,0-12.6-0.1-18.7,0c-2.1,0-3.3,1.5-3.3,3.9c0,5.8,0,11.7,0,17.5
			c0,0.5,0.2,1,0.3,1.5c5.4,0.4,20.1,0.3,21.8-0.3C473.5,506.3,473.5,498.8,473.5,491.1z"/>
		<path class="st0" d="M341.4,695.3c0-20.1,0-40.2,0-60.4c21.7,0,43.4,0,65.3,0c0,5.6,0,11.2,0,16.9c7.4,0,14.4,0,21.6,0
			c0,0,0.1-0.1,0.1-0.1c0.1-0.1,0.1-0.1,0.1-0.2c0.1-0.2,0.1-0.3,0.1-0.5c0-0.1,0-0.2,0-0.2c0-0.2,0-0.5,0-0.7c0-24.1,0-48.2,0-72.2
			c0-0.2,0-0.3,0.1-0.5c0-0.1,0-0.2,0.1-0.2c1.8-0.5,77.5-0.8,83.9-0.3c0.1,0,0.1,0.1,0.2,0.1c0.1,0.1,0.1,0.1,0.1,0.2
			c0.1,0.6,0.1,1.3,0.1,1.9c0,38.6,0,77.1,0,115.7c0,0.2-0.1,0.4-0.3,0.8c-25.1,0-50.2,0-75.5,0c0-6.2,0-12.4,0-18.6
			c-2-0.6-24.4-0.8-30.9-0.3c-0.1,3,0,6.1-0.1,9.2c0,3.1,0,6.2,0,9.3C404.6,695.7,344.7,695.8,341.4,695.3z"/>
		<path class="st0" d="M658.2,696.1c-1.1,0-2,0-2.8,0c-21.5,0-43,0-64.5,0c-0.2,0-0.3,0-0.5,0c-2.5,0-2.7-0.1-2.7-2.7
			c0-9.5,0-19,0.1-28.5c0-0.9,0-1.7,0-2.9c-1.4,0-2.6,0-3.8,0c-2.8,0-5.6,0-8.4,0c-2.9,0-3.7,0.9-3.7,4c0,9,0,18.1,0,27.1
			c0,0.9,0,1.7,0,2.7c-15.7,0-31,0-46.6,0c0-40,0-79.8,0-119.9c2.6,0,5,0,7.5,0c12,0.1,24,0.2,36,0.3c7.8,0.1,15.7,0.3,23.5,0.3
			c2,0,3.2,1,4.4,2.4c9.1,10.9,18.3,21.8,27.4,32.8c10.7,12.8,21.3,25.7,32.1,38.5c1.6,1.9,2.4,3.8,2.4,6.3c0,12.4,0,24.8,0,37.2
			C658.4,694.4,658.3,695.1,658.2,696.1z M571.9,651.9c4.9,0,9.6,0,14.3,0c0.5-2.7,0.4-16.1-0.1-18c-3.6,0-7.3-0.1-10.9,0
			c-2.2,0.1-3.3,1.3-3.3,3.5c-0.1,4.4-0.1,8.8-0.1,13.2C571.8,651.1,571.9,651.4,571.9,651.9z"/>
		<path class="st0" d="M833.9,891.9c-2.7,0-5.2,0-7.9,0c0,22.1,0,43.9,0,65.8c-25.2,0-50.1,0-75.3,0c0-20.9,0-41.7,0-62.8
			c-16.5,0-32.7,0-48.8,0c-0.6-1.9-0.8-48.5-0.2-51.7c44,0,88.1,0,132.1,0C834.2,844.8,834.4,888.3,833.9,891.9z"/>
		<path class="st0" d="M666.2,565.4c0-14.5,0-28.9,0-43.5c5.7-0.3,11.5-0.1,17.2-0.1c5.8,0,11.7,0,17.5,0c5.7,0,11.5,0,17.3,0
			c0-3.7,0-7.1,0-10.7c-17.3,0-34.6,0-51.7,0c-0.6-1.9-0.8-70-0.3-75c1.8-0.5,83.6-0.6,86.1-0.1c0,12.3,0,24.6,0,37.1
			c-2.4,0.2-4.8,0.1-7.1,0.1c-2.5,0-5,0-7.4,0c-2.4,0-4.8,0-7.2,0c-2.5,0-5,0-7.4,0c-2.4,0-4.8,0-7.5,0c0,2.1-0.1,4.1-0.1,6
			c0,1.9,0,3.8,0,6.1c2.6,0.2,5.1,0.1,7.7,0.1c2.6,0,5.1,0,7.7,0c2.6,0,5.1,0,7.7,0s5.1,0,7.7,0c2.6,0,5.1,0,7.6,0
			c0.2,0.2,0.2,0.2,0.3,0.3c0.1,0.1,0.1,0.1,0.1,0.2c0,0.4,0.1,0.8,0.1,1.2c0,25.8,0,51.7,0,77.5c0,0.2-0.1,0.4-0.2,0.8
			C724.8,565.4,695.6,565.4,666.2,565.4z"/>
		<path class="st0" d="M739.5,915c0,14.5,0,28.8,0,43.3c-37.3,0-74.5,0-111.8,0c0-38.5,0-77,0-115.5c21.4,0,42.6,0,64.2,0
			c0.1,3,0,6,0.1,9c0,3,0,5.9,0,8.9c0,3,0,6.1,0,9.1c0,3,0,5.9,0,8.9c0,3,0,6.1,0,9.1c0,3,0,5.9,0,8.9c0,3,0,6.1,0,9.1
			c0,3,0,5.9,0,9.2c8,0.1,15.9,0,23.8,0C723.6,915,731.5,915,739.5,915z"/>
		<path class="st0" d="M618.9,957.7c-26.7,0-53.2,0-79.7,0c-0.5-1.8-0.6-112.6-0.1-115.2c26.5,0,53,0,79.5,0
			C619.1,844.4,619.4,951.2,618.9,957.7z"/>
		<path class="st0" d="M763.4,559.7c8.4-42.6,16.8-84.7,25.2-127.1c21.3,4.2,42.4,8.4,63.6,12.6c-2.3,11.9-4.6,23.5-7,35.3
			c-5.4-1-10.5-1.9-15.9-2.9c-0.8,3.7-1.5,7.2-2.3,11c5.3,1.1,10.5,2.2,16,3.4c-1.6,8.3-3.2,16.3-4.9,24.6
			c-4.2-0.9-8.1-1.7-12.1-2.5c-2.8-0.6-3.6-0.1-4,2.7c-0.4,2.5-0.9,5-1.3,7.8c4.9,1.5,10,2,15.2,3.5c-2.8,14.4-5.6,28.6-8.5,43.1
			C806,567.4,784.9,563.6,763.4,559.7z"/>
		<path class="st0" d="M724.1,92.9c0,38.6,0,77.1,0,115.9c-1-0.6-1.7-1-2.4-1.5c-25.2-16.6-50.5-33.2-75.7-49.8
			c-2.2-1.4-3.1-3.1-3.1-5.7c0.1-18.8,0.1-37.6,0.1-56.4c0-0.8,0-1.6,0-2.3C644.9,92.6,718.6,92.4,724.1,92.9z"/>
	</g>
</g>
</svg>
