<?xml version="1.0" encoding="UTF-8"?>
<svg xmlns="http://www.w3.org/2000/svg" version="1.1" viewBox="0 0 150 150">
  <!-- Generator: Adobe Illustrator 29.2.1, SVG Export Plug-In . SVG Version: 2.1.0 Build 116)  -->
  <defs>
    <style>
      .st0 {
        fill: #fff;
      }
    </style>
  </defs>
  <g id="background">
    <rect width="150" height="150"/>
  </g>
  <g id="ICON">
    <g>
      <rect class="st0" x="77.2" y="43.29" width="11.21" height="17.57" transform="translate(-12.57 73.8) rotate(-45)"/>
      <polygon class="st0" points="110.96 63.31 98.53 50.89 95.1 54.32 94.04 55.38 86.11 63.31 98.53 75.74 110.96 63.31"/>
      <polygon class="st0" points="50.15 54.32 53.59 57.76 54.65 58.82 62.58 66.75 75 54.32 62.58 41.9 50.15 54.32"/>
      <polygon class="st0" points="49.09 80.23 52.53 76.8 53.59 75.74 61.52 67.81 53.59 59.88 41.16 72.3 49.09 80.23"/>
      <polygon class="st0" points="71.57 111.69 79.49 103.76 76.06 100.33 76.06 100.33 75.4 99.67 75 99.27 70.18 94.45 67.07 91.34 59.14 99.27 65.35 105.48 71.57 111.69"/>
      <polygon class="st0" points="97.47 76.8 76.06 55.38 63.64 67.81 62.58 68.87 54.65 76.8 70.71 92.86 76.06 98.21 89.54 84.72 97.47 76.8"/>
      <polygon class="st0" points="47.38 96.49 53.59 102.7 57.02 99.27 58.08 98.21 66.01 90.28 54.77 79.04 53.59 77.86 50.15 81.29 49.09 82.35 41.16 90.28 47.38 96.49"/>
      <polygon class="st0" points="63.64 40.84 71.57 48.77 79.49 40.84 80.56 39.78 83.99 36.34 75 27.35 67.07 19.43 59.14 27.35 59.14 27.35 54.65 31.85 63.64 40.84"/>
      <polygon class="st0" points="59.14 126.24 67.07 134.17 75 126.24 67.83 119.07 67.07 118.31 59.14 126.24"/>
      <polygon class="st0" points="85.05 134.17 97.47 121.74 89.54 113.81 80.56 104.83 72.63 112.75 71.57 113.81 68.13 117.25 77.12 126.24 77.12 126.24 85.05 134.17"/>
      <polygon class="st0" points="112.02 62.25 125.21 49.06 125.5 48.77 125.94 48.33 113.52 35.91 113.08 36.34 113.08 36.34 99.59 49.83 112.02 62.25"/>
      <polygon class="st0" points="47.59 26.92 35.17 39.34 35.61 39.78 49.09 53.26 61.52 40.84 53.59 32.91 48.03 27.35 48.03 27.35 47.59 26.92"/>
      <polygon class="st0" points="81.62 40.84 94.04 53.26 97.47 49.83 97.47 49.83 110.96 36.34 98.53 23.92 95.1 27.35 95.1 27.35 85.05 37.4 85.05 37.4 81.62 40.84"/>
      <polygon class="st0" points="80.56 102.7 89.54 111.69 95.76 105.48 101.97 99.27 98.53 95.84 97.47 94.77 89.54 86.85 77.12 99.27 80.56 102.7 80.56 102.7"/>
      <polygon class="st0" points="64.29 106.54 58.08 100.33 54.65 103.76 53.59 104.83 41.16 117.25 53.59 129.67 57.02 126.24 66.01 117.25 67.07 116.19 70.51 112.75 64.29 106.54"/>
      <polygon class="st0" points="39.04 117.25 52.53 103.76 46.31 97.55 40.1 91.34 32.17 99.27 31.11 100.33 26.62 104.83 26.18 105.26 38.6 117.69 39.04 117.25"/>
      <polygon class="st0" points="101.97 126.24 98.53 122.8 98.21 123.13 95.1 126.24 98.53 129.67 101.97 126.24"/>
      <polygon class="st0" points="30.05 99.27 29.72 98.94 26.62 95.84 23.18 99.27 26.62 102.7 30.05 99.27"/>
      <polygon class="st0" points="104.53 126.68 116.95 114.25 116.51 113.81 103.03 100.33 96.82 106.54 90.61 112.75 98.53 120.68 99.59 121.74 104.09 126.24 104.53 126.68"/>
      <polygon class="st0" points="26.62 93.71 31.11 98.21 39.04 90.28 40.1 89.22 48.03 81.29 40.1 73.36 39.04 72.3 35.61 68.87 26.62 77.86 18.69 85.79 26.62 93.71 26.62 93.71"/>
      <rect class="st0" x="119.9" y="80.18" width="11.21" height="11.21" transform="translate(-23.9 113.87) rotate(-45)"/>
      <polygon class="st0" points="116.51 86.85 115.45 85.79 112.02 82.35 105.81 88.56 99.59 94.77 103.03 98.21 104.09 99.27 116.51 111.69 128.94 99.27 125.5 95.84 116.51 86.85"/>
      <polygon class="st0" points="124.81 51.59 122.07 54.32 125.5 57.76 128.94 54.32 125.5 50.89 124.81 51.59"/>
      <polygon class="st0" points="110.96 81.29 103.03 73.36 90.61 85.79 98.53 93.71 104.75 87.5 110.96 81.29"/>
      <rect class="st0" x="79.44" y="21.75" width="11.21" height="11.21" transform="translate(5.57 68.15) rotate(-45)"/>
      <polygon class="st0" points="113.08 81.29 116.51 84.72 125.5 75.74 133.43 67.81 125.5 59.88 121.01 55.38 104.09 72.3 112.02 80.23 113.08 81.29"/>
      <polygon class="st0" points="26.62 57.76 36.67 67.81 36.67 67.81 40.1 71.24 52.53 58.82 49.09 55.38 49.09 55.38 48.54 54.83 48.03 54.32 48.03 54.32 35.61 41.9 23.18 54.32 26.62 57.76 26.62 57.76"/>
      <rect class="st0" x="21.01" y="62.2" width="11.21" height="11.21" transform="translate(-40.15 38.68) rotate(-45)"/>
      <rect class="st0" x="51.16" y="24.93" width="4.86" height="4.86" transform="translate(-3.65 45.9) rotate(-45)"/>
    </g>
  </g>
</svg>