<?xml version="1.0" encoding="UTF-8"?>
<svg xmlns="http://www.w3.org/2000/svg" version="1.1" xmlns:xlink="http://www.w3.org/1999/xlink" viewBox="0 0 150 150">
  <!-- Generator: Adobe Illustrator 29.2.1, SVG Export Plug-In . SVG Version: 2.1.0 Build 116)  -->
  <defs>
    <style>
      .st0 {
        fill: #fff;
      }

      .st1 {
        fill: none;
      }

      .st2 {
        clip-path: url(#clippath);
      }
    </style>
    <clipPath id="clippath">
      <rect class="st1" x="15" y="36.61" width="120" height="76.78"/>
    </clipPath>
  </defs>
  <g id="background">
    <rect width="150" height="150"/>
  </g>
  <g id="ICON">
    <g class="st2">
      <path class="st0" d="M134.54,73.76c-.16.89-.46,1.72-.89,2.49-.44.77-.99,1.44-1.65,1.99-.33.28-.68.52-1.05.73-.27.15-.54.3-.81.45l-6.18,3.44c-.14.08-.27.15-.41.23-.22.12-.41.24-.57.35-.73.53-1.35,1.29-1.72,2.15-.19.43-.32.89-.4,1.36-.08.47-.1.94-.05,1.4.04.46.14.9.3,1.32.07.2.16.38.25.56l1.71,3.52c.25.52.51,1.04.76,1.56.03.07.06.13.1.2.15.31.3.6.39.93.12.41.18.83.19,1.26.02.87-.19,1.78-.6,2.56-.2.4-.46.76-.75,1.08-.3.32-.64.6-1.01.83-.38.23-.78.41-1.2.52-.21.06-.43.1-.65.13-.11.01-.22.03-.33.03-.05,0-.11,0-.17,0-.03,0-.05,0-.08,0h-.08s-1.23,0-1.23,0c.02,0,.03,0,.05,0,.05,0,.11,0,.17-.01.11-.01.22-.03.33-.05.22-.04.44-.09.65-.16.43-.14.83-.33,1.21-.58.38-.25.72-.55,1.02-.89.29-.34.55-.72.75-1.13.4-.81.61-1.76.59-2.66,0-.44-.07-.89-.19-1.31-.1-.35-.24-.66-.39-.97-.03-.06-.06-.13-.09-.19-.23-.5-.46-1-.7-1.51l-1.61-3.48c-.08-.17-.16-.34-.22-.51-.13-.38-.22-.78-.26-1.2-.04-.42-.02-.85.05-1.28.07-.43.19-.85.35-1.24.33-.78.86-1.48,1.5-1.98.14-.11.3-.22.5-.34.13-.08.25-.15.38-.23l5.75-3.48c.26-.16.52-.31.78-.47.36-.22.7-.48,1.03-.77.65-.58,1.19-1.27,1.61-2.05.42-.78.72-1.64.87-2.54.15-.89.15-1.83,0-2.72-.15-.89-.45-1.77-.88-2.54-.21-.38-.46-.75-.73-1.09-.2-.25-.43-.48-.65-.7-.07-.07-.15-.15-.22-.22-.4-.42-.8-.83-1.2-1.24l-2.79-2.88c-.41-.42-.81-.84-1.22-1.26-.04-.04-.07-.07-.11-.11-.11-.11-.21-.22-.31-.34-.14-.16-.26-.33-.38-.51-.23-.36-.43-.75-.56-1.15-.13-.4-.22-.81-.25-1.22-.02-.21-.02-.42-.01-.61,0-.15.02-.3.03-.45v-.18c.06-.57.11-1.14.16-1.71l.9-11.01c.01-.15.02-.3.04-.45,0-.06.01-.13.02-.19.01-.15.03-.3.03-.45,0-.21,0-.44-.02-.66-.02-.22-.06-.44-.11-.66-.2-.87-.64-1.72-1.25-2.4-.31-.35-.65-.65-1.02-.9-.38-.25-.78-.45-1.2-.59s-.86-.23-1.3-.25c-.22-.01-.44,0-.66,0-.05,0-.09.01-.13.02l.91-.24.1-.03s.05-.01.08-.02c.05-.01.11-.02.16-.03.11-.02.22-.04.32-.05.22-.03.44-.04.65-.04.44,0,.87.07,1.3.2.42.12.83.31,1.2.54.37.23.71.51,1.02.84.61.65,1.05,1.46,1.25,2.3.05.21.09.42.11.63.02.21.03.43.02.63,0,.15-.02.3-.03.44,0,.07-.01.13-.02.19-.01.16-.03.31-.04.47l-.95,11.08c-.06.65-.11,1.31-.17,1.96l-.02.18c-.01.15-.03.31-.04.47-.01.22,0,.44.01.67.04.45.13.9.29,1.33.15.43.37.87.64,1.26.13.19.28.38.43.55.12.13.24.25.35.36.04.04.08.07.11.11.43.42.86.84,1.29,1.25l3,2.92c.43.42.86.84,1.29,1.26.08.08.16.15.24.23.23.22.46.44.67.68.28.33.53.69.75,1.06.43.75.74,1.61.9,2.49.15.88.15,1.8,0,2.68M69.58,110.69c-.66.4-1.31.79-1.97,1.19-.21.13-.44.26-.68.38-.23.12-.47.22-.71.31-.49.18-1,.31-1.52.39-1.04.15-2.12.09-3.13-.18-.49-.13-.99-.32-1.46-.56-.42-.21-.8-.48-1.18-.75l-11.94-8.36c-.15-.11-.31-.22-.47-.33-.05-.04-.1-.07-.16-.11-.16-.11-.33-.23-.51-.34-.52-.3-1.1-.52-1.69-.63.91-.05,1.89.17,2.7.63.16.09.31.19.47.3.05.03.1.07.15.1.15.1.3.2.45.3l4.03,2.71c2.48,1.67,4.95,3.34,7.43,5.01l.13.09c.37.25.76.52,1.18.72.48.23.97.42,1.47.55.66.17,1.34.26,2.03.26.38,0,.76-.03,1.13-.08.52-.08,1.04-.2,1.53-.38.24-.09.48-.19.72-.3.24-.12.47-.25.68-.37.64-.38,1.28-.75,1.92-1.12l9.1-5.31-9.71,5.88ZM21.39,102.56c-.66-.42-1.25-.94-1.75-1.55-.5-.61-.91-1.3-1.21-2.04-.59-1.48-.7-3.14-.32-4.67.1-.38.22-.76.38-1.12.08-.17.16-.35.25-.53.08-.14.16-.29.24-.43l8.88-15.12c.29-.5.58-.99.87-1.49.04-.07.09-.14.13-.22.16-.27.33-.55.46-.86.16-.39.28-.8.35-1.21.07-.41.09-.83.07-1.25-.02-.39-.1-.76-.18-1.11l-.02-.08c-.11-.52-.22-1.03-.33-1.55l-3.73-17.49c-.11-.53-.23-1.06-.34-1.59-.15-.74-.19-1.52-.09-2.3.09-.78.3-1.54.63-2.26.33-.72.76-1.39,1.28-1.98.52-.59,1.13-1.09,1.81-1.49.67-.39,1.39-.67,2.14-.83.37-.08.75-.12,1.13-.14.19,0,.38,0,.56,0,.09,0,.19,0,.28.02.05,0,.09,0,.14.01l.57.1s-.03,0-.05,0c-.37.03-.74.1-1.1.19-.73.19-1.44.5-2.09.92-.66.42-1.25.95-1.76,1.56-.51.62-.93,1.3-1.25,2.04-.32.74-.52,1.52-.61,2.31-.09.8-.06,1.6.09,2.36.11.53.21,1.06.32,1.59l3.44,16.99c.11.53.22,1.07.32,1.6l.02.08c.07.34.14.68.16,1.03.02.39,0,.78-.06,1.15-.06.37-.16.74-.31,1.1-.11.28-.25.53-.4.8-.04.07-.08.14-.12.22-.27.49-.54.98-.81,1.47l-8.24,14.87c-.08.14-.16.29-.23.43-.09.18-.17.36-.24.54-.15.37-.27.75-.37,1.14-.38,1.56-.27,3.25.31,4.76.29.76.68,1.46,1.17,2.09.49.63,1.06,1.18,1.7,1.63.64.45,1.33.78,2.05,1,.36.11.73.19,1.09.24.03,0,.05,0,.08,0l-.97.12h-.15s-.09.02-.14.02c-.09,0-.19,0-.28,0h0c-.19,0-.37,0-.56-.02-.37-.03-.75-.09-1.12-.19-.74-.19-1.45-.49-2.11-.91M55.39,44.25l24.04-6.43c.33-.09.65-.17.98-.26.14-.04.28-.07.42-.11.31-.09.64-.17.96-.25.45-.1.91-.17,1.39-.21.46-.04.94-.04,1.41,0,.95.06,1.89.25,2.74.56.3.11.6.22.9.33l9.63,3.55c.15.06.31.11.47.17.06.02.12.05.18.07.15.06.31.12.48.17.36.11.74.18,1.13.21-.14,0-.27.01-.41.01-.44,0-.9-.08-1.32-.2-.15-.04-.29-.09-.44-.15-.06-.02-.12-.04-.18-.07-.15-.05-.31-.11-.46-.16l-9.33-3.31c-.29-.1-.58-.21-.88-.31-.85-.29-1.79-.48-2.74-.54-.47-.03-.94-.03-1.41,0-.48.04-.94.1-1.39.2-.32.07-.64.15-.94.23-.13.03-.27.07-.4.1-.32.08-.64.17-.97.25l-23.25,6c-.16.04-.32.08-.48.12-.14.04-.26.06-.37.09.09-.02.17-.05.26-.07M118.28,37.61l-.04-.12h.01s.03.12.03.12ZM48.05,102.02c.16.09.3.18.46.28.05.03.1.06.15.1.14.09.28.18.43.27l11.12,7.18.12.08c.36.24.74.48,1.15.67.46.22.94.39,1.42.51.63.16,1.29.24,1.95.24.36,0,.73-.02,1.08-.07.5-.07,1-.19,1.47-.35.23-.08.47-.18.7-.28.23-.11.45-.23.66-.34.6-.34,1.2-.67,1.79-1.01l9.16-5.13-9.68,5.65c-.64.37-1.28.75-1.92,1.12-.2.12-.42.25-.65.35-.23.11-.46.21-.69.29-.47.17-.96.29-1.46.36-1,.14-2.04.09-3.02-.17-.48-.13-.95-.3-1.41-.53-.4-.2-.78-.45-1.14-.7l-.13-.09c-2.48-1.67-4.95-3.34-7.43-5.01l-4.03-2.71c-.15-.1-.3-.2-.45-.3-.05-.03-.1-.07-.15-.1-.16-.11-.32-.22-.49-.32-.49-.28-1.04-.47-1.6-.58.88-.05,1.82.16,2.6.58M98.94,42.38c-.43,0-.87-.07-1.27-.19-.14-.04-.28-.09-.43-.14-.06-.02-.12-.04-.18-.06-.15-.05-.3-.1-.44-.15l-9.05-3.07c-.28-.1-.57-.19-.85-.29-.82-.27-1.74-.44-2.65-.5-.45-.03-.91-.02-1.36,0-.46.03-.91.1-1.34.19-.31.06-.62.14-.91.22-.13.03-.26.06-.39.1-.3.07-.61.15-.91.23l-22.52,5.58c-.15.04-.3.07-.45.11-.09.02-.16.04-.24.06.03,0,.07-.02.1-.03l23.25-6c.32-.08.64-.17.97-.25.13-.03.27-.07.4-.1.3-.08.62-.16.93-.23.43-.09.88-.16,1.34-.19.45-.03.91-.04,1.36,0,.91.06,1.83.24,2.65.52.29.1.58.2.88.31l9.33,3.31c.15.05.31.11.46.16.06.02.12.04.18.06.15.05.3.11.46.16.34.1.71.17,1.07.2-.13,0-.27.01-.41.01M49.22,101.72c.15.08.29.17.44.26.05.03.1.06.14.09.14.09.28.17.42.26l10.76,6.62.12.07c.35.22.71.44,1.11.62.45.2.91.36,1.37.47.61.15,1.24.22,1.87.22.35,0,.7-.02,1.04-.07.48-.06.96-.17,1.42-.33.22-.07.45-.16.67-.26.22-.1.44-.21.63-.32.58-.31,1.16-.62,1.74-.93l9.11-4.87-9.7,5.43c-.6.33-1.2.67-1.79,1.01-.2.11-.41.23-.63.33-.22.1-.44.19-.66.27-.45.16-.93.27-1.41.34-.96.13-1.96.08-2.9-.16-.46-.12-.92-.28-1.36-.49-.39-.18-.75-.42-1.11-.65l-11.24-7.25c-.14-.09-.29-.18-.43-.28-.05-.03-.1-.06-.15-.09-.15-.1-.31-.2-.48-.29-.46-.25-.96-.43-1.48-.53.85-.05,1.73.14,2.49.54M98.19,42.72c-.41,0-.84-.07-1.23-.17-.14-.04-.28-.08-.41-.13-.06-.02-.11-.04-.17-.06-.14-.05-.29-.09-.43-.14l-8.75-2.83c-.28-.09-.56-.18-.84-.27-.8-.25-1.68-.41-2.56-.46-.44-.02-.88-.02-1.31,0-.44.03-.88.09-1.3.17-.3.06-.59.13-.88.2-.12.03-.25.06-.37.09-.3.07-.59.14-.89.21l-21.72,5.14c-.1.02-.21.05-.31.07l22.22-5.5c.3-.08.61-.15.91-.22.13-.03.26-.06.39-.1.29-.07.6-.15.9-.21.42-.09.85-.15,1.3-.18.43-.03.88-.03,1.32,0,.88.05,1.77.22,2.56.48.29.09.57.19.85.29l9.05,3.07c.15.05.3.1.45.15.06.02.12.04.17.06.14.05.29.1.45.14.32.09.67.15,1.02.18-.13,0-.27.01-.4.01M50.4,101.42c.15.07.28.15.43.24.05.03.09.06.14.08.13.08.27.15.4.23l10.41,6.07.12.07c.34.2.69.4,1.07.57.43.18.87.33,1.31.43.58.14,1.19.2,1.79.2.33,0,.67-.02,1-.06.46-.06.92-.16,1.36-.3.21-.07.43-.15.65-.24.21-.09.42-.19.61-.29h0s0,0,0,0c.56-.29,1.13-.57,1.69-.86l9.04-4.59-9.63,5.15c-.58.31-1.16.62-1.74.93-.19.1-.4.21-.61.3-.21.09-.43.18-.64.25-.44.15-.89.25-1.35.31-.92.12-1.88.07-2.78-.15-.44-.11-.88-.26-1.31-.45-.37-.17-.73-.39-1.07-.6l-10.88-6.69c-.14-.09-.28-.17-.42-.26-.05-.03-.09-.06-.14-.09-.15-.09-.3-.19-.46-.27-.44-.23-.9-.39-1.39-.48.82-.04,1.66.13,2.4.49M97.45,43.06c-.4,0-.81-.06-1.18-.16-.14-.03-.27-.08-.4-.12-.05-.02-.11-.03-.17-.05-.14-.04-.29-.09-.43-.13l-8.46-2.59c-.27-.08-.53-.16-.8-.24-.77-.23-1.62-.38-2.46-.42-.42-.02-.85-.02-1.26,0-.43.03-.85.08-1.25.16-.29.05-.57.12-.85.18-.12.03-.24.05-.36.08-.29.06-.57.13-.86.19l-20.64,4.65,20.81-4.93c.3-.07.59-.14.89-.21.12-.03.25-.06.37-.09.28-.07.58-.14.87-.2.4-.08.82-.14,1.25-.17.42-.03.85-.03,1.27,0,.85.05,1.7.2,2.47.44.28.09.56.18.83.27l8.75,2.83c.14.05.29.09.43.14.06.02.11.04.17.05.14.05.28.09.43.13.31.08.64.14.97.17-.13,0-.26.01-.4.01M96.7,43.4c-.39,0-.77-.05-1.14-.14-.13-.03-.26-.07-.39-.11-.05-.02-.11-.03-.16-.05-.13-.04-.27-.08-.4-.12l-8.19-2.36c-.26-.07-.51-.15-.77-.22-.74-.21-1.56-.34-2.37-.38-.4-.02-.81-.02-1.21,0-.41.03-.81.07-1.2.14-.28.05-.55.11-.82.17-.12.03-.23.05-.35.07-.27.06-.55.12-.82.17l-19.34,4.11,19.51-4.39c.29-.06.57-.13.86-.19.12-.03.24-.05.36-.08.27-.06.56-.13.84-.18.39-.07.79-.13,1.21-.15.4-.03.81-.03,1.22,0,.82.04,1.64.19,2.38.41.27.08.53.16.8.24l8.46,2.59c.14.04.29.09.43.13.05.02.11.03.16.05.13.04.27.09.42.12.3.08.61.13.92.15-.13,0-.26.01-.4.01M52.76,100.82c.13.06.26.12.4.19l.13.07c.13.06.25.13.38.19l9.71,4.97.11.06c.32.16.64.33.99.46.4.15.8.27,1.21.35.53.11,1.09.17,1.64.17.31,0,.61-.02.91-.05.42-.05.84-.13,1.25-.25.2-.06.4-.12.59-.19.2-.07.39-.16.57-.24.54-.24,1.07-.48,1.61-.72l7.1-3.17,1.71-.76-9.37,4.49c-.56.27-1.11.53-1.67.8-.18.09-.37.17-.57.25-.2.08-.4.15-.59.21-.4.12-.82.21-1.25.26-.84.1-1.73.06-2.55-.12-.4-.09-.81-.22-1.21-.38-.35-.14-.68-.32-1-.5l-10.17-5.58c-.13-.07-.26-.14-.4-.22l-.13-.07c-.14-.08-.28-.16-.43-.23-.38-.18-.79-.31-1.2-.39.75-.04,1.54.1,2.24.4M95.95,43.74c-.37,0-.74-.05-1.1-.13-.13-.03-.25-.06-.37-.1-.05-.01-.1-.03-.15-.04-.13-.03-.26-.07-.39-.1l-7.9-2.12c-.25-.07-.5-.13-.75-.2-.72-.19-1.51-.31-2.28-.34-.39-.02-.78-.02-1.17,0-.39.02-.78.07-1.15.13-.26.04-.53.1-.79.15-.11.02-.22.05-.33.07-.27.05-.54.11-.81.16l-18.06,3.59,18.24-3.88c.27-.06.55-.12.82-.17.12-.02.23-.05.35-.07.26-.06.54-.12.81-.16.37-.07.76-.11,1.16-.14.39-.02.78-.03,1.17,0,.78.04,1.58.17,2.3.37.26.07.51.15.77.22l8.19,2.36c.13.04.27.08.4.12.05.01.1.03.16.05.13.04.26.08.4.11.28.07.57.11.87.13-.13,0-.26.01-.39.01M53.94,100.52c.13.05.25.11.38.17l.12.06c.12.06.24.11.36.17l9.36,4.42.1.05c.31.14.62.29.96.41.38.13.77.24,1.15.31.51.1,1.03.15,1.55.15.29,0,.58-.02.87-.05.4-.04.8-.12,1.19-.22.19-.05.38-.11.57-.17.19-.07.37-.14.54-.21.51-.21,1.02-.42,1.53-.63l8.7-3.6-9.23,4.13c-.54.24-1.08.48-1.61.72-.17.08-.35.16-.55.23-.19.07-.38.13-.57.19-.39.11-.79.19-1.19.23-.8.09-1.65.05-2.44-.11-.39-.08-.78-.19-1.16-.34-.33-.13-.65-.29-.96-.45l-9.82-5.02c-.13-.06-.25-.13-.38-.19l-.13-.07c-.13-.07-.27-.14-.42-.2-.35-.15-.73-.27-1.11-.34.72-.04,1.48.09,2.15.36M37.6,101.24l-.02.05.02-.07v.02ZM37.64,101.14l-.04.09v-.03s.02-.06.02-.06c0,0,.01,0,.02,0M95.2,44.08c-.35,0-.71-.04-1.05-.11-.12-.03-.24-.06-.36-.09l-.15-.04c-.13-.03-.25-.06-.38-.09l-7.6-1.89c-.24-.06-.49-.12-.73-.18-.7-.17-1.44-.27-2.19-.31-.37-.02-.75-.01-1.12,0-.38.02-.75.06-1.11.11-.25.04-.51.09-.75.13-.11.02-.21.04-.32.06-.25.05-.51.09-.76.14l-16.86,3.1,16.99-3.38c.27-.05.54-.11.81-.16.11-.02.22-.04.33-.07.25-.05.52-.1.78-.15.36-.06.74-.1,1.12-.12.37-.02.75-.02,1.13,0,.75.04,1.51.15,2.21.33.25.07.5.13.75.2l7.9,2.12c.13.03.26.07.39.1.05.01.1.03.15.04.13.03.26.07.39.1.27.06.54.1.82.12-.13,0-.26.01-.39.01M55.12,100.22c.12.05.24.1.37.15l.12.05c.13.05.25.11.38.16l8.97,3.85.1.04c.29.13.6.26.92.36.36.12.73.21,1.1.28.49.09.98.13,1.48.13.28,0,.55-.01.83-.04.38-.04.76-.1,1.13-.19.18-.04.36-.09.54-.15.18-.06.36-.12.52-.18.47-.18.95-.36,1.42-.54l6.38-2.41,2.23-.84s-.05.02-.07.03l-9.04,3.74c-.51.21-1.02.42-1.53.63-.16.07-.34.14-.52.2-.18.06-.36.12-.54.17-.37.1-.75.17-1.14.21-.77.08-1.57.05-2.33-.1-.37-.07-.74-.17-1.1-.3-.32-.11-.63-.26-.92-.4l-9.46-4.46c-.12-.06-.24-.11-.36-.17l-.12-.06c-.13-.06-.26-.13-.4-.18-.32-.13-.66-.22-1-.29.68-.03,1.41.07,2.06.31M94.45,44.42c-.34,0-.68-.04-1.01-.1-.12-.02-.23-.05-.34-.07l-.14-.03c-.12-.03-.24-.05-.35-.08l-7.34-1.66c-.23-.05-.46-.1-.69-.15-.67-.15-1.38-.24-2.09-.27-.36-.01-.71-.01-1.07,0-.36.02-.72.05-1.06.1-.24.03-.49.08-.72.12-.1.02-.2.03-.31.05-.24.04-.49.08-.73.12l-15.66,2.63,15.82-2.91c.25-.05.51-.09.76-.14.11-.02.22-.04.32-.06.24-.05.5-.09.74-.13.35-.05.71-.09,1.07-.11.36-.02.72-.02,1.08,0,.72.03,1.45.13,2.12.3.24.06.49.12.73.18l7.6,1.89c.13.03.25.06.38.09l.15.04c.12.03.25.06.37.09.25.05.51.09.77.11-.13,0-.26.01-.39,0M56.31,99.92c.12.04.24.09.35.13l9.21,3.52c.28.11.57.22.88.31.35.1.7.18,1.05.24.46.07.93.11,1.4.11.26,0,.52-.01.78-.03.36-.03.72-.09,1.07-.16.17-.04.35-.08.52-.13.18-.05.34-.11.5-.16.44-.15.88-.3,1.33-.45l8.4-2.83c.07-.02.14-.05.21-.07.04-.01.08-.02.12-.03-.09.03-.18.05-.27.08-.08.03-.15.05-.23.08l-8.73,3.29c-.47.18-.95.36-1.42.54-.16.06-.33.12-.5.18-.17.05-.35.1-.52.14-.35.09-.72.15-1.08.18-.74.07-1.48.04-2.21-.09-.35-.06-.71-.15-1.06-.26-.31-.1-.6-.23-.89-.35l-9.08-3.89c-.13-.05-.25-.11-.38-.16l-.12-.05c-.12-.05-.25-.11-.38-.16-.29-.11-.59-.19-.89-.24.65-.03,1.33.06,1.95.27M93.7,44.76c-.32,0-.65-.03-.97-.09-.11-.02-.22-.04-.33-.06l-7.53-1.52c-.22-.04-.44-.09-.66-.13-.65-.13-1.32-.2-2-.23-.34-.01-.68-.01-1.02,0-.34.02-.68.04-1.01.09-.23.03-.47.07-.69.1-.1.01-.19.03-.29.04-.23.03-.45.07-.68.1l-14.54,2.19,14.66-2.46c.24-.04.49-.08.73-.12.1-.02.21-.03.31-.05.23-.04.48-.08.71-.12.33-.05.68-.08,1.03-.1.34-.02.69-.02,1.04,0,.69.03,1.38.12,2.03.26.23.05.46.1.69.15l7.34,1.66c.12.03.24.05.36.08l.14.03c.12.03.24.05.36.08.23.04.47.07.71.09-.13,0-.26.01-.39,0M82.22,100.69s0,0-.01,0c0,0,0,0,0,0,0,0,0,0,0,0M82.48,100.62s0,0-.01,0c0,0,0,0,.01,0M82.58,100.25s-.1.02-.15.03c.05-.01.1-.02.15-.03M82.24,100.32s.08-.02.12-.03c-.08.02-.16.04-.24.06.04-.01.08-.02.12-.03M57.49,99.62c.11.03.23.07.34.11l8.74,2.9.09.03c.27.09.55.18.84.26.33.08.67.15.99.2.44.06.88.09,1.32.09.25,0,.49,0,.74-.03.34-.03.68-.07,1.01-.14.16-.03.33-.07.49-.11.17-.04.33-.09.48-.13.43-.13.87-.25,1.3-.38l8-2.35c.07-.02.13-.04.2-.06.08-.02.15-.04.23-.06.13-.03.27-.05.4-.07-.17.03-.35.06-.51.11-.09.02-.17.05-.26.07-.07.02-.15.05-.22.07l-8.4,2.83c-.44.15-.89.3-1.33.45-.15.05-.31.1-.48.15-.17.05-.33.09-.5.12-.34.07-.68.13-1.03.16-.7.06-1.41.04-2.1-.07-.33-.05-.67-.13-1.01-.23-.29-.08-.58-.19-.85-.3l-6.01-2.3-3.2-1.22c-.12-.05-.24-.09-.37-.14-.25-.08-.51-.15-.77-.2.61-.02,1.25.05,1.84.22M43.62,99.91l-.07.07-.03.03h0s.09-.1.09-.1c0,0,0,0,0,0M92.95,45.1c-.31,0-.62-.03-.92-.07-.11-.02-.21-.03-.32-.05l-7.22-1.26c-.21-.04-.42-.07-.64-.11-.62-.11-1.26-.17-1.91-.19-.32-.01-.65,0-.97,0-.33.01-.65.04-.96.07-.22.02-.44.05-.66.08l-.28.04c-.22.03-.44.06-.66.09l-13.41,1.76,13.57-2.04c.23-.03.45-.07.68-.1.1-.01.2-.03.29-.04.23-.03.46-.07.69-.1.32-.04.65-.07.98-.08.33-.01.66-.02.99,0,.66.02,1.32.1,1.95.22.22.04.44.09.66.13l7.53,1.52c.11.02.23.05.35.07.22.04.44.06.66.08-.13,0-.26,0-.39,0M82.74,100.22s.01,0,.02,0c0,0-.02,0-.02,0,0,0,0,0,0,0M82.75,99.87s.05,0,.07,0c-.04,0-.07,0-.11.01.01,0,.03,0,.04,0M58.67,99.32c.11.03.22.06.33.09l8.46,2.35c.26.07.53.15.8.21.31.07.63.12.94.16.41.05.83.07,1.24.07.23,0,.46,0,.69-.02.32-.02.64-.06.96-.11.15-.02.31-.05.47-.09.16-.03.31-.07.45-.11.46-.11.92-.23,1.38-.34l7.51-1.85c.06-.01.12-.03.18-.04.07-.02.15-.03.22-.05.15-.03.3-.05.45-.07.03,0,.07,0,.1-.01-.05,0-.11.01-.16.02-.17.02-.34.05-.51.09-.08.02-.16.04-.25.06-.07.02-.14.04-.21.06l-8,2.35c-.43.13-.87.25-1.3.38-.15.04-.3.09-.46.13-.16.04-.32.07-.47.1-.32.06-.65.1-.98.13-.66.05-1.33.03-1.99-.06-.32-.04-.64-.11-.96-.19-.28-.07-.55-.16-.82-.25l-8.84-2.93c-.11-.04-.23-.08-.35-.11-.21-.06-.43-.11-.65-.15.57-.02,1.17.04,1.73.18M45.61,99.5l-.1.08h-.02s0,0,0,0l.11-.09s0,0,0,0M92.21,45.44c-.29,0-.59-.02-.88-.06-.1-.01-.21-.03-.31-.04l-6.91-1.01c-.21-.03-.41-.06-.62-.09-.59-.08-1.2-.14-1.81-.15-.31,0-.62,0-.92,0-.31.01-.62.03-.91.06-.21.02-.42.04-.63.07l-.27.03c-.23.03-.46.05-.69.08l-12.28,1.35,12.48-1.64c.22-.03.44-.06.66-.09l.28-.04c.22-.03.44-.06.65-.08.3-.03.62-.06.94-.07.31-.01.63-.01.94,0,.63.02,1.26.08,1.86.19.21.04.42.07.64.11l7.22,1.26c.11.02.22.04.33.06.2.03.4.05.6.06-.12,0-.25,0-.37,0M59.86,99.02c.1.02.21.04.31.06l8.1,1.76c.24.05.5.11.76.15.3.05.6.09.88.12.39.04.78.06,1.16.06.22,0,.43,0,.65-.02.3-.02.6-.04.9-.08.14-.02.29-.04.44-.06.14-.02.29-.05.43-.08l8.45-1.64c.06-.01.12-.02.19-.04.07-.01.14-.02.21-.03.14-.02.29-.04.43-.05.04,0,.09,0,.13-.01-.06,0-.12.01-.18.02-.16.02-.32.04-.48.07-.08.01-.16.03-.23.05-.06.01-.13.03-.19.05l-7.51,1.85c-.46.11-.92.23-1.38.34-.14.03-.29.07-.44.1-.15.03-.3.06-.45.08-.3.05-.61.08-.92.1-.62.04-1.25.03-1.87-.05-.3-.04-.6-.09-.91-.15-.27-.06-.53-.13-.78-.2l-8.46-2.35c-.11-.03-.22-.06-.34-.09-.16-.04-.32-.07-.48-.1.52,0,1.07.04,1.59.13M91.46,45.77c-.28,0-.56-.02-.84-.04-.1,0-.2-.02-.29-.03l-6.62-.76c-.19-.02-.38-.04-.58-.07-.57-.06-1.14-.1-1.72-.11-.29,0-.58,0-.87,0-.29,0-.58.02-.86.04-.2.01-.4.03-.6.05l-12.15,1.06,11.36-1.25c.23-.03.46-.05.69-.08l.27-.03c.21-.02.42-.05.62-.07.29-.03.59-.05.89-.06.3,0,.6-.01.9,0,.6.02,1.19.07,1.77.15.21.03.41.06.62.09l6.9,1.01c.11.02.21.03.32.04.18.02.36.04.54.05-.12,0-.24,0-.36,0M61.04,98.71c.1.01.2.03.3.04l7.72,1.17c.23.04.47.07.72.1.28.03.56.06.83.08.36.02.72.04,1.09.04.2,0,.4,0,.6-.01.28-.01.56-.03.84-.05.14-.01.28-.03.41-.04.14-.02.27-.03.41-.05l8.03-1.09c.06,0,.12-.02.17-.02.07,0,.13-.02.2-.02.14-.01.27-.03.41-.04.05,0,.1,0,.15,0-.06,0-.13,0-.19.01-.15.01-.3.03-.45.05-.07.01-.15.02-.22.04-.07.01-.13.02-.19.04l-8.45,1.64c-.14.03-.28.05-.42.08-.14.02-.29.04-.43.06-.29.04-.58.06-.87.08-.58.03-1.18.02-1.76-.04-.28-.03-.57-.07-.86-.11-.25-.04-.5-.1-.74-.15l-8.1-1.76c-.11-.02-.21-.05-.32-.07-.1-.02-.21-.04-.32-.05.47,0,.95.03,1.44.09M90.71,46.11c-.26,0-.53-.01-.8-.03-.09,0-.19-.01-.28-.02l-6.86-.55c-.54-.04-1.08-.07-1.62-.08-.27,0-.55,0-.82,0-.28,0-.55.01-.82.03-.19,0-.37.02-.56.03l-11.11.68,11.27-.98c.2-.02.39-.03.59-.05.27-.02.56-.03.85-.04.28,0,.57,0,.85,0,.56.01,1.13.05,1.69.11.19.02.38.04.57.07l6.62.76c.1.01.2.02.3.03.16.02.33.03.49.03-.12,0-.25,0-.37,0M62.23,98.41c.1,0,.19.01.29.02l7.34.59c.23.02.45.04.68.05.26.02.52.03.77.04.33.01.67.02,1,.02.19,0,.37,0,.56,0,.26,0,.52-.01.78-.03.13,0,.26-.01.39-.02.13,0,.26-.02.38-.03l7.59-.54h.19c.06-.02.13-.02.19-.02.13,0,.25-.01.38-.02.04,0,.09,0,.13,0-.05,0-.11,0-.16,0-.14,0-.28.02-.42.04-.07,0-.14.02-.21.02-.06,0-.12.02-.18.02l-8.03,1.09c-.13.02-.26.04-.4.05-.13.02-.27.03-.4.04-.27.02-.55.04-.82.05-.55.02-1.1.01-1.65-.03-.26-.02-.54-.04-.81-.08-.24-.03-.48-.06-.71-.1l-7.72-1.17c-.1-.02-.2-.03-.3-.05-.01,0-.02,0-.03,0,.38,0,.78.02,1.18.05M89.96,46.45c-.25,0-.5,0-.76-.01-.09,0-.18,0-.27-.01l-6.53-.27c-.51-.02-1.02-.03-1.53-.04-.26,0-.51,0-.77,0-.26,0-.51,0-.77.01-.18,0-.36.01-.54.02l-10.09.33,10.26-.63c.18-.01.37-.02.55-.03.26-.01.53-.02.8-.03.27,0,.54,0,.81,0,.53,0,1.07.03,1.6.07l6.86.55c.09,0,.19.02.28.02.13,0,.27.02.4.02-.11,0-.22,0-.33,0M82.96,98.11c-.07,0-.14,0-.21,0-.13,0-.26.01-.39.02-.06,0-.13,0-.19.01l-7.78.56c-.13,0-.25.02-.38.03-.13,0-.25.01-.38.02-.25.01-.51.02-.77.03-.51.01-1.03,0-1.54-.01-.25,0-.5-.02-.76-.04-.23-.01-.45-.03-.67-.05l-7.08-.57h20.15ZM69.55,46.79l9.27-.3c.18,0,.36-.01.54-.02.25,0,.51-.01.76-.01.25,0,.51,0,.76,0,.5,0,1.01.02,1.52.04l6.53.27c.09,0,.18,0,.27.01.1,0,.19,0,.29,0h-19.93ZM53.55,97.77v-50.63h45.53v50.63c-2.56,0-5.11,0-7.67,0h-34.14c-1.24,0-2.48,0-3.72,0M100.6,46.32h0s0,0,0,0h0ZM100.44,46.36l.13-.03h.02s-.15.04-.15.04c0,0,0,0,0,0M100.45,46.48l.07.57c.03.25.06.5.09.76.03.26.06.52.08.78.03.27.05.54.07.8.04.56.07,1.11.09,1.64,0,.14,0,.28,0,.41,0,.14,0,.27,0,.41,0,.09,0,.18,0,.28l-.08,8.98c0,.09,0,.18,0,.28,0,.14,0,.28,0,.42,0,.27,0,.55.02.83,0,.27.02.54.04.83,0,.14.02.27.03.41,0,.1.01.19.02.29l.4,5.14c.02.2.03.4.05.61.02.27.04.54.05.81.03.56.05,1.11.06,1.65.01.55.01,1.11,0,1.66-.01.54-.03,1.1-.06,1.65-.03.52-.07,1.06-.11,1.62-.02.27-.05.53-.07.79l-.49,5.11c-.01.13-.03.26-.04.4-.05.58-.09,1.11-.11,1.63-.01.27-.02.56-.03.84s0,.56,0,.84c0,.27,0,.56.02.83,0,.14.01.27.02.41l.17,3.83c.01.22.02.45.03.67,0,.28.01.56.01.83,0,.54-.01,1.09-.04,1.65-.01.27-.03.54-.05.81-.02.26-.04.53-.07.8-.03.26-.05.52-.08.78-.01.13-.03.25-.04.38l-.03.22h-1.17s.03,0,.04-.01h0s0,0,0,0c.03-.02.05-.04.06-.06,0,0,0,0,0,0,0,0,0,0,0,0,0,0,0,0,0,0,0,0,0-.02.01-.03,0,0,0,0,0,0,0,0,0,0,0-.01,0-.02,0-.03,0-.04,0,0,0-.01,0-.02v-50.88s0-.01,0-.02c0,0,0,0,0-.01,0,0,0,0,0,0s0,0,0,0c0,0,0-.02,0-.02,0,0,0,0,0,0,0,0,0-.02,0-.03,0,0,0,0,0,0-.03-.07-.09-.12-.17-.12h-8.71c.07,0,.13,0,.2,0l5.68-.18c1.35-.04,2.7-.09,4.05-.13M51.57,98.31h-.1s.09-.01.09-.01c0,0,0,0,0,.01M51.56,98.18l-.06-.58c-.03-.25-.05-.5-.08-.75-.06-.57-.11-1.08-.15-1.54-.05-.56-.09-1.08-.13-1.59-.04-.55-.07-1.09-.09-1.62-.04-1.1-.05-2.2-.02-3.29,0-.27.02-.55.03-.82,0-.14.01-.27.02-.41,0-.11.01-.22.02-.33l.71-13.27c.01-.21.02-.43.03-.64.01-.28.02-.56.02-.83,0-.27,0-.55,0-.83,0-.26,0-.51-.01-.77l-.31-14.84c-.01-.54-.01-1.09,0-1.64,0-.54.02-1.09.05-1.64.02-.52.05-1.07.09-1.62.04-.51.08-1.03.13-1.58.04-.47.09-.96.16-1.54.03-.25.05-.5.08-.75l.06-.58c1.05.02,2.1.05,3.14.07h-1.85s0,0,0,0c0,0-.01,0-.02,0,0,0,0,0-.01,0,0,0-.02,0-.03,0,0,0,0,0,0,0,0,0,0,0,0,0,0,0,0,0-.01,0,0,0-.01,0-.02.01,0,0,0,0-.01,0,0,0,0,0,0,0-.03.03-.06.08-.06.13v50.96s0,.04.01.07c0,0,0,0,0,0,0,.02.02.04.03.05,0,0,0,0,0,0,0,0,0,0,0,0,0,0,0,0,0,0,0,0,.02.01.03.02.03.01.06.02.09.02.73,0,1.45,0,2.18,0-1.34.02-2.68.05-4.01.07M101.83,45.81l.05.19c.03.11.06.22.09.34.07.26.13.49.18.71.06.26.12.51.16.76.05.26.1.53.14.8.09.57.14,1.13.17,1.68,0,.14.01.29.01.43,0,.14,0,.29,0,.43,0,.1,0,.19,0,.29l-.16,9.32c0,.1,0,.2,0,.3,0,.15,0,.29,0,.44,0,.29.02.58.04.87.02.28.05.57.08.86.02.14.04.28.06.42.01.1.03.21.05.31l.79,5.16c.03.2.06.41.09.61.04.28.07.56.1.83.06.57.1,1.14.12,1.71.02.58.02,1.16,0,1.73-.02.57-.06,1.14-.12,1.71-.06.54-.13,1.09-.22,1.64-.04.26-.09.53-.14.78l-.99,5.04c-.03.13-.05.26-.07.39-.1.57-.18,1.13-.22,1.67-.02.29-.04.58-.05.88,0,.29-.01.59,0,.88,0,.29.02.58.04.87,0,.14.02.27.03.4l.34,3.95c.02.22.04.46.05.69.02.29.02.58.03.86,0,.56-.03,1.14-.08,1.72-.03.28-.06.56-.1.83-.04.26-.09.53-.14.8-.05.24-.1.49-.16.76-.03.12-.06.24-.09.36-.01.06-.03.12-.05.18v.04h-1.2s.01,0,.02,0c0,0,0,0,.01,0,0,0,0,0,0,0,0,0,0,0,0,0,0,0,0,0,0,0,0,0,0,0,.01,0,0,0,0,0,0,0,0,0,0,0,.01-.01,0,0,0,0,0,0,0,0,0,0,0,0,.02-.02.04-.05.05-.07,0-.02,0-.04.01-.05l.04-.35c.02-.13.03-.25.05-.38.03-.26.06-.52.08-.78.03-.27.05-.54.07-.8.02-.27.04-.55.05-.82.03-.57.04-1.13.04-1.67,0-.27,0-.55-.01-.84,0-.23-.02-.45-.03-.68l-.17-3.83c0-.14-.01-.27-.02-.41,0-.27-.02-.55-.02-.82,0-.27,0-.55,0-.83,0-.28.01-.56.03-.83.02-.51.06-1.04.11-1.62.01-.13.02-.26.04-.39l.49-5.11c.03-.26.05-.53.07-.8.05-.56.08-1.1.11-1.63.03-.56.05-1.12.06-1.66.01-.56.01-1.12,0-1.68-.01-.54-.03-1.1-.06-1.66-.01-.27-.03-.55-.05-.82-.01-.21-.03-.41-.05-.61l-.4-5.14c0-.09-.01-.19-.02-.28,0-.13-.02-.27-.03-.41-.02-.28-.03-.56-.04-.82-.01-.28-.02-.56-.02-.82,0-.14,0-.27,0-.41,0-.09,0-.18,0-.28l.08-8.98c0-.09,0-.19,0-.28,0-.14,0-.28,0-.42,0-.14,0-.28,0-.42-.01-.53-.04-1.09-.09-1.65-.02-.26-.04-.53-.07-.81-.03-.26-.05-.53-.08-.78-.03-.26-.06-.51-.09-.76l-.09-.71s0-.03,0-.05c-.02-.05-.06-.09-.11-.11-.02,0-.06-.01-.08-.01-1.4.05-2.79.09-4.19.14l-4.13.13,5.26-.32c1.44-.09,2.87-.17,4.31-.26M50.13,70.92l-.58-14.08c-.02-.41-.03-.82-.05-1.22-.02-.56-.03-1.12-.01-1.69.01-.56.04-1.12.09-1.69.05-.54.11-1.09.19-1.65.07-.51.16-1.04.26-1.57.09-.47.19-.95.31-1.48.05-.24.11-.47.16-.7.03-.11.05-.23.08-.34l.05-.19c.63.03,1.27.05,1.9.08-.19,0-.38,0-.58-.01,0,0,0,0-.01,0-.02,0-.05,0-.07.01,0,0,0,0,0,0,0,0,0,0,0,0,0,0-.02,0-.03.01-.04.02-.06.06-.08.1,0,.01,0,.03,0,.05l-.08.71c-.03.25-.06.5-.08.75-.06.58-.11,1.07-.16,1.54-.05.56-.1,1.08-.13,1.59-.04.55-.07,1.1-.09,1.63-.02.56-.04,1.11-.05,1.65,0,.56,0,1.11,0,1.65l.32,14.84c0,.25.01.51.01.77,0,.28,0,.56,0,.82,0,.27-.01.54-.02.82,0,.21-.02.42-.03.64l-.71,13.27c0,.11-.01.22-.02.33,0,.14-.01.27-.02.41-.01.27-.02.55-.03.82-.03,1.09-.02,2.21.02,3.31.02.53.05,1.08.09,1.63.04.51.08,1.04.13,1.6.04.47.09.98.15,1.55.03.25.05.5.08.75l.08.71s0,.03,0,.05c.02.05.05.09.1.11.02.01.06.02.09.02.18,0,.36,0,.54,0-.8.03-1.6.05-2.4.08l-.05-.2c-.03-.11-.05-.23-.08-.34-.05-.23-.11-.47-.16-.71-.12-.53-.22-1.02-.31-1.49-.1-.54-.19-1.07-.25-1.58-.07-.55-.13-1.11-.17-1.65-.09-1.13-.1-2.27-.05-3.39.01-.28.03-.56.05-.84.01-.14.02-.28.04-.42.01-.11.02-.23.03-.34l1.41-13.54c.02-.21.05-.44.06-.66.02-.29.04-.58.05-.86,0-.28.01-.57.01-.86,0-.27-.01-.53-.03-.79M103.21,45.15l.08.18c.04.1.09.2.13.31.1.23.18.45.27.67.09.25.17.49.25.74.08.26.15.53.21.8.13.57.21,1.15.25,1.72.01.15.02.3.02.44,0,.15,0,.3,0,.44,0,.1,0,.21,0,.31l-.24,9.66c0,.11,0,.21,0,.32,0,.15,0,.3,0,.46,0,.3.03.6.06.91.03.29.07.59.13.89.03.15.05.29.09.43.02.11.05.21.07.32l.87,3.84c.09.39.18.77.26,1.16l.05.21c.05.2.09.4.13.61.06.28.11.57.15.85.09.58.15,1.18.18,1.77.03.6.03,1.21,0,1.8-.03.59-.09,1.18-.18,1.77-.08.56-.2,1.12-.33,1.67-.07.26-.14.52-.21.78l-1.48,4.96c-.04.13-.08.26-.11.39-.15.57-.27,1.14-.34,1.71-.04.3-.06.61-.08.91-.01.31-.02.62-.01.92,0,.3.03.61.06.91.01.14.03.28.05.41l.35,2.74c.05.39.1.77.15,1.16l.02.15c.03.23.06.47.08.71.02.3.04.6.04.89,0,.59-.04,1.18-.12,1.78-.04.29-.09.57-.15.85-.06.27-.13.53-.21.8-.07.24-.15.49-.25.74-.04.12-.09.23-.13.34-.02.06-.04.11-.07.16l-.02.05h-1.21s.01,0,.02,0c0,0,0,0,0,0,0,0,0,0,0,0,0,0,0,0,0,0,0,0,0,0,.01,0,.01,0,.02-.02.03-.02,0,0,0,0,.01-.01,0,0,0-.01.01-.02,0,0,.01-.01.02-.02,0-.01.01-.03.01-.04l.04-.15c.02-.06.03-.12.05-.18.03-.12.06-.24.09-.37.06-.27.12-.52.17-.77.05-.27.1-.54.14-.81.04-.28.08-.56.1-.85.06-.59.09-1.18.08-1.75,0-.28,0-.58-.03-.87-.01-.24-.03-.47-.05-.7l-.34-3.95c-.01-.13-.02-.26-.03-.4-.02-.28-.03-.57-.04-.85,0-.29,0-.58,0-.86,0-.29.03-.58.05-.86.05-.53.12-1.08.22-1.64.02-.13.05-.26.07-.39l.99-5.04c.05-.26.1-.53.14-.79.09-.56.17-1.12.23-1.66.06-.58.1-1.16.12-1.73.02-.58.02-1.18,0-1.76-.02-.57-.06-1.16-.12-1.73-.03-.27-.06-.56-.1-.84-.03-.21-.06-.41-.09-.62l-.79-5.16c-.02-.1-.03-.2-.05-.3-.02-.14-.04-.27-.06-.41-.04-.29-.06-.57-.08-.84-.02-.29-.03-.57-.04-.85,0-.14,0-.28,0-.43,0-.1,0-.2,0-.3l.16-9.32c0-.1,0-.19,0-.29,0-.15,0-.29,0-.44,0-.15,0-.29-.02-.44-.03-.56-.09-1.14-.17-1.72-.04-.27-.09-.54-.14-.81-.05-.25-.11-.51-.17-.77-.05-.22-.11-.46-.18-.72-.03-.12-.06-.23-.09-.34l-.08-.3s0,0,0-.01c0,0,0,0,0,0,0,0,0-.02,0-.03,0,0,0,0,0,0,0,0,0,0,0,0-.01-.02-.02-.04-.04-.05-.02-.02-.04-.03-.06-.04-.03-.01-.06,0-.08,0-1.48.09-2.95.18-4.43.27l-3.45.21,4.61-.4c1.52-.13,3.03-.26,4.55-.39M48.41,70.93l-.88-14.6c-.02-.39-.05-.77-.07-1.16-.03-.57-.04-1.16-.02-1.74.02-.57.07-1.16.14-1.73.07-.55.16-1.12.28-1.67.11-.52.24-1.04.39-1.56.13-.46.29-.94.47-1.42.08-.21.16-.43.25-.65.04-.11.08-.21.12-.31l.07-.19c.43.03.85.05,1.28.07,0,0,0,0,0,0h0s0,0,0,0c0,0-.01,0-.02,0,0,0-.01,0-.02,0-.03.02-.06.05-.08.08,0,.01-.01.03-.01.05l-.08.31c-.03.11-.05.23-.08.34-.06.23-.11.47-.17.7-.12.53-.22,1.02-.31,1.49-.1.54-.19,1.08-.27,1.59-.08.56-.14,1.12-.19,1.67-.05.57-.08,1.14-.09,1.71-.01.57,0,1.15.01,1.71.02.41.03.82.05,1.22l.37,8.93.21,5.14c.01.26.02.52.02.78,0,.29,0,.57,0,.85,0,.27-.03.55-.05.84-.02.22-.04.44-.06.65l-1.41,13.54c-.01.11-.02.23-.03.35-.01.14-.03.28-.04.42-.02.28-.04.57-.06.85-.06,1.14-.04,2.29.05,3.44.04.55.1,1.12.18,1.67.07.52.16,1.06.26,1.6.09.48.19.97.31,1.51.05.24.11.48.16.71.03.12.05.23.08.35l.08.31s0,0,0,.01c0,0,0,0,0,0,0,.01,0,.02.01.04,0,0,0,0,0,0,0,.01.01.02.02.03.02.02.04.04.07.05-.6.03-1.2.05-1.8.08l-.08-.19c-.04-.1-.08-.21-.12-.32-.09-.23-.17-.45-.24-.66-.17-.49-.33-.97-.46-1.44-.15-.52-.28-1.06-.38-1.58-.11-.56-.2-1.12-.26-1.68-.13-1.16-.15-2.34-.07-3.5.02-.29.05-.58.08-.86.02-.14.04-.28.05-.43.02-.11.03-.23.05-.34l1.9-12.38c.06-.42.13-.84.19-1.25l.03-.18c.03-.22.07-.45.1-.67.03-.3.06-.6.07-.89.01-.29.02-.59.01-.9,0-.28-.02-.55-.04-.82M104.67,44.32h0s.01-.01.01-.01h-.01ZM104.6,44.38l.06-.05h0s-.07.05-.07.05ZM104.62,44.52s.06.09.09.13c.06.09.12.18.18.28.13.2.24.41.35.63.12.23.23.47.33.72.1.26.2.53.28.8.17.58.29,1.18.34,1.77.01.15.02.31.03.46,0,.15,0,.31,0,.46,0,.11,0,.21,0,.32l-.32,10.01c0,.11,0,.23,0,.34,0,.15,0,.31,0,.47,0,.31.04.63.08.94.04.3.1.61.17.93.03.14.07.29.11.44.03.11.06.22.1.32l1.18,3.91c.11.38.23.75.34,1.13l.06.21c.06.2.12.41.18.62.08.29.14.58.2.86.12.6.2,1.21.24,1.83.04.62.04,1.25,0,1.88-.04.61-.12,1.23-.24,1.82-.11.57-.26,1.14-.44,1.69-.09.26-.18.52-.28.77l-1.97,4.89c-.06.15-.11.27-.15.39-.2.56-.36,1.15-.45,1.75-.05.31-.09.63-.11.95-.02.32-.03.64-.01.96.01.31.04.63.08.94.02.14.04.28.06.42l.46,2.77c.07.41.14.82.2,1.24l.03.16c.04.23.08.48.11.72.03.31.05.61.05.92,0,.61-.05,1.23-.16,1.84-.05.3-.12.59-.2.86-.08.27-.17.54-.27.8-.1.24-.21.48-.33.71-.05.11-.11.22-.17.32-.03.05-.06.1-.09.15l-.04.06h-1.23s0,0,.02,0c.04-.01.08-.04.1-.08,0-.01.01-.03.02-.04l.06-.14c.02-.06.05-.11.07-.17.05-.11.09-.23.14-.35.09-.25.18-.51.25-.76.08-.27.15-.55.21-.82.06-.28.12-.58.16-.87.09-.61.13-1.23.12-1.83,0-.3-.02-.6-.04-.91-.02-.25-.05-.49-.08-.73l-.02-.15c-.05-.39-.1-.77-.15-1.16l-.35-2.74c-.02-.13-.03-.27-.05-.4-.03-.29-.05-.59-.06-.88,0-.3,0-.6.01-.9.01-.3.04-.6.08-.89.07-.56.18-1.12.33-1.67.04-.13.07-.26.11-.38l1.48-4.97c.08-.26.15-.53.22-.79.14-.56.25-1.13.34-1.7.09-.59.15-1.2.18-1.8.03-.61.03-1.23,0-1.84-.03-.6-.09-1.21-.19-1.8-.04-.28-.1-.57-.15-.86-.04-.21-.09-.42-.14-.62l-.05-.21c-.09-.39-.18-.77-.26-1.16l-.87-3.84c-.02-.1-.05-.21-.07-.31-.03-.14-.06-.28-.08-.42-.05-.29-.09-.59-.12-.87-.03-.3-.05-.59-.05-.88,0-.15,0-.3,0-.44,0-.11,0-.21,0-.32l.24-9.66c0-.1,0-.21,0-.31,0-.15,0-.3,0-.46,0-.15-.01-.31-.02-.46-.04-.59-.13-1.18-.26-1.78-.06-.28-.14-.56-.21-.82-.07-.25-.16-.51-.25-.76-.08-.22-.17-.45-.27-.69-.05-.11-.09-.21-.14-.31l-.12-.27s0,0,0,0c0,0,0,0,0-.01,0,0,0-.01-.01-.02,0,0,0,0,0,0,0,0,0,0,0,0,0,0,0,0,0,0,0,0,0-.01-.02-.02,0,0,0,0,0,0-.02-.02-.05-.04-.08-.04-.03,0-.06,0-.07,0-1.55.14-3.1.27-4.65.4l-2.69.23,3.78-.41c1.62-.18,3.24-.35,4.86-.53l.03.04ZM45.05,98.48h0s-.04-.09-.07-.13c-.23-.45-.43-.92-.61-1.39-.2-.51-.37-1.04-.51-1.57-.15-.56-.26-1.14-.35-1.71-.17-1.18-.2-2.42-.09-3.6.03-.3.06-.6.11-.89.02-.15.05-.29.07-.43.02-.12.04-.23.07-.35l2.53-12.62c.09-.43.17-.86.26-1.28l.04-.18c.05-.23.09-.46.13-.7.05-.31.08-.62.1-.92.02-.3.03-.62.02-.93,0-.29-.03-.57-.05-.84l-1.16-14.93c-.03-.42-.07-.85-.1-1.27-.04-.59-.05-1.19-.03-1.79.03-.59.09-1.19.18-1.78.09-.57.22-1.14.37-1.7.15-.52.32-1.05.52-1.55.18-.46.39-.92.62-1.36.1-.2.21-.4.33-.6.05-.1.11-.19.16-.28.03-.05.05-.09.08-.14l.02-.04c.42.03.84.06,1.26.09,0,0-.02.01-.02.02,0,0,0,0-.01.01,0,0,0,0,0,0,0,0-.02.02-.02.03,0,.01-.01.03-.02.04l-.11.28c-.04.1-.08.21-.12.31-.09.22-.17.45-.25.66-.18.49-.34.98-.47,1.44-.15.53-.29,1.06-.4,1.59-.12.56-.21,1.14-.28,1.7-.07.59-.12,1.18-.14,1.76-.02.6-.01,1.19.02,1.77.02.39.05.77.07,1.16l.88,14.6c.02.26.03.53.04.8,0,.3,0,.59-.01.87-.01.28-.04.57-.07.86-.03.22-.06.45-.09.66l-.03.18c-.06.42-.13.84-.19,1.25l-1.9,12.38c-.02.11-.04.23-.05.34-.02.14-.04.29-.06.43-.03.29-.06.58-.08.88-.09,1.18-.06,2.38.07,3.56.06.57.15,1.15.27,1.71.11.53.24,1.07.39,1.61.13.48.29.97.47,1.46.08.22.16.44.25.67.04.11.08.21.12.32l.11.29s0,0,0,0c0,0,0,0,0,0,0,0,0,.01,0,.02,0,0,0,0,0,0,0,0,0,0,0,0,0,0,.01.02.02.03,0,0,0,0,0,0,0,.01.02.02.03.03-.59.03-1.19.07-1.78.1l-.03-.04s-.05-.09-.08-.14c-.05-.09-.11-.19-.16-.29-.09-.16-.18-.32-.26-.49M107.58,60.59c.01.33.04.66.09.98.05.32.12.64.21.96.04.15.09.3.14.45.04.11.08.21.11.31l1.47,3.94c.14.39.29.77.43,1.16.03.07.05.14.08.21.08.2.15.41.22.62.1.29.18.59.25.88.15.61.25,1.25.3,1.89.05.65.05,1.3,0,1.95-.05.64-.15,1.27-.3,1.88-.14.59-.33,1.17-.55,1.71-.11.26-.23.52-.35.77l-2.46,4.82c-.08.15-.14.27-.19.39-.25.56-.45,1.18-.57,1.79-.06.32-.11.66-.13.99-.03.33-.03.67-.02,1,.01.33.05.66.1.98.02.15.05.3.08.44l.57,2.83c.08.42.17.84.25,1.27l.03.16c.05.24.1.49.13.74.04.32.06.63.06.95,0,.63-.06,1.29-.2,1.9-.07.31-.15.6-.25.88-.1.27-.21.54-.34.8-.12.24-.26.47-.41.69-.07.1-.14.2-.22.3-.04.05-.07.09-.11.14-.02.02-.04.04-.06.07h-1.25s0,0,0,0t0,0s0,0,0,0c0,0,.02,0,.03,0,0,0,0,0,0,0,0,0,0,0,0,0,0,0,0,0,.01,0,0,0,0,0,.01,0,.01,0,.02-.02.03-.03,0,0,.02-.02.02-.03l.08-.13c.03-.05.06-.1.09-.16.06-.11.13-.22.18-.34.12-.24.24-.49.34-.74.11-.27.2-.55.29-.83.08-.29.15-.59.21-.9.12-.63.17-1.27.17-1.91,0-.31-.02-.63-.05-.95-.03-.26-.07-.5-.11-.74l-.03-.16c-.07-.41-.14-.82-.2-1.24l-.46-2.77c-.02-.14-.04-.27-.06-.41-.04-.3-.06-.61-.07-.91-.01-.31,0-.62.01-.93.02-.31.05-.62.1-.92.09-.58.24-1.15.44-1.69.04-.11.09-.23.15-.38l1.97-4.89c.1-.25.2-.52.29-.79.19-.56.34-1.14.46-1.73.12-.61.2-1.24.25-1.87.04-.64.04-1.29,0-1.92-.04-.63-.13-1.26-.25-1.87-.06-.29-.13-.59-.21-.88-.06-.21-.12-.43-.18-.63l-.06-.21c-.11-.38-.23-.75-.34-1.13l-1.18-3.92c-.03-.1-.06-.21-.09-.32-.04-.14-.08-.29-.11-.43-.07-.3-.12-.6-.16-.89-.04-.3-.06-.61-.07-.91,0-.16,0-.31,0-.46,0-.11,0-.22,0-.34l.32-10.01c0-.11,0-.21,0-.32,0-.15,0-.31,0-.48,0-.16-.02-.32-.03-.48-.05-.62-.17-1.23-.35-1.84-.08-.29-.18-.57-.29-.83-.1-.25-.22-.51-.34-.75-.11-.22-.23-.44-.36-.65-.06-.1-.12-.2-.18-.29-.03-.05-.06-.09-.09-.13l-.08-.11s-.01-.02-.02-.03c-.03-.03-.07-.05-.1-.05-.03,0-.05,0-.06,0-1.65.18-3.3.36-4.95.54l-1.75.19,2.9-.38c1.71-.22,3.42-.45,5.13-.67.02.02.03.03.05.05.04.04.07.07.11.11.07.08.15.16.22.25.15.18.3.38.44.58.15.22.28.46.4.7.13.25.24.52.34.8.21.58.36,1.21.42,1.81.02.16.03.32.04.47,0,.16,0,.32,0,.47,0,.11,0,.22-.01.33l-.22,5.8-.17,4.56c0,.12,0,.24-.01.36,0,.16,0,.33,0,.49M44.99,70.93v-.07c-.05-.51-.1-1.02-.15-1.53l-1.3-13.74c-.04-.44-.08-.88-.12-1.32-.06-.6-.07-1.22-.03-1.84.03-.61.11-1.22.23-1.83.11-.58.27-1.16.46-1.73.18-.53.4-1.05.65-1.54.23-.46.49-.9.77-1.31.13-.19.27-.37.41-.55.07-.09.14-.17.2-.25.03-.04.07-.08.1-.12l.04-.05c.42.04.84.07,1.26.11,0,0-.02.01-.03.02,0,0-.01.02-.02.03l-.07.11s-.06.09-.08.14c-.06.09-.11.19-.17.29-.12.21-.23.41-.33.62-.23.46-.45.93-.63,1.39-.21.52-.39,1.05-.53,1.59-.16.57-.29,1.15-.38,1.74-.1.6-.16,1.21-.19,1.82-.03.62-.02,1.23.03,1.83.03.43.07.85.1,1.28l1.16,14.93c.02.27.04.55.05.82,0,.31,0,.61-.02.9-.02.29-.05.59-.1.89-.03.23-.08.46-.13.68l-.04.18c-.09.43-.17.85-.26,1.28l-2.53,12.62c-.02.12-.05.24-.07.36-.03.15-.05.29-.07.44-.05.3-.08.6-.11.91-.11,1.21-.08,2.48.09,3.68.09.59.21,1.18.36,1.75.14.54.32,1.09.52,1.61.18.48.39.96.62,1.42.02.05.04.09.07.13.08.17.17.33.26.5.06.1.11.2.17.29.03.05.05.09.08.14l.07.12s.01.02.02.04c0,0,.01.01.02.02-.59.04-1.18.08-1.78.12l-.04-.05s-.07-.08-.1-.12c-.07-.08-.13-.17-.2-.26-.14-.18-.27-.38-.4-.57-.28-.42-.53-.87-.76-1.34-.24-.5-.46-1.03-.63-1.57-.18-.56-.33-1.15-.43-1.74-.21-1.21-.25-2.49-.11-3.7.04-.31.08-.61.14-.91.03-.14.06-.29.09-.44.03-.12.06-.24.09-.36l3.16-12.85c.11-.44.22-.89.33-1.33l.05-.19c.06-.23.12-.47.16-.71.06-.32.1-.64.12-.95.02-.31.03-.64.03-.96,0-.3-.03-.59-.06-.87M109.03,45.12h0c.07.13.13.27.19.41.25.59.42,1.23.5,1.86.02.16.04.33.04.49,0,.17.01.33,0,.49,0,.11,0,.23-.01.34l-.48,10.72c0,.12-.01.24-.01.36,0,.16,0,.34,0,.51.01.34.05.68.11,1.02.06.33.14.66.25.99.05.15.11.31.17.46.05.11.09.22.14.32l.05.11c.16.36.31.71.47,1.07l1.25,2.82c.17.38.34.77.51,1.15.03.07.06.14.1.21.09.2.18.41.27.63.11.29.22.6.3.9.18.63.3,1.28.36,1.94.06.67.06,1.35,0,2.02-.06.66-.18,1.32-.36,1.94-.17.61-.39,1.19-.66,1.74-.13.27-.27.52-.42.76l-2.96,4.75c-.09.14-.16.27-.23.39-.3.55-.54,1.19-.68,1.83-.07.33-.13.68-.16,1.03-.03.35-.04.7-.02,1.04.02.34.06.68.12,1.01.03.15.06.3.1.45l.69,2.94c.1.42.2.84.3,1.26l.04.16c.06.25.12.5.16.76.05.32.07.65.08.98,0,.65-.08,1.33-.24,1.97-.08.31-.18.62-.3.9-.12.28-.25.55-.41.8-.15.24-.31.47-.48.67-.08.1-.17.19-.26.28-.04.04-.09.09-.13.13-.02.02-.04.04-.07.07h-.01c-.42,0-.84,0-1.26,0,.01,0,.03,0,.04-.02,0,0,.02-.01.03-.02,0,0,0,0,0,0,0,0,.01,0,.02-.01,0,0,.01-.01.02-.02l.05-.06s.04-.05.06-.07c.04-.05.08-.1.12-.15.08-.11.16-.21.23-.32.15-.23.3-.48.43-.73.14-.27.26-.55.36-.84.1-.29.19-.6.27-.92.14-.64.22-1.33.21-1.98,0-.32-.03-.66-.07-.99-.03-.27-.09-.52-.14-.77l-.03-.16c-.08-.42-.17-.84-.25-1.27l-.44-2.19-.13-.64c-.03-.14-.06-.28-.08-.42-.05-.31-.08-.62-.09-.94-.01-.32,0-.64.02-.96.02-.32.07-.64.13-.95.11-.59.3-1.19.54-1.72.05-.11.11-.23.18-.37l2.46-4.82c.13-.25.25-.52.36-.79.23-.56.42-1.16.57-1.77.15-.63.25-1.28.31-1.94.05-.66.05-1.34,0-2-.05-.66-.16-1.31-.31-1.94-.07-.3-.16-.61-.26-.9-.07-.22-.15-.43-.23-.63-.03-.07-.05-.14-.08-.21-.14-.39-.29-.77-.43-1.16l-1.47-3.94c-.04-.1-.08-.2-.11-.31-.05-.14-.1-.29-.14-.43-.09-.3-.15-.61-.2-.92-.05-.31-.08-.63-.09-.94,0-.16,0-.32,0-.47,0-.12,0-.23.01-.35l.4-10.35c0-.11,0-.23.01-.34,0-.16,0-.33,0-.5,0-.16-.02-.33-.04-.5-.07-.64-.22-1.29-.44-1.89-.11-.29-.23-.58-.36-.84-.13-.26-.27-.5-.43-.73-.14-.22-.3-.42-.46-.62-.08-.09-.15-.18-.23-.26-.04-.04-.08-.08-.11-.12-.02-.02-.04-.04-.06-.06l-.04-.04s-.02-.02-.03-.03c-.03-.02-.06-.03-.09-.03-.02,0-.04,0-.05,0-1.73.23-3.46.45-5.19.68l-.75.1,1.96-.29c1.78-.27,3.56-.53,5.34-.8h0s.04.03.06.05c.04.03.09.06.13.09.09.07.17.14.26.22.18.16.35.34.52.54.17.21.34.44.48.68.08.13.15.26.22.4M43.35,71.84c0-.31-.04-.61-.07-.9l-1.74-15.74c-.05-.45-.1-.91-.15-1.36-.07-.62-.08-1.25-.04-1.89.04-.63.13-1.26.27-1.87.14-.6.32-1.19.55-1.75.22-.54.48-1.06.78-1.54.28-.45.59-.87.92-1.25.16-.18.32-.35.48-.51.08-.08.16-.15.24-.22.04-.04.08-.07.12-.1l.06-.05c.42.04.84.08,1.26.12,0,0,0,0-.01.01l-.09.1s-.07.08-.1.12c-.07.08-.14.17-.21.26-.14.19-.28.38-.42.57-.29.42-.56.88-.8,1.35-.26.51-.48,1.04-.67,1.59-.2.58-.36,1.17-.48,1.77-.12.62-.2,1.25-.23,1.88-.03.64-.02,1.27.04,1.89.04.44.08.88.12,1.32l1.3,13.74c.05.51.1,1.02.15,1.53v.07c.03.28.06.56.07.85,0,.31,0,.63-.02.93-.02.3-.06.6-.12.91-.04.23-.1.47-.16.69l-.05.19c-.11.44-.22.89-.33,1.33l-3.16,12.85c-.03.12-.06.24-.09.36-.03.16-.07.31-.09.46-.06.3-.1.62-.14.93-.14,1.25-.1,2.56.12,3.8.11.61.26,1.21.45,1.79.18.55.4,1.1.65,1.61.23.48.5.94.78,1.38.13.2.27.4.42.59.07.09.14.18.21.27.03.04.07.09.1.13l.09.11s0,0,0,0c-.59.05-1.18.09-1.78.14l-.07-.06s-.08-.07-.12-.11c-.08-.07-.16-.15-.24-.23-.16-.16-.33-.34-.48-.53-.33-.39-.64-.83-.91-1.29-.29-.49-.54-1.02-.76-1.57-.22-.57-.4-1.17-.52-1.78-.26-1.24-.3-2.56-.14-3.81.04-.31.1-.63.16-.93.03-.15.07-.3.11-.45.03-.12.07-.24.1-.37l3.82-13.19c.12-.42.24-.84.36-1.26l.06-.19c.07-.23.14-.48.19-.73.07-.33.12-.66.15-.98.03-.32.04-.66.03-1M110.98,59.99c.02.35.06.7.13,1.05.07.34.17.69.3,1.02.06.16.13.32.2.47.05.11.11.22.16.33l.05.1c.19.38.38.75.58,1.12l1.43,2.78c.2.39.4.78.6,1.18.04.07.07.14.11.21.11.2.22.42.31.63.13.3.25.6.35.91.21.64.35,1.32.42,2,.07.69.07,1.4,0,2.09-.07.69-.21,1.36-.42,2-.2.63-.46,1.22-.77,1.77-.15.27-.32.52-.49.76-.13.18-.26.35-.39.53l-2.87,3.89c-.06.09-.13.17-.19.26-.11.14-.19.26-.27.38-.35.55-.63,1.2-.8,1.87-.09.34-.15.7-.19,1.07-.04.36-.04.73-.03,1.09.02.35.06.71.14,1.05.03.16.08.31.12.46l.8,2.97c.12.44.24.88.36,1.32l.05.17c.07.25.14.51.18.78.05.33.09.67.09,1.01,0,.68-.09,1.38-.28,2.03-.09.32-.21.63-.35.92-.14.28-.3.55-.48.8-.17.24-.36.46-.56.66-.1.09-.2.18-.3.27-.05.04-.1.08-.15.12-.03.02-.05.04-.08.05l-.03.02c-.42,0-.85,0-1.27,0,.03,0,.05-.02.07-.03,0,0,.01,0,.02-.02l.06-.05s.05-.04.07-.07c.05-.04.09-.09.14-.14.09-.1.19-.2.28-.3.19-.22.36-.46.51-.72.16-.27.31-.55.43-.84.13-.3.23-.62.32-.95.17-.66.26-1.38.25-2.06,0-.34-.03-.68-.08-1.02-.04-.28-.1-.54-.16-.79l-.04-.16c-.1-.42-.2-.84-.3-1.26l-.69-2.94c-.03-.14-.07-.29-.09-.43-.06-.31-.1-.64-.11-.96-.02-.33,0-.67.02-1,.03-.33.08-.66.15-.98.14-.61.36-1.22.65-1.74.06-.11.13-.23.22-.37l2.96-4.75c.15-.25.3-.51.44-.79.28-.57.51-1.17.69-1.8.18-.65.31-1.32.37-2,.06-.69.07-1.39,0-2.08-.06-.69-.19-1.36-.37-2.01-.09-.31-.19-.62-.31-.93-.09-.22-.18-.44-.27-.64-.03-.07-.06-.14-.09-.21-.17-.38-.34-.77-.51-1.15l-1.25-2.82c-.16-.36-.31-.71-.47-1.07l-.05-.11c-.05-.1-.09-.2-.13-.31-.06-.15-.11-.29-.16-.44-.1-.31-.18-.63-.24-.94-.06-.32-.1-.65-.11-.97,0-.17,0-.33,0-.49,0-.12,0-.23.01-.35l.48-10.72c0-.12.01-.23.01-.35,0-.17,0-.34,0-.51,0-.17-.02-.34-.05-.51-.08-.66-.27-1.34-.53-1.95-.06-.14-.13-.29-.2-.43,0,0,0,0,0,0-.07-.15-.15-.29-.23-.42-.16-.26-.33-.5-.51-.72-.17-.21-.36-.4-.55-.58-.09-.08-.19-.16-.28-.23-.05-.04-.09-.07-.14-.1-.02-.02-.05-.03-.07-.05l-.05-.03s-.02-.01-.03-.02c-.02-.01-.05-.02-.08-.02-.01,0-.03,0-.05,0-1.69.25-3.39.51-5.08.76l.74-.12c1.9-.32,3.81-.64,5.72-.96h.03s.05.03.07.05c.05.02.1.05.15.08.1.06.2.12.3.19.21.14.41.31.6.5.2.2.39.42.56.66.18.25.34.52.48.81.29.59.49,1.25.59,1.91.02.17.04.34.05.5,0,.17.01.34,0,.5,0,.12,0,.23-.02.35l-.48,9.49c-.02.48-.05.96-.07,1.44v.14c-.01.12-.02.25-.02.37,0,.17,0,.35,0,.53M41.65,71.87c-.01-.32-.05-.63-.09-.93l-2.04-16.21c-.06-.45-.11-.89-.17-1.34-.08-.63-.09-1.29-.05-1.94.05-.65.15-1.29.32-1.92.16-.62.38-1.21.65-1.78.26-.55.56-1.06.91-1.53.33-.44.69-.85,1.07-1.19.18-.16.37-.32.56-.46.09-.07.19-.13.28-.19.05-.03.09-.06.14-.09.02-.01.05-.03.08-.05h.01c.42.04.83.09,1.25.13l-.08.07s-.08.07-.13.11c-.08.07-.17.15-.25.23-.17.16-.34.34-.5.53-.35.39-.67.83-.96,1.3-.31.5-.58,1.03-.81,1.59-.24.58-.43,1.19-.57,1.81-.15.63-.24,1.28-.28,1.93-.04.66-.03,1.32.04,1.95.05.45.1.91.15,1.36l1.52,13.78.22,1.96c.03.28.06.58.07.87,0,.32,0,.64-.03.95-.03.31-.08.62-.14.94-.05.24-.12.47-.19.7l-.06.19c-.12.42-.24.84-.36,1.26l-3.82,13.19c-.04.12-.07.25-.11.37-.04.16-.08.31-.11.47-.07.31-.12.63-.17.96-.17,1.29-.12,2.65.14,3.93.13.63.31,1.24.54,1.83.22.56.48,1.11.78,1.62.28.48.6.93.94,1.33.16.19.33.38.5.55.08.08.17.17.25.24.04.04.08.08.13.11l.08.07c-.59.05-1.18.1-1.77.15l-.09-.06s-.09-.06-.14-.09c-.09-.06-.19-.13-.28-.21-.19-.15-.38-.31-.56-.48-.38-.36-.74-.78-1.06-1.24-.34-.48-.63-1.01-.88-1.56-.25-.57-.46-1.18-.61-1.81-.3-1.27-.35-2.63-.16-3.92.05-.32.11-.64.19-.95.04-.15.08-.31.13-.46.04-.13.08-.25.12-.38l4.45-13.41c.14-.44.29-.87.43-1.3.02-.06.04-.13.06-.19.08-.24.16-.49.23-.75.08-.33.14-.67.17-1.01.03-.33.05-.68.04-1.03M112.7,44.15s0,0,0,0c.28.55.48,1.17.58,1.78.03.17.05.35.06.52.01.17.01.35.01.52,0,.12-.01.24-.02.36l-.54,9.74c-.03.51-.06,1.02-.09,1.54v.14c-.02.13-.02.26-.03.39,0,.18,0,.36,0,.55.02.36.07.73.15,1.09.08.35.19.71.34,1.05.06.14.12.27.19.4,0,0,0,0,0,0,.01.03.03.05.04.08.06.12.13.23.19.33l.06.1c.23.39.45.78.68,1.16l1.63,2.8c.23.39.45.77.67,1.16.04.07.09.15.13.22.11.2.23.4.34.61h0s0,0,0,0v.02c.16.3.3.61.41.93.24.66.4,1.35.48,2.07.08.72.08,1.45,0,2.17-.08.71-.24,1.41-.48,2.06-.23.64-.53,1.25-.88,1.79-.18.27-.36.52-.56.75-.15.18-.31.36-.46.54l-3.26,3.81c-.07.08-.14.17-.22.25-.12.14-.22.26-.3.38-.4.55-.72,1.21-.92,1.91-.1.35-.17.73-.21,1.1-.04.37-.05.75-.03,1.13.02.37.07.73.16,1.08.04.16.09.32.13.47l.9,2.99c.14.47.28.93.42,1.4l.05.17c.08.27.16.52.21.8.06.34.1.69.1,1.04.01.7-.1,1.43-.32,2.1-.11.33-.24.65-.4.94-.16.29-.34.56-.54.8-.2.24-.41.45-.64.64-.11.09-.23.17-.34.25-.06.04-.12.07-.17.11-.03.02-.06.03-.09.05l-.05.03c-.43,0-.86,0-1.28,0,.02,0,.04,0,.05-.02,0,0,0,0,0,0h0s.02,0,.02-.01l.07-.04s.06-.04.08-.06c.06-.04.11-.08.17-.13.11-.09.22-.19.32-.29.22-.21.42-.45.6-.7.19-.26.36-.55.51-.85.15-.3.27-.63.37-.97.2-.69.3-1.42.29-2.14,0-.35-.04-.71-.09-1.06-.05-.29-.12-.56-.19-.82l-.04-.17c-.12-.44-.24-.88-.36-1.32l-.8-2.97c-.04-.14-.08-.29-.11-.44-.07-.32-.11-.66-.13-.99-.02-.34,0-.69.02-1.03.03-.35.09-.69.18-1.01.16-.64.42-1.25.75-1.77.07-.11.15-.23.25-.36.06-.09.13-.17.19-.26l2.87-3.89c.13-.18.26-.35.39-.53.18-.25.35-.51.51-.79.33-.57.6-1.18.8-1.83.21-.66.36-1.36.43-2.07.08-.72.08-1.45,0-2.16-.07-.71-.22-1.41-.44-2.08-.1-.32-.23-.64-.36-.95-.1-.23-.21-.44-.32-.65-.04-.07-.07-.14-.11-.21-.2-.39-.4-.78-.6-1.18l-1.43-2.78c-.19-.37-.38-.75-.58-1.12l-.05-.11c-.05-.1-.11-.21-.16-.32-.07-.15-.13-.3-.19-.45-.12-.32-.22-.64-.28-.97-.07-.33-.11-.67-.13-1,0-.17-.01-.34,0-.5,0-.12.01-.24.02-.36v-.15c.03-.48.06-.96.08-1.44l.48-9.49c0-.12.01-.24.02-.36,0-.17,0-.35,0-.53-.01-.17-.03-.35-.05-.53-.1-.69-.31-1.39-.62-2.01-.15-.31-.32-.59-.51-.86-.18-.26-.39-.5-.6-.71-.21-.2-.42-.39-.65-.54-.11-.07-.22-.14-.33-.2-.05-.03-.11-.06-.16-.09-.03-.01-.05-.03-.08-.04l-.06-.03s-.02,0-.02-.01c-.04-.01-.07-.01-.11,0-1.37.23-2.73.46-4.1.69,1.83-.34,3.67-.67,5.5-1.01h.05s.06.03.08.04c.06.02.11.04.17.06.11.05.23.1.34.16.24.12.47.28.69.46.23.19.44.41.64.65.2.24.38.52.55.81.03.06.06.11.09.17M39.95,71.9c-.01-.33-.06-.64-.1-.95v-.07c-.08-.5-.15-.99-.22-1.49l-2.11-15.07c-.06-.46-.13-.92-.19-1.37-.09-.65-.11-1.32-.05-1.99.05-.66.17-1.33.36-1.97.18-.63.43-1.24.74-1.81.29-.55.64-1.06,1.04-1.52.38-.44.79-.82,1.23-1.14.21-.15.42-.29.64-.41.06-.03.12-.07.19-.1h0s.09-.04.13-.07c.05-.03.11-.05.16-.07.03-.01.05-.02.09-.04h.03c.41.04.82.09,1.23.14-.01,0-.03.02-.04.03-.05.03-.1.06-.15.09-.1.06-.2.13-.3.2-.2.15-.4.31-.59.48-.4.36-.78.78-1.12,1.25-.36.49-.68,1.02-.94,1.59-.28.59-.5,1.2-.67,1.84-.17.65-.28,1.32-.33,1.99-.05.68-.03,1.36.05,2.01.05.45.11.9.17,1.34l1.79,14.2.25,2.01c.04.29.08.59.09.9,0,.33,0,.66-.03.98-.03.32-.09.64-.17.96-.06.25-.14.49-.22.72-.02.06-.04.13-.06.19-.14.44-.29.87-.43,1.3l-4.45,13.41c-.04.13-.08.25-.12.38-.05.16-.09.32-.13.48-.08.32-.15.65-.2.99-.2,1.33-.14,2.73.16,4.05.15.65.36,1.28.63,1.87.26.58.56,1.12.91,1.62.33.48.7.91,1.1,1.29.19.18.39.35.59.51.1.08.2.15.3.22.05.03.1.07.15.1.01,0,.03.02.04.03-.58.05-1.16.11-1.75.16l-.04-.02s-.05-.02-.08-.04c-.05-.03-.11-.05-.16-.08-.11-.05-.21-.11-.32-.18-.22-.13-.43-.28-.64-.44-.43-.34-.84-.74-1.21-1.19-.38-.47-.72-1-1-1.56-.29-.58-.52-1.2-.69-1.84-.34-1.3-.4-2.7-.18-4.02.06-.33.13-.66.22-.98.04-.15.09-.31.15-.47.04-.13.09-.26.14-.38l5.08-13.65c.17-.45.33-.89.5-1.34.02-.07.05-.13.07-.2.09-.24.19-.5.26-.76.09-.34.16-.69.2-1.03.04-.34.05-.7.04-1.06M114.51,43.58c.26.51.45,1.07.54,1.62.03.18.05.36.06.54.01.18.02.36.01.53,0,.13-.01.25-.02.38v.17c-.02.14-.03.27-.03.41l-.57,9.31c-.03.58-.07,1.16-.11,1.74v.15c-.02.13-.03.27-.03.4,0,.18,0,.37,0,.57.02.38.08.75.17,1.12.09.37.22.73.38,1.08.03.06.06.13.09.19h0c.05.1.11.21.17.31.07.12.14.23.21.33l.07.11c.24.37.48.75.72,1.12l1.85,2.85c.26.4.52.8.77,1.2.05.07.1.15.14.22.14.21.28.42.4.64.05.09.09.17.14.26h0c.11.22.22.46.31.69.27.67.45,1.39.54,2.13.09.74.09,1.5,0,2.24-.09.74-.27,1.45-.54,2.12-.26.66-.59,1.27-.99,1.82-.2.27-.41.52-.63.75-.16.17-.33.34-.49.5l-3.71,3.8c-.08.08-.16.16-.23.24-.13.14-.24.26-.34.38-.45.55-.81,1.22-1.03,1.94-.11.37-.19.75-.24,1.14-.05.39-.06.78-.03,1.17.02.38.08.76.18,1.12.04.17.1.33.15.48l1.04,3.14c.15.45.3.9.45,1.35l.06.17c.09.27.18.53.24.82.07.35.11.71.11,1.07.01.73-.11,1.48-.36,2.16-.12.34-.27.66-.45.96-.18.29-.38.56-.61.81-.22.24-.46.44-.72.62-.12.08-.25.16-.38.23-.06.03-.13.07-.19.1-.03.01-.07.03-.1.04l-.07.03h-1.29s.03,0,.05-.02c0,0,0,0,0,0,0,0,0,0,0,0,0,0,0,0,0,0,0,0,0,0,0,0h0s0,0,0,0l.06-.03s.06-.04.1-.05c.06-.04.13-.08.19-.12.13-.08.25-.17.37-.27.25-.2.48-.43.69-.69.22-.26.41-.55.58-.86.17-.31.31-.64.43-1,.23-.71.35-1.47.34-2.21,0-.37-.04-.73-.11-1.1-.05-.29-.14-.57-.22-.84l-.05-.17c-.14-.47-.28-.94-.42-1.4l-.9-2.99c-.04-.15-.09-.3-.13-.45-.08-.33-.13-.67-.15-1.02-.02-.35-.01-.71.03-1.07.04-.36.11-.71.2-1.05.19-.66.48-1.28.86-1.8.08-.11.17-.23.29-.36.07-.08.14-.17.22-.25l3.26-3.81c.15-.18.31-.36.46-.54.21-.24.4-.51.59-.79.37-.57.68-1.2.92-1.87.24-.68.41-1.4.49-2.14.09-.74.09-1.5,0-2.24-.08-.74-.25-1.46-.5-2.14-.12-.33-.26-.65-.42-.97l-.02-.03h0c-.11-.22-.23-.43-.35-.63-.04-.07-.08-.14-.13-.22-.22-.39-.45-.78-.68-1.16l-1.63-2.8c-.22-.39-.45-.77-.67-1.16l-.06-.11c-.06-.11-.12-.21-.18-.32-.01-.02-.03-.05-.04-.07t0,0c-.06-.12-.12-.25-.18-.38-.14-.32-.25-.66-.32-.99-.08-.34-.13-.69-.14-1.03,0-.18-.01-.35,0-.52,0-.13.01-.25.02-.38v-.15c.04-.51.07-1.02.09-1.54l.51-9.18c0-.13.01-.26.02-.4v-.16c.02-.12.02-.25.03-.38,0-.18,0-.37-.01-.55-.01-.18-.03-.37-.06-.55-.1-.65-.31-1.3-.61-1.88h0c-.03-.06-.06-.12-.1-.18-.17-.31-.37-.6-.58-.86-.21-.26-.44-.49-.69-.69-.24-.2-.49-.36-.75-.5-.12-.07-.25-.12-.38-.17-.06-.02-.13-.05-.19-.07-.03-.01-.06-.02-.09-.03l-.07-.02s-.01,0-.02,0c-.02,0-.04,0-.06,0-.01,0-.03,0-.04,0-1.01.19-2.03.37-3.04.56,1.48-.29,2.97-.59,4.45-.88h.07s.06.02.09.03c.06.01.13.03.19.05.13.03.26.08.39.13.26.11.52.25.77.42.25.18.5.39.72.63.22.24.43.51.61.81.07.12.15.25.21.38M31.6,97.9h0c-.25-.5-.46-1.03-.62-1.58-.38-1.34-.46-2.77-.2-4.13.06-.34.14-.68.24-1,.05-.16.1-.32.16-.48.05-.13.1-.26.15-.39l5.71-13.9c.19-.45.37-.91.56-1.36.03-.07.05-.13.08-.2.1-.25.21-.51.29-.78.11-.35.18-.71.23-1.06.04-.35.06-.72.05-1.09-.01-.34-.06-.66-.11-.98v-.07c-.09-.51-.17-1.02-.25-1.52l-2.37-15.41c-.07-.48-.15-.96-.22-1.45-.1-.66-.12-1.35-.06-2.04.06-.68.19-1.36.41-2.02.21-.65.49-1.26.83-1.84.33-.56.72-1.07,1.16-1.51.42-.43.89-.8,1.38-1.09.11-.07.23-.13.35-.19.12-.06.25-.12.37-.17.12-.05.24-.1.36-.14.06-.02.12-.04.18-.06.03,0,.06-.02.1-.03h.03s.01-.01.01-.01c.4.05.79.1,1.19.15-.05.02-.1.05-.16.07-.05.02-.09.05-.14.07-.07.03-.13.07-.2.11-.23.13-.46.27-.68.43-.46.33-.89.74-1.28,1.19-.41.48-.77,1.01-1.08,1.58-.32.59-.57,1.22-.76,1.87-.19.67-.32,1.35-.37,2.04-.05.7-.04,1.4.06,2.07.06.46.13.92.19,1.38l2.11,15.07c.07.5.14.99.21,1.49v.07c.05.3.1.61.11.92.01.34,0,.68-.04,1.01-.04.33-.1.66-.19.98-.07.25-.16.5-.25.73-.02.07-.05.13-.07.2-.16.45-.33.89-.5,1.34l-5.08,13.65c-.05.13-.1.26-.14.39-.06.17-.11.33-.15.49-.09.33-.17.67-.22,1.01-.23,1.37-.17,2.82.19,4.17.17.67.42,1.31.72,1.91.29.59.65,1.13,1.04,1.62.38.47.81.89,1.26,1.24.22.17.44.33.67.46.11.07.23.13.34.19.05.03.1.05.15.08-.57.06-1.14.11-1.7.17,0,0-.01,0-.01,0h-.04s-.06-.03-.09-.04c-.06-.02-.12-.04-.18-.07-.12-.05-.24-.1-.36-.15-.24-.11-.48-.25-.72-.4-.48-.31-.94-.7-1.36-1.14-.43-.46-.81-.99-1.13-1.56-.05-.09-.11-.19-.15-.29M116.08,59.09c.02.39.09.78.19,1.16.1.38.24.75.43,1.11.09.17.18.34.29.5.08.12.16.23.23.34l.08.11c.28.39.56.78.84,1.17l2.03,2.84c.28.4.57.79.85,1.19.05.07.11.15.16.22.15.21.31.42.44.65.1.17.2.34.29.51,0,0,0,0,0,0,.07.15.15.3.21.45.3.69.5,1.42.6,2.19.1.77.1,1.54,0,2.31-.1.76-.3,1.5-.59,2.18-.29.68-.66,1.3-1.1,1.85-.22.27-.45.52-.7.74-.19.17-.37.34-.56.5l-4.1,3.71c-.09.08-.18.17-.28.25-.15.13-.27.25-.38.37-.5.55-.9,1.23-1.15,1.98-.13.38-.21.77-.27,1.18-.05.4-.06.81-.04,1.21.03.39.09.78.2,1.15.05.18.11.34.17.5l1.14,3.16c.17.48.34.95.51,1.43.02.06.04.12.06.18.1.28.2.55.26.84.08.36.12.73.13,1.1.01.75-.13,1.52-.4,2.23-.14.35-.3.68-.5.98-.2.3-.42.57-.68.81-.25.23-.52.44-.8.6-.14.08-.28.15-.43.22-.07.03-.14.06-.22.09-.04.01-.07.03-.11.04l-.08.03h-1.3s.02,0,.03,0c0,0,.01,0,.02,0l.08-.03s.07-.03.11-.05c.07-.03.14-.07.21-.11.14-.08.28-.16.42-.25.28-.19.54-.42.78-.67.24-.26.46-.55.65-.86s.35-.66.48-1.02c.26-.73.39-1.52.38-2.29,0-.38-.05-.76-.12-1.13-.06-.3-.16-.59-.25-.86l-.06-.17c-.15-.45-.3-.9-.45-1.35l-1.04-3.14c-.05-.16-.1-.3-.14-.46-.09-.34-.14-.69-.17-1.05-.02-.36-.01-.74.03-1.1.04-.37.12-.73.23-1.08.21-.68.54-1.31.97-1.82.09-.11.2-.23.32-.35.08-.08.16-.16.24-.24l3.71-3.8c.16-.17.33-.34.49-.5.23-.24.45-.5.66-.78.42-.57.77-1.21,1.03-1.9.27-.7.46-1.44.56-2.21.1-.77.1-1.55,0-2.32-.1-.77-.28-1.51-.56-2.21-.1-.24-.2-.48-.32-.72h0c-.05-.09-.1-.18-.15-.27-.13-.23-.27-.45-.41-.67-.05-.07-.09-.14-.14-.22-.26-.4-.52-.8-.77-1.2l-1.85-2.85c-.24-.37-.48-.74-.72-1.12l-.07-.11c-.07-.11-.14-.21-.2-.32-.06-.1-.11-.19-.16-.29h0c-.03-.06-.06-.12-.09-.18-.15-.33-.27-.67-.36-1.02-.09-.35-.14-.71-.16-1.06-.01-.18-.01-.36,0-.53,0-.13.01-.26.02-.39v-.15c.04-.58.08-1.16.11-1.74l.57-9.31c0-.14.02-.27.02-.41v-.16c.02-.13.03-.26.03-.39,0-.18,0-.38-.01-.57-.01-.19-.04-.38-.07-.57-.1-.59-.3-1.18-.57-1.72-.07-.14-.15-.27-.23-.4-.2-.32-.42-.61-.66-.87s-.5-.49-.77-.68c-.27-.19-.55-.34-.84-.46-.14-.06-.28-.11-.43-.14-.07-.02-.14-.04-.21-.05-.04,0-.07-.01-.1-.02-.02,0-.04,0-.05,0h-.03s-.01,0-.01,0c-.01,0-.03,0-.05,0-.01,0-.02,0-.04,0-.61.12-1.22.24-1.83.36,1.08-.23,2.17-.46,3.26-.69h.08s.07,0,.1.01c.07,0,.14.02.21.03.14.02.29.06.43.1.29.09.58.22.86.38.28.17.55.38.8.61.25.24.48.51.68.82.41.61.7,1.32.83,2.05.03.19.06.37.07.55.01.19.02.37.01.55,0,.13-.01.26-.02.39v.17c-.02.15-.03.29-.04.44l-.63,9.69c-.04.56-.07,1.12-.11,1.68v.15c-.02.14-.03.28-.03.42,0,.19,0,.39,0,.58M36.55,71.96c-.01-.35-.07-.68-.13-1.01v-.07c-.09-.49-.18-.97-.26-1.46l-2.66-15.93c-.08-.48-.16-.96-.24-1.44-.11-.68-.13-1.38-.07-2.1.07-.7.22-1.4.45-2.07.23-.66.54-1.29.92-1.87.37-.56.8-1.07,1.29-1.51.47-.42.99-.77,1.53-1.03.26-.13.53-.23.8-.32.13-.04.27-.08.4-.11.07-.02.13-.03.2-.04.03,0,.07-.01.1-.02h.06s0-.01,0-.01c.37.05.74.1,1.12.16-.03.01-.07.02-.1.03-.13.04-.26.09-.38.15-.13.06-.26.12-.4.18-.12.06-.25.13-.37.2-.52.31-1,.69-1.45,1.14-.46.47-.87,1-1.21,1.58-.35.6-.64,1.24-.86,1.91-.22.68-.36,1.39-.42,2.1-.06.72-.04,1.44.06,2.13.07.48.15.96.22,1.45l2.37,15.41c.08.51.16,1.02.23,1.52v.07c.06.31.11.62.12.94.01.35,0,.7-.04,1.04-.04.33-.11.67-.21,1.01-.08.26-.18.5-.28.74-.03.07-.06.13-.08.2-.19.45-.37.91-.56,1.36l-5.71,13.9c-.05.13-.11.26-.16.4-.06.17-.12.34-.17.5-.1.33-.19.68-.25,1.04-.26,1.42-.19,2.9.21,4.29.16.57.38,1.12.65,1.64h0c.05.1.11.2.16.3.33.6.73,1.14,1.18,1.62.43.47.91.87,1.42,1.2.25.16.5.3.76.42.13.06.25.11.38.16.03.01.07.02.1.04-.55.06-1.09.12-1.64.17l-.07-.02s-.07-.01-.1-.02c-.07-.02-.13-.03-.2-.05-.13-.04-.27-.08-.4-.13-.27-.1-.54-.22-.8-.35-.54-.29-1.04-.65-1.5-1.1-.48-.45-.9-.98-1.25-1.56-.36-.59-.65-1.23-.86-1.9-.42-1.35-.5-2.85-.23-4.24.07-.35.16-.69.27-1.02.05-.16.11-.33.18-.49.05-.13.11-.27.17-.4l6.37-14.19c.2-.45.4-.89.6-1.34.03-.07.06-.14.09-.2.11-.25.23-.51.32-.79.12-.36.2-.73.25-1.09.05-.37.07-.74.05-1.12M69.54,108.12s0,0,0,0c-.18.09-.38.19-.59.28-.2.09-.41.16-.62.23-.42.13-.86.23-1.3.29-.88.11-1.8.07-2.67-.13-.42-.1-.84-.24-1.26-.41-.36-.15-.7-.35-1.03-.55l-10.53-6.14c-.13-.08-.27-.16-.4-.23-.05-.03-.09-.05-.14-.08-.14-.08-.29-.17-.45-.25-.41-.2-.85-.35-1.3-.44.79-.04,1.6.11,2.32.45.14.07.27.14.41.22l.14.07c.13.07.26.14.39.22l10.06,5.52.11.06c.33.18.67.37,1.03.52.41.17.84.3,1.26.39.56.12,1.14.19,1.72.19.32,0,.64-.02.95-.06.44-.05.88-.15,1.3-.27.21-.06.42-.13.62-.22.21-.08.41-.18.59-.26.56-.27,1.11-.53,1.67-.8l8.92-4.27-9.53,4.84c-.56.29-1.13.57-1.69.86M118.12,42.36s0,0,0,0c.23.44.39.91.48,1.39.04.19.06.38.08.57.02.19.02.38.01.57,0,.13-.01.27-.02.4,0,.06,0,.12-.01.17,0,.13-.02.27-.03.4l-.71,10.15c-.04.53-.07,1.06-.11,1.59v.16c-.02.14-.03.28-.04.43,0,.19,0,.4,0,.6.03.4.1.8.21,1.19.1.34.23.68.4,1,.02.05.05.09.07.14.1.18.2.35.32.51.08.12.17.23.26.34l.08.11c.31.4.62.8.93,1.2l2.21,2.84c.32.41.64.81.95,1.22.06.07.12.15.17.22.17.21.34.43.49.66.15.23.3.48.42.73.04.08.08.17.12.25.32.7.55,1.46.66,2.25.11.79.11,1.59,0,2.38-.11.79-.33,1.54-.65,2.24-.32.7-.72,1.33-1.21,1.87-.24.27-.5.52-.77.74-.2.17-.41.33-.61.49l-4.51,3.65c-.1.08-.21.17-.31.25-.16.13-.3.25-.42.37-.55.54-.99,1.24-1.26,2.01-.14.39-.24.8-.29,1.21-.06.42-.07.83-.04,1.25.03.41.1.81.22,1.19.05.18.12.35.18.51l1.27,3.27c.18.47.37.94.55,1.42.02.06.05.12.07.18.11.29.22.56.29.85.09.37.13.75.14,1.13.01.78-.14,1.57-.44,2.3-.15.36-.33.69-.55.99-.22.3-.47.58-.74.81-.26.23-.55.42-.85.57h-.03c-.15.09-.31.16-.47.21-.08.03-.16.05-.24.08-.04.01-.08.02-.12.03l-.11.02h-1.29s.01,0,.01,0l.11-.03s.08-.03.12-.04c.08-.03.16-.06.24-.09.16-.07.31-.15.46-.23.31-.18.6-.4.86-.65.27-.26.51-.55.72-.87.21-.32.39-.67.54-1.04.29-.75.44-1.56.42-2.36,0-.39-.05-.78-.14-1.17-.07-.31-.17-.6-.27-.88-.02-.06-.04-.12-.06-.17-.17-.48-.34-.95-.51-1.43l-1.14-3.16c-.06-.16-.11-.32-.16-.48-.1-.35-.16-.71-.18-1.08-.03-.38-.01-.76.03-1.14.05-.38.13-.76.25-1.11.23-.7.6-1.35,1.07-1.85.1-.11.22-.22.36-.35.09-.08.19-.17.28-.25l4.1-3.71c.19-.17.37-.34.56-.51.26-.23.5-.5.73-.78.46-.57.85-1.22,1.15-1.93.3-.72.51-1.48.62-2.27.11-.8.11-1.61,0-2.4-.11-.8-.32-1.56-.62-2.28-.07-.16-.14-.32-.22-.47,0,0,0,0,0,0-.09-.18-.19-.36-.3-.54-.14-.24-.3-.46-.46-.67-.05-.07-.11-.15-.16-.22-.28-.4-.57-.8-.85-1.19l-2.03-2.84c-.28-.39-.56-.78-.84-1.17l-.08-.11c-.08-.11-.15-.21-.22-.32-.1-.15-.19-.31-.27-.47-.17-.33-.31-.69-.4-1.04-.1-.36-.16-.73-.18-1.09-.01-.19-.01-.37,0-.55,0-.14.01-.27.02-.41v-.15c.05-.56.08-1.12.12-1.68l.63-9.69c0-.15.02-.29.03-.44v-.17c.02-.13.03-.27.03-.4,0-.19,0-.39-.01-.59-.01-.19-.04-.39-.08-.59-.14-.77-.45-1.53-.89-2.18-.22-.32-.46-.62-.73-.88-.27-.26-.56-.48-.86-.66-.3-.18-.61-.32-.93-.42-.16-.05-.32-.09-.47-.11-.08-.01-.16-.02-.23-.03-.04,0-.08,0-.12-.01h-.09s-.01,0-.01,0c-.01,0-.03,0-.04,0,0,0-.02,0-.03,0-.19.04-.37.08-.56.12.66-.15,1.33-.3,1.99-.45v-.17s.01.17.01.17h.09s.08,0,.12,0c.08,0,.16,0,.23.01.16.01.32.04.47.08.32.07.64.19.94.35.31.16.61.36.88.6.27.24.52.51.75.82.16.22.31.46.44.71M34.85,71.99c-.02-.36-.08-.7-.14-1.04v-.07c-.1-.5-.19-1-.28-1.5l-2.92-16.29c-.09-.49-.18-.99-.26-1.48-.12-.69-.15-1.42-.07-2.15.07-.72.24-1.43.5-2.12.25-.68.59-1.31,1.01-1.9.41-.57.89-1.08,1.42-1.5.36-.29.74-.54,1.14-.74.18-.09.36-.17.54-.24.29-.11.59-.21.88-.27.15-.03.29-.06.44-.08.07-.01.15-.02.22-.03.04,0,.07,0,.11-.01h.09c.34.04.67.09,1.01.14,0,0,0,0-.01,0-.14.03-.28.07-.42.12-.29.09-.57.2-.85.34-.57.28-1.11.64-1.61,1.09-.51.46-.96.98-1.35,1.58-.39.6-.72,1.25-.96,1.94-.24.7-.4,1.42-.47,2.15-.07.74-.04,1.48.07,2.18.08.48.16.96.24,1.44l2.66,15.93c.08.49.16.97.24,1.46v.07c.07.31.12.64.13.96.01.36,0,.72-.05,1.06-.05.34-.13.69-.24,1.03-.08.26-.2.51-.31.76-.03.07-.06.14-.09.21-.2.45-.4.89-.6,1.34l-6.37,14.19c-.06.13-.12.27-.18.41-.07.17-.13.34-.19.51-.11.34-.21.7-.28,1.06-.29,1.44-.2,3,.24,4.41.22.7.52,1.37.9,1.98.37.6.81,1.15,1.31,1.62.49.46,1.02.85,1.58,1.15.27.15.56.27.84.37.14.05.28.1.42.13,0,0,0,0,.01,0-.51.06-1.03.11-1.54.17h-.08s-.07-.02-.11-.02c-.07-.01-.15-.02-.22-.04-.15-.03-.29-.06-.44-.1-.29-.08-.59-.18-.88-.31-.59-.26-1.14-.61-1.65-1.05-.52-.44-.98-.97-1.38-1.55-.4-.59-.72-1.25-.95-1.94-.46-1.38-.55-2.93-.25-4.34.08-.36.18-.71.3-1.05.06-.17.13-.33.2-.5.06-.14.13-.27.19-.41l6.99-14.4c.23-.47.45-.93.68-1.4.03-.07.07-.14.1-.21.13-.26.26-.52.36-.81.13-.37.22-.75.28-1.12.05-.38.07-.76.06-1.16M119.92,41.72c.21.42.37.85.46,1.3.04.19.07.39.09.58.02.2.02.39.02.58,0,.14-.02.27-.03.41,0,.06,0,.12-.01.18,0,.14-.02.27-.03.41l-.77,10.34c-.04.58-.09,1.16-.13,1.74v.17c-.02.14-.03.29-.04.43,0,.2,0,.41,0,.62.03.41.11.83.23,1.23.09.3.21.6.36.9.05.09.1.18.15.27.11.18.22.36.35.52.09.12.19.24.28.35l.09.11c.34.4.68.81,1.02,1.21l2.42,2.87c.34.41.68.81,1.02,1.22.06.08.13.15.19.22.18.21.37.43.53.66.23.32.43.65.6,1,.35.72.6,1.49.72,2.31.12.82.12,1.64,0,2.46-.12.81-.36,1.59-.71,2.31-.35.71-.79,1.35-1.32,1.9-.26.27-.55.52-.84.74-.22.16-.44.32-.65.48l-4.95,3.62c-.11.08-.21.15-.32.23-.18.13-.33.25-.46.37-.6.54-1.08,1.25-1.38,2.05-.15.4-.26.82-.32,1.25-.06.43-.08.86-.04,1.29.03.42.11.83.24,1.22.06.18.13.36.2.52l1.36,3.3c.21.5.41.99.62,1.49.03.06.05.12.08.19.12.29.24.57.31.87.09.38.15.77.15,1.17.01.79-.15,1.63-.48,2.36-.16.37-.36.71-.6,1.01-.24.31-.51.58-.81.82-.3.23-.62.42-.96.57-.17.07-.34.13-.51.18-.09.02-.18.05-.26.06-.04,0-.09.02-.13.03-.02,0-.04,0-.07.01h-.05s.03.18.03.18l-.04-.17h-1.29l.12-.03s.09-.02.13-.03c.09-.02.17-.05.26-.08.17-.06.35-.13.51-.22h.03v-.02c.33-.17.64-.37.92-.62.3-.25.57-.55.8-.87.23-.32.43-.68.59-1.06.32-.77.48-1.61.47-2.43,0-.4-.06-.81-.15-1.21-.07-.32-.19-.62-.3-.9-.02-.06-.05-.12-.07-.18-.18-.47-.37-.94-.55-1.42l-1.27-3.27c-.06-.17-.13-.32-.17-.49-.11-.35-.17-.73-.2-1.11-.03-.39-.02-.78.04-1.17.05-.4.15-.78.28-1.14.26-.73.67-1.38,1.18-1.88.11-.11.24-.22.39-.35.1-.08.21-.17.31-.25l4.51-3.65c.2-.16.41-.33.61-.5.28-.23.55-.49.81-.78.51-.57.94-1.23,1.27-1.96.33-.73.56-1.52.68-2.34.12-.82.12-1.66,0-2.48-.12-.82-.35-1.61-.69-2.34-.04-.09-.08-.18-.13-.27h0c-.13-.26-.28-.52-.44-.76-.16-.24-.34-.46-.51-.68-.06-.07-.12-.15-.17-.22-.32-.41-.63-.82-.95-1.22l-2.21-2.84c-.31-.4-.62-.8-.93-1.2l-.09-.11c-.09-.11-.17-.21-.25-.33-.11-.15-.21-.32-.3-.48-.02-.04-.05-.09-.07-.13h0c-.15-.3-.28-.62-.37-.94-.11-.37-.17-.75-.2-1.12-.01-.19-.02-.38,0-.56,0-.14.02-.28.03-.42v-.16c.05-.53.09-1.06.12-1.59l.71-10.15c0-.13.02-.27.03-.4,0-.06,0-.11.01-.17.01-.13.02-.27.03-.41,0-.2,0-.4-.01-.61-.02-.2-.05-.4-.08-.61-.1-.51-.27-1.01-.51-1.48,0,0,0,0,0,0-.14-.27-.29-.52-.46-.76-.24-.33-.51-.63-.8-.88-.29-.26-.61-.47-.95-.64-.33-.17-.68-.3-1.02-.38-.17-.04-.35-.07-.52-.08-.09,0-.17-.01-.26-.01-.04,0-.09,0-.13,0h-.09s1.35-.32,1.35-.32h.02s-.02-.17-.02-.17l.03.17h.03s.04,0,.06,0c.04,0,.08,0,.13,0,.08,0,.17,0,.26,0,.17,0,.35.02.52.05.35.06.7.16,1.03.31.34.15.66.35.96.58.3.23.57.51.82.83.2.26.39.55.54.85M33.15,72.02c-.02-.37-.09-.72-.15-1.06v-.08c-.11-.51-.21-1.03-.31-1.54l-3.18-16.66c-.1-.51-.19-1.02-.29-1.53-.13-.71-.16-1.45-.08-2.2.08-.74.26-1.47.54-2.16.28-.69.65-1.34,1.1-1.93.45-.58.97-1.08,1.55-1.49.57-.41,1.19-.72,1.83-.93.32-.1.64-.18.96-.23.16-.03.32-.04.48-.05.08,0,.16,0,.24-.01.04,0,.08,0,.12,0h.1v-.17s.02.17.02.17c.29.04.58.09.87.13-.12.02-.24.04-.36.07-.31.07-.63.17-.93.29-.19.08-.38.16-.57.26-.42.21-.82.48-1.2.78-.56.44-1.06.97-1.49,1.57-.43.61-.79,1.27-1.05,1.97-.27.71-.44,1.45-.52,2.2-.07.76-.05,1.52.08,2.24.09.5.18.99.26,1.48l2.92,16.29c.09.5.18,1,.27,1.5v.08c.07.32.13.65.15.99.02.37,0,.74-.05,1.09-.05.35-.14.71-.26,1.06-.09.27-.21.51-.34.77-.03.07-.07.14-.1.21-.22.47-.45.93-.68,1.4l-6.99,14.4c-.07.14-.13.28-.2.42-.08.17-.15.35-.21.52-.13.35-.23.72-.31,1.09-.32,1.48-.22,3.09.26,4.53.24.72.57,1.4.99,2.02.41.61.89,1.16,1.44,1.63.54.46,1.12.83,1.74,1.1.3.13.61.24.92.33.12.03.24.06.37.09-.47.05-.93.11-1.4.16v.17s-.01-.17-.01-.17h-.09s-.08,0-.12-.01c-.08,0-.16-.01-.24-.02-.16-.02-.32-.04-.48-.07-.32-.06-.64-.15-.96-.27-.64-.24-1.25-.57-1.81-1-.57-.44-1.07-.96-1.5-1.55-.43-.6-.78-1.26-1.03-1.97-.51-1.42-.6-3-.27-4.45.08-.37.19-.73.32-1.07.06-.17.14-.34.22-.51.06-.14.14-.28.21-.41l7.62-14.64c.25-.48.5-.95.74-1.43.04-.07.07-.14.11-.21.14-.26.28-.53.39-.83.14-.38.24-.76.3-1.15.06-.39.08-.79.06-1.19M121.18,58.18c.03.42.12.85.25,1.26.13.41.32.82.55,1.2.11.18.24.36.38.53.1.13.21.24.31.35l.1.11c.37.41.74.81,1.11,1.22l2.61,2.88c.37.41.75.82,1.12,1.24.07.08.14.15.21.23.2.21.4.43.58.67.24.32.46.66.65,1.02l.03.07h0c.36.72.61,1.49.74,2.3.13.84.13,1.69,0,2.53-.13.84-.39,1.63-.77,2.37-.38.73-.86,1.38-1.43,1.93-.29.27-.59.52-.91.73-.24.16-.48.32-.72.48l-5.33,3.54c-.12.08-.24.16-.36.24-.19.13-.35.24-.5.36-.65.54-1.16,1.26-1.49,2.08-.16.41-.28.84-.35,1.29-.07.44-.08.89-.05,1.32.03.43.12.86.26,1.25.06.19.14.36.22.54l1.47,3.35c.23.51.45,1.02.67,1.54.03.06.06.13.08.19.13.3.26.58.34.89.1.39.16.79.17,1.2.02.82-.17,1.68-.52,2.43-.18.38-.4.73-.65,1.04-.26.31-.55.59-.88.82-.32.23-.67.42-1.04.56-.18.07-.37.12-.56.17-.09.02-.19.04-.28.05-.05,0-.09.01-.14.02-.02,0-.05,0-.07,0h-.08s-1.28,0-1.28,0h.04s.05-.01.07-.02c.05,0,.1-.02.14-.03.09-.02.19-.04.28-.07.19-.05.38-.12.56-.2.37-.16.72-.37,1.04-.62.32-.25.62-.55.87-.88.25-.33.47-.69.64-1.09.34-.78.52-1.67.51-2.51,0-.42-.06-.84-.16-1.24-.08-.33-.21-.63-.33-.93-.03-.06-.05-.12-.08-.18-.2-.5-.41-.99-.62-1.49l-1.36-3.3c-.07-.17-.14-.33-.19-.5-.12-.36-.19-.75-.22-1.14-.03-.4-.02-.81.04-1.21.06-.41.16-.8.3-1.18.28-.75.73-1.41,1.29-1.91.12-.11.26-.22.43-.34.11-.08.21-.15.32-.23l4.95-3.62c.22-.16.44-.32.65-.48.31-.23.6-.49.88-.77.56-.57,1.02-1.24,1.38-1.99.36-.75.61-1.56.74-2.4.13-.85.13-1.71,0-2.56-.13-.85-.38-1.66-.75-2.41-.18-.36-.39-.72-.63-1.05-.17-.25-.37-.47-.55-.69-.06-.07-.13-.15-.19-.22-.34-.41-.68-.81-1.03-1.22l-2.42-2.87c-.34-.4-.68-.81-1.02-1.21l-.09-.11c-.09-.11-.18-.22-.27-.33-.12-.16-.23-.32-.32-.49-.05-.08-.1-.17-.14-.26h0c-.14-.27-.25-.56-.34-.84-.12-.38-.19-.77-.22-1.15-.01-.2-.02-.39,0-.58,0-.14.02-.28.03-.42v-.17c.06-.58.1-1.16.14-1.74l.77-10.34c.01-.14.02-.27.03-.41,0-.06,0-.12.01-.18.01-.14.02-.28.03-.42,0-.2,0-.41-.02-.62-.02-.21-.05-.42-.09-.62-.1-.48-.26-.94-.49-1.39,0,0,0,0,0,0-.16-.32-.36-.63-.58-.9-.26-.34-.56-.63-.88-.89-.32-.25-.67-.47-1.03-.63-.36-.16-.74-.27-1.12-.33-.19-.03-.38-.05-.56-.05-.09,0-.19,0-.28,0-.04,0-.08,0-.12,0l1.24-.31h.01s.01,0,.01,0h.05s.05-.02.07-.02c.05,0,.09-.01.14-.02.09,0,.19-.02.28-.02.19,0,.38,0,.56.02.38.04.75.13,1.12.27.37.14.72.33,1.04.57.32.23.62.51.89.83.53.63.91,1.41,1.08,2.2.04.2.08.4.09.6.02.2.02.4.02.6,0,.14-.02.28-.03.42,0,.06-.01.12-.01.19-.01.15-.02.29-.03.44l-.84,10.67c-.05.58-.09,1.15-.13,1.73v.17c-.03.15-.04.3-.05.45,0,.21,0,.42.01.64M27.69,103.24h-.1s-.09,0-.13,0c-.09,0-.17,0-.26,0-.17,0-.35-.03-.52-.05-.35-.05-.7-.12-1.04-.23-.69-.21-1.35-.53-1.96-.96-.61-.43-1.16-.95-1.63-1.55-.47-.6-.84-1.28-1.12-2-.55-1.45-.65-3.07-.29-4.56.09-.38.21-.74.35-1.09.07-.17.15-.35.23-.52.07-.14.15-.28.22-.42l8.24-14.87c.27-.49.54-.98.81-1.47.04-.07.08-.14.12-.21.15-.27.31-.54.42-.84.15-.39.26-.78.33-1.18.06-.4.09-.81.07-1.22-.02-.38-.09-.74-.16-1.09l-.02-.08c-.11-.53-.22-1.07-.32-1.6l-3.44-16.99c-.11-.53-.21-1.06-.32-1.59-.14-.73-.17-1.48-.09-2.25.08-.76.28-1.5.59-2.21.3-.71.7-1.37,1.19-1.95.48-.58,1.05-1.09,1.68-1.49.62-.4,1.29-.7,1.99-.88.34-.09.7-.15,1.04-.18.17-.02.35-.03.52-.03.09,0,.17,0,.26,0,.04,0,.09,0,.13,0h.11s0,0,0,0c0,0,.01,0,.02,0h0s0,0,0,0c0,0,0,0,0,0l.68.11c-.08,0-.16.02-.24.03-.34.05-.68.13-1.02.24-.68.22-1.33.55-1.93.98-.61.43-1.15.96-1.62,1.57-.47.61-.86,1.29-1.15,2.01-.29.73-.48,1.49-.56,2.26-.08.78-.05,1.56.09,2.3.09.51.19,1.02.29,1.53l3.18,16.66c.1.51.2,1.03.3,1.54v.08c.08.33.14.67.16,1.01.02.38,0,.76-.06,1.12-.06.36-.15.72-.28,1.08-.1.27-.23.52-.37.79-.04.07-.07.14-.11.21-.25.48-.49.95-.74,1.42l-7.62,14.64c-.07.14-.15.28-.21.43-.08.18-.16.36-.23.53-.14.36-.25.73-.34,1.12-.35,1.52-.25,3.17.28,4.65.26.74.63,1.43,1.08,2.06.45.62.98,1.17,1.57,1.63.59.45,1.23.81,1.9,1.05.33.12.67.22,1.01.28.08.02.16.03.25.04l-1.2.15h-.02s0,.17,0,.17l-.02-.17ZM122.88,57.88c.03.44.13.87.27,1.3.14.42.35.85.6,1.23.12.19.26.37.4.54.11.13.22.24.33.35.04.04.07.07.11.11.41.42.81.84,1.22,1.26l2.79,2.88c.4.41.8.83,1.2,1.24.07.08.15.15.22.23.21.21.43.44.62.68.26.33.5.67.7,1.04.41.74.7,1.58.84,2.43.14.85.14,1.75,0,2.61-.15.86-.42,1.68-.83,2.43-.4.75-.92,1.41-1.54,1.96-.31.28-.64.52-.98.73-.26.16-.52.32-.78.47l-5.75,3.48c-.13.08-.25.15-.38.23-.21.13-.38.24-.54.36-.7.54-1.25,1.27-1.61,2.12-.17.42-.3.86-.37,1.32-.07.46-.09.91-.05,1.36.04.45.13.88.28,1.29.07.19.15.37.23.54l1.61,3.48c.23.5.47,1,.7,1.51.03.06.06.13.09.19.14.3.28.59.37.91.11.4.17.81.18,1.23.02.84-.18,1.73-.56,2.5-.19.39-.43.74-.7,1.06-.28.32-.6.59-.95.83-.35.23-.73.41-1.12.54-.2.06-.4.11-.6.15-.1.02-.2.03-.31.04-.05,0-.1.01-.15.01h-1.35s.01,0,.02,0c.05,0,.1-.01.15-.02.1-.02.2-.04.31-.06.2-.05.41-.11.6-.18.4-.15.77-.35,1.12-.6.35-.25.67-.55.94-.88.27-.33.51-.7.7-1.11.37-.8.57-1.71.55-2.58,0-.43-.07-.86-.18-1.28-.09-.34-.23-.65-.36-.95-.03-.06-.06-.12-.08-.19-.22-.51-.45-1.03-.68-1.54l-1.47-3.35c-.08-.17-.15-.33-.21-.51-.13-.37-.21-.77-.24-1.17-.03-.41-.02-.83.04-1.25.06-.42.17-.83.33-1.21.31-.77.79-1.44,1.39-1.94.13-.11.29-.22.47-.34.12-.08.24-.16.36-.24l5.33-3.54c.24-.16.48-.32.72-.48.33-.22.65-.48.95-.77.6-.58,1.1-1.26,1.5-2.02.39-.77.66-1.6.8-2.47.14-.88.14-1.76,0-2.64-.13-.85-.4-1.66-.78-2.41,0,0,0,0,0,0l-.04-.07c-.19-.37-.42-.73-.68-1.07-.19-.25-.4-.48-.6-.69-.07-.07-.14-.15-.2-.22-.37-.41-.75-.83-1.12-1.24l-2.61-2.88c-.37-.41-.74-.81-1.1-1.22l-.1-.11c-.1-.11-.2-.22-.29-.33-.13-.16-.24-.33-.35-.5-.22-.35-.4-.74-.52-1.12-.12-.39-.2-.79-.23-1.19-.02-.2-.02-.4,0-.6,0-.15.02-.29.03-.43v-.17c.06-.58.1-1.15.15-1.73l.84-10.67c.01-.15.02-.29.03-.44,0-.06,0-.12.01-.18.01-.14.02-.29.03-.44,0-.21,0-.42-.02-.64-.02-.21-.05-.43-.1-.64-.19-.85-.59-1.67-1.16-2.35-.29-.34-.6-.64-.95-.89-.35-.25-.72-.46-1.12-.61-.39-.15-.8-.25-1.21-.29-.2-.02-.41-.03-.61-.02-.09,0-.19,0-.28.02l1.09-.28h.03s.02-.01.02-.01h.04s.05-.02.07-.02c.05,0,.1-.02.15-.03.1-.02.2-.03.3-.04.2-.02.41-.02.61,0,.41.02.81.1,1.21.23.39.13.77.32,1.12.55.35.23.67.51.95.84.57.64.98,1.44,1.17,2.25.05.21.08.41.1.62.02.21.03.42.02.61,0,.14-.02.29-.03.43,0,.06-.01.13-.02.19-.01.15-.02.3-.04.45l-.9,11.01c-.05.57-.09,1.14-.14,1.72v.17c-.03.15-.04.3-.05.46-.01.21,0,.43.01.66M134.88,71.02c-.16-.92-.48-1.82-.94-2.61-.23-.39-.49-.76-.78-1.11-.22-.25-.46-.48-.69-.71-.08-.08-.16-.15-.24-.23-.43-.42-.86-.84-1.29-1.26l-3-2.92c-.43-.42-.86-.83-1.29-1.25l-.12-.11c-.12-.11-.23-.22-.34-.34-.15-.16-.28-.33-.4-.52-.25-.36-.46-.77-.6-1.18-.14-.41-.23-.83-.27-1.25-.02-.21-.02-.43-.01-.63,0-.15.02-.31.04-.46l.02-.18c.06-.66.11-1.31.17-1.96l.95-11.08c.01-.16.03-.31.04-.47,0-.06.01-.13.02-.19.01-.15.03-.3.03-.46,0-.22,0-.45-.02-.68-.02-.22-.06-.45-.12-.68-.21-.89-.69-1.77-1.33-2.46-.33-.35-.7-.66-1.09-.9-.4-.25-.84-.44-1.29-.58-.45-.13-.92-.2-1.39-.21-.24,0-.47,0-.7.04-.12.01-.23.03-.35.05-.06.01-.11.02-.17.04-.03,0-.06.01-.09.02l-17.83,4.77c-.44.12-.9.17-1.36.16-.46,0-.93-.08-1.36-.21-.15-.05-.3-.1-.45-.16-.06-.02-.13-.05-.19-.07-.15-.06-.31-.11-.46-.17l-9.63-3.55c-.3-.11-.6-.22-.91-.33-.87-.31-1.85-.51-2.83-.58-.49-.03-.98-.03-1.46,0-.49.04-.98.11-1.44.21-.33.07-.66.16-.98.25-.14.04-.27.07-.41.11-.33.09-.65.17-.98.26l-24.04,6.43c-.16.04-.33.09-.49.13-.27.07-.48.12-.68.15-.46.07-.93.08-1.38.02-.16-.02-.32-.05-.48-.08-.07-.01-.14-.03-.21-.04-.17-.03-.33-.06-.5-.09l-19.74-3.46s-.02,0-.02,0l-.03.17-.02.17.17.03c-.35.02-.7.07-1.04.14-.79.16-1.54.46-2.25.87-.71.41-1.34.94-1.89,1.55-.55.62-1,1.32-1.34,2.07-.34.76-.56,1.55-.66,2.37-.1.82-.06,1.63.1,2.41.11.53.22,1.06.34,1.6l3.73,17.49c.11.52.22,1.03.33,1.55l.02.08c.07.34.15.7.17,1.06.02.4,0,.79-.07,1.17-.06.38-.18.76-.33,1.13-.12.28-.27.54-.44.81-.04.07-.09.15-.13.22-.29.5-.58.99-.87,1.49l-8.88,15.12c-.08.14-.17.29-.25.44-.1.18-.18.37-.26.55-.16.37-.29.77-.39,1.17-.41,1.6-.29,3.34.33,4.88.31.78.73,1.49,1.26,2.13.53.64,1.14,1.19,1.83,1.63.69.44,1.43.76,2.21.96.34.09.69.15,1.04.18l-.67.09-.17.02s-.1.01-.15.01c-.1,0-.2.02-.3.02-.2,0-.4.01-.6,0-.4-.01-.8-.06-1.2-.14-.79-.16-1.56-.45-2.26-.87-.71-.41-1.34-.94-1.88-1.55-.54-.62-.97-1.31-1.29-2.07-.63-1.51-.75-3.21-.34-4.78.1-.39.24-.78.4-1.14.08-.18.17-.36.27-.54.08-.15.17-.29.26-.44l9.53-15.39c.31-.5.62-.99.92-1.49.05-.07.09-.15.14-.22.17-.28.35-.56.49-.87.18-.4.3-.82.38-1.23.07-.42.1-.85.08-1.28-.02-.4-.11-.78-.19-1.14l-.02-.08c-.12-.53-.24-1.06-.36-1.59l-3.99-17.85c-.12-.54-.24-1.09-.36-1.64-.17-.76-.2-1.55-.1-2.36.1-.8.32-1.57.67-2.31.35-.74.81-1.42,1.38-2.01.56-.6,1.21-1.1,1.94-1.48s1.5-.65,2.3-.78c.4-.06.8-.1,1.21-.09.2,0,.4.01.6.03.1,0,.2.02.3.03.05,0,.1.01.15.02l.14.02s0,0,0,0l.03-.17.02-.17-.15-.02c-.05,0-.1-.02-.16-.02-.1-.01-.21-.03-.31-.03-.21-.02-.42-.03-.63-.03-.42,0-.85.03-1.27.1-.84.14-1.65.41-2.41.81-.76.4-1.44.92-2.03,1.55-.59.62-1.07,1.33-1.44,2.1-.37.77-.6,1.59-.71,2.42-.1.84-.07,1.67.11,2.47.12.55.24,1.09.36,1.64l3.99,17.85c.12.53.24,1.06.36,1.59l.02.08c.08.35.16.72.18,1.08.02.41,0,.81-.07,1.2-.07.39-.19.78-.35,1.16-.13.29-.29.55-.47.83-.05.07-.09.15-.14.22-.31.5-.61.99-.92,1.49l-8.18,13.21-1.35,2.19c-.09.15-.18.3-.27.45-.1.19-.2.38-.28.56-.17.38-.31.78-.42,1.19-.44,1.64-.31,3.42.35,5,.33.79.79,1.52,1.35,2.17.56.65,1.23,1.19,1.96,1.62.74.43,1.53.74,2.37.91.41.08.84.14,1.26.15.21,0,.42,0,.63,0,.11,0,.21-.01.31-.02.05,0,.1,0,.16-.02l17.72-2.31c.18-.02.37-.05.55-.07.08-.01.16-.02.24-.03.18-.02.37-.05.55-.07,1.01-.1,2.09.14,2.99.66.17.1.32.21.49.32.05.04.11.07.16.11.16.11.31.22.46.32l11.81,8.27.13.09c.39.27.78.55,1.22.77.49.25,1.01.45,1.52.59.68.19,1.39.28,2.1.28.39,0,.79-.03,1.17-.09.54-.08,1.08-.22,1.59-.41.25-.09.5-.2.75-.32.25-.12.48-.26.7-.4.65-.4,1.31-.8,1.97-1.19l11.56-7c.1-.06.19-.12.29-.17.12-.06.23-.12.35-.17.24-.1.48-.19.74-.26.24-.07.5-.11.77-.14.24-.03.49-.03.73-.03h35.54s.06,0,.09,0c.06,0,.12,0,.18,0,.12,0,.24-.02.35-.04.23-.03.47-.08.69-.14.45-.13.89-.32,1.29-.56.4-.25.77-.54,1.09-.89.32-.34.59-.73.8-1.15.43-.83.66-1.8.64-2.73,0-.46-.08-.91-.2-1.35-.1-.36-.26-.68-.41-.99-.03-.06-.06-.13-.09-.19-.25-.52-.51-1.04-.76-1.57l-1.34-2.76-.37-.76c-.09-.18-.17-.35-.24-.53-.14-.39-.24-.8-.27-1.23-.04-.43-.02-.88.05-1.32.07-.44.2-.87.38-1.28.35-.8.92-1.52,1.61-2.01.16-.11.33-.22.54-.33.14-.08.27-.15.41-.23l6.18-3.44c.27-.15.54-.3.81-.45.38-.21.75-.47,1.1-.76.69-.58,1.27-1.28,1.73-2.08.45-.8.77-1.68.93-2.6.16-.92.16-1.88,0-2.8"/>
    </g>
  </g>
</svg>