<?xml version="1.0" encoding="utf-8"?>
<!-- Generator: Adobe Illustrator 27.8.1, SVG Export Plug-In . SVG Version: 6.00 Build 0)  -->
<svg version="1.1" xmlns="http://www.w3.org/2000/svg" xmlns:xlink="http://www.w3.org/1999/xlink" x="0px" y="0px"
	 viewBox="0 0 400 400" style="enable-background:new 0 0 400 400;" xml:space="preserve">
<style type="text/css">
	.st0{fill:#38489E;}
	.st1{display:none;}
	
		.st2{display:inline;fill:none;stroke:#000001;stroke-width:0.25;stroke-linecap:round;stroke-linejoin:round;stroke-miterlimit:10;}
	.st3{display:inline;fill:none;stroke:#000000;stroke-width:1.3;stroke-linejoin:round;stroke-miterlimit:10;}
	.st4{fill:#FFFFFF;stroke:#000000;stroke-width:2.8346;stroke-linejoin:bevel;stroke-miterlimit:10;}
</style>
<g id="Layer_1">
	<g>
		<path d="M222.9,485.9h-2.7V481h-5v-2.8h5v-4.9h2.7v4.9h4.9v2.8h-4.9V485.9z"/>
	</g>
	<g>
		<rect x="88.9" y="492.5" class="st0" width="39.7" height="2.7"/>
		<rect x="94.7" y="485.4" class="st0" width="33.9" height="2.7"/>
		<rect x="88.9" y="478.3" class="st0" width="28" height="2.7"/>
		<rect x="106.4" y="471.2" class="st0" width="22.2" height="2.7"/>
		<rect x="88.9" y="464.1" class="st0" width="39.7" height="2.7"/>
		<g>
			<path class="st0" d="M150.7,470.2c0-4.9-3.3-6.4-7.4-6.4h-3v12.7h3C147.4,476.6,150.7,475.2,150.7,470.2z M142.2,475v-9.5h1.1
				c2.7,0,5.6,0.4,5.6,4.8c0,4.4-2.9,4.8-5.6,4.8H142.2z"/>
			<path class="st0" d="M157.1,470.8c-1.2,0.1-2.3,0.3-3.2,0.8c-0.7,0.4-1.3,1.1-1.3,2.1c0,1.6,1.1,3.1,3.3,3.1
				c1.7,0,2.6-0.6,3.2-1.6l0.1,1.3h1.6c-0.1-1.2-0.2-2.2-0.2-3.6l0-2.4c0-2.5-1.1-3.6-3.7-3.6c-2.1,0-3.8,1.1-3.9,3l1.6,0.1
				c0.1-1,0.8-1.7,2.3-1.7c1.2,0,2.2,0.4,2.2,1.9v0.3L157.1,470.8z M159,472v0.6c0,2.2-1.5,2.9-2.8,2.9c-1.1,0-1.9-0.6-1.9-1.6
				c0-1.1,0.9-1.5,2.8-1.7L159,472z"/>
			<path class="st0" d="M168,467.1c-1.6,0-2.6,0.6-3.1,1.5v-1.3h-1.6v9.4h1.6v-5c0-2.1,1-3.1,2.5-3.1c0.8,0,1.4,0.2,1.7,0.8
				c0.2,0.4,0.3,1,0.3,2v5.3h1.6v-5.8c0-1.1-0.2-1.9-0.5-2.5C170.2,467.5,169.3,467.1,168,467.1z"/>
			<rect x="174" y="463.9" class="st0" width="1.6" height="2"/>
			<rect x="174" y="467.2" class="st0" width="1.6" height="9.4"/>
			<path class="st0" d="M182.4,471l-1.1-0.2c-1-0.2-1.6-0.5-1.6-1.2c0-0.8,1-1.2,2-1.2c1.2,0,2.1,0.4,2.3,1.5l1.7-0.2
				c-0.4-1.6-1.7-2.7-3.9-2.7c-2,0-3.8,1-3.8,2.6c0,1.8,1.4,2.4,2.8,2.6l1.2,0.2c1.1,0.2,2.1,0.7,2.1,1.5c0,0.8-0.9,1.4-2.2,1.4
				c-1.4,0-2.2-0.7-2.4-1.8l-1.7,0.2c0.2,1.5,1.6,3.1,4.1,3.1c2.2,0,3.9-1.1,3.9-2.9C185.8,472,184.2,471.4,182.4,471z"/>
			<path class="st0" d="M192.9,467.1c-1.6,0-2.6,0.6-3.1,1.5v-4.6h-1.6v12.7h1.6v-5c0-2.1,1-3.1,2.5-3.1c0.8,0,1.4,0.2,1.7,0.8
				c0.2,0.4,0.3,1,0.3,2v5.3h1.6v-5.8c0-1.1-0.2-1.9-0.5-2.5C195,467.5,194.1,467.1,192.9,467.1z"/>
			<path class="st0" d="M143.6,482.4l-4.8,12.7h2.6l0.9-2.6h5l0.9,2.6h2.8l-4.8-12.7H143.6z M143.1,490.5l1.7-4.9l1.7,4.9H143.1z"/>
			<polygon class="st0" points="159.5,492 156.5,482.4 152.6,482.4 152.6,495.2 155.1,495.2 155.1,485.8 158.1,495.2 160.7,495.2 
				163.7,485.8 163.7,495.2 166.2,495.2 166.2,482.4 162.3,482.4 			"/>
			<polygon class="st0" points="181.7,487.6 175.9,487.6 175.9,482.4 173.3,482.4 173.3,495.2 175.9,495.2 175.9,489.7 181.7,489.7 
				181.7,495.2 184.2,495.2 184.2,482.4 181.7,482.4 			"/>
			<path class="st0" d="M192.8,490.5c0,1.5-0.3,2.9-2,2.9c-0.7,0-1-0.2-1.3-0.6c-0.3-0.4-0.3-0.9-0.3-1.7v-5.4h-2.5v5.9
				c0,1.3,0.2,2.2,0.7,2.7c0.6,0.7,1.4,1,2.6,1c1.2,0,2.2-0.5,2.7-1.3v1.1h2.5v-9.4h-2.5V490.5z"/>
			<path class="st0" d="M202.9,485.6c-1.1,0-2,0.3-2.6,1.2v-4.3h-2.5v12.7h2.4l0-0.8c0.5,0.6,1.3,1.1,2.5,1.1c2.4,0,4.3-1.9,4.3-4.9
				C207,487.4,205.2,485.6,202.9,485.6z M202.4,493.5c-1.4,0-2.2-1.2-2.2-3c0-1.9,0.8-3.1,2.2-3.1c1.3,0,2.1,1.2,2.1,3
				C204.5,492.3,203.7,493.5,202.4,493.5z"/>
		</g>
	</g>
	<g>
		<path d="M240.1,495.2v-31.2h18.7v12.5h6.2v18.7H240.1z M246.4,476.5h6.2v-6.2h-6.2V476.5z M246.4,489h12.5v-6.2h-12.5V489z"/>
		<path d="M271.3,495.2v-31.2h6.2v31.2H271.3z"/>
		<path d="M308.7,464.1v6.2H290V489h12.5v-6.2h-6.2v-6.2h12.5v18.7h-24.9v-31.2H308.7z"/>
	</g>
</g>
<g id="Layer_4" class="st1">
	<line class="st2" x1="92.7" y1="-95.5" x2="90.5" y2="-74"/>
	<line class="st2" x1="201.7" y1="-97.7" x2="206.4" y2="-97.1"/>
	<line class="st2" x1="252.9" y1="-28.6" x2="235.1" y2="-36"/>
	<line class="st2" x1="192.5" y1="-96.3" x2="197" y2="-97.5"/>
	<line class="st2" x1="95.4" y1="-53.7" x2="92.6" y2="-52.5"/>
	<line class="st2" x1="92.6" y1="-52.5" x2="98.8" y2="-31.9"/>
	<polyline class="st2" points="266.2,-52 260.7,-39.7 252.9,-28.6 	"/>
	<line class="st2" x1="296.9" y1="-52" x2="290.8" y2="-33.7"/>
	<polyline class="st2" points="283.3,-52 277.5,-36.3 268.7,-22.1 	"/>
	<line class="st2" x1="166.8" y1="-70.6" x2="152.6" y2="-56.5"/>
	<line class="st2" x1="166.8" y1="-70.6" x2="168" y2="-64"/>
	<line class="st2" x1="156.9" y1="-47.4" x2="152.6" y2="-56.5"/>
	<line class="st2" x1="139" y1="-42.8" x2="146.2" y2="-31.4"/>
	<line class="st2" x1="202.1" y1="-105.9" x2="192.5" y2="-96.3"/>
	<line class="st2" x1="195.8" y1="-105.6" x2="202.1" y2="-105.9"/>
	<line class="st2" x1="205.7" y1="-4.9" x2="198.3" y2="-22.7"/>
	<line class="st2" x1="217.4" y1="23.4" x2="212.2" y2="10.9"/>
	<line class="st2" x1="198.1" y1="24.8" x2="217.4" y2="23.4"/>
	<polyline class="st2" points="178.9,-27.5 178.9,-47.5 174.2,-52.3 	"/>
	<line class="st2" x1="170.3" y1="-32.7" x2="178.9" y2="-27.5"/>
	<polyline class="st2" points="166.8,-70.6 166.8,-77.3 168.1,-83.8 170.7,-90 	"/>
	<line class="st2" x1="150.2" y1="-66.2" x2="152.6" y2="-56.5"/>
	<line class="st2" x1="210.4" y1="-114.3" x2="218.1" y2="-111.6"/>
	<line class="st2" x1="104.5" y1="-95.5" x2="102.1" y2="-76.3"/>
	<line class="st2" x1="135.2" y1="-95.5" x2="132.2" y2="-82.3"/>
	<polyline class="st2" points="224.4,-95.5 219.7,-99.7 214.3,-102.9 222.4,-106.3 	"/>
	<polyline class="st2" points="197,-97.5 201.7,-97.7 214.3,-102.9 	"/>
	<line class="st2" x1="210.8" y1="-95.5" x2="206.4" y2="-97.1"/>
	<line class="st2" x1="154.5" y1="-95.5" x2="151.1" y2="-86.1"/>
	<line class="st2" x1="111.1" y1="-14.9" x2="117.3" y2="-21.1"/>
	<polyline class="st2" points="231.3,-102 235.1,-97 236.2,-95.5 	"/>
	<polyline class="st2" points="95.4,-53.7 103.5,-57.1 102.1,-76.3 	"/>
	<line class="st2" x1="116.1" y1="-62.2" x2="131.9" y2="-68.8"/>
	<polyline class="st2" points="116.1,-62.2 115.4,-79 118.1,-95.5 	"/>
	<polyline class="st2" points="131.9,-68.8 149.7,-76.2 151.1,-86.1 	"/>
	<line class="st2" x1="132.2" y1="-82.3" x2="131.9" y2="-68.8"/>
	<line class="st2" x1="243.7" y1="0" x2="231.6" y2="-12.1"/>
	<polyline class="st2" points="243.7,0 228.5,7 212.2,10.9 195.5,11.5 178.9,8.8 163.3,3 	"/>
	<polyline class="st2" points="231.6,-12.1 218,-25.7 208.3,-23.3 198.3,-22.7 188.4,-24.2 178.9,-27.5 178.9,-8.3 	"/>
	<line class="st2" x1="219" y1="-7.2" x2="231.6" y2="-12.1"/>
	<line class="st2" x1="190.7" y1="-41.2" x2="197.2" y2="-39.9"/>
	<line class="st2" x1="190.7" y1="-41.2" x2="183.3" y2="-59"/>
	<line class="st2" x1="191.5" y1="-95.5" x2="192.5" y2="-96.3"/>
	<line class="st2" x1="178.9" y1="22.4" x2="178.9" y2="8.8"/>
	<line class="st2" x1="158.3" y1="27.9" x2="178.1" y2="34"/>
	<line class="st2" x1="170.6" y1="-57.8" x2="174.2" y2="-52.3"/>
	<line class="st2" x1="162.9" y1="-39.4" x2="170.3" y2="-32.7"/>
	<line class="st2" x1="178.9" y1="-97.5" x2="178.9" y2="-95.5"/>
	<line class="st2" x1="226.9" y1="-52" x2="222.2" y2="-47.3"/>
	<polyline class="st2" points="246.9,-52 241.8,-43.4 235.1,-36 227,-30 218,-25.7 203.9,-39.8 	"/>
	<line class="st2" x1="216.6" y1="-43.6" x2="222.2" y2="-47.3"/>
	<line class="st2" x1="131.9" y1="-68.8" x2="134.2" y2="-55.5"/>
	<line class="st2" x1="108.6" y1="-38.4" x2="103.5" y2="-57.1"/>
	<line class="st2" x1="116.1" y1="-62.2" x2="119.9" y2="-46"/>
	<line class="st2" x1="208.3" y1="-105" x2="214.3" y2="-102.9"/>
	<line class="st2" x1="98.8" y1="-31.9" x2="105.4" y2="-19.4"/>
	<line class="st2" x1="108.6" y1="-38.4" x2="117.3" y2="-21.1"/>
	<line class="st2" x1="281.2" y1="-16.9" x2="290.8" y2="-33.7"/>
	<line class="st2" x1="90.5" y1="-74" x2="92.5" y2="-53.4"/>
	<line class="st2" x1="103.5" y1="-57.1" x2="116.1" y2="-62.2"/>
	<line class="st2" x1="202.1" y1="-105.9" x2="208.3" y2="-105"/>
	<line class="st2" x1="168.1" y1="-83.8" x2="149.7" y2="-76.2"/>
	<line class="st2" x1="149.7" y1="-76.2" x2="150.2" y2="-66.2"/>
	<line class="st2" x1="111.1" y1="-14.9" x2="109" y2="-12.8"/>
	<line class="st2" x1="139" y1="-42.8" x2="126.9" y2="-30.7"/>
	<line class="st2" x1="126.9" y1="-30.7" x2="117.3" y2="-21.1"/>
	<line class="st2" x1="136.7" y1="-17.2" x2="126.9" y2="-30.7"/>
	<line class="st2" x1="117.3" y1="-21.1" x2="129.2" y2="-5.9"/>
	<line class="st2" x1="180.4" y1="-84.2" x2="166.8" y2="-70.6"/>
	<line class="st2" x1="166.6" y1="-13.8" x2="155.5" y2="-21.6"/>
	<line class="st2" x1="149" y1="-5.8" x2="163.3" y2="3"/>
	<line class="st2" x1="189.7" y1="-104" x2="184" y2="-101.3"/>
	<line class="st2" x1="194.2" y1="-114.9" x2="193" y2="-112.1"/>
	<line class="st2" x1="205.7" y1="-4.9" x2="219" y2="-7.2"/>
	<polyline class="st2" points="253.3,9.6 236.1,18.3 217.4,23.4 220.8,31.5 	"/>
	<line class="st2" x1="242.6" y1="28.1" x2="261.7" y2="18"/>
	<polyline class="st2" points="212.2,10.9 205.7,-4.9 192.1,-5.3 178.9,-8.3 	"/>
	<polyline class="st2" points="198.3,-22.7 190.7,-41.2 184.5,-43.8 178.9,-47.5 178.9,-66.8 	"/>
	<line class="st2" x1="167" y1="-98.3" x2="172.4" y2="-104.4"/>
	<polyline class="st2" points="268.7,-22.1 252.9,-28.6 243.1,-19.3 	"/>
	<line class="st2" x1="235.1" y1="-36" x2="216.6" y2="-43.6"/>
	<polyline class="st2" points="281.2,-16.9 268.7,-22.1 257.3,-9.8 243.7,0 253.3,9.6 	"/>
	<line class="st2" x1="268.6" y1="-2.3" x2="281.2" y2="-16.9"/>
	<line class="st2" x1="253.3" y1="9.6" x2="268.6" y2="-2.3"/>
	<line class="st2" x1="261.7" y1="18" x2="270.9" y2="10.4"/>
	<line class="st2" x1="289.3" y1="-13.5" x2="281.2" y2="-16.9"/>
	<polyline class="st2" points="216.6,-43.6 210.4,-41.1 203.9,-39.8 197.2,-39.9 	"/>
	<line class="st2" x1="231.6" y1="-12.1" x2="243.1" y2="-19.3"/>
	<line class="st2" x1="292.1" y1="-12.4" x2="289.3" y2="-13.5"/>
	<line class="st2" x1="278.4" y1="4.3" x2="291.6" y2="-11.7"/>
	<line class="st2" x1="143.8" y1="6.8" x2="160.6" y2="16.3"/>
	<line class="st2" x1="180.7" y1="-67.3" x2="180" y2="-69.6"/>
	<line class="st2" x1="183.3" y1="-59" x2="181.2" y2="-65.6"/>
	<line class="st2" x1="203.9" y1="-39.8" x2="190.3" y2="-53.4"/>
	<polyline class="st2" points="261.7,18 261.7,18 253.3,9.6 	"/>
	<line class="st2" x1="139.3" y1="17.7" x2="158.3" y2="27.9"/>
	<line class="st2" x1="155.5" y1="-21.6" x2="162.9" y2="-39.4"/>
	<polyline class="st2" points="149,-5.8 155.5,-21.6 146.2,-31.4 	"/>
	<line class="st2" x1="136.7" y1="-17.2" x2="149" y2="-5.8"/>
	<line class="st2" x1="189.7" y1="-104" x2="193" y2="-112.1"/>
	<line class="st2" x1="195.8" y1="-105.6" x2="189.7" y2="-104"/>
	<polyline class="st2" points="162.9,-39.4 170.6,-57.8 168,-64 	"/>
	<line class="st2" x1="156.9" y1="-47.4" x2="162.9" y2="-39.4"/>
	<line class="st2" x1="170.6" y1="-57.8" x2="177.9" y2="-75.6"/>
	<line class="st2" x1="143.8" y1="6.8" x2="149" y2="-5.8"/>
	<line class="st2" x1="129.2" y1="-5.9" x2="143.8" y2="6.8"/>
	<line class="st2" x1="178.9" y1="31.2" x2="178.9" y2="34.2"/>
	<line class="st2" x1="178.9" y1="22.4" x2="198.1" y2="24.8"/>
	<polyline class="st2" points="178.9,31.2 178.9,22.4 160.6,16.3 	"/>
	<line class="st2" x1="177.9" y1="-75.6" x2="181.2" y2="-81.8"/>
	<polyline class="st2" points="178.9,8.8 178.9,-8.3 166.6,-13.8 	"/>
	<line class="st2" x1="178.9" y1="-97.5" x2="184" y2="-101.3"/>
	<polyline class="st2" points="178.9,-106.2 178.9,-97.5 177.2,-95.5 	"/>
	<line class="st2" x1="178.9" y1="-109.3" x2="178.9" y2="-106.2"/>
	<line class="st2" x1="177.5" y1="-108.2" x2="178.9" y2="-109.3"/>
	<line class="st2" x1="172.4" y1="-104.4" x2="172.4" y2="-104.4"/>
	<line class="st2" x1="221.9" y1="34.3" x2="220.8" y2="31.5"/>
	<line class="st2" x1="225.2" y1="-107.5" x2="222.4" y2="-106.3"/>
	<line class="st2" x1="119.9" y1="-46" x2="126.9" y2="-30.7"/>
	<line class="st2" x1="139" y1="-42.8" x2="152.6" y2="-56.5"/>
	<line class="st2" x1="134.2" y1="-55.5" x2="139" y2="-42.8"/>
	<line class="st2" x1="208.3" y1="-112.1" x2="202.1" y2="-105.9"/>
	<line class="st2" x1="139.3" y1="17.7" x2="140.4" y2="14.9"/>
	<line class="st2" x1="210.4" y1="-114.3" x2="208.3" y2="-112.1"/>
	<line class="st2" x1="140.4" y1="14.9" x2="143.8" y2="6.8"/>
	<line class="st2" x1="186.2" y1="-95.5" x2="189.7" y2="-104"/>
	<line class="st2" x1="192.6" y1="-93.2" x2="185.9" y2="-91.2"/>
	<line class="st2" x1="196.1" y1="-96" x2="201.7" y2="-97.7"/>
	<line class="st2" x1="168.1" y1="-83.8" x2="185.9" y2="-91.2"/>
	<line class="st2" x1="185.7" y1="-88.6" x2="180.4" y2="-84.2"/>
	<line class="st2" x1="170.7" y1="-90" x2="174.4" y2="-95.5"/>
	<line class="st2" x1="190.8" y1="-95.5" x2="192.5" y2="-96.3"/>
	<line class="st2" x1="192.7" y1="-54.3" x2="198.8" y2="-51"/>
	<line class="st2" x1="183.2" y1="-62" x2="190.3" y2="-53.4"/>
	<line class="st2" x1="216.6" y1="-43.6" x2="198.8" y2="-51"/>
	<line class="st2" x1="179.6" y1="-73.7" x2="178.9" y2="-66.8"/>
	<polyline class="st3" points="154.5,-95.5 135.2,-95.5 135.2,-95.5 118.1,-95.5 104.5,-95.5 95.7,-95.5 92.7,-95.5 90.5,-74 
		92.5,-53.4 92.6,-52.5 98.8,-31.9 105.4,-19.4 109,-12.8 109,-12.8 122.6,3.9 139.3,17.7 158.3,27.9 178.1,34 178.9,34.2 179,34.2 
		200.4,36.4 200.4,36.4 221.9,34.3 242.6,28.1 261.7,18 261.7,18 270.9,10.4 278.4,4.3 278.4,4.3 291.6,-11.7 292.1,-12.4 
		302.4,-31.4 308.7,-52 305.7,-52 296.9,-52 283.3,-52 266.2,-52 246.9,-52 246.9,-52 227,-52 226.9,-52 207.7,-52 207.7,-52 
		196.6,-53.1 196.6,-53.1 192.7,-54.3 192.7,-54.3 189,-56.2 189,-56.2 185.8,-58.8 183.2,-62 183.2,-62 181.2,-65.6 181.2,-65.6 
		180.7,-67.3 180,-69.6 180,-69.6 179.6,-73.7 180,-77.8 180,-77.8 181.2,-81.8 181.2,-81.8 183.1,-85.4 185.7,-88.6 185.7,-88.6 
		188.9,-91.3 192.6,-93.2 196.5,-94.4 207.2,-95.5 	"/>
	<polyline class="st3" points="210.8,-95.5 210.8,-95.5 224.4,-95.5 224.4,-95.5 233.2,-95.5 236.2,-95.5 236.2,-95.5 235.1,-97 
		231.3,-102 231.3,-102 225.2,-107.5 218.1,-111.6 210.4,-114.3 202.4,-115.4 202.3,-115.4 194.2,-114.9 186.3,-112.8 179,-109.3 
		178.9,-109.3 178.9,-109.3 177.5,-108.2 172.4,-104.4 167,-98.3 165.4,-95.5 	"/>
	<line class="st3" x1="200.2" y1="-95.5" x2="193.7" y2="-95.5"/>
	<polyline class="st3" points="174.4,-95.5 165.4,-95.5 154.5,-95.5 	"/>
	<polyline class="st3" points="193.7,-95.5 191.5,-95.5 190.8,-95.5 186.2,-95.5 178.9,-95.5 177.2,-95.5 174.4,-95.5 	"/>
	<polyline class="st3" points="210.8,-95.5 207.2,-95.5 200.2,-95.5 	"/>
</g>
<g id="Layer_3">
	<g>
		<polygon class="st4" points="357.5,181.9 348.4,211.7 333.6,239.2 329.6,237.5 317.8,232.7 331.6,208.4 340.4,181.9 353.1,181.9 
					"/>
		<polygon class="st4" points="340.4,181.9 331.6,208.4 317.8,232.7 299.7,225.2 312.4,204.6 320.8,181.9 		"/>
		<polygon class="st4" points="332.8,240.2 313.8,263.2 313.8,263.2 		"/>
		<polygon class="st4" points="329.6,237.5 333.6,239.2 332.8,240.2 313.8,263.2 302.9,272.1 289.6,283 289.6,283 277.6,270.9 
			299.6,253.8 317.8,232.7 		"/>
		<polygon class="st4" points="320.8,181.9 312.4,204.6 299.7,225.2 276.9,215.7 288.2,199.8 296.1,181.9 		"/>
		<polygon class="st4" points="317.8,232.7 299.6,253.8 277.6,270.9 263.7,257 283.3,242.9 299.7,225.2 		"/>
		<polygon class="st4" points="289.6,283 302.9,272.1 289.6,283 289.6,283 		"/>
		<polygon class="st4" points="299.7,225.2 283.3,242.9 263.7,257 246.2,239.6 262.7,229.1 276.9,215.7 		"/>
		<polygon class="st4" points="289.6,283 262.1,297.6 289.6,283 		"/>
		<polygon class="st4" points="289.6,283 262.1,297.6 232.2,306.6 230.5,302.5 225.7,290.8 252.6,283.4 277.6,270.9 		"/>
		<polygon class="st4" points="277.6,270.9 252.6,283.4 225.7,290.8 218.2,272.7 241.7,267.1 263.7,257 		"/>
		<polygon class="st4" points="276.9,215.7 262.7,229.1 246.2,239.6 226.6,219.9 239.6,213.7 251.2,205.1 		"/>
		<polygon class="st4" points="268.3,181.9 296.1,181.9 288.2,199.8 276.9,215.7 251.2,205.1 260.9,194.3 268.3,181.9 		"/>
		<polygon class="st4" points="268.3,181.9 260.9,194.3 251.2,205.1 224.6,194 232.6,188.7 239.5,181.9 239.5,181.9 		"/>
		<polygon class="st4" points="263.7,257 241.7,267.1 218.2,272.7 208.7,249.9 228,246.6 246.2,239.6 		"/>
		<polygon class="st4" points="251.2,117 252.8,119.1 252.8,119.1 		"/>
		<polygon class="st4" points="245.7,109.7 251.2,117 245.7,109.7 		"/>
		<polygon class="st4" points="251.2,117 252.8,119.1 248.5,119.1 235.8,119.1 235.8,119.1 229,113 221.2,108.4 232.9,103.6 
			236.9,101.9 245.7,109.7 		"/>
		<polygon class="st4" points="251.2,205.1 239.6,213.7 226.6,219.9 206.2,199.5 215.6,197.7 224.6,194 		"/>
		<polygon class="st4" points="246.2,239.6 228,246.6 208.7,249.9 198.1,224.2 212.5,223.4 226.6,219.9 		"/>
		<polygon class="st4" points="226.8,95.9 236.9,101.9 232.9,103.6 221.2,108.4 212.6,105.4 203.6,104.1 212.5,95.2 215.6,92.1 		
			"/>
		<polygon class="st4" points="232.2,306.6 201.2,309.6 201.2,309.6 170.2,306.4 170.2,306.4 170.2,302 170.2,289.4 197.9,292.8 
			225.7,290.8 230.5,302.5 		"/>
		<polygon class="st4" points="226.6,219.9 212.5,223.4 198.1,224.2 187.1,197.5 196.5,199.5 206.2,199.5 		"/>
		<polygon class="st4" points="218.2,272.7 225.7,290.8 197.9,292.8 170.2,289.4 170.2,269.8 194,273.6 		"/>
		<polygon class="st4" points="208.7,249.9 218.2,272.7 194,273.6 170.2,269.8 170.2,245.1 189.2,249.4 		"/>
		<polygon class="st4" points="212.5,95.2 203.6,104.1 194.5,104.6 185.7,106.9 190.5,95.2 192.2,91.1 203.9,90.4 204,90.4 
			215.6,92.1 		"/>
		<polygon class="st4" points="195.3,119.1 221.2,108.4 229,113 235.8,119.1 216.2,119.1 210.9,119.1 		"/>
		<polygon class="st4" points="198.1,224.2 208.7,249.9 189.2,249.4 170.2,245.1 170.2,217.3 183.8,222.1 		"/>
		<polygon class="st4" points="203.6,104.1 188.6,119.1 187.3,119.1 180.6,119.1 185.7,106.9 194.5,104.6 		"/>
		<polygon class="st4" points="187.1,197.5 198.1,224.2 183.8,222.1 170.2,217.3 170.2,188.4 178.2,193.8 		"/>
		<polygon class="st4" points="188.6,119.1 203.6,104.1 212.6,105.4 221.2,108.4 195.3,119.1 		"/>
		<polygon class="st4" points="195.7,180.4 211.7,181.9 211.7,181.9 239.5,181.9 232.6,188.7 224.6,194 198.9,183.4 190,178.7 
			195.7,180.4 		"/>
		<polygon class="st4" points="180.8,94.1 192.2,91.1 190.5,95.2 185.7,106.9 177.5,110.8 170.2,116.3 170.2,103.6 170.2,99.3 
			170.2,99.2 170.2,99.2 		"/>
		<line class="st4" x1="188.3" y1="119.1" x2="187.3" y2="119.1"/>
		<polygon class="st4" points="185.7,106.9 180.6,119.1 170.2,119.1 170.2,116.3 177.5,110.8 		"/>
		<polygon class="st4" points="180.1,172.1 184.7,175.9 184.7,175.9 190,178.7 190,178.7 198.9,183.4 224.6,194 215.6,197.7 
			206.2,199.5 186.5,179.9 176.3,167.5 		"/>
		<polygon class="st4" points="184.6,125.3 180,129.1 180,129.1 172.2,135.5 152.6,155.1 152.6,145.5 154.5,136 180.2,125.4 
			189.8,122.4 		"/>
		<polygon class="st4" points="176.3,167.5 186.5,179.9 206.2,199.5 196.5,199.5 187.1,197.5 176.4,171.9 173.5,162.3 176.3,167.5 
					"/>
		<polygon class="st4" points="172.2,135.5 180,129.1 176.2,133.7 173.4,138.9 173.4,139 168.7,147.8 158.1,173.5 154.4,164.6 
			152.6,155.1 		"/>
		<polygon class="st4" points="171.7,156.6 172.7,159.8 171.7,156.5 		"/>
		<polygon class="st4" points="173.5,162.3 176.4,171.9 187.1,197.5 178.2,193.8 170.2,188.4 170.2,160.6 171.1,150.6 171.7,156.5 
			172.7,159.8 173.5,162.2 		"/>
		<polygon class="st4" points="171.7,144.7 171.7,144.7 171.1,150.6 170.2,160.6 170.2,188.4 163.4,181.6 158.1,173.5 168.7,147.8 
			173.4,139 		"/>
		<polygon class="st4" points="168.9,306.1 140.4,297.3 112.9,282.6 114.6,278.5 119.4,266.8 143.7,280.6 170.2,289.4 170.2,302 
			170.2,306.4 		"/>
		<polygon class="st4" points="170.2,269.8 170.2,289.4 143.7,280.6 119.4,266.8 126.9,248.7 147.5,261.4 		"/>
		<polygon class="st4" points="170.2,245.1 170.2,269.8 147.5,261.4 126.9,248.7 136.4,225.8 152.3,237.1 		"/>
		<polygon class="st4" points="170.2,217.3 170.2,245.1 152.3,237.1 136.4,225.8 147,200.2 157.7,209.8 		"/>
		<polygon class="st4" points="170.2,188.4 170.2,217.3 157.7,209.8 147,200.2 158.1,173.5 163.4,181.6 		"/>
		<polygon class="st4" points="170.2,116.3 170.2,119.1 167.6,119.1 		"/>
		<polygon class="st4" points="152.9,115.2 160.8,106.3 168.1,100.8 170.2,99.3 170.2,103.6 170.2,116.3 167.6,119.1 163.7,119.1 
			150.6,119.1 		"/>
		<polygon class="st4" points="170.2,99.2 170.2,99.3 168.1,100.8 		"/>
		<polygon class="st4" points="167.6,119.1 170.2,119.1 180.6,119.1 187.3,119.1 188.3,119.1 191.5,119.1 200.8,119.1 210.9,119.1 
			195.5,120.7 189.8,122.4 180.2,125.4 154.5,136 158.3,127.1 163.7,119.1 		"/>
		<polygon class="st4" points="163.7,119.1 158.3,127.1 154.5,136 127.9,147.1 130,132.8 134.8,119.1 150.6,119.1 		"/>
		<polygon class="st4" points="160.8,106.3 152.9,115.2 160.8,106.3 		"/>
		<polygon class="st4" points="154.4,164.6 158.1,173.5 147,200.2 138.4,188.6 132.2,175.5 152.6,155.1 		"/>
		<polygon class="st4" points="154.5,136 152.6,145.5 152.6,155.1 132.2,175.5 128.6,161.5 127.9,147.1 		"/>
		<polygon class="st4" points="138.4,188.6 147,200.2 136.4,225.8 122.9,211.7 112.5,195.2 132.2,175.5 		"/>
		<polygon class="st4" points="140.4,297.3 168.9,306.1 140.4,297.3 112.9,282.6 		"/>
		<polygon class="st4" points="122.9,211.7 136.4,225.8 126.9,248.7 109.2,232.2 95,212.6 112.5,195.2 		"/>
		<polygon class="st4" points="128.6,161.5 132.2,175.5 112.5,195.2 105.5,176.9 102.2,157.7 127.9,147.1 		"/>
		<polygon class="st4" points="126.9,248.7 119.4,266.8 98.3,248.5 81.2,226.5 95,212.6 109.2,232.2 		"/>
		<polygon class="st4" points="114.6,278.5 112.9,282.6 88.8,262.7 69.1,238.6 69.1,238.6 72.2,235.5 81.2,226.5 98.3,248.5 
			119.4,266.8 		"/>
		<polygon class="st4" points="107,119.1 134.8,119.1 130,132.8 127.9,147.1 102.2,157.7 102.7,138.2 107,119.1 		"/>
		<polygon class="st4" points="107,119.1 102.7,138.2 102.2,157.7 79.4,167.2 78.5,143 82.3,119.1 		"/>
		<polygon class="st4" points="85,190.7 95,212.6 81.2,226.5 68.7,201.6 61.2,174.6 79.4,167.2 		"/>
		<polygon class="st4" points="82.3,119.1 78.5,143 79.4,167.2 61.2,174.6 59.2,146.8 62.7,119.1 		"/>
		<polygon class="st4" points="72.2,235.5 69.1,238.6 64,229 54.5,211 45.5,181.2 49.6,179.5 61.2,174.6 68.7,201.6 81.2,226.5 		
			"/>
		<polygon class="st4" points="64,229 54.5,211 45.5,181.2 54.5,211 		"/>
		<polygon class="st4" points="49.6,179.5 45.5,181.2 45.4,179.9 42.5,150.1 45.6,119.1 50,119.1 62.7,119.1 59.2,146.8 61.2,174.6 
					"/>
		<polygon class="st4" points="42.5,150.1 45.4,179.9 42.5,150.1 45.6,119.1 		"/>
		<polygon class="st4" points="105.5,176.9 112.5,195.2 95,212.6 85,190.7 79.4,167.2 102.2,157.7 		"/>
	</g>
</g>
<g id="Layer_2">
</g>
</svg>
