<?xml version="1.0" encoding="utf-8"?>
<!-- Generator: Adobe Illustrator 26.5.0, SVG Export Plug-In . SVG Version: 6.00 Build 0)  -->
<svg version="1.1" xmlns="http://www.w3.org/2000/svg" xmlns:xlink="http://www.w3.org/1999/xlink" x="0px" y="0px"
	 viewBox="0 0 141.7 141.7" style="enable-background:new 0 0 141.7 141.7;" xml:space="preserve">
<style type="text/css">
	.st0{fill:#FFFFFF;}
</style>
<g id="Layer_1">
</g>
<g id="Layer_3">
</g>
<g id="TELOSA">
	<path class="st0" d="M101.6,40.1c4,3.9,12.5,3.3,24.8-2.9c-1.1-1.9-2.3-3.6-3.6-5.4c-8.9,4.4-14.3,5.6-16.4,3.4
		c-2.1-2.1-0.8-7.5,3.5-16.4c-1.7-1.3-3.5-2.5-5.4-3.6C98.3,27.6,97.7,36.1,101.6,40.1z M90.1,51.6c7.3,7.3,21.9,7.4,42.4-1
		c-0.7-2.1-1.4-4.1-2.3-6.1c-17.8,7.3-29.7,8-35.4,2.4c-5.6-5.6-4.9-17.5,2.4-35.4c-2-0.9-4-1.6-6.1-2.3
		C82.7,29.7,82.8,44.3,90.1,51.6z M51.6,51.6c7.3-7.3,7.4-21.9-1-42.4c-2.1,0.7-4.1,1.5-6.1,2.3c7.3,17.9,8,29.8,2.4,35.4
		c-5.6,5.6-17.6,4.9-35.4-2.4c-0.9,2-1.7,4-2.3,6.1C29.7,59,44.3,58.9,51.6,51.6z M40.1,40.1c3.9-4,3.3-12.5-2.9-24.8
		c-1.9,1.1-3.6,2.3-5.4,3.6c4.3,8.9,5.6,14.3,3.5,16.4c-2.1,2.1-7.5,0.9-16.4-3.4c-1.3,1.7-2.5,3.5-3.6,5.4
		C27.6,43.4,36.2,44,40.1,40.1z M70.9,100.7c-0.7-12-3.7-17.7-7.9-21.9c-4.3-4.2-10-7.2-22-7.9c12-0.7,17.7-3.7,22-7.9
		c4.2-4.2,7.2-9.9,7.9-21.9c0.7,12,3.7,17.7,7.9,21.9c4.3,4.2,10,7.2,22,7.9c-12,0.7-17.7,3.7-22,7.9C74.6,83,71.6,88.7,70.9,100.7z
		 M91.1,132.6c2.1-0.7,4.1-1.5,6.1-2.3c-7.3-17.9-8-29.8-2.4-35.4c5.6-5.6,17.6-4.9,35.4,2.4c0.9-2,1.7-4,2.3-6.1
		c-20.5-8.4-35.1-8.3-42.4-1C82.8,97.5,82.7,112,91.1,132.6z M104.5,126.4c1.9-1.1,3.6-2.3,5.4-3.6c-4.3-8.9-5.6-14.3-3.5-16.4
		c2.1-2.1,7.5-0.9,16.4,3.4c1.3-1.7,2.5-3.5,3.6-5.4c-12.3-6.1-20.8-6.8-24.8-2.9C97.7,105.6,98.3,114.1,104.5,126.4z M50.6,132.6
		c8.4-20.6,8.3-35.1,1-42.4c-7.3-7.3-21.9-7.4-42.4,1c0.7,2.1,1.4,4.1,2.3,6.1c17.8-7.3,29.7-8,35.4-2.4c5.6,5.6,4.9,17.5-2.4,35.4
		C46.5,131.1,48.6,131.9,50.6,132.6z M37.3,126.4c6.2-12.3,6.8-20.8,2.9-24.8c-4-3.9-12.5-3.3-24.8,2.9c1.1,1.9,2.3,3.6,3.6,5.4
		c8.9-4.4,14.3-5.6,16.4-3.4c2.1,2.1,0.8,7.5-3.5,16.4C33.6,124.1,35.4,125.3,37.3,126.4z M64.7,135.5c3-8.4,5.6-16.8,6.2-29.6
		c0.6,12.8,3.2,21.2,6.2,29.6c2.2-0.2,4.4-0.5,6.5-1c-1.8-5-3.4-9.9-4.5-14.5c-4.2-17.4-2.6-29.7,4.3-36.6
		c6.9-6.9,19.2-8.4,36.6-4.3c4.6,1.1,9.6,2.6,14.6,4.5c0.4-2.1,0.8-4.3,1-6.5c-8.3-3-16.8-5.6-29.5-6.2c12.7-0.6,21.2-3.2,29.5-6.2
		c-0.2-2.2-0.5-4.4-1-6.5c-5,1.8-9.9,3.4-14.6,4.5c-17.3,4.2-29.7,2.6-36.6-4.3c-6.9-6.9-8.5-19.3-4.3-36.6
		c1.1-4.6,2.6-9.5,4.5-14.5c-2.2-0.4-4.3-0.8-6.5-1c-3,8.4-5.6,16.8-6.2,29.6c-0.6-12.8-3.2-21.2-6.2-29.6c-2.2,0.2-4.4,0.5-6.5,1
		c1.8,5,3.4,9.9,4.5,14.5c4.2,17.4,2.6,29.7-4.3,36.6c-6.9,6.9-19.2,8.4-36.6,4.3c-4.6-1.1-9.6-2.6-14.6-4.5c-0.4,2.1-0.8,4.3-1,6.5
		c8.3,3,16.8,5.6,29.5,6.2C23,71.5,14.6,74,6.2,77c0.2,2.2,0.5,4.4,1,6.5c5-1.8,9.9-3.4,14.6-4.5c17.3-4.2,29.7-2.6,36.6,4.3
		c6.9,6.9,8.5,19.3,4.3,36.6c-1.1,4.6-2.6,9.5-4.5,14.5C60.3,135,62.5,135.3,64.7,135.5z"/>
</g>
</svg>
