<?xml version="1.0" encoding="utf-8"?>
<!-- Generator: Adobe Illustrator 26.5.0, SVG Export Plug-In . SVG Version: 6.00 Build 0)  -->
<svg version="1.1" xmlns="http://www.w3.org/2000/svg" xmlns:xlink="http://www.w3.org/1999/xlink" x="0px" y="0px"
	 viewBox="0 0 42.5 42.1" style="enable-background:new 0 0 42.5 42.1;" xml:space="preserve">
<style type="text/css">
	.st0{display:none;}
	.st1{display:inline;}
	.st2{fill-rule:evenodd;clip-rule:evenodd;fill:#FFFFFF;}
	.st3{fill:#FFFFFF;}
</style>
<g id="Layer_1">
</g>
<g id="Layer_2" class="st0">
	<g id="HATCH_1_" class="st1">
		<path class="st2" d="M56-1.5v44h42.5v-44H56z M96.9-0.1v-1.1h-1.4v1.1H96.9z M57.7-0.1H59v-1.1h-1.4V-0.1z M62.2-0.1v-1.1h-1.4
			v1.1H62.2z M92.3-0.1h1.4v-1.1h-1.4V-0.1z M89.2-0.1h1.4v-1.1h-1.4V-0.1z M65.4-0.1v-1.1H64v1.1H65.4z M67.1-0.1h1.4v-1.1h-1.4
			V-0.1z M86-1.2v1.1h1.4v-1.1H86z M84.3-1.2h-1.4v1.1h1.4V-1.2z M70.3-1.2v1.1h1.4v-1.1H70.3z M74.8-1.2h-1.4v1.1h1.4V-1.2z
			 M79.7-0.1h1.4v-1.1h-1.4V-0.1z M78-0.1v-1.1h-1.4v1.1H78z M97,42.2h1.2V41H97V42.2z M57.5,42.2V41h-1.2v1.1H57.5z M95.3,42.2V41
			h-1.4v1.1H95.3z M90.8,41v1.1h1.4V41H90.8z M87.6,41v1.1H89V41H87.6z M84.4,41v1.1h1.4V41H84.4z M81.3,42.2h1.4V41h-1.4V42.2z
			 M78.1,42.2h1.4V41h-1.4V42.2z M76.4,42.2V41H75v1.1H76.4z M71.8,41v1.1h1.4V41H71.8z M70.1,41h-1.4v1.1h1.4V41z M65.5,41v1.1h1.4
			V41H65.5z M63.8,41h-1.4v1.1h1.4V41z M60.6,41h-1.4v1.1h1.4V41z M98.2,11v-1H97v1H98.2z M97,13.3h1.2v-1H97V13.3z M98.2,14.7H97v1
			h1.2V14.7z M98.2,17H97v1h1.2V17z M97,19.4v1h1.2v-1H97z M97,21.7v1h1.2v-1H97z M97,24.1v1h1.2v-1H97z M97,26.4v1h1.2v-1H97z
			 M97,29.8h1.2v-1H97V29.8z M98.2,32.1v-1H97v1H98.2z M97,33.5v1h1.2v-1H97z M98.2,35.8H97v1h1.2V35.8z M98.2,39.4v-1.2H97v1.2
			H98.2z M97,7.7v1h1.2v-1H97z M97,5.3v1h1.2v-1H97z M98.2,3H97v1h1.2V3z M97,1.3h1.2V0.1H97V1.3z M56.3,10v1h1.2v-1H56.3z
			 M56.3,12.3v1h1.2v-1H56.3z M57.5,15.7v-1h-1.2v1H57.5z M57.5,17h-1.2v1h1.2V17z M56.3,19.4v1h1.2v-1H56.3z M56.3,21.7v1h1.2v-1
			H56.3z M57.5,24.1h-1.2v1h1.2V24.1z M57.5,26.4h-1.2v1h1.2V26.4z M57.5,29.8v-1h-1.2v1H57.5z M57.5,31.1h-1.2v1h1.2V31.1z
			 M56.3,33.5v1h1.2v-1H56.3z M56.3,36.8h1.2v-1h-1.2V36.8z M57.5,39.4v-1.2h-1.2v1.2H57.5z M57.5,7.7h-1.2v1h1.2V7.7z M57.5,6.3v-1
			h-1.2v1H57.5z M56.3,3.9h1.2V3h-1.2V3.9z M56.3,1.3h1.2V0.1h-1.2V1.3z M73.9,27.6h6.8V24h-6.8V27.6z M73.7,23.8l0.2-2.2L70.6,22
			l-0.3,2L73.7,23.8z M73.7,27.8l-3.4-0.2l0.3,2l3.3,0.4L73.7,27.8z M84.2,27.5l-3.4,0.2l-0.2,2.2l3.3-0.4L84.2,27.5z M80.6,21.6
			l0.2,2.2l3.4,0.2L84,22L80.6,21.6z M83.7,20.2l0.4,1.7l1.5,0.3l-0.4-1.5L83.7,20.2z M86.1,19.5L85,19.1l0.5,1.4l1.1,0.4L86.1,19.5
			z M86.7,18.7l-0.9-0.4l0.5,1.1l0.8,0.4L86.7,18.7z M86.8,18.6l0.6,0.3L87.1,18l-0.7-0.4L86.8,18.6z M86.9,17.2l0.4,0.7l0.5,0.3
			l-0.3-0.6L86.9,17.2z M87.7,17.4L89,18V17l-1.4-0.2L87.7,17.4z M89.2,15.9v1h1.4v-1H89.2z M92.1,14.7h-1.4v1h1.4V14.7z M93.7,13.5
			h-1.4v1h1.4V13.5z M95.3,12.3h-1.4v1h1.4V12.3z M95.5,11.2v1h1.4v-1H95.5z M96.9,14.5v-1h-1.4v1H96.9z M95.3,14.7h-1.4v1h1.4V14.7
			z M93.7,15.9h-1.4v1h1.4V15.9z M92.1,17h-1.4v1h1.4V17z M90.6,18.2l-1.4,0V19l1.4,0.2V18.2z M89,19.1l-0.8-0.5l0.3,0.9l0.5,0.3
			L89,19.1z M88.7,20.6l-0.3-1l-0.5-0.3l0.4,1L88.7,20.6z M88.1,20.5l-0.6-0.3l0.4,1.2l0.6,0.3L88.1,20.5z M87.6,21.5l-0.8-0.3
			l0.3,1.3l0.8,0.2L87.6,21.5z M86.9,22.6l-1.1-0.2l0.2,1.8l1,0.1L86.9,22.6z M84.4,24.2v3.1l1.5-0.2v-2.7L84.4,24.2z M80.1,32
			l0.3-1.9h-6.3l0.3,1.9H80.1z M84.1,29.7l-0.4,1.7l1.6-0.5l0.4-1.5L84.1,29.7z M87.2,27.2l-1,0.1l-0.2,1.8l1.1-0.2L87.2,27.2z
			 M88.1,26.8v-2.2l-0.7-0.1V27L88.1,26.8z M88.6,23.1l-0.6-0.2l0.2,1.6l0.5,0.1L88.6,23.1z M89.1,22.2L88.6,22l0.2,0.9l0.4,0.1
			L89.1,22.2z M89.6,22.3l-0.2-1L89,21l0.3,1.1L89.6,22.3z M89.3,20.2l0.3,1l1,0.4v-1L89.3,20.2z M90.8,19.4v1h1.4v-1H90.8z
			 M93.7,18.2h-1.4v1h1.4V18.2z M93.9,17v1h1.4v-1H93.9z M96.9,15.9h-1.4v1h1.4V15.9z M95.5,19.2h1.4v-1h-1.4V19.2z M95.3,20.4v-1
			h-1.4v1H95.3z M92.3,21.6h1.4v-1h-1.4V21.6z M92.1,22.7v-1l-1.4,0v1L92.1,22.7z M90.6,23.5l0-0.7l-0.7-0.2l0.1,0.7L90.6,23.5z
			 M89.8,23.4l-0.3-0.1l0.1,1.4l0.3,0.1L89.8,23.4z M89.4,26.6v-1.8L89,24.8v1.9L89.4,26.6z M88.3,27l-0.2,1.6l0.6-0.2l0.2-1.5
			L88.3,27z M87.6,30l0.2-1.2L87.1,29l-0.3,1.3L87.6,30z M85.4,31.1L85,32.4l1.2-0.5l0.4-1.3L85.4,31.1z M82.9,33.1l0.5-1.4
			l-3.2,0.6L80,33.6L82.9,33.1z M84.6,32.7l-1.5,0.5l-0.5,1.1l1.5-0.5L84.6,32.7z M74.2,32.2l-3.2-0.6l0.5,1.4l3,0.6L74.2,32.2z
			 M75.1,34.9h4.3l0.3-1.1h-4.9L75.1,34.9z M70.4,29.7l-1.5-0.3l0.4,1.5l1.6,0.5L70.4,29.7z M68.6,27.1l1.5,0.2v-3.1l-1.5,0.2V27.1z
			 M70.4,21.8l0.4-1.7l-1.6,0.5l-0.4,1.5L70.4,21.8z M74.4,19.5l-0.3,1.9h6.3l-0.3-1.9H74.4z M68.4,19.5L68,20.9l1.1-0.4l0.5-1.4
			L68.4,19.5z M68.3,19.4l0.5-1.1l-0.9,0.4l-0.4,1.1L68.3,19.4z M67.7,18.6l0.4-0.9L67.4,18L67,18.9L67.7,18.6z M67.7,17.2L67,17.6
			l-0.3,0.6l0.5-0.3L67.7,17.2z M65.5,17V18l1.3-0.5l0.1-0.5L65.5,17z M64,16.9h1.4v-1H64V16.9z M60.8,14.5h1.4v-1h-1.4V14.5z
			 M62.4,14.7v1h1.4v-1H62.4z M60.6,12.3h-1.4v1h1.4V12.3z M57.7,11.2v1H59v-1H57.7z M59,14.5v-1h-1.4v1H59z M60.6,15.7v-1h-1.4v1
			H60.6z M62.2,15.9h-1.4v1h1.4V15.9z M62.4,17v1h1.4v-1H62.4z M64,19.2l1.4-0.2v-0.8l-1.4,0V19.2z M65.5,19.1l0,0.7l0.5-0.3
			l0.4-0.9L65.5,19.1z M66.3,20.4l0.4-1l-0.5,0.3l-0.3,1L66.3,20.4z M66.5,20.5l-0.3,1.2l0.6-0.3l0.4-1.2L66.5,20.5z M67.4,22.5
			l0.3-1.3l-0.8,0.3l-0.2,1.1L67.4,22.5z M67.6,22.6l-0.2,1.7l1-0.1l0.2-1.8L67.6,22.6z M57.7,16.9H59v-1h-1.4V16.9z M59.2,17v1h1.4
			v-1H59.2z M62.2,19.2v-1h-1.4v1H62.2z M62.4,19.4v1h1.4v-1H62.4z M64,20.5v1l1-0.4l0.3-1L64,20.5z M65.2,21.3l-0.2,1l0.3-0.2
			l0.3-1.1L65.2,21.3z M65.4,22.2l-0.1,0.8l0.4-0.1l0.2-0.9L65.4,22.2z M65.9,23.1l-0.2,1.5l0.5-0.1l0.2-1.6L65.9,23.1z M66.4,24.7
			v2.2l0.7,0.1v-2.4L66.4,24.7z M67.4,27.2l0.2,1.7l1.1,0.3l-0.2-1.8L67.4,27.2z M57.7,19.2H59v-1h-1.4V19.2z M59.2,19.4v1h1.4v-1
			H59.2z M60.8,21.6h1.4v-1h-1.4V21.6z M62.4,22.7l1.4,0v-1l-1.4,0V22.7z M64.6,23.3l0.1-0.7L64,22.9l0,0.7L64.6,23.3z M64.7,23.5
			l-0.1,1.3l0.3-0.1l0.1-1.4L64.7,23.5z M65.1,24.9v1.7l0.4,0.1v-1.9L65.1,24.9z M66.3,27l-0.5-0.1l0.2,1.5l0.6,0.2L66.3,27z
			 M66.9,30l0.8,0.3L67.4,29l-0.8-0.2L66.9,30z M69.1,31.1L68,30.6l0.4,1.3l1.2,0.5L69.1,31.1z M71.9,34.3l-0.5-1.1l-1.5-0.5
			l0.5,1.1L71.9,34.3z M75,35.1l-2.7-0.5l0.5,0.9l2.5,0.4L75,35.1z M79.3,35.9l2.5-0.4l0.5-0.9l-2.7,0.5L79.3,35.9z M84.3,34
			l-0.5,0.9l1.2-0.4l0.5-0.9L84.3,34z M86.3,32.1l-0.5,1.1l0.9-0.4l0.4-1.1L86.3,32.1z M87.8,30.1l-0.4,1.2l0.6-0.3l0.3-1.2
			L87.8,30.1z M89.1,29.3l0.1-0.8l-0.4,0.1l-0.2,0.9L89.1,29.3z M89.6,26.8l-0.1,1.4l0.3-0.1l0.1-1.3L89.6,26.8z M90.6,25.1L90.1,25
			v1.5l0.5-0.1L90.6,25.1z M90.8,24.9l1.3,0.1v-1l-1.4-0.3L90.8,24.9z M92.3,22.9v1h1.4v-1H92.3z M93.9,21.7v1h1.4v-1H93.9z
			 M96.9,20.6h-1.4v1h1.4V20.6z M96.9,22.9h-1.4v1h1.4V22.9z M95.3,25.1v-1h-1.4v1H95.3z M92.3,26.3h1.4v-1h-1.4V26.3z M90.8,26.6
			l0,1.2l1.4-0.3v-1L90.8,26.6z M89.4,30.3l0.2-1l-0.3,0.2L89,30.5L89.4,30.3z M90,28.2l-0.1,0.7l0.7-0.2V28L90,28.2z M88.4,31.9
			l0.3-1l-0.5,0.3l-0.4,1L88.4,31.9z M86.8,32.9l-0.4,0.9l0.7-0.4l0.4-0.9L86.8,32.9z M85.5,35l0.4-0.7l-0.9,0.4l-0.4,0.7L85.5,35z
			 M82.7,36.7l1.1-0.4l0.4-0.6L83,36.2L82.7,36.7z M81.9,35.7l-0.4,0.7l1.4-0.4l0.4-0.7L81.9,35.7z M78.8,37.4l2-0.2l0.4-0.6
			L79,36.9L78.8,37.4z M78.8,36.8l0.2-0.6h-3.6l0.2,0.6H78.8z M75.6,36.9l-2.1-0.3l0.4,0.6l2,0.2L75.6,36.9z M72.6,35.7l-1.5-0.4
			l0.4,0.7l1.4,0.4L72.6,35.7z M70.7,34.9L70.3,34l-1.2-0.5l0.5,0.9L70.7,34.9z M70.8,36.4l1.1,0.4l-0.4-0.6l-1.1-0.4L70.8,36.4z
			 M69.4,34.7l-0.9-0.4L69,35l0.9,0.4L69.4,34.7z M67.8,32.8l0.9,0.4l-0.5-1.1l-0.8-0.4L67.8,32.8z M66.7,30.1l-0.6-0.3l0.3,1.2
			l0.6,0.3L66.7,30.1z M65.4,29.3l0.4,0.2l-0.2-0.9l-0.4-0.1L65.4,29.3z M64.6,26.7l0.1,1.3l0.3,0.1l-0.1-1.4L64.6,26.7z M63.9,25.1
			l0,1.3l0.5,0.1V25L63.9,25.1z M63.7,24.9l0-1.2l-1.4,0.3v1L63.7,24.9z M62.2,23.9v-1h-1.4v1H62.2z M59.2,21.7v1h1.4v-1H59.2z
			 M59,20.6h-1.4v1H59V20.6z M57.7,23.9H59v-1h-1.4V23.9z M60.6,25.1v-1h-1.4v1H60.6z M62.2,26.3v-1h-1.4v1H62.2z M62.4,26.5v1
			l1.4,0.3l0-1.2L62.4,26.5z M64.6,28.2L64,28v0.7l0.7,0.2L64.6,28.2z M65.2,30.3l0.4,0.2l-0.3-1.1l-0.3-0.2L65.2,30.3z M65.8,30.9
			l0.3,1l0.5,0.3l-0.4-1L65.8,30.9z M67.4,33.5l0.7,0.4l-0.4-0.9L67,32.6L67.4,33.5z M72.7,37.5l1.3,0.3l-0.3-0.4l-1.3-0.3
			L72.7,37.5z M76.2,38h2.1l0.2-0.4H76L76.2,38z M80.5,37.8l1.3-0.3l0.4-0.5l-1.3,0.3L80.5,37.8z M84.8,36.2l-0.9,0.4L83.5,37l1-0.4
			L84.8,36.2z M86.1,35.4l0.3-0.6l-0.7,0.4l-0.4,0.6L86.1,35.4z M87.5,34l0.3-0.7l-0.5,0.3l-0.4,0.7L87.5,34z M88.5,32l-0.3,0.9
			l0.8-0.5l0-0.7L88.5,32z M89.5,30.4l-0.3,1l1.3-0.4V30L89.5,30.4z M92.1,29.8v-1l-1.4,0v1L92.1,29.8z M93.7,27.6h-1.4v1h1.4V27.6z
			 M93.9,27.4h1.4v-1h-1.4V27.4z M96.9,25.3h-1.4v1h1.4V25.3z M96.9,28.6v-1h-1.4v1H96.9z M93.9,28.8v1h1.4v-1H93.9z M92.3,30.9h1.4
			v-1h-1.4V30.9z M92.1,31.1h-1.4v1h1.4V31.1z M89.2,32.5v0.8l1.4,0v-1L89.2,32.5z M89,33.6l-1.3,0.5l-0.1,0.5l1.4-0.1V33.6z
			 M87.4,35.7v-0.8l-1.2,0.6L86.1,36L87.4,35.7z M85.9,36.2l-1.2,0.5l-0.1,0.4l1.3-0.3L85.9,36.2z M83,37.9l-0.1,0.4l1.3-0.2l0-0.6
			L83,37.9z M81.7,38l1.2-0.3l0.2-0.3l-1.2,0.3L81.7,38z M79.9,38.8l1.3-0.2l0.1-0.3L80,38.6L79.9,38.8z M78.3,38.5l1.5-0.1l0.2-0.3
			l-1.6,0.2L78.3,38.5z M76.5,38.9H78l0-0.2h-1.6L76.5,38.9z M74.6,38.4l1.5,0.1l-0.1-0.3L74.4,38L74.6,38.4z M73.3,38.6l1.3,0.2
			l-0.1-0.2l-1.3-0.2L73.3,38.6z M71.6,37.7l1.2,0.3l-0.2-0.3l-1.2-0.3L71.6,37.7z M70.6,36.5l-0.9-0.4l0.3,0.5l1,0.4L70.6,36.5z
			 M69.2,35.7l-0.4-0.6l-0.7-0.4l0.3,0.6L69.2,35.7z M67.3,33.6l-0.5-0.3L67,34l0.7,0.4L67.3,33.6z M66,32l-0.5-0.3l0,0.7l0.8,0.5
			L66,32z M64,31l1.3,0.4l-0.3-1L64,30V31z M62.4,28.8v1l1.4,0v-1L62.4,28.8z M62.2,28.6v-1h-1.4v1H62.2z M60.6,26.4h-1.4v1h1.4
			V26.4z M57.7,25.3v1H59v-1H57.7z M59,28.6v-1h-1.4v1H59z M60.6,28.8h-1.4v1h1.4V28.8z M62.2,30.9v-1h-1.4v1H62.2z M62.4,32.1h1.4
			v-1h-1.4V32.1z M65.4,33.3v-0.8L64,32.3v1L65.4,33.3z M65.5,34.5l1.4,0.1l-0.1-0.5l-1.3-0.5V34.5z M67.1,35.7l1.3,0.3l-0.1-0.4
			l-1.2-0.6V35.7z M68.7,36.8l1.3,0.3l-0.1-0.4l-1.2-0.5L68.7,36.8z M71.5,37.9l-1.3-0.5l0,0.6l1.3,0.2L71.5,37.9z M73.2,39.4
			l-0.1-0.7l-1.3-0.3l0,1L73.2,39.4z M75,39.5l1.4,0l0-0.4L74.9,39L75,39.5z M78.2,39.1l0,0.4l1.4,0l0.1-0.5L78.2,39.1z M82.7,39.4
			l0-1l-1.3,0.3l-0.1,0.7L82.7,39.4z M85.8,38.2h-1.4v1.2h1.4V38.2z M86,37v1h1.4v-1H86z M89,35.8h-1.4v1H89V35.8z M89.2,34.7v1h1.4
			v-1H89.2z M90.8,33.5v1h1.4v-1H90.8z M93.7,33.3v-1h-1.4v1H93.7z M93.9,31.1v1h1.4v-1H93.9z M95.5,30v1h1.4v-1H95.5z M95.5,33.3
			h1.4v-1h-1.4V33.3z M93.9,33.5v1h1.4v-1H93.9z M92.3,34.7v1h1.4v-1H92.3z M92.1,36.8v-1h-1.4v1H92.1z M89.2,38h1.4v-1h-1.4V38z
			 M87.6,38.2v1.2H89v-1.2H87.6z M92.1,38.2h-1.4v1.2h1.4V38.2z M93.7,37h-1.4v1h1.4V37z M93.9,36.8h1.4v-1h-1.4V36.8z M95.5,34.7v1
			h1.4v-1H95.5z M95.5,37v1h1.4v-1H95.5z M93.9,39.4h1.4v-1.2h-1.4V39.4z M95.5,39.6v1.2h1.4v-1.2H95.5z M93.7,40.9v-1.2h-1.4v1.2
			H93.7z M90.6,39.6h-1.4v1.2h1.4V39.6z M86,39.6v1.2h1.4v-1.2H86z M82.9,40.9h1.4v-1.2h-1.4V40.9z M79.7,39.7l0,1.2h1.4v-1.2
			L79.7,39.7z M78,39.7h-1.4v1.1H78V39.7z M73.4,39.6v1.2h1.4l0-1.2L73.4,39.6z M71.7,40.9v-1.2h-1.4v1.2H71.7z M68.7,39.4h1.4v-1.2
			h-1.4V39.4z M67.1,37v1h1.4v-1H67.1z M66.9,35.8h-1.4v1h1.4V35.8z M64,34.7v1h1.4v-1H64z M63.8,34.5v-1h-1.4v1H63.8z M62.2,32.3
			h-1.4v1h1.4V32.3z M59.2,32.1h1.4v-1h-1.4V32.1z M59,30.9v-1h-1.4v1H59z M57.7,33.3H59v-1h-1.4V33.3z M60.6,34.5v-1h-1.4v1H60.6z
			 M60.8,35.6h1.4v-1h-1.4V35.6z M63.8,35.8h-1.4v1h1.4V35.8z M65.4,37H64v1h1.4V37z M65.5,39.4h1.4v-1.2h-1.4V39.4z M68.5,40.9
			v-1.2h-1.4v1.2H68.5z M64,39.6v1.2h1.4v-1.2H64z M63.8,39.4v-1.2h-1.4v1.2H63.8z M60.8,38h1.4v-1h-1.4V38z M59.2,35.8v1h1.4v-1
			H59.2z M59,35.6v-1h-1.4v1H59z M59,38v-1h-1.4v1H59z M60.6,38.2h-1.4v1.2h1.4V38.2z M62.2,40.9v-1.2h-1.4v1.2H62.2z M57.7,39.6
			v1.2H59v-1.2H57.7z M96.9,8.8h-1.4v1h1.4V8.8z M95.3,10h-1.4v1h1.4V10z M92.3,12.2h1.4v-1h-1.4V12.2z M90.8,12.3v1h1.4v-1H90.8z
			 M90.6,13.5h-1.4v1h1.4V13.5z M87.6,15.7H89v-1h-1.4V15.7z M87.4,15.9l-1.3-0.3l0.1,0.4l1.2,0.6V15.9z M86.1,16.1l-0.8-0.4
			l0.4,0.6l0.7,0.4L86.1,16.1z M85.5,16.5l-0.9-0.4l0.4,0.7l0,0l0.9,0.4L85.5,16.5z M84.9,17l-1.1-0.4l0.5,0.9l1.1,0.4L84.9,17z
			 M84.1,17.6l-1.5-0.5l0.5,1.1l1.5,0.5L84.1,17.6z M82.9,18.5l-3-0.6l0.3,1.4l3.2,0.6L82.9,18.5z M71.6,18.5l-0.5,1.4l3.2-0.6
			l0.3-1.4L71.6,18.5z M70.4,17.6l-0.5,1.1l1.5-0.5l0.5-1.1L70.4,17.6z M69.6,17l-0.5,0.9l1.1-0.4l0.5-0.9L69.6,17z M69,16.5
			l-0.4,0.7l0.9-0.4l0,0l0.4-0.7L69,16.5z M69.2,15.8l-0.8,0.4l-0.3,0.6l0.7-0.4L69.2,15.8z M67.1,15.9v0.8l1.2-0.6l0.1-0.4
			L67.1,15.9z M66.9,15.7v-1h-1.4v1H66.9z M64,14.5h1.4v-1H64V14.5z M62.4,12.3v1h1.4v-1H62.4z M60.8,11.2v1h1.4v-1H60.8z M60.6,10
			h-1.4v1h1.4V10z M57.7,8.8v1H59v-1H57.7z M59,6.5h-1.4v1H59V6.5z M59.2,7.7v1h1.4v-1H59.2z M60.8,8.8v1h1.4v-1H60.8z M63.8,11v-1
			h-1.4v1H63.8z M65.4,12.2v-1H64v1H65.4z M66.9,12.3h-1.4v1h1.4V12.3z M67.1,14.5h1.4v-1h-1.4V14.5z M68.7,14.7l0,0.6l1.2-0.6
			l0.1-0.4L68.7,14.7z M69.7,15.4l0.9-0.4l0.4-0.5l-1,0.4L69.7,15.4z M70.8,15.1l-0.4,0.6l1.1-0.4l0.4-0.6L70.8,15.1z M71.6,15.5
			l-0.4,0.7l1.5-0.4l0.4-0.7L71.6,15.5z M75.2,15.6L72.7,16l-0.5,0.9l2.7-0.5L75.2,15.6z M79.4,16.6h-4.3l-0.3,1.1h4.9L79.4,16.6z
			 M79.6,16.4l2.7,0.5L81.8,16l-2.5-0.4L79.6,16.4z M81.9,15.8l1.5,0.4l-0.4-0.7l-1.4-0.4L81.9,15.8z M83.8,15.1l-1.1-0.4l0.4,0.6
			l1.1,0.4L83.8,15.1z M83.9,15l0.9,0.4l-0.3-0.5l-1-0.4L83.9,15z M85.8,14.7l-1.3-0.3l0.1,0.4l1.2,0.5L85.8,14.7z M86,14.5h1.4v-1
			H86V14.5z M89,12.3h-1.4v1H89V12.3z M89.2,11.2v1h1.4v-1H89.2z M92.1,11v-1h-1.4v1H92.1z M92.3,9.8h1.4v-1h-1.4V9.8z M95.3,7.7
			h-1.4v1h1.4V7.7z M95.5,6.5v1h1.4v-1H95.5z M96.9,4.1h-1.4v1h1.4V4.1z M95.3,5.3h-1.4v1h1.4V5.3z M93.7,6.5h-1.4v1h1.4V6.5z
			 M92.1,7.7h-1.4v1h1.4V7.7z M89.2,9.8h1.4v-1h-1.4V9.8z M87.6,10v1H89v-1H87.6z M87.4,11.2H86v1h1.4V11.2z M84.4,13.3h1.4v-1h-1.4
			V13.3z M83,13.7l1.3,0.5l0-0.6l-1.3-0.2L83,13.7z M81.9,13.8l1.2,0.3l-0.2-0.3l-1.2-0.3L81.9,13.8z M81.8,14l-1.3-0.3l0.3,0.4
			l1.3,0.3L81.8,14z M79,14.6l2.1,0.3l-0.4-0.6l-2-0.2L79,14.6z M78.8,14.8h-3.1l-0.2,0.6H79L78.8,14.8z M75.7,14.1l-2,0.2l-0.4,0.6
			l2.1-0.3L75.7,14.1z M72.3,14.5l1.3-0.3l0.3-0.4L72.7,14L72.3,14.5z M71.5,14.2l1.2-0.3l0.2-0.3l-1.2,0.3L71.5,14.2z M70.2,14.1
			l1.3-0.5l0.1-0.4l-1.3,0.2L70.2,14.1z M68.7,13.3h1.4v-1h-1.4V13.3z M67.1,11.2v1h1.4v-1H67.1z M65.5,10v1h1.4v-1H65.5z M64,8.8v1
			h1.4v-1H64z M63.8,7.7h-1.4v1h1.4V7.7z M60.8,7.5h1.4v-1h-1.4V7.5z M59.2,5.3v1h1.4v-1H59.2z M57.7,4.1v1H59v-1H57.7z M59,1.5
			h-1.4v1.2H59V1.5z M59.2,3v1h1.4V3H59.2z M60.8,4.1v1h1.4v-1H60.8z M63.8,6.3v-1h-1.4v1H63.8z M65.4,7.5v-1H64v1H65.4z M66.9,8.6
			v-1h-1.4v1H66.9z M67.1,8.8v1h1.4v-1H67.1z M68.7,10v1h1.4v-1H68.7z M71.7,11.2h-1.4v1h1.4V11.2z M71.8,12.3l0,0.7l1.3-0.3
			l0.1-0.4L71.8,12.3z M73.2,13.2l1.3-0.2l0.1-0.2l-1.3,0.2L73.2,13.2z M74.4,13.5l1.7-0.2l0.1-0.3l-1.5,0.1L74.4,13.5z M76.2,13.5
			L76,13.9h2.5l-0.2-0.4H76.2z M78.5,13.3l1.6,0.2l-0.2-0.3L78.3,13L78.5,13.3z M80,13l1.3,0.2l-0.1-0.3l-1.3-0.2L80,13z M82.7,12.3
			l-1.4,0l0.1,0.4l1.3,0.3L82.7,12.3z M82.9,11.2v1h1.4v-1H82.9z M84.4,11h1.4v-1h-1.4V11z M87.4,8.8H86v1h1.4V8.8z M87.6,7.7v1H89
			v-1H87.6z M89.2,6.5v1h1.4v-1H89.2z M90.8,6.3h1.4v-1h-1.4V6.3z M93.7,5.1v-1h-1.4v1H93.7z M93.9,3v1h1.4V3H93.9z M96.9,1.5h-1.4
			v1.2h1.4V1.5z M93.9,1.3h1.4V0.1h-1.4V1.3z M93.7,1.5h-1.4v1.2h1.4V1.5z M90.8,3v1h1.4V3H90.8z M90.6,5.1v-1h-1.4v1H90.6z
			 M87.6,5.3v1H89v-1H87.6z M87.4,6.5H86v1h1.4V6.5z M85.8,7.7h-1.4v1h1.4V7.7z M84.3,9.8v-1h-1.4v1H84.3z M82.7,10h-1.4v1h1.4V10z
			 M81.1,11.2h-1.4l0,0.8l1.4,0.1L81.1,11.2z M78.2,12.4l1.5,0.1l-0.1-0.3l-1.4,0L78.2,12.4z M78,12.6h-1.5l-0.1,0.2h1.6L78,12.6z
			 M75,12.2l-0.1,0.3l1.5-0.1l0-0.3L75,12.2z M73.4,11.2l0,0.9l1.4-0.1l0-0.8H73.4z M71.8,10v1h1.4v-1H71.8z M70.3,8.8v1h1.4v-1
			H70.3z M70.1,7.7h-1.4v1h1.4V7.7z M68.5,6.5h-1.4v1h1.4V6.5z M66.9,5.3h-1.4v1h1.4V5.3z M64,4.1v1h1.4v-1H64z M62.4,3.9h1.4V3
			h-1.4V3.9z M60.8,1.5v1.2h1.4V1.5H60.8z M60.6,1.3V0.1h-1.4v1.2H60.6z M63.8,1.3V0.1h-1.4v1.2H63.8z M64,1.5v1.2h1.4V1.5H64z
			 M66.9,3h-1.4v1h1.4V3z M67.1,4.1v1h1.4v-1H67.1z M68.7,5.3v1h1.4v-1H68.7z M70.3,6.5v1h1.4v-1H70.3z M71.8,7.7v1h1.4v-1H71.8z
			 M73.4,8.8v1h1.4v-1H73.4z M75,10v1h1.4v-1H75z M78,11.2h-1.4l0,0.8H78L78,11.2z M79.5,11v-1h-1.4v1H79.5z M79.7,8.8v1h1.4v-1
			H79.7z M81.3,7.7v1h1.4v-1H81.3z M84.3,7.5v-1h-1.4v1H84.3z M85.8,6.3v-1h-1.4v1H85.8z M87.4,5.1v-1H86v1H87.4z M87.6,3.9H89V3
			h-1.4V3.9z M89.2,2.8h1.4V1.5h-1.4V2.8z M90.8,0.1v1.2h1.4V0.1H90.8z M87.6,0.1v1.2H89V0.1H87.6z M87.4,2.8V1.5H86v1.2H87.4z
			 M85.8,3h-1.4v1h1.4V3z M84.3,4.1h-1.4v1h1.4V4.1z M81.3,6.3h1.4v-1h-1.4V6.3z M79.7,7.5h1.4v-1h-1.4V7.5z M78.1,8.6h1.4v-1h-1.4
			V8.6z M76.6,9.8H78v-1h-1.4V9.8z M75,8.6h1.4v-1H75V8.6z M73.4,6.5v1h1.4v-1H73.4z M73.2,6.3v-1h-1.4v1H73.2z M70.3,4.1v1h1.4v-1
			H70.3z M68.7,3v1h1.4V3H68.7z M67.1,1.5v1.2h1.4V1.5H67.1z M65.5,1.3h1.4V0.1h-1.4V1.3z M68.7,0.1v1.2h1.4V0.1H68.7z M71.7,2.8
			V1.5h-1.4v1.2H71.7z M71.8,3v1h1.4V3H71.8z M74.8,5.1v-1h-1.4v1H74.8z M76.4,5.3H75v1h1.4V5.3z M76.6,7.5H78v-1h-1.4V7.5z
			 M78.1,6.3h1.4v-1h-1.4V6.3z M79.7,4.1v1h1.4v-1H79.7z M81.3,3v1h1.4V3H81.3z M84.3,1.5h-1.4v1.2h1.4V1.5z M85.8,1.3V0.1h-1.4v1.2
			H85.8z M82.7,0.1h-1.4v1.2h1.4V0.1z M79.7,2.8h1.4V1.5h-1.4V2.8z M79.5,3h-1.4v1h1.4V3z M76.6,4.1v1H78v-1H76.6z M76.4,3.9V3H75v1
			H76.4z M74.8,2.8V1.5h-1.4v1.2H74.8z M71.8,1.3h1.4V0.1h-1.4V1.3z M76.4,1.3V0.1H75v1.2H76.4z M78,1.5h-1.4v1.2H78V1.5z M79.5,0.1
			h-1.4v1.2h1.4V0.1z"/>
	</g>
</g>
<g id="SPIRAL">
</g>
<g id="HATCH">
	<g id="HATCH_16_">
	</g>
	<g id="HATCH_ROOF_BOXES">
		<g>
			
				<rect x="36.7" y="22.6" transform="matrix(0.3927 -0.9197 0.9197 0.3927 0.7594 48.9528)" class="st3" width="1.5" height="2.6"/>
			<rect x="6.7" y="27.8" transform="matrix(0.8216 -0.57 0.57 0.8216 -14.832 9.6886)" class="st3" width="2.6" height="1.5"/>
			
				<rect x="34.4" y="26.5" transform="matrix(0.6048 -0.7964 0.7964 0.6048 -8.2315 39.0033)" class="st3" width="1.5" height="2.6"/>
			<rect x="33" y="28.2" transform="matrix(0.699 -0.7152 0.7152 0.699 -10.9524 32.9869)" class="st3" width="1.5" height="2.6"/>
			
				<rect x="5.6" y="25.9" transform="matrix(0.8972 -0.4417 0.4417 0.8972 -11.0456 5.8011)" class="st3" width="2.6" height="1.5"/>
			<rect x="4.8" y="23.8" transform="matrix(0.953 -0.303 0.303 0.953 -7.1537 3.0045)" class="st3" width="2.6" height="1.5"/>
			
				<rect x="37.5" y="20.5" transform="matrix(0.2743 -0.9616 0.9616 0.2743 6.7823 52.5355)" class="st3" width="1.5" height="2.6"/>
			<rect x="21.6" y="6.9" transform="matrix(0.4007 -0.9162 0.9162 0.4007 6.689 25.5629)" class="st3" width="2.6" height="1.5"/>
			<polygon class="st3" points="29.8,31 31.3,33.2 32.5,32.3 31,30.2 			"/>
			
				<rect x="16.9" y="34.1" transform="matrix(0.1452 -0.9894 0.9894 0.1452 -18.9155 47.7577)" class="st3" width="2.6" height="1.5"/>
			
				<rect x="27.7" y="14.1" transform="matrix(0.9684 -0.2496 0.2496 0.9684 -2.7969 7.7166)" class="st3" width="2.6" height="1.5"/>
			<rect x="12.6" y="22.5" transform="matrix(0.8871 -0.4616 0.4616 0.8871 -9.1516 9.04)" class="st3" width="2.6" height="1.5"/>
			<rect x="23.5" y="8" transform="matrix(0.575 -0.8181 0.8181 0.575 3.3852 23.9735)" class="st3" width="2.6" height="1.5"/>
			
				<rect x="19.4" y="26.7" transform="matrix(1.539897e-02 -0.9999 0.9999 1.539897e-02 -7.0471 47.6925)" class="st3" width="2.6" height="1.5"/>
			<rect x="25.1" y="9.4" transform="matrix(0.7259 -0.6878 0.6878 0.7259 0.2615 20.9402)" class="st3" width="2.6" height="1.5"/>
			
				<rect x="35.7" y="24.6" transform="matrix(0.5027 -0.8645 0.8645 0.5027 -4.2866 44.3854)" class="st3" width="1.5" height="2.6"/>
			<rect x="27.1" y="21.9" transform="matrix(0.5187 -0.855 0.855 0.5187 -6.4798 34.9537)" class="st3" width="1.5" height="2.6"/>
			<rect x="28" y="20" transform="matrix(0.3396 -0.9406 0.9406 0.3396 -1.0389 41.0821)" class="st3" width="1.5" height="2.6"/>
			
				<rect x="17.2" y="6" transform="matrix(1.694494e-02 -0.9999 0.9999 1.694494e-02 11.476 25.1675)" class="st3" width="2.6" height="1.5"/>
			<rect x="15.6" y="5.6" transform="matrix(0.9881 -0.1541 0.1541 0.9881 -0.8679 2.6015)" class="st3" width="1.5" height="2.6"/>
			<rect x="13.5" y="6.1" transform="matrix(0.9477 -0.3192 0.3192 0.9477 -1.6254 4.9242)" class="st3" width="1.5" height="2.6"/>
			
				<rect x="14.7" y="33.6" transform="matrix(0.2906 -0.9569 0.9569 0.2906 -21.4988 39.6831)" class="st3" width="2.6" height="1.5"/>
			
				<rect x="12.6" y="32.8" transform="matrix(0.4299 -0.9029 0.9029 0.4299 -22.3332 31.7025)" class="st3" width="2.6" height="1.5"/>
			
				<rect x="10.7" y="31.7" transform="matrix(0.5586 -0.8294 0.8294 0.5586 -21.6021 24.2728)" class="st3" width="2.6" height="1.5"/>
			<polygon class="st3" points="27.9,32.1 29.1,34.3 29.2,34.4 30.5,33.7 29.2,31.4 			"/>
			
				<rect x="26.4" y="32.5" transform="matrix(0.9345 -0.356 0.356 0.9345 -10.2543 11.8781)" class="st3" width="1.5" height="2.6"/>
			<rect x="24.3" y="33.2" transform="matrix(0.9713 -0.2378 0.2378 0.9713 -7.482 6.9339)" class="st3" width="1.5" height="2.6"/>
			<rect x="22" y="33.6" transform="matrix(0.9932 -0.1164 0.1164 0.9932 -3.905 2.8883)" class="st3" width="1.5" height="2.6"/>
			
				<rect x="13.8" y="24.2" transform="matrix(0.7348 -0.6783 0.6783 0.7348 -12.9032 16.8518)" class="st3" width="2.6" height="1.5"/>
			
				<rect x="15.4" y="25.5" transform="matrix(0.5277 -0.8494 0.8494 0.5277 -14.4092 26.5844)" class="st3" width="2.6" height="1.5"/>
			<rect x="22" y="25.9" transform="matrix(0.9685 -0.249 0.249 0.9685 -6.0502 6.521)" class="st3" width="1.5" height="2.6"/>
			<rect x="11.5" y="7" transform="matrix(0.8799 -0.4751 0.4751 0.8799 -2.478 6.7902)" class="st3" width="1.5" height="2.6"/>
			<rect x="8" y="9.7" transform="matrix(0.6694 -0.7429 0.7429 0.6694 -5.2828 10.1401)" class="st3" width="1.5" height="2.6"/>
			<rect x="6.7" y="11.4" transform="matrix(0.533 -0.8461 0.8461 0.533 -7.3275 12.242)" class="st3" width="1.5" height="2.6"/>
			
				<rect x="5.7" y="13.4" transform="matrix(0.3818 -0.9243 0.9243 0.3818 -9.6295 15.0255)" class="st3" width="1.5" height="2.6"/>
			<polygon class="st3" points="24.7,24.9 23.4,25.6 24.6,27.8 24.7,27.9 26,27.2 24.7,25 			"/>
			<rect x="4.3" y="21.7" transform="matrix(0.9873 -0.1586 0.1586 0.9873 -3.4816 1.1705)" class="st3" width="2.6" height="1.5"/>
			<rect x="5" y="15.5" transform="matrix(0.2192 -0.9757 0.9757 0.2192 -11.905 18.738)" class="st3" width="1.5" height="2.6"/>
			
				<rect x="28.5" y="17.9" transform="matrix(0.1464 -0.9892 0.9892 0.1464 6.0001 45.3225)" class="st3" width="1.5" height="2.6"/>
			
				<rect x="28" y="16.3" transform="matrix(0.9986 -5.263681e-02 5.263681e-02 0.9986 -0.8554 1.5692)" class="st3" width="2.6" height="1.5"/>
		</g>
	</g>
</g>
</svg>
