<?xml version="1.0" encoding="UTF-8"?>
<svg xmlns="http://www.w3.org/2000/svg" version="1.1" viewBox="0 0 150 150">
  <!-- Generator: Adobe Illustrator 29.6.1, SVG Export Plug-In . SVG Version: 2.1.1 Build 9)  -->
  <defs>
    <style>
      .st0 {
        fill: #fff;
      }
    </style>
  </defs>
  <g id="background">
    <rect width="150" height="150"/>
  </g>
  <g id="ICON">
    <path class="st0" d="M51.6,89.8l-.4-1.4,1.7-1.8,4.8-1.2-1.1,2.5,1.2,1.3,1.6,4.1-3,.6-4.8-4.2ZM56.5,72.2l6.6,3.5.5,2.1-3.1,4.1-6.5,1.8-4,3-3.4.2-2.3,1.1-4.1-.7-1.3-3.3-3.7-1.5.2-3.3-1.8,3.3-4.7.6-5.9,1.1-5.3-2.3h-3.4c0,.1-3.1,1.7-3.1,1.7l-8,.9,6.3-.2,10.1,2.1h2.4c0,0,1.9.7,1.9.7l5.8.2,3.1-1.5,1.7.7,2.4,2.3,2,1.1,3.1,1.2-1.9,2,.8,2.3.7,3.5-2.4,2.7-1.3,1.6,1.3,2.4-.7,2.9,5.4,4.7,3.4,1.3,2.3-.9,4,1.7-4.6-2.6-1.9.8-7.4-4.8.4-3.3-1-2.2,4.1-4.8-.7-2.1-.7-.7,1.1-4.5,4.4-.2,3.6-.5,3.3,2.6,3.1,3.4,5,.6,4.1,2,3.7,3.9,2,.3,2.2,1.2,1.9,2.9,4.8,1.2,2,2.1,3.2,2.2,3.6,1.2,5.4-1,4,1.2-4.7-2.1-4.9,1.2-6.4-3.1-2.1-2.7-3.2-1.7-1.2-1.8-2.3-.6-3.2-1.4-4.6-3.9-4.8-2.2-3.3-.5,1.9-1.5-.4-3.4-1.7-2.8v-2.3c.1,0,3.7-2.4,3.7-2.4l3.1-1.6-.5-1,10.4-2.5,5.3.9,2.2-2.2,2.1-1.1-.2-2,3.5-1.2,3.3.9,2.1,1.6,2-.6,2.4,1.5,4.3,1.8,4.8,2.5,5.2,3.2,1.9,4,6.4,4.1,3.9-1,1.7-2.4h2.9c0,.1,14.8,3.6,14.8,3.6l-12.9-3.7-4.2-2.6-5.4,1.8-6-1.3-3.7-4-8.8-4.9-7.5-7.7-.7-6.3,2.7-6.1,5.7-.7,4.7,2,3.6-1.2h14c0,0,5.3-4.3,5.3-4.3l16.4-2-15.6.4-7.4,3.8-9.1.7-.5-2.4,12.3-12.6,4.2-4.8,12.4-.4-14.4-1-3.7,4.6-7.3,5.6-3.7.5-.6,3.7-1.9,5-4.9,1.6-9.5-.4-2.7-2.2-2.6-4.6.8-4.1,5.7-3.2,2.9-2.8,5.8-1.6,1.9-5.8-3.6,4.6-6.3,2.2-2.3,2.1-5.6,2.8-1.8,4-7.1,2.6-4.9,1.7-1.2,4.6-3.8,1.5-6,5.5,6.2-3.6,4.7-2,1.7-4.7,4.7-2.5,5.6-2.2,1.8-1.4.7,4.8,3.5,4.1-1.2,3.1-2.2,3.8,1.2,2.7-1.8,3.8-4.6,3.2-5.3,2.6-6.5.6-9.3,2.3-3.5-3.6-9.9-3.4-5.4-1.5-10.1,3.5-3,2.8-2.2.9-8.5.9h7.9s3.1-1.1,3.1-1.1l3.9-2.7,8.5-2.7,5.1,1.5,5.1.8Z"/>
  </g>
</svg>