<?xml version="1.0" encoding="utf-8"?>
<!-- Generator: Adobe Illustrator 26.4.1, SVG Export Plug-In . SVG Version: 6.00 Build 0)  -->
<svg version="1.1" xmlns="http://www.w3.org/2000/svg" xmlns:xlink="http://www.w3.org/1999/xlink" x="0px" y="0px"
	 viewBox="0 0 188.8 188.8" style="enable-background:new 0 0 188.8 188.8;" xml:space="preserve">
<style type="text/css">
	.st0{fill:#FFFFFF;}
</style>
<g id="Layer_1">
	<g id="Layer_1_00000181086609520651811960000017092596182289659829_">
		<g id="Layer_1_00000031926790540154141290000006272209971105142423_">
		</g>
		<g id="ANIMATION">
		</g>
		<g id="FILL">
		</g>
		<g id="THIN">
		</g>
	</g>
</g>
<g id="Icons">
	<path class="st0" d="M102.8,156.2H56.3c-3,0-5.5-2.5-5.5-5.5V75.1c0,0,0,0,0,0V36.1c0-3,2.5-5.5,5.5-5.5h3.2
		c22.6,0,41.4,17,44.1,39c23.5,0.5,42.5,19.8,42.5,43.3C146.1,136.8,126.7,156.2,102.8,156.2z M61.8,145.2h41
		c17.8,0,32.3-14.5,32.3-32.3c0-17.6-14.3-32.1-31.9-32.3l-4.5,0c-0.2,0-0.3,0-0.5,0l-36.4,0V145.2z M61.8,69.6l30.7,0
		C90,54.5,77.3,42.8,61.8,41.7V69.6z"/>
</g>
</svg>
