<?xml version="1.0" encoding="utf-8"?>
<!-- Generator: Adobe Illustrator 26.4.1, SVG Export Plug-In . SVG Version: 6.00 Build 0)  -->
<svg version="1.1" xmlns="http://www.w3.org/2000/svg" xmlns:xlink="http://www.w3.org/1999/xlink" x="0px" y="0px"
	 viewBox="0 0 188.8 188.8" style="enable-background:new 0 0 188.8 188.8;" xml:space="preserve">
<style type="text/css">
	.st0{fill:#FFFFFF;}
</style>
<g id="Layer_1">
	<g id="Layer_1_00000031926790540154141290000006272209971105142423_">
	</g>
	<g id="ANIMATION">
	</g>
	<g id="FILL">
	</g>
	<g id="THIN">
	</g>
</g>
<g id="Icons">
	<path class="st0" d="M153.5,77c0.1-0.2,0.1-0.5,0-0.8c-0.2-0.6-0.7-1-1.3-1.1c-1.6-0.2-3.1-0.3-4.7-0.3c-3.8,0-7.5,0.7-11,1.8
		c-1,0.3-2-0.2-2.4-1.2l-0.2-0.6l-7.1-20l-0.6,0.2l-1.6-4.5l9.1-2.8c0.6-0.2,1.1-0.6,1.2-1.2c0.2-0.9-0.3-1.7-1.1-2l-9.9-3.4
		c-0.9-0.3-2,0.2-2.2,1.2c-0.2,0.9,0.3,1.7,1.2,2l4.9,1.7l-5.8,1.8c-0.4,0.1-0.8,0.4-1,0.9c-0.2,0.4-0.2,0.9-0.1,1.3l2.2,6.1
		l-0.5,0.2l0.3,0.8c0.2,0.5-0.1,1-0.6,1.2L74.9,68.6c-0.7,0.1-1.3-0.2-1.5-0.9l-0.5-1.4c-0.1-0.3-0.4-0.5-0.7-0.4l0,0c0,0,0,0,0,0
		c0-0.1-3.1-9.4-4.6-14.1c-1-3.1-2.8-4.8-4.2-5.7l0.1,0l12.9-1.6c0.8-0.1,1.5-0.8,1.6-1.6c0-1-0.7-1.8-1.7-1.8l-26.5-0.3h0
		c-0.5,0-1,0.2-1.3,0.6c-0.7,0.9-0.5,2.1,0.4,2.6l7.7,4.7c0.3,0.2,0.6,0.2,0.9,0.2c0.3,0,0.5-0.1,0.8-0.2l1.4-0.7
		c0.2,0.1,0.4,0.3,0.6,0.3c0,0,2.9,0.8,4.1,4.6c1.5,4.7,4.5,13.9,4.6,14.2c-0.3,0.1-0.5,0.4-0.4,0.7l0.8,2.4
		c0.2,0.6,0.1,1.2-0.3,1.6l-6.5,7.6c-0.8,0.9-2.1,1.1-3.1,0.5c-5.1-3.1-11.1-4.9-17.5-4.9c-13.5,0-25.6,8-30.9,20.5
		c-0.3,0.7,0,1.6,0.8,1.9c0.1,0,0.1,0,0.2,0.1c-1.4,3.9-2.2,8.2-1.9,12.7c0.8,16.4,14.2,29.6,30.7,30.2
		c16.1,0.6,29.8-10.9,32.5-26.2l3.1,0.2c0.7,4.4,4.5,7.7,9.1,7.7c4,0,7.4-2.6,8.7-6.1l9.6,0.9c0.1,0,0.1,0,0.2,0c1,0,1.9-0.8,2-1.8
		c0.1-1.1-0.7-2.1-1.8-2.2l-9.5-0.9c-0.1-1.4-0.6-2.6-1.2-3.8l34.3-32.5c0.6-0.5,1.5-0.3,1.8,0.4l0.1,0.3l0.5,1.3
		c0.3,0.9,0,2-0.9,2.5c-9.2,6-15.3,16.3-15.3,28c0,0.7,0.4,1.3,1.1,1.5c0.2,0.1,0.4,0.1,0.6,0c0.7,17.3,15.4,31.1,33,30.5
		c16.9-0.6,30.5-14.6,30.7-31.5C179.5,93,168.3,79.8,153.5,77z M66.2,82l4.2-4.9c0.4-0.5,1.2-0.3,1.3,0.3l8.8,27.6
		c-1.7,1.1-3,2.8-3.7,4.7l-3-0.2c0-0.4,0-0.8,0-1.2c0-0.1,0-0.2,0-0.3c0,0,0.1,0,0.1,0c0,0,0,0,0.1,0c0.8,0,1.4-0.7,1.3-1.5
		c-0.4-8.3-3.8-15.7-9.1-21.3C65.4,84.3,65.4,82.9,66.2,82z M39.1,111.3L39.1,111.3c1,0.9,2.4,0.9,3.5,0.3l24.8,2
		c-2.4,12-13,21-25.7,21c-14.4,0-26.2-11.8-26.2-26.2c0-14.4,11.8-26.2,26.2-26.2c4.7,0,9.2,1.3,13,3.5l-16,21.8
		C37.8,108.6,38,110.3,39.1,111.3z M46.6,107.3l14.9-16.2c4,4.6,6.4,10.6,6.4,17.1c0,0.2,0,0.5,0,0.7L46.6,107.3z M125.3,71.7
		l-35,33.1c-1.4-0.8-3-1.3-4.8-1.3c-0.2,0-0.5,0-0.7,0l-6.7-21c-0.3-0.9,0.3-1.9,1.2-2.1l45.3-9.9C125.3,70.3,125.8,71.2,125.3,71.7
		z M147.5,134.5c-14.4,0-26.2-11.8-26.2-26.2c0-8.9,4.4-16.7,11.2-21.5l13,23.2c0.7,1.3,2.4,1.8,3.7,1.1c1.4-0.7,1.9-2.3,1.3-3.7
		l-10.6-24.3c2.4-0.7,4.9-1.1,7.5-1.1c14.4,0,26.2,11.8,26.2,26.2C173.7,122.7,161.9,134.5,147.5,134.5z"/>
</g>
</svg>
