<?xml version="1.0" encoding="utf-8"?>
<!-- Generator: Adobe Illustrator 26.4.1, SVG Export Plug-In . SVG Version: 6.00 Build 0)  -->
<svg version="1.1" xmlns="http://www.w3.org/2000/svg" xmlns:xlink="http://www.w3.org/1999/xlink" x="0px" y="0px"
	 viewBox="0 0 188.8 188.8" style="enable-background:new 0 0 188.8 188.8;" xml:space="preserve">
<style type="text/css">
	.st0{fill:#FFFFFF;}
</style>
<g id="Layer_1">
	<g id="Layer_1_00000031926790540154141290000006272209971105142423_">
	</g>
	<g id="ANIMATION">
	</g>
	<g id="FILL">
	</g>
	<g id="THIN">
	</g>
</g>
<g id="Icons">
	<path class="st0" d="M100,0v38.3c-0.4,0-0.8,0-1.2,0c-0.5,0-1,0-1.5,0c-0.5,0-1,0-1.5,0c-0.4,0-0.8,0-1.1,0V0H100z"/>
	<path class="st0" d="M78.4,85.8c2.1-12.2,4.2-24.7,5.2-30.7c2-11.6,6.3-13.6,11-13.9c0.4,0,0.8,0,1.1,0c0.5,0,1,0,1.5,0
		c0.5,0,1,0,1.5,0c0.4,0,0.8,0,1.2,0c4.8,0.2,9.1,2.3,11,13.9c1,6,3.1,18.5,5.2,30.7H78.4z"/>
	<path class="st0" d="M130.6,119.5c0,18.3-14.8,33.2-33.1,33.3h-0.2c-18.1,0-33-14.7-33.3-32.8c-0.1-9.3,3.6-17.7,9.6-23.8
		c2-2,3.4-4.6,4.2-7.3h39c0.7,2.8,2.1,5.3,4.2,7.3C126.9,102.1,130.6,110.4,130.6,119.5z"/>
</g>
</svg>
