<?xml version="1.0" encoding="utf-8"?>
<!-- Generator: Adobe Illustrator 26.4.1, SVG Export Plug-In . SVG Version: 6.00 Build 0)  -->
<svg version="1.1" xmlns="http://www.w3.org/2000/svg" xmlns:xlink="http://www.w3.org/1999/xlink" x="0px" y="0px"
	 viewBox="0 0 188.8 188.8" style="enable-background:new 0 0 188.8 188.8;" xml:space="preserve">
<style type="text/css">
	
		.st0{clip-path:url(#SVGID_00000114757880695242990690000017854397067325710011_);fill:url(#SVGID_00000127731106744825801640000007722959189838985406_);}
	.st1{fill:#FFFFFF;}
</style>
<g id="Layer_1">
	<g id="Layer_1_00000031926790540154141290000006272209971105142423_">
	</g>
	<g id="ANIMATION">
	</g>
	<g id="FILL">
	</g>
	<g id="THIN">
	</g>
</g>
<g id="Icons">
	<g>
		<defs>
			<path id="SVGID_1_" d="M72.2,34c-5.7,3.6-11,10-11,21v82.5c0,0.4,0,0.8,0,1.2c0.4,11.7,10.3,20.9,22,21h19.5
				c11.7-0.1,21.6-9.3,22-21c0-0.4,0-0.8,0-1.2V55c0-11-5.2-17.4-10.9-21c-5.7-3.6-12.6-4.9-20.8-4.9C84.8,29.1,77.9,30.5,72.2,34"
				/>
		</defs>
		<clipPath id="SVGID_00000025414050896606054840000016972716506892485552_">
			<use xlink:href="#SVGID_1_"  style="overflow:visible;"/>
		</clipPath>
		
			<linearGradient id="SVGID_00000000203917266256681850000004937505510203007622_" gradientUnits="userSpaceOnUse" x1="-1711.8842" y1="1027.4465" x2="-1710.8842" y2="1027.4465" gradientTransform="matrix(0 219.063 219.063 0 -224982.4844 375067.6562)">
			<stop  offset="0" style="stop-color:#FFFFFF"/>
			<stop  offset="2.807420e-02" style="stop-color:#EFEFEF"/>
			<stop  offset="0.1231" style="stop-color:#C0BFBF"/>
			<stop  offset="0.2235" style="stop-color:#969494"/>
			<stop  offset="0.3275" style="stop-color:#727070"/>
			<stop  offset="0.4361" style="stop-color:#555253"/>
			<stop  offset="0.5509" style="stop-color:#3F3C3D"/>
			<stop  offset="0.6746" style="stop-color:#2F2C2C"/>
			<stop  offset="0.8136" style="stop-color:#262223"/>
			<stop  offset="1" style="stop-color:#231F20"/>
		</linearGradient>
		
			<rect x="61.2" y="29.1" style="clip-path:url(#SVGID_00000025414050896606054840000016972716506892485552_);fill:url(#SVGID_00000000203917266256681850000004937505510203007622_);" width="63.6" height="130.6"/>
	</g>
	<rect x="91" y="0.2" class="st1" width="4" height="33.9"/>
</g>
</svg>
