<?xml version="1.0" encoding="utf-8"?>
<!-- Generator: Adobe Illustrator 26.4.1, SVG Export Plug-In . SVG Version: 6.00 Build 0)  -->
<svg version="1.1" xmlns="http://www.w3.org/2000/svg" xmlns:xlink="http://www.w3.org/1999/xlink" x="0px" y="0px"
	 viewBox="0 0 188.8 188.8" style="enable-background:new 0 0 188.8 188.8;" xml:space="preserve">
<style type="text/css">
	.st0{fill:#FFFFFF;}
</style>
<g id="Layer_1">
	<g id="Layer_1_00000181086609520651811960000017092596182289659829_">
		<g id="Layer_1_00000031926790540154141290000006272209971105142423_">
		</g>
		<g id="ANIMATION">
		</g>
		<g id="FILL">
		</g>
		<g id="THIN">
		</g>
	</g>
</g>
<g id="Icons">
	<g>
		<path class="st0" d="M188.8,154.9v2.5h-10.1c-0.6,0-1.2,0-1.7,0c-0.5,0-1,0-1.6,0c-5.1,0-10-0.6-13.8-7.8c-3.8-7-7.8-6.9-8-6.9
			l-0.1-1.1v5.9c-1.8,5.8-8.9,8.6-13.9,8.6c-5,0-50.7,0-50.7,0s-17.5,1.6-17.5-19.3S89,117.6,89,117.6s45.7,0,50.7,0
			c5,0,12.1,2.9,13.9,8.6v14c0.8,0,6,0.1,10.3,8.2c3.5,6.6,7.4,6.6,13.2,6.5c0.6,0,1.1,0,1.7,0H188.8z"/>
		<path class="st0" d="M59,135.2c-4-7.4-2.1-20.1-1.5-23.6L61,112c5.9-1,9.6-7.8,10.2-12.7c0.6-4.9,6.2-50.3,6.2-50.3
			s3.7-17.2-17-19.8c-20.7-2.6-21.3,15-21.3,15S33.6,89.6,33,94.5c-0.6,4.9,1.3,12.4,6.9,14.8l7.5,0.9l-6,48.3h6.3l5.9-47.5l1.5,0.2
			c-0.7,3.9-2.6,17.1,1.8,25.1c4.1,7.6,11.2,17.5,13.5,20.7c0.4,0.6,1.2,0.7,1.8,0.3c0.6-0.4,0.7-1.2,0.3-1.7
			C70,152.5,63,142.6,59,135.2z"/>
	</g>
</g>
</svg>
