<?xml version="1.0" encoding="utf-8"?>
<!-- Generator: Adobe Illustrator 26.4.1, SVG Export Plug-In . SVG Version: 6.00 Build 0)  -->
<svg version="1.1" xmlns="http://www.w3.org/2000/svg" xmlns:xlink="http://www.w3.org/1999/xlink" x="0px" y="0px"
	 viewBox="0 0 188.8 188.8" style="enable-background:new 0 0 188.8 188.8;" xml:space="preserve">
<style type="text/css">
	.st0{fill:#FFFFFF;}
</style>
<g id="Layer_1">
	<g id="Layer_1_00000031926790540154141290000006272209971105142423_">
	</g>
	<g id="ANIMATION">
	</g>
	<g id="FILL">
	</g>
	<g id="THIN">
	</g>
</g>
<g id="Icons">
	<path class="st0" d="M188.8,40.5V29.3H0v11.1h53.1v2.7h1.6v60.7h-4.3c0,0-7.3,1.3-7.3,13s0,28.7,0,32.7c0,4,0.3,7.9,4.5,11.8h8.8
		h8.8c4.2-3.9,4.5-7.8,4.5-11.8c0-4,0-21,0-32.7s-7.3-13-7.3-13h-4.3V43.1h1.6v-2.7h63.5V48c-0.8,0.4-1.6,0.7-1.6,0.7
		s-4.4,3.1-0.9,10.8s8.8,18.9,10,21.5c1.2,2.6,2.6,5.1,6.6,6.4l5.8-2.7l5.8-2.7c1.5-3.9,0.6-6.5-0.7-9.2c-1.2-2.6-6.4-13.8-10-21.5
		c-3.6-7.7-8.8-6.3-8.8-6.3l-1.5,0.7v-5.3H188.8z"/>
</g>
</svg>
