<?xml version="1.0" encoding="UTF-8"?><svg id="Icons" xmlns="http://www.w3.org/2000/svg" xmlns:xlink="http://www.w3.org/1999/xlink" viewBox="0 0 188.85 188.85"><defs><style>.cls-1,.cls-2,.cls-3,.cls-4,.cls-5,.cls-6,.cls-7,.cls-8{fill:#fff;}.cls-2{opacity:.94;}.cls-3{opacity:.98;}.cls-4{opacity:.72;}.cls-5{opacity:.33;}.cls-9{clip-path:url(#clippath);}.cls-10{fill:none;}.cls-6{opacity:.15;}.cls-7{opacity:.58;}.cls-8{opacity:.85;}</style><clipPath id="clippath"><rect class="cls-10" x="2939.28" y="-254.53" width="188.85" height="188.85"/></clipPath></defs><g class="cls-9"><rect x="-54.15" y="-334.83" width="3322.56" height="889.82"/></g><g><path class="cls-3" d="M23.76,144.53c-.06,0-.11,0-.17,0h-.92c-.06,0-.11,0-.17,0C22.24,156.77,12.28,166.62,0,166.71c.3,12.27,10.33,22.12,22.67,22.12h.92c12.34,0,22.37-9.85,22.67-22.12-12.28-.09-22.24-9.94-22.5-22.18Z"/><path class="cls-3" d="M71.28,144.53c-.06,0-.11,0-.17,0h-.92c-.06,0-.11,0-.17,0-.26,12.24-10.22,22.09-22.5,22.18,.3,12.27,10.33,22.12,22.67,22.12h.92c12.34,0,22.37-9.85,22.67-22.12-12.28-.09-22.24-9.94-22.5-22.18Z"/><path class="cls-3" d="M118.8,144.53c-.06,0-.11,0-.17,0h-.92c-.06,0-.11,0-.17,0-.26,12.24-10.22,22.09-22.5,22.18,.3,12.27,10.33,22.12,22.67,22.12h.92c12.34,0,22.37-9.85,22.67-22.12-12.28-.09-22.24-9.94-22.5-22.18Z"/><path class="cls-3" d="M166.32,144.53c-.06,0-.11,0-.17,0h-.92c-.06,0-.11,0-.17,0-.26,12.24-10.22,22.09-22.5,22.18,.3,12.27,10.33,22.12,22.67,22.12h.92c12.34,0,22.37-9.85,22.67-22.12-12.28-.09-22.24-9.94-22.5-22.18Z"/><path class="cls-2" d="M0,122.34s0,0-.01,0v44.3c12.29-.08,22.25-9.94,22.52-22.18C10.24,144.37,.3,134.55,0,122.34Z"/><path class="cls-2" d="M47.52,122.34c-.06,0-.11,0-.17,0h-.92c-.06,0-.11,0-.17,0-.3,12.21-10.24,22.03-22.5,22.12,.27,12.3,10.31,22.19,22.67,22.19h.92c12.36,0,22.41-9.89,22.67-22.19-12.26-.09-22.2-9.91-22.5-22.12Z"/><path class="cls-2" d="M95.04,122.34c-.06,0-.11,0-.17,0h-.92c-.06,0-.11,0-.17,0-.3,12.21-10.24,22.03-22.5,22.12,.27,12.3,10.31,22.19,22.67,22.19h.92c12.36,0,22.41-9.89,22.67-22.19-12.26-.09-22.2-9.91-22.5-22.12Z"/><path class="cls-2" d="M142.56,122.34c-.06,0-.11,0-.17,0h-.92c-.06,0-.11,0-.17,0-.3,12.21-10.24,22.03-22.5,22.12,.27,12.3,10.31,22.19,22.67,22.19h.92c12.36,0,22.41-9.89,22.67-22.19-12.26-.09-22.2-9.91-22.5-22.12Z"/><path class="cls-2" d="M166.32,144.46c.26,12.25,10.23,22.1,22.52,22.18v-44.3s0,0-.01,0c-.3,12.21-10.24,22.03-22.5,22.12Z"/><path class="cls-8" d="M23.76,100.22c-.06,0-.11,0-.17,0h-.92c-.06,0-.11,0-.17,0C22.24,112.46,12.28,122.31,0,122.4c.3,12.27,10.33,22.12,22.67,22.12h.92c12.34,0,22.37-9.85,22.67-22.12-12.28-.09-22.24-9.94-22.5-22.18Z"/><path class="cls-8" d="M71.28,100.22c-.06,0-.11,0-.17,0h-.92c-.06,0-.11,0-.17,0-.26,12.24-10.22,22.09-22.5,22.18,.3,12.27,10.33,22.12,22.67,22.12h.92c12.34,0,22.37-9.85,22.67-22.12-12.28-.09-22.24-9.94-22.5-22.18Z"/><path class="cls-8" d="M118.8,100.22c-.06,0-.11,0-.17,0h-.92c-.06,0-.11,0-.17,0-.26,12.24-10.22,22.09-22.5,22.18,.3,12.27,10.33,22.12,22.67,22.12h.92c12.34,0,22.37-9.85,22.67-22.12-12.28-.09-22.24-9.94-22.5-22.18Z"/><path class="cls-8" d="M166.32,100.22c-.06,0-.11,0-.17,0h-.92c-.06,0-.11,0-.17,0-.26,12.24-10.22,22.09-22.5,22.18,.3,12.27,10.33,22.12,22.67,22.12h.92c12.34,0,22.37-9.85,22.67-22.12-12.28-.09-22.24-9.94-22.5-22.18Z"/><path class="cls-4" d="M0,78.07s0,0-.01,0v44.3c12.29-.08,22.25-9.94,22.52-22.18C10.24,100.1,.3,90.28,0,78.07Z"/><path class="cls-4" d="M47.52,78.07c-.06,0-.11,0-.17,0h-.92c-.06,0-.11,0-.17,0-.3,12.21-10.24,22.03-22.5,22.12,.27,12.3,10.31,22.19,22.67,22.19h.92c12.36,0,22.41-9.89,22.67-22.19-12.26-.09-22.2-9.91-22.5-22.12Z"/><path class="cls-4" d="M95.04,78.07c-.06,0-.11,0-.17,0h-.92c-.06,0-.11,0-.17,0-.3,12.21-10.24,22.03-22.5,22.12,.27,12.3,10.31,22.19,22.67,22.19h.92c12.36,0,22.41-9.89,22.67-22.19-12.26-.09-22.2-9.91-22.5-22.12Z"/><path class="cls-4" d="M142.56,78.07c-.06,0-.11,0-.17,0h-.92c-.06,0-.11,0-.17,0-.3,12.21-10.24,22.03-22.5,22.12,.27,12.3,10.31,22.19,22.67,22.19h.92c12.36,0,22.41-9.89,22.67-22.19-12.26-.09-22.2-9.91-22.5-22.12Z"/><path class="cls-4" d="M166.32,100.19c.26,12.25,10.23,22.1,22.52,22.18v-44.3s0,0-.01,0c-.3,12.21-10.24,22.03-22.5,22.12Z"/><path class="cls-7" d="M23.76,55.9c-.06,0-.11,0-.17,0h-.92c-.06,0-.11,0-.17,0C22.24,68.15,12.28,78,0,78.09c.3,12.27,10.33,22.12,22.67,22.12h.92c12.34,0,22.37-9.85,22.67-22.12-12.28-.09-22.24-9.94-22.5-22.18Z"/><path class="cls-7" d="M71.28,55.9c-.06,0-.11,0-.17,0h-.92c-.06,0-.11,0-.17,0-.26,12.24-10.22,22.09-22.5,22.18,.3,12.27,10.33,22.12,22.67,22.12h.92c12.34,0,22.37-9.85,22.67-22.12-12.28-.09-22.24-9.94-22.5-22.18Z"/><path class="cls-7" d="M118.8,55.9c-.06,0-.11,0-.17,0h-.92c-.06,0-.11,0-.17,0-.26,12.24-10.22,22.09-22.5,22.18,.3,12.27,10.33,22.12,22.67,22.12h.92c12.34,0,22.37-9.85,22.67-22.12-12.28-.09-22.24-9.94-22.5-22.18Z"/><path class="cls-7" d="M166.32,55.9c-.06,0-.11,0-.17,0h-.92c-.06,0-.11,0-.17,0-.26,12.24-10.22,22.09-22.5,22.18,.3,12.27,10.33,22.12,22.67,22.12h.92c12.34,0,22.37-9.85,22.67-22.12-12.28-.09-22.24-9.94-22.5-22.18Z"/><path class="cls-5" d="M0,33.75s0,0-.01,0v44.3c12.29-.08,22.25-9.94,22.52-22.18C10.24,55.78,.3,45.96,0,33.75Z"/><path class="cls-5" d="M47.52,33.75c-.06,0-.11,0-.17,0h-.92c-.06,0-.11,0-.17,0-.3,12.21-10.24,22.03-22.5,22.12,.27,12.3,10.31,22.19,22.67,22.19h.92c12.36,0,22.41-9.89,22.67-22.19-12.26-.09-22.2-9.91-22.5-22.12Z"/><path class="cls-5" d="M95.04,33.75c-.06,0-.11,0-.17,0h-.92c-.06,0-.11,0-.17,0-.3,12.21-10.24,22.03-22.5,22.12,.27,12.3,10.31,22.19,22.67,22.19h.92c12.36,0,22.41-9.89,22.67-22.19-12.26-.09-22.2-9.91-22.5-22.12Z"/><path class="cls-5" d="M142.56,33.75c-.06,0-.11,0-.17,0h-.92c-.06,0-.11,0-.17,0-.3,12.21-10.24,22.03-22.5,22.12,.27,12.3,10.31,22.19,22.67,22.19h.92c12.36,0,22.41-9.89,22.67-22.19-12.26-.09-22.2-9.91-22.5-22.12Z"/><path class="cls-5" d="M166.32,55.87c.26,12.25,10.23,22.1,22.52,22.18V33.75s0,0-.01,0c-.3,12.21-10.24,22.03-22.5,22.12Z"/><path class="cls-6" d="M23.75,11.15V.02h-1.23V11.15C22.52,23.62,12.45,33.74,0,33.83c.3,12.27,10.33,22.12,22.67,22.12h.92c12.34,0,22.37-9.85,22.67-22.12-12.45-.09-22.52-10.21-22.52-22.68Z"/><path class="cls-6" d="M71.26,11.15V.02h-1.23V11.15c0,12.47-10.07,22.59-22.52,22.68,.3,12.27,10.33,22.12,22.67,22.12h.92c12.34,0,22.37-9.85,22.67-22.12-12.45-.09-22.52-10.21-22.52-22.68Z"/><path class="cls-6" d="M118.78,11.15V.02h-1.23V11.15c0,12.47-10.07,22.59-22.52,22.68,.3,12.27,10.33,22.12,22.67,22.12h.92c12.34,0,22.37-9.85,22.67-22.12-12.45-.09-22.52-10.21-22.52-22.68Z"/><path class="cls-6" d="M166.3,11.15V.02h-1.23V11.15c0,12.47-10.07,22.59-22.52,22.68,.3,12.27,10.33,22.12,22.67,22.12h.92c12.34,0,22.37-9.85,22.67-22.12-12.45-.09-22.52-10.21-22.52-22.68Z"/><g><path class="cls-1" d="M-.02,166.71s0,0-.01,0v22.12H22.65C10.31,188.83,.28,178.98-.02,166.71Z"/><path class="cls-1" d="M47.5,166.71c-.06,0-.11,0-.17,0h-.92c-.06,0-.11,0-.17,0-.3,12.27-10.33,22.12-22.67,22.12h46.6c-12.34,0-22.37-9.85-22.67-22.12Z"/><path class="cls-1" d="M142.54,166.71c-.06,0-.11,0-.17,0h-.92c-.06,0-.11,0-.17,0-.3,12.27-10.33,22.12-22.67,22.12h46.6c-12.34,0-22.37-9.85-22.67-22.12Z"/><path class="cls-1" d="M95.02,166.71c-.06,0-.11,0-.17,0h-.92c-.06,0-.11,0-.17,0-.3,12.27-10.33,22.12-22.67,22.12h46.6c-12.34,0-22.37-9.85-22.67-22.12Z"/><path class="cls-1" d="M188.8,166.71c-.3,12.27-10.33,22.12-22.67,22.12h22.72v-22.12s-.03,0-.05,0Z"/></g></g></svg>