<?xml version="1.0" encoding="UTF-8"?><svg id="Icons" xmlns="http://www.w3.org/2000/svg" xmlns:xlink="http://www.w3.org/1999/xlink" viewBox="0 0 188.85 188.85"><defs><style>.cls-1{stroke:#fff;stroke-miterlimit:10;stroke-width:2px;}.cls-1,.cls-2{fill:none;}.cls-3{clip-path:url(#clippath);}</style><clipPath id="clippath"><rect class="cls-2" x="2941.77" y="-761.9" width="188.85" height="188.85"/></clipPath></defs><g class="cls-3"><rect x="-51.66" y="-842.19" width="3322.56" height="889.82"/></g><path class="cls-1" d="M91.9,168.01v8.03c-17.44-1.26-31.29-15.47-31.97-33.07h8.01c.63,12.58,10.04,22.85,22.22,24.82,.57,.09,1.15,.17,1.74,.22Z"/><path class="cls-1" d="M96.95,176.04v-8.03c.73-.07,1.46-.17,2.17-.3,11.97-2.14,21.16-12.31,21.79-24.74h8.01c-.68,17.6-14.53,31.81-31.97,33.07Z"/><path class="cls-1" d="M96.95,168.01v8.03c-.37,.03-.74,.05-1.11,.07-.47,.02-.94,.04-1.41,.04s-.94-.02-1.41-.04c-.37-.01-.74-.04-1.11-.07v-8.03c.83,.08,1.67,.12,2.52,.12s1.69-.04,2.52-.12Z"/><path class="cls-1" d="M95.84,188.85v-12.74c-.47,.02-.94,.04-1.41,.04s-.94-.02-1.41-.04v12.74"/><path class="cls-1" d="M96.95,168.01c-.83,.08-1.67,.12-2.52,.12s-1.69-.04-2.52-.12c-.59-.06-1.17-.13-1.74-.22v-12.74c0-2.47,2.01-4.48,4.48-4.48s4.48,2.01,4.48,4.48v12.66c-.72,.13-1.44,.23-2.17,.3Z"/><path class="cls-1" d="M120.91,142.98c.02-.45,.03-.9,.03-1.36,0-14.65-11.87-26.52-26.52-26.52s-26.52,11.87-26.52,26.52c0,.46,.01,.91,.03,1.36h-8.01c-.02-.45-.03-.9-.03-1.36,0-14.98,9.54-27.73,22.87-32.51,.81-.29,1.34-1.08,1.34-1.94v-19.68h20.63v19.68c0,.86,.53,1.65,1.34,1.94,13.33,4.78,22.87,17.53,22.87,32.51,0,.46-.02,.91-.03,1.36h-8.01Z"/><path class="cls-1" d="M120.91,142.98c-.63,12.43-9.82,22.6-21.79,24.74v-12.66c0-2.47-2.01-4.48-4.48-4.48s-4.48,2.01-4.48,4.48v12.74c-12.18-1.97-21.59-12.23-22.22-24.82-.02-.45-.03-.9-.03-1.36,0-14.65,11.87-26.52,26.52-26.52s26.52,11.87,26.52,26.52c0,.46-.01,.91-.03,1.36Z"/><circle class="cls-1" cx="94.42" cy="80.33" r="4.38"/><rect class="cls-1" x="81.8" y="73.16" width="25.25" height="14.33"/><path class="cls-1" d="M84.84,55.37c1.51-3.82,5.23-6.52,9.59-6.52h0c4.36,0,8.07,2.7,9.59,6.52V14.17c0-2.72-2.21-4.93-4.93-4.93h-9.31c-2.72,0-4.93,2.21-4.93,4.93V55.37Z"/><path class="cls-1" d="M84.11,73.16h20.63v-14c0-1.34-.26-2.62-.73-3.79-1.51-3.82-5.23-6.52-9.59-6.52h0c-4.36,0-8.07,2.7-9.59,6.52-.47,1.18-.73,2.45-.73,3.79v14Z"/></svg>