<?xml version="1.0" encoding="utf-8"?>
<!-- Generator: Adobe Illustrator 26.4.1, SVG Export Plug-In . SVG Version: 6.00 Build 0)  -->
<svg version="1.1" xmlns="http://www.w3.org/2000/svg" xmlns:xlink="http://www.w3.org/1999/xlink" x="0px" y="0px"
	 viewBox="0 0 188.8 188.8" style="enable-background:new 0 0 188.8 188.8;" xml:space="preserve">
<style type="text/css">
	.st0{fill:#FFFFFF;}
	.st1{fill:none;stroke:#FFFFFF;stroke-width:2.5;stroke-miterlimit:10;}
</style>
<g id="Layer_1">
	<g id="Layer_1_00000181086609520651811960000017092596182289659829_">
		<g id="Layer_1_00000031926790540154141290000006272209971105142423_">
		</g>
		<g id="ANIMATION">
		</g>
		<g id="FILL">
		</g>
		<g id="THIN">
		</g>
	</g>
</g>
<g id="Icons">
	<rect x="92.5" y="0" class="st0" width="4" height="41.9"/>
	<path class="st0" d="M153.3,118.9L153.3,118.9c-1.8-1.2-3.9-2.2-6.5-3.2c-9.9-4-25.5-6.7-43.5-7.4l-0.1,0l-0.1,0
		c-2.9-0.1-5.8-0.2-8.7-0.2c-7.4,0-14.4,0.4-21,1l-0.1,0l-0.1,0c-5.5,0.5-10.6,1.3-15.3,2.2c-6.8,1.3-12.7,3-17.2,5
		c-0.1,0.1-0.2,0.1-0.3,0.2c-0.2,0.1-0.3,0.1-0.5,0.2c-2.1,1-3.8,2-5.2,3l0,0c0,0,0,0-0.1,0.1c-0.5,0.4-1,0.8-1.4,1.2
		c-0.7,0.7-1.3,1.4-1.7,2.2c-0.5,0.9-0.7,1.8-0.7,2.7c0,9.8,28.6,17.8,63.8,17.8s63.8-8,63.8-17.8
		C158.3,123.4,156.5,121,153.3,118.9z M94.5,137.8c-38.9,0-56.4-16.1-56.4-16.1c7.7-4.7,27-10,56.4-10c14.7,0,26.9,1.3,36.3,3.3
		c9.5,1.9,16.2,4.4,20.1,6.8C150.9,121.7,133.4,137.8,94.5,137.8z"/>
	<path class="st1" d="M153.3,118.9L153.3,118.9c-1.8-1.2-3.9-2.2-6.5-3.2c-9.9-4-25.5-6.7-43.5-7.4l-0.1,0l-0.1,0
		c-2.9-0.1-5.8-0.2-8.7-0.2c-7.4,0-14.4,0.4-21,1l-0.1,0l-0.1,0c-5.5,0.5-10.6,1.3-15.3,2.2c-6.8,1.3-12.7,3-17.2,5
		c-0.1,0.1-0.2,0.1-0.3,0.2c-0.2,0.1-0.3,0.1-0.5,0.2c-2.1,1-3.8,2-5.2,3l0,0c0,0,0,0-0.1,0.1c-0.5,0.4-1,0.8-1.4,1.2
		c-0.7,0.7-1.3,1.4-1.7,2.2c-0.5,0.9-0.7,1.8-0.7,2.7c0,9.8,28.6,17.8,63.8,17.8s63.8-8,63.8-17.8
		C158.3,123.4,156.5,121,153.3,118.9z M94.5,137.8c-38.9,0-56.4-16.1-56.4-16.1c7.7-4.7,27-10,56.4-10c14.7,0,26.9,1.3,36.3,3.3
		c9.5,1.9,16.2,4.4,20.1,6.8C150.9,121.7,133.4,137.8,94.5,137.8z"/>
	<path class="st1" d="M94.5,108c-35.2,0-63.8,8-63.8,17.8"/>
	<path class="st1" d="M158.3,125.8c0-9.8-28.6-17.8-63.8-17.8"/>
	<path class="st0" d="M158.2,121.7l-43.4-77.1c-1.5-2.7-3.8-4.8-6.6-5.9c-3.2-1.2-7.8-2.5-13.7-2.5c-5.9,0-10.5,1.3-13.7,2.5
		c-2.8,1.1-5.2,3.2-6.6,5.9l-43.7,77.7l4.2-2.7l5.7-3.2l17.5-5.1l15.4-2.2l16.1-0.9l13.8,0.1l15.6,1.2l14.9,2.4l13.1,3.8l6.4,3.2
		L158.2,121.7z"/>
</g>
</svg>
