<?xml version="1.0" encoding="utf-8"?>
<!-- Generator: Adobe Illustrator 26.4.1, SVG Export Plug-In . SVG Version: 6.00 Build 0)  -->
<svg version="1.1" xmlns="http://www.w3.org/2000/svg" xmlns:xlink="http://www.w3.org/1999/xlink" x="0px" y="0px"
	 viewBox="0 0 188.8 188.8" style="enable-background:new 0 0 188.8 188.8;" xml:space="preserve">
<style type="text/css">
	.st0{fill:#FFFFFF;}
</style>
<g id="Layer_1">
	<g id="Layer_1_00000005229031094308931370000011445008403914579873_">
		<g id="Layer_1_00000181086609520651811960000017092596182289659829_">
			<g id="Layer_1_00000031926790540154141290000006272209971105142423_">
			</g>
			<g id="ANIMATION">
			</g>
			<g id="FILL">
			</g>
			<g id="THIN">
			</g>
		</g>
	</g>
</g>
<g id="Icons">
	<path class="st0" d="M69.7,139.6c-3.9,0-8-1.6-11.7-4.6c-9.2-7.6-16.5-26.1-7.2-53.1c2.3-6.8,1.4-14.3-2.4-19.7
		c-2.7-3.8-6.6-6-10.6-6h0c-8.9,0-38,0-38,0l0-8.5c0,0,29.1,0,38,0h0c6.8,0,13.2,3.5,17.5,9.6c5.5,7.7,6.8,17.9,3.5,27.4
		c-7.9,22.9-2.4,37.9,4.6,43.8c3.1,2.6,6.5,3.3,8.8,2c2.9-1.6,5.4-7.2,3.8-17.8c-5.3-34.7-7.6-51.8-0.4-60c2.8-3.3,7-4.9,12.4-4.8
		l0.5,0c1,0,1,0,3.3,0l7.2,0h0c13.5,0,20.3,8.2,24.8,13.6c2.1,2.4,4.2,5,5.6,5c2.5,0,3.5-1.3,6.1-5.3c3.3-5.3,8.4-13.3,22.9-13.3
		c0.2,0,0.5,0,0.7,0l29.9,0v8.5h-30c-10.4-0.2-13.2,4.2-16.4,9.3c-2.6,4.1-5.8,9.3-13.2,9.3c-5.4,0-8.8-4.1-12.1-8
		c-4.3-5.2-8.8-10.5-18.3-10.5h0l-7.2,0c-2.4,0-2.4,0-3.4,0l-0.5,0c-3.8-0.1-5.2,1.1-5.9,1.9c-4.9,5.7-1.7,26.6,2.4,53.2
		c2.8,18.3-4.7,24.6-8,26.5C74.4,139.1,72.1,139.6,69.7,139.6"/>
</g>
</svg>
