<?xml version="1.0" encoding="utf-8"?>
<!-- Generator: Adobe Illustrator 26.4.1, SVG Export Plug-In . SVG Version: 6.00 Build 0)  -->
<svg version="1.1" xmlns="http://www.w3.org/2000/svg" xmlns:xlink="http://www.w3.org/1999/xlink" x="0px" y="0px"
	 viewBox="0 0 188.8 188.8" style="enable-background:new 0 0 188.8 188.8;" xml:space="preserve">
<style type="text/css">
	.st0{fill:#FFFFFF;}
</style>
<g id="Layer_1">
	<g id="Layer_1_00000031926790540154141290000006272209971105142423_">
	</g>
	<g id="ANIMATION">
	</g>
	<g id="FILL">
	</g>
	<g id="THIN">
	</g>
</g>
<g id="Icons">
	<path class="st0" d="M77.3,32.9L33,77.3V46.8c0-7.6,6.2-13.8,13.8-13.8H77.3z"/>
	<polygon class="st0" points="115.5,32.9 33,115.5 33,81.5 81.5,32.9 	"/>
	<path class="st0" d="M150.7,36L36,150.7c-1.9-2.4-3-5.3-3-8.6v-22.4l86.8-86.8h22.4C145.4,32.9,148.4,34.1,150.7,36z"/>
	<path class="st0" d="M156,46.8V69l-87,87H46.8c-3.3,0-6.3-1.2-8.7-3.1L152.9,38.1C154.8,40.4,156,43.5,156,46.8z"/>
	<polygon class="st0" points="156,73.2 156,107.2 107.2,156 73.2,156 	"/>
	<path class="st0" d="M111.5,156l44.5-44.5v30.7c0,7.6-6.2,13.8-13.8,13.8H111.5z"/>
</g>
</svg>
