<?xml version="1.0" encoding="utf-8"?>
<!-- Generator: Adobe Illustrator 26.4.1, SVG Export Plug-In . SVG Version: 6.00 Build 0)  -->
<svg version="1.1" xmlns="http://www.w3.org/2000/svg" xmlns:xlink="http://www.w3.org/1999/xlink" x="0px" y="0px"
	 viewBox="0 0 188.8 188.8" style="enable-background:new 0 0 188.8 188.8;" xml:space="preserve">
<style type="text/css">
	.st0{fill:#FFFFFF;}
</style>
<g id="Layer_1">
	<g id="Layer_1_00000181086609520651811960000017092596182289659829_">
		<g id="Layer_1_00000031926790540154141290000006272209971105142423_">
		</g>
		<g id="ANIMATION">
		</g>
		<g id="FILL">
		</g>
		<g id="THIN">
		</g>
	</g>
</g>
<g id="Icons">
	<polygon class="st0" points="131.5,60.6 121.5,60.6 131.5,72.1 121.5,72.1 131.5,83.6 121.5,83.6 131.5,95.1 121.5,95.1 
		131.5,106.6 121.5,106.6 131.5,118.1 121.5,118.1 131.5,129.6 121.5,129.6 131.5,141.1 120.5,141.1 128.2,150.2 119.9,150.2 
		123.5,158.8 100.4,158.8 100.4,188.8 87.1,188.8 87.1,158.8 65.3,158.8 68.9,150.2 60.6,150.2 68.3,141.1 57.3,141.1 67.4,129.6 
		57.3,129.6 67.4,118.1 57.3,118.1 67.4,106.6 57.3,106.6 67.4,95.1 57.3,95.1 67.4,83.6 57.3,83.6 67.4,72.1 57.3,72.1 67.4,60.6 
		57.3,60.6 67.4,49.1 57.3,49.1 67.4,37.6 57.9,37.6 71.7,27.9 65.1,27.8 83.5,22 105.4,22 123.8,27.8 117.2,27.9 130.9,37.6 
		121.5,37.6 131.5,49.1 121.5,49.1 	"/>
</g>
</svg>
