<?xml version="1.0" encoding="UTF-8"?>
<svg xmlns="http://www.w3.org/2000/svg" xmlns:xlink="http://www.w3.org/1999/xlink" viewBox="0 0 188.85 188.85">
  <defs>
    <style>
      .cls-1, .cls-2, .cls-3 {
        stroke-width: 0px;
      }

      .cls-2 {
        fill: none;
      }

      .cls-3 {
        fill: #fff;
      }

      .cls-4 {
        clip-path: url(#clippath);
      }
    </style>
    <clipPath id="clippath">
      <rect class="cls-2" x="1458.82" y="-761.9" width="188.85" height="188.85"/>
    </clipPath>
  </defs>
  <g id="Icons">
    <g class="cls-4">
      <rect class="cls-1" x="-1534.61" y="-842.19" width="3322.56" height="889.82"/>
    </g>
  </g>
  <g id="Layer_8" data-name="Layer 8">
    <g>
      <path class="cls-3" d="m53.32,52.81c-7.56.22-14.91,2.92-20.43,4.95,6.67,4.89,15.1,13.29,31.21,21.78l.11.13c.49-.59,1-1.15,1.53-1.69.71-.72,1.45-1.39,2.22-2.01,1.53-1.25,3.14-2.32,4.78-3.28,1.63-.95,3.29-1.79,4.96-2.56,1.66-.76,3.34-1.45,5.01-2.09,1.67-.64,3.34-1.23,5.02-1.79.56-.19,1.11-.37,1.67-.55l1.02-.33.66-.21.05-.07-.29-.21c-.38-.28-.75-.55-1.13-.82-.38-.27-.77-.54-1.15-.81-1.2-.85-3.35-2.07-4.54-2.64-2.34-1.11-6.07-2.83-9.92-4.29-3.31-1.26-6.71-2.34-9.36-2.69-7.71-1.03-11.42-.8-11.42-.8"/>
      <path class="cls-3" d="m121.79,86.22c-.42-.91-.87-1.8-1.35-2.64-.48-.84-.98-1.64-1.49-2.4-1.03-1.52-2.11-2.87-3.22-4.11-1.1-1.24-2.22-2.37-3.35-3.42-1.12-1.05-2.25-2.03-3.38-2.96-1.13-.93-2.26-1.81-3.39-2.66-.38-.28-.75-.56-1.13-.84l-1.04-.76s.26-.08.26-.08c.56-.18,1.11-.36,1.67-.53,1.67-.52,3.35-1.01,5.02-1.45,1.68-.44,3.35-.83,5.03-1.15.84-.16,1.68-.3,2.51-.41.49-.07.99-.1,1.47-.17,4.02-.56,8.99-.85,13.28-1,0,0,.09,0,.25,0,1.99-.05,15.24-.27,20.91,3.28h0c2.95,1.72,5.53,3.82,7.68,5.57-10.26,3.23-26.79,8.42-39.37,15.63"/>
      <path class="cls-3" d="m123.98,91.84s.09-.04.32-.16c12.53-7.18,28.95-12.38,39.32-15.64,1.01,5.02,1.77,10.05,2.28,15.09.52,5.12.78,10.23.78,15.32s-.26,10.15-.78,15.16c-.52,5.02-1.3,9.98-2.33,14.89-8.02,2.94-19.86,7.29-30.65,3.45-.79-.28-1.57-.56-2.38-.86-.41-.15-.82-.3-1.24-.46-1.27-.47-2.54-.94-3.87-1.43-.11-.04-.24-.09-.37-.14,0,0,3.49-8.66,2.69-25.92h0c0-.24-.02-.49-.03-.74-.09-2.01-.24-4.06-.5-6.16-.13-1.05-.29-2.11-.48-3.18-.19-1.07-.42-2.15-.7-3.23-.28-1.08-.6-2.16-.96-3.22-.32-.93-.68-1.84-1.07-2.72l-.03-.07"/>
      <path class="cls-3" d="m106.02,95.32c4.13-1.13,7.75-1.92,9.89-1.9.49,0,1.4.03,2.24.11.33.77.63,1.56.91,2.36.37,1.06.69,2.14.96,3.22.28,1.08.51,2.16.7,3.23.19,1.07.35,2.13.48,3.18.21,1.73.35,3.42.45,5.09l.03.64c.04.59.07,1.18.1,1.76.09,2.01.13,3.98.13,5.93s-.03,3.87-.13,5.75c-.07,1.4-.13,2.78-.33,4.1-.58,4.01-1.8,7.58-3.21,10.59-3.09,6.63-7.08,10.57-7.08,10.57-5.95,6.7-16.22,9.69-23.46,11.73h0c-.21-4.49-.37-9.16-.47-13.97s-.16-9.62-.16-14.63v-.23c0-5.09.05-10.3.16-15.62.1-5.32.26-10.74.47-16.25,5.13-1.7,11.78-3.91,17.34-5.39l.96-.27Z"/>
      <path class="cls-3" d="m70.26,83.16c.45-.54.93-1.06,1.42-1.56.71-.72,1.45-1.39,2.22-2.01,1.53-1.25,3.14-2.32,4.78-3.28,1.63-.95,3.29-1.79,4.96-2.56,1.66-.76,3.34-1.45,5.01-2.09,1.67-.64,3.34-1.23,5.02-1.79.56-.19,1.11-.37,1.67-.55l1.02-.33.66-.21s.11-.03.11-.03l1.04.76c.38.28.75.55,1.13.84,1.13.85,2.26,1.73,3.39,2.66,1.13.93,2.26,1.91,3.38,2.96,1.13,1.05,2.24,2.18,3.35,3.42,1.1,1.24,2.19,2.6,3.22,4.11.52.76,1.01,1.56,1.49,2.4.36.64.71,1.29,1.03,1.97-.6-.04-1.16-.05-1.51-.06-2.14-.02-5.76.77-9.89,1.9h0c-.73.19-1.48.4-2.24.62l-1.69.45c-4.89,1.41-10.25,3.19-14.54,4.61-7.37-4.06-14.98-12.08-14.96-12.1"/>
      <path class="cls-3" d="m126.98,57.72c-.17,0-.25,0-.25,0-4.28.15-9.25.44-13.28,1-.49.07-.98.1-1.47.17-.84.11-1.67.25-2.51.41-1.67.31-3.35.71-5.03,1.15-1.67.44-3.35.93-5.02,1.45-.56.17-1.11.35-1.67.53,0,0-.26.08-.26.08l-.34-.25c-.38-.28-.75-.55-1.13-.82-.38-.27-.77-.54-1.15-.81-1.2-.85-3.35-2.07-4.54-2.64-2.34-1.11-6.07-2.83-9.92-4.29.06-.16.12-.31.19-.47.59-1.47,1.24-2.91,1.94-4.32.09-.19.2-.4.3-.61,4.9-9.74,17.7-13.33,26.27-15.74,4.49,2.95,10.69,7.02,13.58,13.46.05.11.1.22.15.33.7,1.57,1.36,3.15,1.97,4.75.65,1.68,1.24,3.38,1.76,5.1.14.46.28.92.4,1.38v.14Z"/>
      <path class="cls-3" d="m81.69,99.78c-.2,5.4-.35,10.71-.46,15.93-.11,5.37-.16,10.64-.16,15.78s.05,10.15.16,15.02c.11,4.83.26,9.51.47,14.03h0c-1.18-.67-8.61-5.21-14.66-14.96-6.59-10.62-6.82-23.52-6.82-32.99s2.16-17.5,3.22-20.49c1.07-3,2.87-5,2.87-5l.52.59.07.09s7.46,7.91,14.78,12"/>
      <path class="cls-3" d="m56.33,131.23v-.02c-1.14-6.81-1.21-13.49-1.21-19.11,0-10.76,2.47-19.86,3.69-23.26.81-2.25,1.98-4.01,2.69-4.94-16.01-8.47-24.41-16.83-31.06-21.7-1.03,4.9-1.81,9.87-2.33,14.89-.52,5.02-.78,10.08-.78,15.16s.26,10.2.78,15.32c.52,5.12,1.3,10.24,2.33,15.34,4.92,4,12.04,9.79,20.82,8.89,1.7-.17,3.37-.37,5.08-.58h0Z"/>
    </g>
  </g>
</svg>