<?xml version="1.0" encoding="UTF-8"?><svg id="Icons" xmlns="http://www.w3.org/2000/svg" xmlns:xlink="http://www.w3.org/1999/xlink" viewBox="0 0 188.85 188.85"><defs><style>.cls-1,.cls-2,.cls-3,.cls-4{fill:#fff;}.cls-2{opacity:.1;}.cls-3{opacity:.8;}.cls-5{clip-path:url(#clippath);}.cls-6{fill:none;}.cls-4{opacity:.6;}</style><clipPath id="clippath"><rect class="cls-6" x="722.16" y="-251.66" width="188.85" height="188.85"/></clipPath></defs><g class="cls-5"><rect x="-2271.27" y="-331.95" width="3322.56" height="889.82"/></g><path class="cls-4" d="M80.72,21.64c.06,0,.12,0,.18,0,4.38-.74,8.88-1.15,13.47-1.15h.1c4.59,0,9.09,.41,13.47,1.15,.06,0,.12,0,.18,0h-.18c-8.2-.68-13.52,4.49-13.52,4.49,0,0-5.33-5.17-13.52-4.5"/><path class="cls-4" d="M62.98,26.85c-10.37,4.41-19.62,10.94-27.21,19.05-5.12-3.19-8.52-8.86-8.52-15.33,0-9.97,8.09-18.06,18.06-18.06,8.7,0,15.96,6.15,17.67,14.35Z"/><path class="cls-4" d="M125.92,26.88c10.36,4.42,19.6,10.94,27.18,19.05,5.14-3.18,8.56-8.87,8.56-15.36,0-9.97-8.09-18.06-18.06-18.06-8.71,0-15.98,6.17-17.68,14.37Z"/><path class="cls-1" d="M169.44,72.04c-9.98-26.05-33.13-45.56-61.32-50.4-8.3-.76-13.7,4.49-13.7,4.49,0,0-5.4-5.25-13.7-4.49-28.18,4.83-51.34,24.34-61.32,50.39-5.04,15.19,12.08,28.08,31.85,27.47,8.84-.27,18.35-5.62,26.2-11.46-.01,0-.04-.02-.05-.03l-.41-.26,17.43-26.3,17.43,26.3-.41,.26s-.03,.02-.05,.03c7.84,5.85,17.35,11.19,26.2,11.46,19.76,.61,36.88-12.28,31.85-27.47Zm-91.74-1.54c-2.07,3.7-5.47,7.91-9.59,11.87-6.98,6.7-14.09,10.85-18.04,10.85-1.01,0-1.81-.27-2.36-.84-2.68-2.79,2.08-11.56,10.84-19.97,4.12-3.96,8.47-7.19,12.25-9.1,3.92-1.98,6.81-2.31,8.15-.92,1.34,1.39,.89,4.27-1.25,8.1Zm63.42,21.88c-.54,.57-1.35,.84-2.36,.84-3.95,0-11.06-4.15-18.04-10.85-4.12-3.96-7.53-8.17-9.59-11.87-2.14-3.83-2.59-6.71-1.25-8.1,1.34-1.39,4.23-1.06,8.15,.92,3.78,1.91,8.13,5.14,12.25,9.1,8.76,8.41,13.52,17.18,10.84,19.97Z"/><path class="cls-3" d="M169.44,72.04c5.03,15.19-12.08,28.08-31.85,27.47-8.84-.27-18.35-5.62-26.2-11.46-.56,.35-7.2,4.35-16.5,4.49h0s-.47,.01-.47,.01h-.47c-9.3-.15-15.94-4.16-16.5-4.5-7.84,5.85-17.35,11.19-26.2,11.46-19.76,.61-36.88-12.28-31.85-27.47-3.41,8.91-5.3,18.58-5.3,28.7,0,0,.31,17.76,2.86,30.13,2.63,12.78,2.73,15.99,7.38,21.04,6.05,6.58,26.5,23.77,70.14,23.77s63.99-17.19,70.04-23.77c4.65-5.06,4.75-8.26,7.38-21.04,2.54-12.37,2.86-30.13,2.86-30.13,0-10.11-1.89-19.78-5.3-28.7Z"/><path class="cls-2" d="M.09,138.18v50.67H8.49l7.11-55.43c-6.01-.13-11.14,1.7-15.5,4.76Z"/><path class="cls-2" d="M188.85,138.24c-4.38-3.1-9.54-4.96-15.59-4.82l7.11,55.43h8.49v-50.61Z"/></svg>