<?xml version="1.0" encoding="utf-8"?>
<!-- Generator: Adobe Illustrator 26.4.1, SVG Export Plug-In . SVG Version: 6.00 Build 0)  -->
<svg version="1.1" xmlns="http://www.w3.org/2000/svg" xmlns:xlink="http://www.w3.org/1999/xlink" x="0px" y="0px"
	 viewBox="0 0 188.8 188.8" style="enable-background:new 0 0 188.8 188.8;" xml:space="preserve">
<style type="text/css">
	.st0{fill:#FFFFFF;}
</style>
<g id="Layer_1">
	<g id="Layer_1_00000005229031094308931370000011445008403914579873_">
		<g id="Layer_1_00000181086609520651811960000017092596182289659829_">
			<g id="Layer_1_00000031926790540154141290000006272209971105142423_">
			</g>
			<g id="ANIMATION">
			</g>
			<g id="FILL">
			</g>
			<g id="THIN">
			</g>
		</g>
	</g>
</g>
<g id="Icons">
</g>
<g id="Name">
	<path class="st0" d="M79.2,43.2v-5.5c0-6.4,3.4-9.4,15.2-9.4c11.8,0,15.2,2.9,15.2,9.4v5.5V49c0,6.4-3.4,9.4-15.2,9.4
		c-11.8,0-15.2-3-15.2-9.4V43.2z"/>
	<path class="st0" d="M65.2,91.8V81.3c0-12.3,6.6-17.9,29.2-17.9c22.6,0,29.2,5.6,29.2,17.9v10.5v11.2c0,12.3-6.6,17.9-29.2,17.9
		c-22.6,0-29.2-5.6-29.2-17.9V91.8z"/>
	<path class="st0" d="M94.3,156.6c0,0-39.1,0-45.6,0.1c-6.5,0.1-9.5-3.4-9.6-15.3C39,129.5,42,126,48.4,126
		c6.5-0.1,45.6-0.1,45.6-0.1s39.7,0,46.1-0.1c6.5-0.1,9.5,3.4,9.6,15.3c0.1,11.9-2.8,15.4-9.3,15.5C134,156.6,94.3,156.6,94.3,156.6
		"/>
</g>
</svg>
