<?xml version="1.0" encoding="utf-8"?>
<!-- Generator: Adobe Illustrator 26.5.0, SVG Export Plug-In . SVG Version: 6.00 Build 0)  -->
<svg version="1.1" xmlns="http://www.w3.org/2000/svg" xmlns:xlink="http://www.w3.org/1999/xlink" x="0px" y="0px"
	 viewBox="0 0 188.85 188.85" style="enable-background:new 0 0 188.85 188.85;" xml:space="preserve">
<style type="text/css">
	.st0{fill:#A12A21;}
	.st1{fill:#A12A21;stroke:#A12A21;stroke-width:8.5039;stroke-miterlimit:10;}
	.st2{fill:none;stroke:#A12A21;stroke-width:8.5039;stroke-miterlimit:10;}
	.st3{fill:none;stroke:#A12A21;stroke-width:2.8346;stroke-miterlimit:10;}
	.st4{fill:#A12A21;stroke:#A12A21;stroke-miterlimit:10;}
	.st5{fill:none;stroke:#A12A21;stroke-width:4.9606;stroke-miterlimit:10;}
	.st6{fill:none;stroke:#A12A21;stroke-width:9.9213;stroke-linecap:round;stroke-linejoin:round;stroke-miterlimit:10;}
	.st7{fill:none;stroke:#A12A21;stroke-width:5.6693;stroke-linecap:round;stroke-miterlimit:10;}
	.st8{fill:none;stroke:#FFFFFF;stroke-miterlimit:10;}
	.st9{fill:none;stroke:#A12A21;stroke-width:3;stroke-miterlimit:10;}
	.st10{display:none;}
	.st11{display:inline;fill:#709BD1;}
	.st12{opacity:0.1;fill:url(#SVGID_1_);}
	.st13{opacity:0.1;fill:url(#SVGID_00000165202039579278444180000001273398612990983605_);}
	.st14{opacity:0.1;fill:url(#SVGID_00000099654502710223868150000004715237192310974132_);}
	.st15{opacity:0.1;fill:url(#SVGID_00000173883914920524334300000008647104611567038369_);}
	.st16{opacity:0.3;fill:url(#SVGID_00000044879057946669926460000013854375057724156304_);}
	.st17{opacity:0.3;fill:url(#SVGID_00000081606132630104941760000003279724680088159157_);}
	.st18{opacity:0.3;fill:url(#SVGID_00000125593567712940244210000008100943831546407848_);}
	.st19{opacity:0.3;fill:url(#SVGID_00000049190354221426824180000003489290931444688264_);}
	.st20{opacity:0.3;fill:url(#SVGID_00000093863528176120912760000014645793515696012676_);}
	.st21{opacity:0.5;fill:url(#SVGID_00000087371990009086150370000013461834084407492480_);}
	.st22{opacity:0.5;fill:url(#SVGID_00000047058129016746315970000009535982066331850410_);}
	.st23{opacity:0.5;fill:url(#SVGID_00000056394809366870843540000004357831324766605498_);}
	.st24{opacity:0.5;fill:url(#SVGID_00000180359770145442726970000002576920202875618989_);}
	.st25{opacity:0.7;fill:url(#SVGID_00000175313046844024560410000008571160298274491538_);}
	.st26{opacity:0.7;fill:url(#SVGID_00000118354843322212232870000008443346303731160219_);}
	.st27{opacity:0.7;fill:url(#SVGID_00000164516211683825748310000014998668812879934119_);}
	.st28{opacity:0.7;fill:url(#SVGID_00000098209301598069940270000009743323890561459643_);}
	.st29{opacity:0.7;fill:url(#SVGID_00000008128318814319222860000012547340749671220617_);}
	.st30{opacity:0.9;fill:url(#SVGID_00000155856493476502943990000000483920211634305956_);}
	.st31{opacity:0.9;fill:url(#SVGID_00000044164135869436193430000002794028554703413435_);}
	.st32{opacity:0.9;fill:url(#SVGID_00000080182838638703924800000005915732302820646816_);}
	.st33{opacity:0.9;fill:url(#SVGID_00000029037088060328072770000009865788349182950572_);}
	.st34{fill:url(#SVGID_00000138557353649556744320000011264475064156598204_);}
	.st35{fill:url(#SVGID_00000009576687824152254520000015342047798249412241_);}
	.st36{fill:url(#SVGID_00000021830087211231523430000005704092079944061325_);}
	.st37{fill:url(#SVGID_00000111179753613865396370000013173359426738703247_);}
	.st38{fill:url(#SVGID_00000130620226834741458470000004517440076163025542_);}
	.st39{fill:url(#SVGID_00000030457497685293206620000005680378215809084603_);}
	.st40{fill:url(#SVGID_00000180338915928532869110000009903272349387157164_);}
	.st41{fill:url(#SVGID_00000116237705099544154820000016877723029370789552_);}
	.st42{fill:url(#SVGID_00000134207881174838297640000003634622457888885415_);}
	.st43{fill:#FFFFFF;}
	.st44{fill:none;stroke:#FFFFFF;stroke-width:11;stroke-linecap:round;stroke-linejoin:round;stroke-miterlimit:10;}
	.st45{fill:none;stroke:#000000;stroke-width:3;stroke-miterlimit:10;}
	.st46{fill:none;stroke:#FFFFFF;stroke-width:4;stroke-miterlimit:10;}
	.st47{fill:none;stroke:#FFFFFF;stroke-width:2.5;stroke-miterlimit:10;}
	.st48{fill:none;stroke:#000000;stroke-width:2.835;stroke-miterlimit:10;}
	.st49{fill:none;stroke:#000000;stroke-miterlimit:10;}
	.st50{fill:none;stroke:#FFFFFF;stroke-width:3;stroke-miterlimit:10;}
	.st51{clip-path:url(#SVGID_00000050657188556694325210000015014882251798642071_);fill:#FFFFFF;}
	.st52{clip-path:url(#SVGID_00000050657188556694325210000015014882251798642071_);}
	.st53{fill:none;stroke:#000000;stroke-width:2.5;stroke-miterlimit:10;}
	.st54{fill:none;stroke:#000000;stroke-width:2.995;stroke-miterlimit:10;}
	.st55{clip-path:url(#SVGID_00000052098782438316689640000001846893117331443340_);fill:#FFFFFF;}
	.st56{clip-path:url(#SVGID_00000052098782438316689640000001846893117331443340_);}
	
		.st57{clip-path:url(#SVGID_00000052098782438316689640000001846893117331443340_);fill:none;stroke:#000000;stroke-width:4.43;stroke-miterlimit:10;}
	.st58{fill:none;stroke:#FFFFFF;stroke-width:1.3715;stroke-miterlimit:10;}
	.st59{fill:none;stroke:#FFFFFF;stroke-width:5;stroke-miterlimit:10;}
	.st60{fill:url(#SVGID_00000028293355109932797650000009210497049629226632_);}
	.st61{fill:none;stroke:#FFFFFF;stroke-width:4.6772;stroke-miterlimit:10;}
	.st62{fill:none;stroke:#FFFFFF;stroke-width:4.9606;stroke-miterlimit:10;}
	.st63{fill:none;stroke:#FFFFFF;stroke-width:4.9606;stroke-linecap:round;stroke-miterlimit:10;}
	
		.st64{clip-path:url(#SVGID_00000042698883807702597260000017214250722805182910_);fill:url(#SVGID_00000093152606243016179360000000390803377281446035_);}
	.st65{clip-path:url(#SVGID_00000171001477544813502740000014026730353740386750_);}
	.st66{clip-path:url(#SVGID_00000171001477544813502740000014026730353740386750_);fill:#FFFFFF;}
	
		.st67{clip-path:url(#SVGID_00000171001477544813502740000014026730353740386750_);fill:none;stroke:#000000;stroke-width:2.126;stroke-miterlimit:10;}
	
		.st68{clip-path:url(#SVGID_00000171001477544813502740000014026730353740386750_);fill:none;stroke:#000000;stroke-width:2.126;stroke-linecap:round;stroke-miterlimit:10;}
	.st69{opacity:0.1;fill:url(#SVGID_00000175293255583716409620000011718985351337855626_);}
	.st70{opacity:0.1;fill:url(#SVGID_00000001629830024788949410000013214995903981033862_);}
	.st71{opacity:0.1;fill:url(#SVGID_00000164476852921659499970000007079189830007927948_);}
	.st72{opacity:0.1;fill:url(#SVGID_00000118385197273180257510000001681935843466596029_);}
	.st73{opacity:0.3;fill:url(#SVGID_00000034790300784051017140000003786428535752190116_);}
	.st74{opacity:0.3;fill:url(#SVGID_00000051382009041396609790000006830127168825016490_);}
	.st75{opacity:0.3;fill:url(#SVGID_00000129194232816674181860000005214751850756527506_);}
	.st76{opacity:0.3;fill:url(#SVGID_00000005230263648059195390000017771502135869533352_);}
	.st77{opacity:0.3;fill:url(#SVGID_00000116940733131545909470000006803580328162898311_);}
	.st78{opacity:0.5;fill:url(#SVGID_00000180337150090908715600000004462453239068377764_);}
	.st79{opacity:0.5;fill:url(#SVGID_00000108310030048681070990000014264240598047761047_);}
	.st80{opacity:0.5;fill:url(#SVGID_00000158712216179023919160000002597821158202267275_);}
	.st81{opacity:0.5;fill:url(#SVGID_00000023246650208077360510000015407696679678688687_);}
	.st82{opacity:0.7;fill:url(#SVGID_00000150093860476838632610000013220753450286267306_);}
	.st83{opacity:0.7;fill:url(#SVGID_00000168818077022902419030000007379413404005103531_);}
	.st84{opacity:0.7;fill:url(#SVGID_00000176750130718306239190000016448091368509155731_);}
	.st85{opacity:0.7;fill:url(#SVGID_00000089539557637165012170000007013862010207728312_);}
	.st86{opacity:0.7;fill:url(#SVGID_00000147188927554602986510000017450191354238135456_);}
	.st87{opacity:0.9;fill:url(#SVGID_00000119816438321393114500000007844993628285099155_);}
	.st88{opacity:0.9;fill:url(#SVGID_00000031206801272309060760000007249647544046928025_);}
	.st89{opacity:0.9;fill:url(#SVGID_00000157294298628213986390000018096494571928843455_);}
	.st90{opacity:0.9;fill:url(#SVGID_00000005959343818983801240000012185912978293905796_);}
	.st91{fill:url(#SVGID_00000095330120637238856430000007319242028392505254_);}
	.st92{fill:url(#SVGID_00000096028434894156019350000011394829292293853327_);}
	.st93{fill:url(#SVGID_00000034082870108187214130000012237062614395765395_);}
	.st94{fill:url(#SVGID_00000147202513211727334760000010570382717844806538_);}
	.st95{fill:url(#SVGID_00000124139519538220856470000010100161329039566525_);}
	.st96{fill:url(#SVGID_00000097496001266727162600000016952678131436753317_);}
	.st97{fill:url(#SVGID_00000036242201897294645520000000313839279647546796_);}
	.st98{fill:url(#SVGID_00000173852769541108375060000016490174011100645531_);}
	.st99{fill:url(#SVGID_00000105410811401424511120000012534291772518742669_);}
	.st100{fill:none;stroke:#FFFFFF;stroke-width:4;stroke-linecap:round;stroke-linejoin:round;stroke-miterlimit:10;}
	.st101{opacity:0.7;fill:#FFFFFF;}
	.st102{opacity:0.6;fill:#FFFFFF;}
	.st103{opacity:0.8;fill:#FFFFFF;}
</style>
<g id="Work_Layer">
</g>
<g id="Background" class="st10">
	<rect x="-2525.44" y="-265.6" class="st11" width="3071.39" height="1370.48"/>
</g>
<g id="Icons">
	<g>
		<defs>
			<rect id="SVGID_00000119796400437375390390000008624813361163891888_" x="486.91" y="261.11" width="188.85" height="188.85"/>
		</defs>
		<clipPath id="SVGID_00000049198189191876653620000000109030818240382080_">
			<use xlink:href="#SVGID_00000119796400437375390390000008624813361163891888_"  style="overflow:visible;"/>
		</clipPath>
		
			<rect x="-2506.52" y="180.82" style="clip-path:url(#SVGID_00000049198189191876653620000000109030818240382080_);" width="3322.56" height="889.82"/>
	</g>
	<path class="st43" d="M47.05,115.84c0.2,0.65,0.31,1.35,0.31,2.06v11.2c0,0.52,0.42,0.95,0.95,0.95h5.79h6h5.79
		c3.83,0,6.95,3.12,6.95,6.95v11.2c0,0.13,0.03,0.26,0.07,0.37c0.14,0.34,0.48,0.58,0.87,0.58h18.52V97.86H18.9v13.1h21.52
		C43.53,110.95,46.17,113.01,47.05,115.84z"/>
	<path class="st43" d="M98.29,97.86v51.29h18.52c0.52,0,0.95-0.42,0.95-0.95v-2.6v-6V137c0-3.83,3.12-6.95,6.95-6.95h17.57
		c0.52,0,0.95-0.42,0.95-0.95v-11.2c0-0.72,0.11-1.41,0.31-2.06c0.88-2.83,3.52-4.88,6.63-4.88h21.52v-13.1H98.29z"/>
	<path class="st43" d="M40.42,164.7h-4.84c-3.83,0-6.95-3.12-6.95-6.95v-30.3c0-0.52-0.42-0.95-0.95-0.95H18.9v44.75h22.46v-5.6
		C41.37,165.12,40.94,164.7,40.42,164.7z"/>
	<path class="st43" d="M73.78,155.15L73.78,155.15c-2.39,0-4.51-1.22-5.76-3.07c-0.75-1.11-1.19-2.45-1.19-3.88V137
		c0-0.52-0.42-0.95-0.95-0.95H60.1v35.2h32.2v-16.1H73.78z"/>
	<path class="st43" d="M48.31,136.05c-3.83,0-6.95-3.12-6.95-6.95v-11.2c0-0.52-0.42-0.95-0.95-0.95H18.9v3.55h8.78
		c3.83,0,6.95,3.12,6.95,6.95v30.3c0,0.52,0.42,0.95,0.95,0.95h4.84c3.83,0,6.95,3.12,6.95,6.95v5.6h6.73v-35.2H48.31z"/>
	<path class="st43" d="M149.22,117.9v11.2c0,3.83-3.12,6.95-6.95,6.95h-17.57c-0.52,0-0.95,0.42-0.95,0.95v2.6h5.78
		c3.83,0,6.95,3.12,6.95,6.95v11.2c0,0.52,0.42,0.95,0.95,0.95h17.57c3.83,0,6.95,3.12,6.95,6.95v5.6h9.73v-54.29h-21.52
		C149.65,116.95,149.22,117.38,149.22,117.9z"/>
	<path class="st43" d="M155.01,164.7h-17.57c-3.83,0-6.95-3.12-6.95-6.95v-11.2c0-0.52-0.42-0.95-0.95-0.95h-5.78v2.6
		c0,3.83-3.12,6.95-6.95,6.95H98.29v16.1h57.66v-5.6C155.96,165.12,155.53,164.7,155.01,164.7z"/>
	<path class="st43" d="M72.84,60.61v11.2c0,0.52,0.42,0.95,0.95,0.95h18.5V21.46l-32.2,32.2h5.8
		C69.73,53.66,72.84,56.78,72.84,60.61z"/>
	<path class="st43" d="M92.29,78.76h-18.5c-3.83,0-6.95-3.12-6.95-6.95v-11.2c0-0.52-0.42-0.95-0.95-0.95H54.1l-32.2,32.2h70.39
		V78.76z"/>
	<path class="st43" d="M116.8,72.76c0.52,0,0.95-0.42,0.95-0.95v-11.2c0-3.83,3.12-6.95,6.95-6.95h5.8l-32.2-32.2v51.29H116.8z"/>
	<path class="st43" d="M123.74,60.61v11.2c0,3.83-3.12,6.95-6.95,6.95h-18.5v13.1h70.39l-32.2-32.2h-11.8
		C124.17,59.66,123.74,60.08,123.74,60.61z"/>
</g>
<g id="Name">
</g>
</svg>
