<?xml version="1.0" encoding="utf-8"?>
<!-- Generator: Adobe Illustrator 26.4.1, SVG Export Plug-In . SVG Version: 6.00 Build 0)  -->
<svg version="1.1" xmlns="http://www.w3.org/2000/svg" xmlns:xlink="http://www.w3.org/1999/xlink" x="0px" y="0px"
	 viewBox="0 0 188.8 188.8" style="enable-background:new 0 0 188.8 188.8;" xml:space="preserve">
<style type="text/css">
	.st0{fill:#FFFFFF;}
</style>
<g id="Layer_1">
	<g id="Layer_1_00000031926790540154141290000006272209971105142423_">
	</g>
	<g id="ANIMATION">
	</g>
	<g id="FILL">
	</g>
	<g id="THIN">
	</g>
</g>
<g id="Icons">
	<path class="st0" d="M61.6,167.9c-19.8,0-35.8-16.1-35.8-35.8s16.1-35.8,35.8-35.8s35.8,16.1,35.8,35.8S81.3,167.9,61.6,167.9z
		 M61.6,101.3c-17,0-30.8,13.8-30.8,30.8s13.8,30.8,30.8,30.8s30.8-13.8,30.8-30.8S78.6,101.3,61.6,101.3z"/>
	<path class="st0" d="M119.1,143.3c-14.7,0-26.7-12-26.7-26.7s12-26.7,26.7-26.7c14.7,0,26.7,12,26.7,26.7S133.8,143.3,119.1,143.3z
		 M119.1,94.9c-12,0-21.7,9.7-21.7,21.7c0,12,9.7,21.7,21.7,21.7c12,0,21.7-9.7,21.7-21.7C140.8,104.6,131.1,94.9,119.1,94.9z"/>
	<path class="st0" d="M87.4,106.6c-10.2,0-18.4-8.3-18.4-18.4c0-10.2,8.3-18.4,18.4-18.4s18.4,8.3,18.4,18.4
		C105.8,98.3,97.5,106.6,87.4,106.6z M87.4,74.7c-7.4,0-13.4,6-13.4,13.4s6,13.4,13.4,13.4s13.4-6,13.4-13.4S94.8,74.7,87.4,74.7z"
		/>
	<path class="st0" d="M129.2,92.6c-19.8,0-35.8-16.1-35.8-35.8s16.1-35.8,35.8-35.8s35.8,16.1,35.8,35.8S149,92.6,129.2,92.6z
		 M129.2,25.9c-17,0-30.8,13.8-30.8,30.8s13.8,30.8,30.8,30.8s30.8-13.8,30.8-30.8S146.2,25.9,129.2,25.9z"/>
</g>
</svg>
