<?xml version="1.0" encoding="utf-8"?>
<!-- Generator: Adobe Illustrator 26.4.1, SVG Export Plug-In . SVG Version: 6.00 Build 0)  -->
<svg version="1.1" xmlns="http://www.w3.org/2000/svg" xmlns:xlink="http://www.w3.org/1999/xlink" x="0px" y="0px"
	 viewBox="0 0 188.8 188.8" style="enable-background:new 0 0 188.8 188.8;" xml:space="preserve">
<style type="text/css">
	.st0{fill:#FFFFFF;}
</style>
<g id="Layer_1">
	<g id="Layer_1_00000031926790540154141290000006272209971105142423_">
	</g>
	<g id="ANIMATION">
	</g>
	<g id="FILL">
	</g>
	<g id="THIN">
	</g>
</g>
<g id="Icons">
	<path class="st0" d="M138.6,84.4c-1.1,0-2.2,0-3.4,0c-16,0-36,1.3-52.8,2.8c1.6-1.1,3-2.5,4.2-4.2c2.5-3.6,3.8-8,3.7-12.6
		C89.9,60.9,83,51,70.5,50.7c-2.2-0.1-4.6-0.1-6.8-0.1c-3.9,0-9.6,0.1-13.8,0.5c-2.8,0.3-11.4,1-17.9,8.4
		c-5.5,6.2-8.1,15.5-8.1,28.4c0,8.3,0.4,17.8,3.6,25.8c4.4,11.1,13,17,24.9,17c22,0,78.9-0.2,87.8-0.5c14.3-0.4,22-12.3,21.9-23.3
		C161.8,96.2,154.5,84.7,138.6,84.4z M139.9,124.4c-8.9,0.3-65.6,0.5-87.6,0.5c-9.4,0-15.9-4.5-19.4-13.3c-2.8-7.1-3.2-16-3.2-23.7
		c0-11.4,2.2-19.4,6.7-24.5c4.4-5.1,10.1-6.1,14-6.5c5.4-0.5,13.9-0.5,20-0.4c9.3,0.2,13.8,7.4,14,14c0.2,6.3-3.5,13.1-10.9,13.9
		c-4.3,0.4-7.2,0.8-10.2,1.3c-2.8,0.4-5.6,0.8-9.7,1.3c-3.3,0.3-6.2-0.9-8-3.4c-1.8-2.6-2.1-6.1-0.7-9c1.4-2.9,4.1-4.6,7.6-4.8
		c5.7-0.4,12.4-0.8,15.6-1c1-0.1,1.9,0.7,1.9,1.7c0.1,1-0.7,1.9-1.7,1.9c-3.1,0.2-9.8,0.6-15.6,1c-2.7,0.2-4,1.6-4.5,2.8
		c-0.8,1.7-0.7,3.8,0.4,5.3c1,1.4,2.6,2,4.6,1.8c3.9-0.4,6.8-0.8,9.5-1.2c2.9-0.4,6-0.9,10.4-1.3c5.5-0.5,7.8-5.6,7.7-10.1
		c-0.2-5.1-3.5-10.4-10.4-10.5c-6-0.1-14.4-0.1-19.6,0.3c-8.1,0.7-17.4,4.5-17.4,27.4c0,17.3,2.3,33.3,18.9,33.3
		c22,0,78.7-0.2,87.5-0.5c8.4-0.2,12.7-7.1,12.7-13.8c0-5.9-3.7-12.9-14-13c-28.3-0.4-72.6,4.2-85.5,5.9c-3.8,0.5-5,3-4.8,4.9
		c0.2,2.1,1.9,4.2,5.4,4.1c10.4-0.5,84.2-3.7,84.9-3.7c1-0.1,1.9,0.7,1.9,1.7c0,1-0.7,1.9-1.7,1.9c-0.7,0-74.5,3.2-84.9,3.7
		c-5.6,0.3-8.8-3.5-9.2-7.4c-0.3-3.7,2-8.1,7.9-8.9c13-1.7,57.5-6.3,86-5.9c12,0.2,17.5,8.5,17.6,16.6
		C156.1,115.2,150.5,124.1,139.9,124.4z M46.8,91.8c-3.5,1.6-5.9,4.3-7.1,7.3c-0.4-3.1-0.5-6.8-0.5-11.2c0-1.3,0-2.6,0.1-3.7
		c0.4,1,0.9,1.9,1.5,2.8C42.3,89.2,44.4,90.8,46.8,91.8z"/>
</g>
</svg>
