<?xml version="1.0" encoding="utf-8"?>
<!-- Generator: Adobe Illustrator 26.4.1, SVG Export Plug-In . SVG Version: 6.00 Build 0)  -->
<svg version="1.1" xmlns="http://www.w3.org/2000/svg" xmlns:xlink="http://www.w3.org/1999/xlink" x="0px" y="0px"
	 viewBox="0 0 188.8 188.8" style="enable-background:new 0 0 188.8 188.8;" xml:space="preserve">
<style type="text/css">
	.st0{fill:#FFFFFF;}
</style>
<g id="Layer_1">
	<g id="Layer_1_00000005229031094308931370000011445008403914579873_">
		<g id="Layer_1_00000181086609520651811960000017092596182289659829_">
			<g id="Layer_1_00000031926790540154141290000006272209971105142423_">
			</g>
			<g id="ANIMATION">
			</g>
			<g id="FILL">
			</g>
			<g id="THIN">
			</g>
		</g>
	</g>
</g>
<g id="Icons">
	<path class="st0" d="M164,99.1c-0.3,11.4-0.8,29.3-1,37.5c-0.1,2.5-2.1,4.4-4.5,4.5c-10.6,0.2-38.2,0.8-59.4,0.6V97.1
		c0-5.9-4.8-10.6-10.6-10.6c-5.9,0-10.6,4.8-10.6,10.6V141c-23.3-2.4-38.9-17.8-44.2-43.4c-3.9-19-6.9-41-8.6-52
		c-0.5-3.3,2.5-6,5.7-5.2c23.7,6,101.8,25.9,114.2,29.6C159.4,74.4,164.4,84,164,99.1z"/>
</g>
<g id="Name">
</g>
</svg>
