<?xml version="1.0" encoding="utf-8"?>
<!-- Generator: Adobe Illustrator 26.4.1, SVG Export Plug-In . SVG Version: 6.00 Build 0)  -->
<svg version="1.1" xmlns="http://www.w3.org/2000/svg" xmlns:xlink="http://www.w3.org/1999/xlink" x="0px" y="0px"
	 viewBox="0 0 188.8 188.8" style="enable-background:new 0 0 188.8 188.8;" xml:space="preserve">
<style type="text/css">
	.st0{fill:#FFFFFF;}
</style>
<g id="Layer_1">
	<g id="Layer_1_00000031926790540154141290000006272209971105142423_">
	</g>
	<g id="ANIMATION">
	</g>
	<g id="FILL">
	</g>
	<g id="THIN">
	</g>
</g>
<g id="Icons">
	<path class="st0" d="M142.9,162.6h-28.6c-0.9,0-1.7-0.7-1.8-1.6L102.1,88h32.2l10.3,72.5C144.7,161.6,143.9,162.6,142.9,162.6"/>
	<path class="st0" d="M57.4,162.6H86c0.9,0,1.7-0.7,1.8-1.6L98.2,88H66l-10.3,72.5C55.5,161.6,56.4,162.6,57.4,162.6"/>
	<path class="st0" d="M65,94.1h38.6v-4.3H65.1c-2.1,0-3.8-1.5-4.2-3.5L50.8,27l-4.2,0.7l10.2,59.4C57.4,91.2,60.9,94.1,65,94.1"/>
</g>
</svg>
