<?xml version="1.0" encoding="utf-8"?>
<!-- Generator: Adobe Illustrator 26.4.1, SVG Export Plug-In . SVG Version: 6.00 Build 0)  -->
<svg version="1.1" xmlns="http://www.w3.org/2000/svg" xmlns:xlink="http://www.w3.org/1999/xlink" x="0px" y="0px"
	 viewBox="0 0 188.8 188.8" style="enable-background:new 0 0 188.8 188.8;" xml:space="preserve">
<style type="text/css">
	.st0{fill:#FFFFFF;}
</style>
<g id="Layer_1">
	<g id="Layer_1_00000005229031094308931370000011445008403914579873_">
		<g id="Layer_1_00000181086609520651811960000017092596182289659829_">
			<g id="Layer_1_00000031926790540154141290000006272209971105142423_">
			</g>
			<g id="ANIMATION">
			</g>
			<g id="FILL">
			</g>
			<g id="THIN">
			</g>
		</g>
	</g>
</g>
<g id="Icons">
	<path class="st0" d="M94.4,117.5c20.4,0,68.3-2,68.3-23c0-20.7-30.6-37.5-68.3-37.5c-37.7,0-68.3,16.8-68.3,37.5
		C26.1,115.5,74,117.5,94.4,117.5"/>
	<path class="st0" d="M94.4,133.4c-38.5,0-69.8-17.5-69.8-39c0-21.5,31.3-39,69.8-39c38.5,0,69.8,17.5,69.8,39
		C164.2,115.9,132.9,133.4,94.4,133.4z M94.4,58.4c-36.8,0-66.8,16.2-66.8,36c0,19.9,30,36,66.8,36c36.8,0,66.8-16.2,66.8-36
		C161.2,74.6,131.3,58.4,94.4,58.4z"/>
</g>
<g id="Name">
</g>
</svg>