<?xml version="1.0" encoding="utf-8"?>
<!-- Generator: Adobe Illustrator 26.4.1, SVG Export Plug-In . SVG Version: 6.00 Build 0)  -->
<svg version="1.1" xmlns="http://www.w3.org/2000/svg" xmlns:xlink="http://www.w3.org/1999/xlink" x="0px" y="0px"
	 viewBox="0 0 188.8 188.8" style="enable-background:new 0 0 188.8 188.8;" xml:space="preserve">
<style type="text/css">
	.st0{fill:#FFFFFF;}
</style>
<g id="Layer_1">
	<g id="Layer_1_00000181086609520651811960000017092596182289659829_">
		<g id="Layer_1_00000031926790540154141290000006272209971105142423_">
		</g>
		<g id="ANIMATION">
		</g>
		<g id="FILL">
		</g>
		<g id="THIN">
		</g>
	</g>
</g>
<g id="Icons">
	<path class="st0" d="M66,78.2c-4.6-4.5-7.6-9.9-8.7-16.2c-1.6-9.5,0.9-18,7.4-25.2c4.8-5.2,10.8-8.3,17.8-9.2
		c12.5-1.6,24.6,4.9,30.2,16.2c0.1,0.2,0.2,0.6,0.1,0.8c-2,4.8-3.3,9.8-4.4,14.8c-1.3,5.7-2.2,11.5-2.9,17.3c0,0.1,0,0.2-0.1,0.4
		c-5.8-4.9-12.4-7.4-19.9-7.2C77.9,70.1,71.5,72.9,66,78.2z"/>
	<path class="st0" d="M105.9,81.7c-1.4,1.8-2.9,3.5-4.2,5.3c-3.1,4.3-5.4,9-6.4,14.2c-1.4,7.1-0.4,13.9,3,20.4
		c0,0.1,0.1,0.1,0.1,0.2c-8.2,4.8-22.8,4.9-32.2-6.3c-9.4-11.2-7.7-27.7,3.6-37C81,69.5,97,71.3,105.9,81.7z"/>
	<path class="st0" d="M71.4,123.8c1.7,0.8,3.4,1.6,5.2,2.3c8,2.8,15.8,2.1,23.3-1.8c0.5-0.2,0.8-0.2,1.3-0.1c1.2,0.2,1.5,0.8,1.7,2
		c1.1,6.5,6.7,12,13.2,13c1.1,0.2,2.3,0.2,3.4,0.3c0.1,0,0.2,0,0.3,0c-0.9,9.8-8,19.3-18.8,22.4c-10.8,3-22.2-1.1-28.6-10.3
		C66.3,142.4,66.9,131.2,71.4,123.8z"/>
	<path class="st0" d="M146.9,70.2c-0.1,10.9-7.2,20.7-17.6,24.1c-0.4,0.1-0.7,0.1-1-0.3c-4.1-4.5-8.7-8.4-14.2-11.2
		c-1.6-0.8-3.3-1.4-4.9-2c-1-0.4-1.4-0.9-1.2-1.9c0.8-5.1,1.4-10.1,2.3-15.2c1-5.7,2.4-11.2,4.4-16.6c0.6-1.6,0.6-1.6,2.3-1.9
		c13.6-2.3,26.5,6.5,29.2,20.1C146.7,66.9,146.7,68.5,146.9,70.2z"/>
	<path class="st0" d="M128,102.2c0,2.3-0.3,4.5-1,6.7c-0.1,0.4-0.3,0.6-0.8,0.7c-5.9,1.4-11.5,3.5-16.5,6.8c-2.2,1.4-4.2,3.1-6,5.1
		c-0.3,0.3-0.5,0.3-0.9,0.2c-1.2-0.2-1.9-0.8-2.4-1.9c-1.8-3.6-2.9-7.4-3-11.4c-0.3-7.1,2-13.5,6.1-19.2c1.3-1.9,2.9-3.6,4.4-5.5
		c0.3-0.3,0.5-0.3,0.8-0.2c3.8,1.3,7.2,3.4,10.4,5.8c2.8,2.2,5.4,4.7,7.8,7.4c0.7,0.8,0.9,1.8,1,2.8
		C128.1,100.4,128,101.3,128,102.2z"/>
	<path class="st0" d="M119.1,136.5c-6.7,0.1-12.6-5.1-13.5-11.7c-0.1-0.6,0-1.1,0.5-1.6c2.3-2.5,5-4.4,8-6c4.1-2.2,8.5-3.8,13.1-4.8
		c0.3-0.1,0.6,0.1,0.8,0.2c2.6,2.1,4.1,4.9,4.5,8.2c0.7,5.2-1,9.6-5.1,12.9C125.1,135.5,122.2,136.5,119.1,136.5z"/>
	<path class="st0" d="M64.7,32.7C58,39,54.3,46.5,54,55.6c-0.3,9,2.7,16.9,8.9,23.5c-5.6-0.3-13.5-3.8-17.7-11.5
		c-4.5-8.2-4.3-16.4,0.7-24.4C50.8,35.4,59.1,32.6,64.7,32.7z"/>
	<path class="st0" d="M141.1,49.9c-7.4-6.8-16-9.1-25.8-7.3c-3.2-6.4-8.1-11.3-14.5-14.7C116.5,21.8,136.7,31,141.1,49.9z"/>
	<path class="st0" d="M48.9,76.4c4,3.2,8.6,5.1,13.8,5.7c-3.2,4.6-4.9,9.6-5.3,15.2C52.6,94.4,47.7,82.6,48.9,76.4z"/>
</g>
</svg>
