<?xml version="1.0" encoding="utf-8"?>
<!-- Generator: Adobe Illustrator 26.4.1, SVG Export Plug-In . SVG Version: 6.00 Build 0)  -->
<svg version="1.1" xmlns="http://www.w3.org/2000/svg" xmlns:xlink="http://www.w3.org/1999/xlink" x="0px" y="0px"
	 viewBox="0 0 188.8 188.8" style="enable-background:new 0 0 188.8 188.8;" xml:space="preserve">
<style type="text/css">
	.st0{fill:#FFFFFF;}
</style>
<g id="Layer_1">
	<g id="Layer_1_00000031926790540154141290000006272209971105142423_">
	</g>
	<g id="ANIMATION">
	</g>
	<g id="FILL">
	</g>
	<g id="THIN">
	</g>
</g>
<g id="Icons">
	<path class="st0" d="M44.1,112.2c3.7,0,7.4-0.1,11,0c3.3,0.1,6.5,0.4,9.7,1.5c1.2,0.4,2.2,1,3.1,1.9c1.2,1.2,1.2,2.8,0,4.1
		c-0.9,1-2,1.5-3.3,2c-2.8,1-5.8,1.4-8.8,1.4c-7.3,0.1-14.6,0.1-21.9,0.1c-3.4,0-6.8-0.3-10-1.4c-1.1-0.4-2.2-0.9-3.1-1.6
		c-1.8-1.4-1.8-3.4,0-4.9c1.5-1.2,3.3-1.8,5.1-2.2c2.7-0.6,5.5-0.8,8.2-0.8C37.4,112.1,40.8,112.1,44.1,112.2
		C44.1,112.1,44.1,112.2,44.1,112.2z"/>
	<path class="st0" d="M69.2,111c-3.5,0-7,0.1-10.6,0c-3.3-0.1-6.6-0.3-9.7-1.4c-1.1-0.4-2.1-0.9-3-1.6c-1.9-1.4-1.8-3.5,0-5
		c1.5-1.2,3.3-1.8,5.2-2.2c3-0.7,6-0.8,9.1-0.8c6.5,0,12.9,0,19.4,0c3.4,0,6.7,0.3,10,1.4c1.2,0.4,2.4,0.9,3.3,1.9
		c1.4,1.4,1.4,3.2-0.1,4.6c-1.2,1-2.5,1.6-4,2c-3.3,0.9-6.6,1.1-10,1.2C75.6,111.1,72.4,111.1,69.2,111
		C69.2,111.1,69.2,111,69.2,111z"/>
	<path class="st0" d="M94.4,112.2c3.7,0,7.3-0.1,11,0c3.2,0.1,6.4,0.3,9.4,1.4c1.1,0.4,2.2,1,3.1,1.7c1.6,1.3,1.6,3.2,0.1,4.6
		c-1.3,1.2-2.9,1.7-4.5,2.2c-3,0.8-6.1,1-9.2,1.1c-6.6,0-13.2,0.1-19.7,0c-3.6,0-7.3-0.3-10.7-1.6c-1-0.4-2-0.9-2.8-1.6
		c-1.7-1.4-1.6-3.3,0-4.7c1.2-1.1,2.8-1.7,4.3-2.1c3-0.8,6-1,9.1-1.1C87.7,112.1,91.1,112.1,94.4,112.2
		C94.4,112.1,94.4,112.2,94.4,112.2z"/>
	<path class="st0" d="M94.4,98.9c-3.7,0-7.5,0.1-11.2,0c-3.2-0.1-6.4-0.4-9.5-1.5c-1-0.4-2-0.9-2.8-1.6c-1.6-1.3-1.6-3.1-0.1-4.5
		c1.3-1.2,2.9-1.8,4.6-2.2c2.7-0.7,5.5-1,8.4-1c6.8-0.1,13.6-0.1,20.3,0c3.4,0,6.8,0.3,10.1,1.3c1.4,0.4,2.8,1,3.9,2.1
		c1.2,1.3,1.3,2.9,0,4.2c-0.9,1-2.2,1.6-3.4,2c-2.4,0.8-4.9,1.2-7.4,1.3C103,98.9,98.7,99,94.4,99C94.4,99,94.4,99,94.4,98.9z"/>
	<path class="st0" d="M119.6,111c-3.5,0-7.1,0.1-10.6,0c-3.3-0.1-6.5-0.4-9.6-1.4c-1.2-0.4-2.3-0.9-3.2-1.8c-1.6-1.4-1.6-3.2,0-4.6
		c1.4-1.3,3.1-1.8,4.9-2.3c3.1-0.8,6.3-0.9,9.5-1c6.5,0,13,0,19.4,0c3.5,0,7,0.3,10.3,1.5c1,0.4,2,0.9,2.8,1.6
		c1.7,1.3,1.6,3.2,0.1,4.6c-1.4,1.3-3.1,1.8-4.8,2.2c-3,0.7-6,0.9-9.1,1C126,111.1,122.8,111.1,119.6,111
		C119.6,111.1,119.6,111,119.6,111z"/>
	<path class="st0" d="M44.1,98.9c-3.7,0-7.5,0.1-11.2,0c-3.1-0.1-6.2-0.4-9.2-1.4c-1.2-0.4-2.3-0.9-3.2-1.8
		c-1.5-1.4-1.4-3.2,0.1-4.5c1.4-1.3,3.2-1.8,5-2.3c2.6-0.6,5.2-0.9,7.9-0.9c6.8,0,13.6-0.1,20.3,0c3.6,0,7.1,0.2,10.5,1.4
		c1.1,0.4,2.1,0.9,3.1,1.6c1.9,1.4,1.9,3.4,0.1,4.9c-1.5,1.3-3.3,1.8-5.2,2.2c-3,0.7-6.1,0.8-9.2,0.9C50.1,99,47.1,99,44.1,98.9
		C44.1,98.9,44.1,98.9,44.1,98.9z"/>
	<path class="st0" d="M144.7,112.2c3.7,0,7.4-0.1,11,0c3.1,0.1,6.1,0.3,9,1.3c1.1,0.4,2.2,0.9,3.1,1.5c2.1,1.5,2.1,3.7,0,5.3
		c-1.5,1.2-3.3,1.7-5.1,2.1c-2.7,0.6-5.4,0.8-8.2,0.8c-6.6,0-13.1,0.1-19.7,0c-3.5,0-7-0.3-10.4-1.4c-1.1-0.4-2.2-0.9-3.1-1.6
		c-1.8-1.4-1.8-3.4,0-4.9c1.4-1.1,3-1.7,4.7-2.1c2.8-0.7,5.8-0.9,8.7-1C138,112.1,141.4,112.1,144.7,112.2
		C144.7,112.1,144.7,112.2,144.7,112.2z"/>
	<path class="st0" d="M144.7,98.9c-3.7,0-7.5,0.1-11.2,0c-3.1-0.1-6.2-0.4-9.1-1.4c-1.2-0.4-2.4-1-3.3-1.9c-1.4-1.4-1.3-3.2,0.1-4.5
		c1.3-1.2,2.9-1.7,4.5-2.2c2.8-0.7,5.6-1,8.4-1c6.8,0,13.5-0.1,20.3,0c3.3,0,6.6,0.3,9.8,1.2c1.4,0.4,2.8,0.9,3.9,1.9
		c1.7,1.4,1.8,3.4,0,4.9c-1.5,1.3-3.3,1.8-5.2,2.2c-3,0.7-6.1,0.8-9.2,0.9C150.8,99,147.8,99,144.7,98.9
		C144.7,98.9,144.7,98.9,144.7,98.9z"/>
	<path class="st0" d="M119.5,86.8c-3.9,0-7.7,0.1-11.6,0c-3-0.1-6-0.4-8.8-1.4c-1.1-0.4-2.1-1-3-1.7c-1.7-1.3-1.7-3.3-0.1-4.7
		c1.4-1.3,3.2-1.8,5.1-2.3c2.8-0.7,5.7-0.9,8.6-0.9c6.6,0,13.1,0,19.7,0c3.4,0,6.7,0.3,10,1.3c1.4,0.4,2.7,1,3.7,2
		c1.5,1.4,1.5,3.2-0.1,4.6c-1.5,1.3-3.3,1.9-5.2,2.3c-2.7,0.6-5.5,0.8-8.3,0.9C126.2,86.9,122.9,86.8,119.5,86.8
		C119.5,86.8,119.5,86.8,119.5,86.8z"/>
	<path class="st0" d="M69.2,86.8c-3.9,0-7.8,0.1-11.6,0c-3.1-0.1-6.1-0.4-9.1-1.5c-1.1-0.4-2.2-1-3-1.9c-1.2-1.2-1.2-2.8,0-4.1
		c1.1-1.2,2.5-1.8,4-2.2c2.9-0.9,5.8-1.2,8.8-1.2c7-0.1,14-0.1,21,0c3.4,0,6.8,0.3,10.1,1.4c1,0.3,2,0.8,2.8,1.4
		c2.3,1.6,2.2,3.8,0,5.4c-1.3,0.9-2.7,1.4-4.2,1.8c-2.9,0.7-5.9,1-8.9,1C75.9,86.9,72.6,86.8,69.2,86.8
		C69.2,86.8,69.2,86.8,69.2,86.8z"/>
	<path class="st0" d="M157.3,111.2c-2.7-0.2-5.4-0.4-8-1.5c-1.2-0.5-2.2-1.1-3.1-2c-1.4-1.5-1.3-3,0.1-4.4c1.3-1.3,2.9-2,4.6-2.5
		c4.7-1.2,9.4-1.2,14,0.4c1.2,0.4,2.3,1,3.2,1.9c1.6,1.6,1.6,3.3-0.1,4.9c-1.6,1.4-3.5,2.2-5.5,2.5
		C160.8,110.9,159.1,111,157.3,111.2z"/>
	<path class="st0" d="M31.3,111.1c-2.5,0-5.4-0.2-8.1-1.5c-1-0.5-2-1.1-2.8-1.9c-1.4-1.3-1.3-2.8-0.1-4.2c1.2-1.3,2.7-2.1,4.4-2.6
		c4.7-1.3,9.4-1.3,14.1,0.2c1.5,0.5,2.8,1.2,3.9,2.4c1.2,1.4,1.2,2.7,0,4.1c-1.3,1.5-3.1,2.2-4.9,2.8
		C35.8,110.9,33.7,111.1,31.3,111.1z"/>
	<path class="st0" d="M32.3,75.8c1.9,0,4.6,0.3,7.1,1.3c1.2,0.5,2.2,1.1,3.1,2c1.5,1.5,1.5,3,0,4.6c-1.3,1.3-3,2.1-4.8,2.5
		c-4.7,1.1-9.4,1.1-14-0.5c-1.4-0.5-2.6-1.2-3.5-2.4c-1-1.3-1-2.5,0-3.8c1.1-1.3,2.6-2.1,4.1-2.6C26.7,76.1,29.1,75.8,32.3,75.8z"/>
	<path class="st0" d="M157.3,75.8c2.9,0,5.7,0.3,8.4,1.5c1,0.5,2,1.1,2.8,2c1.2,1.4,1.2,2.6,0,4c-0.9,1.1-2.1,1.8-3.4,2.3
		c-2.1,0.8-4.3,1.1-6.5,1.2c-2.9,0.1-5.7,0-8.5-1c-1.4-0.5-2.7-1.1-3.8-2.2c-1.5-1.5-1.5-3.1,0-4.6c1.5-1.5,3.4-2.3,5.4-2.6
		c1.8-0.3,3.7-0.5,5.5-0.7C157.3,75.7,157.3,75.8,157.3,75.8z"/>
</g>
</svg>
