<?xml version="1.0" encoding="utf-8"?>
<!-- Generator: Adobe Illustrator 26.4.1, SVG Export Plug-In . SVG Version: 6.00 Build 0)  -->
<svg version="1.1" xmlns="http://www.w3.org/2000/svg" xmlns:xlink="http://www.w3.org/1999/xlink" x="0px" y="0px"
	 viewBox="0 0 188.8 188.8" style="enable-background:new 0 0 188.8 188.8;" xml:space="preserve">
<style type="text/css">
	.st0{fill:#FFFFFF;}
</style>
<g id="Layer_1">
	<g id="Layer_1_00000005229031094308931370000011445008403914579873_">
		<g id="Layer_1_00000181086609520651811960000017092596182289659829_">
			<g id="Layer_1_00000031926790540154141290000006272209971105142423_">
			</g>
			<g id="ANIMATION">
			</g>
			<g id="FILL">
			</g>
			<g id="THIN">
			</g>
		</g>
	</g>
</g>
<g id="Icons">
	<path class="st0" d="M135.9,174.9c-40.6,0-81.3,0-121.9,0c0-49.7,0-99.4,0-149c0.3,0.1,0.7,0.2,1,0.3C49.2,36,83.5,45.9,117.7,55.9
		c2,0.6,3.9,1.2,5.9,1.7c-1.6,0.2-3.2,0.2-4.8,0.2c-9.6-0.1-19.1,0.3-28.5,2.4c-4.2,0.9-8.4,2.2-11.9,4.8c-2.3,1.8-3.6,4.1-3.6,7.1
		c0,16.3,0,32.6,0,48.8c0,2.9,1,5.2,3.1,7.2c2.2,2.1,4.9,3.2,7.8,3.8c6.1,1.4,12.2,0.7,18.2-0.6c10-2.2,19.1-6.5,27.9-11.5
		c1.3-0.7,2.6-1.5,4.1-2.4c0,0.7,0,1.1,0,1.6c0,18.2,0,36.4,0,54.6C135.9,174,135.9,174.4,135.9,174.9z"/>
	<path class="st0" d="M135.9,64.8c0,0.6,0,1,0,1.4c0,14.9,0,29.8,0,44.6c0,0.9-0.2,1.4-1,1.9c-9.1,5.7-18.6,10.7-29.1,13.6
		c-5.2,1.4-10.5,2.3-16,1.8c-3.1-0.3-6.1-1-8.6-3c-1.2-1-1.9-2.3-1.9-4c0-13.5,0-27,0-40.4c0-0.2,0-0.5,0.1-0.6
		c1.8,0.7,3.5,1.5,5.3,1.9c4.6,1.1,9.1,0.4,13.7-0.6c8.6-1.9,16.5-5.4,24.3-9.4c4.2-2.1,8.3-4.5,12.4-6.8
		C135.3,65.1,135.5,65,135.9,64.8z"/>
</g>
<g id="Name">
</g>
</svg>
