<?xml version="1.0" encoding="utf-8"?>
<!-- Generator: Adobe Illustrator 26.4.1, SVG Export Plug-In . SVG Version: 6.00 Build 0)  -->
<svg version="1.1" id="Layer_1" xmlns="http://www.w3.org/2000/svg" xmlns:xlink="http://www.w3.org/1999/xlink" x="0px" y="0px"
	 viewBox="0 0 188.8 188.8" style="enable-background:new 0 0 188.8 188.8;" xml:space="preserve">
<style type="text/css">
	.st0{fill:#FFFFFF;}
</style>
<g id="Layer_1_00000005229031094308931370000011445008403914579873_">
	<g id="Layer_1_00000181086609520651811960000017092596182289659829_">
		<g id="Layer_1_00000031926790540154141290000006272209971105142423_">
		</g>
		<g id="ANIMATION">
		</g>
		<g id="FILL">
		</g>
		<g id="THIN">
		</g>
	</g>
</g>
<rect x="93.7" class="st0" width="5" height="27.7"/>
<path class="st0" d="M117.2,34.5c-3.9-3.9-11.7-6.8-21-6.8s-17.4,2.8-21.1,6.8H117.2z"/>
<path class="st0" d="M138.8,91c-1.3-18-10.6-42-18.8-53.2h-13c0,5.3-4.8,9.6-10.8,9.6s-10.8-4.3-10.8-9.6H72
	c-4.9,5.5-15.5,18.9-20.3,37.3c-6.4,24.5-8.5,41.3,10.4,60.9c19,19.6,40.9,25.6,54.8,16.2C130.9,142.8,140.2,110.7,138.8,91z"/>
</svg>
