<?xml version="1.0" encoding="utf-8"?>
<!-- Generator: Adobe Illustrator 26.4.1, SVG Export Plug-In . SVG Version: 6.00 Build 0)  -->
<svg version="1.1" xmlns="http://www.w3.org/2000/svg" xmlns:xlink="http://www.w3.org/1999/xlink" x="0px" y="0px"
	 viewBox="0 0 188.8 188.8" style="enable-background:new 0 0 188.8 188.8;" xml:space="preserve">
<style type="text/css">
	.st0{fill:#FFFFFF;}
</style>
<g id="Layer_1">
	<g id="Layer_1_00000005229031094308931370000011445008403914579873_">
		<g id="Layer_1_00000181086609520651811960000017092596182289659829_">
			<g id="Layer_1_00000031926790540154141290000006272209971105142423_">
			</g>
			<g id="ANIMATION">
			</g>
			<g id="FILL">
			</g>
			<g id="THIN">
			</g>
		</g>
	</g>
</g>
<g id="Icons">
	<g>
		<path class="st0" d="M60.4,168.9h-2.6l0.1-2.6c0.4-9.2-0.1-18.2-1.2-19.7l-0.7-0.7l0-0.9c-0.2-12.1-1.4-26.5-3-28.8l-0.8-0.6
			l0-1.2c-0.4-17.3-1.9-37.6-3.5-40.2l-0.5-0.6l0-0.7l-4.6-53h50.9v5H48.9l4,47.1c2.8,5.7,3.8,27.8,4.2,41.6
			c2.7,4.6,3.6,18.8,3.9,30.7c2,3.7,2.2,12.8,2,19.5c1.6-0.3,3.5-1,4.2-2.3l2.2-3.9l2.1,4c1.5,2.8,6.7,2.5,6.8,2.5l0.2,0h15.9v5
			H78.6c-0.9,0-5.9,0.2-9.3-2.6C65.9,168.8,61.1,168.9,60.4,168.9z"/>
		<path class="st0" d="M127.9,169c-1.6,0-5.6-0.2-8.4-2.5c-3.4,2.7-8.4,2.5-9.2,2.5H94.4v-5l16.1,0c0,0,5.3,0.3,6.8-2.5l2.2-4.1
			l2.2,4.1c0.8,1.5,2.6,2.1,4.2,2.3c-0.2-6.8-0.1-15.9,2-19.6c0.2-11.9,1.1-26.1,3.9-30.7c0.4-13.8,1.4-35.9,4.2-41.6l4-47.1H94.4
			v-5h50.9l-4.6,53.8l-0.5,0.6c-1.6,2.5-3.1,22.8-3.5,40.1l0,1.2l-0.8,0.6c-1.6,2.3-2.8,16.6-3,28.8l0,1l-0.7,0.7
			c-1.2,1.6-1.6,11.5-1.2,19.7l0.1,2.4l-2.4,0.2C128.5,168.9,128.3,169,127.9,169z"/>
		<rect x="50.6" y="70.2" class="st0" width="87.7" height="5"/>
		<rect x="54.7" y="111.8" class="st0" width="79.4" height="5"/>
		<rect x="58.5" y="142.5" class="st0" width="71.7" height="5"/>
	</g>
</g>
<g id="Name">
</g>
</svg>
