<?xml version="1.0" encoding="utf-8"?>
<!-- Generator: Adobe Illustrator 26.4.1, SVG Export Plug-In . SVG Version: 6.00 Build 0)  -->
<svg version="1.1" xmlns="http://www.w3.org/2000/svg" xmlns:xlink="http://www.w3.org/1999/xlink" x="0px" y="0px"
	 viewBox="0 0 188.8 188.8" style="enable-background:new 0 0 188.8 188.8;" xml:space="preserve">
<style type="text/css">
	.st0{fill:#FFFFFF;}
</style>
<g id="Layer_1">
	<g id="Layer_1_00000181086609520651811960000017092596182289659829_">
		<g id="Layer_1_00000031926790540154141290000006272209971105142423_">
		</g>
		<g id="ANIMATION">
		</g>
		<g id="FILL">
		</g>
		<g id="THIN">
		</g>
	</g>
</g>
<g id="Icons">
	<g>
		<path class="st0" d="M118.3,157.6c-0.5,0-1.1,0-1.6,0c-7.8-0.3-14.9-2.7-20.5-6.9c-5.3-4-9-9.4-10.4-15.4
			c-2.6-10.9,2.7-21.2,14-27.5c12.2-6.7,25.5-4.3,32,0.4c0.1-1.4,0.1-2.9,0.2-4.2c0.2-5.7,3-46.4,3-46.8c0-0.6,0-1-0.1-1.2
			c-4-1.1-17.4-4.9-27.2-7.8c1.4,2.9,2.3,6.1,2.3,9.6c0.1,6.6-2.7,16-16.9,23.4c-0.1,0-0.1,0.1-0.2,0.1c-19.2,8.6-35.9,2.5-44.4-5.4
			C41,69,38.3,59.8,41.3,51.4c4.7-13.2,22.4-21.1,36-20.2c1.9,0.1,3.3,1.7,3.2,3.6c-0.1,1.9-1.7,3.3-3.6,3.2
			C66,37.3,51.3,43.6,47.7,53.7c-2,5.8,0,12.2,5.4,17.2c7,6.5,20.9,11.4,37,4.2c8.7-4.5,13.3-10.5,13.1-17.2
			c-0.1-6.4-4.4-11.8-7.2-13.1c-1.6-0.7-2.4-2.6-1.7-4.3c0.6-1.7,2.4-2.6,4.1-2.1c0.3,0.1,32.2,9.4,38.3,11c3.4,0.9,5.3,4,5.1,8.2
			c-0.3,4.1-2.8,41.4-3,46.6c-0.3,7.5-0.5,11.3-3.7,12.5c-2.9,1.1-5.3-1.3-6.3-2.3c-3.4-3.5-14.9-6.7-25.6-0.7
			c-8.6,4.7-12.6,12.2-10.7,20c1.9,7.8,10.4,16.5,24.7,17.1c10.9,0.4,17.1-4.5,20.3-8.8c4.1-5.5,5.1-11.8,4.4-13.8
			c-0.6-1.8,0.4-3.7,2.2-4.3c1.8-0.6,3.7,0.4,4.3,2.2c1.4,4.4,0,12.9-5.5,20C138.7,151.4,131.2,157.6,118.3,157.6z"/>
	</g>
</g>
</svg>
