<?xml version="1.0" encoding="utf-8"?>
<!-- Generator: Adobe Illustrator 26.4.1, SVG Export Plug-In . SVG Version: 6.00 Build 0)  -->
<svg version="1.1" xmlns="http://www.w3.org/2000/svg" xmlns:xlink="http://www.w3.org/1999/xlink" x="0px" y="0px"
	 viewBox="0 0 188.8 188.8" style="enable-background:new 0 0 188.8 188.8;" xml:space="preserve">
<style type="text/css">
	.st0{fill:#FFFFFF;}
</style>
<g id="Layer_1">
	<g id="Layer_1_00000031926790540154141290000006272209971105142423_">
	</g>
	<g id="ANIMATION">
	</g>
	<g id="FILL">
	</g>
	<g id="THIN">
	</g>
</g>
<g id="Icons">
	<path class="st0" d="M130.4,96.9v28.6h28.6c4.5-4.5,4.5-24.2,0-28.6H130.4z"/>
	<path class="st0" d="M159.1,159.1c4.5-4.5,4.5-24.2,0-28.6h-28.6v28.6C134.9,163.5,154.6,163.5,159.1,159.1"/>
	<path class="st0" d="M125.5,130.4H96.9v28.6c4.5,4.5,24.2,4.5,28.6,0V130.4z"/>
	<rect x="96.9" y="96.9" class="st0" width="28.6" height="28.6"/>
	<path class="st0" d="M58.4,96.9v28.6H29.8c-4.5-4.5-4.5-24.2,0-28.6H58.4z"/>
	<path class="st0" d="M29.8,159.1c-4.5-4.5-4.5-24.2,0-28.6h28.6v28.6C54,163.5,34.2,163.5,29.8,159.1"/>
	<path class="st0" d="M63.3,130.4H92v28.6c-4.5,4.5-24.2,4.5-28.6,0V130.4z"/>
	<rect x="63.3" y="96.9" class="st0" width="28.6" height="28.6"/>
	<path class="st0" d="M130.4,92V63.3h28.6c4.5,4.5,4.5,24.2,0,28.6H130.4z"/>
	<path class="st0" d="M159.1,29.8c4.5,4.5,4.5,24.2,0,28.6h-28.6V29.8C134.9,25.3,154.6,25.3,159.1,29.8"/>
	<path class="st0" d="M125.5,58.4H96.9V29.8c4.5-4.5,24.2-4.5,28.6,0V58.4z"/>
	<rect x="96.9" y="63.3" class="st0" width="28.6" height="28.6"/>
	<path class="st0" d="M58.4,92V63.3H29.8c-4.5,4.5-4.5,24.2,0,28.6H58.4z"/>
	<path class="st0" d="M29.8,29.8c-4.5,4.5-4.5,24.2,0,28.6h28.6V29.8C54,25.3,34.2,25.3,29.8,29.8"/>
	<path class="st0" d="M63.3,58.4H92V29.8c-4.5-4.5-24.2-4.5-28.6,0V58.4z"/>
	<rect x="63.3" y="63.3" class="st0" width="28.6" height="28.6"/>
</g>
</svg>
