<?xml version="1.0" encoding="utf-8"?>
<!-- Generator: Adobe Illustrator 26.4.1, SVG Export Plug-In . SVG Version: 6.00 Build 0)  -->
<svg version="1.1" xmlns="http://www.w3.org/2000/svg" xmlns:xlink="http://www.w3.org/1999/xlink" x="0px" y="0px"
	 viewBox="0 0 188.8 188.8" style="enable-background:new 0 0 188.8 188.8;" xml:space="preserve">
<style type="text/css">
	.st0{fill:#FFFFFF;}
	.st1{fill:none;stroke:#FFFFFF;stroke-width:1.3715;stroke-miterlimit:10;}
</style>
<g id="Layer_1">
	<g id="Layer_1_00000005229031094308931370000011445008403914579873_">
		<g id="Layer_1_00000181086609520651811960000017092596182289659829_">
			<g id="Layer_1_00000031926790540154141290000006272209971105142423_">
			</g>
			<g id="ANIMATION">
			</g>
			<g id="FILL">
			</g>
			<g id="THIN">
			</g>
		</g>
	</g>
</g>
<g id="Icons">
	<g>
		<polygon class="st0" points="30.4,108.4 9.2,108.4 6.5,81.8 33.1,81.8 		"/>
		<polygon class="st0" points="30.4,171.2 9.2,171.2 6.5,144.6 33.1,144.6 		"/>
		<polygon class="st0" points="30.4,48.2 9.2,48.2 6.5,21.6 33.1,21.6 		"/>
		<line class="st1" x1="6.5" y1="184.1" x2="6.5" y2="4.7"/>
		<line class="st1" x1="33.1" y1="184.1" x2="33.1" y2="4.7"/>
		<polygon class="st0" points="68.2,78.1 46.9,78.1 44.3,51.5 70.9,51.5 		"/>
		<polygon class="st0" points="68.2,140.4 46.9,140.4 44.3,113.8 70.9,113.8 		"/>
		<line class="st1" x1="44.3" y1="184.1" x2="44.3" y2="4.7"/>
		<line class="st1" x1="70.9" y1="184.1" x2="70.9" y2="4.7"/>
		<polygon class="st0" points="143.5,78.1 122.3,78.1 119.6,51.5 146.2,51.5 		"/>
		<polygon class="st0" points="143.5,140.4 122.3,140.4 119.6,113.8 146.2,113.8 		"/>
		<line class="st1" x1="119.6" y1="184.1" x2="119.6" y2="4.7"/>
		<line class="st1" x1="146.2" y1="184.1" x2="146.2" y2="4.7"/>
		<polygon class="st0" points="105.1,108.4 83.9,108.4 81.2,81.8 107.8,81.8 		"/>
		<polygon class="st0" points="105.1,171.2 83.9,171.2 81.2,144.6 107.8,144.6 		"/>
		<polygon class="st0" points="105.1,48.2 83.9,48.2 81.2,21.6 107.8,21.6 		"/>
		<line class="st1" x1="81.2" y1="184.1" x2="81.2" y2="4.7"/>
		<line class="st1" x1="107.8" y1="184.1" x2="107.8" y2="4.7"/>
		<polygon class="st0" points="179.6,108.4 158.4,108.4 155.7,81.8 182.3,81.8 		"/>
		<polygon class="st0" points="179.6,171.2 158.4,171.2 155.7,144.6 182.3,144.6 		"/>
		<polygon class="st0" points="179.6,48.2 158.4,48.2 155.7,21.6 182.3,21.6 		"/>
		<line class="st1" x1="155.7" y1="184.1" x2="155.7" y2="4.7"/>
		<line class="st1" x1="182.3" y1="184.1" x2="182.3" y2="4.7"/>
	</g>
</g>
<g id="Name">
</g>
</svg>
