<?xml version="1.0" encoding="utf-8"?>
<!-- Generator: Adobe Illustrator 26.4.1, SVG Export Plug-In . SVG Version: 6.00 Build 0)  -->
<svg version="1.1" xmlns="http://www.w3.org/2000/svg" xmlns:xlink="http://www.w3.org/1999/xlink" x="0px" y="0px"
	 viewBox="0 0 188.8 188.8" style="enable-background:new 0 0 188.8 188.8;" xml:space="preserve">
<style type="text/css">
	.st0{fill:#FFFFFF;}
</style>
<g id="Layer_1">
	<g id="Layer_1_00000031926790540154141290000006272209971105142423_">
	</g>
	<g id="ANIMATION">
	</g>
	<g id="FILL">
	</g>
	<g id="THIN">
	</g>
</g>
<g id="Icons">
	<path class="st0" d="M86.1,99.1l5.8,3.5l-48.6,28.8c-0.5,0.3-1,0.4-1.5,0.4c-1,0-2-0.5-2.6-1.5c-0.8-1.4-0.4-3.2,1-4.1L86.1,99.1z"
		/>
	<polygon class="st0" points="96.9,92.6 131.5,72.1 143.1,72.1 102.8,96.1 	"/>
	<path class="st0" d="M149.6,130.3c-0.5,0.9-1.5,1.5-2.6,1.5c-0.5,0-1-0.1-1.5-0.4l-48.6-28.8l-1.3-0.7l-1.3-0.8l-5.8-3.5l-1.3-0.8
		l-1.2-0.7L45.7,72.1h11.7l34.5,20.5l1.2,0.7l1.3,0.8l5.8,3.5l1.3,0.8l1.2,0.7l45.8,27.2C150,127.1,150.5,128.9,149.6,130.3z"/>
	<rect x="25.3" y="60.8" class="st0" width="138.3" height="8.7"/>
</g>
</svg>
