<?xml version="1.0" encoding="UTF-8"?><svg id="Icons" xmlns="http://www.w3.org/2000/svg" viewBox="0 0 188.85 188.85"><defs><style>.cls-1{fill:#fff;stroke-width:0px;}</style></defs><rect class="cls-1" x="128.2" y="143.08" width="8.61" height="20.16"/><rect class="cls-1" x="138.49" y="164.91" width="8.61" height="5.73"/><rect class="cls-1" x="138.49" y="109.42" width="8.61" height="31.99"/><rect class="cls-1" x="148.77" y="109.42" width="5.52" height="31.99"/><rect class="cls-1" x="148.77" y="164.91" width="5.52" height="5.73"/><rect class="cls-1" x="148.77" y="143.08" width="5.52" height="20.16"/><rect class="cls-1" x="138.49" y="143.08" width="8.61" height="20.16"/><rect class="cls-1" x="128.2" y="109.42" width="8.61" height="31.99"/><rect class="cls-1" x="121" y="164.91" width="5.52" height="5.73"/><path class="cls-1" d="M130.1,55.35v52.4h15.1v-52.4c0-20.51-16.63-37.14-37.14-37.14h-36.49c-20.51,0-37.14,16.63-37.14,37.14v7.4h15.1v-7.4c0-12.17,9.87-22.05,22.05-22.05h36.49c12.17,0,22.05,9.87,22.05,22.05h-.03Z"/><rect class="cls-1" x="128.2" y="164.91" width="8.61" height="5.73"/><rect class="cls-1" x="121" y="143.08" width="5.52" height="20.16"/><rect class="cls-1" x="121" y="109.42" width="5.52" height="31.99"/><rect class="cls-1" x="128.19" y="143.08" width="8.62" height="20.15"/><rect class="cls-1" x="138.48" y="164.91" width="8.62" height="5.73"/><rect class="cls-1" x="138.48" y="109.42" width="8.62" height="31.99"/><rect class="cls-1" x="148.77" y="109.42" width="5.52" height="31.99"/><rect class="cls-1" x="148.77" y="164.91" width="5.52" height="5.73"/><rect class="cls-1" x="148.77" y="143.08" width="5.52" height="20.15"/><rect class="cls-1" x="138.48" y="143.08" width="8.62" height="20.15"/><rect class="cls-1" x="128.19" y="109.42" width="8.62" height="31.99"/><rect class="cls-1" x="121" y="164.91" width="5.52" height="5.73"/><path class="cls-1" d="M130.1,55.35v52.4h15.09v-52.4c0-20.51-16.63-37.14-37.14-37.14h-36.49c-20.51,0-37.14,16.63-37.14,37.14v7.4h15.09v-7.4c0-12.18,9.87-22.05,22.05-22.05h36.49c12.18,0,22.05,9.87,22.05,22.05Z"/><rect class="cls-1" x="128.19" y="164.91" width="8.62" height="5.73"/><rect class="cls-1" x="121" y="143.08" width="5.52" height="20.15"/><rect class="cls-1" x="121" y="109.42" width="5.52" height="31.99"/></svg>