<?xml version="1.0" encoding="UTF-8"?>
<svg xmlns="http://www.w3.org/2000/svg" xmlns:xlink="http://www.w3.org/1999/xlink" viewBox="0 0 150 150">
  <defs>
    <style>
      .cls-1 {
        stroke: #000;
        stroke-width: .77px;
      }

      .cls-1, .cls-2 {
        fill: none;
        stroke-miterlimit: 10;
      }

      .cls-3 {
        fill: #fff;
      }

      .cls-2 {
        stroke: url(#linear-gradient);
        stroke-width: .5px;
      }
    </style>
    <linearGradient id="linear-gradient" x1="35.79" y1="75.64" x2="131.25" y2="75.64" gradientUnits="userSpaceOnUse">
      <stop offset="0" stop-color="#fff"/>
      <stop offset=".13" stop-color="#ccc"/>
      <stop offset=".31" stop-color="#8f8f8f"/>
      <stop offset=".48" stop-color="#5c5c5c"/>
      <stop offset=".64" stop-color="#343434"/>
      <stop offset=".78" stop-color="#171717"/>
      <stop offset=".91" stop-color="#060606"/>
      <stop offset="1" stop-color="#000"/>
    </linearGradient>
  </defs>
  <g id="background">
    <rect width="150" height="150"/>
  </g>
  <g id="ICON">
    <g id="Layer_4" data-name="Layer 4">
      <path class="cls-3" d="M107.77,52.54l-2.53-.79c-.84-.26-1.69-.53-2.53-.79l-2.53-.79c-.84-.26-1.69-.53-2.53-.79-.84-.26-1.69-.53-2.53-.79-.84-.26-1.69-.53-2.53-.79-.84-.26-1.69-.53-2.53-.79-.84-.26-1.69-.53-2.53-.79-.84-.26-1.69-.53-2.53-.79-.84-.26-1.69-.53-2.53-.79-.84-.26-1.69-.53-2.53-.79-.84-.26-1.69-.53-2.53-.79-.84-.26-1.69-.53-2.53-.79-.84-.26-1.69-.53-2.53-.79-.84-.27-1.69-.53-2.53-.8s-1.69-.53-2.53-.79-1.69-.52-2.54-.76c-.85-.24-1.7-.47-2.57-.67-.86-.2-1.73-.36-2.61-.49-.87-.13-1.75-.23-2.64-.29s-1.77-.1-2.65-.1c-.88,0-1.77.03-2.65.09s-1.76.15-2.64.27c-.88.12-1.75.27-2.61.46-.86.18-1.72.4-2.57.64-.85.24-1.69.52-2.52.82-.83.3-1.65.64-2.46,1-.81.36-1.6.75-2.38,1.17-.78.42-1.54.86-2.29,1.34-.75.47-1.48.97-2.19,1.49-.71.52-1.41,1.07-2.08,1.64-.67.57-1.33,1.17-1.96,1.79-.63.62-1.24,1.26-1.83,1.92-.59.66-1.15,1.35-1.69,2.05-.54.7-1.05,1.42-1.54,2.16-.49.74-.95,1.49-1.38,2.26-.43.77-.84,1.56-1.22,2.36-.38.8-.73,1.61-1.05,2.44-.32.82-.61,1.66-.87,2.5s-.49,1.7-.69,2.56c-.2.86-.37,1.73-.51,2.6-.14.87-.25,1.75-.33,2.63s-.12,1.76-.14,2.65,0,1.77.05,2.65c.05.88.13,1.76.24,2.64.11.88.25,1.75.42,2.62.17.87.37,1.73.6,2.58.23.85.49,1.7.79,2.53.29.83.61,1.66.97,2.47.35.81.73,1.61,1.14,2.4s.84,1.56,1.3,2.31c.46.75.95,1.49,1.46,2.21.51.72,1.05,1.42,1.62,2.1.56.68,1.15,1.34,1.76,1.98s1.24,1.26,1.89,1.85c.65.6,1.33,1.17,2.02,1.72s1.41,1.07,2.14,1.57c.73.5,1.48.97,2.24,1.41.76.44,1.54.86,2.34,1.25s1.6.75,2.42,1.08c.82.33,1.65.64,2.49.91.84.27,1.69.52,2.55.73.86.21,1.72.39,2.59.55s1.75.27,2.63.37c.88.09,1.76.15,2.65.18.88.03,1.77.02,2.65-.01.88-.04,1.77-.1,2.64-.2s1.75-.23,2.62-.39c.87-.16,1.73-.35,2.59-.57.86-.22,1.71-.47,2.54-.75s1.67-.59,2.48-.92c.82-.34,1.62-.71,2.41-1.11s1.56-.83,2.32-1.28c.76-.45,1.51-.92,2.26-1.39.75-.47,1.49-.95,2.24-1.42.74-.48,1.49-.95,2.23-1.43.74-.48,1.49-.95,2.23-1.43.75-.48,1.49-.95,2.24-1.43.75-.48,1.49-.95,2.23-1.43.74-.48,1.49-.95,2.23-1.43.74-.48,1.49-.95,2.23-1.43.74-.48,1.49-.95,2.23-1.43.74-.48,1.49-.95,2.23-1.43.74-.48,1.49-.95,2.23-1.43.74-.48,1.49-.95,2.23-1.43s1.49-.95,2.23-1.43,1.49-.95,2.23-1.43c.74-.48,1.49-.95,2.23-1.43.74-.48,1.49-.95,2.23-1.43.74-.48,1.49-.95,2.23-1.43.74-.48,1.49-.95,2.23-1.43.74-.48,1.49-.95,2.23-1.43.74-.48,1.49-.95,2.23-1.43.74-.48,1.49-.95,2.23-1.43.74-.48,1.49-.95,2.23-1.43.74-.48,1.49-.95,2.23-1.43.74-.48,1.49-.95,2.23-1.43,2.77-1.62,5.2-5.05,6.04-8.65.84-3.6.08-7.37-1.84-10.38-1.93-3.02-5.03-5.29-8.65-6.04-3.62-.75-7.75.01-10.38,1.84-.59.37-1.17.75-1.76,1.12-.59.37-1.17.75-1.76,1.12-.59.37-1.17.75-1.76,1.12-.59.37-1.17.75-1.76,1.12-.59.37-1.17.75-1.76,1.12-.59.37-1.17.75-1.76,1.12-.59.37-1.17.75-1.76,1.12-.59.37-1.17.75-1.76,1.12-.59.37-1.17.75-1.76,1.12-.59.37-1.17.75-1.76,1.12-.59.37-1.17.75-1.76,1.12-.59.37-1.17.75-1.76,1.12-.59.37-1.17.75-1.76,1.12-.59.37-1.17.75-1.76,1.12s-1.17.75-1.76,1.12c-.59.37-1.17.75-1.76,1.12-.59.37-1.17.75-1.76,1.12s-1.17.75-1.76,1.12-1.17.75-1.76,1.12-1.17.75-1.76,1.12c-.59.37-1.17.75-1.76,1.12-.59.37-1.17.75-1.76,1.12-.59.37-1.17.75-1.76,1.12-.59.37-1.17.75-1.76,1.12-.59.37-1.17.75-1.76,1.12s-1.17.75-1.76,1.12c-.59.37-1.17.75-1.76,1.12-.59.38-1.17.76-1.81,1.03-.64.27-1.33.42-2.02.47-.69.05-1.39-.01-2.07-.18-.67-.17-1.32-.44-1.91-.81-.59-.37-1.12-.83-1.56-1.36s-.81-1.14-1.07-1.78c-.26-.64-.42-1.33-.46-2.02s.02-1.39.19-2.07c.17-.67.45-1.32.82-1.91.37-.59.83-1.12,1.37-1.56.53-.44,1.14-.8,1.78-1.06.65-.26,1.33-.41,2.03-.46.69-.04,1.39.03,2.07.17s1.34.37,2,.58,1.33.42,1.99.63c.66.21,1.33.42,1.99.63.66.21,1.33.42,1.99.63.66.21,1.33.42,1.99.63.66.21,1.33.42,1.99.63.66.21,1.33.42,1.99.62l31.84-20.33Z"/>
      <path class="cls-1" d="M107.77,52.54l-2.53-.79c-.84-.26-1.69-.53-2.53-.79l-2.53-.79c-.84-.26-1.69-.53-2.53-.79-.84-.26-1.69-.53-2.53-.79-.84-.26-1.69-.53-2.53-.79-.84-.26-1.69-.53-2.53-.79-.84-.26-1.69-.53-2.53-.79-.84-.26-1.69-.53-2.53-.79-.84-.26-1.69-.53-2.53-.79-.84-.26-1.69-.53-2.53-.79-.84-.26-1.69-.53-2.53-.79-.84-.26-1.69-.53-2.53-.79-.84-.26-1.69-.53-2.53-.79-.84-.27-1.69-.53-2.53-.8s-1.69-.53-2.53-.79-1.69-.52-2.54-.76c-.85-.24-1.7-.47-2.57-.67-.86-.2-1.73-.36-2.61-.49-.87-.13-1.75-.23-2.64-.29s-1.77-.1-2.65-.1c-.88,0-1.77.03-2.65.09s-1.76.15-2.64.27c-.88.12-1.75.27-2.61.46-.86.18-1.72.4-2.57.64-.85.24-1.69.52-2.52.82-.83.3-1.65.64-2.46,1-.81.36-1.6.75-2.38,1.17-.78.42-1.54.86-2.29,1.34-.75.47-1.48.97-2.19,1.49-.71.52-1.41,1.07-2.08,1.64-.67.57-1.33,1.17-1.96,1.79-.63.62-1.24,1.26-1.83,1.92-.59.66-1.15,1.35-1.69,2.05-.54.7-1.05,1.42-1.54,2.16-.49.74-.95,1.49-1.38,2.26-.43.77-.84,1.56-1.22,2.36-.38.8-.73,1.61-1.05,2.44-.32.82-.61,1.66-.87,2.5s-.49,1.7-.69,2.56c-.2.86-.37,1.73-.51,2.6-.14.87-.25,1.75-.33,2.63s-.12,1.76-.14,2.65,0,1.77.05,2.65c.05.88.13,1.76.24,2.64.11.88.25,1.75.42,2.62.17.87.37,1.73.6,2.58.23.85.49,1.7.79,2.53.29.83.61,1.66.97,2.47.35.81.73,1.61,1.14,2.4s.84,1.56,1.3,2.31c.46.75.95,1.49,1.46,2.21.51.72,1.05,1.42,1.62,2.1.56.68,1.15,1.34,1.76,1.98s1.24,1.26,1.89,1.85c.65.6,1.33,1.17,2.02,1.72s1.41,1.07,2.14,1.57c.73.5,1.48.97,2.24,1.41.76.44,1.54.86,2.34,1.25s1.6.75,2.42,1.08c.82.33,1.65.64,2.49.91.84.27,1.69.52,2.55.73.86.21,1.72.39,2.59.55s1.75.27,2.63.37c.88.09,1.76.15,2.65.18.88.03,1.77.02,2.65-.01.88-.04,1.77-.1,2.64-.2s1.75-.23,2.62-.39c.87-.16,1.73-.35,2.59-.57.86-.22,1.71-.47,2.54-.75s1.67-.59,2.48-.92c.82-.34,1.62-.71,2.41-1.11s1.56-.83,2.32-1.28c.76-.45,1.51-.92,2.26-1.39.75-.47,1.49-.95,2.24-1.42.74-.48,1.49-.95,2.23-1.43.74-.48,1.49-.95,2.23-1.43.75-.48,1.49-.95,2.24-1.43.75-.48,1.49-.95,2.23-1.43.74-.48,1.49-.95,2.23-1.43.74-.48,1.49-.95,2.23-1.43.74-.48,1.49-.95,2.23-1.43.74-.48,1.49-.95,2.23-1.43.74-.48,1.49-.95,2.23-1.43.74-.48,1.49-.95,2.23-1.43s1.49-.95,2.23-1.43,1.49-.95,2.23-1.43c.74-.48,1.49-.95,2.23-1.43.74-.48,1.49-.95,2.23-1.43.74-.48,1.49-.95,2.23-1.43.74-.48,1.49-.95,2.23-1.43.74-.48,1.49-.95,2.23-1.43.74-.48,1.49-.95,2.23-1.43.74-.48,1.49-.95,2.23-1.43.74-.48,1.49-.95,2.23-1.43.74-.48,1.49-.95,2.23-1.43.74-.48,1.49-.95,2.23-1.43,2.77-1.62,5.2-5.05,6.04-8.65.84-3.6.08-7.37-1.84-10.38-1.93-3.02-5.03-5.29-8.65-6.04-3.62-.75-7.75.01-10.38,1.84-.59.37-1.17.75-1.76,1.12-.59.37-1.17.75-1.76,1.12-.59.37-1.17.75-1.76,1.12-.59.37-1.17.75-1.76,1.12-.59.37-1.17.75-1.76,1.12-.59.37-1.17.75-1.76,1.12-.59.37-1.17.75-1.76,1.12-.59.37-1.17.75-1.76,1.12-.59.37-1.17.75-1.76,1.12-.59.37-1.17.75-1.76,1.12-.59.37-1.17.75-1.76,1.12-.59.37-1.17.75-1.76,1.12-.59.37-1.17.75-1.76,1.12-.59.37-1.17.75-1.76,1.12s-1.17.75-1.76,1.12c-.59.37-1.17.75-1.76,1.12-.59.37-1.17.75-1.76,1.12s-1.17.75-1.76,1.12-1.17.75-1.76,1.12-1.17.75-1.76,1.12c-.59.37-1.17.75-1.76,1.12-.59.37-1.17.75-1.76,1.12-.59.37-1.17.75-1.76,1.12-.59.37-1.17.75-1.76,1.12-.59.37-1.17.75-1.76,1.12s-1.17.75-1.76,1.12c-.59.37-1.17.75-1.76,1.12-.59.38-1.17.76-1.81,1.03-.64.27-1.33.42-2.02.47-.69.05-1.39-.01-2.07-.18-.67-.17-1.32-.44-1.91-.81-.59-.37-1.12-.83-1.56-1.36s-.81-1.14-1.07-1.78c-.26-.64-.42-1.33-.46-2.02s.02-1.39.19-2.07c.17-.67.45-1.32.82-1.91.37-.59.83-1.12,1.37-1.56.53-.44,1.14-.8,1.78-1.06.65-.26,1.33-.41,2.03-.46.69-.04,1.39.03,2.07.17s1.34.37,2,.58,1.33.42,1.99.63c.66.21,1.33.42,1.99.63.66.21,1.33.42,1.99.63.66.21,1.33.42,1.99.63.66.21,1.33.42,1.99.63.66.21,1.33.42,1.99.62l31.84-20.33Z"/>
      <path class="cls-2" d="M131.12,53.98c-.54.34-1.08.69-1.62,1.03-.54.34-1.08.69-1.62,1.03-.54.34-1.08.69-1.62,1.03-.54.34-1.08.69-1.62,1.03-.54.34-1.08.69-1.62,1.03-.54.34-1.08.69-1.62,1.03-.54.34-1.08.69-1.62,1.03s-1.08.69-1.62,1.03-1.08.69-1.62,1.03-1.08.69-1.62,1.03c-.54.34-1.08.69-1.62,1.03-.54.34-1.08.69-1.62,1.03s-1.08.69-1.62,1.03l-1.62,1.03c-.54.34-1.08.69-1.62,1.03-.54.34-1.08.69-1.62,1.03-.54.34-1.08.69-1.62,1.03s-1.08.69-1.62,1.03l-1.62,1.03c-.54.34-1.08.69-1.62,1.03l-1.62,1.03c-.54.34-1.08.69-1.62,1.03s-1.08.69-1.62,1.03c-.54.34-1.08.69-1.62,1.03s-1.08.69-1.62,1.03c-.54.34-1.08.69-1.62,1.03-.54.34-1.08.69-1.62,1.03l-1.62,1.03c-.54.34-1.08.69-1.62,1.03l-1.62,1.03c-.54.34-1.08.69-1.62,1.03s-1.08.69-1.62,1.03c-.54.34-1.08.69-1.62,1.03s-1.08.69-1.62,1.03c-.54.34-1.08.69-1.62,1.03-.54.34-1.08.69-1.62,1.03-.54.34-1.08.69-1.62,1.03s-1.08.69-1.62,1.03c-.54.35-1.08.7-1.63,1.02-.55.33-1.12.63-1.69.9-.58.28-1.17.52-1.77.75-.6.22-1.21.42-1.83.58-.62.17-1.24.31-1.88.41-.63.11-1.27.19-1.91.24-.64.05-1.28.08-1.92.07-.64,0-1.28-.04-1.92-.11-.64-.07-1.27-.16-1.9-.28-.63-.12-1.25-.27-1.87-.45-.62-.18-1.22-.39-1.82-.62-.6-.23-1.18-.5-1.75-.78-.57-.29-1.13-.6-1.68-.94s-1.07-.7-1.58-1.09c-.51-.39-1-.8-1.48-1.23-.47-.43-.93-.88-1.36-1.36-.43-.47-.84-.96-1.23-1.47s-.75-1.04-1.09-1.58c-.34-.54-.66-1.1-.95-1.67s-.55-1.16-.79-1.75-.45-1.2-.63-1.82-.33-1.24-.46-1.87c-.12-.63-.22-1.26-.29-1.9-.07-.64-.11-1.28-.12-1.92,0-.64.01-1.28.06-1.92"/>
    </g>
  </g>
</svg>