<?xml version="1.0" encoding="UTF-8"?>
<svg id="LINES" xmlns="http://www.w3.org/2000/svg" version="1.1" viewBox="0 0 150 150">
  <!-- Generator: Adobe Illustrator 29.1.0, SVG Export Plug-In . SVG Version: 2.1.0 Build 142)  -->
  <defs>
    <style>
      .st0 {
        fill: #fff;
      }
    </style>
  </defs>
  <path class="st0" d="M133.83,94.2c.08,0,.17,0,.25,0h.07s0,0,0,0c0,0,0,0,.01,0,0,0,.01,0,.02,0,0,0,.01,0,.02,0s.01,0,.02,0c0,0,.01,0,.02,0,0,0,.01,0,.02.01,0,0,.01,0,.02.01,0,0,.01,0,.02.01.01.01.02.02.03.04.01.01.02.03.03.05,0,0,0,.02.01.03,0,0,0,0,0,.01,0,0,0,0,0,.01,0,.01,0,.02,0,.03,0,.01,0,.02,0,.03,0,.01,0,.02,0,.03,0,0,0,.02,0,.03,0,0,0,.02-.01.03,0,0,0,.02-.01.02,0,.02-.02.03-.03.04,0,0-.01.01-.02.02,0,0-.01.01-.02.02-.01,0-.03.02-.04.02,0,0-.01,0-.02,0,0,0-.01,0-.02,0,0,0-.01,0-.02,0,0,0-.01,0-.02,0,0,0,0,0-.01,0,0,0,0,0-.01,0h-.09s-.09,0-.13,0h-.09s0,0,0,0h0v.02h0s0,0,0,0h-.66s0,0,0,0h0v-.02h0s0,0,0,0h-.66s0,0,0,0h0v.02h0s0,0,0,0h-.66s0,0,0,0h0v-.02h0s0,0,0,0h-.66s0,0,0,0h0v.02h0s0,0,0,0h-.66v-.02h0s0,0,0,0h-.66s0,0,0,0h0v.02h0s0,0,0,0h-.66v-.02h0s0,0,0,0h-.66s0,0,0,0h0v.02h0s0,0,0,0h-.66s0,0,0,0h0v-.02h0s0,0,0,0h-.66v.02h0s0,0,0,0h-.66s0,0,0,0h0v-.02h0s0,0,0,0h-.66v.02h0s0,0,0,0h-.66v-.02h0s0,0,0,0h-.66v.02h0s0,0,0,0h-.66v-.02h0s0,0,0,0h-.66v.02h0s0,0,0,0h-.66v-.02h0s0,0,0,0h-.66s0,0,0,0h0v.02h0s0,0,0,0h-.66v-.02h0s0,0,0,0h-.66s0,0,0,0h0v.02h0s0,0,0,0h-.66s0,0,0,0h0v-.02h0s0,0,0,0h-.66s0,0,0,0h0v.02h0s0,0,0,0h-.66v-.02h0s0,0,0,0h-.66v.02h0s0,0,0,0h-.66s0,0,0,0h0v-.02h0s0,0,0,0h-.66s0,0,0,0h0v.02h0s0,0,0,0h-.66v-.02h0s0,0,0,0h-.66v.02h0s0,0,0,0h-.66v-.02h0s0,0,0,0h-.66s0,0,0,0h0v.02h0s0,0,0,0h-.66s0,0,0,0h0v-.02h0s0,0,0,0h-.66s0,0,0,0h0v.02h0s0,0,0,0h-.66s0,0,0,0h0v-.02h0s0,0,0,0h-.66s0,0,0,0h0v.02h0s0,0,0,0h-.66s0,0,0,0h0v-.02h0s0,0,0,0h-.66v.02h0s0,0,0,0h-.66s0,0,0,0h0v-.02h0s0,0,0,0h-.66v.02h0s0,0,0,0h-.66s0,0,0,0h0v-.02h0s0,0,0,0h-.66v.02h0s0,0,0,0h-.66s0,0,0,0h0v-.02h0s0,0,0,0h-.66s0,0,0,0h0v.02h0s0,0,0,0h-.66v-.02h0s0,0,0,0h-.66v.02h0s0,0,0,0h-.66v-.02h0s0,0,0,0h-.66s0,0,0,0h0v.02h0s0,0,0,0h-.66s0,0,0,0h0v-.02h0s0,0,0,0h-.66v.02h0s0,0,0,0h-.66s0,0,0,0h0v-.02h0s0,0,0,0h-.66s0,0,0,0h0s0,0,0,0h0v.02h0s0,0,0,0h-.66v-.02h0s0,0,0,0h-.66s0,0,0,0h0s0,.01,0,.01h-.66v-.02h0s0,0,0,0h-.66s0,0,0,0h0s0,.01,0,.01h0s0,0,0,0h-.66v-.02h0s0,0,0,0h-.66s0,.01,0,.01h0s0,0,0,0h-.66v-.02h0s0,0,0,0h-.66s0,.01,0,.02h0s0,0,0,0h-.66v-.02h0s0,0,0,0h-.66v.02s0,0,0,0h0s0,0,0,0h-.66s0,0,0,0h0v-.02h0s0,0,0,0h-.66v.02h0s0,0,0,0h-.66v-.02h0s0,0,0,0h-.66v.02h0s0,0,0,0h-.66v-.02h0s0,0,0,0h-.66v.02h0s0,0,0,0h-.66v-.02h0s0,0,0,0h-.66s0,0,0,0h0v.02h0s0,0,0,0h-.66v-.02h0s0,0,0,0h-.66s0,0,0,0h0v.02h0s0,0,0,0h-.66v-.02h0s0,0,0,0h-.66v.02h0s0,0,0,0h-.66v-.02h0s0,0,0,0h-.66s0,0,0,0h0v.02h0s0,0,0,0h-.66v-.02h0s0,0,0,0h-.66s0,0,0,0h0v.02h0s0,0,0,0h-.66v-.02h0s0,0,0,0h-.66s0,0,0,0h0v.02h0s0,0,0,0h-.66v-.02h0s0,0,0,0h-.66s0,0,0,0h0v.02h0s0,0,0,0h-.66v-.02h0s0,0,0,0h-.66v.02h0s0,0,0,0h-.66v-.02h0s0,0,0,0h-.66v.02h0s0,0,0,0h-.66v-.02h0s0,0,0,0h-.66s0,0,0,0h0v.02h0s0,0,0,0h-.66v-.02h0s0,0,0,0h-.66s0,0,0,0h0v.02h0s0,0,0,0h-.66v-.02h0s0,0,0,0h-.66s0,0,0,0h0v.02h0s0,0,0,0h-.66v-.02h0s0,0,0,0h-.66s0,0,0,0h0v.02h0s0,0,0,0h-.66v-.02h0s0,0,0,0h-.66s0,0,0,0h0v.02h0s0,0,0,0h-.66v-.02h0s0,0,0,0h-.66s0,0,0,0h0v.02h0s0,0,0,0h-.66s0,0,0,0h0v-.02h0s0,0,0,0h-.66s0,0,0,0h0v.02h0s0,0,0,0h-.66v-.02h0s0,0,0,0h-.66s0,0,0,0h0v.02h0s0,0,0,0h-.66s0,0,0,0h0s0,0,0,0h0s0,0,0,0h-.66v.02h0s0,0,0,0h-.66s0,0,0-.01h0s0,0,0,0h-.66v.02h0s0,0,0,0h-.66s0,0,0,0h0s0-.01,0-.01h0s0,0,0,0h-.66s0,0,0,0h0v.02h0s0,0,0,0h-.66s0,0,0,0h0s0-.01,0-.02h0s0,0,0,0h-.66s0,0,0,0h0v.02h0s0,0,0,0h-.66s0,0,0,0h0v-.02s0,0,0,0h0s0,0,0,0h-.66v.02h0s0,0,0,0h-.66s0,0,0,0h0v-.02h0s0,0,0,0h-.66s0,0,0,0h0v.02h0s0,0,0,0h-.66s0,0,0,0h0v-.02h0s0,0,0,0h-.66v.02h0s0,0,0,0h-.66v-.02h0s0,0,0,0h-.66v.02h0s0,0,0,0h-.66s0,0,0,0h0v-.02h0s0,0,0,0h-.66v.02h0s0,0,0,0h-.66s0,0,0,0h0v-.02h0s0,0,0,0h-.66s0,0,0,0h0v.02h0s0,0,0,0h-.66s0,0,0,0h0v-.02h0s0,0,0,0h-.66v.02h0s0,0,0,0h-.66s0,0,0,0h0v-.02h0s0,0,0,0h-.66v.02h0s0,0,0,0h-.66s0,0,0,0h0v-.02h0s0,0,0,0h-.66s0,0,0,0h0v.02h0s0,0,0,0h-.66v-.02h0s0,0,0,0h-.66v.02h0s0,0,0,0h-.66v-.02h0s0,0,0,0h-.66v.02h0s0,0,0,0h-.66s0,0,0,0h0v-.02h0s0,0,0,0h-.66s0,0,0,0h0v.02h0s0,0,0,0h-.66v-.02h0s0,0,0,0h-.66s0,0,0,0h0v.02h0s0,0,0,0h-.66v-.02h0s0,0,0,0h-.66s0,0,0,0h0v.02h0s0,0,0,0h-.66s0,0,0,0h0v-.02h0s0,0,0,0h-.66v.02h0s0,0,0,0h-.66s0,0,0,0h0v-.02h0s0,0,0,0h-.66s0,0,0,0h0v.02h0s0,0,0,0h-.66s0,0,0,0h0v-.02h0s0,0,0,0h-.66s0,0,0,0h0v.02h0s0,0,0,0h-.66s0,0,0,0h0v-.02h0s0,0,0,0h-.66v.02h0s0,0,0,0h-.66v-.02h0s0,0,0,0h-.66s0,0,0,0h0v.02h0s0,0,0,0h-.66v-.02h0s0,0,0,0h-.66v.02h0s0,0,0,0h-.66s0,0,0,0h0v-.02h0s0,0,0,0h-.66s0,0,0,0h0v.02h0s0,0,0,0h-.66s0,0,0,0h0v-.02h0s0,0,0,0h-.66v.02h0s0,0,0,0h-.66v-.02h0s0,0,0,0h-.66s0,0,0,0h0v.02h0s0,0,0,0h-.66s0,0,0,0h0v-.02h0s0,0,0,0h-.66s0,0,0,0h0v.02h0s0,0,0,0h-.66v-.02h0s0,0,0,0h-.66s0,0,0,0h0v.02h0s0,0,0,0h-.66v-.02h0s0,0,0,0h-.66s0,0,0,0h0v.02h0s0,0,0,0h-.66s0,0,0,0h0v-.02h0s0,0,0,0h-.66s0,0,0,0h0v.02h0s0,0,0,0h-.66v-.02h0s0,0,0,0h-.66v.02h0s0,0,0,0h-.66v-.02h0s0,0,0,0h-.66s0,0,0,0h0v.02s0,0,0,0h0s0,0,0,0h-.66v-.02h0s0,0,0,0h-.66s0,0,0,0h0s0,.01,0,.02h0s0,0,0,0h-.66v-.02h0s0,0,0,0h-.66s0,0,0,0h0s0,.01,0,.01h0s0,0,0,0h-.66v-.02h0s0,0,0,0h-.66s0,0,0,0h0s0,0,0,.01h0s0,0,0,0h-.66s0,0,0,0h0v-.02h0s0,0,0,0h-.66s0,0,0,0h0s0,0,0,0h-.66v-.02h0s0,0,0,0h-.66s0,0,0,0h0s0,0,0,0h0s0,0,0,0h-.66s0,0,0,0h0v-.02h0s0,0,0,0h-.66s0,0,0,0h0s0,0,0,0h0s0,.01,0,.01h-.66v-.02h0c-.08,0-.17,0-.25,0h-.07s0,0,0,0c0,0,0,0-.01,0,0,0-.01,0-.02,0,0,0-.01,0-.02,0,0,0-.01,0-.02,0,0,0-.01,0-.02,0,0,0-.01,0-.02-.01,0,0-.01,0-.02-.01,0,0-.01,0-.02-.01-.01-.01-.02-.02-.03-.04-.01-.01-.02-.03-.03-.05,0,0,0-.02-.01-.03,0,0,0,0,0-.01,0,0,0,0,0-.01,0-.01,0-.02,0-.03,0-.01,0-.02,0-.03,0-.01,0-.02,0-.03,0,0,0-.02,0-.03,0,0,0-.02.01-.03,0,0,0-.02.01-.02,0-.02.02-.03.03-.04,0,0,.01-.01.02-.02,0,0,.01-.01.02-.02.01,0,.03-.02.04-.02,0,0,.01,0,.02,0,0,0,.01,0,.02,0,0,0,.01,0,.02,0,0,0,.01,0,.02,0,0,0,0,0,.01,0,0,0,0,0,.01,0h.09s.09,0,.13,0c.02,0,.04,0,.06,0h.03s0,0,0,0h0v-.02h0s0,0,0,0h.66s0,0,0,0h0s0,.02,0,.02h0s0,0,0,0h.66s0,0,0,0h0v-.02h0s0,0,0,0h.66s0,.01,0,.02h0s0,0,0,0h.66s0,0,0,0h0v-.02h0s0,0,0,0h.66s0,0,0,0h0s0,0,0,.01h0s0,0,0,0h.66s0,0,0,0h0v-.02h0s0,0,0,0h.66s0,0,0,.01h0s0,0,0,0h.66s0,0,0,0h0v-.02h0s0,0,0,0h.66s0,0,0,0h0s0,0,0,.01h0s0,0,0,0h.66v-.02h0s0,0,0,0h.66s0,0,0,0h0s0,0,0,0h0s0,0,0,0h.66v-.02h0s0,0,0,0h.66s0,0,0,0h0s0,0,0,0h0s0,0,0,0h.66v-.02h0s0,0,0,0h.66s0,0,0,0h0v.02h0s0,0,0,0h.66s0,0,0,0h0v-.02h0s0,0,0,0h.66s0,0,0,0h0v.02h0s0,0,0,0h.66s0,0,0,0h0v-.02h0s0,0,0,0h.66s0,0,0,0h0v.02h0s0,0,0,0h.66s0,0,0,0h0v-.02h0s0,0,0,0h.66s0,0,0,0h0v.02h0s0,0,0,0h.66s0,0,0,0h0v-.02h0s0,0,0,0h.66s0,0,0,0h0v.02h0s0,0,0,0h.66s0,0,0,0h0v-.02h0s0,0,0,0h.66s0,0,0,0h0v.02h0s0,0,0,0h.66s0,0,0,0h0v-.02h0s0,0,0,0h.66s0,0,0,0h0v.02h0s0,0,0,0h.66v-.02h0s0,0,0,0h.66v.02h0s0,0,0,0h.66s0,0,0,0h0v-.02h0s0,0,0,0h.66s0,0,0,0h0v.02h0s0,0,0,0h.66s0,0,0,0h0v-.02h0s0,0,0,0h.66s0,0,0,0h0v.02h0s0,0,0,0h.66s0,0,0,0h0v-.02h0s0,0,0,0h.66s0,0,0,0h0v.02h0s0,0,0,0h.66s0,0,0,0h0v-.02h0s0,0,0,0h.66s0,0,0,0h0v.02h0s0,0,0,0h.66s0,0,0,0h0v-.02h0s0,0,0,0h.66s0,0,0,0h0v.02h0s0,0,0,0h.66v-.02h0s0,0,0,0h.66s0,0,0,0h0v.02h0s0,0,0,0h.66v-.02h0s0,0,0,0h.66s0,0,0,0h0v.02h0s0,0,0,0h.66v-.02h0s0,0,0,0h.66v.02h0s0,0,0,0h.66s0,0,0,0h0v-.02h0s0,0,0,0h.66s0,0,0,0h0v.02h0s0,0,0,0h.66v-.02h0s0,0,0,0h.66s0,0,0,0h0v.02h0s0,0,0,0h.66s0,0,0,0h0v-.02h0s0,0,0,0h.66s0,0,0,0h0v.02h0s0,0,0,0h.66s0,0,0,0h0v-.02h0s0,0,0,0h.66s0,0,0,0h0v.02h0s0,0,0,0h.66s0,0,0,0h0v-.02h0s0,0,0,0h.66v.02h0s0,0,0,0h.66s0,0,0,0h0v-.02h0s0,0,0,0h.66s0,0,0,0h0v.02h0s0,0,0,0h.66s0,0,0,0h0v-.02h0s0,0,0,0h.66v.02h0s0,0,0,0h.66s0,0,0,0h0v-.02h0s0,0,0,0h.66s0,0,0,0h0v.02h0s0,0,0,0h.66s0,0,0,0h0v-.02h0s0,0,0,0h.66v.02h0s0,0,0,0h.66v-.02h0s0,0,0,0h.66v.02h0s0,0,0,0h.66s0,0,0,0h0v-.02h0s0,0,0,0h.66s0,0,0,0h0v.02h0s0,0,0,0h.66s0,0,0,0h0v-.02h0s0,0,0,0h.66v.02h0s0,0,0,0h.66s0,0,0,0h0s0,0,0,0h0s0-.01,0-.01h.66v.02h0s0,0,0,0h.66s0,0,0,0h0s0,0,0,0h.66v.02h0s0,0,0,0h.66s0,0,0,0h0s0-.01,0-.01h0s0,0,0,0h.66v.02h0s0,0,0,0h.66s0,0,0,0h0s0,0,0-.01h0s0,0,0,0h.66v.02h0s0,0,0,0h.66s0,0,0,0h0s0-.02,0-.02h0s0,0,0,0h.66v.02h0s0,0,0,0h.66s0,0,0,0h0v-.02h0s0,0,0,0h.66v.02h0s0,0,0,0h.66s0,0,0,0h0v-.02h0s0,0,0,0h.66s0,0,0,0h0v.02h0s0,0,0,0h.66v-.02h0s0,0,0,0h.66v.02h0s0,0,0,0h.66s0,0,0,0h0v-.02h0s0,0,0,0h.66s0,0,0,0h0v.02h0s0,0,0,0h.66s0,0,0,0h0v-.02h0s0,0,0,0h.66v.02h0s0,0,0,0h.66s0,0,0,0h0v-.02h0s0,0,0,0h.66v.02h0s0,0,0,0h.66s0,0,0,0h0v-.02h0s0,0,0,0h.66v.02h0s0,0,0,0h.66s0,0,0,0h0v-.02h0s0,0,0,0h.66v.02h0s0,0,0,0h.66s0,0,0,0h0v-.02h0s0,0,0,0h.66s0,0,0,0h0v.02h0s0,0,0,0h.66s0,0,0,0h0v-.02h0s0,0,0,0h.66v.02h0s0,0,0,0h.65s0,0,0,0h0v-.02h0s0,0,0,0h.66s0,0,0,0h0v.02h0s0,0,0,0h.66v-.02h0s0,0,0,0h.66v.02h0s0,0,0,0h.66v-.02h0s0,0,0,0h.66s0,0,0,0h0v.02h0s0,0,0,0h.66s0,0,0,0h0v-.02h0s0,0,0,0h.66v.02h0s0,0,0,0h.66s0,0,0,0h0v-.02h0s0,0,0,0h.66s0,0,0,0h0v.02h0s0,0,0,0h.66v-.02h0s0,0,0,0h.66s0,0,0,0h0v.02h0s0,0,0,0h.66s0,0,0,0h0v-.02h0s0,0,0,0h.66s0,0,0,0h0v.02h0s0,0,0,0h.66s0,0,0,0h0v-.02h0s0,0,0,0h.66v.02h0s0,0,0,0h.66v-.02h0s0,0,0,0h.66v.02h0s0,0,0,0h.66s0,0,0,0h0v-.02h0s0,0,0,0h.66s0,0,0,0h0s0,0,0,0h0s0,0,0,0h.66s0,0,0,0h0v-.02h0s0,0,0,0h.66s0,0,0,0h0s0,0,0,.01h0s0,0,0,0h.66v-.02h0s0,0,0,0h.66s0,0,0,0h0s0,.01,0,.01h0s0,0,0,0h.66s0,0,0,0h0v-.02h0s0,0,0,0h.66s0,0,0,0h0s0,.01,0,.01h0s0,0,0,0h.66s0,0,0,0h0v-.02h0s0,0,0,0h.66s0,.02,0,.02h0s0,0,0,0h.66v-.02h0s0,0,0,0h.66s0,0,0,0h0v.02s0,0,0,0h0s0,0,0,0h.66v-.02h0s0,0,0,0h.66s0,0,0,0h0v.02h0s0,0,0,0h.66s0,0,0,0h0v-.02h0s0,0,0,0h.66v.02h0s0,0,0,0h.66s0,0,0,0h0v-.02h0s0,0,0,0h.66v.02h0s0,0,0,0h.66s0,0,0,0h0v-.02h0s0,0,0,0h.66s0,0,0,0h0v.02h0s0,0,0,0h.66v-.02h0s0,0,0,0h.66s0,0,0,0h0v.02h0s0,0,0,0h.66s0,0,0,0h0v-.02h0s0,0,0,0h.66s0,0,0,0h0v.02h0s0,0,0,0h.66s0,0,0,0h0v-.02h0s0,0,0,0h.66s0,0,0,0h0v.02h0s0,0,0,0h.66s0,0,0,0h0v-.02h0s0,0,0,0h.66v.02h0s0,0,0,0h.66v-.02h0s0,0,0,0h.66v.02h0s0,0,0,0h.66v-.02h0s0,0,0,0h.66s0,0,0,0h0v.02h0s0,0,0,0h.66s0,0,0,0h0v-.02h0s0,0,0,0h.66s0,0,0,0h0v.02h0s0,0,0,0h.66v-.02h0s0,0,0,0h.66s0,0,0,0h0v.02h0s0,0,0,0h.66v-.02h0s0,0,0,0h.66s0,0,0,0h0v.02h0s0,0,0,0h.66s0,0,0,0h0v-.02h0s0,0,0,0h.66s0,0,0,0h0v.02h0s0,0,0,0h.66s0,0,0,0h0v-.02h0s0,0,0,0h.66s0,0,0,0h0v.02h0s0,0,0,0h.66s0,0,0,0h0v-.02h0s0,0,0,0h.66s0,0,0,0h0v.02h0s0,0,0,0h.66s0,0,0,0h0v-.02h0s0,0,0,0h.66v.02h0s0,0,0,0h.66v-.02h0s0,0,0,0h.66v.02h0s0,0,0,0h.66s0,0,0,0h0v-.02h0s0,0,0,0h.66v.02h0s0,0,0,0h.66s0,0,0,0h0v-.02h0s0,0,0,0h.66v.02h0s0,0,0,0h.66v-.02h0s0,0,0,0h.66v.02h0s0,0,0,0h.66s0,0,0,0h0v-.02h0s0,0,0,0h.66s0,0,0,0h0v.02h0s0,0,0,0h.66s0,0,0,0h0v-.02h0s0,0,0,0h.66v.02h0s0,0,0,0h.66v-.02h0s0,0,0,0h.66s0,0,0,0h0v.02h0s0,0,0,0h.66s0,0,0,0h0v-.02h0s0,0,0,0h.66v.02Z"/>
  <path class="st0" d="M74.75,94.2v-.16h0v-.02h0s0-.02,0-.03c0-.07.04-.13.1-.17.03-.02.06-.03.09-.04.03,0,.07-.01.1,0,.03,0,.07.02.1.04.03.02.05.04.07.07.02.03.03.07.04.1,0,0,0,.02,0,.03h0v.17h0s0,0,0,0h-.04s-.03,0-.05,0h-.41Z"/>
  <path class="st0" d="M26.11,94.2v-.08h0v-.02h0s0-.02,0-.02c0-.02,0-.04.01-.06.01-.03.03-.06.05-.08.02-.02.04-.04.07-.06.03-.01.06-.02.09-.03.03,0,.06,0,.09,0,.03,0,.06.02.09.04.02.02.04.04.06.06.02.03.03.06.04.1,0,.01,0,.03,0,.04h0v.1s0,0,0,0h0s0,0,0,0h-.12c-.12,0-.25,0-.37,0Z"/>
  <path class="st0" d="M73.44,94.2c0-.25,0-.51,0-.76v-.12h0s0-.01,0-.02c0-.02,0-.03,0-.05,0-.03.02-.06.04-.09.02-.03.04-.05.07-.06.03-.02.06-.03.09-.03.03,0,.07,0,.1,0,.03,0,.06.02.09.04.02.02.04.04.06.07.02.02.03.05.03.08,0,.01,0,.03,0,.04,0,0,0,0,0,.01h0v.02s0,.02,0,.03v.56c0,.05,0,.11,0,.16v.08h0v.02h0s0,0,0,0h-.11c-.13,0-.25,0-.38,0Z"/>
  <path class="st0" d="M72.12,94.2c0-.45,0-.89,0-1.34,0-.22,0-.45,0-.67v-.02h0s0-.02,0-.02c0-.02,0-.05.01-.07,0-.02.02-.05.03-.07.01-.02.03-.04.05-.05,0,0,.02-.01.03-.02,0,0,.02-.01.03-.02.02,0,.04-.02.07-.02.05,0,.1,0,.14.02.04.02.07.05.1.09.02.03.03.07.04.1,0,0,0,.02,0,.03,0,0,0,0,0,0h0v.05s0,.05,0,.07v.41c0,.22,0,.45,0,.67,0,.22,0,.45,0,.67v.17h0s0,0,0,0h-.25c-.08,0-.17,0-.25,0Z"/>
  <path class="st0" d="M70.81,94.2c0-.72,0-1.45,0-2.17,0-.36,0-.72,0-1.09,0-.09,0-.18,0-.27v-.18s0,0,0,0c0-.01,0-.02,0-.03,0-.02.01-.04.02-.06,0-.02.02-.04.04-.06,0,0,.01-.02.02-.02,0,0,.02-.01.02-.02.02-.01.04-.02.06-.03.02,0,.04-.01.07-.01.05,0,.09,0,.13.03.02.01.04.02.05.04.01.01.03.03.04.05.02.03.03.06.04.1,0,0,0,.02,0,.03,0,0,0,0,0,0h0v.47c0,.16,0,.32,0,.47,0,.36,0,.72,0,1.09,0,.36,0,.72,0,1.09,0,.14,0,.29,0,.43v.13h0v.02h0s0,0,0,0h-.12s-.08,0-.12,0h-.25Z"/>
  <path class="st0" d="M69.49,94.2c0-1.09,0-2.17,0-3.26v-1.63c0-.19,0-.37,0-.56,0-.09,0-.19,0-.28v-.16h0s0,0,0-.01c0,0,0-.01,0-.02,0-.02,0-.03.01-.04.01-.03.03-.06.05-.08,0-.01.02-.02.03-.03,0,0,.01,0,.02-.01,0,0,.01,0,.02-.01.03-.01.06-.02.09-.03.03,0,.06,0,.1,0,.03,0,.06.02.08.04.01,0,.02.02.03.03,0,0,0,.01.01.02s0,.01.01.02c.02.03.03.07.04.1,0,0,0,.02,0,.03h0v.36c0,.13,0,.26,0,.38,0,.25,0,.5,0,.75,0,.54,0,1.09,0,1.63,0,.54,0,1.09,0,1.63,0,.22,0,.44,0,.66,0,.11,0,.22,0,.32v.14h0s0,.01,0,.01h-.49Z"/>
  <path class="st0" d="M68.18,94.2c0-1.51,0-3.02,0-4.53,0-.76,0-1.51,0-2.27,0-.3,0-.6,0-.9,0-.15,0-.3,0-.45v-.28h0s0-.01,0-.02c0,0,0-.02,0-.02,0-.02,0-.04.02-.05.01-.03.04-.06.06-.09,0,0,.01-.01.02-.02,0,0,.01,0,.02-.01.02,0,.03-.02.05-.02.04-.01.07-.01.11,0,.04,0,.07.02.1.04.01,0,.03.02.04.03,0,0,.01.01.02.02,0,0,0,.01.01.02.02.03.03.07.04.1,0,0,0,0,0,.01,0,0,0,0,0,0h0v.1s0,.09,0,.14v.28c0,.18,0,.37,0,.55,0,.36,0,.71,0,1.07,0,.76,0,1.51,0,2.27,0,.76,0,1.51,0,2.27,0,.31,0,.62,0,.92v.45c0,.07,0,.15,0,.22v.17h0s0,.02,0,.02h-.24c-.08,0-.17,0-.25,0Z"/>
  <path class="st0" d="M66.87,94.2c0-1.96,0-3.93,0-5.89,0-.98,0-1.96,0-2.95,0-.42,0-.85,0-1.27,0-.21,0-.42,0-.63,0-.11,0-.21,0-.32v-.1h0s0-.01,0-.02c0,0,0-.02,0-.03,0-.04.03-.08.05-.11.01-.01.03-.03.04-.04,0,0,.01-.01.02-.01,0,0,.02,0,.02-.01.04-.02.08-.02.12-.02.04,0,.08.01.12.03.02,0,.03.02.05.03.01.01.02.03.03.04.02.03.03.07.04.11,0,0,0,0,0,.01,0,0,0,0,0,0h0v.31c0,.12,0,.24,0,.37,0,.24,0,.48,0,.72,0,.47,0,.94,0,1.41,0,.98,0,1.96,0,2.95,0,.98,0,1.96,0,2.95,0,.78,0,1.55,0,2.33v.12h0s0,0,0,0h-.12s-.08,0-.13,0h-.25Z"/>
  <path class="st0" d="M65.55,94.2v-7.26c0-1.21,0-2.42,0-3.63,0-.54,0-1.09,0-1.63,0-.27,0-.54,0-.82,0-.14,0-.27,0-.41v-.13h0v-.02s0,0,0,0c0-.02,0-.04,0-.06,0-.02.02-.04.03-.06.01-.02.02-.03.04-.05,0,0,.01-.01.02-.02,0,0,.02-.01.02-.01.02,0,.04-.02.06-.02.02,0,.04,0,.06,0,.04,0,.09,0,.13.03.02,0,.03.02.05.04.01.01.03.03.04.04.02.03.03.07.04.11,0,0,0,0,0,0h0v.17c0,.08,0,.15,0,.23v.46c0,.3,0,.6,0,.9,0,.58,0,1.17,0,1.75,0,1.21,0,2.42,0,3.63,0,1.21,0,2.42,0,3.63,0,.94,0,1.87,0,2.81,0,.06,0,.11,0,.17v.15h0s0,0,0,0h-.02s-.02,0-.03,0h-.44Z"/>
  <path class="st0" d="M64.24,94.2c0-2.86,0-5.72,0-8.58,0-1.43,0-2.86,0-4.29v-1.98c0-.33,0-.66,0-.99,0-.17,0-.33,0-.5v-.19h0v-.02s0-.02,0-.03c0-.02.01-.04.02-.06,0-.02.02-.04.04-.05,0,0,.01-.02.02-.02,0,0,.02-.01.02-.02.02-.01.04-.02.06-.03.02,0,.04-.01.07-.01.05,0,.09,0,.14.03.02,0,.04.02.05.04,0,0,.01.01.02.02,0,0,.01.01.02.02.02.03.03.07.03.11,0,0,0,0,0,.01h0v.06s0,.09,0,.14v.27c0,.18,0,.36,0,.54,0,.36,0,.71,0,1.07,0,.69,0,1.39,0,2.08,0,1.43,0,2.86,0,4.29,0,1.43,0,2.86,0,4.29,0,1.08,0,2.16,0,3.24,0,.13,0,.26,0,.39v.15h0v.02s0,0,0,0h-.24c-.08,0-.17,0-.25,0Z"/>
  <path class="st0" d="M62.92,94.2c0-3.27,0-6.53,0-9.8,0-1.63,0-3.27,0-4.9,0-.77,0-1.54,0-2.31,0-.38,0-.77,0-1.15,0-.19,0-.38,0-.58v-.14s0-.05,0-.07v-.02h0s0-.02,0-.02c0-.02,0-.04.01-.06.02-.04.05-.08.08-.1,0,0,.02-.01.03-.02,0,0,.02,0,.03-.01.02,0,.04-.01.07-.02.05,0,.1,0,.14.02.02,0,.04.02.06.04.02.01.03.03.04.04.01.02.02.03.02.05,0,0,0,.02,0,.03,0,0,0,0,0,.01,0,0,0,0,0,.01v.24c0,.1,0,.21,0,.31,0,.21,0,.41,0,.62,0,.41,0,.82,0,1.23,0,.8,0,1.59,0,2.39v4.9c0,1.63,0,3.27,0,4.9,0,1.2,0,2.4,0,3.6v.44c0,.07,0,.14,0,.22v.13h0s0,.01,0,.01h-.24c-.08,0-.17,0-.25,0Z"/>
  <path class="st0" d="M61.61,94.2c0-3.63,0-7.26,0-10.89,0-1.81,0-3.63,0-5.44,0-.87,0-1.73,0-2.6,0-.43,0-.87,0-1.3,0-.22,0-.43,0-.65v-.28h0s0-.02,0-.02c0-.01,0-.02,0-.03,0-.02.02-.04.03-.06.01-.02.03-.04.05-.05,0,0,.02-.01.03-.02,0,0,.02-.01.03-.01.02,0,.05-.02.07-.02.05,0,.1,0,.15.02.02,0,.04.02.06.04.02.01.03.03.04.05.01.02.02.03.02.05,0,0,0,.02,0,.03,0,0,0,0,0,.01,0,0,0,0,0,0h0v.09c0,.06,0,.12,0,.17v.35c0,.23,0,.46,0,.69,0,.46,0,.91,0,1.37,0,.89,0,1.77,0,2.66,0,1.82,0,3.63,0,5.45v5.44c0,1.3,0,2.6,0,3.9,0,.31,0,.63,0,.94v.09h0s0,.01,0,.01h-.12s-.08,0-.13,0h-.25Z"/>
  <path class="st0" d="M60.29,94.2c0-3.94,0-7.88,0-11.82,0-1.97,0-3.94,0-5.91,0-.95,0-1.9,0-2.84,0-.47,0-.95,0-1.42,0-.24,0-.47,0-.71v-.18s0-.06,0-.09v-.07s0,0,0,0c0,0,0,0,0,0,0,0,0,0,0-.01,0-.02.01-.04.02-.06.01-.02.03-.04.05-.05,0,0,.02-.01.03-.02,0,0,.02-.01.03-.02.02,0,.05-.02.07-.02.05,0,.11,0,.16.02.02,0,.04.02.06.04.02.01.03.03.04.05.01.02.02.03.02.05,0,0,0,.02,0,.03,0,0,0,0,0,.01,0,0,0,0,0,0h0v.1c0,.06,0,.13,0,.19v.38c0,.25,0,.5,0,.75v1.49c0,.96,0,1.93,0,2.89,0,1.97,0,3.94,0,5.91,0,1.97,0,3.94,0,5.91,0,1.38,0,2.76,0,4.14,0,.33,0,.67,0,1v.25s.01.02,0,.02h-.49Z"/>
  <path class="st0" d="M58.98,94.2c0-4.19,0-8.39,0-12.58,0-2.1,0-4.19,0-6.29v-3.04c0-.51,0-1.01,0-1.52,0-.25,0-.51,0-.76v-.36h0s0-.02,0-.02c0,0,0,0,0,0,0-.02,0-.04.02-.06.01-.02.03-.04.04-.06,0,0,.02-.02.03-.02,0,0,.02-.01.03-.02.02-.01.05-.02.07-.02.05-.01.11,0,.16.01.02,0,.05.02.07.03.02.01.03.03.05.05.01.02.02.03.03.05,0,0,0,.02,0,.03,0,0,0,0,0,.01,0,0,0,0,0,0h0s0,.07,0,.11v.2c0,.13,0,.27,0,.4,0,.27,0,.54,0,.8,0,.53,0,1.06,0,1.58,0,1.03,0,2.06,0,3.09,0,2.1,0,4.2,0,6.29,0,2.1,0,4.19,0,6.29,0,1.44,0,2.88,0,4.32,0,.35,0,.7,0,1.05,0,.09,0,.17,0,.26v.16s0,0,0,0h-.24c-.08,0-.17,0-.25,0Z"/>
  <path class="st0" d="M57.66,94.2c0-4.39,0-8.78,0-13.17,0-2.19,0-4.39,0-6.58,0-1.07,0-2.13,0-3.2,0-.53,0-1.07,0-1.6,0-.27,0-.53,0-.8v-.37h0v-.02s0,0,0,0c0-.02,0-.04.01-.06.01-.02.02-.04.04-.06.02-.02.04-.03.06-.04,0,0,.01,0,.02,0,0,0,.01,0,.02,0,.01,0,.02,0,.04-.01.05-.01.11,0,.16,0,.02,0,.05.02.07.03.02.01.03.03.05.05.01.02.02.03.03.05,0,0,0,.02,0,.03,0,0,0,0,0,.01h0s0,.08,0,.12v.21c0,.14,0,.28,0,.42,0,.28,0,.56,0,.84v1.66c0,1.08,0,2.15,0,3.23,0,2.2,0,4.39,0,6.59,0,2.19,0,4.39,0,6.58,0,1.49,0,2.97,0,4.46,0,.36,0,.72,0,1.08,0,.18,0,.36,0,.53v.02s0,0,0,0h-.12s-.08,0-.13,0h-.25Z"/>
  <path class="st0" d="M56.35,94.2c0-4.53,0-9.06,0-13.59,0-2.27,0-4.53,0-6.8,0-1.1,0-2.21,0-3.31,0-.55,0-1.1,0-1.65,0-.28,0-.55,0-.83,0-.14,0-.28,0-.41,0,0,0,0,0,0,0,0,0,0,0,0,0,0,0-.01,0-.01,0-.01,0-.02,0-.03,0-.02.02-.04.04-.06.02-.02.04-.03.06-.04.01,0,.02-.01.03-.01.01,0,.02,0,.04-.01.05-.01.11,0,.16,0,.02,0,.05.02.07.03.02.01.03.03.05.05.01.02.02.03.03.05,0,0,0,.02,0,.03,0,0,0,0,0,.01h0v.34c0,.15,0,.29,0,.44,0,.29,0,.58,0,.87v1.71c0,1.11,0,2.23,0,3.34,0,2.27,0,4.53,0,6.8,0,2.27,0,4.53,0,6.8,0,1.52,0,3.03,0,4.55,0,.37,0,.73,0,1.1,0,.18,0,.36,0,.55v.1s0,0,0,0h-.02s-.02,0-.03,0h-.44Z"/>
  <path class="st0" d="M55.03,94.2c0-4.62,0-9.25,0-13.87,0-2.31,0-4.62,0-6.94,0-1.13,0-2.25,0-3.38,0-.56,0-1.13,0-1.69,0-.28,0-.56,0-.85,0-.14,0-.28,0-.42h0s0-.01,0-.01c0,0,0,0,0-.01,0-.01,0-.02,0-.03,0-.02.02-.04.04-.06.02-.02.04-.03.06-.04.01,0,.02-.01.03-.01.01,0,.02,0,.04-.01.05-.01.11,0,.17,0,.02,0,.05.02.07.03.02.01.03.03.05.05.01.02.02.03.03.05,0,0,0,.02,0,.03,0,0,0,0,0,0,0,0,0,0,0,0h0v.13c0,.07,0,.15,0,.22v.45c0,.3,0,.59,0,.89,0,.58,0,1.17,0,1.75,0,1.14,0,2.27,0,3.41v6.94c0,2.31,0,4.62,0,6.94,0,1.54,0,3.07,0,4.61,0,.37,0,.74,0,1.12,0,.18,0,.37,0,.55v.15h0s0,0,0,0h-.24c-.08,0-.17,0-.25,0Z"/>
  <path class="st0" d="M53.72,94.2c0-4.67,0-9.34,0-14.01v-7.01c0-1.14,0-2.28,0-3.42,0-.57,0-1.14,0-1.71,0-.28,0-.57,0-.85,0-.14,0-.28,0-.43h0s0-.01,0-.01c0,0,0,0,0-.01,0-.01,0-.02,0-.03,0-.02.02-.04.04-.06.02-.02.04-.03.06-.04.01,0,.02-.01.03-.01.01,0,.02,0,.04-.01.05-.01.11-.01.17,0,.02,0,.05.02.07.03.02.01.03.03.05.05.01.02.02.03.03.05,0,0,0,.02,0,.03,0,0,0,0,0,0,0,0,0,0,0,0h0c0,.05,0,.09,0,.13v.23c0,.15,0,.3,0,.45,0,.3,0,.6,0,.89,0,.59,0,1.18,0,1.77,0,1.15,0,2.29,0,3.44,0,2.34,0,4.67,0,7.01,0,2.34,0,4.67,0,7.01,0,1.55,0,3.09,0,4.64,0,.37,0,.75,0,1.12,0,.19,0,.37,0,.56v.17h0v.02h0s0,0,0,0h-.24c-.08,0-.17,0-.25,0Z"/>
  <path class="st0" d="M52.4,94.2c0-4.67,0-9.34,0-14.01v-7.01c0-1.14,0-2.28,0-3.42,0-.57,0-1.14,0-1.71,0-.28,0-.57,0-.85,0-.14,0-.28,0-.43h0s0-.01,0-.01c0,0,0,0,0-.01,0-.01,0-.02,0-.03,0-.02.02-.04.04-.06.02-.02.04-.03.06-.04.01,0,.02-.01.03-.01.01,0,.02,0,.04-.01.05-.01.11,0,.17,0,.02,0,.05.02.07.03.02.01.03.03.05.05.01.02.02.03.03.05,0,0,0,.02,0,.03,0,0,0,0,0,0,0,0,0,0,0,0h0c0,.05,0,.09,0,.13v.23c0,.15,0,.3,0,.45,0,.3,0,.6,0,.89,0,.59,0,1.18,0,1.77,0,1.15,0,2.29,0,3.44,0,2.34,0,4.67,0,7.01v7.01c0,1.55,0,3.09,0,4.64,0,.37,0,.75,0,1.12,0,.19,0,.37,0,.56v.17h0v.02h0s0,0,0,0h-.05s-.04,0-.06,0h-.38Z"/>
  <path class="st0" d="M51.09,94.2c0-4.62,0-9.25,0-13.87,0-2.31,0-4.62,0-6.94,0-1.13,0-2.25,0-3.38,0-.56,0-1.13,0-1.69,0-.28,0-.56,0-.85,0-.14,0-.28,0-.42,0,0,0,0,0,0,0,0,0,0,0,0,0,0,0,0,0-.01,0-.01,0-.02,0-.03,0-.02.02-.04.04-.06.02-.02.04-.03.06-.04.01,0,.02-.01.03-.01.01,0,.02,0,.04-.01.05-.01.11,0,.17,0,.02,0,.05.02.07.03.02.01.03.03.05.05.01.02.02.03.03.05,0,0,0,.02,0,.03,0,0,0,0,0,0,0,0,0,0,0,0h0v.13c0,.07,0,.15,0,.22v.45c0,.3,0,.59,0,.89v1.75c0,1.14,0,2.27,0,3.41v6.94c0,2.31,0,4.62,0,6.94,0,1.54,0,3.07,0,4.61,0,.37,0,.74,0,1.12,0,.18,0,.37,0,.55v.15h0s0,0,0,0h-.49Z"/>
  <path class="st0" d="M49.77,94.2c0-4.53,0-9.06,0-13.59v-6.8c0-1.1,0-2.21,0-3.31,0-.55,0-1.1,0-1.65,0-.28,0-.55,0-.83,0-.14,0-.28,0-.41,0,0,0,0,0,0,0,0,0,0,0,0,0,0,0-.01,0-.01,0-.01,0-.02,0-.03,0-.02.02-.04.04-.06.02-.02.04-.03.06-.04.01,0,.02-.01.03-.01.01,0,.02,0,.04-.01.05-.01.11,0,.16,0,.02,0,.05.02.07.03.02.01.03.03.05.05.01.02.02.03.03.05,0,0,0,.02,0,.03,0,0,0,0,0,.01h0v.12c0,.07,0,.15,0,.22v.44c0,.29,0,.58,0,.87,0,.57,0,1.14,0,1.71,0,1.11,0,2.23,0,3.34,0,2.27,0,4.53,0,6.8,0,2.27,0,4.53,0,6.8,0,1.52,0,3.03,0,4.55,0,.37,0,.73,0,1.1,0,.18,0,.36,0,.55v.1s0,0,0,0h-.24c-.08,0-.17,0-.25,0Z"/>
  <path class="st0" d="M48.46,94.2c0-4.39,0-8.78,0-13.17,0-2.19,0-4.39,0-6.58,0-1.07,0-2.13,0-3.2,0-.53,0-1.07,0-1.6,0-.27,0-.53,0-.8,0-.07,0-.13,0-.2v-.17h0v-.02s0,0,0,0c0-.02,0-.04.01-.06.01-.02.02-.04.04-.06.02-.02.04-.03.06-.04,0,0,.01,0,.02,0,0,0,.01,0,.02,0,.01,0,.02,0,.04-.01.05-.01.11,0,.16,0,.02,0,.05.02.07.03.02.01.03.03.05.05.01.02.02.03.03.05,0,0,0,.02,0,.03,0,0,0,0,0,.01,0,0,0,0,0,0h0s0,.08,0,.11v.21c0,.14,0,.28,0,.42,0,.28,0,.56,0,.84v1.66c0,1.08,0,2.15,0,3.23,0,2.2,0,4.39,0,6.59,0,2.19,0,4.39,0,6.58,0,1.49,0,2.97,0,4.46,0,.36,0,.72,0,1.08,0,.18,0,.36,0,.53v.02s0,0,0,0h-.12s-.08,0-.13,0h-.25Z"/>
  <path class="st0" d="M47.14,94.2c0-4.19,0-8.39,0-12.58,0-2.1,0-4.19,0-6.29,0-1.01,0-2.03,0-3.04v-1.52c0-.25,0-.51,0-.76,0-.06,0-.13,0-.19v-.17h0s0-.02,0-.02c0,0,0,0,0,0,0-.02,0-.04.02-.06.01-.02.03-.04.04-.06,0,0,.02-.02.03-.02,0,0,.02-.01.03-.02.02-.01.05-.02.07-.02.05-.01.11,0,.16.01.02,0,.05.02.07.03.02.01.03.03.05.05.01.02.02.03.03.05,0,0,0,.02,0,.03,0,0,0,0,0,.01,0,0,0,0,0,0h0v.31c0,.13,0,.27,0,.4,0,.27,0,.54,0,.8,0,.53,0,1.06,0,1.58,0,1.03,0,2.06,0,3.09,0,2.1,0,4.2,0,6.29,0,2.1,0,4.19,0,6.29,0,1.44,0,2.88,0,4.32,0,.35,0,.7,0,1.05v.42s0,0,0,0h0s-.01,0-.02,0h-.47Z"/>
  <path class="st0" d="M45.83,94.2c0-3.94,0-7.88,0-11.82,0-1.97,0-3.94,0-5.91,0-.95,0-1.9,0-2.84,0-.47,0-.95,0-1.42,0-.24,0-.47,0-.71v-.33s0,0,0,0c0,0,0,0,0,0,0,0,0,0,0-.01,0-.02.01-.04.02-.06.01-.02.03-.04.05-.05,0,0,.02-.01.03-.02,0,0,.02-.01.03-.02.02,0,.05-.02.07-.02.05,0,.11,0,.16.02.02,0,.04.02.06.04.02.01.03.03.04.05.01.02.02.03.02.05,0,0,0,.02,0,.03,0,0,0,0,0,.01,0,0,0,0,0,0h0v.1c0,.06,0,.13,0,.19v.38c0,.25,0,.5,0,.75,0,.5,0,.99,0,1.49,0,.96,0,1.93,0,2.89,0,1.97,0,3.94,0,5.91,0,1.97,0,3.94,0,5.91,0,1.38,0,2.76,0,4.14,0,.33,0,.67,0,1v.25s.01.02,0,.02h-.24c-.08,0-.17,0-.25,0Z"/>
  <path class="st0" d="M44.51,94.2c0-3.63,0-7.26,0-10.89,0-1.82,0-3.63,0-5.45,0-.87,0-1.73,0-2.6,0-.43,0-.87,0-1.3,0-.22,0-.43,0-.65v-.28h0s0-.02,0-.02c0-.01,0-.02,0-.03,0-.02.02-.04.03-.06.01-.02.03-.04.05-.05,0,0,.02-.01.03-.02,0,0,.02-.01.03-.01.02,0,.05-.02.07-.02.05,0,.1,0,.15.02.02,0,.04.02.06.04.02.01.03.03.04.05.01.02.02.03.02.05,0,0,0,.02,0,.03,0,0,0,0,0,.01,0,0,0,0,0,0h0s0,.06,0,.09v.17c0,.12,0,.23,0,.35,0,.23,0,.46,0,.69,0,.46,0,.91,0,1.37,0,.89,0,1.77,0,2.66,0,1.82,0,3.63,0,5.45,0,1.82,0,3.63,0,5.45,0,1.3,0,2.6,0,3.9,0,.31,0,.63,0,.94v.09h0s0,.01,0,.01h-.24c-.08,0-.17,0-.25,0Z"/>
  <path class="st0" d="M43.2,94.2c0-3.27,0-6.54,0-9.82v-4.91c0-.77,0-1.54,0-2.31,0-.39,0-.77,0-1.16,0-.19,0-.39,0-.58v-.24h0s0-.02,0-.02c0-.02,0-.04.01-.06.02-.04.05-.08.08-.1,0,0,.02-.01.03-.02,0,0,.02,0,.03-.01.02,0,.04-.01.07-.02.05,0,.1,0,.14.02.02,0,.04.02.06.04.02.01.03.03.04.04.01.02.02.03.02.05,0,0,0,.02,0,.03,0,0,0,0,0,.01,0,0,0,0,0,.01v.08c0,.05,0,.1,0,.16v.31c0,.21,0,.42,0,.62,0,.41,0,.82,0,1.23,0,.8,0,1.59,0,2.39,0,1.64,0,3.27,0,4.91,0,1.64,0,3.27,0,4.91v3.61c0,.15,0,.29,0,.44v.35h0v.02h0s0,0,0,0h-.05s-.04,0-.06,0h-.38Z"/>
  <path class="st0" d="M41.89,94.2c0-2.88,0-5.76,0-8.64,0-1.44,0-2.88,0-4.32,0-.67,0-1.33,0-2,0-.33,0-.67,0-1,0-.17,0-.33,0-.5v-.2s0,0,0-.01c0,0,0,0,0-.01,0-.02,0-.04.02-.06.02-.04.05-.07.08-.09.02-.01.04-.02.06-.03.02,0,.04-.01.07-.01.05,0,.09,0,.14.03.02,0,.04.02.05.04,0,0,.01.01.02.02,0,0,.01.01.02.02.02.03.03.07.03.11,0,0,0,0,0,.01h0v.06s0,.09,0,.14v.27c0,.18,0,.36,0,.55,0,.36,0,.72,0,1.08,0,.7,0,1.4,0,2.1,0,1.44,0,2.88,0,4.32,0,1.44,0,2.88,0,4.32,0,1.09,0,2.17,0,3.26,0,.13,0,.26,0,.39v.17s0,0,0,0h-.49Z"/>
  <path class="st0" d="M40.57,94.2c0-2.47,0-4.93,0-7.4,0-1.23,0-2.47,0-3.7,0-.56,0-1.11,0-1.67,0-.28,0-.56,0-.84,0-.14,0-.28,0-.42v-.16s0,0,0-.01c0,0,0,0,0-.01,0,0,0-.02,0-.03,0-.02.01-.04.03-.06.01-.02.02-.03.04-.05,0,0,.01-.01.02-.02,0,0,.02-.01.02-.02.02,0,.04-.02.06-.02.02,0,.04,0,.06,0,.04,0,.09,0,.13.03.02,0,.03.02.05.04.01.01.03.03.04.04.02.03.03.07.04.11,0,0,0,0,0,0h0v.41c0,.16,0,.31,0,.47,0,.31,0,.61,0,.92v1.79c0,1.23,0,2.47,0,3.7,0,1.23,0,2.47,0,3.7,0,.95,0,1.91,0,2.86v.34s0,0,0,0h-.24c-.08,0-.17,0-.25,0Z"/>
  <path class="st0" d="M39.26,94.2c0-2.05,0-4.11,0-6.16,0-1.03,0-2.05,0-3.08,0-.45,0-.89,0-1.34,0-.22,0-.45,0-.67v-.34s0-.06,0-.08v-.02h0s0-.01,0-.01c0,0,0-.02,0-.03,0-.04.02-.08.05-.11.01-.02.03-.03.04-.04.01-.01.03-.02.05-.03.04-.02.08-.03.12-.02.04,0,.08.01.12.03.02,0,.03.02.05.03,0,0,.01.01.02.02,0,0,.01.01.02.02.02.03.03.07.04.11,0,0,0,0,0,.01h0v.14c0,.06,0,.13,0,.19v.38c0,.25,0,.51,0,.76,0,.49,0,.98,0,1.48v3.08c0,1.03,0,2.05,0,3.08,0,.81,0,1.62,0,2.43v.15h0v.02h0s0,0,0,0h-.12s-.08,0-.13,0h-.25Z"/>
  <path class="st0" d="M37.94,94.2c0-1.66,0-3.32,0-4.97,0-.83,0-1.66,0-2.49,0-.34,0-.68,0-1.02,0-.17,0-.34,0-.51v-.32h0s0-.01,0-.02c0,0,0,0,0-.01,0-.02,0-.04.01-.05.01-.04.03-.07.06-.1.01-.01.03-.02.04-.03.02,0,.03-.02.05-.02.04-.01.08-.02.11-.01.04,0,.08.02.11.04.02,0,.03.02.04.03.01.01.02.02.03.04.02.03.03.07.04.1,0,0,0,0,0,.01,0,0,0,0,0,0h0v.11c0,.05,0,.1,0,.15v.31c0,.2,0,.4,0,.61,0,.39,0,.79,0,1.18,0,.83,0,1.66,0,2.49,0,.83,0,1.66,0,2.49,0,.66,0,1.32,0,1.98h0s0,.01,0,.01h-.49Z"/>
  <path class="st0" d="M36.63,94.2c0-1.3,0-2.59,0-3.89,0-.65,0-1.3,0-1.94,0-.24,0-.49,0-.73v-.36c0-.06,0-.12,0-.18v-.02h0s0-.02,0-.02c0,0,0-.02,0-.02,0-.03.02-.07.03-.1,0-.01.02-.03.03-.04,0,0,.01-.01.02-.02,0,0,.01,0,.02-.01.03-.02.06-.03.09-.04.03,0,.07,0,.1,0,.03,0,.07.02.09.04.01,0,.03.02.04.03,0,0,.01.01.02.02,0,0,0,.01.01.02.02.03.03.07.04.1,0,0,0,0,0,.01,0,0,0,0,0,.01h0v.2c0,.08,0,.16,0,.24,0,.16,0,.31,0,.47,0,.3,0,.6,0,.9,0,.65,0,1.3,0,1.94,0,.65,0,1.3,0,1.94,0,.26,0,.53,0,.79,0,.13,0,.26,0,.39v.26h0s0,.01,0,.01h-.24c-.08,0-.17,0-.25,0Z"/>
  <path class="st0" d="M35.31,94.2c0-.98,0-1.96,0-2.94v-1.47c0-.16,0-.32,0-.47v-.36h0s0-.01,0-.02c0,0,0-.01,0-.02,0-.03.01-.06.03-.08.01-.03.03-.05.05-.07,0,0,.02-.02.03-.02.01,0,.02-.01.04-.02.06-.02.12-.03.18,0,.03,0,.05.02.08.04.01,0,.02.02.03.03,0,0,0,0,.01.02s0,.01.01.02c.02.03.03.06.04.1,0,0,0,.02,0,.03h0v.06s0,.06,0,.09v.52c0,.22,0,.45,0,.67,0,.49,0,.98,0,1.47v1.47c0,.2,0,.4,0,.6v.38s0,0,0,0h-.12s-.08,0-.12,0h-.25Z"/>
  <path class="st0" d="M34,94.2c0-.73,0-1.45,0-2.18,0-.36,0-.73,0-1.09v-.27s0-.09,0-.13v-.05s0,0,0,0c0-.01,0-.02,0-.03,0-.02.01-.04.02-.06,0-.02.02-.04.04-.06,0,0,.01-.02.02-.02,0,0,.02-.01.02-.02.02-.01.04-.02.06-.03.02,0,.04-.01.07-.01.05,0,.09,0,.13.03.02.01.04.02.05.04.01.01.03.03.04.05.02.03.03.06.04.1,0,0,0,.02,0,.03,0,0,0,0,0,0h0v.23c0,.08,0,.16,0,.24,0,.16,0,.32,0,.48,0,.36,0,.73,0,1.09,0,.36,0,.73,0,1.09,0,.15,0,.29,0,.44v.13h0v.02h0s0,0,0,0h-.06s-.04,0-.06,0h-.37Z"/>
  <path class="st0" d="M32.68,94.2v-1.59c0-.27,0-.53,0-.8,0-.04,0-.07,0-.11v-.03h0v-.02h0s0-.01,0-.01c0,0,0-.01,0-.02,0-.05.03-.1.06-.14,0,0,.02-.02.03-.02,0,0,.02-.01.03-.02.02-.01.04-.02.07-.03.05-.01.11,0,.15.01.02,0,.04.02.06.04.02.02.03.03.05.05.02.03.03.07.04.11,0,0,0,.02,0,.03h0v.15c0,.06,0,.11,0,.17v.33c0,.27,0,.53,0,.8,0,.27,0,.53,0,.8v.29h0s0,.01,0,.01h-.24c-.08,0-.17,0-.25,0Z"/>
  <path class="st0" d="M31.37,94.2c0-.39,0-.77,0-1.16,0-.09,0-.18,0-.27v-.25h0s0-.03,0-.03c0-.01,0-.02,0-.03.01-.05.04-.09.07-.13.03-.03.08-.05.12-.06.05,0,.1,0,.15.02.04.02.08.05.11.09.02.03.03.06.04.1,0,0,0,.02,0,.03,0,0,0,0,0,0h0v.44c0,.19,0,.39,0,.58,0,.19,0,.39,0,.58v.08h0s0,0,0,0h-.25c-.08,0-.16,0-.25,0Z"/>
  <path class="st0" d="M30.05,94.2c0-.28,0-.57,0-.85v-.2h0v-.02s0,0,0,0c0,0,0-.01,0-.02,0-.01,0-.02,0-.04.01-.05.04-.09.08-.12.03-.02.06-.04.09-.05.04-.01.07-.01.11,0,.04,0,.07.02.1.04.03.02.05.04.07.07.02.03.03.06.03.09,0,.02,0,.03,0,.05h0v.28c0,.14,0,.28,0,.42v.34h0s0,.01,0,.01h-.07c-.14,0-.28,0-.42,0Z"/>
  <path class="st0" d="M28.74,94.2c0-.1,0-.21,0-.31v-.29h0s0-.02,0-.02c0-.05.02-.11.05-.15.03-.04.08-.07.13-.08.05-.01.11-.01.16,0,.02,0,.05.02.07.04.02.02.04.03.05.06.01.02.02.04.03.07,0,.01,0,.02,0,.04,0,.01,0,.02,0,.03h0v.04s0,.03,0,.04v.54h0s0,0,0,0h-.49Z"/>
  <path class="st0" d="M27.42,94.2c0-.08,0-.16,0-.24v-.06h0s0-.03,0-.04c0-.04.02-.08.05-.12.02-.03.05-.06.09-.07.04-.02.08-.03.12-.03.04,0,.08.01.12.03.03.02.06.05.08.08.01.02.02.05.03.07,0,.01,0,.02,0,.04,0,0,0,.01,0,.02,0,0,0,0,0,0h0v.31s0,0,0,0h0s0,0,0,0h-.02c-.16,0-.32,0-.48,0Z"/>
  <path class="st0" d="M127.34,94.21s0-.07,0-.1v-.07h0v-.02h0s0-.01,0-.01c0-.07.04-.14.09-.18.03-.02.06-.04.09-.05.03,0,.07-.01.11,0,.04,0,.07.02.1.04.03.02.05.04.07.07.02.03.03.06.04.09,0,0,0,.02,0,.02,0,0,0,0,0,.01,0,0,0,0,0,0h0v.19s0,0,0,0h-.49Z"/>
  <path class="st0" d="M126.03,94.21c0-.11,0-.21,0-.32v-.29h0s0-.02,0-.02c0-.05.02-.11.05-.15.03-.04.08-.07.13-.09.05-.02.11-.01.16,0,.02,0,.05.02.07.04.02.02.04.03.05.06s.02.04.03.07c0,.01,0,.02,0,.04,0,.01,0,.02,0,.03h0v.17c0,.11,0,.21,0,.32v.13h0s0,0,0,0h-.18c-.11,0-.21,0-.32,0Z"/>
  <path class="st0" d="M124.71,94.21c0-.33,0-.66,0-.99v-.18s0-.06,0-.09v-.07h0s0-.02,0-.03c0,0,0-.02,0-.02,0-.03.02-.07.04-.09.02-.03.05-.06.09-.08.04-.02.08-.03.12-.03.04,0,.09.01.12.03.03.02.06.05.09.08.02.03.03.06.04.09,0,0,0,.02,0,.02,0,0,0,.01,0,.02h0v.17c0,.06,0,.12,0,.18v.49c0,.08,0,.16,0,.25v.23h0v.02h0c-.16,0-.33,0-.49,0Z"/>
  <path class="st0" d="M123.4,94.21v-1.54c0-.26,0-.51,0-.77v-.1s0-.02,0-.02h0v-.02h0s0-.01,0-.02c0-.02,0-.05.02-.07,0-.02.02-.04.03-.06,0,0,.01-.02.02-.03,0,0,.02-.01.02-.02.02-.01.04-.02.06-.03.02,0,.04-.01.07-.02.05,0,.1,0,.14.02.04.02.07.05.1.09.02.03.03.07.04.11,0,0,0,.02,0,.03h0v.15c0,.05,0,.11,0,.16v.32c0,.26,0,.51,0,.77,0,.26,0,.51,0,.77v.26h0v.02h0s0,0,0,0h-.03s-.02,0-.03,0h-.43Z"/>
  <path class="st0" d="M122.08,94.21c0-.78,0-1.57,0-2.35,0-.39,0-.78,0-1.18,0-.11,0-.21,0-.32v-.22h0s0-.01,0-.01c0,0,0-.01,0-.02,0-.01,0-.02,0-.03.01-.05.04-.09.07-.13,0,0,.02-.01.03-.02,0,0,.02-.01.03-.02.02-.01.04-.02.07-.02.05,0,.1,0,.15.02.02.01.04.02.06.04,0,0,.02.02.02.02,0,0,.01.02.02.03.02.03.03.06.04.1,0,0,0,.02,0,.03,0,0,0,0,0,0h0v.11s0,.09,0,.14v.27c0,.17,0,.35,0,.52,0,.39,0,.78,0,1.18,0,.39,0,.78,0,1.18,0,.16,0,.32,0,.47v.2h0s0,0,0,0h-.24c-.08,0-.17,0-.25,0Z"/>
  <path class="st0" d="M120.77,94.21c0-1.16,0-2.32,0-3.48v-1.74c0-.21,0-.41,0-.62,0-.1,0-.21,0-.31v-.17h0s0-.02,0-.02c0-.02,0-.03,0-.05,0-.03.02-.06.04-.09,0-.01.02-.02.03-.03,0,0,.01,0,.02-.01,0,0,.01,0,.02-.01.03-.02.06-.03.09-.03.03,0,.07,0,.1,0,.03,0,.06.02.09.04.02.02.04.04.06.06.02.03.03.07.04.1,0,0,0,.02,0,.03h0v.07s0,.07,0,.11v.21c0,.14,0,.28,0,.41,0,.27,0,.53,0,.8v1.74c0,.58,0,1.16,0,1.74,0,.24,0,.47,0,.71,0,.11,0,.23,0,.34v.19s0,0,0,0h-.24c-.08,0-.17,0-.25,0Z"/>
  <path class="st0" d="M119.45,94.21c0-1.64,0-3.28,0-4.91,0-.82,0-1.64,0-2.46,0-.34,0-.67,0-1.01,0-.17,0-.34,0-.5v-.31h0s0-.01,0-.02c0,0,0,0,0-.01,0-.02,0-.04.01-.05.01-.04.03-.07.06-.09,0,0,.01-.01.02-.02,0,0,.01,0,.02-.01.02,0,.03-.02.05-.02.04-.01.07-.02.11-.01.04,0,.08.02.11.04.02,0,.03.02.04.03.01.01.02.02.03.04.02.03.03.07.04.1,0,0,0,0,0,.01,0,0,0,0,0,0h0v.03s0,.05,0,.08v.46c0,.2,0,.4,0,.6,0,.39,0,.78,0,1.16,0,.82,0,1.64,0,2.46,0,.82,0,1.64,0,2.46,0,.65,0,1.31,0,1.96,0,0,0,0,0,0h-.12s-.08,0-.13,0h-.25Z"/>
  <path class="st0" d="M118.14,94.21c0-2.19,0-4.39,0-6.58,0-1.1,0-2.19,0-3.29v-1.45c0-.24,0-.48,0-.73,0-.12,0-.24,0-.36v-.11h0s0-.02,0-.02c0,0,0,0,0-.01,0-.02,0-.04.01-.06,0-.02.02-.04.03-.05.01-.02.03-.03.04-.04,0,0,.01-.01.02-.02,0,0,.02,0,.02-.01.04-.02.08-.03.12-.03.04,0,.08.01.12.03.02,0,.03.02.05.03,0,0,.01.01.02.02,0,0,.01.01.02.02.02.03.03.07.04.11,0,0,0,0,0,.01h0v.36c0,.14,0,.27,0,.41,0,.27,0,.54,0,.81v1.58c0,1.1,0,2.19,0,3.29,0,1.1,0,2.19,0,3.29,0,.86,0,1.72,0,2.58v.21h0s0,0,0,0h-.49Z"/>
  <path class="st0" d="M116.82,94.21v-8.39c0-1.4,0-2.8,0-4.19,0-.64,0-1.29,0-1.94,0-.32,0-.64,0-.97,0-.16,0-.32,0-.48v-.18h0s0-.01,0-.02c0,0,0-.02,0-.03,0-.02.01-.04.02-.06,0-.02.02-.04.04-.05,0,0,.01-.01.02-.02,0,0,0,0,.01,0,0,0,0,0,.01,0,.02-.01.04-.02.06-.03.02,0,.04-.01.07-.01.05,0,.09,0,.13.03.02,0,.04.02.05.04.01.01.03.03.04.04.02.03.03.07.03.11,0,0,0,0,0,.01h0v.06s0,.09,0,.13v.27c0,.18,0,.35,0,.53,0,.35,0,.7,0,1.05v2.03c0,1.4,0,2.8,0,4.19,0,1.4,0,2.8,0,4.19,0,1.06,0,2.12,0,3.18,0,.13,0,.26,0,.38v.12h0v.02h0s0,0,0,0h-.24c-.08,0-.17,0-.25,0Z"/>
  <path class="st0" d="M115.51,94.21c0-3.41,0-6.82,0-10.23,0-1.71,0-3.41,0-5.12,0-.81,0-1.62,0-2.42,0-.4,0-.81,0-1.21,0-.2,0-.4,0-.61,0-.05,0-.1,0-.15v-.11s0,0,0,0c0,0,0,0,0,0,0,0,0,0,0-.01,0-.01,0-.02,0-.03.01-.04.04-.08.08-.11,0,0,.02-.01.03-.02,0,0,.02,0,.03-.01.02,0,.05-.01.07-.02.05,0,.1,0,.15.02.02,0,.04.02.06.04.02.01.03.03.04.04.01.02.02.03.02.05,0,0,0,.02,0,.03,0,0,0,0,0,.01,0,0,0,0,0,0,0,0,0,0,0,0v.25c0,.11,0,.22,0,.33,0,.22,0,.43,0,.65,0,.43,0,.85,0,1.28,0,.83,0,1.66,0,2.5,0,1.71,0,3.41,0,5.12v5.12c0,1.24,0,2.48,0,3.73,0,.15,0,.3,0,.45v.42h0v.02h0s0,0,0,0h-.12s-.08,0-.13,0h-.25Z"/>
  <path class="st0" d="M114.2,94.21c0-4.01,0-8.03,0-12.04,0-2.01,0-4.01,0-6.02,0-.97,0-1.93,0-2.9,0-.48,0-.97,0-1.45,0-.24,0-.48,0-.72,0-.06,0-.12,0-.18v-.16h0s0-.01,0-.01c0,0,0,0,0-.01,0-.02.01-.04.02-.06.01-.02.03-.04.04-.05,0,0,.02-.01.03-.02,0,0,.02-.01.03-.02.02-.01.04-.02.07-.02.05,0,.11,0,.16.01.02,0,.05.02.06.03.02.01.03.03.05.05.01.02.02.03.03.05,0,0,0,.02,0,.03,0,0,0,0,0,.01,0,0,0,0,0,0h0v.3c0,.13,0,.26,0,.39,0,.26,0,.51,0,.77v1.51c0,.98,0,1.97,0,2.95,0,2.01,0,4.02,0,6.02,0,2.01,0,4.01,0,6.02,0,1.4,0,2.8,0,4.2,0,.34,0,.68,0,1.01v.3h0s0,.01,0,.01h-.02s-.02,0-.03,0h-.44Z"/>
  <path class="st0" d="M112.88,94.21c0-4.58,0-9.16,0-13.73,0-2.29,0-4.58,0-6.87,0-1.12,0-2.23,0-3.35v-1.67c0-.28,0-.56,0-.84,0-.14,0-.28,0-.42h0s0-.01,0-.01c0,0,0,0,0-.01,0-.01,0-.02,0-.03,0-.02.02-.04.04-.06.02-.02.04-.03.06-.04.01,0,.02-.01.03-.01.01,0,.02,0,.04-.01.05-.01.11,0,.17,0,.02,0,.05.02.07.03.02.01.03.03.05.05.01.02.02.03.03.05,0,0,0,.02,0,.03,0,0,0,0,0,0,0,0,0,0,0,0h0v.35c0,.15,0,.29,0,.44,0,.29,0,.58,0,.88,0,.58,0,1.15,0,1.73,0,1.12,0,2.25,0,3.37,0,2.29,0,4.58,0,6.87,0,2.29,0,4.58,0,6.87,0,1.53,0,3.05,0,4.58,0,.37,0,.74,0,1.11,0,.18,0,.37,0,.55v.12h0s0,.01,0,.01h-.24c-.08,0-.17,0-.25,0Z"/>
  <path class="st0" d="M111.57,94.21c0-5.09,0-10.17,0-15.26,0-2.54,0-5.09,0-7.63,0-1.25,0-2.5,0-3.74,0-.62,0-1.25,0-1.87,0-.31,0-.62,0-.94,0-.16,0-.31,0-.47h0v-.02s0,0,0,0c0-.01,0-.02,0-.03,0-.02.02-.04.03-.06.02-.02.04-.04.06-.05.01,0,.02-.01.03-.02.01,0,.02,0,.04-.01.06-.01.12-.01.17,0,.03,0,.05.02.07.03.01,0,.02.01.03.02,0,0,0,0,.01.01,0,0,0,0,0,.01.01.02.02.03.03.05,0,0,0,.02,0,.03,0,0,0,0,0,0h0v.02s0,.08,0,.12v.25c0,.16,0,.33,0,.49,0,.33,0,.65,0,.98,0,.64,0,1.28,0,1.93,0,1.25,0,2.5,0,3.75,0,2.55,0,5.09,0,7.64,0,2.54,0,5.09,0,7.63v4.88c0,.39,0,.79,0,1.18,0,.2,0,.39,0,.59v.47s0,0,0,0h-.24c-.08,0-.17,0-.25,0Z"/>
  <path class="st0" d="M110.25,94.21c0-5.53,0-11.05,0-16.58,0-2.76,0-5.53,0-8.29,0-1.36,0-2.72,0-4.09,0-.68,0-1.36,0-2.04,0-.34,0-.68,0-1.02,0-.17,0-.34,0-.51v-.03h0v-.02s0,0,0-.01c0-.01,0-.02,0-.03,0-.01.01-.02.02-.03.02-.02.04-.04.06-.05.01,0,.02-.01.03-.02.01,0,.02,0,.04-.01.03,0,.06-.01.09-.01.03,0,.06,0,.09.01.03,0,.05.02.08.03.01,0,.02.01.03.02,0,0,.02.02.02.02.01.02.02.03.02.05,0,0,0,0,0,.01,0,0,0,0,0,0,0,0,0,0,0,0v.17c0,.09,0,.18,0,.27v.53c0,.35,0,.71,0,1.06,0,.7,0,1.4,0,2.09,0,1.36,0,2.72,0,4.08,0,2.76,0,5.53,0,8.29v8.29c0,1.71,0,3.41,0,5.12,0,.82,0,1.65,0,2.47v.19h0s0,0,0,0h-.11s-.08,0-.13,0h-.25Z"/>
  <path class="st0" d="M108.94,94.21c0-5.88,0-11.77,0-17.65,0-2.94,0-5.88,0-8.82,0-1.46,0-2.91,0-4.37,0-.73,0-1.46,0-2.18,0-.36,0-.73,0-1.09,0-.18,0-.36,0-.55,0-.01,0-.02,0-.03v-.02h0s0-.01,0-.02c0-.01,0-.02,0-.03,0-.01,0-.02.01-.03.01-.02.03-.04.05-.06.01,0,.02-.01.04-.02,0,0,.01,0,.02,0,0,0,.01,0,.02,0,.03,0,.06-.01.09-.01.03,0,.06,0,.1.01.03,0,.06.02.08.03.01,0,.02.01.03.02,0,0,.02.02.02.03.01.02.02.03.02.05,0,0,0,0,0,.01,0,0,0,0,0,0h0v.19c0,.09,0,.19,0,.28,0,.19,0,.38,0,.57,0,.38,0,.75,0,1.13,0,.74,0,1.49,0,2.23,0,1.45,0,2.9,0,4.35,0,2.94,0,5.89,0,8.83v8.83c0,1.76,0,3.53,0,5.29,0,.85,0,1.71,0,2.56v.45h0s0,.01,0,.01h-.49Z"/>
  <path class="st0" d="M107.62,94.21c0-6.16,0-12.32,0-18.47,0-3.08,0-6.16,0-9.24,0-1.53,0-3.05,0-4.58,0-.76,0-1.53,0-2.29,0-.38,0-.76,0-1.14,0-.19,0-.38,0-.57v-.07h0s0,0,0,0c0,0,0,0,0,0,0,0,0-.01,0-.02,0-.01,0-.02.01-.03.01-.02.03-.04.05-.06.02-.02.05-.03.07-.04.03,0,.06-.01.09-.02.03,0,.07,0,.1,0,.02,0,.03,0,.05.01.01,0,.03.01.04.02.01,0,.02.01.03.02,0,0,.02.02.02.03.01.02.02.04.02.06,0,0,0,0,0,0,0,0,0,0,0,0v.05s0,.1,0,.14v.29c0,.19,0,.39,0,.58,0,.39,0,.77,0,1.16,0,.77,0,1.54,0,2.31,0,1.54,0,3.08,0,4.62,0,3.08,0,6.16,0,9.24,0,3.08,0,6.16,0,9.24,0,1.97,0,3.93,0,5.9,0,.49,0,.98,0,1.47,0,.25,0,.49,0,.74,0,.12,0,.25,0,.37v.25s0,0,0,0h0s0,0,0,0h-.24c-.08,0-.17,0-.25,0Z"/>
  <path class="st0" d="M106.31,94.21c0-6.36,0-12.72,0-19.08,0-3.18,0-6.36,0-9.54,0-1.58,0-3.16,0-4.73,0-.79,0-1.58,0-2.37,0-.39,0-.79,0-1.18,0-.2,0-.39,0-.59v-.07h0s0-.02,0-.02c0,0,0,0,0-.01,0-.01,0-.02.01-.03,0-.01.01-.02.02-.03,0-.01.02-.02.03-.03.01,0,.02-.02.04-.02.01,0,.03-.01.04-.02.03,0,.06-.01.09-.02.03,0,.07,0,.1,0,.02,0,.03,0,.05.01.01,0,.03.01.04.02.01,0,.02.01.03.02,0,0,.02.02.02.03.01.02.02.03.02.05,0,0,0,0,0,.01h0v.21c0,.1,0,.21,0,.31,0,.2,0,.41,0,.61,0,.41,0,.81,0,1.22,0,.8,0,1.61,0,2.41,0,1.57,0,3.14,0,4.7,0,3.18,0,6.36,0,9.54,0,3.18,0,6.36,0,9.55,0,1.83,0,3.67,0,5.5,0,.89,0,1.78,0,2.67,0,.22,0,.44,0,.66v.18s0,0,0,.01h0s0,0,0,0h-.11s-.08,0-.13,0h-.25Z"/>
  <path class="st0" d="M104.99,94.21c0-6.49,0-12.98,0-19.47,0-3.24,0-6.49,0-9.73,0-1.61,0-3.22,0-4.84,0-.81,0-1.61,0-2.42,0-.4,0-.81,0-1.21,0-.2,0-.4,0-.6v-.09s0,0,0,0c0,0,0,0,0,0,0-.01,0-.02,0-.03,0-.01.01-.02.02-.03,0-.01.02-.02.03-.03.02-.02.05-.03.07-.04.03,0,.06-.02.09-.02.03,0,.07,0,.1,0,.02,0,.03,0,.05.01.01,0,.03.01.04.02.01,0,.02.01.03.02,0,0,.02.02.02.03.01.02.02.04.02.06,0,0,0,0,0,0h0v.22c0,.1,0,.2,0,.3,0,.2,0,.41,0,.61,0,.41,0,.81,0,1.22,0,.81,0,1.62,0,2.44,0,1.62,0,3.25,0,4.87,0,3.24,0,6.49,0,9.73,0,3.24,0,6.49,0,9.73,0,2.01,0,4.03,0,6.04,0,1.01,0,2.01,0,3.02v.14s0,.02,0,.02h0v.02h0s0,0,0,0h-.02s-.02,0-.03,0h-.44Z"/>
  <path class="st0" d="M103.68,94.21c0-6.55,0-13.11,0-19.66,0-3.28,0-6.55,0-9.83v-4.88c0-.81,0-1.63,0-2.44,0-.41,0-.81,0-1.22,0-.2,0-.41,0-.61v-.1s0,0,0,0,0,0,0,0c0-.01,0-.02,0-.03,0-.01.01-.02.02-.03,0-.01.02-.02.03-.03.02-.02.05-.03.07-.04.01,0,.03,0,.04-.01.02,0,.03,0,.05,0,.03,0,.07,0,.1,0,.02,0,.03,0,.05.01.01,0,.03.01.04.02.01,0,.02.01.03.02,0,0,.02.02.02.03.01.02.02.04.03.06,0,0,0,0,0,0,0,0,0,0,0,0v.21c0,.1,0,.21,0,.31,0,.21,0,.41,0,.62,0,.41,0,.82,0,1.23,0,.82,0,1.64,0,2.46,0,1.64,0,3.28,0,4.92,0,3.28,0,6.55,0,9.83,0,3.28,0,6.55,0,9.83,0,2.02,0,4.04,0,6.07,0,1.01,0,2.02,0,3.03v.19s0,.03,0,.05c0,0,0,0,0,0h-.24c-.08,0-.17,0-.25,0Z"/>
  <path class="st0" d="M102.36,94.21c0-6.55,0-13.11,0-19.66,0-3.28,0-6.55,0-9.83,0-1.63,0-3.26,0-4.88,0-.81,0-1.63,0-2.44,0-.41,0-.81,0-1.22,0-.2,0-.41,0-.61v-.1h0s0-.01,0-.02c0-.01,0-.02,0-.03,0-.01.01-.02.02-.03,0-.01.02-.02.03-.03.02-.02.05-.03.07-.04.01,0,.03,0,.04-.01.02,0,.03,0,.05,0,.03,0,.07,0,.1,0,.02,0,.03,0,.05.01.01,0,.03.01.04.02.01,0,.02.01.03.02,0,0,.02.02.02.03.01.02.02.04.03.06,0,0,0,0,0,0,0,0,0,0,0,0v.21c0,.1,0,.21,0,.31,0,.21,0,.41,0,.62,0,.41,0,.82,0,1.23,0,.82,0,1.64,0,2.46,0,1.64,0,3.28,0,4.92,0,3.28,0,6.55,0,9.83,0,3.28,0,6.55,0,9.83,0,2.02,0,4.04,0,6.07,0,1.01,0,2.02,0,3.03v.19s0,.03,0,.05c0,0,0,0,0,0h-.24c-.08,0-.17,0-.25,0Z"/>
  <path class="st0" d="M101.05,94.21c0-6.49,0-12.98,0-19.47,0-3.24,0-6.49,0-9.73,0-1.61,0-3.22,0-4.84,0-.81,0-1.61,0-2.42v-1.21c0-.2,0-.4,0-.6v-.09h0s0,0,0,0c0,0,0,0,0,0,0-.01,0-.02,0-.03,0-.01.01-.02.02-.03,0-.01.02-.02.03-.03.02-.02.05-.03.08-.04,0,0,.01,0,.02,0,0,0,.01,0,.02,0,.02,0,.03,0,.05,0,.03,0,.07,0,.1,0,.02,0,.03,0,.05.01.01,0,.03.01.04.02.01,0,.02.01.03.02,0,0,.02.02.02.03.01.02.02.03.02.05,0,0,0,0,0,.01v.22c0,.1,0,.21,0,.31,0,.21,0,.42,0,.63,0,.41,0,.83,0,1.24,0,.82,0,1.64,0,2.46,0,1.6,0,3.2,0,4.8,0,3.25,0,6.49,0,9.74,0,3.25,0,6.49,0,9.74,0,1.85,0,3.7,0,5.55,0,.9,0,1.8,0,2.7,0,.22,0,.44,0,.67v.25s0,.03,0,.04v.02s0,0,0,0h-.05s-.04,0-.06,0h-.38Z"/>
  <path class="st0" d="M99.73,94.21c0-6.36,0-12.72,0-19.08,0-3.18,0-6.36,0-9.54,0-1.58,0-3.16,0-4.73,0-.79,0-1.58,0-2.37,0-.39,0-.79,0-1.18,0-.2,0-.39,0-.59v-.07h0s0-.02,0-.02c0,0,0,0,0-.01,0-.01,0-.02.01-.03,0-.01.01-.02.02-.03,0-.01.02-.02.03-.03.01,0,.02-.02.04-.02.01,0,.03-.01.04-.02.03,0,.06-.01.09-.02.03,0,.07,0,.1,0,.02,0,.03,0,.05.01.01,0,.03.01.04.02.01,0,.02.01.03.02,0,0,.02.02.02.03.01.02.02.03.02.05,0,0,0,0,0,.01h0v.06c0,.05,0,.1,0,.15v.31c0,.2,0,.41,0,.61,0,.41,0,.81,0,1.22,0,.8,0,1.61,0,2.41v4.7c0,3.18,0,6.36,0,9.54,0,3.18,0,6.36,0,9.55v5.5c0,.89,0,1.78,0,2.67,0,.22,0,.44,0,.66,0,.05,0,.11,0,.16v.02h0v.02h0s0,0,0,0h-.49Z"/>
  <path class="st0" d="M98.42,94.21c0-6.16,0-12.32,0-18.47,0-3.08,0-6.16,0-9.24,0-1.53,0-3.05,0-4.58,0-.76,0-1.53,0-2.29,0-.38,0-.76,0-1.14,0-.19,0-.38,0-.57v-.07h0s0-.01,0-.02c0,0,0-.01,0-.02,0-.01,0-.02.01-.03,0-.01.01-.02.02-.03,0-.01.02-.02.03-.03.01,0,.02-.02.04-.02.01,0,.02-.01.04-.02.03,0,.06-.01.09-.02.03,0,.07,0,.1,0,.02,0,.03,0,.05.01.01,0,.03.01.04.02.01,0,.02.01.03.02,0,0,.02.02.02.03.01.02.02.03.02.05,0,0,0,0,0,.01,0,0,0,0,0,0h0v.05s0,.1,0,.15v.3c0,.2,0,.4,0,.59,0,.39,0,.79,0,1.18,0,.78,0,1.56,0,2.33,0,1.52,0,3.04,0,4.55,0,3.08,0,6.16,0,9.24,0,3.08,0,6.16,0,9.24,0,1.81,0,3.61,0,5.42,0,.87,0,1.75,0,2.62,0,.22,0,.43,0,.65v.04s0,0,0,0h-.24c-.08,0-.17,0-.25,0Z"/>
  <path class="st0" d="M97.1,94.21c0-5.88,0-11.77,0-17.65,0-2.94,0-5.88,0-8.82,0-1.46,0-2.91,0-4.37,0-.73,0-1.46,0-2.18,0-.36,0-.73,0-1.09,0-.18,0-.36,0-.55v-.05h0s0-.01,0-.02c0-.01,0-.02,0-.03,0-.01,0-.02.01-.03.01-.02.03-.04.05-.06.01,0,.02-.01.04-.02,0,0,.01,0,.02,0,0,0,.01,0,.02,0,.03,0,.06-.01.09-.01.03,0,.06,0,.1.01.03,0,.06.02.08.03.01,0,.02.01.03.02,0,0,.02.02.02.02.01.02.02.03.02.05,0,0,0,0,0,.01,0,0,0,0,0,0h0v.04s0,.1,0,.14v.28c0,.19,0,.38,0,.57,0,.38,0,.75,0,1.13,0,.74,0,1.49,0,2.23,0,1.45,0,2.9,0,4.35,0,2.94,0,5.89,0,8.83,0,2.94,0,5.89,0,8.83v5.29c0,.85,0,1.71,0,2.56v.32s0,.05,0,.08v.06h0s0,.01,0,.01h-.11s-.08,0-.13,0h-.25Z"/>
  <path class="st0" d="M95.79,94.21c0-5.53,0-11.05,0-16.58,0-2.76,0-5.53,0-8.29,0-1.36,0-2.72,0-4.09,0-.68,0-1.36,0-2.04,0-.34,0-.68,0-1.02,0-.17,0-.34,0-.51v-.03h0v-.02s0,0,0-.01c0-.01,0-.02,0-.03,0-.01.01-.02.02-.03.02-.02.04-.04.06-.05.01,0,.02-.01.03-.02.01,0,.02,0,.04-.01.03,0,.06-.01.09-.01.03,0,.06,0,.09.01.03,0,.05.02.08.03.01,0,.02.01.03.02,0,0,.02.02.02.02.01.02.02.03.02.05,0,0,0,0,0,.01,0,0,0,0,0,0,0,0,0,0,0,0v.17c0,.09,0,.18,0,.27,0,.18,0,.36,0,.53,0,.35,0,.71,0,1.06,0,.7,0,1.4,0,2.09,0,1.36,0,2.72,0,4.08,0,2.76,0,5.53,0,8.29,0,2.76,0,5.53,0,8.29,0,1.71,0,3.41,0,5.12,0,.82,0,1.65,0,2.47,0,.05,0,.1,0,.15v.04h0s0,0,0,0h0s-.01,0-.02,0h-.47Z"/>
  <path class="st0" d="M94.47,94.21c0-5.09,0-10.17,0-15.26,0-2.54,0-5.09,0-7.63,0-1.25,0-2.5,0-3.74,0-.62,0-1.25,0-1.87,0-.31,0-.62,0-.94,0-.16,0-.31,0-.47h0v-.02s0,0,0,0c0-.01,0-.02,0-.03,0-.02.02-.04.03-.06.02-.02.04-.04.06-.05.01,0,.02-.01.03-.02.01,0,.02,0,.04-.01.06-.01.12-.01.17,0,.03,0,.05.02.07.03,0,0,.02.01.03.02,0,0,0,0,.01.01,0,0,0,0,0,.01.01.02.02.03.03.05,0,0,0,.02,0,.03,0,0,0,0,0,0h0v.39c0,.16,0,.33,0,.49,0,.32,0,.65,0,.98,0,.64,0,1.28,0,1.93,0,1.25,0,2.5,0,3.75,0,2.54,0,5.09,0,7.63,0,2.54,0,5.09,0,7.63,0,1.63,0,3.26,0,4.88,0,.39,0,.79,0,1.18,0,.2,0,.39,0,.59v.29s0,.1,0,.15v.04s0,0,0,0h-.24c-.08,0-.17,0-.25,0Z"/>
  <path class="st0" d="M93.16,94.21c0-4.57,0-9.15,0-13.72,0-2.29,0-4.57,0-6.86,0-1.11,0-2.23,0-3.34,0-.56,0-1.11,0-1.67,0-.28,0-.56,0-.84,0-.14,0-.28,0-.42,0,0,0,0,0,0,0,0,0,0,0,0,0,0,0,0,0-.01,0-.01,0-.02,0-.03,0-.02.02-.04.04-.06.02-.02.04-.03.06-.04.01,0,.02-.01.03-.01.01,0,.02,0,.04-.01.05-.01.11,0,.17,0,.02,0,.05.02.07.03.02.01.03.03.05.05.01.02.02.03.03.05,0,0,0,.02,0,.03,0,0,0,0,0,0,0,0,0,0,0,0h0v.12c0,.07,0,.15,0,.22v.44c0,.29,0,.58,0,.88,0,.58,0,1.15,0,1.73,0,1.12,0,2.25,0,3.37,0,2.29,0,4.58,0,6.87,0,2.29,0,4.57,0,6.86,0,1.53,0,3.05,0,4.58,0,.37,0,.74,0,1.11v.55s0,.05,0,.07v.05h0s0,0,0,0h-.24c-.08,0-.17,0-.25,0Z"/>
  <path class="st0" d="M91.84,94.21c0-4,0-8,0-12,0-2,0-4,0-6,0-.96,0-1.93,0-2.89,0-.48,0-.96,0-1.45,0-.24,0-.48,0-.72v-.18s0-.06,0-.09v-.07h0s0-.01,0-.01c0,0,0,0,0-.01,0-.02.01-.04.02-.06.01-.02.03-.04.04-.05,0,0,.02-.01.03-.02,0,0,.02-.01.03-.02.02-.01.04-.02.07-.02.05,0,.11,0,.16.01.02,0,.05.02.06.03.02.01.03.03.05.05.01.02.02.03.03.05,0,0,0,.02,0,.03,0,0,0,0,0,.01,0,0,0,0,0,0h0v.3c0,.13,0,.26,0,.39,0,.26,0,.51,0,.77,0,.5,0,1.01,0,1.51,0,.98,0,1.96,0,2.94,0,2,0,4,0,6.01,0,2,0,4,0,6,0,1.4,0,2.79,0,4.19,0,.34,0,.67,0,1.01,0,.08,0,.17,0,.25v.05h0s0,0,0,0h-.05s-.04,0-.06,0h-.38Z"/>
  <path class="st0" d="M90.53,94.21c0-3.38,0-6.77,0-10.15,0-1.69,0-3.38,0-5.08,0-.8,0-1.6,0-2.4,0-.4,0-.8,0-1.2,0-.2,0-.4,0-.6v-.26s0,0,0-.01c0,0,0,0,0-.01,0-.01,0-.02,0-.03.01-.04.04-.08.08-.11,0,0,0,0,.01,0,0,0,0,0,.01,0,0,0,.02,0,.03-.01.02,0,.05-.01.07-.02.05,0,.1,0,.15.02.02,0,.04.02.06.04.02.01.03.03.04.04.01.02.02.03.02.05,0,0,0,.02,0,.03,0,0,0,0,0,.01,0,0,0,0,0,0,0,0,0,0,0,0,0,.03,0,.05,0,.08v.49c0,.21,0,.43,0,.64,0,.42,0,.85,0,1.27,0,.83,0,1.65,0,2.48v5.07c0,1.69,0,3.38,0,5.08v3.7c0,.15,0,.3,0,.45v.22s0,.07,0,.11v.08h0s0,.01,0,.01h-.24c-.08,0-.17,0-.25,0Z"/>
  <path class="st0" d="M89.22,94.21c0-2.74,0-5.49,0-8.23,0-1.37,0-2.74,0-4.11,0-.63,0-1.26,0-1.89,0-.32,0-.63,0-.95,0-.16,0-.32,0-.47v-.18h0s0-.02,0-.02c0,0,0-.02,0-.03,0-.02.01-.04.02-.06.01-.02.02-.04.04-.05,0,0,.01-.01.02-.02,0,0,.02-.01.02-.02.02-.01.04-.02.06-.02.02,0,.04-.01.07-.01.05,0,.09,0,.13.03.02,0,.04.02.05.04.01.01.03.03.04.04.02.03.03.07.04.11,0,0,0,0,0,.01h0v.06s0,.09,0,.13v.26c0,.17,0,.35,0,.52,0,.34,0,.68,0,1.02,0,.66,0,1.33,0,1.99,0,1.37,0,2.74,0,4.11,0,1.37,0,2.74,0,4.11,0,1.04,0,2.09,0,3.13,0,.13,0,.25,0,.38v.09h0v.02h0s0,0,0,0h-.24c-.08,0-.17,0-.25,0Z"/>
  <path class="st0" d="M87.9,94.21c0-2.11,0-4.21,0-6.32,0-1.05,0-2.11,0-3.16,0-.46,0-.92,0-1.38,0-.23,0-.46,0-.69,0-.12,0-.23,0-.35v-.11h0s0-.03,0-.04c0-.02,0-.04.02-.06,0-.02.02-.04.03-.05.01-.02.03-.03.04-.04,0,0,.01-.01.02-.02,0,0,.02,0,.02-.01.04-.02.08-.03.12-.02.04,0,.08.01.12.03.02,0,.03.02.05.03,0,0,.01.01.02.02,0,0,.01.01.02.02.02.03.03.07.04.11,0,0,0,0,0,.01h0v.34c0,.13,0,.26,0,.39,0,.26,0,.52,0,.78v1.52c0,1.05,0,2.11,0,3.16,0,1.05,0,2.11,0,3.16,0,.83,0,1.65,0,2.48,0,.05,0,.1,0,.15v.02h0v.02s0,0,0,0h-.12s-.08,0-.13,0h-.25Z"/>
  <path class="st0" d="M86.59,94.21c0-1.51,0-3.02,0-4.53,0-.75,0-1.51,0-2.26,0-.3,0-.6,0-.9,0-.15,0-.3,0-.45v-.23s0-.04,0-.06c0,0,0,0,0,0,0,0,0,0,0-.01,0,0,0-.02,0-.03,0-.02,0-.04.02-.05.01-.03.04-.06.06-.09,0,0,.01-.01.02-.02,0,0,.01,0,.02-.01.02,0,.03-.02.05-.02.04-.01.07-.01.11,0,.04,0,.07.02.1.04.01,0,.03.02.04.03,0,0,.01.01.02.02,0,0,0,.01.01.02.02.03.03.07.04.1,0,0,0,0,0,.01,0,0,0,0,0,0h0v.1s0,.09,0,.14v.28c0,.18,0,.37,0,.55,0,.36,0,.71,0,1.07,0,.75,0,1.51,0,2.26,0,.75,0,1.51,0,2.26,0,.31,0,.61,0,.92,0,.15,0,.3,0,.45v.22s0,.07,0,.11v.05h0s0,.01,0,.01h-.49Z"/>
  <path class="st0" d="M85.27,94.21c0-1,0-2,0-3v-1.5c0-.16,0-.33,0-.49v-.37h0s0-.02,0-.03c0-.03.01-.06.02-.08.01-.03.03-.05.05-.07,0,0,.01,0,.02-.01,0,0,.01,0,.02-.01.01,0,.02-.01.04-.02.06-.02.12-.03.18-.01.03,0,.05.02.08.04.01,0,.02.02.03.03,0,0,0,0,.01.02,0,0,0,.01.01.02.02.03.03.06.04.1,0,0,0,.02,0,.03,0,0,0,0,0,0h0s0,.04,0,.06v.27c0,.12,0,.23,0,.35,0,.23,0,.45,0,.68,0,.5,0,1,0,1.5v1.5c0,.2,0,.41,0,.61,0,.1,0,.2,0,.3v.09h0s0,0,0,0h-.24c-.08,0-.17,0-.25,0Z"/>
  <path class="st0" d="M83.96,94.21c0-.61,0-1.22,0-1.82,0-.3,0-.61,0-.91v-.26h0v-.02h0s0,0,0,0c0,0,0,0,0-.01,0-.03.01-.07.03-.1,0-.02.02-.03.03-.04.01-.01.02-.02.04-.03.03-.02.06-.03.09-.04.03,0,.07-.01.11,0,.03,0,.07.02.1.04.03.02.05.04.07.07.02.03.03.07.04.11,0,0,0,.02,0,.02h0v.38c0,.13,0,.26,0,.39,0,.3,0,.61,0,.91,0,.3,0,.61,0,.91,0,.14,0,.27,0,.41h0s0,0,0,0h-.12s-.08,0-.12,0h-.25Z"/>
  <path class="st0" d="M82.64,94.21c0-.33,0-.67,0-1v-.35h0v-.02s0-.02,0-.03c0-.03.02-.07.03-.1.02-.04.05-.06.09-.09.04-.02.08-.03.12-.03.04,0,.09,0,.13.03.04.02.07.05.09.08.02.03.03.06.04.09,0,0,0,.02,0,.02,0,0,0,.01,0,.02h0s0,.03,0,.04v.32c0,.17,0,.33,0,.5s0,.33,0,.5h0s0,0,0,0h-.06s-.04,0-.06,0h-.37Z"/>
  <path class="st0" d="M81.33,94.21v-.36h0s0-.03,0-.04c0-.04.01-.07.03-.1.02-.04.05-.07.09-.09.04-.02.08-.03.12-.03.04,0,.09,0,.13.03.04.02.07.05.09.08.02.03.03.06.03.09,0,.01,0,.03,0,.05h0v.11c0,.08,0,.17,0,.25h0s0,0,0,0h-.24c-.08,0-.17,0-.25,0Z"/>
  <path class="st0" d="M76.16,94.16c.06-.04.13-.06.2-.05.03,0,.07.02.1.04.02.01.03.02.04.04,0,0,0,0,0,0,0,0,0,0,0,0,0,0,0,0,0,0,0,0,0,0,0,0,0,0,0,0,0,0h-.01s0,0-.01,0c-.07,0-.14,0-.21,0-.03,0-.07,0-.1,0,0,0-.02,0-.02,0h-.02s0,0,0,0h0s0,0,0,0c0,0,0,0,0,0,0,0,0,0,0,0,0-.01.02-.02.03-.03Z"/>
  <path class="st0" d="M80.48,94.21h-.44s0,0,0,0c0,0,0,0,0,0,0,0,0,0,0,0,0,0,0,0,0,0,0,0,0,0,0,0,0,0,0-.01,0-.02,0,0,.01-.02.02-.03.03-.03.06-.06.1-.07.04-.02.08-.02.12-.02.08,0,.16.06.19.14Z"/>
  <path class="st0" d="M128.75,94.07s.04-.03.06-.03c.02,0,.05-.02.07-.02.05,0,.1,0,.14.03s.08.06.1.1c0,.01.01.02.01.03,0,0,0,.01,0,.02h0s0,0,0,0c0,0,0,0,0,0,0,0,0,0,0,0,0,0,0,0,0,0h0s0,0,0,0h0s0,0,0,0c0,0-.01,0-.02,0-.01,0-.03,0-.04,0-.1,0-.19,0-.29,0-.02,0-.04,0-.06,0,0,0-.02,0-.03,0,0,0,0,0-.01,0h-.01s0,0,0,0h0s0,0,0,0c0,0,0-.02,0-.03,0-.02.02-.05.03-.07.01-.02.03-.04.05-.05Z"/>
  <path class="st0" d="M130.07,94.19s.11-.06.17-.05c.03,0,.06.01.09.02.01,0,.03.02.04.03,0,0,.01.01.02.02,0,0,0,0,0,0,0,0,0,0,0,0,0,0,0,0,0,0,0,0,0,0,0,0s0,0,0,0h0s0,0,0,0h0s0,0,0,0h0s0,0,0,0h0c-.06,0-.12,0-.18,0-.03,0-.06,0-.09,0-.01,0-.02,0-.03,0,0,0-.01,0-.02,0,0,0,0,0,0,0h0s0,0,0,0h0s.02-.01.02-.02Z"/>
  <polygon class="st0" points="23.72 94.7 23.73 94.7 23.73 94.7 23.73 94.7 23.73 94.7 23.73 94.7 23.73 94.7 23.73 94.7 23.73 94.7 23.73 94.7 23.73 94.7 23.72 94.7"/>
  <path class="st0" d="M22.57,94.2c-.06,0-.11,0-.17,0-.03,0-.06,0-.09,0-.01,0-.02,0-.04,0h-.02s0,0,0,0h0s0,0,.01,0c.05-.04.1-.05.16-.05.06,0,.11.02.16.06Z"/>
  <path class="st0" d="M25.28,94.2h-.49s0,0,0,0c0,0,0,0,0,0,0,0,0-.01,0-.02,0-.03.02-.05.03-.07.03-.04.07-.07.11-.09.05-.02.1-.02.15-.01.03,0,.05.02.07.03.02.01.04.03.06.05,0,0,.02.02.02.03,0,.01.01.02.02.03.01.02.02.05.02.07Z"/>
  <path class="st0" d="M23.94,94.2h-.42s.02-.02.02-.03c.05-.06.13-.09.21-.08.04,0,.08.02.11.04.02.01.03.02.05.04,0,0,.01.01.02.02,0,0,.01.02.02.02Z"/>
</svg>