<?xml version="1.0" encoding="UTF-8"?>
<svg xmlns="http://www.w3.org/2000/svg" version="1.1" viewBox="0 0 210.13 211.4">
  <!-- Generator: Adobe Illustrator 29.8.3, SVG Export Plug-In . SVG Version: 2.1.1 Build 3)  -->
  <defs>
    <style>
      .st0 {
        fill: #fff;
      }

      .st1 {
        stroke-width: .04px;
      }

      .st1, .st2, .st3, .st4 {
        fill: none;
        stroke-linecap: round;
        stroke-linejoin: round;
      }

      .st1, .st4 {
        stroke: #000;
      }

      .st2 {
        stroke-width: .1px;
      }

      .st2, .st3 {
        stroke: #fff;
      }

      .st3 {
        stroke-width: .05px;
      }

      .st4 {
        stroke-width: .3px;
      }
    </style>
  </defs>
  <g id="BACKGROUND">
    <rect x="-3.04" y="-2.23" width="215.98" height="215.98"/>
    <path class="st0" d="M187.62,127.23c-.19-.38-.4-.75-.62-1.12-.22-.36-.46-.72-.71-1.07-.25-.35-.51-.68-.79-1.01-.28-.33-.57-.64-.88-.95-.31-.31-.63-.6-.96-.89-.34-.29-.68-.56-1.04-.82-.36-.26-.74-.51-1.12-.75-.39-.24-.79-.47-1.2-.68-.42-.22-.84-.42-1.28-.6-.44-.19-.89-.36-1.35-.52-.47-.16-.94-.31-1.42-.44-.49-.13-.99-.25-1.49-.35-.51-.1-1.03-.19-1.55-.27-.26-.04-.53-.07-.8-.1-.27-.03-.54-.06-.81-.08-.55-.04-1.11-.07-1.66-.08-.57-.01-1.14-.01-1.71,0-.29,0-.58.02-.87.04-.29.02-.59.04-.88.06-.6.05-1.2.12-1.79.19-.61.08-1.22.18-1.83.29-.62.11-1.24.24-1.86.38-.63.15-1.26.3-1.88.48-.64.18-1.27.37-1.89.57-.64.21-1.27.43-1.9.66-.64.24-1.27.49-1.9.75-.64.27-1.27.55-1.9.84-.64.3-1.27.6-1.89.92-.63.32-1.25.66-1.87,1.01-.62.35-1.24.71-1.85,1.08-1.23.75-2.43,1.55-3.6,2.39,0,0-.02.01-.03.02,0,0,0,0-.01,0,0,0,0,0,0,0,0,0,0,0,0,0,0,0,0,0,0,0,0,0,0,0,0,0-.01-.02-.02-.04-.03-.06l-.06-.11c-.04-.08-.09-.15-.13-.23-.09-.15-.17-.3-.26-.45-.17-.29-.35-.59-.53-.87-.37-.58-.75-1.15-1.14-1.71-.64-.9-1.32-1.77-2.03-2.62-.72-.85-1.48-1.67-2.27-2.46-.4-.4-.81-.78-1.22-1.16-.42-.38-.84-.75-1.28-1.12-.87-.73-1.78-1.42-2.71-2.08-.94-.66-1.91-1.28-2.9-1.86-1-.59-2.03-1.13-3.07-1.63-1.04-.5-2.09-.95-3.17-1.36-1.06-.41-2.14-.77-3.23-1.09-1.1-.32-2.2-.6-3.32-.84-.56-.12-1.13-.23-1.7-.32-.57-.1-1.15-.18-1.72-.26-.58-.08-1.16-.14-1.75-.19-.59-.05-1.18-.09-1.77-.12-1.19-.06-2.38-.07-3.57-.03-.59.02-1.18.05-1.78.09-.59.04-1.17.1-1.76.16-.58.06-1.16.14-1.74.23-.57.09-1.14.18-1.71.29-.56.11-1.12.23-1.68.36-.56.13-1.11.27-1.66.42-1.1.3-2.18.64-3.25,1.03-.56.2-1.11.42-1.67.64-.56.23-1.11.47-1.65.72-.55.25-1.1.52-1.64.79-.54.28-1.07.56-1.59.86-1.05.59-2.06,1.23-3.05,1.91-.98.68-1.93,1.39-2.84,2.15-.45.38-.9.76-1.34,1.16-.44.39-.86.8-1.28,1.21-.83.82-1.62,1.67-2.37,2.56-.74.88-1.45,1.79-2.11,2.74-.66.94-1.25,1.88-1.82,2.88-.07.12-.14.25-.21.37,0,0,0,0,0,0,0,0,0,0,0,0,0,0,0,0,0,0h0s0,0-.01-.01c0,0-.02-.01-.02-.02-.02-.01-.03-.02-.05-.03-.03-.02-.06-.04-.09-.07-.06-.04-.12-.09-.18-.13-.24-.17-.49-.34-.74-.51-.49-.34-.99-.67-1.49-.99-.5-.32-1.01-.63-1.52-.94-.51-.3-1.02-.6-1.54-.89-.51-.29-1.03-.56-1.55-.83-.52-.27-1.04-.53-1.56-.78-.52-.25-1.04-.49-1.57-.72-.52-.23-1.05-.45-1.58-.66-.52-.21-1.05-.41-1.58-.6-.52-.19-1.05-.37-1.58-.54-.52-.17-1.04-.33-1.57-.47-.52-.15-1.04-.28-1.56-.41-.51-.13-1.03-.24-1.55-.35-.51-.1-1.02-.2-1.53-.28-.5-.08-1-.16-1.51-.22-.49-.06-.99-.11-1.48-.15-.3-.02-.6-.05-.9-.06-.3-.02-.59-.03-.89-.04-.29,0-.58-.01-.88-.01-.29,0-.58,0-.87.01-.56.02-1.13.05-1.69.09-.55.05-1.09.11-1.63.19-.27.04-.53.08-.79.13-.26.05-.52.1-.78.15-.51.11-1.01.23-1.51.37-.48.14-.96.29-1.44.46-.23.08-.46.17-.69.26-.23.09-.45.18-.67.28-.44.19-.87.4-1.29.63-.41.22-.81.46-1.21.71-.39.25-.76.51-1.12.78-.36.27-.71.56-1.04.85-.33.3-.65.6-.96.92-.3.32-.59.65-.87.99-.27.34-.53.69-.78,1.05-.25.36-.48.73-.69,1.1-.11.19-.21.38-.31.57-.03.05-.05.1-.07.15,0,0,0,0,0,0,0,0,0,0,0,0h0v-38.86h0s0-.01,0,0c0,0,0,0,0,0,0,0,0,0,0,0,.03.02.06.03.09.05.12.07.25.13.38.2.25.13.5.26.75.39.51.26,1.02.5,1.54.74,1.04.47,2.09.9,3.16,1.29,2.15.78,4.36,1.39,6.6,1.83,2.24.44,4.52.7,6.8.78,1.14.04,2.27.03,3.41-.02.57-.03,1.13-.06,1.69-.11.56-.05,1.12-.11,1.68-.18,1.11-.15,2.22-.34,3.31-.58,1.09-.24,2.16-.53,3.22-.87.53-.17,1.05-.35,1.56-.54.51-.19,1.02-.4,1.53-.61,1-.43,1.98-.91,2.93-1.44.47-.26.93-.54,1.39-.83.45-.29.9-.59,1.34-.9.87-.62,1.7-1.29,2.49-2.01.33-.3.66-.61.97-.93.16-.16.31-.32.47-.48,0,0,0-.01.01-.02h0s0,0,0,0c0,0,0,0,0,0,.01,0,.03.01.04.02.06.02.11.05.17.07.22.09.44.19.66.28.44.19.89.37,1.33.55.88.36,1.77.71,2.66,1.05.88.34,1.77.66,2.66.98.88.31,1.76.62,2.65.91,1.74.58,3.49,1.12,5.26,1.62.86.25,1.73.48,2.6.71.86.22,1.72.44,2.58.64.85.2,1.7.39,2.56.58.85.18,1.7.35,2.55.5,1.7.31,3.41.57,5.13.76,3.59.39,6.89.42,10.49.08.87-.08,1.73-.18,2.59-.3.85-.12,1.71-.25,2.56-.4.85-.15,1.7-.31,2.55-.48.85-.17,1.71-.36,2.56-.55.65-.15,1.3-.3,1.95-.47.65-.16,1.31-.33,1.96-.5.66-.18,1.32-.36,1.97-.54.66-.19,1.32-.38,1.98-.58,1.34-.4,2.67-.83,3.99-1.28.67-.23,1.34-.46,2.01-.7.67-.24,1.34-.48,2.01-.73,1.35-.51,2.69-1.04,4.03-1.59.34-.14.67-.28,1.01-.42.17-.07.34-.14.5-.22,0,0,.01,0,.02,0,0,0,0,0,0,0,0,0,0,0,0,0,0,0,0,0,0,0,0,0,0,0,0,0h0s0,0,0,0c0,0,0,0,0,0,0,0,0,0,0,0,0,0,0,0,.01.01.03.03.06.06.09.09.12.12.24.24.36.37.48.48.98.95,1.49,1.39.52.45,1.05.87,1.6,1.28.55.41,1.12.8,1.7,1.17.58.37,1.18.72,1.79,1.05.61.33,1.23.64,1.87.93.64.29,1.28.56,1.94.82.66.25,1.32.49,2,.7.68.21,1.36.41,2.05.58.69.17,1.39.33,2.09.46.71.14,1.41.25,2.13.35.72.1,1.43.17,2.15.23,1.45.12,2.9.15,4.35.11.73-.02,1.46-.06,2.18-.11.73-.06,1.45-.13,2.18-.22,2.05-.26,4.07-.67,6.06-1.22,1.98-.55,3.93-1.23,5.82-2.05.47-.2.94-.42,1.4-.64.46-.22.92-.45,1.37-.68.23-.12.45-.24.68-.36,0,0,.01,0,.02-.01,0,0,0,0,0,0,0,0,0,0,0,0,0,0,0,0,0,0,0,0,0,0,0,0h0v38.87Z"/>
  </g>
  <g id="MULLIONS">
    <line class="st3" x1="133.53" y1="127.23" x2="133.53" y2="116.62"/>
    <line class="st3" x1="129.56" y1="88.79" x2="129.56" y2="88.32"/>
    <line class="st3" x1="129.56" y1="127.23" x2="129.56" y2="113.65"/>
    <line class="st3" x1="125.6" y1="89.94" x2="125.6" y2="88.82"/>
    <line class="st3" x1="125.6" y1="127.23" x2="125.6" y2="111.35"/>
    <line class="st3" x1="121.63" y1="90.96" x2="121.63" y2="89.23"/>
    <line class="st3" x1="121.63" y1="127.23" x2="121.63" y2="109.57"/>
    <line class="st3" x1="117.67" y1="91.82" x2="117.67" y2="89.57"/>
    <line class="st3" x1="117.67" y1="127.23" x2="117.67" y2="108.25"/>
    <line class="st3" x1="113.7" y1="92.5" x2="113.7" y2="89.83"/>
    <line class="st3" x1="113.7" y1="127.23" x2="113.7" y2="107.34"/>
    <line class="st3" x1="109.74" y1="92.94" x2="109.74" y2="89.99"/>
    <line class="st3" x1="109.74" y1="127.23" x2="109.74" y2="106.8"/>
    <line class="st3" x1="105.77" y1="93.1" x2="105.77" y2="90.04"/>
    <line class="st3" x1="101.8" y1="92.94" x2="101.8" y2="89.99"/>
    <line class="st3" x1="101.8" y1="127.23" x2="101.8" y2="106.8"/>
    <line class="st3" x1="97.84" y1="92.5" x2="97.84" y2="89.83"/>
    <line class="st3" x1="97.84" y1="127.23" x2="97.84" y2="107.34"/>
    <line class="st3" x1="93.87" y1="91.82" x2="93.87" y2="89.57"/>
    <line class="st3" x1="93.87" y1="127.23" x2="93.87" y2="108.25"/>
    <line class="st3" x1="89.91" y1="90.96" x2="89.91" y2="89.23"/>
    <line class="st3" x1="89.91" y1="127.23" x2="89.91" y2="109.57"/>
    <line class="st3" x1="85.94" y1="89.94" x2="85.94" y2="88.82"/>
    <line class="st3" x1="85.94" y1="127.23" x2="85.94" y2="111.35"/>
    <line class="st3" x1="81.98" y1="88.79" x2="81.98" y2="88.32"/>
    <line class="st3" x1="137.5" y1="127.23" x2="137.5" y2="120.5"/>
    <line class="st3" x1="78.01" y1="127.23" x2="78.01" y2="116.62"/>
    <line class="st3" x1="74.05" y1="127.23" x2="74.05" y2="120.5"/>
    <line class="st3" x1="70.08" y1="127.23" x2="70.08" y2="125.83"/>
    <line class="st3" x1="66.11" y1="127.23" x2="66.11" y2="125.11"/>
    <line class="st3" x1="62.15" y1="89.51" x2="62.15" y2="88.1"/>
    <line class="st3" x1="62.15" y1="127.23" x2="62.15" y2="122.84"/>
    <line class="st3" x1="58.18" y1="91.32" x2="58.18" y2="88.73"/>
    <line class="st3" x1="58.18" y1="127.23" x2="58.18" y2="120.98"/>
    <line class="st3" x1="54.22" y1="92.54" x2="54.22" y2="89.23"/>
    <line class="st3" x1="54.22" y1="127.23" x2="54.22" y2="119.51"/>
    <line class="st3" x1="50.25" y1="93.3" x2="50.25" y2="89.6"/>
    <line class="st3" x1="50.25" y1="127.23" x2="50.25" y2="118.43"/>
    <line class="st3" x1="46.29" y1="93.64" x2="46.29" y2="89.88"/>
    <line class="st3" x1="46.29" y1="127.23" x2="46.29" y2="117.75"/>
    <line class="st3" x1="42.32" y1="93.6" x2="42.32" y2="90.07"/>
    <line class="st3" x1="42.32" y1="127.23" x2="42.32" y2="117.51"/>
    <line class="st3" x1="38.35" y1="93.19" x2="38.35" y2="90.2"/>
    <line class="st3" x1="38.35" y1="127.23" x2="38.35" y2="117.77"/>
    <line class="st3" x1="34.39" y1="92.41" x2="34.39" y2="90.28"/>
    <line class="st3" x1="34.39" y1="127.23" x2="34.39" y2="118.66"/>
    <line class="st3" x1="30.42" y1="91.23" x2="30.42" y2="90.3"/>
    <line class="st3" x1="30.42" y1="127.23" x2="30.42" y2="120.4"/>
    <line class="st3" x1="26.46" y1="127.23" x2="26.46" y2="123.56"/>
    <line class="st3" x1="105.77" y1="127.23" x2="105.77" y2="106.62"/>
    <path class="st3" d="M146.1,87.46c3.04.66,6.19,1.16,9.28,1.54,3.14.39,6.22.65,9.37.85,6.12.38,12.68.49,18.82.45"/>
    <line class="st3" x1="141.46" y1="127.23" x2="141.46" y2="125.83"/>
    <line class="st3" x1="145.43" y1="127.23" x2="145.43" y2="125.11"/>
    <line class="st3" x1="149.39" y1="127.23" x2="149.39" y2="122.84"/>
    <line class="st3" x1="149.39" y1="89.51" x2="149.39" y2="88.1"/>
    <line class="st3" x1="153.36" y1="127.23" x2="153.36" y2="120.98"/>
    <line class="st3" x1="153.36" y1="91.32" x2="153.36" y2="88.73"/>
    <line class="st3" x1="157.32" y1="127.23" x2="157.32" y2="119.51"/>
    <line class="st3" x1="157.32" y1="92.54" x2="157.32" y2="89.23"/>
    <line class="st3" x1="161.29" y1="127.23" x2="161.29" y2="118.43"/>
    <line class="st3" x1="161.29" y1="93.3" x2="161.29" y2="89.6"/>
    <line class="st3" x1="165.26" y1="127.23" x2="165.26" y2="117.75"/>
    <path class="st3" d="M27.97,90.3c6.13.04,12.69-.07,18.82-.45,3.15-.19,6.23-.46,9.37-.85,3.09-.38,6.24-.89,9.28-1.54"/>
    <line class="st3" x1="165.26" y1="93.64" x2="165.26" y2="89.88"/>
    <line class="st3" x1="169.22" y1="127.23" x2="169.22" y2="117.51"/>
    <line class="st3" x1="169.22" y1="93.6" x2="169.22" y2="90.07"/>
    <line class="st3" x1="173.19" y1="127.23" x2="173.19" y2="117.77"/>
    <line class="st3" x1="173.19" y1="93.19" x2="173.19" y2="90.2"/>
    <line class="st3" x1="177.15" y1="127.23" x2="177.15" y2="118.66"/>
    <line class="st3" x1="177.15" y1="92.41" x2="177.15" y2="90.28"/>
    <line class="st3" x1="181.12" y1="127.23" x2="181.12" y2="120.4"/>
    <line class="st3" x1="181.12" y1="91.23" x2="181.12" y2="90.3"/>
    <line class="st3" x1="185.08" y1="127.23" x2="185.08" y2="123.56"/>
    <line class="st3" x1="81.98" y1="127.23" x2="81.98" y2="113.65"/>
    <path class="st3" d="M79.45,87.97c4.34.62,8.76,1.14,13.13,1.5,4.37.36,8.81.57,13.2.57s8.82-.21,13.2-.57c4.37-.36,8.79-.87,13.13-1.5"/>
  </g>
  <g id="TOP">
    <path class="st2" d="M79.45,87.97c4.34.62,8.76,1.14,13.13,1.5,4.37.36,8.81.57,13.2.57s8.82-.21,13.2-.57c4.37-.36,8.79-.87,13.13-1.5"/>
    <path class="st2" d="M27.97,90.3c6.13.04,12.69-.07,18.82-.45,3.15-.19,6.23-.46,9.37-.85,3.09-.38,6.24-.89,9.28-1.54"/>
    <path class="st2" d="M146.1,87.46c3.04.66,6.19,1.16,9.28,1.54,3.14.39,6.22.65,9.37.85,6.12.38,12.68.49,18.82.45"/>
  </g>
  <g id="FACADE_OUTLINE">
    <polyline class="st4" points="142.28 127.23 142.28 101.67 142.28 84.11"/>
    <path class="st4" d="M187.62,127.23c-.24-.47-.5-.93-.78-1.38-.28-.45-.59-.88-.91-1.29-.33-.42-.68-.82-1.04-1.21-.37-.39-.76-.76-1.17-1.11-.39-.34-.79-.65-1.21-.95-.43-.3-.87-.59-1.32-.85-.46-.27-.94-.52-1.42-.75-.25-.12-.5-.23-.75-.34-.26-.11-.51-.21-.77-.31-.48-.18-.96-.34-1.45-.49-.5-.15-1.01-.28-1.52-.4-.53-.12-1.05-.22-1.59-.3-.27-.04-.54-.08-.82-.12-.28-.03-.56-.07-.83-.09-.51-.05-1.02-.08-1.53-.1-.52-.02-1.05-.03-1.57-.02-.54,0-1.08.02-1.61.06-.27.02-.55.04-.82.06-.28.02-.55.05-.83.08-.51.05-1.02.12-1.53.2-.52.08-1.04.17-1.56.26-.53.1-1.05.21-1.58.33-.53.12-1.06.26-1.59.4-.5.14-1,.28-1.5.43-.5.16-1.01.32-1.51.49-.51.17-1.01.36-1.51.55-.51.19-1.01.4-1.51.61-.48.2-.96.41-1.44.63-.48.22-.96.45-1.44.68-.96.47-1.91.97-2.84,1.5-.46.26-.92.53-1.37.8-.45.27-.91.55-1.35.84-.9.58-1.78,1.18-2.65,1.8"/>
    <path class="st4" d="M69.26,84.11c-.35.37-.7.73-1.07,1.07-.37.35-.75.69-1.14,1.01-.39.33-.79.64-1.19.95-.41.31-.82.6-1.25.89-.42.28-.84.55-1.28.81-.43.26-.88.51-1.32.75-.45.24-.9.47-1.36.69-.46.22-.93.43-1.4.62-.94.39-1.88.73-2.85,1.04-.98.31-1.96.57-2.96.79-.99.22-1.98.4-2.99.55-1.01.14-2.02.25-3.04.31-1.01.07-2.03.09-3.04.08-1.02,0-2.03-.05-3.05-.14-2.02-.16-4.04-.47-6.02-.91-1.98-.44-3.94-1.02-5.84-1.74-.95-.36-1.89-.75-2.82-1.17-.46-.21-.92-.43-1.37-.66-.45-.23-.9-.46-1.35-.7"/>
    <path class="st4" d="M23.92,127.23c.24-.47.5-.93.78-1.38.28-.45.59-.88.91-1.29.33-.42.68-.82,1.04-1.21.37-.39.76-.76,1.17-1.11.39-.34.79-.65,1.21-.95.43-.3.87-.59,1.32-.85.46-.27.94-.52,1.42-.75.25-.12.5-.23.75-.34.26-.11.51-.21.77-.31.48-.18.96-.34,1.45-.49.5-.15,1.01-.28,1.52-.4.53-.12,1.06-.22,1.59-.3.27-.04.54-.08.82-.12.28-.03.56-.07.83-.09.51-.05,1.02-.08,1.53-.1.52-.02,1.05-.03,1.57-.02.54,0,1.08.02,1.61.06.27.02.55.04.82.06.28.02.55.05.83.08.51.05,1.02.12,1.53.2.52.08,1.04.17,1.56.26.53.1,1.05.21,1.58.33.53.12,1.06.26,1.59.4.5.14,1,.28,1.5.43.5.16,1.01.32,1.51.49.51.17,1.01.36,1.51.55.51.19,1.01.4,1.51.61.48.2.96.41,1.44.63.48.22.96.45,1.44.68.96.47,1.91.97,2.84,1.5.46.26.92.53,1.37.8.45.27.91.55,1.35.84.9.58,1.78,1.18,2.65,1.8"/>
    <path class="st4" d="M105.77,93.1c1.59,0,3.14-.08,4.72-.22,1.57-.14,3.13-.35,4.69-.61.78-.13,1.55-.27,2.32-.42.78-.15,1.55-.31,2.32-.48.77-.17,1.53-.34,2.29-.53.77-.19,1.54-.38,2.3-.58.76-.2,1.51-.41,2.27-.62.76-.22,1.52-.44,2.28-.67.75-.23,1.5-.46,2.24-.7.75-.24,1.5-.5,2.25-.75.74-.26,1.48-.52,2.22-.79.74-.27,1.48-.55,2.22-.83,1.47-.57,2.93-1.16,4.38-1.79"/>
    <path class="st4" d="M69.26,84.11c1.45.62,2.91,1.22,4.38,1.79.74.29,1.48.56,2.22.83.74.27,1.48.53,2.22.79.75.26,1.5.51,2.25.75.75.24,1.49.48,2.24.7.76.23,1.52.45,2.28.67.75.21,1.51.42,2.27.62.77.2,1.53.4,2.3.58.76.18,1.52.36,2.29.53.77.17,1.54.33,2.32.48.77.15,1.54.29,2.32.42,1.56.26,3.12.46,4.69.61,1.58.15,3.13.22,4.72.22"/>
    <polyline class="st4" points="69.26 127.23 69.26 101.67 69.26 84.11"/>
    <path class="st4" d="M142.28,127.23c-.44-.79-.91-1.56-1.4-2.32-.5-.76-1.03-1.51-1.58-2.23-.56-.73-1.14-1.44-1.75-2.13-.62-.7-1.25-1.37-1.92-2.02-.65-.63-1.31-1.24-2-1.83-.69-.59-1.41-1.16-2.14-1.71-.74-.55-1.49-1.07-2.27-1.57-.78-.5-1.57-.98-2.38-1.42-.81-.45-1.64-.87-2.48-1.26-.83-.39-1.68-.75-2.53-1.09-1.7-.67-3.42-1.22-5.18-1.67-.87-.22-1.75-.42-2.63-.58-.89-.17-1.79-.31-2.7-.42-.92-.12-1.83-.2-2.76-.26-.93-.06-1.86-.09-2.79-.09s-1.86.03-2.79.09c-.92.06-1.84.14-2.76.26-.9.11-1.8.26-2.7.43-.88.17-1.76.36-2.63.58-1.77.45-3.49,1-5.18,1.67-.86.34-1.7.7-2.53,1.09-.84.39-1.66.82-2.48,1.26-.81.45-1.6.92-2.38,1.42-.77.5-1.53,1.02-2.27,1.57-.73.54-1.45,1.11-2.14,1.71-.69.59-1.36,1.2-2,1.83-.66.65-1.3,1.32-1.92,2.02-.61.69-1.19,1.4-1.75,2.13-.55.73-1.08,1.47-1.58,2.23-.5.76-.96,1.53-1.4,2.32"/>
    <polyline class="st4" points="187.62 88.36 187.62 104.19 187.62 127.23"/>
    <polyline class="st4" points="23.92 88.36 23.92 104.19 23.92 127.23"/>
    <path class="st4" d="M142.28,84.11c.35.37.7.73,1.07,1.07.37.35.75.69,1.14,1.01.39.33.79.64,1.19.95.41.31.82.6,1.25.89.42.28.84.55,1.28.81.43.26.88.51,1.32.75.45.24.9.47,1.36.69.46.22.93.43,1.4.62.94.39,1.88.73,2.85,1.04.98.31,1.96.57,2.96.79.99.22,1.98.4,2.99.55,1.01.14,2.02.25,3.04.31,1.01.07,2.03.09,3.04.08,1.02,0,2.03-.05,3.05-.14,2.02-.16,4.04-.47,6.02-.91,1.98-.44,3.94-1.02,5.84-1.74.95-.36,1.89-.75,2.82-1.17.46-.21.92-.43,1.37-.66.45-.23.9-.46,1.35-.7"/>
    <polyline class="st4" points="142.28 127.23 142.28 101.67 142.28 84.11"/>
    <path class="st4" d="M187.62,127.23c-.24-.47-.5-.93-.78-1.38-.28-.45-.59-.88-.91-1.29-.33-.42-.68-.82-1.04-1.21-.37-.39-.76-.76-1.17-1.11-.39-.34-.79-.65-1.21-.95-.43-.3-.87-.59-1.32-.85-.46-.27-.94-.52-1.42-.75-.25-.12-.5-.23-.75-.34-.26-.11-.51-.21-.77-.31-.48-.18-.96-.34-1.45-.49-.5-.15-1.01-.28-1.52-.4-.53-.12-1.05-.22-1.59-.3-.27-.04-.54-.08-.82-.12-.28-.03-.56-.07-.83-.09-.51-.05-1.02-.08-1.53-.1-.52-.02-1.05-.03-1.57-.02-.54,0-1.08.02-1.61.06-.27.02-.55.04-.82.06-.28.02-.55.05-.83.08-.51.05-1.02.12-1.53.2-.52.08-1.04.17-1.56.26-.53.1-1.05.21-1.58.33-.53.12-1.06.26-1.59.4-.5.14-1,.28-1.5.43-.5.16-1.01.32-1.51.49-.51.17-1.01.36-1.51.55-.51.19-1.01.4-1.51.61-.48.2-.96.41-1.44.63-.48.22-.96.45-1.44.68-.96.47-1.91.97-2.84,1.5-.46.26-.92.53-1.37.8-.45.27-.91.55-1.35.84-.9.58-1.78,1.18-2.65,1.8"/>
    <path class="st4" d="M69.26,84.11c-.35.37-.7.73-1.07,1.07-.37.35-.75.69-1.14,1.01-.39.33-.79.64-1.19.95-.41.31-.82.6-1.25.89-.42.28-.84.55-1.28.81-.43.26-.88.51-1.32.75-.45.24-.9.47-1.36.69-.46.22-.93.43-1.4.62-.94.39-1.88.73-2.85,1.04-.98.31-1.96.57-2.96.79-.99.22-1.98.4-2.99.55-1.01.14-2.02.25-3.04.31-1.01.07-2.03.09-3.04.08-1.02,0-2.03-.05-3.05-.14-2.02-.16-4.04-.47-6.02-.91-1.98-.44-3.94-1.02-5.84-1.74-.95-.36-1.89-.75-2.82-1.17-.46-.21-.92-.43-1.37-.66-.45-.23-.9-.46-1.35-.7"/>
    <path class="st4" d="M23.92,127.23c.24-.47.5-.93.78-1.38.28-.45.59-.88.91-1.29.33-.42.68-.82,1.04-1.21.37-.39.76-.76,1.17-1.11.39-.34.79-.65,1.21-.95.43-.3.87-.59,1.32-.85.46-.27.94-.52,1.42-.75.25-.12.5-.23.75-.34.26-.11.51-.21.77-.31.48-.18.96-.34,1.45-.49.5-.15,1.01-.28,1.52-.4.53-.12,1.06-.22,1.59-.3.27-.04.54-.08.82-.12.28-.03.56-.07.83-.09.51-.05,1.02-.08,1.53-.1.52-.02,1.05-.03,1.57-.02.54,0,1.08.02,1.61.06.27.02.55.04.82.06.28.02.55.05.83.08.51.05,1.02.12,1.53.2.52.08,1.04.17,1.56.26.53.1,1.05.21,1.58.33.53.12,1.06.26,1.59.4.5.14,1,.28,1.5.43.5.16,1.01.32,1.51.49.51.17,1.01.36,1.51.55.51.19,1.01.4,1.51.61.48.2.96.41,1.44.63.48.22.96.45,1.44.68.96.47,1.91.97,2.84,1.5.46.26.92.53,1.37.8.45.27.91.55,1.35.84.9.58,1.78,1.18,2.65,1.8"/>
    <path class="st4" d="M105.77,93.1c1.59,0,3.14-.08,4.72-.22,1.57-.14,3.13-.35,4.69-.61.78-.13,1.55-.27,2.32-.42.78-.15,1.55-.31,2.32-.48.77-.17,1.53-.34,2.29-.53.77-.19,1.54-.38,2.3-.58.76-.2,1.51-.41,2.27-.62.76-.22,1.52-.44,2.28-.67.75-.23,1.5-.46,2.24-.7.75-.24,1.5-.5,2.25-.75.74-.26,1.48-.52,2.22-.79.74-.27,1.48-.55,2.22-.83,1.47-.57,2.93-1.16,4.38-1.79"/>
    <path class="st4" d="M69.26,84.11c1.45.62,2.91,1.22,4.38,1.79.74.29,1.48.56,2.22.83.74.27,1.48.53,2.22.79.75.26,1.5.51,2.25.75.75.24,1.49.48,2.24.7.76.23,1.52.45,2.28.67.75.21,1.51.42,2.27.62.77.2,1.53.4,2.3.58.76.18,1.52.36,2.29.53.77.17,1.54.33,2.32.48.77.15,1.54.29,2.32.42,1.56.26,3.12.46,4.69.61,1.58.15,3.13.22,4.72.22"/>
    <polyline class="st4" points="69.26 127.23 69.26 101.67 69.26 84.11"/>
    <path class="st4" d="M142.28,127.23c-.44-.79-.91-1.56-1.4-2.32-.5-.76-1.03-1.51-1.58-2.23-.56-.73-1.14-1.44-1.75-2.13-.62-.7-1.25-1.37-1.92-2.02-.65-.63-1.31-1.24-2-1.83-.69-.59-1.41-1.16-2.14-1.71-.74-.55-1.49-1.07-2.27-1.57-.78-.5-1.57-.98-2.38-1.42-.81-.45-1.64-.87-2.48-1.26-.83-.39-1.68-.75-2.53-1.09-1.7-.67-3.42-1.22-5.18-1.67-.87-.22-1.75-.42-2.63-.58-.89-.17-1.79-.31-2.7-.42-.92-.12-1.83-.2-2.76-.26-.93-.06-1.86-.09-2.79-.09s-1.86.03-2.79.09c-.92.06-1.84.14-2.76.26-.9.11-1.8.26-2.7.43-.88.17-1.76.36-2.63.58-1.77.45-3.49,1-5.18,1.67-.86.34-1.7.7-2.53,1.09-.84.39-1.66.82-2.48,1.26-.81.45-1.6.92-2.38,1.42-.77.5-1.53,1.02-2.27,1.57-.73.54-1.45,1.11-2.14,1.71-.69.59-1.36,1.2-2,1.83-.66.65-1.3,1.32-1.92,2.02-.61.69-1.19,1.4-1.75,2.13-.55.73-1.08,1.47-1.58,2.23-.5.76-.96,1.53-1.4,2.32"/>
    <polyline class="st4" points="187.62 88.36 187.62 104.19 187.62 127.23"/>
    <polyline class="st4" points="23.92 88.36 23.92 104.19 23.92 127.23"/>
    <path class="st4" d="M142.28,84.11c.35.37.7.73,1.07,1.07.37.35.75.69,1.14,1.01.39.33.79.64,1.19.95.41.31.82.6,1.25.89.42.28.84.55,1.28.81.43.26.88.51,1.32.75.45.24.9.47,1.36.69.46.22.93.43,1.4.62.94.39,1.88.73,2.85,1.04.98.31,1.96.57,2.96.79.99.22,1.98.4,2.99.55,1.01.14,2.02.25,3.04.31,1.01.07,2.03.09,3.04.08,1.02,0,2.03-.05,3.05-.14,2.02-.16,4.04-.47,6.02-.91,1.98-.44,3.94-1.02,5.84-1.74.95-.36,1.89-.75,2.82-1.17.46-.21.92-.43,1.37-.66.45-.23.9-.46,1.35-.7"/>
  </g>
  <g id="FACADE_LINES">
    <line class="st1" x1="45.95" y1="117.71" x2="51.94" y2="93.03"/>
    <line class="st1" x1="46.62" y1="117.79" x2="52.53" y2="92.92"/>
    <line class="st1" x1="45.28" y1="117.64" x2="51.34" y2="93.14"/>
    <line class="st1" x1="44.62" y1="117.59" x2="50.74" y2="93.23"/>
    <line class="st1" x1="50.08" y1="118.39" x2="55.51" y2="92.2"/>
    <line class="st1" x1="50.8" y1="118.55" x2="56.1" y2="92.02"/>
    <line class="st1" x1="49.38" y1="118.24" x2="54.91" y2="92.36"/>
    <line class="st1" x1="47.3" y1="117.88" x2="53.13" y2="92.79"/>
    <line class="st1" x1="40.8" y1="117.54" x2="47.1" y2="93.6"/>
    <line class="st1" x1="31.85" y1="119.65" x2="37.14" y2="92.99"/>
    <line class="st1" x1="42.68" y1="117.51" x2="48.93" y2="93.46"/>
    <line class="st1" x1="42.05" y1="117.51" x2="48.32" y2="93.52"/>
    <line class="st1" x1="43.96" y1="117.55" x2="50.13" y2="93.31"/>
    <line class="st1" x1="43.32" y1="117.52" x2="49.53" y2="93.39"/>
    <line class="st1" x1="41.42" y1="117.52" x2="47.71" y2="93.56"/>
    <line class="st1" x1="40.19" y1="117.58" x2="46.49" y2="93.63"/>
    <line class="st1" x1="39.58" y1="117.63" x2="45.88" y2="93.65"/>
    <line class="st1" x1="38.98" y1="117.69" x2="45.27" y2="93.67"/>
    <line class="st1" x1="36.66" y1="118.06" x2="42.8" y2="93.63"/>
    <line class="st1" x1="37.23" y1="117.95" x2="43.42" y2="93.65"/>
    <line class="st1" x1="38.39" y1="117.77" x2="44.66" y2="93.67"/>
    <line class="st1" x1="37.8" y1="117.85" x2="44.04" y2="93.66"/>
    <line class="st1" x1="35.54" y1="118.33" x2="41.56" y2="93.55"/>
    <line class="st1" x1="36.09" y1="118.19" x2="42.18" y2="93.59"/>
    <line class="st1" x1="178.67" y1="119.21" x2="173.13" y2="93.2"/>
    <line class="st1" x1="177.09" y1="118.64" x2="171.24" y2="93.44"/>
    <line class="st1" x1="178.16" y1="119" x2="172.5" y2="93.29"/>
    <line class="st1" x1="176" y1="118.33" x2="169.98" y2="93.55"/>
    <line class="st1" x1="174.88" y1="118.06" x2="168.74" y2="93.63"/>
    <line class="st1" x1="173.74" y1="117.85" x2="167.5" y2="93.66"/>
    <line class="st1" x1="174.31" y1="117.95" x2="168.12" y2="93.65"/>
    <line class="st1" x1="173.15" y1="117.77" x2="166.89" y2="93.67"/>
    <line class="st1" x1="171.96" y1="117.63" x2="165.66" y2="93.65"/>
    <line class="st1" x1="168.86" y1="117.51" x2="162.61" y2="93.46"/>
    <line class="st1" x1="169.5" y1="117.51" x2="163.22" y2="93.52"/>
    <line class="st1" x1="176.55" y1="118.48" x2="170.61" y2="93.5"/>
    <line class="st1" x1="171.35" y1="117.58" x2="165.05" y2="93.63"/>
    <line class="st1" x1="172.56" y1="117.69" x2="166.27" y2="93.67"/>
    <line class="st1" x1="170.12" y1="117.52" x2="163.83" y2="93.56"/>
    <line class="st1" x1="170.74" y1="117.54" x2="164.44" y2="93.6"/>
    <polyline class="st1" points="142.37 127.16 142.34 101.68 142.33 84.16"/>
    <polyline class="st1" points="143.25 126.54 143.03 101.71 142.87 84.72"/>
    <polyline class="st1" points="146.71 124.33 145.74 101.87 145.08 86.67"/>
    <polyline class="st1" points="141.75 126.32 141.7 101.67 141.67 84.37"/>
    <polyline class="st1" points="141.02 125.13 140.91 101.67 140.82 84.72"/>
    <polyline class="st1" points="139.53 122.99 139.31 101.67 139.14 85.41"/>
    <polyline class="st1" points="140.28 124.02 140.11 101.67 139.98 85.07"/>
    <polyline class="st1" points="137.25 120.22 136.91 101.67 136.63 86.37"/>
    <polyline class="st1" points="138.78 122.01 138.51 101.67 138.3 85.74"/>
    <polyline class="st1" points="138.02 121.09 137.71 101.67 137.47 86.06"/>
    <polyline class="st1" points="131.01 114.65 130.52 101.67 130.04 88.64"/>
    <polyline class="st1" points="132.59 115.84 132.12 101.67 131.68 88.11"/>
    <polyline class="st1" points="134.94 117.87 134.52 101.67 134.15 87.27"/>
    <polyline class="st1" points="134.16 117.16 133.72 101.67 133.32 87.56"/>
    <polyline class="st1" points="131.8 115.23 131.32 101.67 130.86 88.38"/>
    <polyline class="st1" points="133.37 116.49 132.92 101.67 132.5 87.84"/>
    <line class="st1" x1="168.22" y1="117.52" x2="162.01" y2="93.39"/>
    <line class="st1" x1="167.58" y1="117.55" x2="161.41" y2="93.31"/>
    <line class="st1" x1="163.56" y1="117.99" x2="157.82" y2="92.66"/>
    <line class="st1" x1="165.6" y1="117.71" x2="159.61" y2="93.03"/>
    <line class="st1" x1="166.26" y1="117.64" x2="160.2" y2="93.14"/>
    <line class="st1" x1="166.92" y1="117.59" x2="160.81" y2="93.23"/>
    <line class="st1" x1="164.24" y1="117.88" x2="158.41" y2="92.79"/>
    <line class="st1" x1="162.86" y1="118.11" x2="157.22" y2="92.52"/>
    <line class="st1" x1="164.92" y1="117.79" x2="159.01" y2="92.92"/>
    <line class="st1" x1="160.74" y1="118.55" x2="155.45" y2="92.02"/>
    <line class="st1" x1="160.02" y1="118.73" x2="154.86" y2="91.84"/>
    <line class="st1" x1="161.46" y1="118.39" x2="156.04" y2="92.2"/>
    <line class="st1" x1="156.32" y1="119.85" x2="151.93" y2="90.74"/>
    <line class="st1" x1="157.82" y1="119.35" x2="153.1" y2="91.21"/>
    <line class="st1" x1="159.3" y1="118.92" x2="154.27" y2="91.64"/>
    <line class="st1" x1="162.16" y1="118.24" x2="156.63" y2="92.36"/>
    <line class="st1" x1="158.56" y1="119.13" x2="153.68" y2="91.43"/>
    <line class="st1" x1="149.22" y1="122.93" x2="146.76" y2="87.92"/>
    <line class="st1" x1="157.08" y1="119.59" x2="152.51" y2="90.98"/>
    <line class="st1" x1="154.79" y1="120.41" x2="150.77" y2="90.21"/>
    <line class="st1" x1="154.02" y1="120.71" x2="150.19" y2="89.93"/>
    <line class="st1" x1="153.24" y1="121.03" x2="149.61" y2="89.63"/>
    <line class="st1" x1="151.65" y1="121.74" x2="148.47" y2="88.99"/>
    <line class="st1" x1="155.56" y1="120.12" x2="151.35" y2="90.48"/>
    <line class="st1" x1="152.45" y1="121.37" x2="149.04" y2="89.32"/>
    <line class="st1" x1="150.04" y1="122.51" x2="147.33" y2="88.29"/>
    <line class="st1" x1="150.85" y1="122.11" x2="147.9" y2="88.65"/>
    <polyline class="st1" points="147.56 123.84 146.41 101.9 145.63 87.11"/>
    <polyline class="st1" points="145.86 124.84 145.06 101.83 144.52 86.22"/>
    <line class="st1" x1="148.39" y1="123.38" x2="146.2" y2="87.52"/>
    <polyline class="st1" points="145 125.38 144.39 101.79 143.97 85.74"/>
    <polyline class="st1" points="144.13 125.94 143.71 101.75 143.42 85.24"/>
    <polyline class="st1" points="99.18 107.12 99.38 101.67 99.71 92.74"/>
    <polyline class="st1" points="100.83 106.9 100.98 101.67 101.23 92.89"/>
    <polyline class="st1" points="98.36 107.25 98.58 101.67 98.95 92.65"/>
    <polyline class="st1" points="97.54 107.39 97.79 101.67 98.18 92.55"/>
    <polyline class="st1" points="104.12 106.65 104.17 101.67 104.26 93.08"/>
    <polyline class="st1" points="103.3 106.69 103.38 101.67 103.51 93.05"/>
    <polyline class="st1" points="104.95 106.63 104.97 101.67 105.02 93.09"/>
    <polyline class="st1" points="106.59 106.63 106.57 101.67 106.52 93.09"/>
    <polyline class="st1" points="94.26 108.15 94.59 101.67 95.08 92.05"/>
    <polyline class="st1" points="95.9 107.74 96.19 101.67 96.64 92.31"/>
    <polyline class="st1" points="95.08 107.93 95.39 101.67 95.86 92.18"/>
    <polyline class="st1" points="91.81 108.89 92.2 101.67 92.74 91.59"/>
    <line class="st1" x1="105.77" y1="106.62" x2="105.77" y2="93.1"/>
    <polyline class="st1" points="102.47 106.75 102.58 101.67 102.75 93.01"/>
    <polyline class="st1" points="100 107 100.18 101.67 100.47 92.82"/>
    <polyline class="st1" points="96.72 107.56 96.99 101.67 97.41 92.43"/>
    <polyline class="st1" points="93.44 108.38 93.79 101.67 94.3 91.9"/>
    <polyline class="st1" points="92.62 108.62 92.99 101.67 93.52 91.75"/>
    <polyline class="st1" points="89.37 109.79 89.8 101.67 90.37 91.07"/>
    <polyline class="st1" points="90.99 109.17 91.4 101.67 91.95 91.42"/>
    <polyline class="st1" points="85.32 111.67 85.81 101.67 86.37 90.06"/>
    <polyline class="st1" points="86.13 111.25 86.61 101.67 87.17 90.27"/>
    <polyline class="st1" points="76.61 117.87 77.02 101.67 77.4 87.27"/>
    <polyline class="st1" points="75.83 118.62 76.23 101.67 76.57 86.98"/>
    <polyline class="st1" points="84.52 112.11 85.01 101.67 85.56 89.84"/>
    <polyline class="st1" points="83.72 112.57 84.21 101.67 84.76 89.61"/>
    <polyline class="st1" points="82.92 113.05 83.41 101.67 83.95 89.38"/>
    <line class="st1" x1="48.68" y1="118.11" x2="54.32" y2="92.52"/>
    <polyline class="st1" points="77.38 117.16 77.82 101.67 78.22 87.56"/>
    <polyline class="st1" points="78.17 116.49 78.62 101.67 79.04 87.84"/>
    <polyline class="st1" points="73.52 121.09 73.83 101.67 74.07 86.06"/>
    <polyline class="st1" points="72.77 122.01 73.03 101.67 73.24 85.74"/>
    <line class="st1" x1="27.71" y1="122.34" x2="31.25" y2="91.51"/>
    <line class="st1" x1="27.3" y1="122.72" x2="30.58" y2="91.29"/>
    <line class="st1" x1="26.89" y1="123.11" x2="29.9" y2="91.05"/>
    <polyline class="st1" points="26.12 123.95 27.56 103.99 28.53 90.53"/>
    <line class="st1" x1="30.39" y1="120.42" x2="35.2" y2="92.6"/>
    <line class="st1" x1="29.01" y1="121.31" x2="33.24" y2="92.11"/>
    <line class="st1" x1="29.93" y1="120.7" x2="34.55" y2="92.45"/>
    <line class="st1" x1="29.46" y1="121" x2="33.9" y2="92.29"/>
    <polyline class="st1" points="24.07 126.94 24.2 104.18 24.28 88.55"/>
    <polyline class="st1" points="187.47 126.94 187.34 104.18 187.26 88.55"/>
    <line class="st1" x1="184.24" y1="122.72" x2="180.96" y2="91.29"/>
    <polyline class="st1" points="187.16 126.38 186.79 104.15 186.53 88.93"/>
    <polyline class="st1" points="186.84 125.85 186.23 104.12 185.81 89.29"/>
    <polyline class="st1" points="186.16 124.86 185.11 104.05 184.4 89.94"/>
    <polyline class="st1" points="186.51 125.35 185.67 104.08 185.1 89.63"/>
    <line class="st1" x1="185.04" y1="123.52" x2="182.32" y2="90.8"/>
    <polyline class="st1" points="185.8 124.39 184.55 104.02 183.7 90.24"/>
    <polyline class="st1" points="185.43 123.95 183.98 103.99 183.01 90.53"/>
    <line class="st1" x1="184.65" y1="123.11" x2="181.64" y2="91.05"/>
    <line class="st1" x1="182.97" y1="121.64" x2="178.96" y2="91.92"/>
    <line class="st1" x1="181.15" y1="120.42" x2="176.34" y2="92.6"/>
    <line class="st1" x1="183.41" y1="121.98" x2="179.62" y2="91.73"/>
    <line class="st1" x1="183.83" y1="122.34" x2="180.29" y2="91.51"/>
    <line class="st1" x1="181.62" y1="120.7" x2="176.99" y2="92.45"/>
    <line class="st1" x1="182.53" y1="121.31" x2="178.3" y2="92.11"/>
    <line class="st1" x1="182.08" y1="121" x2="177.64" y2="92.29"/>
    <line class="st1" x1="180.67" y1="120.15" x2="175.69" y2="92.74"/>
    <line class="st1" x1="179.69" y1="119.65" x2="174.41" y2="92.99"/>
    <line class="st1" x1="180.18" y1="119.89" x2="175.05" y2="92.87"/>
    <line class="st1" x1="179.18" y1="119.42" x2="173.77" y2="93.1"/>
    <line class="st1" x1="177.63" y1="118.82" x2="171.87" y2="93.37"/>
    <line class="st1" x1="175.45" y1="118.19" x2="169.36" y2="93.59"/>
    <polyline class="st1" points="126.22 111.67 125.73 101.67 125.17 90.06"/>
    <polyline class="st1" points="125.41 111.25 124.94 101.67 124.37 90.27"/>
    <polyline class="st1" points="119.73 108.89 119.35 101.67 118.8 91.59"/>
    <polyline class="st1" points="120.55 109.17 120.14 101.67 119.59 91.42"/>
    <polyline class="st1" points="122.99 110.12 122.54 101.67 121.97 90.88"/>
    <polyline class="st1" points="122.17 109.79 121.74 101.67 121.17 91.07"/>
    <polyline class="st1" points="117.28 108.15 116.95 101.67 116.46 92.05"/>
    <polyline class="st1" points="116.46 107.93 116.15 101.67 115.68 92.18"/>
    <polyline class="st1" points="124.6 110.85 124.14 101.67 123.57 90.48"/>
    <polyline class="st1" points="121.36 109.47 120.94 101.67 120.38 91.25"/>
    <polyline class="st1" points="114 107.39 113.76 101.67 113.36 92.55"/>
    <polyline class="st1" points="118.1 108.38 117.75 101.67 117.24 91.9"/>
    <polyline class="st1" points="114.82 107.56 114.55 101.67 114.13 92.43"/>
    <polyline class="st1" points="113.18 107.25 112.96 101.67 112.6 92.65"/>
    <polyline class="st1" points="118.92 108.62 118.55 101.67 118.02 91.75"/>
    <polyline class="st1" points="115.64 107.74 115.35 101.67 114.9 92.31"/>
    <polyline class="st1" points="25.38 124.86 26.43 104.05 27.14 89.94"/>
    <polyline class="st1" points="25.03 125.35 25.87 104.08 26.44 89.63"/>
    <polyline class="st1" points="24.7 125.85 25.31 104.12 25.73 89.29"/>
    <polyline class="st1" points="24.38 126.38 24.75 104.15 25.01 88.93"/>
    <line class="st1" x1="28.57" y1="121.64" x2="32.58" y2="91.92"/>
    <line class="st1" x1="28.14" y1="121.98" x2="31.92" y2="91.73"/>
    <polyline class="st1" points="25.74 124.39 27 104.02 27.84 90.24"/>
    <line class="st1" x1="26.5" y1="123.52" x2="29.22" y2="90.8"/>
    <line class="st1" x1="34.99" y1="118.48" x2="40.93" y2="93.5"/>
    <line class="st1" x1="34.45" y1="118.64" x2="40.31" y2="93.44"/>
    <line class="st1" x1="30.87" y1="120.15" x2="35.85" y2="92.74"/>
    <line class="st1" x1="32.87" y1="119.21" x2="38.41" y2="93.2"/>
    <line class="st1" x1="33.91" y1="118.82" x2="39.68" y2="93.37"/>
    <line class="st1" x1="31.36" y1="119.89" x2="36.49" y2="92.87"/>
    <line class="st1" x1="33.39" y1="119" x2="39.04" y2="93.29"/>
    <line class="st1" x1="32.36" y1="119.42" x2="37.77" y2="93.1"/>
    <polyline class="st1" points="136.48 119.4 136.11 101.67 135.8 86.68"/>
    <polyline class="st1" points="135.71 118.62 135.32 101.67 134.97 86.98"/>
    <polyline class="st1" points="127.82 112.57 127.33 101.67 126.79 89.61"/>
    <polyline class="st1" points="130.22 114.09 129.73 101.67 129.22 88.89"/>
    <polyline class="st1" points="129.42 113.56 128.93 101.67 128.41 89.14"/>
    <polyline class="st1" points="128.62 113.05 128.13 101.67 127.6 89.38"/>
    <polyline class="st1" points="127.02 112.11 126.53 101.67 125.98 89.84"/>
    <polyline class="st1" points="123.8 110.48 123.34 101.67 122.77 90.68"/>
    <polyline class="st1" points="110.71 106.9 110.56 101.67 110.31 92.89"/>
    <polyline class="st1" points="112.36 107.12 112.16 101.67 111.83 92.74"/>
    <polyline class="st1" points="109.89 106.81 109.76 101.67 109.55 92.96"/>
    <polyline class="st1" points="111.54 107 111.36 101.67 111.07 92.82"/>
    <polyline class="st1" points="107.42 106.65 107.37 101.67 107.28 93.08"/>
    <polyline class="st1" points="109.07 106.75 108.96 101.67 108.79 93.01"/>
    <polyline class="st1" points="108.24 106.69 108.17 101.67 108.03 93.05"/>
    <polyline class="st1" points="101.65 106.81 101.78 101.67 101.99 92.96"/>
    <polyline class="st1" points="78.95 115.84 79.42 101.67 79.87 88.11"/>
    <polyline class="st1" points="82.12 113.56 82.61 101.67 83.13 89.14"/>
    <polyline class="st1" points="80.53 114.65 81.02 101.67 81.5 88.64"/>
    <polyline class="st1" points="79.74 115.23 80.22 101.67 80.69 88.38"/>
    <polyline class="st1" points="72.01 122.99 72.23 101.67 72.4 85.41"/>
    <polyline class="st1" points="71.26 124.02 71.43 101.67 71.56 85.07"/>
    <polyline class="st1" points="75.06 119.4 75.43 101.67 75.74 86.68"/>
    <polyline class="st1" points="74.29 120.22 74.63 101.67 74.91 86.37"/>
    <polyline class="st1" points="90.18 109.47 90.6 101.67 91.16 91.25"/>
    <polyline class="st1" points="87.75 110.48 88.2 101.67 88.77 90.68"/>
    <polyline class="st1" points="88.56 110.12 89 101.67 89.57 90.88"/>
    <polyline class="st1" points="86.94 110.85 87.4 101.67 87.97 90.48"/>
    <polyline class="st1" points="70.52 125.13 70.64 101.67 70.72 84.72"/>
    <polyline class="st1" points="69.79 126.32 69.84 101.67 69.87 84.37"/>
    <polyline class="st1" points="69.18 127.16 69.2 101.68 69.21 84.16"/>
    <polyline class="st1" points="68.29 126.54 68.51 101.71 68.67 84.72"/>
    <polyline class="st1" points="67.41 125.94 67.83 101.75 68.12 85.24"/>
    <polyline class="st1" points="64.83 124.33 65.8 101.87 66.47 86.67"/>
    <polyline class="st1" points="63.98 123.84 65.13 101.9 65.91 87.11"/>
    <polyline class="st1" points="66.54 125.38 67.16 101.79 67.57 85.74"/>
    <polyline class="st1" points="65.68 124.84 66.48 101.83 67.02 86.22"/>
    <line class="st1" x1="62.32" y1="122.93" x2="64.78" y2="87.92"/>
    <line class="st1" x1="63.15" y1="123.38" x2="65.35" y2="87.52"/>
    <line class="st1" x1="61.5" y1="122.51" x2="64.21" y2="88.29"/>
    <line class="st1" x1="59.89" y1="121.74" x2="63.07" y2="88.99"/>
    <line class="st1" x1="56.75" y1="120.41" x2="60.77" y2="90.21"/>
    <line class="st1" x1="59.09" y1="121.37" x2="62.5" y2="89.32"/>
    <line class="st1" x1="60.69" y1="122.11" x2="63.65" y2="88.65"/>
    <line class="st1" x1="57.52" y1="120.71" x2="61.35" y2="89.93"/>
    <line class="st1" x1="55.98" y1="120.12" x2="60.19" y2="90.48"/>
    <line class="st1" x1="55.22" y1="119.85" x2="59.61" y2="90.74"/>
    <line class="st1" x1="47.99" y1="117.99" x2="53.73" y2="92.66"/>
    <line class="st1" x1="52.24" y1="118.92" x2="57.27" y2="91.64"/>
    <line class="st1" x1="52.98" y1="119.13" x2="57.86" y2="91.43"/>
    <line class="st1" x1="54.47" y1="119.59" x2="59.03" y2="90.98"/>
    <line class="st1" x1="53.72" y1="119.35" x2="58.45" y2="91.21"/>
    <line class="st1" x1="51.52" y1="118.73" x2="56.69" y2="91.84"/>
    <polyline class="st1" points="81.33 114.09 81.81 101.67 82.32 88.89"/>
    <line class="st1" x1="58.3" y1="121.03" x2="61.93" y2="89.63"/>
  </g>
  <g id="BASE">
    <line class="st2" x1="141.76" y1="127.23" x2="23.92" y2="127.23"/>
    <line class="st2" x1="141.76" y1="127.23" x2="187.62" y2="127.23"/>
  </g>
</svg>