<?xml version="1.0" encoding="utf-8"?>
<!-- Generator: Adobe Illustrator 27.1.1, SVG Export Plug-In . SVG Version: 6.00 Build 0)  -->
<svg version="1.1" xmlns="http://www.w3.org/2000/svg" xmlns:xlink="http://www.w3.org/1999/xlink" x="0px" y="0px"
	 viewBox="0 0 500 500" style="enable-background:new 0 0 500 500;" xml:space="preserve">
<style type="text/css">
	.st0{fill:#FFFFFF;}
	.st1{fill:#D71F2A;}
	.st2{fill:#3655A5;}
</style>
<symbol  id="USA" viewBox="-256 -256 512 512">
	<rect x="-256" y="-256" class="st0" width="512" height="512"/>
	<g>
		<rect x="-256" y="85.3" class="st1" width="512" height="56.9"/>
		<rect x="-256" y="-28.4" class="st1" width="512" height="56.9"/>
		<rect x="-256" y="-142.2" class="st1" width="512" height="56.9"/>
		<rect x="-256" y="-256" class="st1" width="512" height="56.9"/>
	</g>
	<rect x="-256" y="199.1" class="st1" width="512" height="56.9"/>
	<rect x="-256" y="-28.4" class="st2" width="256" height="284.4"/>
	<g>
		<polygon class="st0" points="-204.5,104.9 -210.1,87.7 -228.2,87.7 -213.5,77 -219.1,59.8 -204.5,70.5 -189.8,59.8 -195.4,77 
			-180.8,87.7 -198.9,87.7 		"/>
		<polygon class="st0" points="-198.9,25.6 -204.5,42.8 -210.1,25.6 -228.2,25.6 -213.5,14.9 -219.1,-2.3 -204.5,8.3 -189.8,-2.3 
			-195.4,14.9 -180.8,25.6 		"/>
		<polygon class="st0" points="-204.5,167 -210.1,149.8 -228.2,149.8 -213.5,139.2 -219.1,121.9 -204.5,132.6 -189.8,121.9 
			-195.4,139.2 -180.8,149.8 -198.9,149.8 		"/>
		<polygon class="st0" points="-128,104.9 -133.6,87.7 -151.7,87.7 -137,77 -142.6,59.8 -128,70.5 -113.4,59.8 -119,77 -104.3,87.7 
			-122.4,87.7 		"/>
		<polygon class="st0" points="-122.4,25.6 -128,42.8 -133.6,25.6 -151.7,25.6 -137,14.9 -142.6,-2.3 -128,8.3 -113.4,-2.3 
			-119,14.9 -104.3,25.6 		"/>
		<polygon class="st0" points="-45.9,25.6 -51.5,42.8 -57.1,25.6 -75.2,25.6 -60.6,14.9 -66.2,-2.3 -51.5,8.3 -36.9,-2.3 
			-42.5,14.9 -27.8,25.6 		"/>
		<polygon class="st0" points="-51.5,104.9 -57.1,87.7 -75.2,87.7 -60.6,77 -66.2,59.8 -51.5,70.5 -36.9,59.8 -42.5,77 -27.8,87.7 
			-45.9,87.7 		"/>
		<polygon class="st0" points="-128,167 -133.6,149.8 -151.7,149.8 -137,139.2 -142.6,121.9 -128,132.6 -113.4,121.9 -119,139.2 
			-104.3,149.8 -122.4,149.8 		"/>
		<polygon class="st0" points="-51.5,167 -57.1,149.8 -75.2,149.8 -60.6,139.2 -66.2,121.9 -51.5,132.6 -36.9,121.9 -42.5,139.2 
			-27.8,149.8 -45.9,149.8 		"/>
		<polygon class="st0" points="-204.5,230.1 -210.1,212.9 -228.2,212.9 -213.5,202.2 -219.1,185 -204.5,195.6 -189.8,185 
			-195.4,202.2 -180.8,212.9 -198.9,212.9 		"/>
		<polygon class="st0" points="-128,230.1 -133.6,212.9 -151.7,212.9 -137,202.2 -142.6,185 -128,195.6 -113.4,185 -119,202.2 
			-104.3,212.9 -122.4,212.9 		"/>
		<polygon class="st0" points="-51.5,230.1 -57.1,212.9 -75.2,212.9 -60.6,202.2 -66.2,185 -51.5,195.6 -36.9,185 -42.5,202.2 
			-27.8,212.9 -45.9,212.9 		"/>
	</g>
</symbol>
<g id="Layer_1">
</g>
<g id="_x39_">
</g>
<g id="_x35_">
	
		<use xlink:href="#USA"  width="512" height="512" x="-256" y="-256" transform="matrix(0.9741 0 0 -0.9766 250.6248 250)" style="overflow:visible;"/>
</g>
<g id="_x31_">
</g>
</svg>
