<?xml version="1.0" encoding="utf-8"?>
<!-- Generator: Adobe Illustrator 27.5.0, SVG Export Plug-In . SVG Version: 6.00 Build 0)  -->
<svg version="1.1" xmlns="http://www.w3.org/2000/svg" xmlns:xlink="http://www.w3.org/1999/xlink" x="0px" y="0px"
	 viewBox="0 0 360 360" style="enable-background:new 0 0 360 360;" xml:space="preserve">
<style type="text/css">
	.st0{fill:#FFFFFF;}
</style>
<g id="Layer_1">
</g>
<g id="Default">
	<g>
		<path class="st0" d="M325.1,196.8v10.4h-2c-2.2,0-6.6,0-6.6,0v0c-5.7-0.1-13.1-0.4-20.1-2.1l0,0c-17.3-3.8-31.2-15.5-41.5-25.3
			c-2.6-2.4-5.1-4.9-7.8-7.6c-9.1-9-18.5-18.3-29.2-24.6c-7.6-4.6-16.5-7.9-26.3-9.8c-17.1-3.4-38-3.5-56.5-3.5c-4.9,0-9.5,0-14-0.1
			H34.9v-25h86.2c4.9,0.1,9.9,0.1,15.2,0.1c20.5,0.1,43.8,0.1,62.6,4.1c13.4,2.8,25.5,8.3,35.2,16.1c10.2,8.1,19.4,19.5,28.2,30.5
			c5.6,7,11.4,14.3,17.3,20.4c12.7,12.8,22.6,16.9,39,16.4H325.1z"/>
		<path class="st0" d="M275,206.5c-13.5-0.4-27-1.2-39.4-2.6c0,0,0,0-0.1,0c0,0-0.2,0-0.4,0c-0.1,0-0.2,0-0.3-0.1
			c-1.9-0.3-7.1-1.1-12.1-2.5l-2-0.6c-6.1-1.8-14.3-4.1-20.4-5.2c-0.3,0-0.6-0.1-0.9-0.2c-0.3,0-0.6-0.1-0.9-0.1
			c-16.4-2.5-39.3-2.5-59.5-2.6c-6.4,0-12.5,0-17.9-0.1H81.6v-25h39.5c5.7,0.1,11.5,0.1,17.5,0.1c4.6,0,9.1,0,13.7,0
			c0.5,0,1.1,0,1.6,0c0.3,0,0.6,0,0.9,0c1.1,0,2.2,0,3.4,0.1c1.3,0,2.6,0.1,3.9,0.1c1.2,0,2.4,0.1,3.6,0.1c7.8,0.3,15.5,1,23,2.2
			c0.3,0.1,0.6,0.1,1,0.2c0.3,0,0.7,0.1,1,0.2c4.2,0.8,8.4,1.7,12.4,2.9c9.6,3,18.7,8.3,27.5,13.5c4.1,2.5,8.4,5,12.6,7.2
			c6.2,3.3,12.7,6.2,19.5,8.5c0.7,0.2,1.4,0.5,2.1,0.7c1.3,0.4,2.6,0.8,3.9,1.2c0.8,0.2,1.6,0.5,2.4,0.7
			C272.4,205.8,273.7,206.1,275,206.5z"/>
		<path class="st0" d="M325.1,211.4v10.4H104.9v-25h16.2c5.4,0.1,11.5,0.1,17.9,0.1c20,0,42.7,0.1,58.8,2.5
			c5.9,0.8,15.4,3.6,21.7,5.4l2,0.6c5,1.4,10.2,2.2,12.4,2.6c0.2,0,0.3,0,0.4,0.1c0.1,0,0.2,0,0.3,0c0.1,0,0.2,0,0.2,0
			c0.1,0,0.1,0,0.1,0h0c21.9,2.9,47.8,3.1,70.7,3.2h0.7c1.7,0,3.3,0,5,0c0.5,0,1,0,1.5,0h0.3c0,0,2.1,0,3.1,0h0l6.7,0h0v0H325.1z"/>
		<path class="st0" d="M278.8,203c-1.5-0.3-3-0.7-4.5-1.1c-1.5-0.4-3-0.8-4.4-1.2c-0.7-0.2-1.5-0.4-2.2-0.7
			c-0.6-0.2-1.3-0.4-1.9-0.6c-0.9-0.3-1.7-0.6-2.6-0.9c-0.6-0.2-1.2-0.4-1.8-0.7c-0.7-0.3-1.4-0.5-2.1-0.8c-0.6-0.2-1.2-0.5-1.8-0.7
			c-0.8-0.3-1.6-0.6-2.3-1c-0.7-0.3-1.3-0.6-2-0.9c-0.4-0.2-0.8-0.4-1.3-0.6c-0.4-0.2-0.7-0.3-1.1-0.5c-0.6-0.3-1.2-0.6-1.8-0.9
			c-1.2-0.6-2.5-1.2-3.7-1.9c-4.2-2.2-8.4-4.7-12.5-7.1c-9-5.3-18.3-10.9-28.4-14c-3-0.9-6-1.7-9.1-2.3c-0.6-0.1-1.2-0.3-1.9-0.4
			c-0.7-0.1-1.4-0.3-2.2-0.4c-0.6-0.1-1.3-0.2-1.9-0.3c-4.3-0.7-8.6-1.2-13-1.6c-0.5,0-1.1-0.1-1.6-0.1c-1.4-0.1-2.8-0.2-4.3-0.3
			c-0.9-0.1-1.8-0.1-2.7-0.1c-2-0.1-4-0.2-6-0.2c-1,0-1.9-0.1-2.8-0.1c-1.1,0-2.1,0-3.2-0.1c-0.7,0-1.3,0-2,0
			c-3.5,0-7.1-0.1-10.6-0.1h-4.4c-6.1,0-11.8,0-17.5-0.1H58.3v-25h62.8c4.5,0.1,9.1,0.1,14,0.1c18.3,0.1,39,0.1,55.7,3.4
			c9.3,1.9,17.7,5,24.9,9.3c10.2,6.1,19.5,15.2,28.4,24c2.6,2.5,5.2,5.2,7.8,7.6c1.4,1.3,2.8,2.6,4.2,3.9c0.5,0.4,1,0.9,1.5,1.3
			c0.5,0.5,1,0.9,1.5,1.3c0.5,0.5,1,0.9,1.6,1.3c0.5,0.5,1.1,0.9,1.6,1.3c0.5,0.4,1.1,0.9,1.7,1.3c0.1,0.1,0.2,0.1,0.2,0.2
			c0.5,0.4,1,0.7,1.5,1.1c0.6,0.5,1.3,1,1.9,1.4c0.5,0.4,1.1,0.8,1.6,1.1c0.5,0.4,1,0.7,1.5,1c0.2,0.2,0.5,0.3,0.7,0.5
			c0.4,0.3,0.8,0.5,1.2,0.8c0.7,0.5,1.4,0.9,2.2,1.3c0.6,0.4,1.2,0.7,1.9,1.1c0.1,0,0.1,0.1,0.2,0.1c0.5,0.3,1,0.6,1.6,0.8
			C278.6,202.9,278.7,202.9,278.8,203z"/>
		<rect x="128.3" y="226" class="st0" width="196.8" height="25"/>
	</g>
</g>
</svg>
