<?xml version="1.0" encoding="utf-8"?>
<!-- Generator: Adobe Illustrator 27.5.0, SVG Export Plug-In . SVG Version: 6.00 Build 0)  -->
<svg version="1.1" xmlns="http://www.w3.org/2000/svg" xmlns:xlink="http://www.w3.org/1999/xlink" x="0px" y="0px"
	 viewBox="0 0 141.7 141.7" style="enable-background:new 0 0 141.7 141.7;" xml:space="preserve">
<style type="text/css">
	.st0{opacity:0.5;}
	.st1{fill:#FFFFFF;}
</style>
<g id="Layer_5">
</g>
<g id="Layer_4">
	<g id="SPLINE_00000060752304574981837430000012413336787527731604_" class="st0">
		<path class="st1" d="M22.3,81.2c-0.5,0-0.9-0.4-1-0.9c-0.1-0.5,0.3-1.1,0.8-1.1l1-0.2c3.4-0.5,5.8-1,8.4-1.6
			c2.7-0.6,5-1.2,7.7-2.1c2.5-0.8,5.4-1.8,8.3-2.8l1.8-0.6c3.5-1.2,6.5-2.2,9.8-2.9c3.4-0.8,7.1-1.2,11.2-1.3
			c5.3-0.2,9.8,0.2,14.3,1.2c4.4,1,9.1,2.7,12.8,4c0.7,0.3,1.4,0.5,2.1,0.7c3.8,1.3,6.1,2,8.1,2.5c1.3,0.3,2.3,0.6,4.1,1
			c0.5,0.1,0.9,0.7,0.8,1.2c-0.1,0.5-0.7,0.9-1.2,0.8c-1.9-0.4-2.9-0.7-4.2-1c-2-0.5-4.4-1.2-8.2-2.6c-0.7-0.2-1.4-0.5-2.1-0.7
			c-3.7-1.3-8.3-3-12.6-3.9c-4.3-1-8.7-1.3-13.8-1.2c-3.9,0.1-7.5,0.5-10.8,1.3c-3.2,0.7-6.1,1.7-9.6,2.8l-1.8,0.6
			c-2.9,1-5.8,2-8.3,2.8c-2.7,0.9-5.1,1.5-7.9,2.1c-2.7,0.6-5.1,1.1-8.6,1.6l-1,0.2C22.4,81.2,22.3,81.2,22.3,81.2z"/>
	</g>
</g>
<g id="GUIDE">
</g>
<g id="Layer_3">
	<path class="st1" d="M-0.9,83.8l-0.2-2l1-0.1c1.7-0.2,3.3-0.3,4.5-0.4c9.5-0.9,14.5-1.6,17.7-2l1.1-0.2v2H26v-2.4l1-0.2l0,0l0,0
		c0.1,0,0.1,0,0.2,0c0.1,0,0.1,0,0.2,0c0.3-0.1,0.7-0.1,1-0.2c0.4-0.1,0.8-0.2,1.2-0.2c0.6-0.1,1.2-0.3,1.9-0.4c1.8-0.4,4.1-1,7-1.9
		l1.3-0.4v5.9h1.6v-6.4l0.7-0.2c1.5-0.5,3.1-1,4.6-1.6l2.7-0.9c3.4-1.2,6.5-2.2,9.8-2.9c0.7-0.2,1.4-0.3,2.1-0.4l1.2-0.2v12.6h15.9
		V68.1l1.8,0.2c0.3,0,0.6,0.1,0.9,0.1l0.3,0c0.3,0,0.6,0.1,1,0.2l0.1,0c0.3,0,0.6,0.1,0.9,0.2c0.4,0.1,0.9,0.2,1.3,0.3
		c1.2,0.3,2.4,0.6,4,1c0.6,0.2,1.2,0.3,1.7,0.5l0.2,0.1c1,0.3,2,0.6,2.9,0.9c0.3,0.1,0.6,0.2,0.9,0.3c0.3,0.1,0.7,0.2,1,0.3l0.3,0.1
		c0.2,0.1,0.5,0.2,0.7,0.2l1.9,0.7v7.7l2.2,0v-7l1.3,0.5c0.2,0.1,0.5,0.2,0.7,0.2l0.9,0.3c0.3,0.1,0.6,0.2,0.8,0.3l1,0.3
		c0.1,0,0.3,0.1,0.4,0.1l0.2,0c0.2,0,0.3,0.1,0.4,0.1l0.7,0.2c0.2,0.1,0.5,0.1,0.7,0.2c0.1,0,0.3,0.1,0.4,0.1l0.9,0.3v4.4h1.6v-4
		l3.4,0.8c3,0.7,8.7,1.9,23.8,3.4c1.3,0.1,2.6,0.3,4,0.4l1,0.1l-0.2,2l-1-0.1c-1.4-0.1-2.7-0.3-4-0.4c-15.3-1.5-21-2.8-24.1-3.5
		l-1-0.2v3.5H107v-4.9c-0.2,0-0.4-0.1-0.6-0.2l-0.7-0.2c-0.2,0-0.3-0.1-0.5-0.1l-0.1,0c-0.1,0-0.3-0.1-0.4-0.1l-1-0.3
		c-0.3-0.1-0.6-0.2-0.9-0.3l-0.4-0.1v6.2l-6.2,0v-8.4l-0.6-0.2c-0.2-0.1-0.4-0.2-0.6-0.2l-0.3-0.1c-0.4-0.1-0.7-0.2-1-0.4
		c-0.3-0.1-0.6-0.2-0.9-0.3C92,73.3,91,73,90.1,72.6l-0.2-0.1c-0.6-0.2-1.1-0.4-1.7-0.5c-1.5-0.4-2.7-0.8-3.9-1
		c-0.4-0.1-0.8-0.2-1.3-0.3c-0.3-0.1-0.5-0.1-0.8-0.1l-0.2,0c-0.3-0.1-0.6-0.1-0.9-0.1l-0.3,0c-0.2,0-0.3,0-0.5-0.1v12.8H60.6V70.9
		c-0.3,0.1-0.6,0.1-0.9,0.2c-3.2,0.7-6.2,1.7-9.6,2.8l-2.7,0.9c-1.3,0.4-2.6,0.9-3.9,1.3v6.9h-5.6V78c-2.4,0.7-4.3,1.2-5.9,1.5
		c-0.7,0.2-1.3,0.3-1.9,0.4c-0.4,0.1-0.8,0.2-1.2,0.2c-0.3,0.1-0.6,0.1-0.9,0.2v2.8h-6.8v-1.7c-3.3,0.5-8.2,1.1-16.7,1.9
		c-1.3,0.1-2.8,0.3-4.5,0.4L-0.9,83.8z"/>
</g>
</svg>
