<?xml version="1.0" encoding="UTF-8"?>
<svg id="Icons" xmlns="http://www.w3.org/2000/svg" xmlns:xlink="http://www.w3.org/1999/xlink" viewBox="0 0 188.85 188.85">
  <defs>
    <style>
      .cls-1 {
        fill: #fff;
      }

      .cls-2 {
        stroke-linecap: round;
      }

      .cls-2, .cls-3, .cls-4 {
        fill: none;
      }

      .cls-2, .cls-4 {
        stroke: #231f20;
        stroke-miterlimit: 10;
        stroke-width: 2.13px;
      }

      .cls-5 {
        clip-path: url(#clippath);
      }
    </style>
    <clipPath id="clippath">
      <rect class="cls-3" x="0" y="0" width="188.85" height="188.85"/>
    </clipPath>
  </defs>
  <g class="cls-5">
    <rect x="-2993.43" y="-80.29" width="3322.56" height="889.82"/>
    <path class="cls-1" d="M71.13,33.46c8.63,0,38.85,1.4,49.53,2.81s27.08,1.4,31.94,22.44c4.86,21.04,7.39,34.88,6.04,42.41-1.83,10.25-3.86,11.67-23.75,15.29-14.24,2.59-61.74,7.02-79.52-.4-6.73-2.81-11.41-7.1-14.35-18.34-2.37-9.06-6.58-32.05-6.8-38.95-.22-6.91-2.91-14.68,9.71-19.53,12.63-4.86,18.56-5.72,27.19-5.72Z"/>
    <path class="cls-1" d="M54.62,113.63s-13.7,33.34-14.68,35.93-.79,3.52,1.04,4.53c1.57,.86,2.99,.11,4.24-2.52,1.6-3.34,16.26-35.36,16.26-35.36l-6.87-2.59Z"/>
    <path class="cls-1" d="M68.79,117.88s-3.52,12.23-3.96,13.92c-.43,1.69-.58,3.7,1.4,3.88s2.41-.11,3.2-2.27,5.36-14.39,5.36-14.39l-6.01-1.15Z"/>
    <path class="cls-1" d="M121.34,116.11l13.06,41.33s.58,2.09,2.34,1.94,3.85-.79,3.02-3.88-11.4-40.57-11.4-40.57l-7.01,1.19Z"/>
    <path class="cls-1" d="M135.58,113.78l11.01,22.7s.94,2.05,2.77,1.58,2.55-1.69,1.8-3.52c-.76-1.83-9.71-22.8-9.71-22.8l-5.86,2.05Z"/>
    <path class="cls-4" d="M75.32,36.75c9.01,.1,38.12,1.46,48.63,3.07,11.76,1.8,21.36,5.76,24.37,17.75,3.57,14.26,5.94,29.41,5.82,33.84-.11,4.32-1.06,6.99-10.59,9.85-8.69,2.61-43.54,2.41-57.84,2.54-13.84,.13-27.69,1.38-32.46-16.97-3.27-12.57-5.36-20.42-6.42-25.83-1.06-5.4-4.66-16.84,6.67-20.66,11.34-3.81,13.99-3.69,21.82-3.6Z"/>
    <path class="cls-2" d="M138.76,89.6s-13.96-1.11-30.52-1.43c-10.91-.21-24.1,.12-31.8,3.96-1.65,.83-5.36,3.21-5.36,3.21"/>
  </g>
</svg>