<?xml version="1.0" encoding="utf-8"?>
<!-- Generator: Adobe Illustrator 26.5.0, SVG Export Plug-In . SVG Version: 6.00 Build 0)  -->
<svg version="1.1" id="Layer_1" xmlns="http://www.w3.org/2000/svg" xmlns:xlink="http://www.w3.org/1999/xlink" x="0px" y="0px"
	 viewBox="0 0 42.5 42.5" style="enable-background:new 0 0 42.5 42.5;" xml:space="preserve">
<style type="text/css">
	.st0{fill:#FFFFFF;}
</style>
<g>
	<path class="st0" d="M35.6,25c0-12.1-9-14.6-9-14.6s7.6-4,7.8-1.9c0.2,2.3-1.5,6.2-1.6,6.4c0.3-0.3,6.7-6.1,2.6-8.3
		C31,4.3,22.6,9.9,22.6,9.9s-8.8-0.1-12.5,5c-1.4,2-2.3,4.2-2.7,6.3c0,0,6.4-4.9,11-8.3C12.5,18.9,7.2,25.2,7.3,25.7
		c0.3,2.1,1.2,4,2.8,5.5c1.7,1.7,5.1,3.7,11.6,3.7s13.1-3.9,13.1-7.5h-8.5c0,0,0.9,2.7-5.4,2.7S15.7,25,15.7,25H35.6z M15.5,21
		c0,0,0.3-5.6,5.8-5.6c5.4,0,4.6,5.6,4.6,5.6H15.5z"/>
</g>
</svg>
